G04 Layer_Color=128*
%FSLAX43Y43*%
%MOMM*%
G71*
G01*
G75*
%ADD20R,0.650X0.800*%
%ADD21R,0.800X0.650*%
%ADD22R,0.600X0.900*%
%ADD23R,0.900X0.600*%
%ADD24R,1.250X1.400*%
%ADD25R,0.400X0.400*%
%ADD26R,0.300X0.700*%
%ADD44R,1.550X1.350*%
D20*
X21006Y10354D02*
D03*
Y9154D02*
D03*
X55985Y20707D02*
D03*
X55985Y19507D02*
D03*
X20777Y25975D02*
D03*
Y24775D02*
D03*
X63235Y20807D02*
D03*
Y19607D02*
D03*
X70785Y20807D02*
D03*
Y19607D02*
D03*
X78235Y20757D02*
D03*
Y19557D02*
D03*
X10566Y28259D02*
D03*
X10566Y27059D02*
D03*
X85835Y19307D02*
D03*
Y20507D02*
D03*
X48485Y20607D02*
D03*
Y19407D02*
D03*
D21*
X14494Y15951D02*
D03*
X13294D02*
D03*
X13268Y24915D02*
D03*
X14468D02*
D03*
X13294Y19810D02*
D03*
X14494D02*
D03*
X13294Y17245D02*
D03*
X14494D02*
D03*
X13294Y18515D02*
D03*
X14494D02*
D03*
X13268Y23595D02*
D03*
X14468D02*
D03*
D22*
X21006Y6232D02*
D03*
Y7332D02*
D03*
X55985Y16607D02*
D03*
Y17707D02*
D03*
X20777Y22081D02*
D03*
Y23181D02*
D03*
X63200Y16598D02*
D03*
Y17698D02*
D03*
X85835Y17607D02*
D03*
Y16507D02*
D03*
X78224Y17642D02*
D03*
Y16542D02*
D03*
X70800Y17648D02*
D03*
Y16548D02*
D03*
X48485Y16507D02*
D03*
Y17607D02*
D03*
D23*
X10880Y29716D02*
D03*
X11980Y29716D02*
D03*
X4538Y2132D02*
D03*
X3438D02*
D03*
D24*
X81285Y20307D02*
D03*
X81285Y16607D02*
D03*
X73785Y20307D02*
D03*
Y16607D02*
D03*
X66285Y20307D02*
D03*
Y16607D02*
D03*
X24000Y25850D02*
D03*
Y22150D02*
D03*
X58785Y20307D02*
D03*
Y16607D02*
D03*
X24000Y9850D02*
D03*
Y6150D02*
D03*
X51285Y20307D02*
D03*
X51285Y16607D02*
D03*
X88785D02*
D03*
X88785Y20307D02*
D03*
D25*
X11979Y26831D02*
D03*
Y28231D02*
D03*
D26*
X13347Y26717D02*
D03*
X13847Y26717D02*
D03*
X14347Y26717D02*
D03*
X14847D02*
D03*
Y29617D02*
D03*
X14347Y29617D02*
D03*
X13847D02*
D03*
X13347D02*
D03*
D44*
X14097Y28167D02*
D03*
M02*
