G04 Layer_Physical_Order=1*
G04 Layer_Color=255*
%FSLAX43Y43*%
%MOMM*%
G71*
G01*
G75*
%ADD10C,0.203*%
%ADD11C,10.000*%
%ADD12O,0.950X1.000*%
%ADD13C,0.200*%
%ADD14C,0.254*%
%ADD15C,3.600*%
%ADD16C,2.000*%
%ADD17C,1.800*%
%ADD18R,1.800X1.800*%
%ADD19C,0.800*%
G36*
X92251Y3138D02*
X88391Y3138D01*
X88251Y3138D01*
X72710Y7138D01*
X88251Y11138D01*
X72710Y15138D01*
X92251D01*
Y3138D01*
D02*
G37*
G36*
X66793Y11138D02*
X51251Y7138D01*
X66793Y3138D01*
X47251D01*
X47251Y15138D01*
X51112Y15138D01*
X51251D01*
X66793Y11138D01*
D02*
G37*
G36*
X87293D02*
X71752Y7138D01*
X87293Y3138D01*
X71751D01*
Y3138D01*
X67752D01*
Y11138D01*
X67751Y3515D01*
Y3138D01*
X52209Y7138D01*
X67751Y11138D01*
X52209Y15138D01*
X71752D01*
Y13808D01*
X71752Y14761D01*
Y15138D01*
X87293Y11138D01*
D02*
G37*
D10*
X94891Y30548D02*
G03*
X98548Y26891I2759J-898D01*
G01*
X82407Y17902D02*
G03*
X82537Y18457I-1122J555D01*
G01*
D02*
G03*
X80163Y17902I-1252J0D01*
G01*
X84558Y17550D02*
G03*
X83708Y17902I-850J-850D01*
G01*
X84558Y17550D02*
G03*
X83708Y17902I-850J-850D01*
G01*
X90037Y18457D02*
G03*
X90037Y18457I-1252J0D01*
G01*
X85768Y16249D02*
G03*
X85539Y16568I-1078J-531D01*
G01*
X85768Y16249D02*
G03*
X85539Y16568I-1078J-531D01*
G01*
X74907Y17902D02*
G03*
X75037Y18457I-1122J555D01*
G01*
X67407Y17902D02*
G03*
X67537Y18457I-1122J555D01*
G01*
X75037D02*
G03*
X72663Y17902I-1252J0D01*
G01*
X67537Y18457D02*
G03*
X65163Y17902I-1252J0D01*
G01*
X60037Y18457D02*
G03*
X57663Y17902I-1252J0D01*
G01*
X59907D02*
G03*
X60037Y18457I-1122J555D01*
G01*
X52407Y17902D02*
G03*
X52537Y18457I-1122J555D01*
G01*
D02*
G03*
X50163Y17902I-1252J0D01*
G01*
X98548Y5109D02*
G03*
X94891Y1452I-898J-2759D01*
G01*
X27059Y30138D02*
G03*
X27276Y30548I-1202J901D01*
G01*
X39102Y24000D02*
G03*
X27059Y25390I-6102J0D01*
G01*
X33198Y17902D02*
G03*
X39102Y24000I-198J6098D01*
G01*
X28169Y20272D02*
G03*
X32802Y17902I4831J3728D01*
G01*
X27102Y19703D02*
G03*
X27951Y20055I0J1202D01*
G01*
X27102Y19703D02*
G03*
X27951Y20055I0J1202D01*
G01*
X24438Y30548D02*
G03*
X24656Y30138I1419J490D01*
G01*
X24502Y22853D02*
G03*
X24331Y22106I1330J-697D01*
G01*
X24656Y25066D02*
G03*
X24502Y22853I-656J-1066D01*
G01*
X17255Y22943D02*
G03*
X17381Y23544I-1376J601D01*
G01*
X10366Y23618D02*
G03*
X7350Y25511I-2102J0D01*
G01*
X17381Y23544D02*
G03*
X14677Y22643I-1502J0D01*
G01*
Y22619D02*
G03*
X15029Y21770I1202J0D01*
G01*
X14677Y22619D02*
G03*
X15029Y21770I1202J0D01*
G01*
X10366Y23618D02*
G03*
X7350Y25511I-2102J0D01*
G01*
Y21726D02*
G03*
X10366Y23618I914J1892D01*
G01*
X7350Y21726D02*
G03*
X10366Y23618I914J1892D01*
G01*
X14524Y19162D02*
G03*
X14507Y17905I1355J-648D01*
G01*
D02*
G03*
X14547Y16602I1372J-610D01*
G01*
X15529Y21270D02*
G03*
X14524Y19162I350J-1460D01*
G01*
X39152Y7900D02*
G03*
X27176Y9552I-6102J0D01*
G01*
X26995Y7148D02*
G03*
X39152Y7900I6055J752D01*
G01*
X24697Y13231D02*
G03*
X24345Y14081I-1202J0D01*
G01*
X24697Y13231D02*
G03*
X24345Y14081I-1202J0D01*
G01*
X14547Y16602D02*
G03*
X16801Y14750I1353J-651D01*
G01*
X25725Y7500D02*
G03*
X26575Y7148I850J850D01*
G01*
X25725Y7500D02*
G03*
X26575Y7148I850J850D01*
G01*
X22294Y11429D02*
G03*
X22646Y10580I1202J0D01*
G01*
X22294Y11429D02*
G03*
X22646Y10580I1202J0D01*
G01*
X23974Y9251D02*
G03*
X25251Y7974I26J-1251D01*
G01*
X10366Y8378D02*
G03*
X7350Y10271I-2102J0D01*
G01*
Y6486D02*
G03*
X10366Y8378I914J1892D01*
G01*
D02*
G03*
X7350Y10271I-2102J0D01*
G01*
Y6486D02*
G03*
X10366Y8378I914J1892D01*
G01*
X92599Y30548D02*
X98548Y24599D01*
X89725Y30548D02*
X98548Y21725D01*
X87570Y30548D02*
X98548Y19570D01*
X91881Y30548D02*
X98548Y23881D01*
X91162Y30548D02*
X98548Y23162D01*
X90444Y30548D02*
X98548Y22444D01*
X94036Y30548D02*
X94754Y29830D01*
X93317Y30548D02*
X94810Y29056D01*
X81100Y19695D02*
X91954Y30548D01*
X81745Y19621D02*
X92672Y30548D01*
X94754D02*
X94859Y30444D01*
X89007Y30548D02*
X98548Y21007D01*
X88288Y30548D02*
X98548Y20288D01*
X86852Y30548D02*
X98548Y18852D01*
X86133Y30548D02*
X98548Y18133D01*
X83260Y30548D02*
X98548Y15260D01*
X80386Y30548D02*
X98548Y12386D01*
X85415Y30548D02*
X98548Y17415D01*
X84696Y30548D02*
X98548Y16696D01*
X83978Y30548D02*
X98548Y15978D01*
X82457Y18896D02*
X94109Y30548D01*
X82517Y18238D02*
X94828Y30548D01*
X82177Y19335D02*
X93391Y30548D01*
X81823D02*
X98548Y13823D01*
X82541Y30548D02*
X98548Y14541D01*
X81104Y30548D02*
X98548Y13104D01*
X79667Y30548D02*
X98548Y11667D01*
X76794Y30548D02*
X87951Y19391D01*
X75715Y17902D02*
X88362Y30548D01*
X75022Y18646D02*
X86925Y30548D01*
X75357D02*
X87537Y18369D01*
X78231Y30548D02*
X89115Y19664D01*
X77512Y30548D02*
X88410Y19651D01*
X76433Y17902D02*
X89080Y30548D01*
X70328D02*
X81173Y19704D01*
X69610Y30548D02*
X80633Y19525D01*
X68891Y30548D02*
X80262Y19178D01*
X67812Y17902D02*
X80459Y30548D01*
X74454Y19515D02*
X85488Y30548D01*
X74820Y19161D02*
X86207Y30548D01*
X73922Y19701D02*
X84770Y30548D01*
X74997Y17902D02*
X87643Y30548D01*
X74638D02*
X88938Y16249D01*
X73202Y30548D02*
X87501Y16249D01*
X73920Y30548D02*
X88219Y16249D01*
X77870Y17902D02*
X90517Y30548D01*
X78589Y17902D02*
X91236Y30548D01*
X77152Y17902D02*
X89799Y30548D01*
X69968Y17902D02*
X82614Y30548D01*
X71046D02*
X83693Y17902D01*
X68531D02*
X81178Y30548D01*
X69249Y17902D02*
X81896Y30548D01*
X71765D02*
X86064Y16249D01*
X72483Y30548D02*
X86783Y16249D01*
X71405Y17902D02*
X84051Y30548D01*
X98444Y26859D02*
X98548Y26754D01*
X97830Y26754D02*
X98548Y26036D01*
X97056Y26810D02*
X98548Y25317D01*
X89868Y16249D02*
X98548Y24930D01*
X91305Y16249D02*
X98548Y23493D01*
X92023Y16249D02*
X98548Y22774D01*
X90586Y16249D02*
X98548Y24211D01*
X90032Y18568D02*
X98281Y26818D01*
X89979Y18082D02*
X91811Y16249D01*
X89506Y19480D02*
X96879Y26853D01*
X89854Y19109D02*
X97497Y26752D01*
X89719Y17623D02*
X91093Y16249D01*
X92251D02*
X92539Y16211D01*
X89305Y17319D02*
X90375Y16249D01*
X93328Y15399D02*
X98548Y20619D01*
X93363Y14715D02*
X98548Y19901D01*
X92655Y16163D02*
X98548Y22056D01*
X93079Y15869D02*
X98548Y21338D01*
X93363Y12560D02*
X98548Y17745D01*
X93363Y11841D02*
X98548Y17027D01*
X93363Y13278D02*
X98548Y18464D01*
X92807Y16100D02*
X93037Y15924D01*
X93363Y13997D02*
X98548Y19182D01*
X89992Y18787D02*
X92588Y16191D01*
X92539Y16211D02*
X92807Y16100D01*
X93214Y15694D02*
X93325Y15426D01*
X93363Y15138D01*
X93037Y15924D02*
X93214Y15694D01*
X83618Y17902D02*
X94803Y29087D01*
X84221Y17787D02*
X94971Y28536D01*
X76075Y30548D02*
X87647Y18977D01*
X82899Y17902D02*
X94750Y29753D01*
X88998Y19690D02*
X96359Y27051D01*
X88083Y19493D02*
X95914Y27325D01*
X84630Y17477D02*
X95219Y28066D01*
X82532Y18345D02*
X82975Y17902D01*
X70686D02*
X83333Y30548D01*
X82407Y17902D02*
X83708D01*
X88431Y16249D02*
X98548Y26367D01*
X89149Y16249D02*
X98548Y25648D01*
X84989Y17118D02*
X95535Y27664D01*
X87713Y16249D02*
X88674Y17210D01*
X88697Y17209D02*
X89656Y16249D01*
X85768D02*
X92251D01*
X85691Y16383D02*
X87552Y18244D01*
X86276Y16249D02*
X87762Y17736D01*
X85349Y16759D02*
X87749Y19159D01*
X84558Y17550D02*
X85539Y16568D01*
X86994Y16249D02*
X88133Y17388D01*
X65993Y19674D02*
X76867Y30548D01*
X66681Y19644D02*
X77586Y30548D01*
X63144D02*
X74003Y19690D01*
X62425Y30548D02*
X73345Y19629D01*
X67432Y18958D02*
X79022Y30548D01*
X67531Y18339D02*
X79741Y30548D01*
X67133Y19378D02*
X78304Y30548D01*
X59783Y19212D02*
X71120Y30548D01*
X60009Y18719D02*
X71838Y30548D01*
X58842Y19707D02*
X69683Y30548D01*
X59400Y19547D02*
X70401Y30548D01*
X61707D02*
X72907Y19349D01*
X60989Y30548D02*
X72621Y18916D01*
X60270Y30548D02*
X72547Y18271D01*
X63862Y30548D02*
X76509Y17902D01*
X64581Y30548D02*
X77228Y17902D01*
X62783D02*
X75430Y30548D01*
X63502Y17902D02*
X76149Y30548D01*
X66018D02*
X78664Y17902D01*
X66736Y30548D02*
X79383Y17902D01*
X65299Y30548D02*
X77946Y17902D01*
X59552Y30548D02*
X72199Y17902D01*
X59910D02*
X72557Y30548D01*
X58115D02*
X70762Y17902D01*
X58833Y30548D02*
X71480Y17902D01*
X61347D02*
X73993Y30548D01*
X62065Y17902D02*
X74712Y30548D01*
X60628Y17902D02*
X73275Y30548D01*
X55241D02*
X66095Y19694D01*
X54523Y30548D02*
X65580Y19491D01*
X53804Y30548D02*
X65227Y19126D01*
X53086Y30548D02*
X65041Y18593D01*
X55960Y30548D02*
X67108Y19400D01*
X54881Y17902D02*
X67528Y30548D01*
X54162Y17902D02*
X66809Y30548D01*
X45902D02*
X57598Y18853D01*
X45183Y30548D02*
X57568Y18163D01*
X42668Y17902D02*
X55314Y30548D01*
X43028D02*
X55675Y17902D01*
X52404Y19017D02*
X63936Y30548D01*
X52536Y18431D02*
X64654Y30548D01*
X52087Y19418D02*
X63217Y30548D01*
X53444Y17902D02*
X66091Y30548D01*
X55599Y17902D02*
X68246Y30548D01*
X52368D02*
X65014Y17902D01*
X52726D02*
X65372Y30548D01*
X56678D02*
X69325Y17902D01*
X57396Y30548D02*
X70043Y17902D01*
X56318D02*
X68964Y30548D01*
X43746D02*
X56393Y17902D01*
X44104D02*
X56751Y30548D01*
X42310D02*
X54956Y17902D01*
X43386D02*
X56033Y30548D01*
X50931D02*
X63577Y17902D01*
X51649Y30548D02*
X64296Y17902D01*
X44823D02*
X57470Y30548D01*
X75018Y18675D02*
X75791Y17902D01*
X79307D02*
X80047Y18642D01*
X68173Y30548D02*
X80052Y18670D01*
X67454Y30548D02*
X80101Y17902D01*
X80026D02*
X80121Y17997D01*
X74907Y17902D02*
X80163D01*
X51615Y19664D02*
X62499Y30548D01*
X50869Y19638D02*
X61780Y30548D01*
X67522Y18267D02*
X67888Y17902D01*
X72123D02*
X72541Y18320D01*
X67407Y17902D02*
X72663D01*
X67228Y19280D02*
X68606Y17902D01*
X60031Y18574D02*
X60704Y17902D01*
X64220D02*
X65068Y18749D01*
X64939Y17902D02*
X65098Y18061D01*
X74957Y18017D02*
X75072Y17902D01*
X59907D02*
X65163D01*
X52405Y19017D02*
X53520Y17902D01*
X52509Y18194D02*
X52801Y17902D01*
X57036D02*
X57535Y18400D01*
X52407Y17902D02*
X57663D01*
X48057Y30548D02*
X58902Y19703D01*
X47697Y17902D02*
X60343Y30548D01*
X47339D02*
X58283Y19604D01*
X46978Y17902D02*
X59625Y30548D01*
X48775D02*
X61422Y17902D01*
X50212Y30548D02*
X62859Y17902D01*
X48415D02*
X61062Y30548D01*
X40873D02*
X51845Y19576D01*
X46620Y30548D02*
X57864Y19305D01*
X40154Y30548D02*
X51022Y19681D01*
X39436Y30548D02*
X50530Y19455D01*
X49852Y17902D02*
X50078Y18127D01*
X49133Y17902D02*
X50104Y18873D01*
X41949Y17902D02*
X54596Y30548D01*
X44465D02*
X57112Y17902D01*
X41231D02*
X53878Y30548D01*
X41591D02*
X54238Y17902D01*
X46260D02*
X58907Y30548D01*
X49494D02*
X62141Y17902D01*
X45541D02*
X58188Y30548D01*
X40512Y17902D02*
X53159Y30548D01*
X43373Y14398D02*
X46140Y11631D01*
X39794Y17902D02*
X52441Y30548D01*
X45528Y14398D02*
X46140Y13786D01*
X44810Y14398D02*
X46140Y13068D01*
X44091Y14398D02*
X46140Y12349D01*
X93363Y6812D02*
X98548Y11998D01*
X93363Y11824D02*
X98548Y6638D01*
X93363Y13261D02*
X98548Y8075D01*
X93363Y12543D02*
X98548Y7357D01*
X93363Y11106D02*
X98548Y5920D01*
X93363Y5375D02*
X98548Y10561D01*
X93363Y6094D02*
X98548Y11280D01*
X93363Y9686D02*
X98548Y14872D01*
X93363Y14698D02*
X98548Y9512D01*
X93363Y11123D02*
X98548Y16309D01*
X93363Y10404D02*
X98548Y15590D01*
X93363Y13980D02*
X98548Y8794D01*
X93363Y8249D02*
X98548Y13435D01*
X93363Y8968D02*
X98548Y14153D01*
X93363Y10387D02*
X98548Y5202D01*
Y5109D02*
Y26891D01*
X93363Y4657D02*
X98548Y9843D01*
X93363Y3220D02*
X98548Y8406D01*
X97547Y5250D02*
X98548Y6251D01*
X98213Y5197D02*
X98548Y5532D01*
X96655Y5076D02*
X98548Y6969D01*
X93363Y8951D02*
X97112Y5201D01*
X93363Y3939D02*
X98548Y9124D01*
X93363Y9669D02*
X97783Y5249D01*
X93363Y3138D02*
Y15138D01*
X93749Y1452D02*
X94750Y2453D01*
X93363Y8232D02*
X96557Y5038D01*
X93363Y7531D02*
X98548Y12717D01*
X93363Y7514D02*
X96084Y4793D01*
X78949Y30548D02*
X98548Y10949D01*
X93304Y15475D02*
X98548Y10231D01*
X93363Y6077D02*
X95337Y4102D01*
X93363Y5359D02*
X95061Y3660D01*
X93363Y6795D02*
X95679Y4479D01*
X93363Y4640D02*
X94859Y3144D01*
X93363Y3922D02*
X94754Y2530D01*
X93325Y2850D02*
X93363Y3138D01*
X93214Y2582D02*
X93325Y2850D01*
X93037Y2352D02*
X93214Y2582D01*
X92807Y2176D02*
X93037Y2352D01*
X87592Y2068D02*
X87720Y2122D01*
X93363Y3203D02*
X94810Y1756D01*
X93229Y2619D02*
X94396Y1452D01*
X92312D02*
X98548Y7688D01*
X93031Y1452D02*
X94924Y3345D01*
X92539Y2065D02*
X92807Y2176D01*
X92890Y2239D02*
X93677Y1452D01*
X92251Y2027D02*
X92539Y2065D01*
X87728Y2125D02*
X87975Y2062D01*
X88113Y2045D01*
X87443Y2047D02*
X87581Y2065D01*
X87283Y1452D02*
X87910Y2078D01*
X88113Y2045D02*
X88251Y2027D01*
X88047Y2053D02*
X88649Y1452D01*
X87304Y2027D02*
X87443Y2047D01*
X91665Y2027D02*
X92241Y1452D01*
X92368Y2042D02*
X92959Y1452D01*
X88391Y2027D02*
X92251Y2027D01*
X90876Y1452D02*
X91451Y2027D01*
X90947D02*
X91522Y1452D01*
X94468D02*
X94803Y1787D01*
X90229Y2027D02*
X90804Y1452D01*
X89510Y2027D02*
X90085Y1452D01*
X90157D02*
X90732Y2027D01*
X88251D02*
X88391Y2027D01*
X82973Y1452D02*
X83548Y2027D01*
X88792Y2027D02*
X89367Y1452D01*
X89439D02*
X90014Y2027D01*
X88720Y1452D02*
X89296Y2027D01*
X87349Y2033D02*
X87930Y1452D01*
X91594D02*
X92169Y2027D01*
X85847Y1452D02*
X86422Y2027D01*
X86636D02*
X87212Y1452D01*
X86565D02*
X87140Y2027D01*
X88002Y1452D02*
X88577Y2027D01*
X85918Y2027D02*
X86493Y1452D01*
X83763Y2027D02*
X84338Y1452D01*
X84410D02*
X84985Y2027D01*
X83044D02*
X83620Y1452D01*
X83691D02*
X84267Y2027D01*
X85128Y1452D02*
X85703Y2027D01*
X85200D02*
X85775Y1452D01*
X84481Y2027D02*
X85056Y1452D01*
X76579Y2027D02*
X77154Y1452D01*
X77226D02*
X77801Y2027D01*
X75860D02*
X76435Y1452D01*
X76507D02*
X77082Y2027D01*
X77297D02*
X77872Y1452D01*
X77944D02*
X78519Y2027D01*
X71751D02*
X87293D01*
X74352Y1452D02*
X74927Y2027D01*
X74423D02*
X74999Y1452D01*
X73633D02*
X74209Y2027D01*
X73705D02*
X74280Y1452D01*
X75142Y2027D02*
X75717Y1452D01*
X75789D02*
X76364Y2027D01*
X75070Y1452D02*
X75646Y2027D01*
X80889D02*
X81464Y1452D01*
X81536D02*
X82111Y2027D01*
X80171D02*
X80746Y1452D01*
X80818D02*
X81393Y2027D01*
X82255Y1452D02*
X82830Y2027D01*
X82326D02*
X82901Y1452D01*
X81607Y2027D02*
X82183Y1452D01*
X78662D02*
X79238Y2027D01*
X78734D02*
X79309Y1452D01*
X78015Y2027D02*
X78591Y1452D01*
X79452Y2027D02*
X80027Y1452D01*
X80099D02*
X80675Y2027D01*
X79381Y1452D02*
X79956Y2027D01*
X68676Y2027D02*
X69251Y1452D01*
X69323D02*
X69898Y2027D01*
X67957D02*
X68533Y1452D01*
X68605D02*
X69180Y2027D01*
X69394D02*
X69970Y1452D01*
X70831Y2027D02*
X71406Y1452D01*
X67752Y2027D02*
X71751D01*
X67228Y2125D02*
X67475Y2062D01*
X67464Y2065D02*
X67752Y2027D01*
X67092Y2068D02*
X67220Y2122D01*
X66943Y2047D02*
X67081Y2065D01*
X67475Y2062D02*
X67613Y2045D01*
X67751Y2027D01*
X66804Y2027D02*
X66943Y2047D01*
X70760Y1452D02*
X71335Y2027D01*
X71550D02*
X72125Y1452D01*
X67166Y2099D02*
X67814Y1452D01*
X67168D02*
X67744Y2028D01*
X70041Y1452D02*
X70617Y2027D01*
X70113D02*
X70688Y1452D01*
X67886D02*
X68461Y2027D01*
X65012Y1452D02*
X65588Y2027D01*
X66449Y1452D02*
X67060Y2062D01*
X47104Y2046D02*
X47699Y1452D01*
X64365Y2027D02*
X64941Y1452D01*
X63647Y2027D02*
X64222Y1452D01*
X64294D02*
X64869Y2027D01*
X63576Y1452D02*
X64151Y2027D01*
X46178Y2850D02*
X46289Y2582D01*
X46466Y2352D01*
X39781Y14398D02*
X46140Y8039D01*
Y3138D02*
X46178Y2850D01*
X46696Y2176D02*
X46964Y2065D01*
X47251Y2027D01*
X46466Y2352D02*
X46696Y2176D01*
X42654Y14398D02*
X46140Y10912D01*
X41936Y14398D02*
X46140Y10194D01*
X39112Y8598D02*
X44912Y14398D01*
X39152Y7920D02*
X45630Y14398D01*
X41218D02*
X46140Y9476D01*
Y14398D02*
X46140Y3138D01*
X40499Y14398D02*
X46140Y8757D01*
X40586Y1452D02*
X46140Y7006D01*
X42023Y1452D02*
X46140Y5569D01*
X39111Y8602D02*
X46262Y1452D01*
X39868D02*
X46140Y7724D01*
X45615Y1452D02*
X46494Y2331D01*
X46333Y1452D02*
X46952Y2070D01*
X44897Y1452D02*
X46213Y2768D01*
X39151Y7844D02*
X45543Y1452D01*
X41305D02*
X46140Y6287D01*
X39108Y7169D02*
X44825Y1452D01*
X39149D02*
X46140Y8443D01*
X43460Y1452D02*
X46140Y4132D01*
X44178Y1452D02*
X46140Y3414D01*
X42741Y1452D02*
X46140Y4851D01*
X59983Y1452D02*
X60559Y2027D01*
X60055D02*
X60630Y1452D01*
X59265D02*
X59840Y2027D01*
X59336D02*
X59912Y1452D01*
X60773Y2027D02*
X61349Y1452D01*
X61420D02*
X61996Y2027D01*
X60702Y1452D02*
X61277Y2027D01*
X57181D02*
X57756Y1452D01*
X57828D02*
X58403Y2027D01*
X56463D02*
X57038Y1452D01*
X57110D02*
X57685Y2027D01*
X58547Y1452D02*
X59122Y2027D01*
X58618D02*
X59193Y1452D01*
X57900Y2027D02*
X58475Y1452D01*
X71478D02*
X72053Y2027D01*
X72197Y1452D02*
X72772Y2027D01*
X65802D02*
X66377Y1452D01*
X66521Y2027D02*
X67096Y1452D01*
X72915D02*
X73490Y2027D01*
X72986D02*
X73562Y1452D01*
X72268Y2027D02*
X72843Y1452D01*
X62210Y2027D02*
X62785Y1452D01*
X62857D02*
X63432Y2027D01*
X61492D02*
X62067Y1452D01*
X62139D02*
X62714Y2027D01*
X65084D02*
X65659Y1452D01*
X65731D02*
X66306Y2027D01*
X62929D02*
X63504Y1452D01*
X55026Y2027D02*
X55601Y1452D01*
X55673D02*
X56248Y2027D01*
X54307D02*
X54883Y1452D01*
X54955D02*
X55530Y2027D01*
X55744D02*
X56320Y1452D01*
X56391D02*
X56967Y2027D01*
X47251D02*
X66793D01*
X52799Y1452D02*
X53375Y2027D01*
X52871D02*
X53446Y1452D01*
X52081D02*
X52656Y2027D01*
X52152D02*
X52727Y1452D01*
X53589Y2027D02*
X54164Y1452D01*
X54236D02*
X54811Y2027D01*
X53518Y1452D02*
X54093Y2027D01*
X49997D02*
X50572Y1452D01*
X50644D02*
X51219Y2027D01*
X49279D02*
X49854Y1452D01*
X49926D02*
X50501Y2027D01*
X51362Y1452D02*
X51938Y2027D01*
X51434D02*
X52009Y1452D01*
X50715Y2027D02*
X51291Y1452D01*
X47770D02*
X48346Y2027D01*
X47842D02*
X48417Y1452D01*
X47052D02*
X47627Y2027D01*
X48560D02*
X49135Y1452D01*
X49207D02*
X49782Y2027D01*
X48489Y1452D02*
X49064Y2027D01*
X38708Y26155D02*
X43101Y30548D01*
X38884Y25613D02*
X43820Y30548D01*
X38241Y27125D02*
X41664Y30548D01*
X38492Y26658D02*
X42383Y30548D01*
X39090Y24382D02*
X45257Y30548D01*
X39092Y23666D02*
X45975Y30548D01*
X39015Y25025D02*
X44538Y30548D01*
X36513Y28989D02*
X38072Y30548D01*
X36919Y28677D02*
X38791Y30548D01*
X35605Y29518D02*
X36636Y30548D01*
X36075Y29270D02*
X37354Y30548D01*
X37641Y27961D02*
X40228Y30548D01*
X37956Y27559D02*
X40946Y30548D01*
X37295Y28334D02*
X39509Y30548D01*
X38718D02*
X50195Y19071D01*
X37999Y30548D02*
X50035Y18513D01*
X36920Y17902D02*
X49567Y30548D01*
X37281D02*
X49927Y17902D01*
X38357D02*
X51004Y30548D01*
X39076Y17902D02*
X51722Y30548D01*
X37639Y17902D02*
X50286Y30548D01*
X38992Y22847D02*
X46693Y30548D01*
X38708Y21845D02*
X47412Y30548D01*
X37741Y20159D02*
X48130Y30548D01*
X35125D02*
X47772Y17902D01*
X36202D02*
X48849Y30548D01*
X36562D02*
X49209Y17902D01*
X35844Y30548D02*
X48491Y17902D01*
X33958Y30026D02*
X34480Y30548D01*
X33689D02*
X34269Y29968D01*
X33307Y30094D02*
X33762Y30548D01*
X32970D02*
X33432Y30086D01*
X34551Y29901D02*
X35199Y30548D01*
X35098Y29729D02*
X35917Y30548D01*
X27276D02*
X94891D01*
X31533D02*
X32054Y30028D01*
X30815Y30548D02*
X31459Y29904D01*
X30096Y30548D02*
X30912Y29733D01*
X32252Y30548D02*
X32706Y30094D01*
X32582Y30087D02*
X33043Y30548D01*
X31748Y29972D02*
X32325Y30548D01*
X29378D02*
X30404Y29522D01*
X27059Y27437D02*
X30170Y30548D01*
X27059Y27437D02*
X30170Y30548D01*
X27059Y26719D02*
X30888Y30548D01*
X30716Y29658D02*
X31607Y30548D01*
X34407D02*
X35307Y29649D01*
X28660Y30548D02*
X29933Y29275D01*
X27941Y30548D02*
X29495Y28995D01*
X27059Y28874D02*
X28733Y30548D01*
X27059Y28156D02*
X29451Y30548D01*
X27059Y29593D02*
X28014Y30548D01*
X27262Y30509D02*
X29088Y28683D01*
X27059Y25390D02*
Y30138D01*
X35667Y18512D02*
X36277Y17902D01*
X36133Y18764D02*
X36996Y17902D01*
X35483D02*
X36841Y19259D01*
X34765Y17902D02*
X35155Y18292D01*
X35165Y18295D02*
X35559Y17902D01*
X33198D02*
X50163D01*
X34047D02*
X34153Y18008D01*
X34624Y18118D02*
X34841Y17902D01*
X30867Y18284D02*
X31249Y17902D01*
X31173D02*
X31387Y18116D01*
X31891Y17902D02*
X31975Y17985D01*
X34037Y17987D02*
X34122Y17902D01*
X31863Y18005D02*
X31967Y17902D01*
X39086Y24432D02*
X45617Y17902D01*
X39095Y23706D02*
X44899Y17902D01*
X38649Y26307D02*
X47054Y17902D01*
X38968Y25269D02*
X46335Y17902D01*
X38904Y22459D02*
X43462Y17902D01*
X39028Y23054D02*
X44180Y17902D01*
X38733Y21912D02*
X42743Y17902D01*
X38275Y20933D02*
X41306Y17902D01*
X38522Y21404D02*
X42025Y17902D01*
X37683Y20088D02*
X39870Y17902D01*
X37995Y20495D02*
X40588Y17902D01*
X36969Y19366D02*
X38433Y17902D01*
X37341Y19712D02*
X39151Y17902D01*
X36567Y19049D02*
X37714Y17902D01*
X27059Y28557D02*
X28049Y27567D01*
X27059Y29994D02*
X28712Y28341D01*
X27059Y29276D02*
X28366Y27969D01*
X27951Y20055D02*
X28169Y20272D01*
X27792Y19921D02*
X29812Y17902D01*
X27059Y26402D02*
X27295Y26165D01*
X27059Y26001D02*
X27342Y26284D01*
X27059Y27839D02*
X27764Y27133D01*
X27059Y27120D02*
X27512Y26667D01*
X27059Y25683D02*
X27118Y25624D01*
X23500Y19703D02*
X27102D01*
X29018Y17902D02*
X29875Y18759D01*
X29227Y19205D02*
X30530Y17902D01*
X27279Y19716D02*
X29093Y17902D01*
X28299D02*
X29441Y19044D01*
X29736Y17902D02*
X30342Y18508D01*
X30455Y17902D02*
X30845Y18292D01*
X25301Y17902D02*
X32802D01*
X26574Y19703D02*
X28375Y17902D01*
X26862D02*
X28666Y19705D01*
X25426Y17902D02*
X27234Y19710D01*
X26144Y17902D02*
X28323Y20081D01*
X25855Y19703D02*
X27656Y17902D01*
X27581D02*
X29039Y19359D01*
X25137Y19703D02*
X26938Y17902D01*
X23631Y30548D02*
X24656Y29523D01*
X22912Y30548D02*
X24656Y28805D01*
X20039Y30548D02*
X24656Y25931D01*
X22194Y30548D02*
X24656Y28087D01*
X21475Y30548D02*
X24656Y27368D01*
X20757Y30548D02*
X24656Y26650D01*
X18602Y30548D02*
X23902Y25248D01*
X17883Y30548D02*
X23358Y25074D01*
X16037Y25037D02*
X21549Y30548D01*
X16587Y24868D02*
X22267Y30548D01*
X24349D02*
X24499Y30399D01*
X24656Y25066D02*
Y30138D01*
X19320Y30548D02*
X24656Y25213D01*
X17165Y30548D02*
X22983Y24730D01*
X17269Y24113D02*
X23704Y30548D01*
X16991Y24553D02*
X22986Y30548D01*
X15010D02*
X23452Y22106D01*
X17395Y22803D02*
X24656Y30063D01*
X17754Y22443D02*
X24656Y29345D01*
X17380Y23506D02*
X24422Y30548D01*
X15123Y24841D02*
X20830Y30548D01*
X13573D02*
X22015Y22106D01*
X12136Y30548D02*
X20579Y22106D01*
X12854Y30548D02*
X21297Y22106D01*
X16446Y30548D02*
X22769Y24226D01*
X15728Y30548D02*
X22937Y23340D01*
X14291Y30548D02*
X22734Y22106D01*
X8759Y25661D02*
X13646Y30548D01*
X9276Y25460D02*
X14364Y30548D01*
X8092Y25713D02*
X12928Y30548D01*
X7350Y25689D02*
X12209Y30548D01*
X9693Y25159D02*
X15083Y30548D01*
X9981D02*
X15526Y25003D01*
X7350Y30548D02*
X24438D01*
X7350Y29281D02*
X8617Y30548D01*
X7350Y28563D02*
X9335Y30548D01*
X7350Y30000D02*
X7899Y30548D01*
X7350Y25511D02*
Y30548D01*
Y27126D02*
X10772Y30548D01*
X7350Y26408D02*
X11491Y30548D01*
X7350Y27844D02*
X10054Y30548D01*
X10257Y24286D02*
X16520Y30548D01*
X10365Y23675D02*
X17238Y30548D01*
X10193Y22785D02*
X17957Y30548D01*
X7350Y19223D02*
X18675Y30548D01*
X11418D02*
X19860Y22106D01*
X7350Y18505D02*
X19393Y30548D01*
X7350Y17787D02*
X20112Y30548D01*
X10699D02*
X16248Y24999D01*
X10022Y24769D02*
X15801Y30548D01*
X9262D02*
X15029Y24782D01*
X7825Y30548D02*
X14431Y23943D01*
X8544Y30548D02*
X14665Y24427D01*
X7350Y30305D02*
X14407Y23249D01*
X7350Y29587D02*
X14763Y22174D01*
X24146Y25243D02*
X24656Y25753D01*
X23340Y22937D02*
X24171Y22106D01*
X24226Y22769D02*
X24397Y22598D01*
X23882Y22106D02*
X24407Y22630D01*
X18092Y22106D02*
X24331D01*
X21727D02*
X22946Y23325D01*
X21727Y22106D02*
X22946Y23325D01*
X17338Y23191D02*
X18423Y22106D01*
X22446D02*
X23301Y22962D01*
X23164Y22106D02*
X23820Y22761D01*
X17255Y22943D02*
X18092Y22106D01*
X24286Y18917D02*
X25071Y19703D01*
X23700D02*
X25501Y17902D01*
X19572Y22106D02*
X24656Y27190D01*
X23500Y19703D02*
X25301Y17902D01*
X24645Y18558D02*
X25790Y19703D01*
X25004Y18199D02*
X26508Y19703D01*
X24419D02*
X26220Y17902D01*
X18853Y22106D02*
X24656Y27908D01*
X20290Y22106D02*
X24656Y26471D01*
X17335Y23913D02*
X19142Y22106D01*
X18135D02*
X24656Y28626D01*
X23567Y19636D02*
X23634Y19703D01*
X23927Y19276D02*
X24353Y19703D01*
X21009Y22106D02*
X22757Y23854D01*
X7350Y28869D02*
X15116Y21103D01*
X7350Y28150D02*
X14727Y20773D01*
X15029Y21770D02*
X15529Y21270D01*
X7350Y25995D02*
X7702Y25643D01*
X7350Y26713D02*
X8345Y25718D01*
X7350Y27432D02*
X9387Y25395D01*
X7350Y21379D02*
X7597Y21626D01*
X10041Y24741D02*
X14465Y20316D01*
X10289Y23056D02*
X14431Y18914D01*
X7350Y17068D02*
X14582Y24300D01*
X9363Y21827D02*
X14509Y16681D01*
X10364Y23699D02*
X14383Y19680D01*
X10075Y22552D02*
X14407Y18220D01*
X7350Y16350D02*
X14386Y23385D01*
X7350Y19942D02*
X9097Y21689D01*
X9763Y22145D02*
X14393Y17515D01*
X7350Y20660D02*
X8207Y21518D01*
X36778Y12730D02*
X38446Y14398D01*
X37168Y12402D02*
X39164Y14398D01*
X35904Y13293D02*
X37009Y14398D01*
X36357Y13028D02*
X37728Y14398D01*
X37859Y11656D02*
X40601Y14398D01*
X38158Y11237D02*
X41320Y14398D01*
X37528Y12044D02*
X39883Y14398D01*
X34323Y13867D02*
X34854Y14398D01*
X34033D02*
X34641Y13790D01*
X33704Y13966D02*
X34136Y14398D01*
X33315D02*
X33752Y13961D01*
X34891Y13717D02*
X35572Y14398D01*
X35416Y13524D02*
X36291Y14398D01*
X34752D02*
X35807Y13343D01*
X39062Y14398D02*
X46140Y7320D01*
X38344Y14398D02*
X46140Y6602D01*
X37625Y14398D02*
X46140Y5883D01*
X36907Y14398D02*
X46140Y5165D01*
X39106Y7156D02*
X46140Y14190D01*
X36189Y14398D02*
X46140Y4447D01*
X35470Y14398D02*
X46140Y3728D01*
X38855Y9779D02*
X43475Y14398D01*
X39009Y9214D02*
X44193Y14398D01*
X38426Y10786D02*
X42038Y14398D01*
X38659Y10301D02*
X42757Y14398D01*
X38926Y6258D02*
X46140Y13472D01*
X38454Y5067D02*
X46140Y12753D01*
X35557Y1452D02*
X46140Y12035D01*
X31878Y14398D02*
X32319Y13958D01*
X32249Y13949D02*
X32699Y14398D01*
X31160D02*
X31706Y13852D01*
X31338Y13757D02*
X31980Y14398D01*
X33020Y14002D02*
X33417Y14398D01*
X32596D02*
X32994Y14001D01*
X24028Y14398D02*
X46140D01*
X29004D02*
X30140Y13263D01*
X28286Y14398D02*
X29691Y12994D01*
X27568Y14398D02*
X29273Y12692D01*
X26849Y14398D02*
X28887Y12361D01*
X30441Y14398D02*
X31144Y13696D01*
X30110Y13247D02*
X31262Y14398D01*
X29723D02*
X30623Y13498D01*
X26131Y14398D02*
X28530Y11999D01*
X25666Y10958D02*
X29107Y14398D01*
X25307Y11317D02*
X28388Y14398D01*
X15013Y14740D02*
X28301Y1452D01*
X26385Y10240D02*
X30543Y14398D01*
X26025Y10599D02*
X29825Y14398D01*
X24948Y11677D02*
X27670Y14398D01*
X25412D02*
X28204Y11607D01*
X24694Y14398D02*
X27908Y11184D01*
X7350Y21684D02*
X27583Y1452D01*
X24697Y12958D02*
X27415Y10240D01*
X24697Y12240D02*
X27224Y9713D01*
X24529Y13845D02*
X27644Y10730D01*
X38493Y10657D02*
X46160Y2990D01*
X38940Y9491D02*
X46980Y1452D01*
X36994D02*
X46140Y10598D01*
X37712Y1452D02*
X46140Y9880D01*
X38846Y5994D02*
X43388Y1452D01*
X39002Y6556D02*
X44106Y1452D01*
X38431D02*
X46140Y9161D01*
X38413Y4990D02*
X41951Y1452D01*
X38648Y5473D02*
X42670Y1452D01*
X37842Y4123D02*
X40514Y1452D01*
X38144Y4541D02*
X41233Y1452D01*
X37149Y3380D02*
X39077Y1452D01*
X37511Y3737D02*
X39796Y1452D01*
X36757Y3054D02*
X38359Y1452D01*
X36276D02*
X46140Y11316D01*
X36334Y2758D02*
X37641Y1452D01*
X34839D02*
X35883Y2496D01*
X35880Y2494D02*
X36922Y1452D01*
X34863Y2074D02*
X35485Y1452D01*
X35390Y2265D02*
X36204Y1452D01*
X34292Y1926D02*
X34767Y1452D01*
X33402D02*
X33794Y1844D01*
X34120Y1452D02*
X34692Y2024D01*
X31965Y1452D02*
X32352Y1838D01*
X32206Y1857D02*
X32612Y1452D01*
X32983Y1799D02*
X33330Y1452D01*
X33670Y1830D02*
X34049Y1452D01*
X32683D02*
X33030Y1798D01*
X29091Y1452D02*
X30164Y2524D01*
X29810Y1452D02*
X30649Y2291D01*
X28373Y1452D02*
X29713Y2792D01*
X31247Y1452D02*
X31736Y1941D01*
X31286Y2059D02*
X31893Y1452D01*
X30528D02*
X31171Y2095D01*
X27073Y9552D02*
X27176D01*
X27133D02*
X27193Y9612D01*
X26744Y9880D02*
X27703Y10840D01*
X24697Y11927D02*
X27073Y9552D01*
X26098Y7247D02*
X27209Y6136D01*
X27654Y1452D02*
X29294Y3091D01*
X25141Y7485D02*
X27751Y4876D01*
X24838Y7070D02*
X30456Y1452D01*
X26218D02*
X28548Y3782D01*
X23682Y6790D02*
X29020Y1452D01*
X24382Y6808D02*
X29738Y1452D01*
X26936D02*
X28906Y3422D01*
X30026Y2601D02*
X31175Y1452D01*
X7350D02*
X94891D01*
X22626D02*
X27233Y6059D01*
X23344Y1452D02*
X27426Y5534D01*
X21907Y1452D02*
X27083Y6627D01*
X24781Y1452D02*
X27922Y4593D01*
X25499Y1452D02*
X28220Y4172D01*
X24062Y1452D02*
X27657Y5046D01*
X24697Y12863D02*
X26233Y14398D01*
X24697Y12144D02*
X26951Y14398D01*
X24409Y14012D02*
X24796Y14398D01*
X24657Y13541D02*
X25514Y14398D01*
X24028D02*
X24345Y14081D01*
X16801Y14750D02*
X20278D01*
X19314D02*
X22294Y11769D01*
X8866Y21605D02*
X14403Y16068D01*
X20278Y14750D02*
X22294Y12734D01*
X20032Y14750D02*
X22294Y12488D01*
X18595Y14750D02*
X22393Y10952D01*
X17877Y14750D02*
X23486Y9141D01*
X17158Y14750D02*
X23070Y8838D01*
X16578Y14611D02*
X22808Y8382D01*
X10280Y7785D02*
X17245Y14750D01*
X16017Y14454D02*
X22790Y7682D01*
X9694Y1452D02*
X21635Y13393D01*
X8976Y1452D02*
X21276Y13752D01*
X9612Y9991D02*
X14687Y15066D01*
X9612Y9991D02*
X14687Y15066D01*
X8632Y10448D02*
X14427Y16243D01*
X9175Y10272D02*
X14453Y15550D01*
X10216Y9158D02*
X15549Y14491D01*
X10356Y8579D02*
X16273Y14497D01*
X9960Y9620D02*
X15052Y14712D01*
X8236Y21517D02*
X14689Y15063D01*
X7350Y14913D02*
X14724Y22287D01*
X7350Y14194D02*
X14979Y21823D01*
X7350Y13476D02*
X15337Y21463D01*
X7350Y4137D02*
X17963Y14750D01*
X7350Y3418D02*
X18681Y14750D01*
X7350Y2700D02*
X19400Y14750D01*
X7350Y12758D02*
X14378Y19785D01*
X7350Y12039D02*
X14508Y19197D01*
X7350Y15631D02*
X14555Y22836D01*
X7350Y10271D02*
Y21726D01*
Y10602D02*
X14427Y17680D01*
X7917Y10451D02*
X14417Y16951D01*
X7350Y11321D02*
X14386Y18357D01*
X7350Y19529D02*
X25427Y1452D01*
X7350Y18811D02*
X24709Y1452D01*
X7350Y20966D02*
X26864Y1452D01*
X7350Y20247D02*
X26146Y1452D01*
X7350Y17374D02*
X23272Y1452D01*
X7350Y16655D02*
X22554Y1452D01*
X7350Y18092D02*
X23991Y1452D01*
X7350Y1981D02*
X20118Y14750D01*
X7350Y14500D02*
X20399Y1452D01*
X7350Y15937D02*
X21835Y1452D01*
X7350Y15219D02*
X21117Y1452D01*
X7539D02*
X20557Y14470D01*
X8257Y1452D02*
X20917Y14111D01*
X7350Y13782D02*
X19680Y1452D01*
X25251Y7974D02*
X25725Y7500D01*
X20470Y1452D02*
X26221Y7202D01*
X26575Y7148D02*
X26995D01*
X26915D02*
X27007Y7056D01*
X21189Y1452D02*
X26886Y7148D01*
X24697Y11927D02*
Y13231D01*
X22294Y11429D02*
Y12734D01*
X25188Y7606D02*
X25404Y7822D01*
X22646Y10580D02*
X23974Y9251D01*
X15441Y1452D02*
X23608Y9618D01*
X19752Y1452D02*
X25764Y7464D01*
X14005Y1452D02*
X22889Y10336D01*
X14723Y1452D02*
X23249Y9977D01*
X18315Y1452D02*
X23659Y6796D01*
X19033Y1452D02*
X24394Y6812D01*
X17597Y1452D02*
X23190Y7045D01*
X11849Y1452D02*
X22294Y11896D01*
X12568Y1452D02*
X22316Y11200D01*
X10412Y1452D02*
X21994Y13033D01*
X11131Y1452D02*
X22294Y12615D01*
X16160Y1452D02*
X22749Y8041D01*
X16878Y1452D02*
X22876Y7449D01*
X13286Y1452D02*
X22538Y10704D01*
X10129Y7410D02*
X16088Y1452D01*
X10351Y8625D02*
X17525Y1452D01*
X8386Y6280D02*
X13214Y1452D01*
X9837Y6984D02*
X15370Y1452D01*
X7543Y6404D02*
X12496Y1452D01*
X7350Y11626D02*
X8511Y10465D01*
X7350Y10908D02*
X7824Y10434D01*
X7350Y5573D02*
X8063Y6286D01*
X7350Y4855D02*
X8857Y6362D01*
X7350Y6292D02*
X7485Y6427D01*
X9456Y6647D02*
X14651Y1452D01*
X10319Y7939D02*
X16806Y1452D01*
X7350Y12345D02*
X18243Y1452D01*
X7350Y13063D02*
X18962Y1452D01*
X7350Y5879D02*
X11777Y1452D01*
X8981Y6403D02*
X13933Y1452D01*
X7350Y5161D02*
X11059Y1452D01*
X7350Y4442D02*
X10341Y1452D01*
X7350Y3724D02*
X9622Y1452D01*
X7350D02*
Y6486D01*
Y2287D02*
X8185Y1452D01*
X7350Y1569D02*
X7467Y1452D01*
X7350Y3005D02*
X8904Y1452D01*
D11*
X33000Y24000D02*
D03*
X33050Y7900D02*
D03*
D12*
X89674Y10490D02*
D03*
X70370D02*
D03*
X53225D02*
D03*
D13*
X20776Y15951D02*
X23496Y13231D01*
X15900Y15951D02*
X20776D01*
X25832Y22156D02*
X25857Y22182D01*
Y31039D01*
X28348Y22150D02*
X30797D01*
X27102Y20904D02*
X28348Y22150D01*
X17594Y20904D02*
X27102D01*
X15879Y22619D02*
X17594Y20904D01*
X30797Y22150D02*
X32850Y24203D01*
X15879Y22619D02*
Y23544D01*
X15845Y18515D02*
X21260D01*
X15879Y19810D02*
X21694D01*
X23496Y11429D02*
Y13231D01*
X15622Y17295D02*
X20854D01*
X21260Y18515D02*
X23625Y16150D01*
X23496Y11429D02*
X26575Y8350D01*
X20854Y17295D02*
X22549Y15600D01*
X21694Y19810D02*
X24804Y16700D01*
X83708D01*
X26575Y8350D02*
X32750D01*
X33000Y8100D01*
X84690Y14530D02*
Y15718D01*
X83708Y16700D02*
X84690Y15718D01*
X23625Y16150D02*
X68050D01*
X68850Y15350D01*
Y14350D02*
Y15350D01*
X22549Y15600D02*
X49600D01*
X49942Y15258D01*
Y14400D02*
Y15258D01*
D14*
X5483Y3282D02*
Y4419D01*
X4800Y2598D02*
X5483Y3282D01*
X1716Y2598D02*
X4800D01*
X813Y3502D02*
X1716Y2598D01*
X813Y26611D02*
X1630Y27428D01*
X813Y3502D02*
Y26611D01*
X5334Y4568D02*
X5483Y4419D01*
X1630Y27428D02*
X2794D01*
D15*
X97650Y29650D02*
D03*
X97650Y2350D02*
D03*
D16*
X8264Y8378D02*
D03*
Y23618D02*
D03*
D17*
X2794Y27428D02*
D03*
X5334Y22348D02*
D03*
X2794D02*
D03*
Y24888D02*
D03*
X5334D02*
D03*
X2794Y4568D02*
D03*
Y7108D02*
D03*
X5334D02*
D03*
X2794Y14728D02*
D03*
X5334Y12188D02*
D03*
X2794D02*
D03*
Y9648D02*
D03*
X5334Y14728D02*
D03*
Y9648D02*
D03*
Y17268D02*
D03*
X2794Y19808D02*
D03*
X5334D02*
D03*
X2794Y17268D02*
D03*
X5334Y4568D02*
D03*
D18*
Y27428D02*
D03*
D19*
X15900Y15951D02*
D03*
X25832Y22156D02*
D03*
X25857Y31039D02*
D03*
X95500Y12998D02*
D03*
X89814Y1723D02*
D03*
X41500Y28198D02*
D03*
X26800Y4848D02*
D03*
Y11848D02*
D03*
X26750Y20098D02*
D03*
X11200Y13898D02*
D03*
X18750D02*
D03*
X11200Y2448D02*
D03*
X95600Y7748D02*
D03*
X95500Y26448D02*
D03*
Y19848D02*
D03*
X46100Y1950D02*
D03*
X45900Y7900D02*
D03*
X56563Y2062D02*
D03*
X89950Y29848D02*
D03*
X15100Y8848D02*
D03*
X61650Y28248D02*
D03*
X41350Y11898D02*
D03*
Y20048D02*
D03*
X15879Y24848D02*
D03*
Y18515D02*
D03*
Y19810D02*
D03*
Y17295D02*
D03*
Y23544D02*
D03*
X85600Y26500D02*
D03*
X89995Y25250D02*
D03*
X72950Y28200D02*
D03*
X33000Y17850D02*
D03*
M02*
