G04 Layer_Color=65535*
%FSLAX43Y43*%
%MOMM*%
G71*
G01*
G75*
%ADD14C,0.254*%
%ADD28C,0.100*%
G36*
X99700Y27500D02*
X95500D01*
Y31700D01*
X99700D01*
Y27500D01*
D02*
G37*
%LPC*%
G36*
X97837Y31550D02*
X97463D01*
X97096Y31477D01*
X96750Y31334D01*
X96439Y31126D01*
X96174Y30861D01*
X95966Y30550D01*
X95823Y30204D01*
X95750Y29837D01*
Y29650D01*
Y29463D01*
X95823Y29096D01*
X95966Y28750D01*
X96174Y28439D01*
X96439Y28174D01*
X96750Y27966D01*
X97096Y27823D01*
X97463Y27750D01*
X97837D01*
X98204Y27823D01*
X98550Y27966D01*
X98861Y28174D01*
X99126Y28439D01*
X99334Y28750D01*
X99477Y29096D01*
X99550Y29463D01*
Y29650D01*
Y29837D01*
X99477Y30204D01*
X99334Y30550D01*
X99126Y30861D01*
X98861Y31126D01*
X98550Y31334D01*
X98204Y31477D01*
X97837Y31550D01*
D02*
G37*
%LPD*%
D14*
X38000Y24000D02*
G03*
X38000Y24000I-5000J0D01*
G01*
Y8000D02*
G03*
X38000Y8000I-5000J0D01*
G01*
X47263Y3150D02*
X92240D01*
X92251Y3161D02*
Y15138D01*
X47251Y15138D02*
X92251D01*
X47251Y3161D02*
Y15138D01*
Y3161D02*
X47263Y3150D01*
D28*
X67385Y18457D02*
G03*
X67385Y18457I-1100J0D01*
G01*
X74885D02*
G03*
X74885Y18457I-1100J0D01*
G01*
X52385D02*
G03*
X52385Y18457I-1100J0D01*
G01*
X59885Y18457D02*
G03*
X59885Y18457I-1100J0D01*
G01*
X82385Y18457D02*
G03*
X82385Y18457I-1100J0D01*
G01*
X89885D02*
G03*
X89885Y18457I-1100J0D01*
G01*
X25100Y24000D02*
G03*
X25100Y24000I-1100J0D01*
G01*
Y8000D02*
G03*
X25100Y8000I-1100J0D01*
G01*
X92240Y3150D02*
X92251Y3161D01*
X92251Y15138D02*
X92251Y15138D01*
M02*
