M48
;Layer_Color=9474304
;FILE_FORMAT=2:4
INCH,TZ
;TYPE=PLATED
T1F00S00C0.0157
T2F00S00C0.0394
T3F00S00C0.1063
;TYPE=NON_PLATED
T4F00S00C0.0787
T5F00S00C0.0866
%
T01
X35360Y678
X22269Y812
X18150Y768
X10551Y1909
X4409Y964
X5945Y3484
X6260Y6280
X6252Y6809
Y7289
Y7799
Y9269
Y9783
X10170Y8723
X10532Y7913
X10551Y4665
X7382Y5472
X4409
X12992Y7028
X10180Y12220
X16339Y11102
X16280Y7893
Y4684
X18071Y3110
X24272Y11121
X28720Y11102
X33701Y10433
X35431Y9941
X35413Y11751
X37598Y10413
Y7814
Y5117
X37638Y3051
T02
X1100Y1799
X2100
Y2799
X1100
Y3799
Y4799
Y5799
X2100
Y4799
Y3799
Y6799
Y7799
Y8799
X1100
Y9799
Y10799
X2100
Y9799
X1100Y7799
Y6799
T03
X38445Y925
X38445Y11673
T04
X3254Y3299
Y9299
T05
X9449Y3150
Y9449
X20191Y7267
X23144
X26096
X29049
X32002
X34955
M30
