%FSTAX23Y23*%
%MOIN*%
%SFA1B1*%

%IPPOS*%
%ADD11C,0.118110*%
%ADD12O,0.086614X0.137795*%
%ADD13C,0.055118*%
%ADD14C,0.059055*%
%ADD15C,0.065000*%
%ADD16R,0.065000X0.065000*%
%ADD17O,0.047244X0.062992*%
%ADD18C,0.047244*%
%ADD19R,0.059055X0.059055*%
%ADD20R,0.061417X0.061417*%
%ADD21C,0.061417*%
%LNpcb1_pads_top-1*%
%LPD*%
G54D11*
X024Y03548D03*
Y03351D03*
Y03155D03*
G54D12*
X044Y0365D03*
X042D03*
X0343Y03675D03*
X0323D03*
G54D13*
X03845Y037D03*
X03745D03*
X03645D03*
X0236Y0234D03*
Y0244D03*
Y0254D03*
Y0264D03*
Y0274D03*
X04745Y0247D03*
Y0257D03*
Y0267D03*
Y0277D03*
Y0287D03*
X0446Y0188D03*
Y0178D03*
Y0168D03*
Y0158D03*
Y0148D03*
Y0138D03*
G54D14*
X03805Y01565D03*
Y01265D03*
X0276Y0349D03*
Y0319D03*
X0355Y013D03*
Y014D03*
Y015D03*
Y016D03*
Y017D03*
Y018D03*
Y019D03*
Y02D03*
Y021D03*
Y022D03*
Y023D03*
Y024D03*
Y025D03*
Y026D03*
Y027D03*
Y028D03*
Y029D03*
Y03D03*
Y031D03*
Y032D03*
X0295Y013D03*
Y014D03*
Y015D03*
Y016D03*
Y017D03*
Y018D03*
Y019D03*
Y02D03*
Y021D03*
Y022D03*
Y023D03*
Y024D03*
Y025D03*
Y026D03*
Y027D03*
Y028D03*
Y029D03*
Y03D03*
Y031D03*
G54D15*
X0405Y01415D03*
G54D16*
X0395Y01415D03*
G54D17*
X02461Y0203D03*
X02358D03*
X02466Y0179D03*
X02363D03*
G54D18*
X02625Y02026D03*
Y01833D03*
G54D19*
X0295Y032D03*
G54D20*
X0438Y02335D03*
Y03035D03*
X0388D03*
G54D21*
X0438Y02435D03*
Y02535D03*
Y02635D03*
Y02735D03*
Y02835D03*
Y02935D03*
X0388D03*
Y02835D03*
Y02735D03*
Y02635D03*
Y02535D03*
Y02435D03*
Y02335D03*
M02*