%FSTAX23Y23*%
%MOIN*%
%SFA1B1*%

%IPPOS*%
%ADD39C,0.005000*%
%ADD44C,0.003937*%
%ADD45C,0.010000*%
%ADD47C,0.006000*%
%LNpcb1_mechanical_13-1*%
%LPD*%
G54D39*
X0443Y02285D02*
Y03085D01*
X0383Y02285D02*
X0443D01*
X0383D02*
Y03085D01*
X0443*
G54D44*
X02533Y01798D02*
D01*
X02533Y01791*
X02534Y01785*
X02535Y01779*
X02537Y01772*
X02538Y01766*
X02541Y0176*
X02544Y01755*
X02547Y01749*
X0255Y01744*
X02554Y01739*
X02559Y01734*
X02563Y0173*
X02568Y01725*
X02573Y01722*
X02579Y01718*
X02584Y01715*
X0259Y01713*
X02596Y01711*
X02602Y01709*
X02609Y01707*
X02615Y01707*
X02621Y01706*
X02628*
X02634Y01707*
X0264Y01707*
X02647Y01709*
X02653Y01711*
X02659Y01713*
X02665Y01715*
X0267Y01718*
X02676Y01722*
X02681Y01725*
X02686Y0173*
X0269Y01734*
X02695Y01739*
X02699Y01744*
X02702Y01749*
X02705Y01755*
X02708Y0176*
X02711Y01766*
X02712Y01772*
X02714Y01779*
X02715Y01785*
X02716Y01791*
X02716Y01798*
X02697Y02055D02*
D01*
X02697Y0206*
X02697Y02065*
X02696Y0207*
X02695Y02075*
X02693Y02079*
X02691Y02084*
X02689Y02089*
X02686Y02093*
X02683Y02097*
X0268Y02101*
X02677Y02105*
X02673Y02109*
X02669Y02112*
X02665Y02115*
X02661Y02118*
X02656Y0212*
X02652Y02122*
X02647Y02124*
X02642Y02125*
X02637Y02126*
X02632Y02127*
X02627Y02127*
X02622*
X02617Y02127*
X02612Y02126*
X02607Y02125*
X02602Y02124*
X02597Y02122*
X02593Y0212*
X02588Y02118*
X02584Y02115*
X0258Y02112*
X02576Y02109*
X02572Y02105*
X02569Y02101*
X02566Y02097*
X02563Y02093*
X0256Y02089*
X02558Y02084*
X02556Y02079*
X02554Y02075*
X02553Y0207*
X02552Y02065*
X02552Y0206*
X02552Y02055*
Y01805D02*
D01*
X02552Y01799*
X02552Y01794*
X02553Y01789*
X02554Y01784*
X02556Y0178*
X02558Y01775*
X0256Y0177*
X02563Y01766*
X02566Y01762*
X02569Y01758*
X02572Y01754*
X02576Y0175*
X0258Y01747*
X02584Y01744*
X02588Y01741*
X02593Y01739*
X02597Y01737*
X02602Y01735*
X02607Y01734*
X02612Y01733*
X02617Y01732*
X02622Y01732*
X02627*
X02632Y01732*
X02637Y01733*
X02642Y01734*
X02647Y01735*
X02652Y01737*
X02656Y01739*
X02661Y01741*
X02665Y01744*
X02669Y01747*
X02673Y0175*
X02677Y01754*
X0268Y01758*
X02683Y01762*
X02686Y01766*
X02689Y0177*
X02691Y01775*
X02693Y0178*
X02695Y01784*
X02696Y01789*
X02697Y01794*
X02697Y01799*
X02697Y01805*
X02716Y02061D02*
D01*
X02716Y02068*
X02715Y02074*
X02714Y0208*
X02712Y02087*
X02711Y02093*
X02708Y02099*
X02705Y02104*
X02702Y0211*
X02699Y02115*
X02695Y0212*
X0269Y02125*
X02686Y02129*
X02681Y02134*
X02676Y02137*
X0267Y02141*
X02665Y02144*
X02659Y02146*
X02653Y02148*
X02647Y0215*
X0264Y02152*
X02634Y02152*
X02628Y02153*
X02621*
X02615Y02152*
X02609Y02152*
X02602Y0215*
X02596Y02148*
X0259Y02146*
X02584Y02144*
X02579Y02141*
X02573Y02137*
X02568Y02134*
X02563Y02129*
X02559Y02125*
X02554Y0212*
X0255Y02115*
X02547Y0211*
X02544Y02104*
X02541Y02099*
X02538Y02093*
X02537Y02087*
X02535Y0208*
X02534Y02074*
X02533Y02068*
X02533Y02061*
X03017Y03271D02*
D01*
X03017Y03273*
X03017Y03274*
X03017Y03275*
X03016Y03277*
X03016Y03278*
X03016Y03279*
X03015Y0328*
X03014Y03282*
X03013Y03283*
X03013Y03284*
X03012Y03285*
X03011Y03286*
X0301Y03287*
X03009Y03287*
X03007Y03288*
X03006Y03289*
X03005Y03289*
X03004Y0329*
X03002Y0329*
X03001Y03291*
X03Y03291*
X02998Y03291*
X02997*
X02995Y03291*
X02994Y03291*
X02993Y0329*
X02991Y0329*
X0299Y03289*
X02989Y03289*
X02988Y03288*
X02987Y03287*
X02985Y03287*
X02984Y03286*
X02983Y03285*
X02982Y03284*
X02982Y03283*
X02981Y03282*
X0298Y0328*
X0298Y03279*
X02979Y03278*
X02979Y03277*
X02978Y03275*
X02978Y03274*
X02978Y03273*
X02978Y03271*
X02978Y0327*
X02978Y03268*
X02978Y03267*
X02979Y03266*
X02979Y03264*
X0298Y03263*
X0298Y03262*
X02981Y03261*
X02982Y0326*
X02982Y03258*
X02983Y03257*
X02984Y03257*
X02985Y03256*
X02987Y03255*
X02988Y03254*
X02989Y03253*
X0299Y03253*
X02991Y03252*
X02993Y03252*
X02994Y03252*
X02995Y03252*
X02997Y03251*
X02998*
X03Y03252*
X03001Y03252*
X03002Y03252*
X03004Y03252*
X03005Y03253*
X03006Y03253*
X03007Y03254*
X03009Y03255*
X0301Y03256*
X03011Y03257*
X03012Y03257*
X03013Y03258*
X03013Y0326*
X03014Y03261*
X03015Y03262*
X03016Y03263*
X03016Y03264*
X03016Y03266*
X03017Y03267*
X03017Y03268*
X03017Y0327*
X03017Y03271*
X02697Y01805D02*
Y02063D01*
X02552Y01805D02*
Y02063D01*
X02716Y01798D02*
Y02061D01*
X02533Y01798D02*
Y02061D01*
X02962Y01192D02*
X03537D01*
X02962Y03307D02*
X03537D01*
Y01192D02*
Y03307D01*
X02962Y01192D02*
Y03307D01*
G54D45*
X05075Y00915D02*
Y00965D01*
X02155Y00915D02*
Y0095D01*
X037Y00925D02*
X05075D01*
X02155D02*
X03497D01*
X05015Y00945D02*
X05075Y00925D01*
X05015Y00905D02*
X05075Y00925D01*
X02155D02*
X02215Y00905D01*
X02155Y00925D02*
X02215Y00945D01*
X0177Y0395D02*
X0183D01*
X0181Y01035D02*
X02155D01*
X0182Y02581D02*
Y0395D01*
Y01035D02*
Y02371D01*
X018Y0389D02*
X0182Y0395D01*
X0184Y0389*
X0182Y01035D02*
X0184Y01095D01*
X018D02*
X0182Y01035D01*
G54D47*
X03513Y00939D02*
X03539D01*
Y00932*
X03513Y00906*
Y00899*
X03572D02*
Y00939D01*
X03553Y00919*
X03579*
X03592Y00899D02*
Y00906D01*
X03599*
Y00899*
X03592*
X03625D02*
X03638D01*
X03631*
Y00939*
X03625Y00932*
X03658Y00939D02*
X03684D01*
Y00932*
X03658Y00906*
Y00899*
X01806Y02387D02*
Y02414D01*
X01812*
X01839Y02387*
X01845*
Y02446D02*
X01806D01*
X01826Y02427*
Y02453*
X01845Y02466D02*
X01839D01*
Y02473*
X01845*
Y02466*
X01812Y02499D02*
X01806Y02506D01*
Y02519*
X01812Y02525*
X01839*
X01845Y02519*
Y02506*
X01839Y02499*
X01812*
X01845Y02558D02*
X01806D01*
X01826Y02538*
Y02565*
M02*