%FSTAX23Y23*%
%MOIN*%
%SFA1B1*%

%IPPOS*%
%ADD10R,0.059055X0.062992*%
%ADD11R,0.059055X0.043307*%
%ADD12R,0.035433X0.047244*%
%ADD14C,0.076772*%
%ADD15R,0.076772X0.076772*%
%ADD16C,0.059055*%
%ADD17R,0.059055X0.059055*%
%LNpcb2_pads_top-1*%
%LPD*%
G54D10*
X03065Y02342D03*
X02923D03*
X03065Y022D03*
X02923D03*
X03065Y02484D03*
X02923D03*
X03065Y02626D03*
X02923D03*
X03065Y02768D03*
X02923D03*
X03065Y03053D03*
X02923D03*
X03065Y0291D03*
X02923D03*
X03065Y02058D03*
X02923D03*
G54D11*
X04588Y02109D03*
Y02209D03*
Y02309D03*
Y02409D03*
Y02509D03*
Y02609D03*
Y02709D03*
Y02809D03*
Y02909D03*
Y03009D03*
X04938D03*
Y02909D03*
Y02809D03*
Y02709D03*
Y02609D03*
Y02509D03*
Y02409D03*
Y02309D03*
Y02209D03*
Y02109D03*
G54D12*
X04293Y02834D03*
X0421D03*
X04293Y02733D03*
X0421D03*
X04293Y02632D03*
X0421D03*
X04293Y0253D03*
X0421D03*
X04293Y02429D03*
X0421D03*
X04293Y02328D03*
X0421D03*
X04293Y02227D03*
X0421D03*
X04293Y02125D03*
X0421D03*
X03317Y02115D03*
X034D03*
X03317Y02232D03*
X034D03*
X03317Y02349D03*
X034D03*
X03317Y02466D03*
X034D03*
X03317Y02583D03*
X034D03*
X03317Y027D03*
X034D03*
X03317Y02817D03*
X034D03*
X03317Y02935D03*
X034D03*
G54D14*
X03946Y03374D03*
G54D15*
X03809Y03374D03*
G54D16*
X0398Y0181D03*
Y0191D03*
Y0201D03*
Y0211D03*
Y0221D03*
Y0231D03*
Y0241D03*
Y0251D03*
Y0261D03*
Y0271D03*
Y0281D03*
Y0291D03*
Y0301D03*
Y0311D03*
X0368Y0181D03*
Y0191D03*
Y0201D03*
Y0211D03*
Y0221D03*
Y0231D03*
Y0241D03*
Y0251D03*
Y0261D03*
Y0271D03*
Y0281D03*
Y0291D03*
Y0301D03*
G54D17*
X0368Y0311D03*
M02*