%FSTAX23Y23*%
%MOIN*%
%SFA1B1*%

%IPPOS*%
%ADD38C,0.005000*%
%ADD39C,0.006667*%
%LNpcb2_drawing_1-1*%
%LPD*%
G54D38*
X03926Y03354D02*
Y03394D01*
X03966*
Y03354*
X03926*
X03789D02*
Y03394D01*
X03829*
Y03354*
X03789*
X04389Y02814D02*
X04369Y02854D01*
X04409*
X04389Y02814*
Y02716D02*
X04369Y02756D01*
X04409*
X04389Y02716*
X04409Y02617D02*
X04389Y02657D01*
X04429*
X04409Y02617*
X04429Y02519D02*
X04409Y02559D01*
X04449*
X04429Y02519*
X04389Y0242D02*
X04369Y0246D01*
X04409*
X04389Y0242*
Y02302D02*
X04369Y02342D01*
X04409*
X04389Y02302*
X04448Y02204D02*
X04428Y02244D01*
X04468*
X04448Y02204*
G54D39*
X04Y0181D02*
D01*
X03999Y01811*
X03999Y01812*
X03999Y01814*
X03999Y01815*
X03998Y01816*
X03998Y01818*
X03997Y01819*
X03996Y0182*
X03996Y01821*
X03995Y01822*
X03994Y01823*
X03993Y01824*
X03992Y01825*
X03991Y01826*
X0399Y01827*
X03988Y01827*
X03987Y01828*
X03986Y01829*
X03984Y01829*
X03983Y01829*
X03982Y01829*
X0398Y01829*
X03979*
X03977Y01829*
X03976Y01829*
X03975Y01829*
X03973Y01829*
X03972Y01828*
X03971Y01827*
X0397Y01827*
X03968Y01826*
X03967Y01825*
X03966Y01824*
X03965Y01823*
X03964Y01822*
X03963Y01821*
X03963Y0182*
X03962Y01819*
X03961Y01818*
X03961Y01816*
X0396Y01815*
X0396Y01814*
X0396Y01812*
X0396Y01811*
X0396Y0181*
X0396Y01808*
X0396Y01807*
X0396Y01805*
X0396Y01804*
X03961Y01803*
X03961Y01801*
X03962Y018*
X03963Y01799*
X03963Y01798*
X03964Y01797*
X03965Y01796*
X03966Y01795*
X03967Y01794*
X03968Y01793*
X0397Y01792*
X03971Y01792*
X03972Y01791*
X03973Y0179*
X03975Y0179*
X03976Y0179*
X03977Y0179*
X03979Y0179*
X0398*
X03982Y0179*
X03983Y0179*
X03984Y0179*
X03986Y0179*
X03987Y01791*
X03988Y01792*
X0399Y01792*
X03991Y01793*
X03992Y01794*
X03993Y01795*
X03994Y01796*
X03995Y01797*
X03996Y01798*
X03996Y01799*
X03997Y018*
X03998Y01801*
X03998Y01803*
X03999Y01804*
X03999Y01805*
X03999Y01807*
X03999Y01808*
X04Y0181*
Y0191D02*
D01*
X03999Y01911*
X03999Y01912*
X03999Y01914*
X03999Y01915*
X03998Y01916*
X03998Y01918*
X03997Y01919*
X03996Y0192*
X03996Y01921*
X03995Y01922*
X03994Y01923*
X03993Y01924*
X03992Y01925*
X03991Y01926*
X0399Y01927*
X03988Y01927*
X03987Y01928*
X03986Y01929*
X03984Y01929*
X03983Y01929*
X03982Y01929*
X0398Y01929*
X03979*
X03977Y01929*
X03976Y01929*
X03975Y01929*
X03973Y01929*
X03972Y01928*
X03971Y01927*
X0397Y01927*
X03968Y01926*
X03967Y01925*
X03966Y01924*
X03965Y01923*
X03964Y01922*
X03963Y01921*
X03963Y0192*
X03962Y01919*
X03961Y01918*
X03961Y01916*
X0396Y01915*
X0396Y01914*
X0396Y01912*
X0396Y01911*
X0396Y0191*
X0396Y01908*
X0396Y01907*
X0396Y01905*
X0396Y01904*
X03961Y01903*
X03961Y01901*
X03962Y019*
X03963Y01899*
X03963Y01898*
X03964Y01897*
X03965Y01896*
X03966Y01895*
X03967Y01894*
X03968Y01893*
X0397Y01892*
X03971Y01892*
X03972Y01891*
X03973Y0189*
X03975Y0189*
X03976Y0189*
X03977Y0189*
X03979Y0189*
X0398*
X03982Y0189*
X03983Y0189*
X03984Y0189*
X03986Y0189*
X03987Y01891*
X03988Y01892*
X0399Y01892*
X03991Y01893*
X03992Y01894*
X03993Y01895*
X03994Y01896*
X03995Y01897*
X03996Y01898*
X03996Y01899*
X03997Y019*
X03998Y01901*
X03998Y01903*
X03999Y01904*
X03999Y01905*
X03999Y01907*
X03999Y01908*
X04Y0191*
Y0201D02*
D01*
X03999Y02011*
X03999Y02012*
X03999Y02014*
X03999Y02015*
X03998Y02016*
X03998Y02018*
X03997Y02019*
X03996Y0202*
X03996Y02021*
X03995Y02022*
X03994Y02023*
X03993Y02024*
X03992Y02025*
X03991Y02026*
X0399Y02027*
X03988Y02027*
X03987Y02028*
X03986Y02029*
X03984Y02029*
X03983Y02029*
X03982Y02029*
X0398Y02029*
X03979*
X03977Y02029*
X03976Y02029*
X03975Y02029*
X03973Y02029*
X03972Y02028*
X03971Y02027*
X0397Y02027*
X03968Y02026*
X03967Y02025*
X03966Y02024*
X03965Y02023*
X03964Y02022*
X03963Y02021*
X03963Y0202*
X03962Y02019*
X03961Y02018*
X03961Y02016*
X0396Y02015*
X0396Y02014*
X0396Y02012*
X0396Y02011*
X0396Y0201*
X0396Y02008*
X0396Y02007*
X0396Y02005*
X0396Y02004*
X03961Y02003*
X03961Y02001*
X03962Y02*
X03963Y01999*
X03963Y01998*
X03964Y01997*
X03965Y01996*
X03966Y01995*
X03967Y01994*
X03968Y01993*
X0397Y01992*
X03971Y01992*
X03972Y01991*
X03973Y0199*
X03975Y0199*
X03976Y0199*
X03977Y0199*
X03979Y0199*
X0398*
X03982Y0199*
X03983Y0199*
X03984Y0199*
X03986Y0199*
X03987Y01991*
X03988Y01992*
X0399Y01992*
X03991Y01993*
X03992Y01994*
X03993Y01995*
X03994Y01996*
X03995Y01997*
X03996Y01998*
X03996Y01999*
X03997Y02*
X03998Y02001*
X03998Y02003*
X03999Y02004*
X03999Y02005*
X03999Y02007*
X03999Y02008*
X04Y0201*
Y0211D02*
D01*
X03999Y02111*
X03999Y02112*
X03999Y02114*
X03999Y02115*
X03998Y02116*
X03998Y02118*
X03997Y02119*
X03996Y0212*
X03996Y02121*
X03995Y02122*
X03994Y02123*
X03993Y02124*
X03992Y02125*
X03991Y02126*
X0399Y02127*
X03988Y02127*
X03987Y02128*
X03986Y02129*
X03984Y02129*
X03983Y02129*
X03982Y02129*
X0398Y02129*
X03979*
X03977Y02129*
X03976Y02129*
X03975Y02129*
X03973Y02129*
X03972Y02128*
X03971Y02127*
X0397Y02127*
X03968Y02126*
X03967Y02125*
X03966Y02124*
X03965Y02123*
X03964Y02122*
X03963Y02121*
X03963Y0212*
X03962Y02119*
X03961Y02118*
X03961Y02116*
X0396Y02115*
X0396Y02114*
X0396Y02112*
X0396Y02111*
X0396Y0211*
X0396Y02108*
X0396Y02107*
X0396Y02105*
X0396Y02104*
X03961Y02103*
X03961Y02101*
X03962Y021*
X03963Y02099*
X03963Y02098*
X03964Y02097*
X03965Y02096*
X03966Y02095*
X03967Y02094*
X03968Y02093*
X0397Y02092*
X03971Y02092*
X03972Y02091*
X03973Y0209*
X03975Y0209*
X03976Y0209*
X03977Y0209*
X03979Y0209*
X0398*
X03982Y0209*
X03983Y0209*
X03984Y0209*
X03986Y0209*
X03987Y02091*
X03988Y02092*
X0399Y02092*
X03991Y02093*
X03992Y02094*
X03993Y02095*
X03994Y02096*
X03995Y02097*
X03996Y02098*
X03996Y02099*
X03997Y021*
X03998Y02101*
X03998Y02103*
X03999Y02104*
X03999Y02105*
X03999Y02107*
X03999Y02108*
X04Y0211*
Y0221D02*
D01*
X03999Y02211*
X03999Y02212*
X03999Y02214*
X03999Y02215*
X03998Y02216*
X03998Y02218*
X03997Y02219*
X03996Y0222*
X03996Y02221*
X03995Y02222*
X03994Y02223*
X03993Y02224*
X03992Y02225*
X03991Y02226*
X0399Y02227*
X03988Y02227*
X03987Y02228*
X03986Y02229*
X03984Y02229*
X03983Y02229*
X03982Y02229*
X0398Y02229*
X03979*
X03977Y02229*
X03976Y02229*
X03975Y02229*
X03973Y02229*
X03972Y02228*
X03971Y02227*
X0397Y02227*
X03968Y02226*
X03967Y02225*
X03966Y02224*
X03965Y02223*
X03964Y02222*
X03963Y02221*
X03963Y0222*
X03962Y02219*
X03961Y02218*
X03961Y02216*
X0396Y02215*
X0396Y02214*
X0396Y02212*
X0396Y02211*
X0396Y0221*
X0396Y02208*
X0396Y02207*
X0396Y02205*
X0396Y02204*
X03961Y02203*
X03961Y02201*
X03962Y022*
X03963Y02199*
X03963Y02198*
X03964Y02197*
X03965Y02196*
X03966Y02195*
X03967Y02194*
X03968Y02193*
X0397Y02192*
X03971Y02192*
X03972Y02191*
X03973Y0219*
X03975Y0219*
X03976Y0219*
X03977Y0219*
X03979Y0219*
X0398*
X03982Y0219*
X03983Y0219*
X03984Y0219*
X03986Y0219*
X03987Y02191*
X03988Y02192*
X0399Y02192*
X03991Y02193*
X03992Y02194*
X03993Y02195*
X03994Y02196*
X03995Y02197*
X03996Y02198*
X03996Y02199*
X03997Y022*
X03998Y02201*
X03998Y02203*
X03999Y02204*
X03999Y02205*
X03999Y02207*
X03999Y02208*
X04Y0221*
Y0231D02*
D01*
X03999Y02311*
X03999Y02312*
X03999Y02314*
X03999Y02315*
X03998Y02316*
X03998Y02318*
X03997Y02319*
X03996Y0232*
X03996Y02321*
X03995Y02322*
X03994Y02323*
X03993Y02324*
X03992Y02325*
X03991Y02326*
X0399Y02327*
X03988Y02327*
X03987Y02328*
X03986Y02329*
X03984Y02329*
X03983Y02329*
X03982Y02329*
X0398Y02329*
X03979*
X03977Y02329*
X03976Y02329*
X03975Y02329*
X03973Y02329*
X03972Y02328*
X03971Y02327*
X0397Y02327*
X03968Y02326*
X03967Y02325*
X03966Y02324*
X03965Y02323*
X03964Y02322*
X03963Y02321*
X03963Y0232*
X03962Y02319*
X03961Y02318*
X03961Y02316*
X0396Y02315*
X0396Y02314*
X0396Y02312*
X0396Y02311*
X0396Y0231*
X0396Y02308*
X0396Y02307*
X0396Y02305*
X0396Y02304*
X03961Y02303*
X03961Y02301*
X03962Y023*
X03963Y02299*
X03963Y02298*
X03964Y02297*
X03965Y02296*
X03966Y02295*
X03967Y02294*
X03968Y02293*
X0397Y02292*
X03971Y02292*
X03972Y02291*
X03973Y0229*
X03975Y0229*
X03976Y0229*
X03977Y0229*
X03979Y0229*
X0398*
X03982Y0229*
X03983Y0229*
X03984Y0229*
X03986Y0229*
X03987Y02291*
X03988Y02292*
X0399Y02292*
X03991Y02293*
X03992Y02294*
X03993Y02295*
X03994Y02296*
X03995Y02297*
X03996Y02298*
X03996Y02299*
X03997Y023*
X03998Y02301*
X03998Y02303*
X03999Y02304*
X03999Y02305*
X03999Y02307*
X03999Y02308*
X04Y0231*
Y0241D02*
D01*
X03999Y02411*
X03999Y02412*
X03999Y02414*
X03999Y02415*
X03998Y02416*
X03998Y02418*
X03997Y02419*
X03996Y0242*
X03996Y02421*
X03995Y02422*
X03994Y02423*
X03993Y02424*
X03992Y02425*
X03991Y02426*
X0399Y02427*
X03988Y02427*
X03987Y02428*
X03986Y02429*
X03984Y02429*
X03983Y02429*
X03982Y02429*
X0398Y02429*
X03979*
X03977Y02429*
X03976Y02429*
X03975Y02429*
X03973Y02429*
X03972Y02428*
X03971Y02427*
X0397Y02427*
X03968Y02426*
X03967Y02425*
X03966Y02424*
X03965Y02423*
X03964Y02422*
X03963Y02421*
X03963Y0242*
X03962Y02419*
X03961Y02418*
X03961Y02416*
X0396Y02415*
X0396Y02414*
X0396Y02412*
X0396Y02411*
X0396Y0241*
X0396Y02408*
X0396Y02407*
X0396Y02405*
X0396Y02404*
X03961Y02403*
X03961Y02401*
X03962Y024*
X03963Y02399*
X03963Y02398*
X03964Y02397*
X03965Y02396*
X03966Y02395*
X03967Y02394*
X03968Y02393*
X0397Y02392*
X03971Y02392*
X03972Y02391*
X03973Y0239*
X03975Y0239*
X03976Y0239*
X03977Y0239*
X03979Y0239*
X0398*
X03982Y0239*
X03983Y0239*
X03984Y0239*
X03986Y0239*
X03987Y02391*
X03988Y02392*
X0399Y02392*
X03991Y02393*
X03992Y02394*
X03993Y02395*
X03994Y02396*
X03995Y02397*
X03996Y02398*
X03996Y02399*
X03997Y024*
X03998Y02401*
X03998Y02403*
X03999Y02404*
X03999Y02405*
X03999Y02407*
X03999Y02408*
X04Y0241*
Y0251D02*
D01*
X03999Y02511*
X03999Y02512*
X03999Y02514*
X03999Y02515*
X03998Y02516*
X03998Y02518*
X03997Y02519*
X03996Y0252*
X03996Y02521*
X03995Y02522*
X03994Y02523*
X03993Y02524*
X03992Y02525*
X03991Y02526*
X0399Y02527*
X03988Y02527*
X03987Y02528*
X03986Y02529*
X03984Y02529*
X03983Y02529*
X03982Y02529*
X0398Y02529*
X03979*
X03977Y02529*
X03976Y02529*
X03975Y02529*
X03973Y02529*
X03972Y02528*
X03971Y02527*
X0397Y02527*
X03968Y02526*
X03967Y02525*
X03966Y02524*
X03965Y02523*
X03964Y02522*
X03963Y02521*
X03963Y0252*
X03962Y02519*
X03961Y02518*
X03961Y02516*
X0396Y02515*
X0396Y02514*
X0396Y02512*
X0396Y02511*
X0396Y0251*
X0396Y02508*
X0396Y02507*
X0396Y02505*
X0396Y02504*
X03961Y02503*
X03961Y02501*
X03962Y025*
X03963Y02499*
X03963Y02498*
X03964Y02497*
X03965Y02496*
X03966Y02495*
X03967Y02494*
X03968Y02493*
X0397Y02492*
X03971Y02492*
X03972Y02491*
X03973Y0249*
X03975Y0249*
X03976Y0249*
X03977Y0249*
X03979Y0249*
X0398*
X03982Y0249*
X03983Y0249*
X03984Y0249*
X03986Y0249*
X03987Y02491*
X03988Y02492*
X0399Y02492*
X03991Y02493*
X03992Y02494*
X03993Y02495*
X03994Y02496*
X03995Y02497*
X03996Y02498*
X03996Y02499*
X03997Y025*
X03998Y02501*
X03998Y02503*
X03999Y02504*
X03999Y02505*
X03999Y02507*
X03999Y02508*
X04Y0251*
Y0261D02*
D01*
X03999Y02611*
X03999Y02612*
X03999Y02614*
X03999Y02615*
X03998Y02616*
X03998Y02618*
X03997Y02619*
X03996Y0262*
X03996Y02621*
X03995Y02622*
X03994Y02623*
X03993Y02624*
X03992Y02625*
X03991Y02626*
X0399Y02627*
X03988Y02627*
X03987Y02628*
X03986Y02629*
X03984Y02629*
X03983Y02629*
X03982Y02629*
X0398Y02629*
X03979*
X03977Y02629*
X03976Y02629*
X03975Y02629*
X03973Y02629*
X03972Y02628*
X03971Y02627*
X0397Y02627*
X03968Y02626*
X03967Y02625*
X03966Y02624*
X03965Y02623*
X03964Y02622*
X03963Y02621*
X03963Y0262*
X03962Y02619*
X03961Y02618*
X03961Y02616*
X0396Y02615*
X0396Y02614*
X0396Y02612*
X0396Y02611*
X0396Y0261*
X0396Y02608*
X0396Y02607*
X0396Y02605*
X0396Y02604*
X03961Y02603*
X03961Y02601*
X03962Y026*
X03963Y02599*
X03963Y02598*
X03964Y02597*
X03965Y02596*
X03966Y02595*
X03967Y02594*
X03968Y02593*
X0397Y02592*
X03971Y02592*
X03972Y02591*
X03973Y0259*
X03975Y0259*
X03976Y0259*
X03977Y0259*
X03979Y0259*
X0398*
X03982Y0259*
X03983Y0259*
X03984Y0259*
X03986Y0259*
X03987Y02591*
X03988Y02592*
X0399Y02592*
X03991Y02593*
X03992Y02594*
X03993Y02595*
X03994Y02596*
X03995Y02597*
X03996Y02598*
X03996Y02599*
X03997Y026*
X03998Y02601*
X03998Y02603*
X03999Y02604*
X03999Y02605*
X03999Y02607*
X03999Y02608*
X04Y0261*
Y0271D02*
D01*
X03999Y02711*
X03999Y02712*
X03999Y02714*
X03999Y02715*
X03998Y02716*
X03998Y02718*
X03997Y02719*
X03996Y0272*
X03996Y02721*
X03995Y02722*
X03994Y02723*
X03993Y02724*
X03992Y02725*
X03991Y02726*
X0399Y02727*
X03988Y02727*
X03987Y02728*
X03986Y02729*
X03984Y02729*
X03983Y02729*
X03982Y02729*
X0398Y02729*
X03979*
X03977Y02729*
X03976Y02729*
X03975Y02729*
X03973Y02729*
X03972Y02728*
X03971Y02727*
X0397Y02727*
X03968Y02726*
X03967Y02725*
X03966Y02724*
X03965Y02723*
X03964Y02722*
X03963Y02721*
X03963Y0272*
X03962Y02719*
X03961Y02718*
X03961Y02716*
X0396Y02715*
X0396Y02714*
X0396Y02712*
X0396Y02711*
X0396Y0271*
X0396Y02708*
X0396Y02707*
X0396Y02705*
X0396Y02704*
X03961Y02703*
X03961Y02701*
X03962Y027*
X03963Y02699*
X03963Y02698*
X03964Y02697*
X03965Y02696*
X03966Y02695*
X03967Y02694*
X03968Y02693*
X0397Y02692*
X03971Y02692*
X03972Y02691*
X03973Y0269*
X03975Y0269*
X03976Y0269*
X03977Y0269*
X03979Y0269*
X0398*
X03982Y0269*
X03983Y0269*
X03984Y0269*
X03986Y0269*
X03987Y02691*
X03988Y02692*
X0399Y02692*
X03991Y02693*
X03992Y02694*
X03993Y02695*
X03994Y02696*
X03995Y02697*
X03996Y02698*
X03996Y02699*
X03997Y027*
X03998Y02701*
X03998Y02703*
X03999Y02704*
X03999Y02705*
X03999Y02707*
X03999Y02708*
X04Y0271*
Y0281D02*
D01*
X03999Y02811*
X03999Y02812*
X03999Y02814*
X03999Y02815*
X03998Y02816*
X03998Y02818*
X03997Y02819*
X03996Y0282*
X03996Y02821*
X03995Y02822*
X03994Y02823*
X03993Y02824*
X03992Y02825*
X03991Y02826*
X0399Y02827*
X03988Y02827*
X03987Y02828*
X03986Y02829*
X03984Y02829*
X03983Y02829*
X03982Y02829*
X0398Y02829*
X03979*
X03977Y02829*
X03976Y02829*
X03975Y02829*
X03973Y02829*
X03972Y02828*
X03971Y02827*
X0397Y02827*
X03968Y02826*
X03967Y02825*
X03966Y02824*
X03965Y02823*
X03964Y02822*
X03963Y02821*
X03963Y0282*
X03962Y02819*
X03961Y02818*
X03961Y02816*
X0396Y02815*
X0396Y02814*
X0396Y02812*
X0396Y02811*
X0396Y0281*
X0396Y02808*
X0396Y02807*
X0396Y02805*
X0396Y02804*
X03961Y02803*
X03961Y02801*
X03962Y028*
X03963Y02799*
X03963Y02798*
X03964Y02797*
X03965Y02796*
X03966Y02795*
X03967Y02794*
X03968Y02793*
X0397Y02792*
X03971Y02792*
X03972Y02791*
X03973Y0279*
X03975Y0279*
X03976Y0279*
X03977Y0279*
X03979Y0279*
X0398*
X03982Y0279*
X03983Y0279*
X03984Y0279*
X03986Y0279*
X03987Y02791*
X03988Y02792*
X0399Y02792*
X03991Y02793*
X03992Y02794*
X03993Y02795*
X03994Y02796*
X03995Y02797*
X03996Y02798*
X03996Y02799*
X03997Y028*
X03998Y02801*
X03998Y02803*
X03999Y02804*
X03999Y02805*
X03999Y02807*
X03999Y02808*
X04Y0281*
Y0291D02*
D01*
X03999Y02911*
X03999Y02912*
X03999Y02914*
X03999Y02915*
X03998Y02916*
X03998Y02918*
X03997Y02919*
X03996Y0292*
X03996Y02921*
X03995Y02922*
X03994Y02923*
X03993Y02924*
X03992Y02925*
X03991Y02926*
X0399Y02927*
X03988Y02927*
X03987Y02928*
X03986Y02929*
X03984Y02929*
X03983Y02929*
X03982Y02929*
X0398Y02929*
X03979*
X03977Y02929*
X03976Y02929*
X03975Y02929*
X03973Y02929*
X03972Y02928*
X03971Y02927*
X0397Y02927*
X03968Y02926*
X03967Y02925*
X03966Y02924*
X03965Y02923*
X03964Y02922*
X03963Y02921*
X03963Y0292*
X03962Y02919*
X03961Y02918*
X03961Y02916*
X0396Y02915*
X0396Y02914*
X0396Y02912*
X0396Y02911*
X0396Y0291*
X0396Y02908*
X0396Y02907*
X0396Y02905*
X0396Y02904*
X03961Y02903*
X03961Y02901*
X03962Y029*
X03963Y02899*
X03963Y02898*
X03964Y02897*
X03965Y02896*
X03966Y02895*
X03967Y02894*
X03968Y02893*
X0397Y02892*
X03971Y02892*
X03972Y02891*
X03973Y0289*
X03975Y0289*
X03976Y0289*
X03977Y0289*
X03979Y0289*
X0398*
X03982Y0289*
X03983Y0289*
X03984Y0289*
X03986Y0289*
X03987Y02891*
X03988Y02892*
X0399Y02892*
X03991Y02893*
X03992Y02894*
X03993Y02895*
X03994Y02896*
X03995Y02897*
X03996Y02898*
X03996Y02899*
X03997Y029*
X03998Y02901*
X03998Y02903*
X03999Y02904*
X03999Y02905*
X03999Y02907*
X03999Y02908*
X04Y0291*
Y0301D02*
D01*
X03999Y03011*
X03999Y03012*
X03999Y03014*
X03999Y03015*
X03998Y03016*
X03998Y03018*
X03997Y03019*
X03996Y0302*
X03996Y03021*
X03995Y03022*
X03994Y03023*
X03993Y03024*
X03992Y03025*
X03991Y03026*
X0399Y03027*
X03988Y03027*
X03987Y03028*
X03986Y03029*
X03984Y03029*
X03983Y03029*
X03982Y03029*
X0398Y03029*
X03979*
X03977Y03029*
X03976Y03029*
X03975Y03029*
X03973Y03029*
X03972Y03028*
X03971Y03027*
X0397Y03027*
X03968Y03026*
X03967Y03025*
X03966Y03024*
X03965Y03023*
X03964Y03022*
X03963Y03021*
X03963Y0302*
X03962Y03019*
X03961Y03018*
X03961Y03016*
X0396Y03015*
X0396Y03014*
X0396Y03012*
X0396Y03011*
X0396Y0301*
X0396Y03008*
X0396Y03007*
X0396Y03005*
X0396Y03004*
X03961Y03003*
X03961Y03001*
X03962Y03*
X03963Y02999*
X03963Y02998*
X03964Y02997*
X03965Y02996*
X03966Y02995*
X03967Y02994*
X03968Y02993*
X0397Y02992*
X03971Y02992*
X03972Y02991*
X03973Y0299*
X03975Y0299*
X03976Y0299*
X03977Y0299*
X03979Y0299*
X0398*
X03982Y0299*
X03983Y0299*
X03984Y0299*
X03986Y0299*
X03987Y02991*
X03988Y02992*
X0399Y02992*
X03991Y02993*
X03992Y02994*
X03993Y02995*
X03994Y02996*
X03995Y02997*
X03996Y02998*
X03996Y02999*
X03997Y03*
X03998Y03001*
X03998Y03003*
X03999Y03004*
X03999Y03005*
X03999Y03007*
X03999Y03008*
X04Y0301*
Y0311D02*
D01*
X03999Y03111*
X03999Y03112*
X03999Y03114*
X03999Y03115*
X03998Y03116*
X03998Y03118*
X03997Y03119*
X03996Y0312*
X03996Y03121*
X03995Y03122*
X03994Y03123*
X03993Y03124*
X03992Y03125*
X03991Y03126*
X0399Y03127*
X03988Y03127*
X03987Y03128*
X03986Y03129*
X03984Y03129*
X03983Y03129*
X03982Y03129*
X0398Y03129*
X03979*
X03977Y03129*
X03976Y03129*
X03975Y03129*
X03973Y03129*
X03972Y03128*
X03971Y03127*
X0397Y03127*
X03968Y03126*
X03967Y03125*
X03966Y03124*
X03965Y03123*
X03964Y03122*
X03963Y03121*
X03963Y0312*
X03962Y03119*
X03961Y03118*
X03961Y03116*
X0396Y03115*
X0396Y03114*
X0396Y03112*
X0396Y03111*
X0396Y0311*
X0396Y03108*
X0396Y03107*
X0396Y03105*
X0396Y03104*
X03961Y03103*
X03961Y03101*
X03962Y031*
X03963Y03099*
X03963Y03098*
X03964Y03097*
X03965Y03096*
X03966Y03095*
X03967Y03094*
X03968Y03093*
X0397Y03092*
X03971Y03092*
X03972Y03091*
X03973Y0309*
X03975Y0309*
X03976Y0309*
X03977Y0309*
X03979Y0309*
X0398*
X03982Y0309*
X03983Y0309*
X03984Y0309*
X03986Y0309*
X03987Y03091*
X03988Y03092*
X0399Y03092*
X03991Y03093*
X03992Y03094*
X03993Y03095*
X03994Y03096*
X03995Y03097*
X03996Y03098*
X03996Y03099*
X03997Y031*
X03998Y03101*
X03998Y03103*
X03999Y03104*
X03999Y03105*
X03999Y03107*
X03999Y03108*
X04Y0311*
X037Y0181D02*
D01*
X03699Y01811*
X03699Y01812*
X03699Y01814*
X03699Y01815*
X03698Y01816*
X03698Y01818*
X03697Y01819*
X03696Y0182*
X03696Y01821*
X03695Y01822*
X03694Y01823*
X03693Y01824*
X03692Y01825*
X03691Y01826*
X0369Y01827*
X03688Y01827*
X03687Y01828*
X03686Y01829*
X03684Y01829*
X03683Y01829*
X03682Y01829*
X0368Y01829*
X03679*
X03677Y01829*
X03676Y01829*
X03675Y01829*
X03673Y01829*
X03672Y01828*
X03671Y01827*
X0367Y01827*
X03668Y01826*
X03667Y01825*
X03666Y01824*
X03665Y01823*
X03664Y01822*
X03663Y01821*
X03663Y0182*
X03662Y01819*
X03661Y01818*
X03661Y01816*
X0366Y01815*
X0366Y01814*
X0366Y01812*
X0366Y01811*
X0366Y0181*
X0366Y01808*
X0366Y01807*
X0366Y01805*
X0366Y01804*
X03661Y01803*
X03661Y01801*
X03662Y018*
X03663Y01799*
X03663Y01798*
X03664Y01797*
X03665Y01796*
X03666Y01795*
X03667Y01794*
X03668Y01793*
X0367Y01792*
X03671Y01792*
X03672Y01791*
X03673Y0179*
X03675Y0179*
X03676Y0179*
X03677Y0179*
X03679Y0179*
X0368*
X03682Y0179*
X03683Y0179*
X03684Y0179*
X03686Y0179*
X03687Y01791*
X03688Y01792*
X0369Y01792*
X03691Y01793*
X03692Y01794*
X03693Y01795*
X03694Y01796*
X03695Y01797*
X03696Y01798*
X03696Y01799*
X03697Y018*
X03698Y01801*
X03698Y01803*
X03699Y01804*
X03699Y01805*
X03699Y01807*
X03699Y01808*
X037Y0181*
Y0191D02*
D01*
X03699Y01911*
X03699Y01912*
X03699Y01914*
X03699Y01915*
X03698Y01916*
X03698Y01918*
X03697Y01919*
X03696Y0192*
X03696Y01921*
X03695Y01922*
X03694Y01923*
X03693Y01924*
X03692Y01925*
X03691Y01926*
X0369Y01927*
X03688Y01927*
X03687Y01928*
X03686Y01929*
X03684Y01929*
X03683Y01929*
X03682Y01929*
X0368Y01929*
X03679*
X03677Y01929*
X03676Y01929*
X03675Y01929*
X03673Y01929*
X03672Y01928*
X03671Y01927*
X0367Y01927*
X03668Y01926*
X03667Y01925*
X03666Y01924*
X03665Y01923*
X03664Y01922*
X03663Y01921*
X03663Y0192*
X03662Y01919*
X03661Y01918*
X03661Y01916*
X0366Y01915*
X0366Y01914*
X0366Y01912*
X0366Y01911*
X0366Y0191*
X0366Y01908*
X0366Y01907*
X0366Y01905*
X0366Y01904*
X03661Y01903*
X03661Y01901*
X03662Y019*
X03663Y01899*
X03663Y01898*
X03664Y01897*
X03665Y01896*
X03666Y01895*
X03667Y01894*
X03668Y01893*
X0367Y01892*
X03671Y01892*
X03672Y01891*
X03673Y0189*
X03675Y0189*
X03676Y0189*
X03677Y0189*
X03679Y0189*
X0368*
X03682Y0189*
X03683Y0189*
X03684Y0189*
X03686Y0189*
X03687Y01891*
X03688Y01892*
X0369Y01892*
X03691Y01893*
X03692Y01894*
X03693Y01895*
X03694Y01896*
X03695Y01897*
X03696Y01898*
X03696Y01899*
X03697Y019*
X03698Y01901*
X03698Y01903*
X03699Y01904*
X03699Y01905*
X03699Y01907*
X03699Y01908*
X037Y0191*
Y0201D02*
D01*
X03699Y02011*
X03699Y02012*
X03699Y02014*
X03699Y02015*
X03698Y02016*
X03698Y02018*
X03697Y02019*
X03696Y0202*
X03696Y02021*
X03695Y02022*
X03694Y02023*
X03693Y02024*
X03692Y02025*
X03691Y02026*
X0369Y02027*
X03688Y02027*
X03687Y02028*
X03686Y02029*
X03684Y02029*
X03683Y02029*
X03682Y02029*
X0368Y02029*
X03679*
X03677Y02029*
X03676Y02029*
X03675Y02029*
X03673Y02029*
X03672Y02028*
X03671Y02027*
X0367Y02027*
X03668Y02026*
X03667Y02025*
X03666Y02024*
X03665Y02023*
X03664Y02022*
X03663Y02021*
X03663Y0202*
X03662Y02019*
X03661Y02018*
X03661Y02016*
X0366Y02015*
X0366Y02014*
X0366Y02012*
X0366Y02011*
X0366Y0201*
X0366Y02008*
X0366Y02007*
X0366Y02005*
X0366Y02004*
X03661Y02003*
X03661Y02001*
X03662Y02*
X03663Y01999*
X03663Y01998*
X03664Y01997*
X03665Y01996*
X03666Y01995*
X03667Y01994*
X03668Y01993*
X0367Y01992*
X03671Y01992*
X03672Y01991*
X03673Y0199*
X03675Y0199*
X03676Y0199*
X03677Y0199*
X03679Y0199*
X0368*
X03682Y0199*
X03683Y0199*
X03684Y0199*
X03686Y0199*
X03687Y01991*
X03688Y01992*
X0369Y01992*
X03691Y01993*
X03692Y01994*
X03693Y01995*
X03694Y01996*
X03695Y01997*
X03696Y01998*
X03696Y01999*
X03697Y02*
X03698Y02001*
X03698Y02003*
X03699Y02004*
X03699Y02005*
X03699Y02007*
X03699Y02008*
X037Y0201*
Y0211D02*
D01*
X03699Y02111*
X03699Y02112*
X03699Y02114*
X03699Y02115*
X03698Y02116*
X03698Y02118*
X03697Y02119*
X03696Y0212*
X03696Y02121*
X03695Y02122*
X03694Y02123*
X03693Y02124*
X03692Y02125*
X03691Y02126*
X0369Y02127*
X03688Y02127*
X03687Y02128*
X03686Y02129*
X03684Y02129*
X03683Y02129*
X03682Y02129*
X0368Y02129*
X03679*
X03677Y02129*
X03676Y02129*
X03675Y02129*
X03673Y02129*
X03672Y02128*
X03671Y02127*
X0367Y02127*
X03668Y02126*
X03667Y02125*
X03666Y02124*
X03665Y02123*
X03664Y02122*
X03663Y02121*
X03663Y0212*
X03662Y02119*
X03661Y02118*
X03661Y02116*
X0366Y02115*
X0366Y02114*
X0366Y02112*
X0366Y02111*
X0366Y0211*
X0366Y02108*
X0366Y02107*
X0366Y02105*
X0366Y02104*
X03661Y02103*
X03661Y02101*
X03662Y021*
X03663Y02099*
X03663Y02098*
X03664Y02097*
X03665Y02096*
X03666Y02095*
X03667Y02094*
X03668Y02093*
X0367Y02092*
X03671Y02092*
X03672Y02091*
X03673Y0209*
X03675Y0209*
X03676Y0209*
X03677Y0209*
X03679Y0209*
X0368*
X03682Y0209*
X03683Y0209*
X03684Y0209*
X03686Y0209*
X03687Y02091*
X03688Y02092*
X0369Y02092*
X03691Y02093*
X03692Y02094*
X03693Y02095*
X03694Y02096*
X03695Y02097*
X03696Y02098*
X03696Y02099*
X03697Y021*
X03698Y02101*
X03698Y02103*
X03699Y02104*
X03699Y02105*
X03699Y02107*
X03699Y02108*
X037Y0211*
Y0221D02*
D01*
X03699Y02211*
X03699Y02212*
X03699Y02214*
X03699Y02215*
X03698Y02216*
X03698Y02218*
X03697Y02219*
X03696Y0222*
X03696Y02221*
X03695Y02222*
X03694Y02223*
X03693Y02224*
X03692Y02225*
X03691Y02226*
X0369Y02227*
X03688Y02227*
X03687Y02228*
X03686Y02229*
X03684Y02229*
X03683Y02229*
X03682Y02229*
X0368Y02229*
X03679*
X03677Y02229*
X03676Y02229*
X03675Y02229*
X03673Y02229*
X03672Y02228*
X03671Y02227*
X0367Y02227*
X03668Y02226*
X03667Y02225*
X03666Y02224*
X03665Y02223*
X03664Y02222*
X03663Y02221*
X03663Y0222*
X03662Y02219*
X03661Y02218*
X03661Y02216*
X0366Y02215*
X0366Y02214*
X0366Y02212*
X0366Y02211*
X0366Y0221*
X0366Y02208*
X0366Y02207*
X0366Y02205*
X0366Y02204*
X03661Y02203*
X03661Y02201*
X03662Y022*
X03663Y02199*
X03663Y02198*
X03664Y02197*
X03665Y02196*
X03666Y02195*
X03667Y02194*
X03668Y02193*
X0367Y02192*
X03671Y02192*
X03672Y02191*
X03673Y0219*
X03675Y0219*
X03676Y0219*
X03677Y0219*
X03679Y0219*
X0368*
X03682Y0219*
X03683Y0219*
X03684Y0219*
X03686Y0219*
X03687Y02191*
X03688Y02192*
X0369Y02192*
X03691Y02193*
X03692Y02194*
X03693Y02195*
X03694Y02196*
X03695Y02197*
X03696Y02198*
X03696Y02199*
X03697Y022*
X03698Y02201*
X03698Y02203*
X03699Y02204*
X03699Y02205*
X03699Y02207*
X03699Y02208*
X037Y0221*
Y0231D02*
D01*
X03699Y02311*
X03699Y02312*
X03699Y02314*
X03699Y02315*
X03698Y02316*
X03698Y02318*
X03697Y02319*
X03696Y0232*
X03696Y02321*
X03695Y02322*
X03694Y02323*
X03693Y02324*
X03692Y02325*
X03691Y02326*
X0369Y02327*
X03688Y02327*
X03687Y02328*
X03686Y02329*
X03684Y02329*
X03683Y02329*
X03682Y02329*
X0368Y02329*
X03679*
X03677Y02329*
X03676Y02329*
X03675Y02329*
X03673Y02329*
X03672Y02328*
X03671Y02327*
X0367Y02327*
X03668Y02326*
X03667Y02325*
X03666Y02324*
X03665Y02323*
X03664Y02322*
X03663Y02321*
X03663Y0232*
X03662Y02319*
X03661Y02318*
X03661Y02316*
X0366Y02315*
X0366Y02314*
X0366Y02312*
X0366Y02311*
X0366Y0231*
X0366Y02308*
X0366Y02307*
X0366Y02305*
X0366Y02304*
X03661Y02303*
X03661Y02301*
X03662Y023*
X03663Y02299*
X03663Y02298*
X03664Y02297*
X03665Y02296*
X03666Y02295*
X03667Y02294*
X03668Y02293*
X0367Y02292*
X03671Y02292*
X03672Y02291*
X03673Y0229*
X03675Y0229*
X03676Y0229*
X03677Y0229*
X03679Y0229*
X0368*
X03682Y0229*
X03683Y0229*
X03684Y0229*
X03686Y0229*
X03687Y02291*
X03688Y02292*
X0369Y02292*
X03691Y02293*
X03692Y02294*
X03693Y02295*
X03694Y02296*
X03695Y02297*
X03696Y02298*
X03696Y02299*
X03697Y023*
X03698Y02301*
X03698Y02303*
X03699Y02304*
X03699Y02305*
X03699Y02307*
X03699Y02308*
X037Y0231*
Y0241D02*
D01*
X03699Y02411*
X03699Y02412*
X03699Y02414*
X03699Y02415*
X03698Y02416*
X03698Y02418*
X03697Y02419*
X03696Y0242*
X03696Y02421*
X03695Y02422*
X03694Y02423*
X03693Y02424*
X03692Y02425*
X03691Y02426*
X0369Y02427*
X03688Y02427*
X03687Y02428*
X03686Y02429*
X03684Y02429*
X03683Y02429*
X03682Y02429*
X0368Y02429*
X03679*
X03677Y02429*
X03676Y02429*
X03675Y02429*
X03673Y02429*
X03672Y02428*
X03671Y02427*
X0367Y02427*
X03668Y02426*
X03667Y02425*
X03666Y02424*
X03665Y02423*
X03664Y02422*
X03663Y02421*
X03663Y0242*
X03662Y02419*
X03661Y02418*
X03661Y02416*
X0366Y02415*
X0366Y02414*
X0366Y02412*
X0366Y02411*
X0366Y0241*
X0366Y02408*
X0366Y02407*
X0366Y02405*
X0366Y02404*
X03661Y02403*
X03661Y02401*
X03662Y024*
X03663Y02399*
X03663Y02398*
X03664Y02397*
X03665Y02396*
X03666Y02395*
X03667Y02394*
X03668Y02393*
X0367Y02392*
X03671Y02392*
X03672Y02391*
X03673Y0239*
X03675Y0239*
X03676Y0239*
X03677Y0239*
X03679Y0239*
X0368*
X03682Y0239*
X03683Y0239*
X03684Y0239*
X03686Y0239*
X03687Y02391*
X03688Y02392*
X0369Y02392*
X03691Y02393*
X03692Y02394*
X03693Y02395*
X03694Y02396*
X03695Y02397*
X03696Y02398*
X03696Y02399*
X03697Y024*
X03698Y02401*
X03698Y02403*
X03699Y02404*
X03699Y02405*
X03699Y02407*
X03699Y02408*
X037Y0241*
Y0251D02*
D01*
X03699Y02511*
X03699Y02512*
X03699Y02514*
X03699Y02515*
X03698Y02516*
X03698Y02518*
X03697Y02519*
X03696Y0252*
X03696Y02521*
X03695Y02522*
X03694Y02523*
X03693Y02524*
X03692Y02525*
X03691Y02526*
X0369Y02527*
X03688Y02527*
X03687Y02528*
X03686Y02529*
X03684Y02529*
X03683Y02529*
X03682Y02529*
X0368Y02529*
X03679*
X03677Y02529*
X03676Y02529*
X03675Y02529*
X03673Y02529*
X03672Y02528*
X03671Y02527*
X0367Y02527*
X03668Y02526*
X03667Y02525*
X03666Y02524*
X03665Y02523*
X03664Y02522*
X03663Y02521*
X03663Y0252*
X03662Y02519*
X03661Y02518*
X03661Y02516*
X0366Y02515*
X0366Y02514*
X0366Y02512*
X0366Y02511*
X0366Y0251*
X0366Y02508*
X0366Y02507*
X0366Y02505*
X0366Y02504*
X03661Y02503*
X03661Y02501*
X03662Y025*
X03663Y02499*
X03663Y02498*
X03664Y02497*
X03665Y02496*
X03666Y02495*
X03667Y02494*
X03668Y02493*
X0367Y02492*
X03671Y02492*
X03672Y02491*
X03673Y0249*
X03675Y0249*
X03676Y0249*
X03677Y0249*
X03679Y0249*
X0368*
X03682Y0249*
X03683Y0249*
X03684Y0249*
X03686Y0249*
X03687Y02491*
X03688Y02492*
X0369Y02492*
X03691Y02493*
X03692Y02494*
X03693Y02495*
X03694Y02496*
X03695Y02497*
X03696Y02498*
X03696Y02499*
X03697Y025*
X03698Y02501*
X03698Y02503*
X03699Y02504*
X03699Y02505*
X03699Y02507*
X03699Y02508*
X037Y0251*
Y0261D02*
D01*
X03699Y02611*
X03699Y02612*
X03699Y02614*
X03699Y02615*
X03698Y02616*
X03698Y02618*
X03697Y02619*
X03696Y0262*
X03696Y02621*
X03695Y02622*
X03694Y02623*
X03693Y02624*
X03692Y02625*
X03691Y02626*
X0369Y02627*
X03688Y02627*
X03687Y02628*
X03686Y02629*
X03684Y02629*
X03683Y02629*
X03682Y02629*
X0368Y02629*
X03679*
X03677Y02629*
X03676Y02629*
X03675Y02629*
X03673Y02629*
X03672Y02628*
X03671Y02627*
X0367Y02627*
X03668Y02626*
X03667Y02625*
X03666Y02624*
X03665Y02623*
X03664Y02622*
X03663Y02621*
X03663Y0262*
X03662Y02619*
X03661Y02618*
X03661Y02616*
X0366Y02615*
X0366Y02614*
X0366Y02612*
X0366Y02611*
X0366Y0261*
X0366Y02608*
X0366Y02607*
X0366Y02605*
X0366Y02604*
X03661Y02603*
X03661Y02601*
X03662Y026*
X03663Y02599*
X03663Y02598*
X03664Y02597*
X03665Y02596*
X03666Y02595*
X03667Y02594*
X03668Y02593*
X0367Y02592*
X03671Y02592*
X03672Y02591*
X03673Y0259*
X03675Y0259*
X03676Y0259*
X03677Y0259*
X03679Y0259*
X0368*
X03682Y0259*
X03683Y0259*
X03684Y0259*
X03686Y0259*
X03687Y02591*
X03688Y02592*
X0369Y02592*
X03691Y02593*
X03692Y02594*
X03693Y02595*
X03694Y02596*
X03695Y02597*
X03696Y02598*
X03696Y02599*
X03697Y026*
X03698Y02601*
X03698Y02603*
X03699Y02604*
X03699Y02605*
X03699Y02607*
X03699Y02608*
X037Y0261*
Y0271D02*
D01*
X03699Y02711*
X03699Y02712*
X03699Y02714*
X03699Y02715*
X03698Y02716*
X03698Y02718*
X03697Y02719*
X03696Y0272*
X03696Y02721*
X03695Y02722*
X03694Y02723*
X03693Y02724*
X03692Y02725*
X03691Y02726*
X0369Y02727*
X03688Y02727*
X03687Y02728*
X03686Y02729*
X03684Y02729*
X03683Y02729*
X03682Y02729*
X0368Y02729*
X03679*
X03677Y02729*
X03676Y02729*
X03675Y02729*
X03673Y02729*
X03672Y02728*
X03671Y02727*
X0367Y02727*
X03668Y02726*
X03667Y02725*
X03666Y02724*
X03665Y02723*
X03664Y02722*
X03663Y02721*
X03663Y0272*
X03662Y02719*
X03661Y02718*
X03661Y02716*
X0366Y02715*
X0366Y02714*
X0366Y02712*
X0366Y02711*
X0366Y0271*
X0366Y02708*
X0366Y02707*
X0366Y02705*
X0366Y02704*
X03661Y02703*
X03661Y02701*
X03662Y027*
X03663Y02699*
X03663Y02698*
X03664Y02697*
X03665Y02696*
X03666Y02695*
X03667Y02694*
X03668Y02693*
X0367Y02692*
X03671Y02692*
X03672Y02691*
X03673Y0269*
X03675Y0269*
X03676Y0269*
X03677Y0269*
X03679Y0269*
X0368*
X03682Y0269*
X03683Y0269*
X03684Y0269*
X03686Y0269*
X03687Y02691*
X03688Y02692*
X0369Y02692*
X03691Y02693*
X03692Y02694*
X03693Y02695*
X03694Y02696*
X03695Y02697*
X03696Y02698*
X03696Y02699*
X03697Y027*
X03698Y02701*
X03698Y02703*
X03699Y02704*
X03699Y02705*
X03699Y02707*
X03699Y02708*
X037Y0271*
Y0281D02*
D01*
X03699Y02811*
X03699Y02812*
X03699Y02814*
X03699Y02815*
X03698Y02816*
X03698Y02818*
X03697Y02819*
X03696Y0282*
X03696Y02821*
X03695Y02822*
X03694Y02823*
X03693Y02824*
X03692Y02825*
X03691Y02826*
X0369Y02827*
X03688Y02827*
X03687Y02828*
X03686Y02829*
X03684Y02829*
X03683Y02829*
X03682Y02829*
X0368Y02829*
X03679*
X03677Y02829*
X03676Y02829*
X03675Y02829*
X03673Y02829*
X03672Y02828*
X03671Y02827*
X0367Y02827*
X03668Y02826*
X03667Y02825*
X03666Y02824*
X03665Y02823*
X03664Y02822*
X03663Y02821*
X03663Y0282*
X03662Y02819*
X03661Y02818*
X03661Y02816*
X0366Y02815*
X0366Y02814*
X0366Y02812*
X0366Y02811*
X0366Y0281*
X0366Y02808*
X0366Y02807*
X0366Y02805*
X0366Y02804*
X03661Y02803*
X03661Y02801*
X03662Y028*
X03663Y02799*
X03663Y02798*
X03664Y02797*
X03665Y02796*
X03666Y02795*
X03667Y02794*
X03668Y02793*
X0367Y02792*
X03671Y02792*
X03672Y02791*
X03673Y0279*
X03675Y0279*
X03676Y0279*
X03677Y0279*
X03679Y0279*
X0368*
X03682Y0279*
X03683Y0279*
X03684Y0279*
X03686Y0279*
X03687Y02791*
X03688Y02792*
X0369Y02792*
X03691Y02793*
X03692Y02794*
X03693Y02795*
X03694Y02796*
X03695Y02797*
X03696Y02798*
X03696Y02799*
X03697Y028*
X03698Y02801*
X03698Y02803*
X03699Y02804*
X03699Y02805*
X03699Y02807*
X03699Y02808*
X037Y0281*
Y0291D02*
D01*
X03699Y02911*
X03699Y02912*
X03699Y02914*
X03699Y02915*
X03698Y02916*
X03698Y02918*
X03697Y02919*
X03696Y0292*
X03696Y02921*
X03695Y02922*
X03694Y02923*
X03693Y02924*
X03692Y02925*
X03691Y02926*
X0369Y02927*
X03688Y02927*
X03687Y02928*
X03686Y02929*
X03684Y02929*
X03683Y02929*
X03682Y02929*
X0368Y02929*
X03679*
X03677Y02929*
X03676Y02929*
X03675Y02929*
X03673Y02929*
X03672Y02928*
X03671Y02927*
X0367Y02927*
X03668Y02926*
X03667Y02925*
X03666Y02924*
X03665Y02923*
X03664Y02922*
X03663Y02921*
X03663Y0292*
X03662Y02919*
X03661Y02918*
X03661Y02916*
X0366Y02915*
X0366Y02914*
X0366Y02912*
X0366Y02911*
X0366Y0291*
X0366Y02908*
X0366Y02907*
X0366Y02905*
X0366Y02904*
X03661Y02903*
X03661Y02901*
X03662Y029*
X03663Y02899*
X03663Y02898*
X03664Y02897*
X03665Y02896*
X03666Y02895*
X03667Y02894*
X03668Y02893*
X0367Y02892*
X03671Y02892*
X03672Y02891*
X03673Y0289*
X03675Y0289*
X03676Y0289*
X03677Y0289*
X03679Y0289*
X0368*
X03682Y0289*
X03683Y0289*
X03684Y0289*
X03686Y0289*
X03687Y02891*
X03688Y02892*
X0369Y02892*
X03691Y02893*
X03692Y02894*
X03693Y02895*
X03694Y02896*
X03695Y02897*
X03696Y02898*
X03696Y02899*
X03697Y029*
X03698Y02901*
X03698Y02903*
X03699Y02904*
X03699Y02905*
X03699Y02907*
X03699Y02908*
X037Y0291*
Y0301D02*
D01*
X03699Y03011*
X03699Y03012*
X03699Y03014*
X03699Y03015*
X03698Y03016*
X03698Y03018*
X03697Y03019*
X03696Y0302*
X03696Y03021*
X03695Y03022*
X03694Y03023*
X03693Y03024*
X03692Y03025*
X03691Y03026*
X0369Y03027*
X03688Y03027*
X03687Y03028*
X03686Y03029*
X03684Y03029*
X03683Y03029*
X03682Y03029*
X0368Y03029*
X03679*
X03677Y03029*
X03676Y03029*
X03675Y03029*
X03673Y03029*
X03672Y03028*
X03671Y03027*
X0367Y03027*
X03668Y03026*
X03667Y03025*
X03666Y03024*
X03665Y03023*
X03664Y03022*
X03663Y03021*
X03663Y0302*
X03662Y03019*
X03661Y03018*
X03661Y03016*
X0366Y03015*
X0366Y03014*
X0366Y03012*
X0366Y03011*
X0366Y0301*
X0366Y03008*
X0366Y03007*
X0366Y03005*
X0366Y03004*
X03661Y03003*
X03661Y03001*
X03662Y03*
X03663Y02999*
X03663Y02998*
X03664Y02997*
X03665Y02996*
X03666Y02995*
X03667Y02994*
X03668Y02993*
X0367Y02992*
X03671Y02992*
X03672Y02991*
X03673Y0299*
X03675Y0299*
X03676Y0299*
X03677Y0299*
X03679Y0299*
X0368*
X03682Y0299*
X03683Y0299*
X03684Y0299*
X03686Y0299*
X03687Y02991*
X03688Y02992*
X0369Y02992*
X03691Y02993*
X03692Y02994*
X03693Y02995*
X03694Y02996*
X03695Y02997*
X03696Y02998*
X03696Y02999*
X03697Y03*
X03698Y03001*
X03698Y03003*
X03699Y03004*
X03699Y03005*
X03699Y03007*
X03699Y03008*
X037Y0301*
Y0311D02*
D01*
X03699Y03111*
X03699Y03112*
X03699Y03114*
X03699Y03115*
X03698Y03116*
X03698Y03118*
X03697Y03119*
X03696Y0312*
X03696Y03121*
X03695Y03122*
X03694Y03123*
X03693Y03124*
X03692Y03125*
X03691Y03126*
X0369Y03127*
X03688Y03127*
X03687Y03128*
X03686Y03129*
X03684Y03129*
X03683Y03129*
X03682Y03129*
X0368Y03129*
X03679*
X03677Y03129*
X03676Y03129*
X03675Y03129*
X03673Y03129*
X03672Y03128*
X03671Y03127*
X0367Y03127*
X03668Y03126*
X03667Y03125*
X03666Y03124*
X03665Y03123*
X03664Y03122*
X03663Y03121*
X03663Y0312*
X03662Y03119*
X03661Y03118*
X03661Y03116*
X0366Y03115*
X0366Y03114*
X0366Y03112*
X0366Y03111*
X0366Y0311*
X0366Y03108*
X0366Y03107*
X0366Y03105*
X0366Y03104*
X03661Y03103*
X03661Y03101*
X03662Y031*
X03663Y03099*
X03663Y03098*
X03664Y03097*
X03665Y03096*
X03666Y03095*
X03667Y03094*
X03668Y03093*
X0367Y03092*
X03671Y03092*
X03672Y03091*
X03673Y0309*
X03675Y0309*
X03676Y0309*
X03677Y0309*
X03679Y0309*
X0368*
X03682Y0309*
X03683Y0309*
X03684Y0309*
X03686Y0309*
X03687Y03091*
X03688Y03092*
X0369Y03092*
X03691Y03093*
X03692Y03094*
X03693Y03095*
X03694Y03096*
X03695Y03097*
X03696Y03098*
X03696Y03099*
X03697Y031*
X03698Y03101*
X03698Y03103*
X03699Y03104*
X03699Y03105*
X03699Y03107*
X03699Y03108*
X037Y0311*
M02*