%FSTAX23Y23*%
%MOIN*%
%SFA1B1*%

%IPPOS*%
%ADD27C,0.007874*%
%ADD29C,0.003937*%
%ADD32C,0.001968*%
%LNpcb2_top_courtyard-1*%
%LPD*%
G54D27*
X0289Y02304D02*
Y02379D01*
Y02304D02*
X03098D01*
Y02379*
X0289D02*
X03098D01*
X0289Y02162D02*
Y02237D01*
Y02162D02*
X03098D01*
Y02237*
X0289D02*
X03098D01*
X0289Y02447D02*
Y02521D01*
Y02447D02*
X03098D01*
Y02521*
X0289D02*
X03098D01*
X0289Y02589D02*
Y02664D01*
Y02589D02*
X03098D01*
Y02664*
X0289D02*
X03098D01*
X0289Y02731D02*
Y02806D01*
Y02731D02*
X03098D01*
Y02806*
X0289D02*
X03098D01*
X0289Y03015D02*
Y0309D01*
Y03015D02*
X03098D01*
Y0309*
X0289D02*
X03098D01*
X0289Y02873D02*
Y02948D01*
Y02873D02*
X03098D01*
Y02948*
X0289D02*
X03098D01*
X0289Y0202D02*
Y02095D01*
Y0202D02*
X03098D01*
Y02095*
X0289D02*
X03098D01*
X04555Y02032D02*
X04972D01*
Y03085*
X04555D02*
X04972D01*
X04555Y02032D02*
Y03085D01*
X04188Y02804D02*
Y02865D01*
Y02804D02*
X04314D01*
Y02865*
X04188D02*
X04314D01*
X04188Y02702D02*
Y02763D01*
Y02702D02*
X04314D01*
Y02763*
X04188D02*
X04314D01*
X04188Y02601D02*
Y02662D01*
Y02601D02*
X04314D01*
Y02662*
X04188D02*
X04314D01*
X04188Y025D02*
Y02561D01*
Y025D02*
X04314D01*
Y02561*
X04188D02*
X04314D01*
X04188Y02399D02*
Y0246D01*
Y02399D02*
X04314D01*
Y0246*
X04188D02*
X04314D01*
X04188Y02297D02*
Y02358D01*
Y02297D02*
X04314D01*
Y02358*
X04188D02*
X04314D01*
X04188Y02196D02*
Y02257D01*
Y02196D02*
X04314D01*
Y02257*
X04188D02*
X04314D01*
X04188Y02095D02*
Y02156D01*
Y02095D02*
X04314D01*
Y02156*
X04188D02*
X04314D01*
X03422Y02084D02*
Y02145D01*
X03296D02*
X03422D01*
X03296Y02084D02*
Y02145D01*
Y02084D02*
X03422D01*
Y02201D02*
Y02262D01*
X03296D02*
X03422D01*
X03296Y02201D02*
Y02262D01*
Y02201D02*
X03422D01*
Y02318D02*
Y02379D01*
X03296D02*
X03422D01*
X03296Y02318D02*
Y02379D01*
Y02318D02*
X03422D01*
Y02435D02*
Y02496D01*
X03296D02*
X03422D01*
X03296Y02435D02*
Y02496D01*
Y02435D02*
X03422D01*
Y02553D02*
Y02614D01*
X03296D02*
X03422D01*
X03296Y02553D02*
Y02614D01*
Y02553D02*
X03422D01*
Y0267D02*
Y02731D01*
X03296D02*
X03422D01*
X03296Y0267D02*
Y02731D01*
Y0267D02*
X03422D01*
Y02787D02*
Y02848D01*
X03296D02*
X03422D01*
X03296Y02787D02*
Y02848D01*
Y02787D02*
X03422D01*
Y02904D02*
Y02965D01*
X03296D02*
X03422D01*
X03296Y02904D02*
Y02965D01*
Y02904D02*
X03422D01*
G54D29*
X0383Y0244D02*
Y02479D01*
X0381Y0246D02*
X03849D01*
G54D32*
X03716Y03232D02*
Y03539D01*
Y03232D02*
X04023D01*
Y03539*
X03716D02*
X04023D01*
X03858Y03385D02*
X03897D01*
X03877Y03366D02*
Y03405D01*
M02*