%FSTAX23Y23*%
%MOIN*%
%SFA1B1*%

%IPPOS*%
%ADD27C,0.007874*%
%LNpcb2_top_assembly-1*%
%LPD*%
G36*
X03027Y0236D02*
X03028D01*
X03028Y0236*
X03029Y0236*
X03029Y0236*
X0303Y02359*
X03031Y02359*
X03031Y02359*
X03032Y02358*
X03032*
X03032Y02358*
X03032Y02358*
X03032Y02358*
X03033Y02357*
X03033Y02357*
X03034Y02356*
X03034Y02355*
X03034Y02354*
X03031Y02354*
Y02354*
Y02354*
X03031Y02354*
X03031Y02354*
X03031Y02355*
X0303Y02356*
X0303Y02356*
X0303Y02356*
X0303Y02356*
X0303Y02357*
X03029Y02357*
X03029Y02357*
X03029Y02357*
X03028Y02357*
X03027Y02358*
X03027Y02358*
X03026*
X03026Y02358*
X03026Y02358*
X03025Y02357*
X03025Y02357*
X03025Y02357*
X03024Y02357*
X03024Y02357*
X03024Y02357*
X03024Y02356*
X03023Y02356*
X03023Y02356*
X03022Y02355*
X03022Y02354*
X03022Y02354*
Y02354*
X03022Y02354*
X03022Y02353*
X03022Y02353*
X03022Y02353*
X03021Y02353*
X03021Y02352*
X03021Y02352*
X03021Y02352*
X03021Y02351*
X03021Y02351*
X03021Y0235*
X03021Y0235*
X03021Y02349*
X03021Y02348*
Y02348*
X03021Y02348*
X03021Y02348*
X03021Y02348*
X03022Y02349*
X03022Y02349*
X03023Y0235*
X03023Y0235*
X03024Y0235*
X03024Y0235*
X03024Y0235*
X03024Y02351*
X03025Y02351*
X03025Y02351*
X03026Y02351*
X03026Y02351*
X03027Y02351*
X03027*
X03028Y02351*
X03028Y02351*
X03028Y02351*
X03029Y02351*
X0303Y02351*
X0303Y0235*
X03031Y0235*
X03031Y0235*
X03031Y0235*
X03032Y02349*
X03032Y02349*
X03032Y02349*
X03032Y02349*
X03032Y02349*
X03033Y02348*
X03033Y02348*
X03033Y02348*
X03033Y02348*
X03033Y02347*
X03034Y02347*
X03034Y02346*
X03034Y02346*
X03034Y02345*
X03034Y02345*
X03034Y02344*
X03034Y02344*
X03034Y02343*
Y02343*
Y02343*
Y02343*
Y02343*
X03034Y02342*
Y02342*
X03034Y02342*
X03034Y02341*
X03034Y0234*
X03034Y02339*
X03033Y02339*
Y02339*
X03033Y02339*
X03033Y02338*
X03033Y02338*
X03033Y02338*
X03033Y02337*
X03032Y02337*
X03032Y02336*
X03031Y02336*
X03031Y02335*
X03031Y02335*
X0303Y02335*
X0303Y02335*
X03029Y02335*
X03029Y02335*
X03028Y02335*
X03027Y02334*
X03027Y02334*
X03026*
X03026Y02334*
X03026*
X03026Y02334*
X03025Y02335*
X03025Y02335*
X03024Y02335*
X03024Y02335*
X03023Y02335*
X03023Y02335*
X03022Y02336*
X03022Y02336*
X03021Y02336*
X03021Y02337*
X0302Y02337*
X0302Y02337*
X0302Y02337*
X0302Y02338*
X0302Y02338*
X0302Y02338*
X03019Y02338*
X03019Y02339*
X03019Y02339*
X03019Y0234*
X03019Y02341*
X03018Y02342*
X03018Y02342*
X03018Y02343*
X03018Y02344*
X03018Y02345*
X03018Y02347*
Y02347*
Y02347*
Y02347*
Y02347*
Y02347*
X03018Y02348*
X03018Y02348*
X03018Y02349*
X03018Y0235*
X03018Y02351*
X03018Y02352*
X03018Y02352*
X03019Y02353*
X03019Y02354*
X03019Y02355*
X0302Y02356*
X0302Y02357*
X03021Y02357*
X03021Y02357*
X03021Y02357*
X03021Y02358*
X03021Y02358*
X03021Y02358*
X03021Y02358*
X03022Y02358*
X03022Y02359*
X03023Y02359*
X03023Y02359*
X03024Y02359*
X03024Y0236*
X03025Y0236*
X03025Y0236*
X03026Y0236*
X03027Y0236*
X03027*
X03027Y0236*
G37*
G36*
X03004Y0236D02*
X03005Y0236D01*
X03006Y0236*
X03006Y0236*
X03007Y0236*
X03007*
X03007Y0236*
X03007*
X03007Y0236*
X03008Y02359*
X03008Y02359*
X03009Y02359*
X03009Y02359*
X0301Y02358*
X03011Y02358*
X03011*
X03011Y02358*
X03011Y02358*
X03011Y02357*
X03012Y02357*
X03012Y02356*
X03013Y02355*
X03013Y02354*
X03014Y02354*
Y02353*
X03014Y02353*
X03014Y02353*
X03014Y02353*
X03014Y02353*
X03014Y02353*
X03014Y02352*
X03014Y02352*
X03014Y02351*
X03014Y02351*
X03014Y0235*
X03015Y02349*
X03015Y02348*
Y02348*
Y02347*
Y02347*
Y02347*
X03015Y02347*
Y02347*
X03015Y02346*
X03014Y02345*
X03014Y02344*
X03014Y02343*
X03014Y02342*
Y02342*
X03014Y02342*
X03014Y02342*
X03014Y02342*
X03014Y02342*
X03013Y02341*
X03013Y02341*
X03013Y0234*
X03013Y02339*
X03012Y02339*
X03012Y02339*
X03012Y02339*
X03012Y02338*
X03012Y02338*
X03011Y02338*
X03011Y02337*
X0301Y02337*
X0301Y02336*
X0301Y02336*
X0301Y02336*
X03009Y02336*
X03009Y02336*
X03009Y02336*
X03008Y02336*
X03008Y02335*
X03007Y02335*
X03007*
X03007Y02335*
X03006Y02335*
X03006Y02335*
X03005Y02335*
X03005Y02335*
X03004Y02335*
X03003Y02335*
X02994*
Y0236*
X03004*
X03004Y0236*
G37*
G36*
X03034Y02215D02*
X03034Y02215D01*
X03034Y02215*
X03034Y02214*
X03034Y02214*
X03034Y02214*
X03034Y02214*
X03033Y02213*
X03033Y02213*
X03033Y02213*
X03032Y02212*
X03032Y02211*
X03031Y02211*
X03031Y0221*
X03031Y02209*
X0303Y02209*
X0303Y02208*
X0303Y02208*
X0303Y02208*
X03029Y02208*
X03029Y02207*
X03029Y02207*
X03029Y02206*
X03029Y02206*
X03028Y02205*
X03028Y02205*
X03028Y02204*
X03027Y02203*
X03027Y02202*
X03027Y02201*
X03026Y02199*
Y02199*
X03026Y02199*
X03026Y02199*
X03026Y02199*
X03026Y02198*
X03026Y02198*
X03026Y02198*
X03026Y02197*
X03025Y02197*
X03025Y02196*
X03025Y02195*
X03025Y02194*
X03025Y02192*
X03022*
Y02192*
Y02192*
Y02193*
X03022Y02193*
Y02193*
X03022Y02193*
X03022Y02194*
X03022Y02194*
X03022Y02195*
X03022Y02195*
X03022Y02196*
X03022Y02197*
X03022Y02197*
X03022Y02198*
X03023Y02199*
Y02199*
X03023Y022*
X03023Y022*
X03023Y022*
X03023Y02201*
X03023Y02201*
X03023Y02201*
X03024Y02202*
X03024Y02203*
X03024Y02203*
X03025Y02205*
X03025Y02206*
X03026Y02208*
X03026Y02208*
X03026Y02208*
X03026Y02208*
X03026Y02208*
X03027Y02209*
X03027Y02209*
X03027Y02209*
X03027Y0221*
X03028Y02211*
X03029Y02212*
X0303Y02213*
X03031Y02214*
X03018*
Y02217*
X03034*
Y02215*
G37*
G36*
X03004Y02217D02*
X03005Y02217D01*
X03006Y02217*
X03006Y02217*
X03007Y02217*
X03007*
X03007Y02217*
X03007*
X03007Y02217*
X03008Y02217*
X03008Y02217*
X03009Y02216*
X03009Y02216*
X0301Y02216*
X03011Y02215*
X03011*
X03011Y02215*
X03011Y02215*
X03011Y02215*
X03012Y02214*
X03012Y02213*
X03013Y02213*
X03013Y02212*
X03014Y02211*
Y02211*
X03014Y02211*
X03014Y02211*
X03014Y02211*
X03014Y0221*
X03014Y0221*
X03014Y0221*
X03014Y02209*
X03014Y02209*
X03014Y02208*
X03014Y02207*
X03015Y02206*
X03015Y02205*
Y02205*
Y02205*
Y02205*
Y02205*
X03015Y02204*
Y02204*
X03015Y02203*
X03014Y02203*
X03014Y02202*
X03014Y02201*
X03014Y022*
Y022*
X03014Y022*
X03014Y022*
X03014Y022*
X03014Y02199*
X03013Y02199*
X03013Y02198*
X03013Y02197*
X03013Y02197*
X03012Y02196*
X03012Y02196*
X03012Y02196*
X03012Y02196*
X03012Y02195*
X03011Y02195*
X03011Y02195*
X0301Y02194*
X0301Y02194*
X0301Y02194*
X0301Y02194*
X03009Y02194*
X03009Y02193*
X03009Y02193*
X03008Y02193*
X03008Y02193*
X03007Y02193*
X03007*
X03007Y02193*
X03006Y02193*
X03006Y02192*
X03005Y02192*
X03005Y02192*
X03004Y02192*
X03003Y02192*
X02994*
Y02217*
X03004*
X03004Y02217*
G37*
G36*
X03033Y02499D02*
X03023D01*
X03022Y02492*
X03022Y02492*
X03022Y02492*
X03022Y02492*
X03022Y02492*
X03023Y02492*
X03023Y02493*
X03024Y02493*
X03024Y02493*
X03025Y02493*
X03026Y02494*
X03027Y02494*
X03027*
X03027Y02494*
X03028Y02494*
X03028Y02494*
X03028Y02493*
X03029Y02493*
X0303Y02493*
X0303Y02493*
X03031Y02493*
X03031Y02492*
X03032Y02492*
X03032Y02492*
X03032Y02491*
X03032Y02491*
X03032Y02491*
X03033Y02491*
X03033Y02491*
X03033Y02491*
X03033Y0249*
X03033Y0249*
X03034Y0249*
X03034Y02489*
X03034Y02489*
X03034Y02488*
X03034Y02488*
X03034Y02487*
X03035Y02487*
X03035Y02486*
X03035Y02485*
Y02485*
Y02485*
Y02485*
X03035Y02485*
X03035Y02485*
X03035Y02484*
X03035Y02484*
X03034Y02483*
X03034Y02483*
X03034Y02482*
X03034Y02481*
X03033Y02481*
X03033Y0248*
X03033Y0248*
X03033Y0248*
X03033Y02479*
X03032Y02479*
X03032Y02479*
X03032Y02479*
X03032Y02479*
X03031Y02478*
X03031Y02478*
X03031Y02478*
X0303Y02478*
X03029Y02477*
X03029Y02477*
X03028Y02477*
X03028Y02477*
X03027Y02477*
X03026Y02477*
X03026*
X03025Y02477*
X03025Y02477*
X03025Y02477*
X03024Y02477*
X03024Y02477*
X03023Y02477*
X03022Y02477*
X03022Y02478*
X03021Y02478*
X03021Y02478*
X0302Y02478*
X0302Y02479*
X0302Y02479*
X0302Y02479*
X0302Y02479*
X0302Y02479*
X0302Y02479*
X0302Y0248*
X03019Y0248*
X03019Y02481*
X03018Y02481*
X03018Y02482*
X03018Y02483*
X03018Y02484*
X03021Y02484*
Y02484*
Y02484*
X03021Y02484*
X03021Y02483*
X03021Y02483*
X03022Y02482*
X03022Y02482*
X03022Y02481*
X03022Y02481*
X03023Y0248*
X03023Y0248*
X03023Y0248*
X03023Y0248*
X03024Y0248*
X03024Y02479*
X03025Y02479*
X03025Y02479*
X03026Y02479*
X03026*
X03026Y02479*
X03027Y02479*
X03027Y02479*
X03028Y0248*
X03029Y0248*
X03029Y0248*
X0303Y0248*
X0303Y02481*
Y02481*
X0303Y02481*
X0303Y02481*
X0303Y02481*
X03031Y02482*
X03031Y02483*
X03031Y02483*
X03031Y02484*
X03031Y02485*
Y02485*
Y02485*
Y02485*
X03031Y02486*
Y02486*
X03031Y02486*
X03031Y02487*
X03031Y02487*
X03031Y02488*
X0303Y02489*
X0303Y02489*
X0303Y02489*
X0303Y0249*
X03029Y0249*
X03029Y0249*
X03028Y0249*
X03028Y02491*
X03027Y02491*
X03026Y02491*
X03026*
X03025Y02491*
X03025Y02491*
X03025Y02491*
X03024Y02491*
X03024Y0249*
X03023Y0249*
X03023Y0249*
X03023Y0249*
X03023Y0249*
X03023Y0249*
X03022Y02489*
X03022Y02489*
X03022Y02489*
X03021Y02488*
X03019Y02489*
X03021Y02502*
X03033*
Y02499*
G37*
G36*
X03004Y02502D02*
X03005Y02502D01*
X03006Y02502*
X03006Y02502*
X03007Y02502*
X03007*
X03007Y02502*
X03007*
X03007Y02502*
X03008Y02502*
X03008Y02501*
X03009Y02501*
X03009Y02501*
X0301Y025*
X03011Y025*
X03011*
X03011Y025*
X03011Y025*
X03011Y02499*
X03012Y02499*
X03012Y02498*
X03013Y02497*
X03013Y02497*
X03014Y02496*
Y02496*
X03014Y02496*
X03014Y02495*
X03014Y02495*
X03014Y02495*
X03014Y02495*
X03014Y02494*
X03014Y02494*
X03014Y02494*
X03014Y02493*
X03014Y02492*
X03015Y02491*
X03015Y0249*
Y0249*
Y0249*
Y02489*
Y02489*
X03015Y02489*
Y02489*
X03015Y02488*
X03014Y02487*
X03014Y02486*
X03014Y02485*
X03014Y02485*
Y02485*
X03014Y02484*
X03014Y02484*
X03014Y02484*
X03014Y02484*
X03013Y02483*
X03013Y02483*
X03013Y02482*
X03013Y02482*
X03012Y02481*
X03012Y02481*
X03012Y02481*
X03012Y0248*
X03012Y0248*
X03011Y0248*
X03011Y02479*
X0301Y02479*
X0301Y02479*
X0301Y02479*
X0301Y02479*
X03009Y02478*
X03009Y02478*
X03009Y02478*
X03008Y02478*
X03008Y02478*
X03007Y02477*
X03007*
X03007Y02477*
X03006Y02477*
X03006Y02477*
X03005Y02477*
X03005Y02477*
X03004Y02477*
X03003Y02477*
X02994*
Y02502*
X03004*
X03004Y02502*
G37*
G36*
X03031Y02628D02*
X03034D01*
Y02625*
X03031*
Y02619*
X03028*
Y02625*
X03017*
Y02628*
X03028Y02644*
X03031*
Y02628*
G37*
G36*
X03004Y02644D02*
X03005Y02644D01*
X03006Y02644*
X03006Y02644*
X03007Y02644*
X03007*
X03007Y02643*
X03007*
X03007Y02643*
X03008Y02643*
X03008Y02643*
X03009Y02643*
X03009Y02643*
X0301Y02642*
X03011Y02642*
X03011*
X03011Y02642*
X03011Y02641*
X03011Y02641*
X03012Y02641*
X03012Y0264*
X03013Y02639*
X03013Y02638*
X03014Y02637*
Y02637*
X03014Y02637*
X03014Y02637*
X03014Y02637*
X03014Y02637*
X03014Y02636*
X03014Y02636*
X03014Y02636*
X03014Y02635*
X03014Y02635*
X03014Y02634*
X03015Y02633*
X03015Y02631*
Y02631*
Y02631*
Y02631*
Y02631*
X03015Y02631*
Y0263*
X03015Y0263*
X03014Y02629*
X03014Y02628*
X03014Y02627*
X03014Y02626*
Y02626*
X03014Y02626*
X03014Y02626*
X03014Y02626*
X03014Y02626*
X03013Y02625*
X03013Y02624*
X03013Y02624*
X03013Y02623*
X03012Y02623*
X03012Y02623*
X03012Y02622*
X03012Y02622*
X03012Y02622*
X03011Y02621*
X03011Y02621*
X0301Y02621*
X0301Y0262*
X0301Y0262*
X0301Y0262*
X03009Y0262*
X03009Y0262*
X03009Y0262*
X03008Y02619*
X03008Y02619*
X03007Y02619*
X03007*
X03007Y02619*
X03006Y02619*
X03006Y02619*
X03005Y02619*
X03005Y02619*
X03004Y02619*
X03003Y02619*
X02994*
Y02644*
X03004*
X03004Y02644*
G37*
G36*
X03027Y02787D02*
X03027Y02786D01*
X03028Y02786*
X03028Y02786*
X03029Y02786*
X0303Y02786*
X0303*
X0303Y02786*
X0303Y02786*
X0303Y02785*
X03031Y02785*
X03031Y02785*
X03032Y02784*
X03032Y02784*
X03032Y02783*
X03032Y02783*
X03032Y02783*
X03033Y02783*
X03033Y02782*
X03033Y02782*
X03033Y02781*
X03033Y02781*
X03033Y0278*
Y0278*
Y0278*
X03033Y02779*
X03033Y02779*
X03033Y02779*
X03033Y02778*
X03033Y02778*
X03032Y02777*
X03032Y02777*
X03032Y02777*
X03032Y02777*
X03032Y02776*
X03031Y02776*
X03031Y02776*
X0303Y02775*
X0303Y02775*
X0303*
X0303Y02775*
X0303*
X0303Y02775*
X03031Y02775*
X03031Y02774*
X03032Y02774*
X03032Y02774*
X03033Y02773*
X03033Y02773*
X03033Y02773*
X03033Y02772*
X03034Y02772*
X03034Y02772*
X03034Y02771*
X03034Y0277*
X03034Y0277*
X03034Y02769*
Y02769*
Y02769*
Y02768*
X03034Y02768*
X03034Y02768*
X03034Y02768*
X03034Y02767*
X03034Y02767*
X03034Y02766*
X03034Y02765*
X03033Y02765*
X03033Y02764*
X03033Y02764*
X03032Y02764*
X03032Y02763*
X03032Y02763*
X03032Y02763*
X03032Y02763*
X03032Y02763*
X03031Y02763*
X03031Y02762*
X03031Y02762*
X0303Y02762*
X0303Y02762*
X0303Y02762*
X03029Y02761*
X03029Y02761*
X03028Y02761*
X03027Y02761*
X03027Y02761*
X03026Y02761*
X03026*
X03025Y02761*
X03025Y02761*
X03025Y02761*
X03024Y02761*
X03024Y02761*
X03023Y02761*
X03022Y02762*
X03022Y02762*
X03021Y02762*
X03021Y02762*
X03021Y02763*
X0302Y02763*
X0302Y02763*
X0302Y02763*
X0302Y02763*
X0302Y02763*
X0302Y02764*
X0302Y02764*
X03019Y02764*
X03019Y02765*
X03019Y02766*
X03018Y02767*
X03018Y02767*
X03018Y02768*
X03021Y02768*
Y02768*
X03021Y02768*
Y02768*
X03021Y02768*
X03021Y02767*
X03022Y02767*
X03022Y02766*
X03022Y02766*
X03022Y02765*
X03023Y02765*
X03023Y02765*
X03023Y02764*
X03023Y02764*
X03024Y02764*
X03024Y02764*
X03025Y02764*
X03025Y02763*
X03026Y02763*
X03026*
X03026Y02763*
X03027Y02763*
X03027Y02764*
X03028Y02764*
X03029Y02764*
X03029Y02764*
X0303Y02765*
X0303Y02765*
X0303Y02765*
X0303Y02765*
X0303Y02766*
X03031Y02766*
X03031Y02767*
X03031Y02768*
X03031Y02769*
Y02769*
Y02769*
Y02769*
X03031Y02769*
X03031Y02769*
X03031Y0277*
X03031Y0277*
X03031Y02771*
X0303Y02772*
X0303Y02772*
X0303Y02772*
X0303Y02772*
X03029Y02773*
X03029Y02773*
X03028Y02773*
X03028Y02773*
X03027Y02773*
X03026Y02774*
X03026*
X03026Y02774*
X03025Y02773*
X03025Y02773*
X03025Y02773*
X03024Y02773*
X03024Y02776*
X03025*
X03025Y02776*
X03025*
X03026Y02776*
X03026Y02776*
X03027Y02776*
X03027Y02776*
X03028Y02777*
X03028Y02777*
X03029Y02777*
X03029Y02777*
X03029Y02777*
X03029Y02778*
X0303Y02778*
X0303Y02779*
X0303Y02779*
X0303Y0278*
Y0278*
Y0278*
Y0278*
X0303Y02781*
X0303Y02781*
X0303Y02782*
X0303Y02782*
X03029Y02782*
X03029Y02783*
X03029Y02783*
X03029Y02783*
X03028Y02783*
X03028Y02783*
X03028Y02784*
X03027Y02784*
X03027Y02784*
X03026Y02784*
X03026*
X03025Y02784*
X03025Y02784*
X03024Y02784*
X03024Y02784*
X03023Y02783*
X03023Y02783*
X03023Y02783*
X03023Y02783*
X03023Y02782*
X03022Y02782*
X03022Y02782*
X03022Y02781*
X03022Y0278*
X03021Y0278*
X03018Y0278*
Y0278*
X03018Y0278*
X03018Y0278*
X03018Y02781*
X03019Y02781*
X03019Y02781*
X03019Y02782*
X03019Y02783*
X0302Y02783*
X0302Y02784*
X03021Y02785*
X03021Y02785*
X03021Y02785*
X03021Y02785*
X03021Y02785*
X03021Y02785*
X03022Y02785*
X03022Y02786*
X03023Y02786*
X03024Y02786*
X03025Y02787*
X03025Y02787*
X03026*
X03027Y02787*
G37*
G36*
X03004Y02786D02*
X03005Y02786D01*
X03006Y02786*
X03006Y02786*
X03007Y02786*
X03007*
X03007Y02786*
X03007*
X03007Y02786*
X03008Y02786*
X03008Y02786*
X03009Y02785*
X03009Y02785*
X0301Y02785*
X03011Y02784*
X03011*
X03011Y02784*
X03011Y02784*
X03011Y02784*
X03012Y02783*
X03012Y02782*
X03013Y02782*
X03013Y02781*
X03014Y0278*
Y0278*
X03014Y0278*
X03014Y0278*
X03014Y02779*
X03014Y02779*
X03014Y02779*
X03014Y02779*
X03014Y02778*
X03014Y02778*
X03014Y02777*
X03014Y02776*
X03015Y02775*
X03015Y02774*
Y02774*
Y02774*
Y02774*
Y02774*
X03015Y02773*
Y02773*
X03015Y02772*
X03014Y02772*
X03014Y02771*
X03014Y0277*
X03014Y02769*
Y02769*
X03014Y02769*
X03014Y02769*
X03014Y02769*
X03014Y02768*
X03013Y02768*
X03013Y02767*
X03013Y02766*
X03013Y02766*
X03012Y02765*
X03012Y02765*
X03012Y02765*
X03012Y02765*
X03012Y02764*
X03011Y02764*
X03011Y02764*
X0301Y02763*
X0301Y02763*
X0301Y02763*
X0301Y02763*
X03009Y02763*
X03009Y02762*
X03009Y02762*
X03008Y02762*
X03008Y02762*
X03007Y02762*
X03007*
X03007Y02762*
X03006Y02762*
X03006Y02761*
X03005Y02761*
X03005Y02761*
X03004Y02761*
X03003Y02761*
X02994*
Y02786*
X03004*
X03004Y02786*
G37*
G36*
X0303Y03045D02*
X03027D01*
Y03065*
X03027Y03065*
X03026Y03065*
X03026Y03064*
X03026Y03064*
X03025Y03064*
X03025Y03064*
X03024Y03063*
X03024Y03063*
X03024*
X03024Y03063*
X03023Y03063*
X03023Y03062*
X03023Y03062*
X03022Y03062*
X03021Y03062*
X03021Y03061*
X0302Y03061*
Y03064*
X0302*
X0302Y03064*
X03021Y03064*
X03021Y03064*
X03021Y03064*
X03021Y03065*
X03022Y03065*
X03023Y03065*
X03023Y03066*
X03024Y03066*
X03025Y03067*
X03025Y03067*
X03025Y03067*
X03025Y03067*
X03026Y03068*
X03026Y03068*
X03026Y03069*
X03027Y03069*
X03027Y0307*
X03028Y0307*
X0303*
Y03045*
G37*
G36*
X03004Y0307D02*
X03005Y0307D01*
X03006Y0307*
X03006Y0307*
X03007Y0307*
X03007*
X03007Y0307*
X03007*
X03007Y0307*
X03008Y0307*
X03008Y0307*
X03009Y03069*
X03009Y03069*
X0301Y03069*
X03011Y03068*
X03011*
X03011Y03068*
X03011Y03068*
X03011Y03067*
X03012Y03067*
X03012Y03066*
X03013Y03066*
X03013Y03065*
X03014Y03064*
Y03064*
X03014Y03064*
X03014Y03064*
X03014Y03063*
X03014Y03063*
X03014Y03063*
X03014Y03062*
X03014Y03062*
X03014Y03062*
X03014Y03061*
X03014Y0306*
X03015Y03059*
X03015Y03058*
Y03058*
Y03058*
Y03058*
Y03057*
X03015Y03057*
Y03057*
X03015Y03056*
X03014Y03055*
X03014Y03054*
X03014Y03054*
X03014Y03053*
Y03053*
X03014Y03053*
X03014Y03053*
X03014Y03052*
X03014Y03052*
X03013Y03051*
X03013Y03051*
X03013Y0305*
X03013Y0305*
X03012Y03049*
X03012Y03049*
X03012Y03049*
X03012Y03049*
X03012Y03048*
X03011Y03048*
X03011Y03048*
X0301Y03047*
X0301Y03047*
X0301Y03047*
X0301Y03047*
X03009Y03047*
X03009Y03046*
X03009Y03046*
X03008Y03046*
X03008Y03046*
X03007Y03046*
X03007*
X03007Y03045*
X03006Y03045*
X03006Y03045*
X03005Y03045*
X03005Y03045*
X03004Y03045*
X03003Y03045*
X02994*
Y0307*
X03004*
X03004Y0307*
G37*
G36*
X03027Y02928D02*
X03027Y02928D01*
X03028Y02928*
X03028Y02928*
X03028Y02928*
X03029Y02928*
X0303Y02927*
X03031Y02927*
X03031Y02927*
X03032Y02927*
X03032Y02926*
X03032Y02926*
X03032Y02926*
X03032Y02926*
X03032Y02926*
X03033Y02926*
X03033Y02925*
X03033Y02925*
X03034Y02924*
X03034Y02923*
X03034Y02922*
X03034Y02922*
X03034Y02921*
Y02921*
Y02921*
X03034Y02921*
X03034Y0292*
X03034Y0292*
X03034Y02919*
X03034Y02919*
X03034Y02918*
X03034Y02918*
X03033Y02918*
X03033Y02918*
X03033Y02917*
X03033Y02917*
X03032Y02916*
X03032Y02916*
X03032Y02915*
X03031Y02915*
X03031Y02915*
X03031Y02915*
X03031Y02914*
X0303Y02914*
X0303Y02914*
X0303Y02913*
X03029Y02913*
X03029Y02913*
X03028Y02912*
X03028Y02912*
X03027Y02911*
X03027Y02911*
X03027Y02911*
X03027Y02911*
X03026Y02911*
X03026Y0291*
X03026Y0291*
X03025Y0291*
X03025Y02909*
X03024Y02908*
X03024Y02908*
X03023Y02908*
X03023Y02908*
X03023Y02908*
X03023Y02907*
X03023Y02907*
X03023Y02907*
X03022Y02907*
X03022Y02906*
X03034*
Y02903*
X03018*
Y02903*
Y02903*
Y02903*
X03018Y02904*
X03018Y02904*
X03018Y02904*
X03018Y02905*
X03018Y02905*
Y02905*
X03018Y02905*
X03018Y02905*
X03018Y02906*
X03018Y02906*
X03019Y02907*
X03019Y02907*
X03019Y02908*
X0302Y02908*
Y02908*
X0302Y02909*
X0302Y02909*
X03021Y02909*
X03021Y0291*
X03022Y0291*
X03022Y02911*
X03023Y02911*
X03024Y02912*
X03024Y02912*
X03024Y02912*
X03024Y02913*
X03025Y02913*
X03025Y02913*
X03025Y02913*
X03026Y02914*
X03027Y02915*
X03028Y02916*
X03029Y02916*
X03029Y02917*
X03029Y02917*
X0303Y02918*
Y02918*
X0303Y02918*
X0303Y02918*
X0303Y02918*
X0303Y02918*
X0303Y02919*
X03031Y02919*
X03031Y0292*
X03031Y02921*
X03031Y02921*
Y02921*
Y02921*
X03031Y02922*
X03031Y02922*
X03031Y02922*
X03031Y02923*
X0303Y02923*
X0303Y02924*
X0303Y02924*
X0303Y02925*
X03029Y02925*
X03029Y02925*
X03029Y02925*
X03028Y02925*
X03028Y02926*
X03027Y02926*
X03026Y02926*
X03026*
X03026Y02926*
X03025Y02926*
X03025Y02926*
X03024Y02925*
X03024Y02925*
X03023Y02925*
X03023Y02924*
X03023Y02924*
X03022Y02924*
X03022Y02924*
X03022Y02923*
X03022Y02923*
X03022Y02922*
X03021Y02922*
X03021Y02921*
X03018Y02921*
Y02921*
Y02921*
X03018Y02921*
X03018Y02922*
X03018Y02922*
X03018Y02922*
X03019Y02923*
X03019Y02924*
X03019Y02925*
X0302Y02926*
X0302Y02926*
X03021Y02926*
X03021Y02926*
X03021Y02927*
X03021Y02927*
X03021Y02927*
X03021Y02927*
X03021Y02927*
X03022Y02927*
X03022Y02927*
X03022Y02928*
X03023Y02928*
X03023Y02928*
X03024Y02928*
X03025Y02928*
X03026Y02928*
X03026Y02928*
X03027*
X03027Y02928*
G37*
G36*
X03004Y02928D02*
X03005Y02928D01*
X03006Y02928*
X03006Y02928*
X03007Y02928*
X03007*
X03007Y02928*
X03007*
X03007Y02928*
X03008Y02928*
X03008Y02927*
X03009Y02927*
X03009Y02927*
X0301Y02926*
X03011Y02926*
X03011*
X03011Y02926*
X03011Y02926*
X03011Y02925*
X03012Y02925*
X03012Y02924*
X03013Y02923*
X03013Y02923*
X03014Y02922*
Y02922*
X03014Y02922*
X03014Y02921*
X03014Y02921*
X03014Y02921*
X03014Y02921*
X03014Y0292*
X03014Y0292*
X03014Y0292*
X03014Y02919*
X03014Y02918*
X03015Y02917*
X03015Y02916*
Y02916*
Y02916*
Y02915*
Y02915*
X03015Y02915*
Y02915*
X03015Y02914*
X03014Y02913*
X03014Y02912*
X03014Y02911*
X03014Y02911*
Y02911*
X03014Y02911*
X03014Y0291*
X03014Y0291*
X03014Y0291*
X03013Y02909*
X03013Y02909*
X03013Y02908*
X03013Y02908*
X03012Y02907*
X03012Y02907*
X03012Y02907*
X03012Y02906*
X03012Y02906*
X03011Y02906*
X03011Y02905*
X0301Y02905*
X0301Y02905*
X0301Y02905*
X0301Y02905*
X03009Y02904*
X03009Y02904*
X03009Y02904*
X03008Y02904*
X03008Y02904*
X03007Y02903*
X03007*
X03007Y02903*
X03006Y02903*
X03006Y02903*
X03005Y02903*
X03005Y02903*
X03004Y02903*
X03003Y02903*
X02994*
Y02928*
X03004*
X03004Y02928*
G37*
G36*
Y02076D02*
X03005Y02076D01*
X03006Y02076*
X03006Y02076*
X03007Y02075*
X03007*
X03007Y02075*
X03007*
X03007Y02075*
X03008Y02075*
X03008Y02075*
X03009Y02075*
X03009Y02074*
X0301Y02074*
X03011Y02074*
X03011*
X03011Y02074*
X03011Y02073*
X03011Y02073*
X03012Y02072*
X03012Y02072*
X03013Y02071*
X03013Y0207*
X03014Y02069*
Y02069*
X03014Y02069*
X03014Y02069*
X03014Y02069*
X03014Y02069*
X03014Y02068*
X03014Y02068*
X03014Y02068*
X03014Y02067*
X03014Y02067*
X03014Y02066*
X03015Y02065*
X03015Y02063*
Y02063*
Y02063*
Y02063*
Y02063*
X03015Y02063*
Y02062*
X03015Y02062*
X03014Y02061*
X03014Y0206*
X03014Y02059*
X03014Y02058*
Y02058*
X03014Y02058*
X03014Y02058*
X03014Y02058*
X03014Y02057*
X03013Y02057*
X03013Y02056*
X03013Y02056*
X03013Y02055*
X03012Y02054*
X03012Y02054*
X03012Y02054*
X03012Y02054*
X03012Y02054*
X03011Y02053*
X03011Y02053*
X0301Y02053*
X0301Y02052*
X0301Y02052*
X0301Y02052*
X03009Y02052*
X03009Y02052*
X03009Y02052*
X03008Y02051*
X03008Y02051*
X03007Y02051*
X03007*
X03007Y02051*
X03006Y02051*
X03006Y02051*
X03005Y02051*
X03005Y02051*
X03004Y02051*
X03003Y02051*
X02994*
Y02076*
X03004*
X03004Y02076*
G37*
G36*
X03027Y02076D02*
X03027D01*
X03027Y02076*
X03028Y02076*
X03029Y02075*
X0303Y02075*
X0303Y02075*
X03031Y02075*
X03031Y02074*
X03032Y02074*
X03032Y02074*
X03032Y02074*
X03032Y02074*
X03032Y02074*
X03032Y02073*
X03032Y02073*
X03033Y02073*
X03033Y02072*
X03033Y02071*
X03033Y0207*
X03033Y0207*
X03034Y02069*
Y02069*
Y02069*
X03033Y02069*
X03033Y02068*
X03033Y02068*
X03033Y02067*
X03033Y02067*
X03033Y02066*
X03033Y02066*
X03032Y02066*
X03032Y02066*
X03032Y02065*
X03032Y02065*
X03031Y02065*
X0303Y02065*
X0303Y02064*
X0303*
X0303Y02064*
X0303Y02064*
X0303Y02064*
X03031Y02064*
X03031Y02064*
X03032Y02063*
X03032Y02063*
X03033Y02062*
X03033Y02062*
X03033Y02062*
X03034Y02061*
X03034Y02061*
X03034Y02061*
X03034Y0206*
X03034Y02059*
X03035Y02059*
X03035Y02058*
Y02058*
Y02058*
Y02057*
X03035Y02057*
X03034Y02057*
X03034Y02057*
X03034Y02056*
X03034Y02055*
X03034Y02055*
X03034Y02054*
X03033Y02054*
X03033Y02053*
X03033Y02053*
X03032Y02052*
X03032Y02052*
X03032Y02052*
X03032Y02052*
X03032Y02052*
X03032Y02052*
X03031Y02052*
X03031Y02051*
X03031Y02051*
X0303Y02051*
X0303Y02051*
X03029Y02051*
X03029Y0205*
X03028Y0205*
X03028Y0205*
X03027Y0205*
X03026Y0205*
X03026*
X03026Y0205*
X03025Y0205*
X03025Y0205*
X03025Y0205*
X03024Y0205*
X03023Y02051*
X03023Y02051*
X03022Y02051*
X03022Y02051*
X03021Y02052*
X03021Y02052*
X0302Y02052*
X0302Y02052*
X0302Y02052*
X0302Y02053*
X0302Y02053*
X0302Y02053*
X03019Y02053*
X03019Y02053*
X03019Y02054*
X03019Y02054*
X03019Y02055*
X03018Y02056*
X03018Y02056*
X03018Y02057*
X03018Y02057*
X03018Y02058*
Y02058*
Y02058*
Y02058*
X03018Y02058*
Y02058*
X03018Y02059*
X03018Y02059*
X03018Y0206*
X03018Y02061*
X03019Y02061*
X03019Y02062*
Y02062*
X03019Y02062*
X03019Y02062*
X0302Y02063*
X0302Y02063*
X03021Y02063*
X03021Y02064*
X03022Y02064*
X03023Y02064*
X03023*
X03023Y02064*
X03022Y02064*
X03022Y02065*
X03022Y02065*
X03021Y02065*
X03021Y02065*
X0302Y02066*
X0302Y02066*
X0302Y02066*
X0302Y02066*
X0302Y02067*
X03019Y02067*
X03019Y02068*
X03019Y02068*
X03019Y02069*
X03019Y02069*
Y02069*
Y02069*
Y0207*
X03019Y0207*
X03019Y0207*
X03019Y0207*
X03019Y02071*
X03019Y02072*
X0302Y02072*
X0302Y02073*
X0302Y02073*
X03021Y02074*
X03021Y02074*
X03021Y02074*
X03021Y02074*
X03021Y02074*
X03021Y02074*
X03021Y02074*
X03022Y02075*
X03022Y02075*
X03022Y02075*
X03023Y02075*
X03024Y02076*
X03025Y02076*
X03026Y02076*
X03026Y02076*
X03026*
X03027Y02076*
G37*
G36*
X04763Y02624D02*
X04743D01*
X04743Y02624*
X04743Y02624*
X04744Y02623*
X04744Y02623*
X04744Y02622*
X04744Y02622*
X04745Y02621*
X04745Y02621*
Y02621*
X04745Y02621*
X04745Y0262*
X04746Y0262*
X04746Y0262*
X04746Y02619*
X04746Y02619*
X04747Y02618*
X04747Y02618*
X04744*
Y02618*
X04744Y02618*
X04744Y02618*
X04744Y02618*
X04744Y02618*
X04743Y02618*
X04743Y02619*
X04743Y0262*
X04742Y02621*
X04742Y02621*
X04741Y02622*
X04741Y02622*
X04741Y02622*
X04741Y02622*
X0474Y02623*
X0474Y02623*
X04739Y02624*
X04739Y02624*
X04738Y02624*
X04738Y02625*
Y02627*
X04763*
Y02624*
G37*
G36*
Y02606D02*
Y02603D01*
X04744Y02598*
X04744*
X04744Y02598*
X04743Y02598*
X04743Y02598*
X04743Y02598*
X04742Y02597*
X04742Y02597*
X04741Y02597*
X04741Y02597*
X04741Y02597*
X04741Y02597*
X04741*
X04741Y02597*
X04741Y02597*
X04742Y02597*
X04742Y02597*
X04743Y02597*
X04743Y02596*
X04744Y02596*
X04763Y02591*
Y02587*
X04738Y02581*
Y02584*
X04754Y02588*
X04754*
X04754Y02588*
X04754Y02588*
X04755Y02588*
X04755Y02588*
X04755Y02588*
X04756Y02588*
X04757Y02589*
X04757Y02589*
X04758Y02589*
X04759Y02589*
X04759*
X04759Y02589*
X04759Y02589*
X04759Y02589*
X04758Y02589*
X04758Y02589*
X04757Y0259*
X04756Y0259*
X04756Y0259*
X04755Y0259*
X04755Y0259*
X04755Y0259*
X04755Y0259*
X04738Y02595*
Y02599*
X0475Y02603*
X0475*
X04751Y02603*
X04751Y02603*
X04751Y02603*
X04752Y02603*
X04752Y02603*
X04753Y02603*
X04753Y02603*
X04754Y02604*
X04755Y02604*
X04756Y02604*
X04758Y02604*
X04759Y02605*
X04759*
X04759Y02605*
X04759*
X04759Y02605*
X04759Y02605*
X04758Y02605*
X04758Y02605*
X04758Y02605*
X04757Y02605*
X04756Y02605*
X04755Y02606*
X04754Y02606*
X04738Y0261*
Y02613*
X04763Y02606*
G37*
G36*
X04756Y02579D02*
X04757Y02578D01*
X04758Y02578*
X04758Y02578*
X04759Y02578*
X0476Y02577*
X0476Y02577*
X0476Y02577*
X0476Y02577*
X04761Y02577*
X04761Y02576*
X04761Y02576*
X04762Y02575*
X04762Y02574*
Y02574*
X04762Y02574*
X04762Y02574*
X04762Y02574*
X04763Y02574*
X04763Y02573*
X04763Y02573*
X04763Y02572*
X04763Y02571*
X04763Y0257*
X04763Y02569*
Y02569*
X04763Y02568*
Y02568*
X04763Y02568*
X04763Y02567*
X04763Y02566*
X04763Y02565*
X04763Y02564*
X04762Y02564*
Y02564*
X04762Y02563*
X04762Y02563*
X04762Y02563*
X04762Y02563*
X04762Y02562*
X04761Y02562*
X04761Y02561*
X0476Y0256*
X04759Y0256*
X04759*
X04759Y0256*
X04759Y0256*
X04759Y0256*
X04759Y0256*
X04759Y02559*
X04758Y02559*
X04757Y02559*
X04757Y02559*
X04756Y02559*
X04755Y02559*
X04754Y02562*
X04755*
X04755*
X04755Y02562*
X04755Y02562*
X04756Y02562*
X04756Y02562*
X04757Y02562*
X04757Y02562*
X04758Y02563*
X04758Y02563*
X04758Y02563*
X04758Y02563*
X04758Y02563*
X04759Y02564*
X04759Y02564*
X04759Y02565*
X0476Y02565*
Y02565*
X0476Y02565*
X0476Y02566*
X0476Y02566*
X0476Y02566*
X0476Y02567*
X0476Y02568*
X0476Y02568*
X0476Y02569*
Y02569*
X0476Y0257*
X0476Y0257*
X0476Y02571*
X0476Y02571*
X0476Y02572*
X0476Y02572*
X0476Y02573*
X0476Y02573*
X0476Y02573*
X04759Y02573*
X04759Y02574*
X04759Y02574*
X04759Y02574*
X04758Y02575*
X04758Y02575*
X04758Y02575*
X04758Y02575*
X04758Y02575*
X04757Y02575*
X04757Y02575*
X04756Y02575*
X04756Y02575*
X04756*
X04756*
X04756Y02575*
X04755Y02575*
X04755Y02575*
X04755Y02575*
X04754Y02575*
X04754Y02575*
X04754Y02575*
X04754Y02575*
X04754Y02574*
X04753Y02574*
X04753Y02574*
X04753Y02573*
X04753Y02573*
X04752Y02572*
X04752Y02572*
X04752Y02572*
X04752Y02572*
X04752Y02572*
X04752Y02571*
X04752Y02571*
X04752Y02571*
X04752Y0257*
X04752Y0257*
X04752Y0257*
X04752Y02569*
X04751Y02569*
X04751Y02568*
Y02568*
X04751Y02568*
X04751Y02568*
X04751Y02567*
X04751Y02567*
X04751Y02567*
X04751Y02566*
X0475Y02565*
X0475Y02564*
X0475Y02564*
X0475Y02563*
X0475Y02563*
Y02563*
X0475Y02563*
X04749Y02563*
X04749Y02562*
X04749Y02562*
X04749Y02562*
X04748Y02561*
X04748Y02561*
X04747Y0256*
X04747Y0256*
X04747Y0256*
X04747Y0256*
X04746Y0256*
X04746Y0256*
X04745Y0256*
X04745Y0256*
X04744Y0256*
X04744*
X04744*
X04744*
X04744*
X04744Y0256*
X04743Y0256*
X04742Y0256*
X04742Y0256*
X04741Y0256*
X04741Y02561*
X04741*
X04741Y02561*
X0474Y02561*
X0474Y02561*
X0474Y02561*
X04739Y02562*
X04739Y02562*
X04738Y02563*
X04738Y02564*
Y02564*
X04738Y02564*
X04738Y02564*
X04738Y02564*
X04738Y02564*
X04738Y02565*
X04738Y02565*
X04737Y02566*
X04737Y02567*
X04737Y02567*
X04737Y02568*
Y02569*
X04737Y02569*
Y02569*
X04737Y0257*
X04737Y02571*
X04738Y02572*
X04738Y02572*
X04738Y02573*
Y02573*
X04738Y02573*
X04738Y02573*
X04738Y02574*
X04739Y02574*
X04739Y02574*
X04739Y02575*
X0474Y02576*
X0474Y02576*
X04741Y02577*
X04741Y02577*
X04741Y02577*
X04741Y02577*
X04742Y02577*
X04743Y02577*
X04743Y02578*
X04744Y02578*
X04745Y02578*
X04745Y02575*
X04745*
X04745*
X04745Y02575*
X04745Y02575*
X04744Y02574*
X04744Y02574*
X04743Y02574*
X04742Y02574*
X04742Y02573*
X04741Y02573*
X04741Y02573*
X04741Y02573*
X04741Y02572*
X04741Y02572*
X04741Y02571*
X0474Y0257*
X0474Y0257*
X0474Y02569*
Y02568*
X0474Y02568*
Y02567*
X0474Y02567*
X0474Y02566*
X04741Y02565*
X04741Y02565*
X04741Y02564*
X04741Y02564*
X04741Y02564*
X04741Y02564*
X04742Y02564*
X04742Y02563*
X04742Y02563*
X04743Y02563*
X04743Y02563*
X04744Y02563*
X04744*
X04744*
X04744Y02563*
X04745Y02563*
X04745Y02563*
X04746Y02563*
X04746Y02563*
X04746Y02564*
X04746Y02564*
X04746Y02564*
X04746Y02564*
X04747Y02564*
X04747Y02564*
X04747Y02565*
X04747Y02565*
X04747Y02565*
X04747Y02566*
X04747Y02566*
X04747Y02567*
X04748Y02567*
X04748Y02568*
X04748Y02569*
Y02569*
X04748Y02569*
X04748Y02569*
X04748Y02569*
X04748Y0257*
X04748Y0257*
X04749Y02571*
X04749Y02572*
X04749Y02573*
X04749Y02573*
X04749Y02574*
X04749Y02574*
X0475Y02574*
Y02574*
X0475Y02574*
X0475Y02574*
X0475Y02575*
X0475Y02575*
X0475Y02576*
X04751Y02576*
X04751Y02577*
X04752Y02577*
X04752Y02578*
X04752Y02578*
X04752Y02578*
X04753Y02578*
X04753Y02578*
X04754Y02578*
X04754Y02578*
X04755Y02579*
X04756Y02579*
X04756*
X04756*
X04756*
X04756*
X04756Y02579*
G37*
G36*
X04305Y0286D02*
X04305D01*
X04305Y0286*
X04306Y0286*
X04307Y02859*
X04307Y02859*
X04308Y02859*
X04309Y02859*
X04309Y02858*
X04309*
X04309Y02858*
X04309Y02858*
X0431Y02858*
X0431Y02857*
X0431Y02856*
X04311Y02856*
X04311Y02855*
X04311Y02854*
X04308Y02853*
Y02853*
Y02853*
X04308Y02854*
X04308Y02854*
X04308Y02854*
X04307Y02855*
X04307Y02856*
X04307Y02856*
X04307Y02856*
X04307Y02856*
X04306Y02856*
X04306Y02857*
X04306Y02857*
X04305Y02857*
X04305Y02857*
X04304Y02857*
X04304*
X04303Y02857*
X04303Y02857*
X04303Y02857*
X04302Y02857*
X04302Y02857*
X04301Y02857*
X04301Y02856*
X04301Y02856*
X04301Y02856*
X043Y02856*
X043Y02855*
X043Y02855*
X04299Y02854*
X04299Y02853*
Y02853*
X04299Y02853*
X04299Y02853*
X04299Y02853*
X04299Y02853*
X04299Y02853*
X04299Y02852*
X04299Y02852*
X04298Y02852*
X04298Y02851*
X04298Y02851*
X04298Y0285*
X04298Y0285*
X04298Y02849*
X04298Y02848*
Y02848*
X04298Y02848*
X04298Y02848*
X04299Y02848*
X04299Y02849*
X04299Y02849*
X043Y02849*
X043Y0285*
X04301Y0285*
X04301Y0285*
X04301Y0285*
X04301Y0285*
X04302Y02851*
X04302Y02851*
X04303Y02851*
X04304Y02851*
X04304Y02851*
X04304*
X04305Y02851*
X04305Y02851*
X04305Y02851*
X04306Y02851*
X04307Y0285*
X04307Y0285*
X04308Y0285*
X04308Y0285*
X04309Y02849*
X04309Y02849*
X04309Y02849*
X0431Y02849*
X0431Y02849*
X0431Y02848*
X0431Y02848*
X0431Y02848*
X0431Y02848*
X0431Y02847*
X04311Y02847*
X04311Y02847*
X04311Y02846*
X04311Y02846*
X04311Y02845*
X04311Y02845*
X04312Y02844*
X04312Y02843*
X04312Y02843*
Y02843*
Y02843*
Y02843*
Y02842*
X04312Y02842*
Y02842*
X04312Y02841*
X04311Y02841*
X04311Y0284*
X04311Y02839*
X04311Y02838*
Y02838*
X04311Y02838*
X04311Y02838*
X0431Y02838*
X0431Y02838*
X0431Y02837*
X04309Y02837*
X04309Y02836*
X04308Y02836*
X04308Y02835*
X04308Y02835*
X04307Y02835*
X04307Y02835*
X04307Y02835*
X04306Y02834*
X04305Y02834*
X04305Y02834*
X04304Y02834*
X04304*
X04303Y02834*
X04303*
X04303Y02834*
X04302Y02834*
X04302Y02834*
X04302Y02834*
X04301Y02835*
X04301Y02835*
X043Y02835*
X04299Y02835*
X04299Y02836*
X04298Y02836*
X04298Y02836*
X04297Y02837*
X04297Y02837*
X04297Y02837*
X04297Y02837*
X04297Y02838*
X04297Y02838*
X04297Y02838*
X04296Y02839*
X04296Y02839*
X04296Y0284*
X04296Y02841*
X04296Y02841*
X04295Y02842*
X04295Y02843*
X04295Y02844*
X04295Y02845*
X04295Y02846*
Y02846*
Y02846*
Y02847*
Y02847*
Y02847*
X04295Y02848*
X04295Y02848*
X04295Y02849*
X04295Y0285*
X04295Y0285*
X04295Y02851*
X04296Y02852*
X04296Y02853*
X04296Y02854*
X04296Y02855*
X04297Y02856*
X04297Y02856*
X04298Y02857*
X04298Y02857*
X04298Y02857*
X04298Y02857*
X04298Y02857*
X04298Y02858*
X04299Y02858*
X04299Y02858*
X04299Y02858*
X043Y02859*
X043Y02859*
X04301Y02859*
X04301Y02859*
X04302Y0286*
X04303Y0286*
X04303Y0286*
X04304Y0286*
X04304*
X04305Y0286*
G37*
G36*
X04287Y02835D02*
X04284D01*
Y02854*
X04284Y02854*
X04284Y02854*
X04284Y02854*
X04283Y02854*
X04283Y02853*
X04282Y02853*
X04282Y02853*
X04281Y02852*
X04281*
X04281Y02852*
X04281Y02852*
X04281Y02852*
X0428Y02852*
X0428Y02851*
X04279Y02851*
X04279Y02851*
X04278Y02851*
Y02854*
X04278*
X04278Y02854*
X04278Y02854*
X04278Y02854*
X04279Y02854*
X04279Y02854*
X0428Y02854*
X0428Y02855*
X04281Y02855*
X04282Y02856*
X04282Y02856*
X04282Y02857*
X04283Y02857*
X04283Y02857*
X04283Y02857*
X04284Y02858*
X04284Y02858*
X04284Y02859*
X04285Y02859*
X04285Y0286*
X04287*
Y02835*
G37*
G36*
X04263Y0286D02*
X04264D01*
X04265Y0286*
X04265Y0286*
X04266Y02859*
X04267Y02859*
X04267Y02859*
X04268Y02859*
X04268*
X04268Y02859*
X04268Y02859*
X04268Y02859*
X04269Y02859*
X04269Y02858*
X0427Y02858*
X0427Y02857*
X04271Y02857*
X04271Y02857*
X04271Y02856*
X04271Y02856*
X04271Y02856*
X04271Y02855*
X04271Y02854*
X04272Y02854*
X04272Y02853*
Y02853*
Y02853*
Y02853*
X04272Y02852*
Y02852*
X04272Y02852*
X04271Y02851*
X04271Y02851*
X04271Y0285*
X0427Y02849*
X0427Y02849*
X0427Y02848*
X0427Y02848*
X0427Y02848*
X0427Y02848*
X04269Y02848*
X04269Y02848*
X04269Y02848*
X04269Y02847*
X04268Y02847*
X04268Y02847*
X04267Y02847*
X04267Y02847*
X04266Y02846*
X04266Y02846*
X04265Y02846*
X04265Y02846*
X04265Y02846*
X04265Y02846*
X04265Y02846*
X04265Y02846*
X04266Y02845*
X04266Y02845*
X04267Y02845*
X04267Y02845*
X04267Y02845*
X04267Y02844*
X04267Y02844*
X04268Y02843*
X04268Y02843*
X04269Y02842*
X04269Y02841*
X04274Y02835*
X04269*
X04266Y0284*
Y0284*
X04266Y0284*
X04266Y0284*
X04266Y0284*
X04266Y02841*
X04265Y02841*
X04265Y02842*
X04264Y02842*
X04264Y02843*
X04264Y02843*
X04264Y02843*
X04264Y02843*
X04263Y02844*
X04263Y02844*
X04263Y02844*
X04262Y02845*
X04262Y02845*
X04262Y02845*
X04262Y02845*
X04262Y02845*
X04262Y02845*
X04261Y02845*
X04261Y02846*
X0426*
X0426Y02846*
X0426*
X0426Y02846*
X0426Y02846*
X04259*
X04259Y02846*
X04255*
Y02835*
X04251*
Y0286*
X04263*
X04263Y0286*
G37*
G36*
X04311Y02755D02*
X04301D01*
X04299Y02748*
X04299Y02748*
X04299Y02748*
X04299Y02749*
X043Y02749*
X043Y02749*
X043Y02749*
X04301Y02749*
X04301Y0275*
X04302Y0275*
X04303Y0275*
X04304Y0275*
X04304*
X04305Y0275*
X04305Y0275*
X04305Y0275*
X04306Y0275*
X04306Y0275*
X04307Y02749*
X04307Y02749*
X04308Y02749*
X04308Y02749*
X04309Y02748*
X04309Y02748*
X0431Y02748*
X0431Y02748*
X0431Y02748*
X0431Y02747*
X0431Y02747*
X0431Y02747*
X0431Y02747*
X0431Y02747*
X04311Y02746*
X04311Y02746*
X04311Y02745*
X04311Y02745*
X04312Y02744*
X04312Y02744*
X04312Y02743*
X04312Y02743*
X04312Y02742*
Y02742*
Y02742*
Y02742*
X04312Y02741*
X04312Y02741*
X04312Y02741*
X04312Y0274*
X04312Y0274*
X04311Y02739*
X04311Y02738*
X04311Y02737*
X04311Y02737*
X0431Y02736*
X0431Y02736*
X0431Y02736*
X0431Y02736*
X0431Y02736*
X04309Y02735*
X04309Y02735*
X04309Y02735*
X04309Y02735*
X04308Y02734*
X04308Y02734*
X04307Y02734*
X04307Y02734*
X04306Y02733*
X04305Y02733*
X04305Y02733*
X04304Y02733*
X04303Y02733*
X04303*
X04303Y02733*
X04302Y02733*
X04302Y02733*
X04302Y02733*
X04301Y02733*
X043Y02733*
X04299Y02734*
X04299Y02734*
X04299Y02734*
X04298Y02734*
X04298Y02735*
X04298Y02735*
X04298Y02735*
X04297Y02735*
X04297Y02735*
X04297Y02735*
X04297Y02736*
X04297Y02736*
X04297Y02736*
X04296Y02737*
X04296Y02738*
X04295Y02739*
X04295Y02739*
X04295Y0274*
X04298Y0274*
Y0274*
Y0274*
X04298Y0274*
X04299Y0274*
X04299Y02739*
X04299Y02739*
X04299Y02738*
X04299Y02738*
X043Y02737*
X043Y02737*
X043Y02737*
X043Y02736*
X04301Y02736*
X04301Y02736*
X04301Y02736*
X04302Y02736*
X04303Y02735*
X04303Y02735*
X04303*
X04304Y02735*
X04304Y02736*
X04305Y02736*
X04305Y02736*
X04306Y02736*
X04306Y02737*
X04307Y02737*
X04307Y02737*
Y02737*
X04307Y02737*
X04307Y02737*
X04308Y02738*
X04308Y02738*
X04308Y02739*
X04308Y0274*
X04308Y02741*
X04309Y02742*
Y02742*
Y02742*
Y02742*
X04309Y02742*
Y02742*
X04308Y02743*
X04308Y02743*
X04308Y02744*
X04308Y02744*
X04308Y02745*
X04307Y02746*
X04307Y02746*
X04307Y02746*
X04306Y02746*
X04306Y02747*
X04305Y02747*
X04305Y02747*
X04304Y02747*
X04303Y02747*
X04303*
X04303Y02747*
X04302Y02747*
X04302Y02747*
X04301Y02747*
X04301Y02747*
X043Y02747*
X043Y02747*
X043Y02746*
X043Y02746*
X043Y02746*
X043Y02746*
X04299Y02746*
X04299Y02745*
X04299Y02745*
X04296Y02745*
X04298Y02758*
X04311*
Y02755*
G37*
G36*
X04287Y02733D02*
X04284D01*
Y02753*
X04284Y02753*
X04284Y02753*
X04284Y02753*
X04283Y02752*
X04283Y02752*
X04282Y02752*
X04282Y02751*
X04281Y02751*
X04281*
X04281Y02751*
X04281Y02751*
X04281Y02751*
X0428Y0275*
X0428Y0275*
X04279Y0275*
X04279Y0275*
X04278Y02749*
Y02752*
X04278*
X04278Y02752*
X04278Y02752*
X04278Y02753*
X04279Y02753*
X04279Y02753*
X0428Y02753*
X0428Y02754*
X04281Y02754*
X04282Y02755*
X04282Y02755*
X04282Y02755*
X04283Y02755*
X04283Y02756*
X04283Y02756*
X04284Y02756*
X04284Y02757*
X04284Y02757*
X04285Y02758*
X04285Y02759*
X04287*
Y02733*
G37*
G36*
X04263Y02759D02*
X04264D01*
X04265Y02758*
X04265Y02758*
X04266Y02758*
X04267Y02758*
X04267Y02758*
X04268Y02758*
X04268*
X04268Y02758*
X04268Y02758*
X04268Y02758*
X04269Y02757*
X04269Y02757*
X0427Y02757*
X0427Y02756*
X04271Y02755*
X04271Y02755*
X04271Y02755*
X04271Y02755*
X04271Y02754*
X04271Y02754*
X04271Y02753*
X04272Y02752*
X04272Y02752*
Y02752*
Y02752*
Y02751*
X04272Y02751*
Y02751*
X04272Y02751*
X04271Y0275*
X04271Y02749*
X04271Y02749*
X0427Y02748*
X0427Y02747*
X0427Y02747*
X0427Y02747*
X0427Y02747*
X0427Y02747*
X04269Y02747*
X04269Y02747*
X04269Y02746*
X04269Y02746*
X04268Y02746*
X04268Y02746*
X04267Y02746*
X04267Y02745*
X04266Y02745*
X04266Y02745*
X04265Y02745*
X04265Y02745*
X04265Y02745*
X04265Y02745*
X04265Y02745*
X04265Y02744*
X04266Y02744*
X04266Y02744*
X04267Y02744*
X04267Y02743*
X04267Y02743*
X04267Y02743*
X04267Y02743*
X04268Y02742*
X04268Y02742*
X04269Y02741*
X04269Y0274*
X04274Y02733*
X04269*
X04266Y02739*
Y02739*
X04266Y02739*
X04266Y02739*
X04266Y02739*
X04266Y02739*
X04265Y0274*
X04265Y0274*
X04264Y02741*
X04264Y02742*
X04264Y02742*
X04264Y02742*
X04264Y02742*
X04263Y02742*
X04263Y02743*
X04263Y02743*
X04262Y02744*
X04262Y02744*
X04262Y02744*
X04262Y02744*
X04262Y02744*
X04262Y02744*
X04261Y02744*
X04261Y02744*
X0426*
X0426Y02744*
X0426*
X0426Y02744*
X0426Y02745*
X04259*
X04259Y02745*
X04255*
Y02733*
X04251*
Y02759*
X04263*
X04263Y02759*
G37*
G36*
X04308Y02641D02*
X04312D01*
Y02638*
X04308*
Y02632*
X04305*
Y02638*
X04294*
Y02641*
X04306Y02657*
X04308*
Y02641*
G37*
G36*
X04287Y02632D02*
X04284D01*
Y02651*
X04284Y02651*
X04284Y02651*
X04284Y02651*
X04283Y02651*
X04283Y0265*
X04282Y0265*
X04282Y0265*
X04281Y02649*
X04281*
X04281Y02649*
X04281Y02649*
X04281Y02649*
X0428Y02649*
X0428Y02648*
X04279Y02648*
X04279Y02648*
X04278Y02648*
Y02651*
X04278*
X04278Y02651*
X04278Y02651*
X04278Y02651*
X04279Y02651*
X04279Y02651*
X0428Y02651*
X0428Y02652*
X04281Y02652*
X04282Y02653*
X04282Y02654*
X04282Y02654*
X04283Y02654*
X04283Y02654*
X04283Y02654*
X04284Y02655*
X04284Y02655*
X04284Y02656*
X04285Y02656*
X04285Y02657*
X04287*
Y02632*
G37*
G36*
X04263Y02657D02*
X04264D01*
X04265Y02657*
X04265Y02657*
X04266Y02657*
X04267Y02656*
X04267Y02656*
X04268Y02656*
X04268*
X04268Y02656*
X04268Y02656*
X04268Y02656*
X04269Y02656*
X04269Y02655*
X0427Y02655*
X0427Y02654*
X04271Y02654*
X04271Y02654*
X04271Y02653*
X04271Y02653*
X04271Y02653*
X04271Y02652*
X04271Y02651*
X04272Y02651*
X04272Y0265*
Y0265*
Y0265*
Y0265*
X04272Y0265*
Y02649*
X04272Y02649*
X04271Y02648*
X04271Y02648*
X04271Y02647*
X0427Y02646*
X0427Y02646*
X0427Y02645*
X0427Y02645*
X0427Y02645*
X0427Y02645*
X04269Y02645*
X04269Y02645*
X04269Y02645*
X04269Y02644*
X04268Y02644*
X04268Y02644*
X04267Y02644*
X04267Y02644*
X04266Y02644*
X04266Y02643*
X04265Y02643*
X04265Y02643*
X04265Y02643*
X04265Y02643*
X04265Y02643*
X04265Y02643*
X04266Y02642*
X04266Y02642*
X04267Y02642*
X04267Y02642*
X04267Y02642*
X04267Y02641*
X04267Y02641*
X04268Y0264*
X04268Y0264*
X04269Y02639*
X04269Y02639*
X04274Y02632*
X04269*
X04266Y02637*
Y02637*
X04266Y02637*
X04266Y02637*
X04266Y02637*
X04266Y02638*
X04265Y02638*
X04265Y02639*
X04264Y02639*
X04264Y0264*
X04264Y0264*
X04264Y0264*
X04264Y02641*
X04263Y02641*
X04263Y02641*
X04263Y02642*
X04262Y02642*
X04262Y02642*
X04262Y02642*
X04262Y02642*
X04262Y02642*
X04262Y02642*
X04261Y02643*
X04261Y02643*
X0426*
X0426Y02643*
X0426*
X0426Y02643*
X0426Y02643*
X04259*
X04259Y02643*
X04255*
Y02632*
X04251*
Y02657*
X04263*
X04263Y02657*
G37*
G36*
X04304Y02556D02*
X04304Y02556D01*
X04305Y02556*
X04306Y02556*
X04306Y02556*
X04307Y02555*
X04307*
X04307Y02555*
X04307Y02555*
X04307Y02555*
X04308Y02555*
X04308Y02554*
X04309Y02554*
X04309Y02553*
X0431Y02553*
X0431Y02553*
X0431Y02553*
X0431Y02552*
X0431Y02552*
X0431Y02551*
X0431Y02551*
X0431Y0255*
X0431Y0255*
Y0255*
Y02549*
X0431Y02549*
X0431Y02549*
X0431Y02548*
X0431Y02548*
X0431Y02547*
X0431Y02547*
X0431Y02547*
X04309Y02546*
X04309Y02546*
X04309Y02546*
X04309Y02546*
X04308Y02545*
X04308Y02545*
X04307Y02545*
X04307*
X04307Y02544*
X04307*
X04307Y02544*
X04308Y02544*
X04308Y02544*
X04309Y02544*
X04309Y02543*
X0431Y02543*
X0431Y02542*
X0431Y02542*
X04311Y02542*
X04311Y02542*
X04311Y02541*
X04311Y02541*
X04311Y0254*
X04312Y02539*
X04312Y02538*
Y02538*
Y02538*
Y02538*
X04312Y02538*
X04312Y02537*
X04312Y02537*
X04311Y02537*
X04311Y02536*
X04311Y02536*
X04311Y02535*
X04311Y02535*
X0431Y02534*
X0431Y02534*
X0431Y02533*
X04309Y02533*
X04309Y02533*
X04309Y02533*
X04309Y02533*
X04309Y02532*
X04309Y02532*
X04308Y02532*
X04308Y02532*
X04308Y02532*
X04307Y02531*
X04307Y02531*
X04306Y02531*
X04306Y02531*
X04305Y02531*
X04304Y02531*
X04304Y0253*
X04303Y0253*
X04303*
X04303Y0253*
X04302Y02531*
X04302Y02531*
X04302Y02531*
X04301Y02531*
X043Y02531*
X04299Y02531*
X04299Y02531*
X04299Y02532*
X04298Y02532*
X04298Y02532*
X04298Y02532*
X04298Y02532*
X04298Y02533*
X04297Y02533*
X04297Y02533*
X04297Y02533*
X04297Y02533*
X04297Y02534*
X04296Y02535*
X04296Y02535*
X04295Y02536*
X04295Y02537*
X04295Y02538*
X04298Y02538*
Y02538*
X04298Y02538*
Y02538*
X04298Y02538*
X04299Y02537*
X04299Y02537*
X04299Y02536*
X04299Y02535*
X043Y02535*
X043Y02534*
X043Y02534*
X043Y02534*
X04301Y02534*
X04301Y02534*
X04301Y02533*
X04302Y02533*
X04303Y02533*
X04303Y02533*
X04303*
X04304Y02533*
X04304Y02533*
X04304Y02533*
X04305Y02533*
X04306Y02534*
X04306Y02534*
X04307Y02535*
X04307Y02535*
X04307Y02535*
X04307Y02535*
X04308Y02536*
X04308Y02536*
X04308Y02537*
X04308Y02537*
X04308Y02538*
Y02538*
Y02538*
Y02538*
X04308Y02539*
X04308Y02539*
X04308Y02539*
X04308Y0254*
X04308Y02541*
X04307Y02541*
X04307Y02542*
X04307Y02542*
X04307Y02542*
X04306Y02542*
X04306Y02542*
X04305Y02543*
X04305Y02543*
X04304Y02543*
X04303Y02543*
X04303*
X04303Y02543*
X04303Y02543*
X04302Y02543*
X04302Y02543*
X04301Y02543*
X04302Y02546*
X04302*
X04302Y02546*
X04302*
X04303Y02546*
X04303Y02546*
X04304Y02546*
X04304Y02546*
X04305Y02546*
X04306Y02547*
X04306Y02547*
X04306Y02547*
X04306Y02547*
X04306Y02547*
X04307Y02548*
X04307Y02548*
X04307Y02549*
X04307Y0255*
Y0255*
Y0255*
Y0255*
X04307Y0255*
X04307Y02551*
X04307Y02551*
X04307Y02552*
X04306Y02552*
X04306Y02553*
X04306Y02553*
X04306Y02553*
X04306Y02553*
X04305Y02553*
X04305Y02553*
X04304Y02553*
X04304Y02554*
X04303Y02554*
X04303*
X04303Y02554*
X04302Y02554*
X04302Y02553*
X04301Y02553*
X04301Y02553*
X043Y02553*
X043Y02552*
X043Y02552*
X043Y02552*
X043Y02552*
X04299Y02551*
X04299Y02551*
X04299Y0255*
X04299Y02549*
X04296Y0255*
Y0255*
X04296Y0255*
X04296Y0255*
X04296Y0255*
X04296Y0255*
X04296Y02551*
X04296Y02551*
X04296Y02552*
X04297Y02553*
X04297Y02554*
X04298Y02554*
X04298Y02555*
X04298Y02555*
X04298Y02555*
X04298Y02555*
X04299Y02555*
X04299Y02555*
X04299Y02555*
X043Y02556*
X04301Y02556*
X04302Y02556*
X04303Y02556*
X04303*
X04304Y02556*
G37*
G36*
X04287Y02531D02*
X04284D01*
Y02551*
X04284Y02551*
X04284Y0255*
X04284Y0255*
X04283Y0255*
X04283Y0255*
X04282Y02549*
X04282Y02549*
X04281Y02548*
X04281*
X04281Y02548*
X04281Y02548*
X04281Y02548*
X0428Y02548*
X0428Y02548*
X04279Y02547*
X04279Y02547*
X04278Y02547*
Y0255*
X04278*
X04278Y0255*
X04278Y0255*
X04278Y0255*
X04279Y0255*
X04279Y0255*
X0428Y02551*
X0428Y02551*
X04281Y02552*
X04282Y02552*
X04282Y02553*
X04282Y02553*
X04283Y02553*
X04283Y02553*
X04283Y02553*
X04284Y02554*
X04284Y02554*
X04284Y02555*
X04285Y02556*
X04285Y02556*
X04287*
Y02531*
G37*
G36*
X04263Y02556D02*
X04264D01*
X04265Y02556*
X04265Y02556*
X04266Y02556*
X04267Y02556*
X04267Y02556*
X04268Y02555*
X04268*
X04268Y02555*
X04268Y02555*
X04268Y02555*
X04269Y02555*
X04269Y02555*
X0427Y02554*
X0427Y02554*
X04271Y02553*
X04271Y02553*
X04271Y02553*
X04271Y02552*
X04271Y02552*
X04271Y02551*
X04271Y02551*
X04272Y0255*
X04272Y02549*
Y02549*
Y02549*
Y02549*
X04272Y02549*
Y02548*
X04272Y02548*
X04271Y02548*
X04271Y02547*
X04271Y02546*
X0427Y02545*
X0427Y02545*
X0427Y02545*
X0427Y02545*
X0427Y02544*
X0427Y02544*
X04269Y02544*
X04269Y02544*
X04269Y02544*
X04269Y02544*
X04268Y02543*
X04268Y02543*
X04267Y02543*
X04267Y02543*
X04266Y02543*
X04266Y02543*
X04265Y02542*
X04265Y02542*
X04265Y02542*
X04265Y02542*
X04265Y02542*
X04265Y02542*
X04266Y02542*
X04266Y02541*
X04267Y02541*
X04267Y02541*
X04267Y02541*
X04267Y02541*
X04267Y0254*
X04268Y0254*
X04268Y02539*
X04269Y02538*
X04269Y02538*
X04274Y02531*
X04269*
X04266Y02536*
Y02536*
X04266Y02536*
X04266Y02536*
X04266Y02536*
X04266Y02537*
X04265Y02537*
X04265Y02538*
X04264Y02538*
X04264Y02539*
X04264Y0254*
X04264Y0254*
X04264Y0254*
X04263Y0254*
X04263Y0254*
X04263Y02541*
X04262Y02541*
X04262Y02541*
X04262Y02541*
X04262Y02541*
X04262Y02541*
X04262Y02541*
X04261Y02542*
X04261Y02542*
X0426*
X0426Y02542*
X0426*
X0426Y02542*
X0426Y02542*
X04259*
X04259Y02542*
X04255*
Y02531*
X04251*
Y02556*
X04263*
X04263Y02556*
G37*
G36*
X04304Y02455D02*
X04304Y02454D01*
X04305Y02454*
X04305Y02454*
X04306Y02454*
X04306Y02454*
X04307Y02454*
X04308Y02453*
X04308Y02453*
X04309Y02453*
X04309Y02453*
X04309Y02452*
X04309Y02452*
X04309Y02452*
X0431Y02452*
X0431Y02452*
X0431Y02452*
X0431Y02451*
X04311Y0245*
X04311Y0245*
X04311Y02449*
X04311Y02448*
X04311Y02448*
Y02447*
Y02447*
X04311Y02447*
X04311Y02447*
X04311Y02446*
X04311Y02446*
X04311Y02445*
X04311Y02445*
X04311Y02444*
X04311Y02444*
X0431Y02444*
X0431Y02444*
X0431Y02443*
X0431Y02443*
X04309Y02442*
X04309Y02441*
X04309Y02441*
X04308Y02441*
X04308Y02441*
X04308Y02441*
X04308Y0244*
X04307Y0244*
X04307Y0244*
X04306Y02439*
X04306Y02439*
X04306Y02438*
X04305Y02438*
X04305Y02438*
X04304Y02437*
X04304Y02437*
X04304Y02437*
X04304Y02437*
X04303Y02437*
X04303Y02436*
X04302Y02436*
X04302Y02435*
X04301Y02435*
X04301Y02434*
X04301Y02434*
X043Y02434*
X043Y02434*
X043Y02434*
X043Y02433*
X043Y02433*
X04299Y02433*
X04299Y02432*
X04311*
Y02429*
X04295*
Y02429*
Y02429*
Y0243*
X04295Y0243*
X04295Y0243*
X04295Y02431*
X04295Y02431*
X04295Y02431*
Y02431*
X04295Y02431*
X04295Y02432*
X04295Y02432*
X04296Y02432*
X04296Y02433*
X04296Y02433*
X04297Y02434*
X04297Y02435*
Y02435*
X04297Y02435*
X04297Y02435*
X04298Y02435*
X04298Y02436*
X04299Y02436*
X04299Y02437*
X043Y02438*
X04301Y02438*
X04301Y02439*
X04301Y02439*
X04302Y02439*
X04302Y02439*
X04302Y02439*
X04303Y0244*
X04303Y0244*
X04304Y02441*
X04305Y02442*
X04306Y02443*
X04306Y02443*
X04306Y02443*
X04307Y02444*
Y02444*
X04307Y02444*
X04307Y02444*
X04307Y02444*
X04307Y02445*
X04307Y02445*
X04308Y02446*
X04308Y02446*
X04308Y02447*
X04308Y02448*
Y02448*
Y02448*
X04308Y02448*
X04308Y02448*
X04308Y02449*
X04308Y02449*
X04308Y0245*
X04307Y0245*
X04307Y02451*
X04307Y02451*
X04307Y02451*
X04306Y02451*
X04306Y02451*
X04305Y02452*
X04305Y02452*
X04304Y02452*
X04303Y02452*
X04303*
X04303Y02452*
X04303Y02452*
X04302Y02452*
X04302Y02452*
X04301Y02451*
X043Y02451*
X043Y02451*
X043Y02451*
X043Y0245*
X04299Y0245*
X04299Y0245*
X04299Y02449*
X04299Y02448*
X04299Y02448*
X04299Y02447*
X04295Y02447*
Y02447*
Y02447*
X04295Y02448*
X04295Y02448*
X04295Y02448*
X04296Y02448*
X04296Y02449*
X04296Y0245*
X04296Y02451*
X04297Y02452*
X04297Y02452*
X04298Y02453*
X04298Y02453*
X04298Y02453*
X04298Y02453*
X04298Y02453*
X04298Y02453*
X04299Y02453*
X04299Y02453*
X04299Y02454*
X043Y02454*
X043Y02454*
X04301Y02454*
X04301Y02454*
X04302Y02454*
X04303Y02455*
X04304Y02455*
X04304*
X04304Y02455*
G37*
G36*
X04287Y02429D02*
X04284D01*
Y02449*
X04284Y02449*
X04284Y02449*
X04284Y02449*
X04283Y02448*
X04283Y02448*
X04282Y02448*
X04282Y02447*
X04281Y02447*
X04281*
X04281Y02447*
X04281Y02447*
X04281Y02446*
X0428Y02446*
X0428Y02446*
X04279Y02446*
X04279Y02445*
X04278Y02445*
Y02448*
X04278*
X04278Y02448*
X04278Y02448*
X04278Y02448*
X04279Y02449*
X04279Y02449*
X0428Y02449*
X0428Y02449*
X04281Y0245*
X04282Y02451*
X04282Y02451*
X04282Y02451*
X04283Y02451*
X04283Y02451*
X04283Y02452*
X04284Y02452*
X04284Y02453*
X04284Y02453*
X04285Y02454*
X04285Y02455*
X04287*
Y02429*
G37*
G36*
X04263Y02454D02*
X04264D01*
X04265Y02454*
X04265Y02454*
X04266Y02454*
X04267Y02454*
X04267Y02454*
X04268Y02454*
X04268*
X04268Y02454*
X04268Y02454*
X04268Y02453*
X04269Y02453*
X04269Y02453*
X0427Y02452*
X0427Y02452*
X04271Y02451*
X04271Y02451*
X04271Y02451*
X04271Y02451*
X04271Y0245*
X04271Y0245*
X04271Y02449*
X04272Y02448*
X04272Y02448*
Y02447*
Y02447*
Y02447*
X04272Y02447*
Y02447*
X04272Y02447*
X04271Y02446*
X04271Y02445*
X04271Y02444*
X0427Y02444*
X0427Y02443*
X0427Y02443*
X0427Y02443*
X0427Y02443*
X0427Y02443*
X04269Y02443*
X04269Y02442*
X04269Y02442*
X04269Y02442*
X04268Y02442*
X04268Y02442*
X04267Y02441*
X04267Y02441*
X04266Y02441*
X04266Y02441*
X04265Y02441*
X04265Y02441*
X04265Y02441*
X04265Y02441*
X04265Y0244*
X04265Y0244*
X04266Y0244*
X04266Y0244*
X04267Y02439*
X04267Y02439*
X04267Y02439*
X04267Y02439*
X04267Y02438*
X04268Y02438*
X04268Y02437*
X04269Y02437*
X04269Y02436*
X04274Y02429*
X04269*
X04266Y02434*
Y02434*
X04266Y02435*
X04266Y02435*
X04266Y02435*
X04266Y02435*
X04265Y02436*
X04265Y02436*
X04264Y02437*
X04264Y02437*
X04264Y02438*
X04264Y02438*
X04264Y02438*
X04263Y02438*
X04263Y02439*
X04263Y02439*
X04262Y02439*
X04262Y0244*
X04262Y0244*
X04262Y0244*
X04262Y0244*
X04262Y0244*
X04261Y0244*
X04261Y0244*
X0426*
X0426Y0244*
X0426*
X0426Y0244*
X0426Y0244*
X04259*
X04259Y0244*
X04255*
Y02429*
X04251*
Y02454*
X04263*
X04263Y02454*
G37*
G36*
X04307Y02328D02*
X04304D01*
Y02348*
X04304Y02348*
X04304Y02348*
X04303Y02347*
X04303Y02347*
X04303Y02347*
X04302Y02346*
X04301Y02346*
X04301Y02346*
X04301*
X04301Y02346*
X043Y02345*
X043Y02345*
X043Y02345*
X04299Y02345*
X04299Y02344*
X04298Y02344*
X04298Y02344*
Y02347*
X04298*
X04298Y02347*
X04298Y02347*
X04298Y02347*
X04298Y02347*
X04298Y02347*
X04299Y02348*
X043Y02348*
X04301Y02349*
X04301Y02349*
X04302Y0235*
X04302Y0235*
X04302Y0235*
X04302Y0235*
X04303Y02351*
X04303Y02351*
X04304Y02351*
X04304Y02352*
X04304Y02353*
X04305Y02353*
X04307*
Y02328*
G37*
G36*
X04287D02*
X04284D01*
Y02348*
X04284Y02348*
X04284Y02348*
X04284Y02347*
X04283Y02347*
X04283Y02347*
X04282Y02346*
X04282Y02346*
X04281Y02346*
X04281*
X04281Y02346*
X04281Y02345*
X04281Y02345*
X0428Y02345*
X0428Y02345*
X04279Y02344*
X04279Y02344*
X04278Y02344*
Y02347*
X04278*
X04278Y02347*
X04278Y02347*
X04278Y02347*
X04279Y02347*
X04279Y02347*
X0428Y02348*
X0428Y02348*
X04281Y02349*
X04282Y02349*
X04282Y0235*
X04282Y0235*
X04283Y0235*
X04283Y0235*
X04283Y02351*
X04284Y02351*
X04284Y02351*
X04284Y02352*
X04285Y02353*
X04285Y02353*
X04287*
Y02328*
G37*
G36*
X04263Y02353D02*
X04264D01*
X04265Y02353*
X04265Y02353*
X04266Y02353*
X04267Y02353*
X04267Y02353*
X04268Y02352*
X04268*
X04268Y02352*
X04268Y02352*
X04268Y02352*
X04269Y02352*
X04269Y02352*
X0427Y02351*
X0427Y02351*
X04271Y0235*
X04271Y0235*
X04271Y0235*
X04271Y02349*
X04271Y02349*
X04271Y02348*
X04271Y02348*
X04272Y02347*
X04272Y02346*
Y02346*
Y02346*
Y02346*
X04272Y02346*
Y02346*
X04272Y02345*
X04271Y02345*
X04271Y02344*
X04271Y02343*
X0427Y02342*
X0427Y02342*
X0427Y02342*
X0427Y02342*
X0427Y02342*
X0427Y02341*
X04269Y02341*
X04269Y02341*
X04269Y02341*
X04269Y02341*
X04268Y02341*
X04268Y0234*
X04267Y0234*
X04267Y0234*
X04266Y0234*
X04266Y0234*
X04265Y0234*
X04265Y02339*
X04265Y02339*
X04265Y02339*
X04265Y02339*
X04265Y02339*
X04266Y02339*
X04266Y02338*
X04267Y02338*
X04267Y02338*
X04267Y02338*
X04267Y02338*
X04267Y02337*
X04268Y02337*
X04268Y02336*
X04269Y02336*
X04269Y02335*
X04274Y02328*
X04269*
X04266Y02333*
Y02333*
X04266Y02333*
X04266Y02333*
X04266Y02334*
X04266Y02334*
X04265Y02334*
X04265Y02335*
X04264Y02336*
X04264Y02336*
X04264Y02337*
X04264Y02337*
X04264Y02337*
X04263Y02337*
X04263Y02337*
X04263Y02338*
X04262Y02338*
X04262Y02338*
X04262Y02338*
X04262Y02338*
X04262Y02338*
X04262Y02339*
X04261Y02339*
X04261Y02339*
X0426*
X0426Y02339*
X0426*
X0426Y02339*
X0426Y02339*
X04259*
X04259Y02339*
X04255*
Y02328*
X04251*
Y02353*
X04263*
X04263Y02353*
G37*
G36*
X04287Y02227D02*
X04284D01*
Y02247*
X04284Y02247*
X04284Y02247*
X04284Y02246*
X04283Y02246*
X04283Y02246*
X04282Y02246*
X04282Y02245*
X04281Y02245*
X04281*
X04281Y02245*
X04281Y02245*
X04281Y02244*
X0428Y02244*
X0428Y02244*
X04279Y02244*
X04279Y02243*
X04278Y02243*
Y02246*
X04278*
X04278Y02246*
X04278Y02246*
X04278Y02246*
X04279Y02246*
X04279Y02247*
X0428Y02247*
X0428Y02247*
X04281Y02248*
X04282Y02248*
X04282Y02249*
X04282Y02249*
X04283Y02249*
X04283Y02249*
X04283Y0225*
X04284Y0225*
X04284Y02251*
X04284Y02251*
X04285Y02252*
X04285Y02252*
X04287*
Y02227*
G37*
G36*
X04263Y02252D02*
X04264D01*
X04265Y02252*
X04265Y02252*
X04266Y02252*
X04267Y02252*
X04267Y02252*
X04268Y02252*
X04268*
X04268Y02252*
X04268Y02252*
X04268Y02251*
X04269Y02251*
X04269Y02251*
X0427Y0225*
X0427Y0225*
X04271Y02249*
X04271Y02249*
X04271Y02249*
X04271Y02249*
X04271Y02248*
X04271Y02248*
X04271Y02247*
X04272Y02246*
X04272Y02245*
Y02245*
Y02245*
Y02245*
X04272Y02245*
Y02245*
X04272Y02245*
X04271Y02244*
X04271Y02243*
X04271Y02242*
X0427Y02242*
X0427Y02241*
X0427Y02241*
X0427Y02241*
X0427Y02241*
X0427Y02241*
X04269Y02241*
X04269Y0224*
X04269Y0224*
X04269Y0224*
X04268Y0224*
X04268Y0224*
X04267Y02239*
X04267Y02239*
X04266Y02239*
X04266Y02239*
X04265Y02239*
X04265Y02239*
X04265Y02239*
X04265Y02239*
X04265Y02238*
X04265Y02238*
X04266Y02238*
X04266Y02238*
X04267Y02237*
X04267Y02237*
X04267Y02237*
X04267Y02237*
X04267Y02236*
X04268Y02236*
X04268Y02235*
X04269Y02235*
X04269Y02234*
X04274Y02227*
X04269*
X04266Y02232*
Y02232*
X04266Y02232*
X04266Y02233*
X04266Y02233*
X04266Y02233*
X04265Y02234*
X04265Y02234*
X04264Y02235*
X04264Y02235*
X04264Y02236*
X04264Y02236*
X04264Y02236*
X04263Y02236*
X04263Y02237*
X04263Y02237*
X04262Y02237*
X04262Y02238*
X04262Y02238*
X04262Y02238*
X04262Y02238*
X04262Y02238*
X04261Y02238*
X04261Y02238*
X0426*
X0426Y02238*
X0426*
X0426Y02238*
X0426Y02238*
X04259*
X04259Y02238*
X04255*
Y02227*
X04251*
Y02252*
X04263*
X04263Y02252*
G37*
G36*
X04304Y02252D02*
X04305Y02252D01*
X04305Y02252*
X04306Y02252*
X04306Y02252*
X04307Y02252*
X04307Y02252*
X04307Y02251*
X04307Y02251*
X04308Y02251*
X04308Y02251*
X04309Y0225*
X04309Y0225*
X04309Y02249*
X04309Y02249*
X0431Y02249*
X0431Y02249*
X0431Y02248*
X0431Y02248*
X04311Y02247*
X04311Y02246*
X04311Y02246*
Y02245*
X04311Y02245*
Y02245*
X04311Y02245*
X04311Y02245*
X04311Y02245*
X04311Y02244*
X04311Y02244*
X04311Y02244*
X04311Y02243*
X04311Y02243*
X04312Y02242*
X04312Y02242*
Y02241*
X04312Y0224*
Y0224*
Y02239*
Y02239*
Y02239*
X04312Y02238*
Y02238*
X04312Y02238*
X04311Y02237*
X04311Y02236*
X04311Y02235*
X04311Y02233*
X04311Y02233*
X04311Y02232*
Y02232*
X04311Y02232*
X04311Y02232*
X04311Y02232*
X0431Y02232*
X0431Y02231*
X0431Y02231*
X0431Y0223*
X04309Y02229*
X04309Y02229*
X04308Y02228*
X04308*
X04308Y02228*
X04308Y02228*
X04308Y02228*
X04307Y02228*
X04307Y02227*
X04306Y02227*
X04305Y02227*
X04304Y02227*
X04303Y02227*
X04303*
X04303Y02227*
X04302Y02227*
X04302Y02227*
X04302Y02227*
X04301Y02227*
X043Y02227*
X043Y02228*
X04299Y02228*
X04299Y02228*
X04298Y02228*
X04298Y02229*
X04298Y02229*
X04298Y02229*
X04298Y02229*
X04297Y0223*
X04297Y0223*
X04297Y0223*
X04297Y02231*
X04297Y02231*
X04296Y02232*
X04296Y02232*
X04296Y02233*
X04296Y02234*
X04296Y02235*
X04295Y02236*
X04295Y02237*
X04295Y02238*
X04295Y0224*
Y0224*
Y0224*
Y0224*
Y0224*
X04295Y02241*
Y02241*
X04295Y02242*
X04295Y02242*
X04295Y02243*
X04296Y02245*
X04296Y02246*
X04296Y02246*
X04296Y02247*
Y02247*
X04296Y02247*
X04296Y02247*
X04296Y02247*
X04296Y02247*
X04296Y02248*
X04297Y02248*
X04297Y02249*
X04298Y0225*
X04298Y0225*
X04299Y02251*
X04299*
X04299Y02251*
X04299Y02251*
X04299Y02251*
X043Y02251*
X043Y02252*
X04301Y02252*
X04302Y02252*
X04302Y02252*
X04303Y02252*
X04304*
X04304Y02252*
G37*
G36*
X04284Y02151D02*
X04284D01*
X04284Y02151*
X04285Y02151*
X04286Y02151*
X04286Y02151*
X04287Y0215*
X04288Y0215*
X04288*
X04288Y0215*
X04288Y0215*
X04288Y0215*
X04289Y02149*
X04289Y02149*
X0429Y02148*
X0429Y02148*
X04291Y02147*
X04291Y02146*
Y02146*
X04291Y02146*
X04291Y02146*
X04291Y02146*
X04291Y02145*
X04291Y02145*
X04292Y02145*
X04292Y02144*
X04292Y02144*
X04292Y02143*
X04292Y02143*
X04292Y02142*
X04292Y02141*
X04292Y02141*
X04292Y0214*
Y02139*
Y02139*
Y02139*
Y02139*
Y02138*
X04292Y02138*
Y02137*
X04292Y02137*
X04292Y02136*
X04292Y02135*
X04292Y02134*
X04291Y02132*
X04291Y02132*
X04291Y02131*
Y02131*
X04291Y02131*
X04291Y02131*
X04291Y02131*
X04291Y02131*
X04291Y0213*
X0429Y0213*
X0429Y02129*
X04289Y02128*
X04289Y02128*
X04288Y02127*
X04288*
X04288Y02127*
X04288Y02127*
X04288Y02127*
X04287Y02127*
X04287Y02126*
X04287Y02126*
X04286Y02126*
X04285Y02126*
X04284Y02126*
X04283Y02125*
X04283*
X04283Y02126*
X04282*
X04282Y02126*
X04281Y02126*
X04281Y02126*
X0428Y02126*
X04279Y02127*
X04278Y02127*
X04278Y02127*
X04278Y02127*
X04278Y02127*
X04278Y02128*
X04277Y02128*
X04277Y02129*
X04277Y0213*
X04276Y02131*
X04276Y02132*
X04279Y02132*
Y02132*
Y02132*
X04279Y02132*
X04279Y02132*
X04279Y02131*
X04279Y02131*
X0428Y0213*
X0428Y0213*
X0428Y02129*
X0428Y02129*
X0428Y02129*
X04281Y02129*
X04281Y02129*
X04281Y02128*
X04282Y02128*
X04282Y02128*
X04283Y02128*
X04283Y02128*
X04283*
X04284Y02128*
X04284Y02128*
X04284Y02128*
X04285Y02128*
X04285Y02128*
X04286Y02129*
X04286Y02129*
X04286Y02129*
X04286Y02129*
X04286Y02129*
X04287Y02129*
X04287Y0213*
X04287Y0213*
X04287Y0213*
X04287Y0213*
X04288Y02131*
X04288Y02131*
X04288Y02131*
X04288Y02132*
X04288Y02132*
X04288Y02133*
X04289Y02133*
Y02133*
X04289Y02133*
Y02134*
X04289Y02134*
X04289Y02134*
X04289Y02135*
X04289Y02135*
X04289Y02136*
X04289Y02136*
Y02137*
Y02137*
Y02137*
Y02138*
Y02138*
X04289Y02138*
X04289Y02138*
X04289Y02137*
X04288Y02137*
X04288Y02137*
X04288Y02136*
X04287Y02136*
X04286Y02135*
X04286Y02135*
X04286Y02135*
X04286Y02135*
X04285Y02135*
X04285Y02135*
X04284Y02135*
X04284Y02135*
X04283Y02134*
X04283*
X04282Y02135*
X04282Y02135*
X04282Y02135*
X04281Y02135*
X0428Y02135*
X0428Y02135*
X04279Y02135*
X04279Y02136*
X04279Y02136*
X04278Y02136*
X04278Y02137*
X04278Y02137*
X04278Y02137*
X04278Y02137*
X04277Y02137*
X04277Y02137*
X04277Y02138*
X04277Y02138*
X04277Y02138*
X04276Y02139*
X04276Y02139*
X04276Y0214*
X04276Y0214*
X04276Y02141*
X04276Y02141*
X04276Y02142*
X04276Y02143*
Y02143*
Y02143*
Y02143*
X04276Y02143*
X04276Y02144*
X04276Y02144*
X04276Y02144*
X04276Y02145*
X04276Y02146*
X04276Y02146*
X04277Y02147*
X04277Y02147*
X04277Y02148*
X04277Y02148*
X04278Y02149*
X04278Y02149*
X04278Y02149*
X04278Y02149*
X04278Y02149*
X04278Y02149*
X04279Y0215*
X04279Y0215*
X04279Y0215*
X0428Y0215*
X0428Y02151*
X04281Y02151*
X04282Y02151*
X04282Y02151*
X04283Y02151*
X04283Y02151*
X04284*
X04284Y02151*
G37*
G36*
X04263Y02151D02*
X04264D01*
X04265Y02151*
X04265Y02151*
X04266Y02151*
X04267Y02151*
X04267Y02151*
X04268Y0215*
X04268*
X04268Y0215*
X04268Y0215*
X04268Y0215*
X04269Y0215*
X04269Y0215*
X0427Y02149*
X0427Y02149*
X04271Y02148*
X04271Y02148*
X04271Y02148*
X04271Y02147*
X04271Y02147*
X04271Y02146*
X04271Y02146*
X04272Y02145*
X04272Y02144*
Y02144*
Y02144*
Y02144*
X04272Y02144*
Y02144*
X04272Y02143*
X04271Y02143*
X04271Y02142*
X04271Y02141*
X0427Y0214*
X0427Y0214*
X0427Y0214*
X0427Y0214*
X0427Y0214*
X0427Y02139*
X04269Y02139*
X04269Y02139*
X04269Y02139*
X04269Y02139*
X04268Y02139*
X04268Y02138*
X04267Y02138*
X04267Y02138*
X04266Y02138*
X04266Y02138*
X04265Y02138*
X04265Y02137*
X04265Y02137*
X04265Y02137*
X04265Y02137*
X04265Y02137*
X04266Y02137*
X04266Y02136*
X04267Y02136*
X04267Y02136*
X04267Y02136*
X04267Y02136*
X04267Y02135*
X04268Y02135*
X04268Y02134*
X04269Y02133*
X04269Y02133*
X04274Y02126*
X04269*
X04266Y02131*
Y02131*
X04266Y02131*
X04266Y02131*
X04266Y02132*
X04266Y02132*
X04265Y02132*
X04265Y02133*
X04264Y02134*
X04264Y02134*
X04264Y02135*
X04264Y02135*
X04264Y02135*
X04263Y02135*
X04263Y02135*
X04263Y02136*
X04262Y02136*
X04262Y02136*
X04262Y02136*
X04262Y02136*
X04262Y02136*
X04262Y02137*
X04261Y02137*
X04261Y02137*
X0426*
X0426Y02137*
X0426*
X0426Y02137*
X0426Y02137*
X04259*
X04259Y02137*
X04255*
Y02126*
X04251*
Y02151*
X04263*
X04263Y02151*
G37*
G36*
X03359Y02089D02*
X03347D01*
X03347Y02089*
X03346*
X03346Y02089*
X03345Y02089*
X03344Y02089*
X03343Y02089*
X03343Y02089*
X03342Y0209*
X03342*
X03342Y0209*
X03342Y0209*
X03342Y0209*
X03341Y0209*
X03341Y0209*
X03341Y02091*
X0334Y02091*
X0334Y02092*
X0334Y02092*
X0334Y02092*
X03339Y02093*
X03339Y02093*
X03339Y02094*
X03339Y02094*
X03339Y02095*
X03339Y02096*
Y02096*
Y02096*
Y02096*
X03339Y02096*
Y02096*
X03339Y02097*
X03339Y02097*
X03339Y02098*
X03339Y02099*
X0334Y021*
X0334Y021*
X0334Y021*
X0334Y021*
X03341Y021*
X03341Y02101*
X03341Y02101*
X03341Y02101*
X03341Y02101*
X03342Y02101*
X03342Y02101*
X03342Y02102*
X03343Y02102*
X03343Y02102*
X03344Y02102*
X03344Y02102*
X03345Y02102*
X03346Y02103*
X03346Y02103*
X03345Y02103*
X03345Y02103*
X03345Y02103*
X03344Y02103*
X03344Y02104*
X03344Y02104*
X03344Y02104*
X03343Y02104*
X03343Y02104*
X03343Y02105*
X03342Y02105*
X03342Y02106*
X03341Y02107*
X03341Y02107*
X03337Y02114*
X03341*
X03344Y02109*
Y02109*
X03344Y02109*
X03344Y02109*
X03344Y02108*
X03345Y02108*
X03345Y02108*
X03345Y02107*
X03346Y02106*
X03346Y02106*
X03347Y02105*
X03347Y02105*
X03347Y02105*
X03347Y02105*
X03347Y02105*
X03348Y02104*
X03348Y02104*
X03348Y02104*
X03348Y02104*
X03348Y02104*
X03348Y02104*
X03349Y02103*
X03349Y02103*
X0335Y02103*
X0335*
X0335Y02103*
X0335*
X0335Y02103*
X0335Y02103*
X03351*
X03351Y02103*
X03355*
Y02114*
X03359*
Y02089*
G37*
G36*
X03327Y02114D02*
X03327Y02114D01*
X03328Y02114*
X03328Y02114*
X03329Y02114*
X03329Y02114*
X0333Y02114*
X0333Y02114*
X03331Y02113*
X03331Y02113*
X03332Y02113*
X03332Y02112*
X03332Y02112*
X03333Y02112*
X03333Y02112*
X03333Y02112*
X03333Y02112*
X03333Y02111*
X03333Y02111*
X03334Y02111*
X03334Y0211*
X03334Y0211*
X03334Y02109*
X03334Y02109*
X03335Y02108*
X03335Y02107*
X03335Y02107*
Y02107*
Y02107*
Y02107*
X03335Y02106*
Y02106*
X03335Y02106*
X03335Y02105*
X03334Y02105*
X03334Y02104*
X03334Y02103*
X03333Y02103*
Y02103*
X03333Y02103*
X03333Y02102*
X03333Y02102*
X03333Y02102*
X03332Y02101*
X03331Y02101*
X03331Y02101*
X0333Y021*
X0333*
X0333Y021*
X0333Y021*
X03331Y021*
X03331Y021*
X03331Y021*
X03332Y02099*
X03332Y02099*
X03333Y02098*
X03333Y02098*
X03333Y02098*
X03333Y02098*
X03333Y02097*
X03333Y02097*
X03334Y02096*
X03334Y02096*
X03334Y02095*
Y02095*
Y02095*
Y02095*
X03334Y02095*
X03334Y02095*
X03334Y02094*
X03333Y02094*
X03333Y02093*
X03333Y02092*
X03333Y02092*
X03332Y02091*
X03332Y02091*
X03332Y02091*
X03332Y02091*
X03332Y02091*
X03332Y0209*
X03331Y0209*
X03331Y0209*
X03331Y0209*
X03331Y0209*
X0333Y0209*
X0333Y02089*
X03329Y02089*
X03328Y02089*
X03327Y02089*
X03326Y02089*
X03326*
X03326Y02089*
X03326*
X03325Y02089*
X03325Y02089*
X03324Y02089*
X03323Y0209*
X03322Y0209*
X03322Y0209*
X03322Y0209*
X03321Y02091*
X03321Y02091*
X03321Y02091*
X03321Y02091*
X03321Y02091*
X03321Y02091*
X0332Y02091*
X0332Y02092*
X0332Y02093*
X03319Y02093*
X03319Y02094*
X03319Y02095*
X03319Y02095*
Y02095*
Y02096*
X03319Y02096*
X03319Y02096*
X03319Y02097*
X03319Y02097*
X0332Y02098*
X0332Y02098*
X0332Y02098*
X0332Y02099*
X0332Y02099*
X03321Y02099*
X03321Y02099*
X03322Y021*
X03322Y021*
X03323Y021*
X03323*
X03323Y021*
X03323Y021*
X03322Y02101*
X03322Y02101*
X03322Y02101*
X03321Y02101*
X0332Y02102*
X0332Y02102*
X03319Y02103*
X03319Y02103*
X03319Y02103*
X03319Y02103*
X03319Y02104*
X03318Y02105*
X03318Y02105*
X03318Y02106*
X03318Y02107*
Y02107*
Y02107*
Y02107*
X03318Y02107*
X03318Y02108*
X03318Y02108*
X03318Y02109*
X03319Y0211*
X03319Y0211*
X03319Y02111*
X03319Y02111*
X0332Y02111*
X0332Y02112*
X0332Y02112*
X0332Y02112*
X0332Y02112*
X03321Y02113*
X03321Y02113*
X03321Y02113*
X03321Y02113*
X03322Y02113*
X03322Y02113*
X03322Y02114*
X03323Y02114*
X03323Y02114*
X03324Y02114*
X03324Y02114*
X03325Y02114*
X03326Y02114*
X03326Y02115*
X03327*
X03327Y02114*
G37*
G36*
X03359Y02206D02*
X03347D01*
X03347Y02206*
X03346*
X03346Y02206*
X03345Y02207*
X03344Y02207*
X03343Y02207*
X03343Y02207*
X03342Y02207*
X03342*
X03342Y02207*
X03342Y02207*
X03342Y02207*
X03341Y02208*
X03341Y02208*
X03341Y02208*
X0334Y02209*
X0334Y0221*
X0334Y0221*
X0334Y0221*
X03339Y0221*
X03339Y02211*
X03339Y02211*
X03339Y02212*
X03339Y02213*
X03339Y02213*
Y02213*
Y02213*
Y02214*
X03339Y02214*
Y02214*
X03339Y02214*
X03339Y02215*
X03339Y02216*
X03339Y02216*
X0334Y02217*
X0334Y02218*
X0334Y02218*
X0334Y02218*
X03341Y02218*
X03341Y02218*
X03341Y02218*
X03341Y02218*
X03341Y02219*
X03342Y02219*
X03342Y02219*
X03342Y02219*
X03343Y02219*
X03343Y0222*
X03344Y0222*
X03344Y0222*
X03345Y0222*
X03346Y0222*
X03346Y0222*
X03345Y0222*
X03345Y0222*
X03345Y02221*
X03344Y02221*
X03344Y02221*
X03344Y02221*
X03344Y02222*
X03343Y02222*
X03343Y02222*
X03343Y02222*
X03342Y02223*
X03342Y02223*
X03341Y02224*
X03341Y02225*
X03337Y02232*
X03341*
X03344Y02226*
Y02226*
X03344Y02226*
X03344Y02226*
X03344Y02226*
X03345Y02226*
X03345Y02225*
X03345Y02225*
X03346Y02224*
X03346Y02223*
X03347Y02223*
X03347Y02223*
X03347Y02223*
X03347Y02223*
X03347Y02222*
X03348Y02222*
X03348Y02221*
X03348Y02221*
X03348Y02221*
X03348Y02221*
X03348Y02221*
X03349Y02221*
X03349Y02221*
X0335Y02221*
X0335*
X0335Y02221*
X0335*
X0335Y02221*
X0335Y0222*
X03351*
X03351Y0222*
X03355*
Y02232*
X03359*
Y02206*
G37*
G36*
X03331Y02232D02*
Y02231D01*
Y02231*
X03331Y02231*
Y02231*
X03331Y0223*
X03331Y0223*
X03331Y0223*
X03331Y02229*
X03331Y02229*
X03331Y02228*
X0333Y02227*
X0333Y02227*
X0333Y02226*
X0333Y02224*
Y02224*
X0333Y02224*
X0333Y02224*
X0333Y02224*
X03329Y02223*
X03329Y02223*
X03329Y02222*
X03329Y02222*
X03329Y02221*
X03328Y02221*
X03328Y02219*
X03327Y02218*
X03327Y02216*
X03327Y02216*
X03326Y02216*
X03326Y02216*
X03326Y02216*
X03326Y02215*
X03326Y02215*
X03325Y02215*
X03325Y02214*
X03325Y02213*
X03324Y02212*
X03323Y02211*
X03322Y0221*
X03334*
Y02207*
X03318*
Y02209*
X03318Y02209*
X03318Y02209*
X03318Y02209*
X03319Y0221*
X03319Y0221*
X03319Y0221*
X03319Y02211*
X0332Y02211*
X0332Y02211*
X0332Y02212*
X03321Y02212*
X03321Y02213*
X03322Y02214*
X03322Y02214*
X03322Y02215*
X03323Y02216*
X03323Y02216*
X03323Y02216*
X03323Y02216*
X03323Y02217*
X03324Y02217*
X03324Y02218*
X03324Y02218*
X03324Y02219*
X03325Y02219*
X03325Y0222*
X03325Y02221*
X03325Y02221*
X03326Y02223*
X03327Y02225*
Y02225*
X03327Y02225*
X03327Y02225*
X03327Y02225*
X03327Y02226*
X03327Y02226*
X03327Y02226*
X03327Y02227*
X03327Y02227*
X03327Y02228*
X03327Y02229*
X03328Y0223*
X03328Y02232*
X03331*
Y02232*
G37*
G36*
X03359Y02323D02*
X03347D01*
X03347Y02323*
X03346*
X03346Y02323*
X03345Y02323*
X03344Y02323*
X03343Y02324*
X03343Y02324*
X03342Y02324*
X03342*
X03342Y02324*
X03342Y02324*
X03342Y02324*
X03341Y02324*
X03341Y02325*
X03341Y02325*
X0334Y02326*
X0334Y02326*
X0334Y02326*
X0334Y02327*
X03339Y02327*
X03339Y02327*
X03339Y02328*
X03339Y02329*
X03339Y02329*
X03339Y0233*
Y0233*
Y0233*
Y0233*
X03339Y02331*
Y02331*
X03339Y02331*
X03339Y02332*
X03339Y02332*
X03339Y02333*
X0334Y02334*
X0334Y02334*
X0334Y02335*
X0334Y02335*
X03341Y02335*
X03341Y02335*
X03341Y02335*
X03341Y02335*
X03341Y02335*
X03342Y02336*
X03342Y02336*
X03342Y02336*
X03343Y02336*
X03343Y02336*
X03344Y02336*
X03344Y02337*
X03345Y02337*
X03346Y02337*
X03346Y02337*
X03345Y02337*
X03345Y02337*
X03345Y02337*
X03344Y02338*
X03344Y02338*
X03344Y02338*
X03344Y02338*
X03343Y02338*
X03343Y02339*
X03343Y02339*
X03342Y0234*
X03342Y0234*
X03341Y02341*
X03341Y02342*
X03337Y02348*
X03341*
X03344Y02343*
Y02343*
X03344Y02343*
X03344Y02343*
X03344Y02343*
X03345Y02342*
X03345Y02342*
X03345Y02341*
X03346Y02341*
X03346Y0234*
X03347Y0234*
X03347Y0234*
X03347Y02339*
X03347Y02339*
X03347Y02339*
X03348Y02338*
X03348Y02338*
X03348Y02338*
X03348Y02338*
X03348Y02338*
X03348Y02338*
X03349Y02338*
X03349Y02337*
X0335Y02337*
X0335*
X0335Y02337*
X0335*
X0335Y02337*
X0335Y02337*
X03351*
X03351Y02337*
X03355*
Y02348*
X03359*
Y02323*
G37*
G36*
X03326Y02349D02*
X03327D01*
X03327Y02349*
X03327Y02349*
X03328Y02349*
X03328Y02348*
X03329Y02348*
X03329Y02348*
X0333Y02348*
X0333Y02348*
X03331Y02347*
X03331Y02347*
X03332Y02346*
X03332Y02346*
X03332Y02346*
X03332Y02346*
X03333Y02346*
X03333Y02345*
X03333Y02345*
X03333Y02345*
X03333Y02344*
X03334Y02344*
X03334Y02343*
X03334Y02342*
X03334Y02342*
X03334Y02341*
X03335Y0234*
X03335Y02339*
X03335Y02338*
X03335Y02337*
Y02337*
Y02336*
Y02336*
Y02336*
Y02336*
X03335Y02335*
X03335Y02335*
X03335Y02334*
X03335Y02333*
X03334Y02333*
X03334Y02332*
X03334Y02331*
X03334Y0233*
X03334Y02329*
X03333Y02328*
X03333Y02327*
X03333Y02327*
X03332Y02326*
X03332Y02326*
X03332Y02326*
X03332Y02326*
X03332Y02325*
X03331Y02325*
X03331Y02325*
X03331Y02325*
X0333Y02324*
X0333Y02324*
X03329Y02324*
X03329Y02324*
X03328Y02323*
X03328Y02323*
X03327Y02323*
X03326Y02323*
X03326Y02323*
X03325*
X03325Y02323*
X03325*
X03325Y02323*
X03324Y02323*
X03323Y02323*
X03322Y02324*
X03322Y02324*
X03321Y02324*
X03321Y02325*
X03321*
X03321Y02325*
X03321Y02325*
X0332Y02325*
X0332Y02326*
X03319Y02327*
X03319Y02327*
X03319Y02328*
X03319Y02329*
X03322Y0233*
Y02329*
Y02329*
X03322Y02329*
X03322Y02329*
X03322Y02329*
X03322Y02328*
X03323Y02327*
X03323Y02327*
X03323Y02327*
X03323Y02327*
X03323Y02326*
X03324Y02326*
X03324Y02326*
X03325Y02326*
X03325Y02326*
X03326Y02326*
X03326*
X03326Y02326*
X03327Y02326*
X03327Y02326*
X03328Y02326*
X03328Y02326*
X03329Y02326*
X03329Y02326*
X03329Y02327*
X03329Y02327*
X03329Y02327*
X0333Y02328*
X0333Y02328*
X03331Y02329*
X03331Y0233*
Y0233*
X03331Y0233*
X03331Y0233*
X03331Y0233*
X03331Y0233*
X03331Y0233*
X03331Y02331*
X03331Y02331*
X03331Y02331*
X03331Y02332*
X03332Y02332*
X03332Y02333*
X03332Y02333*
X03332Y02334*
X03332Y02335*
Y02335*
X03332Y02335*
X03332Y02335*
X03331Y02335*
X03331Y02334*
X03331Y02334*
X0333Y02334*
X0333Y02333*
X03329Y02333*
X03329Y02333*
X03329Y02333*
X03328Y02333*
X03328Y02332*
X03327Y02332*
X03327Y02332*
X03326Y02332*
X03326Y02332*
X03325*
X03325Y02332*
X03325Y02332*
X03324Y02332*
X03324Y02332*
X03323Y02333*
X03323Y02333*
X03322Y02333*
X03322Y02333*
X03321Y02334*
X03321Y02334*
X0332Y02334*
X0332Y02334*
X0332Y02334*
X0332Y02335*
X0332Y02335*
X0332Y02335*
X0332Y02335*
X03319Y02336*
X03319Y02336*
X03319Y02336*
X03319Y02337*
X03319Y02337*
X03318Y02338*
X03318Y02338*
X03318Y02339*
X03318Y0234*
X03318Y0234*
Y0234*
Y0234*
Y0234*
Y02341*
X03318Y02341*
Y02341*
X03318Y02342*
X03318Y02342*
X03319Y02343*
X03319Y02344*
X03319Y02345*
Y02345*
X03319Y02345*
X03319Y02345*
X03319Y02345*
X0332Y02345*
X0332Y02346*
X0332Y02346*
X03321Y02347*
X03321Y02347*
X03322Y02348*
X03322Y02348*
X03322Y02348*
X03323Y02348*
X03323Y02348*
X03324Y02348*
X03324Y02349*
X03325Y02349*
X03326Y02349*
X03326*
X03326Y02349*
G37*
G36*
X03327Y02466D02*
X03327Y02466D01*
X03328Y02466*
X03328Y02466*
X03329Y02466*
X03329Y02465*
X0333Y02465*
X03331Y02465*
X03331Y02465*
X03332Y02464*
X03332Y02464*
X03332Y02464*
X03332Y02464*
X03332Y02464*
X03333Y02464*
X03333Y02463*
X03333Y02463*
X03333Y02463*
X03333Y02463*
X03334Y02462*
X03334Y02461*
X03334Y0246*
X03335Y02459*
X03335Y02459*
X03331Y02459*
Y02459*
Y02459*
X03331Y02459*
X03331Y02459*
X03331Y02459*
X03331Y0246*
X03331Y02461*
X03331Y02461*
X0333Y02462*
X0333Y02462*
X0333Y02462*
X03329Y02462*
X03329Y02463*
X03329Y02463*
X03328Y02463*
X03328Y02463*
X03327Y02463*
X03327Y02463*
X03326*
X03326Y02463*
X03326Y02463*
X03325Y02463*
X03325Y02463*
X03324Y02463*
X03323Y02462*
X03323Y02462*
X03323Y02462*
Y02462*
X03323Y02462*
X03323Y02461*
X03322Y02461*
X03322Y02461*
X03322Y0246*
X03321Y02459*
X03321Y02458*
X03321Y02457*
Y02457*
Y02457*
Y02457*
X03321Y02457*
Y02457*
X03321Y02456*
X03321Y02456*
X03322Y02455*
X03322Y02454*
X03322Y02454*
X03323Y02453*
X03323Y02453*
X03323Y02453*
X03323Y02453*
X03324Y02452*
X03324Y02452*
X03325Y02452*
X03326Y02452*
X03327Y02452*
X03327*
X03327Y02452*
X03328Y02452*
X03328Y02452*
X03328Y02452*
X03329Y02452*
X03329Y02452*
X03329Y02452*
X0333Y02452*
X0333Y02453*
X0333Y02453*
X0333Y02453*
X03331Y02453*
X03331Y02454*
X03331Y02454*
X03334Y02454*
X03332Y02441*
X03319*
Y02444*
X03329*
X03331Y0245*
X03331Y0245*
X0333Y0245*
X0333Y0245*
X0333Y0245*
X0333Y0245*
X0333Y0245*
X03329Y0245*
X03328Y02449*
X03328Y02449*
X03327Y02449*
X03326Y02449*
X03325*
X03325Y02449*
X03325Y02449*
X03325Y02449*
X03324Y02449*
X03324Y02449*
X03323Y02449*
X03323Y0245*
X03322Y0245*
X03322Y0245*
X03321Y0245*
X03321Y02451*
X0332Y02451*
X0332Y02451*
X0332Y02451*
X0332Y02451*
X0332Y02452*
X0332Y02452*
X0332Y02452*
X03319Y02452*
X03319Y02453*
X03319Y02453*
X03319Y02454*
X03318Y02454*
X03318Y02455*
X03318Y02455*
X03318Y02456*
X03318Y02456*
X03318Y02457*
Y02457*
Y02457*
Y02457*
X03318Y02458*
X03318Y02458*
X03318Y02458*
X03318Y02459*
X03318Y02459*
X03318Y0246*
X03319Y02461*
X03319Y02461*
X03319Y02462*
X0332Y02462*
X0332Y02463*
X0332Y02463*
X0332Y02463*
X0332Y02463*
X0332Y02463*
X03321Y02464*
X03321Y02464*
X03321Y02464*
X03322Y02464*
X03322Y02465*
X03323Y02465*
X03323Y02465*
X03324Y02465*
X03324Y02466*
X03325Y02466*
X03326Y02466*
X03327Y02466*
X03327*
X03327Y02466*
G37*
G36*
X03359Y0244D02*
X03347D01*
X03347Y0244*
X03346*
X03346Y0244*
X03345Y0244*
X03344Y02441*
X03343Y02441*
X03343Y02441*
X03342Y02441*
X03342*
X03342Y02441*
X03342Y02441*
X03342Y02441*
X03341Y02442*
X03341Y02442*
X03341Y02442*
X0334Y02443*
X0334Y02443*
X0334Y02443*
X0334Y02444*
X03339Y02444*
X03339Y02445*
X03339Y02445*
X03339Y02446*
X03339Y02446*
X03339Y02447*
Y02447*
Y02447*
Y02447*
X03339Y02448*
Y02448*
X03339Y02448*
X03339Y02449*
X03339Y02449*
X03339Y0245*
X0334Y02451*
X0334Y02451*
X0334Y02452*
X0334Y02452*
X03341Y02452*
X03341Y02452*
X03341Y02452*
X03341Y02452*
X03341Y02452*
X03342Y02453*
X03342Y02453*
X03342Y02453*
X03343Y02453*
X03343Y02453*
X03344Y02454*
X03344Y02454*
X03345Y02454*
X03346Y02454*
X03346Y02454*
X03345Y02454*
X03345Y02454*
X03345Y02454*
X03344Y02455*
X03344Y02455*
X03344Y02455*
X03344Y02455*
X03343Y02456*
X03343Y02456*
X03343Y02456*
X03342Y02457*
X03342Y02457*
X03341Y02458*
X03341Y02459*
X03337Y02466*
X03341*
X03344Y0246*
Y0246*
X03344Y0246*
X03344Y0246*
X03344Y0246*
X03345Y0246*
X03345Y02459*
X03345Y02458*
X03346Y02458*
X03346Y02457*
X03347Y02457*
X03347Y02457*
X03347Y02457*
X03347Y02456*
X03347Y02456*
X03348Y02456*
X03348Y02455*
X03348Y02455*
X03348Y02455*
X03348Y02455*
X03348Y02455*
X03349Y02455*
X03349Y02455*
X0335Y02454*
X0335*
X0335Y02454*
X0335*
X0335Y02454*
X0335Y02454*
X03351*
X03351Y02454*
X03355*
Y02466*
X03359*
Y0244*
G37*
G36*
Y02558D02*
X03347D01*
X03347Y02558*
X03346*
X03346Y02558*
X03345Y02558*
X03344Y02558*
X03343Y02558*
X03343Y02558*
X03342Y02559*
X03342*
X03342Y02559*
X03342Y02559*
X03342Y02559*
X03341Y02559*
X03341Y02559*
X03341Y0256*
X0334Y0256*
X0334Y02561*
X0334Y02561*
X0334Y02561*
X03339Y02562*
X03339Y02562*
X03339Y02563*
X03339Y02563*
X03339Y02564*
X03339Y02565*
Y02565*
Y02565*
Y02565*
X03339Y02565*
Y02565*
X03339Y02566*
X03339Y02566*
X03339Y02567*
X03339Y02568*
X0334Y02569*
X0334Y02569*
X0334Y02569*
X0334Y02569*
X03341Y02569*
X03341Y0257*
X03341Y0257*
X03341Y0257*
X03341Y0257*
X03342Y0257*
X03342Y0257*
X03342Y02571*
X03343Y02571*
X03343Y02571*
X03344Y02571*
X03344Y02571*
X03345Y02571*
X03346Y02572*
X03346Y02572*
X03345Y02572*
X03345Y02572*
X03345Y02572*
X03344Y02572*
X03344Y02573*
X03344Y02573*
X03344Y02573*
X03343Y02573*
X03343Y02573*
X03343Y02574*
X03342Y02574*
X03342Y02575*
X03341Y02576*
X03341Y02576*
X03337Y02583*
X03341*
X03344Y02578*
Y02578*
X03344Y02578*
X03344Y02578*
X03344Y02577*
X03345Y02577*
X03345Y02577*
X03345Y02576*
X03346Y02575*
X03346Y02575*
X03347Y02574*
X03347Y02574*
X03347Y02574*
X03347Y02574*
X03347Y02574*
X03348Y02573*
X03348Y02573*
X03348Y02573*
X03348Y02573*
X03348Y02573*
X03348Y02573*
X03349Y02572*
X03349Y02572*
X0335Y02572*
X0335*
X0335Y02572*
X0335*
X0335Y02572*
X0335Y02572*
X03351*
X03351Y02572*
X03355*
Y02583*
X03359*
Y02558*
G37*
G36*
X03325Y02577D02*
X03336D01*
Y02574*
X03324Y02558*
X03322*
Y02574*
X03318*
Y02577*
X03322*
Y02583*
X03325*
Y02577*
G37*
G36*
X03327Y027D02*
X03327Y027D01*
X03328Y027*
X03328Y027*
X03329Y027*
X03329Y027*
X0333Y02699*
X03331Y02699*
X03331Y02699*
X03332Y02699*
X03332Y02698*
X03332Y02698*
X03332Y02698*
X03332Y02698*
X03332Y02698*
X03333Y02698*
X03333Y02697*
X03333Y02697*
X03333Y02697*
X03334Y02696*
X03334Y02695*
X03334Y02694*
X03335Y02694*
X03335Y02693*
X03331Y02693*
Y02693*
X03331Y02693*
Y02693*
X03331Y02693*
X03331Y02694*
X03331Y02694*
X03331Y02695*
X03331Y02695*
X0333Y02696*
X0333Y02696*
X0333Y02697*
X03329Y02697*
X03329Y02697*
X03329Y02697*
X03328Y02697*
X03328Y02697*
X03327Y02698*
X03327Y02698*
X03326*
X03326Y02698*
X03326Y02698*
X03325Y02697*
X03325Y02697*
X03324Y02697*
X03324Y02697*
X03323Y02696*
X03323Y02696*
X03323Y02696*
X03322Y02696*
X03322Y02695*
X03322Y02695*
X03322Y02694*
X03322Y02693*
X03321Y02692*
Y02692*
Y02692*
Y02692*
X03321Y02692*
X03322Y02692*
X03322Y02691*
X03322Y02691*
X03322Y0269*
X03322Y02689*
X03323Y02689*
X03323Y02689*
X03323Y02689*
X03323Y02688*
X03324Y02688*
X03324Y02688*
X03325Y02688*
X03326Y02688*
X03326Y02688*
X03327*
X03327Y02688*
X03327Y02688*
X03328Y02688*
X03328Y02688*
X03329Y02688*
X03328Y02685*
X03328*
X03328Y02685*
X03327*
X03327Y02685*
X03326Y02685*
X03326Y02685*
X03325Y02685*
X03325Y02684*
X03324Y02684*
X03324Y02684*
X03324Y02684*
X03324Y02684*
X03323Y02683*
X03323Y02683*
X03323Y02682*
X03323Y02682*
X03323Y02681*
Y02681*
Y02681*
Y02681*
X03323Y0268*
X03323Y0268*
X03323Y0268*
X03323Y02679*
X03323Y02679*
X03324Y02678*
X03324Y02678*
X03324Y02678*
X03324Y02678*
X03324Y02678*
X03325Y02677*
X03325Y02677*
X03326Y02677*
X03327Y02677*
X03327*
X03327Y02677*
X03328Y02677*
X03328Y02677*
X03329Y02677*
X03329Y02678*
X0333Y02678*
X0333Y02678*
X0333Y02678*
X0333Y02679*
X0333Y02679*
X03331Y02679*
X03331Y0268*
X03331Y02681*
X03331Y02682*
X03334Y02681*
Y02681*
X03334Y02681*
X03334Y02681*
X03334Y0268*
X03334Y0268*
X03334Y0268*
X03334Y02679*
X03333Y02678*
X03333Y02678*
X03332Y02677*
X03332Y02676*
X03332Y02676*
X03332Y02676*
X03332Y02676*
X03331Y02676*
X03331Y02676*
X03331Y02676*
X0333Y02675*
X0333Y02675*
X03329Y02675*
X03328Y02675*
X03327Y02674*
X03326*
X03326Y02674*
X03325Y02675*
X03325Y02675*
X03324Y02675*
X03324Y02675*
X03323Y02675*
X03323*
X03323Y02675*
X03323Y02676*
X03322Y02676*
X03322Y02676*
X03322Y02676*
X03321Y02677*
X03321Y02677*
X0332Y02678*
X0332Y02678*
X0332Y02678*
X0332Y02678*
X0332Y02679*
X0332Y02679*
X0332Y0268*
X03319Y0268*
X03319Y02681*
Y02681*
Y02681*
X03319Y02682*
X03319Y02682*
X0332Y02682*
X0332Y02683*
X0332Y02683*
X0332Y02684*
X0332Y02684*
X0332Y02684*
X03321Y02684*
X03321Y02685*
X03321Y02685*
X03322Y02685*
X03322Y02686*
X03323Y02686*
X03323*
X03323Y02686*
X03323*
X03322Y02686*
X03322Y02686*
X03322Y02687*
X03321Y02687*
X0332Y02687*
X0332Y02688*
X03319Y02688*
X03319Y02688*
X03319Y02689*
X03319Y02689*
X03319Y02689*
X03319Y0269*
X03318Y02691*
X03318Y02691*
X03318Y02692*
Y02692*
Y02692*
Y02693*
X03318Y02693*
X03318Y02693*
X03318Y02693*
X03318Y02694*
X03318Y02694*
X03319Y02695*
X03319Y02696*
X03319Y02696*
X03319Y02697*
X0332Y02697*
X0332Y02697*
X03321Y02698*
X03321Y02698*
X03321Y02698*
X03321Y02698*
X03321Y02698*
X03321Y02698*
X03322Y02699*
X03322Y02699*
X03322Y02699*
X03323Y02699*
X03323Y02699*
X03324Y027*
X03324Y027*
X03325Y027*
X03325Y027*
X03326Y027*
X03327Y027*
X03327*
X03327Y027*
G37*
G36*
X03359Y02675D02*
X03347D01*
X03347Y02675*
X03346*
X03346Y02675*
X03345Y02675*
X03344Y02675*
X03343Y02675*
X03343Y02675*
X03342Y02675*
X03342*
X03342Y02675*
X03342Y02675*
X03342Y02676*
X03341Y02676*
X03341Y02676*
X03341Y02677*
X0334Y02677*
X0334Y02678*
X0334Y02678*
X0334Y02678*
X03339Y02678*
X03339Y02679*
X03339Y02679*
X03339Y0268*
X03339Y02681*
X03339Y02681*
Y02682*
Y02682*
Y02682*
X03339Y02682*
Y02682*
X03339Y02682*
X03339Y02683*
X03339Y02684*
X03339Y02685*
X0334Y02685*
X0334Y02686*
X0334Y02686*
X0334Y02686*
X03341Y02686*
X03341Y02686*
X03341Y02686*
X03341Y02687*
X03341Y02687*
X03342Y02687*
X03342Y02687*
X03342Y02687*
X03343Y02688*
X03343Y02688*
X03344Y02688*
X03344Y02688*
X03345Y02688*
X03346Y02688*
X03346Y02688*
X03345Y02688*
X03345Y02689*
X03345Y02689*
X03344Y02689*
X03344Y02689*
X03344Y0269*
X03344Y0269*
X03343Y0269*
X03343Y0269*
X03343Y0269*
X03342Y02691*
X03342Y02692*
X03341Y02692*
X03341Y02693*
X03337Y027*
X03341*
X03344Y02695*
Y02695*
X03344Y02694*
X03344Y02694*
X03344Y02694*
X03345Y02694*
X03345Y02693*
X03345Y02693*
X03346Y02692*
X03346Y02692*
X03347Y02691*
X03347Y02691*
X03347Y02691*
X03347Y02691*
X03347Y0269*
X03348Y0269*
X03348Y0269*
X03348Y02689*
X03348Y02689*
X03348Y02689*
X03348Y02689*
X03349Y02689*
X03349Y02689*
X0335Y02689*
X0335*
X0335Y02689*
X0335*
X0335Y02689*
X0335Y02689*
X03351*
X03351Y02689*
X03355*
Y027*
X03359*
Y02675*
G37*
G36*
Y02792D02*
X03347D01*
X03347Y02792*
X03346*
X03346Y02792*
X03345Y02792*
X03344Y02792*
X03343Y02793*
X03343Y02793*
X03342Y02793*
X03342*
X03342Y02793*
X03342Y02793*
X03342Y02793*
X03341Y02793*
X03341Y02794*
X03341Y02794*
X0334Y02795*
X0334Y02795*
X0334Y02795*
X0334Y02796*
X03339Y02796*
X03339Y02796*
X03339Y02797*
X03339Y02798*
X03339Y02798*
X03339Y02799*
Y02799*
Y02799*
Y02799*
X03339Y028*
Y028*
X03339Y028*
X03339Y02801*
X03339Y02801*
X03339Y02802*
X0334Y02803*
X0334Y02803*
X0334Y02804*
X0334Y02804*
X03341Y02804*
X03341Y02804*
X03341Y02804*
X03341Y02804*
X03341Y02804*
X03342Y02805*
X03342Y02805*
X03342Y02805*
X03343Y02805*
X03343Y02805*
X03344Y02805*
X03344Y02806*
X03345Y02806*
X03346Y02806*
X03346Y02806*
X03345Y02806*
X03345Y02806*
X03345Y02806*
X03344Y02807*
X03344Y02807*
X03344Y02807*
X03344Y02807*
X03343Y02807*
X03343Y02808*
X03343Y02808*
X03342Y02809*
X03342Y02809*
X03341Y0281*
X03341Y02811*
X03337Y02817*
X03341*
X03344Y02812*
Y02812*
X03344Y02812*
X03344Y02812*
X03344Y02812*
X03345Y02811*
X03345Y02811*
X03345Y0281*
X03346Y0281*
X03346Y02809*
X03347Y02809*
X03347Y02809*
X03347Y02808*
X03347Y02808*
X03347Y02808*
X03348Y02807*
X03348Y02807*
X03348Y02807*
X03348Y02807*
X03348Y02807*
X03348Y02807*
X03349Y02807*
X03349Y02806*
X0335Y02806*
X0335*
X0335Y02806*
X0335*
X0335Y02806*
X0335Y02806*
X03351*
X03351Y02806*
X03355*
Y02817*
X03359*
Y02792*
G37*
G36*
X03335Y02817D02*
Y02817D01*
Y02817*
X03335Y02817*
X03335Y02816*
X03335Y02816*
X03335Y02816*
X03335Y02815*
Y02815*
X03335Y02815*
X03335Y02815*
X03334Y02815*
X03334Y02814*
X03334Y02814*
X03334Y02813*
X03333Y02813*
X03333Y02812*
Y02812*
X03333Y02812*
X03332Y02812*
X03332Y02811*
X03332Y02811*
X03331Y0281*
X0333Y0281*
X0333Y02809*
X03329Y02808*
X03329Y02808*
X03328Y02808*
X03328Y02808*
X03328Y02807*
X03328Y02807*
X03327Y02807*
X03326Y02806*
X03325Y02805*
X03325Y02804*
X03324Y02804*
X03324Y02804*
X03323Y02803*
X03323Y02803*
Y02803*
X03323Y02803*
X03323Y02803*
X03323Y02802*
X03323Y02802*
X03322Y02801*
X03322Y02801*
X03322Y028*
X03322Y028*
X03322Y02799*
Y02799*
Y02799*
X03322Y02799*
X03322Y02798*
X03322Y02798*
X03322Y02797*
X03322Y02797*
X03322Y02796*
X03323Y02796*
X03323Y02796*
X03323Y02796*
X03323Y02795*
X03324Y02795*
X03324Y02795*
X03325Y02795*
X03326Y02795*
X03326Y02795*
X03327*
X03327Y02795*
X03327Y02795*
X03328Y02795*
X03328Y02795*
X03329Y02795*
X03329Y02796*
X0333Y02796*
X0333Y02796*
X0333Y02796*
X0333Y02797*
X03331Y02797*
X03331Y02797*
X03331Y02798*
X03331Y02799*
X03331Y028*
X03334Y02799*
Y02799*
Y02799*
X03334Y02799*
X03334Y02799*
X03334Y02798*
X03334Y02798*
X03334Y02797*
X03334Y02796*
X03333Y02796*
X03333Y02795*
X03332Y02794*
X03332Y02794*
X03332Y02794*
X03332Y02794*
X03332Y02794*
X03332Y02794*
X03331Y02793*
X03331Y02793*
X03331Y02793*
X03331Y02793*
X0333Y02793*
X0333Y02793*
X03329Y02792*
X03329Y02792*
X03328Y02792*
X03327Y02792*
X03326Y02792*
X03326*
X03326Y02792*
X03325Y02792*
X03325Y02792*
X03325Y02792*
X03324Y02792*
X03323Y02793*
X03322Y02793*
X03322Y02793*
X03321Y02793*
X03321Y02794*
X03321Y02794*
X03321Y02794*
X0332Y02794*
X0332Y02794*
X0332Y02794*
X0332Y02795*
X0332Y02795*
X03319Y02795*
X03319Y02796*
X03319Y02797*
X03318Y02798*
X03318Y02799*
X03318Y02799*
Y02799*
Y02799*
X03318Y028*
X03318Y028*
X03319Y028*
X03319Y02801*
X03319Y02801*
X03319Y02802*
X03319Y02802*
X03319Y02802*
X03319Y02803*
X0332Y02803*
X0332Y02803*
X0332Y02804*
X03321Y02804*
X03321Y02805*
X03321Y02805*
X03321Y02805*
X03322Y02806*
X03322Y02806*
X03322Y02806*
X03323Y02807*
X03323Y02807*
X03323Y02807*
X03324Y02808*
X03324Y02808*
X03325Y02809*
X03325Y02809*
X03326Y0281*
X03326Y0281*
X03326Y0281*
X03326Y0281*
X03326Y0281*
X03327Y0281*
X03327Y02811*
X03328Y02811*
X03329Y02812*
X03329Y02812*
X03329Y02813*
X03329Y02813*
X03329Y02813*
X0333Y02813*
X0333Y02813*
X0333Y02813*
X0333Y02814*
X03331Y02814*
X03318*
Y02817*
X03335*
Y02817*
G37*
G36*
X03359Y02909D02*
X03347D01*
X03347Y02909*
X03346*
X03346Y02909*
X03345Y02909*
X03344Y0291*
X03343Y0291*
X03343Y0291*
X03342Y0291*
X03342*
X03342Y0291*
X03342Y0291*
X03342Y0291*
X03341Y02911*
X03341Y02911*
X03341Y02911*
X0334Y02912*
X0334Y02912*
X0334Y02912*
X0334Y02913*
X03339Y02913*
X03339Y02913*
X03339Y02914*
X03339Y02915*
X03339Y02915*
X03339Y02916*
Y02916*
Y02916*
Y02916*
X03339Y02917*
Y02917*
X03339Y02917*
X03339Y02918*
X03339Y02918*
X03339Y02919*
X0334Y0292*
X0334Y0292*
X0334Y02921*
X0334Y02921*
X03341Y02921*
X03341Y02921*
X03341Y02921*
X03341Y02921*
X03341Y02921*
X03342Y02922*
X03342Y02922*
X03342Y02922*
X03343Y02922*
X03343Y02922*
X03344Y02923*
X03344Y02923*
X03345Y02923*
X03346Y02923*
X03346Y02923*
X03345Y02923*
X03345Y02923*
X03345Y02923*
X03344Y02924*
X03344Y02924*
X03344Y02924*
X03344Y02924*
X03343Y02925*
X03343Y02925*
X03343Y02925*
X03342Y02926*
X03342Y02926*
X03341Y02927*
X03341Y02928*
X03337Y02935*
X03341*
X03344Y02929*
Y02929*
X03344Y02929*
X03344Y02929*
X03344Y02929*
X03345Y02929*
X03345Y02928*
X03345Y02927*
X03346Y02927*
X03346Y02926*
X03347Y02926*
X03347Y02926*
X03347Y02926*
X03347Y02925*
X03347Y02925*
X03348Y02925*
X03348Y02924*
X03348Y02924*
X03348Y02924*
X03348Y02924*
X03348Y02924*
X03349Y02924*
X03349Y02924*
X0335Y02923*
X0335*
X0335Y02923*
X0335*
X0335Y02923*
X0335Y02923*
X03351*
X03351Y02923*
X03355*
Y02935*
X03359*
Y02909*
G37*
G36*
X03326Y02915D02*
X03326Y02915D01*
X03326Y02915*
X03327Y02915*
X03327Y02915*
X03327Y02916*
X03328Y02916*
X03328Y02917*
X03329Y02917*
X03329*
X03329Y02917*
X03329Y02917*
X0333Y02917*
X0333Y02918*
X03331Y02918*
X03331Y02918*
X03332Y02918*
X03332Y02919*
Y02915*
X03332*
X03332Y02915*
X03332Y02915*
X03332Y02915*
X03332Y02915*
X03331Y02915*
X03331Y02915*
X0333Y02914*
X03329Y02914*
X03328Y02913*
X03328Y02913*
X03328Y02913*
X03328Y02912*
X03327Y02912*
X03327Y02912*
X03327Y02911*
X03326Y02911*
X03326Y0291*
X03325Y0291*
X03325Y02909*
X03323*
Y02935*
X03326*
Y02915*
G37*
%LNpcb2_top_assembly-2*%
%LPC*%
G36*
X03026Y02348D02*
X03026D01*
X03026Y02348*
X03026Y02348*
X03025Y02348*
X03025Y02348*
X03024Y02348*
X03023Y02347*
X03023Y02347*
X03023Y02347*
X03023Y02347*
X03022Y02346*
X03022Y02346*
X03022Y02345*
X03022Y02345*
X03021Y02344*
X03021Y02343*
Y02343*
Y02343*
X03021Y02342*
X03021Y02342*
X03022Y02342*
X03022Y02341*
X03022Y0234*
X03022Y0234*
X03022Y0234*
X03022Y0234*
X03022Y02339*
X03023Y02339*
X03023Y02339*
X03023Y02338*
X03024Y02338*
X03024Y02338*
X03024Y02338*
X03024Y02338*
X03024Y02337*
X03025Y02337*
X03025Y02337*
X03026Y02337*
X03026Y02337*
X03027Y02337*
X03027*
X03027Y02337*
X03027Y02337*
X03028Y02337*
X03028Y02337*
X03029Y02338*
X03029Y02338*
X0303Y02339*
X0303Y02339*
X0303Y02339*
X0303Y02339*
X03031Y0234*
X03031Y0234*
X03031Y02341*
X03031Y02342*
X03031Y02343*
Y02343*
Y02343*
Y02343*
X03031Y02343*
Y02343*
X03031Y02344*
X03031Y02344*
X03031Y02345*
X03031Y02346*
X0303Y02346*
X0303Y02347*
X0303Y02347*
X0303Y02347*
X03029Y02347*
X03029Y02348*
X03028Y02348*
X03028Y02348*
X03027Y02348*
X03026Y02348*
G37*
G36*
X03002Y02357D02*
X02997D01*
Y02338*
X03003*
X03003Y02338*
X03004Y02338*
X03005Y02338*
X03005Y02338*
X03006Y02338*
X03006Y02338*
X03006Y02338*
X03007Y02338*
X03007Y02338*
X03007Y02339*
X03008Y02339*
X03008Y02339*
X03008Y02339*
X03009Y0234*
X03009Y0234*
X03009Y0234*
X03009Y0234*
X03009Y0234*
X0301Y02341*
X0301Y02341*
X0301Y02342*
X0301Y02343*
Y02343*
X03011Y02343*
X03011Y02343*
X03011Y02343*
X03011Y02343*
X03011Y02344*
X03011Y02344*
X03011Y02345*
X03011Y02346*
X03011Y02347*
X03011Y02348*
Y02348*
Y02348*
Y02348*
Y02348*
X03011Y02349*
X03011Y02349*
X03011Y02349*
X03011Y0235*
X03011Y02351*
X03011Y02352*
X0301Y02353*
X0301Y02353*
X0301Y02354*
Y02354*
X0301Y02354*
X0301Y02354*
X0301Y02354*
X03009Y02354*
X03009Y02355*
X03009Y02355*
X03008Y02356*
X03007Y02356*
X03007Y02357*
X03007Y02357*
X03006Y02357*
X03006Y02357*
X03006Y02357*
X03005Y02357*
X03004Y02357*
X03003Y02357*
X03002Y02357*
G37*
G36*
Y02215D02*
X02997D01*
Y02195*
X03003*
X03003Y02195*
X03004Y02195*
X03005Y02195*
X03005Y02195*
X03006Y02196*
X03006Y02196*
X03006Y02196*
X03007Y02196*
X03007Y02196*
X03007Y02196*
X03008Y02196*
X03008Y02196*
X03008Y02197*
X03009Y02197*
X03009Y02197*
X03009Y02197*
X03009Y02197*
X03009Y02198*
X0301Y02198*
X0301Y02199*
X0301Y02199*
X0301Y022*
Y022*
X03011Y022*
X03011Y022*
X03011Y02201*
X03011Y02201*
X03011Y02201*
X03011Y02202*
X03011Y02202*
X03011Y02203*
X03011Y02204*
X03011Y02205*
Y02205*
Y02205*
Y02205*
Y02206*
X03011Y02206*
X03011Y02206*
X03011Y02207*
X03011Y02207*
X03011Y02208*
X03011Y02209*
X0301Y0221*
X0301Y02211*
X0301Y02211*
Y02211*
X0301Y02211*
X0301Y02211*
X0301Y02211*
X03009Y02212*
X03009Y02212*
X03009Y02213*
X03008Y02213*
X03007Y02214*
X03007Y02214*
X03007Y02214*
X03006Y02214*
X03006Y02214*
X03006Y02214*
X03005Y02214*
X03004Y02214*
X03003Y02214*
X03002Y02215*
G37*
G36*
Y02499D02*
X02997D01*
Y0248*
X03003*
X03003Y0248*
X03004Y0248*
X03005Y0248*
X03005Y0248*
X03006Y0248*
X03006Y0248*
X03006Y0248*
X03007Y0248*
X03007Y02481*
X03007Y02481*
X03008Y02481*
X03008Y02481*
X03008Y02481*
X03009Y02482*
X03009Y02482*
X03009Y02482*
X03009Y02482*
X03009Y02483*
X0301Y02483*
X0301Y02484*
X0301Y02484*
X0301Y02485*
Y02485*
X03011Y02485*
X03011Y02485*
X03011Y02485*
X03011Y02485*
X03011Y02486*
X03011Y02486*
X03011Y02487*
X03011Y02488*
X03011Y02489*
X03011Y0249*
Y0249*
Y0249*
Y0249*
Y0249*
X03011Y02491*
X03011Y02491*
X03011Y02492*
X03011Y02492*
X03011Y02493*
X03011Y02494*
X0301Y02495*
X0301Y02495*
X0301Y02496*
Y02496*
X0301Y02496*
X0301Y02496*
X0301Y02496*
X03009Y02497*
X03009Y02497*
X03009Y02497*
X03008Y02498*
X03007Y02498*
X03007Y02499*
X03007Y02499*
X03006Y02499*
X03006Y02499*
X03006Y02499*
X03005Y02499*
X03004Y02499*
X03003Y02499*
X03002Y02499*
G37*
G36*
X03028Y02639D02*
X0302Y02628D01*
X03028*
Y02639*
G37*
G36*
X03002Y02641D02*
X02997D01*
Y02622*
X03003*
X03003Y02622*
X03004Y02622*
X03005Y02622*
X03005Y02622*
X03006Y02622*
X03006Y02622*
X03006Y02622*
X03007Y02622*
X03007Y02622*
X03007Y02622*
X03008Y02623*
X03008Y02623*
X03008Y02623*
X03009Y02623*
X03009Y02623*
X03009Y02624*
X03009Y02624*
X03009Y02624*
X0301Y02625*
X0301Y02625*
X0301Y02626*
X0301Y02627*
Y02627*
X03011Y02627*
X03011Y02627*
X03011Y02627*
X03011Y02627*
X03011Y02627*
X03011Y02628*
X03011Y02629*
X03011Y0263*
X03011Y0263*
X03011Y02631*
Y02632*
Y02632*
Y02632*
Y02632*
X03011Y02632*
X03011Y02633*
X03011Y02633*
X03011Y02634*
X03011Y02635*
X03011Y02636*
X0301Y02637*
X0301Y02637*
X0301Y02638*
Y02638*
X0301Y02638*
X0301Y02638*
X0301Y02638*
X03009Y02638*
X03009Y02639*
X03009Y02639*
X03008Y0264*
X03007Y0264*
X03007Y0264*
X03007Y0264*
X03006Y02641*
X03006Y02641*
X03006Y02641*
X03005Y02641*
X03004Y02641*
X03003Y02641*
X03002Y02641*
G37*
G36*
Y02784D02*
X02997D01*
Y02764*
X03003*
X03003Y02764*
X03004Y02764*
X03005Y02764*
X03005Y02764*
X03006Y02765*
X03006Y02765*
X03006Y02765*
X03007Y02765*
X03007Y02765*
X03007Y02765*
X03008Y02765*
X03008Y02765*
X03008Y02766*
X03009Y02766*
X03009Y02766*
X03009Y02766*
X03009Y02766*
X03009Y02767*
X0301Y02767*
X0301Y02768*
X0301Y02768*
X0301Y02769*
Y02769*
X03011Y02769*
X03011Y02769*
X03011Y0277*
X03011Y0277*
X03011Y0277*
X03011Y02771*
X03011Y02771*
X03011Y02772*
X03011Y02773*
X03011Y02774*
Y02774*
Y02774*
Y02774*
Y02775*
X03011Y02775*
X03011Y02775*
X03011Y02776*
X03011Y02776*
X03011Y02777*
X03011Y02778*
X0301Y02779*
X0301Y0278*
X0301Y0278*
Y0278*
X0301Y0278*
X0301Y0278*
X0301Y0278*
X03009Y02781*
X03009Y02781*
X03009Y02782*
X03008Y02782*
X03007Y02783*
X03007Y02783*
X03007Y02783*
X03006Y02783*
X03006Y02783*
X03006Y02783*
X03005Y02783*
X03004Y02783*
X03003Y02783*
X03002Y02784*
G37*
G36*
Y03067D02*
X02997D01*
Y03048*
X03003*
X03003Y03048*
X03004Y03048*
X03005Y03048*
X03005Y03048*
X03006Y03048*
X03006Y03049*
X03006Y03049*
X03007Y03049*
X03007Y03049*
X03007Y03049*
X03008Y03049*
X03008Y03049*
X03008Y0305*
X03009Y0305*
X03009Y0305*
X03009Y0305*
X03009Y0305*
X03009Y03051*
X0301Y03051*
X0301Y03052*
X0301Y03052*
X0301Y03053*
Y03053*
X03011Y03053*
X03011Y03053*
X03011Y03053*
X03011Y03054*
X03011Y03054*
X03011Y03054*
X03011Y03055*
X03011Y03056*
X03011Y03057*
X03011Y03058*
Y03058*
Y03058*
Y03058*
Y03059*
X03011Y03059*
X03011Y03059*
X03011Y0306*
X03011Y0306*
X03011Y03061*
X03011Y03062*
X0301Y03063*
X0301Y03064*
X0301Y03064*
Y03064*
X0301Y03064*
X0301Y03064*
X0301Y03064*
X03009Y03065*
X03009Y03065*
X03009Y03066*
X03008Y03066*
X03007Y03067*
X03007Y03067*
X03007Y03067*
X03006Y03067*
X03006Y03067*
X03006Y03067*
X03005Y03067*
X03004Y03067*
X03003Y03067*
X03002Y03067*
G37*
G36*
Y02925D02*
X02997D01*
Y02906*
X03003*
X03003Y02906*
X03004Y02906*
X03005Y02906*
X03005Y02906*
X03006Y02906*
X03006Y02906*
X03006Y02906*
X03007Y02906*
X03007Y02907*
X03007Y02907*
X03008Y02907*
X03008Y02907*
X03008Y02907*
X03009Y02908*
X03009Y02908*
X03009Y02908*
X03009Y02908*
X03009Y02909*
X0301Y02909*
X0301Y0291*
X0301Y0291*
X0301Y02911*
Y02911*
X03011Y02911*
X03011Y02911*
X03011Y02911*
X03011Y02911*
X03011Y02912*
X03011Y02912*
X03011Y02913*
X03011Y02914*
X03011Y02915*
X03011Y02916*
Y02916*
Y02916*
Y02916*
Y02916*
X03011Y02917*
X03011Y02917*
X03011Y02918*
X03011Y02918*
X03011Y02919*
X03011Y0292*
X0301Y02921*
X0301Y02921*
X0301Y02922*
Y02922*
X0301Y02922*
X0301Y02922*
X0301Y02922*
X03009Y02923*
X03009Y02923*
X03009Y02923*
X03008Y02924*
X03007Y02924*
X03007Y02925*
X03007Y02925*
X03006Y02925*
X03006Y02925*
X03006Y02925*
X03005Y02925*
X03004Y02925*
X03003Y02925*
X03002Y02925*
G37*
G36*
Y02073D02*
X02997D01*
Y02053*
X03003*
X03003Y02054*
X03004Y02054*
X03005Y02054*
X03005Y02054*
X03006Y02054*
X03006Y02054*
X03006Y02054*
X03007Y02054*
X03007Y02054*
X03007Y02054*
X03008Y02054*
X03008Y02055*
X03008Y02055*
X03009Y02055*
X03009Y02055*
X03009Y02055*
X03009Y02056*
X03009Y02056*
X0301Y02057*
X0301Y02057*
X0301Y02058*
X0301Y02058*
Y02058*
X03011Y02059*
X03011Y02059*
X03011Y02059*
X03011Y02059*
X03011Y02059*
X03011Y0206*
X03011Y02061*
X03011Y02061*
X03011Y02062*
X03011Y02063*
Y02063*
Y02064*
Y02064*
Y02064*
X03011Y02064*
X03011Y02065*
X03011Y02065*
X03011Y02066*
X03011Y02067*
X03011Y02068*
X0301Y02069*
X0301Y02069*
X0301Y02069*
Y02069*
X0301Y02069*
X0301Y0207*
X0301Y0207*
X03009Y0207*
X03009Y02071*
X03009Y02071*
X03008Y02072*
X03007Y02072*
X03007Y02072*
X03007Y02072*
X03006Y02072*
X03006Y02072*
X03006Y02073*
X03005Y02073*
X03004Y02073*
X03003Y02073*
X03002Y02073*
G37*
G36*
X03026Y02073D02*
X03026D01*
X03026Y02073*
X03025Y02073*
X03025Y02073*
X03024Y02073*
X03024Y02073*
X03023Y02072*
X03023Y02072*
X03023Y02072*
X03023Y02072*
X03023Y02071*
X03023Y02071*
X03022Y02071*
X03022Y0207*
X03022Y02069*
Y02069*
Y02069*
X03022Y02069*
X03022Y02068*
X03022Y02068*
X03023Y02068*
X03023Y02067*
X03023Y02067*
X03023Y02067*
X03023Y02066*
X03024Y02066*
X03024Y02066*
X03024Y02066*
X03025Y02066*
X03026Y02065*
X03026Y02065*
X03027*
X03027Y02066*
X03027Y02066*
X03028Y02066*
X03028Y02066*
X03029Y02066*
X03029Y02067*
X03029Y02067*
X03029Y02067*
X0303Y02067*
X0303Y02067*
X0303Y02068*
X0303Y02068*
X0303Y02069*
X0303Y02069*
Y02069*
Y02069*
Y0207*
X0303Y0207*
X0303Y0207*
X0303Y02071*
X0303Y02071*
X0303Y02072*
X03029Y02072*
X03029Y02072*
X03029Y02072*
X03029Y02073*
X03028Y02073*
X03028Y02073*
X03027Y02073*
X03027Y02073*
X03026Y02073*
G37*
G36*
X03026Y02063D02*
X03026D01*
X03026Y02063*
X03025Y02063*
X03025Y02063*
X03024Y02063*
X03024Y02062*
X03023Y02062*
X03023Y02061*
X03022Y02061*
X03022Y02061*
X03022Y02061*
X03022Y0206*
X03022Y0206*
X03021Y02059*
X03021Y02059*
X03021Y02058*
Y02058*
Y02058*
X03021Y02057*
X03021Y02057*
X03021Y02057*
X03021Y02056*
X03022Y02056*
X03022Y02055*
X03022Y02055*
X03022Y02055*
X03022Y02055*
X03022Y02055*
X03022Y02054*
X03023Y02054*
X03023Y02054*
X03024Y02053*
X03024Y02053*
X03024Y02053*
X03024Y02053*
X03024Y02053*
X03025Y02053*
X03025Y02053*
X03026Y02053*
X03026Y02053*
X03027*
X03027Y02053*
X03027Y02053*
X03028Y02053*
X03028Y02053*
X03029Y02053*
X03029Y02054*
X0303Y02054*
X0303Y02054*
X0303Y02054*
X0303Y02055*
X03031Y02055*
X03031Y02056*
X03031Y02056*
X03031Y02057*
X03031Y02058*
Y02058*
Y02058*
Y02058*
X03031Y02058*
X03031Y02058*
X03031Y02059*
X03031Y0206*
X03031Y0206*
X0303Y02061*
X0303Y02061*
X0303Y02061*
X0303Y02062*
X03029Y02062*
X03029Y02062*
X03028Y02062*
X03028Y02063*
X03027Y02063*
X03026Y02063*
G37*
G36*
X04304Y02848D02*
X04303D01*
X04303Y02848*
X04303Y02848*
X04302Y02848*
X04302Y02848*
X04301Y02848*
X04301Y02847*
X043Y02847*
X043Y02847*
X043Y02846*
X043Y02846*
X04299Y02846*
X04299Y02845*
X04299Y02844*
X04299Y02844*
X04299Y02843*
Y02843*
Y02842*
X04299Y02842*
X04299Y02842*
X04299Y02841*
X04299Y02841*
X04299Y0284*
X04299Y0284*
X04299Y0284*
X04299Y02839*
X043Y02839*
X043Y02839*
X043Y02838*
X043Y02838*
X04301Y02838*
X04301Y02837*
X04301Y02837*
X04301Y02837*
X04302Y02837*
X04302Y02837*
X04302Y02837*
X04303Y02837*
X04303Y02837*
X04304Y02837*
X04304*
X04304Y02837*
X04304Y02837*
X04305Y02837*
X04305Y02837*
X04306Y02837*
X04307Y02838*
X04307Y02838*
X04307Y02838*
X04307Y02839*
X04308Y02839*
X04308Y02839*
X04308Y0284*
X04308Y02841*
X04308Y02842*
X04308Y02843*
Y02843*
Y02843*
Y02843*
X04308Y02843*
Y02843*
X04308Y02843*
X04308Y02844*
X04308Y02845*
X04308Y02845*
X04308Y02846*
X04307Y02847*
X04307Y02847*
X04307Y02847*
X04307Y02847*
X04306Y02847*
X04306Y02848*
X04305Y02848*
X04304Y02848*
X04304Y02848*
G37*
G36*
X04263Y02857D02*
X04255D01*
Y02849*
X04262*
X04263Y02849*
X04263Y02849*
X04264Y02849*
X04264Y02849*
X04265Y02849*
X04266Y02849*
X04266Y02849*
X04266Y02849*
X04266Y02849*
X04266Y02849*
X04267Y0285*
X04267Y0285*
X04267Y0285*
X04267Y02851*
X04268Y02851*
X04268Y02851*
X04268Y02851*
X04268Y02851*
X04268Y02852*
X04268Y02852*
X04268Y02852*
X04268Y02853*
Y02853*
Y02853*
Y02853*
X04268Y02853*
X04268Y02854*
X04268Y02854*
X04268Y02855*
X04267Y02855*
X04267Y02856*
X04267Y02856*
X04267Y02856*
X04266Y02856*
X04266Y02856*
X04265Y02857*
X04265Y02857*
X04264Y02857*
X04263Y02857*
G37*
G36*
Y02756D02*
X04255D01*
Y02747*
X04262*
X04263Y02747*
X04263Y02747*
X04264Y02748*
X04264Y02748*
X04265Y02748*
X04266Y02748*
X04266Y02748*
X04266Y02748*
X04266Y02748*
X04266Y02748*
X04267Y02748*
X04267Y02749*
X04267Y02749*
X04267Y02749*
X04268Y02749*
X04268Y0275*
X04268Y0275*
X04268Y0275*
X04268Y0275*
X04268Y02751*
X04268Y02751*
X04268Y02752*
Y02752*
Y02752*
Y02752*
X04268Y02752*
X04268Y02753*
X04268Y02753*
X04268Y02754*
X04267Y02754*
X04267Y02755*
X04267Y02755*
X04267Y02755*
X04266Y02755*
X04266Y02755*
X04265Y02755*
X04265Y02756*
X04264Y02756*
X04263Y02756*
G37*
G36*
X04305Y02652D02*
X04297Y02641D01*
X04305*
Y02652*
G37*
G36*
X04263Y02654D02*
X04255D01*
Y02646*
X04262*
X04263Y02646*
X04263Y02646*
X04264Y02646*
X04264Y02646*
X04265Y02646*
X04266Y02646*
X04266Y02646*
X04266Y02646*
X04266Y02646*
X04266Y02647*
X04267Y02647*
X04267Y02647*
X04267Y02647*
X04267Y02648*
X04268Y02648*
X04268Y02648*
X04268Y02648*
X04268Y02648*
X04268Y02649*
X04268Y02649*
X04268Y0265*
X04268Y0265*
Y0265*
Y0265*
Y0265*
X04268Y02651*
X04268Y02651*
X04268Y02651*
X04268Y02652*
X04267Y02652*
X04267Y02653*
X04267Y02653*
X04267Y02653*
X04266Y02653*
X04266Y02654*
X04265Y02654*
X04265Y02654*
X04264Y02654*
X04263Y02654*
G37*
G36*
Y02553D02*
X04255D01*
Y02545*
X04262*
X04263Y02545*
X04263Y02545*
X04264Y02545*
X04264Y02545*
X04265Y02545*
X04266Y02545*
X04266Y02545*
X04266Y02545*
X04266Y02546*
X04266Y02546*
X04267Y02546*
X04267Y02546*
X04267Y02547*
X04267Y02547*
X04268Y02547*
X04268Y02547*
X04268Y02547*
X04268Y02548*
X04268Y02548*
X04268Y02548*
X04268Y02549*
X04268Y02549*
Y02549*
Y02549*
Y02549*
X04268Y0255*
X04268Y0255*
X04268Y02551*
X04268Y02551*
X04267Y02552*
X04267Y02552*
X04267Y02552*
X04267Y02552*
X04266Y02553*
X04266Y02553*
X04265Y02553*
X04265Y02553*
X04264Y02553*
X04263Y02553*
G37*
G36*
Y02452D02*
X04255D01*
Y02443*
X04262*
X04263Y02443*
X04263Y02443*
X04264Y02443*
X04264Y02443*
X04265Y02444*
X04266Y02444*
X04266Y02444*
X04266Y02444*
X04266Y02444*
X04266Y02444*
X04267Y02444*
X04267Y02445*
X04267Y02445*
X04267Y02445*
X04268Y02445*
X04268Y02445*
X04268Y02446*
X04268Y02446*
X04268Y02446*
X04268Y02447*
X04268Y02447*
X04268Y02448*
Y02448*
Y02448*
Y02448*
X04268Y02448*
X04268Y02449*
X04268Y02449*
X04268Y0245*
X04267Y0245*
X04267Y0245*
X04267Y02451*
X04267Y02451*
X04266Y02451*
X04266Y02451*
X04265Y02451*
X04265Y02451*
X04264Y02452*
X04263Y02452*
G37*
G36*
Y0235D02*
X04255D01*
Y02342*
X04262*
X04263Y02342*
X04263Y02342*
X04264Y02342*
X04264Y02342*
X04265Y02342*
X04266Y02343*
X04266Y02343*
X04266Y02343*
X04266Y02343*
X04266Y02343*
X04267Y02343*
X04267Y02343*
X04267Y02344*
X04267Y02344*
X04268Y02344*
X04268Y02344*
X04268Y02344*
X04268Y02345*
X04268Y02345*
X04268Y02345*
X04268Y02346*
X04268Y02346*
Y02346*
Y02346*
Y02347*
X04268Y02347*
X04268Y02347*
X04268Y02348*
X04268Y02348*
X04267Y02349*
X04267Y02349*
X04267Y02349*
X04267Y02349*
X04266Y0235*
X04266Y0235*
X04265Y0235*
X04265Y0235*
X04264Y0235*
X04263Y0235*
G37*
G36*
Y0225D02*
X04255D01*
Y02241*
X04262*
X04263Y02241*
X04263Y02241*
X04264Y02241*
X04264Y02241*
X04265Y02242*
X04266Y02242*
X04266Y02242*
X04266Y02242*
X04266Y02242*
X04266Y02242*
X04267Y02242*
X04267Y02243*
X04267Y02243*
X04267Y02243*
X04268Y02243*
X04268Y02243*
X04268Y02244*
X04268Y02244*
X04268Y02244*
X04268Y02245*
X04268Y02245*
X04268Y02245*
Y02245*
Y02246*
Y02246*
X04268Y02246*
X04268Y02246*
X04268Y02247*
X04268Y02247*
X04267Y02248*
X04267Y02248*
X04267Y02248*
X04267Y02249*
X04266Y02249*
X04266Y02249*
X04265Y02249*
X04265Y02249*
X04264Y0225*
X04263Y0225*
G37*
G36*
X04303Y0225D02*
X04303D01*
X04303Y0225*
X04303Y0225*
X04302Y0225*
X04302Y02249*
X04301Y02249*
X043Y02249*
X043Y02248*
X043Y02248*
Y02248*
X043Y02248*
X043Y02248*
X043Y02248*
X043Y02247*
X04299Y02247*
X04299Y02247*
X04299Y02246*
X04299Y02246*
X04299Y02245*
X04299Y02244*
X04299Y02244*
X04299Y02243*
X04298Y02242*
X04298Y02241*
Y0224*
Y0224*
Y02239*
Y02239*
X04298Y02239*
Y02238*
X04298Y02238*
X04298Y02237*
X04299Y02236*
X04299Y02235*
X04299Y02233*
X04299Y02233*
X04299Y02232*
X043Y02232*
X043Y02231*
Y02231*
X043Y02231*
X043Y02231*
X043Y02231*
X04301Y0223*
X04301Y0223*
X04302Y0223*
X04303Y02229*
X04303Y02229*
X04303Y02229*
X04304*
X04304Y02229*
X04304Y02229*
X04305Y0223*
X04305Y0223*
X04306Y0223*
X04306Y0223*
X04306Y02231*
X04307Y02231*
X04307Y02231*
Y02231*
X04307Y02231*
X04307Y02232*
X04307Y02232*
X04307Y02232*
X04307Y02232*
X04308Y02233*
X04308Y02233*
X04308Y02234*
X04308Y02234*
X04308Y02235*
X04308Y02236*
X04308Y02237*
X04308Y02237*
X04308Y02238*
Y0224*
Y0224*
Y0224*
Y0224*
X04308Y02241*
Y02241*
X04308Y02242*
X04308Y02242*
X04308Y02243*
X04308Y02244*
X04308Y02246*
X04308Y02246*
X04307Y02247*
X04307Y02247*
X04307Y02248*
Y02248*
X04307Y02248*
X04307Y02248*
X04306Y02248*
X04306Y02249*
X04305Y02249*
X04305Y0225*
X04304Y0225*
X04304Y0225*
X04303Y0225*
G37*
G36*
X04284Y02149D02*
X04284D01*
X04284Y02149*
X04283Y02149*
X04283Y02148*
X04282Y02148*
X04281Y02148*
X04281Y02148*
X04281Y02147*
X0428Y02147*
X0428Y02147*
X0428Y02147*
X0428Y02146*
X0428Y02146*
X04279Y02145*
X04279Y02144*
X04279Y02144*
X04279Y02143*
Y02143*
Y02142*
Y02142*
X04279Y02142*
X04279Y02142*
X04279Y02141*
X04279Y02141*
X04279Y0214*
X0428Y02139*
X0428Y02139*
X0428Y02139*
X0428Y02138*
X04281Y02138*
X04281Y02138*
X04282Y02138*
X04282Y02137*
X04283Y02137*
X04284Y02137*
X04284*
X04284Y02137*
X04285Y02137*
X04285Y02137*
X04286Y02138*
X04286Y02138*
X04287Y02138*
X04287Y02139*
X04287Y02139*
X04288Y02139*
X04288Y02139*
X04288Y0214*
X04288Y0214*
X04288Y02141*
X04289Y02142*
X04289Y02143*
Y02143*
Y02143*
Y02143*
X04289Y02143*
Y02144*
X04289Y02144*
X04289Y02144*
X04288Y02145*
X04288Y02146*
X04288Y02146*
X04287Y02147*
X04287Y02147*
X04287Y02147*
X04287Y02148*
X04286Y02148*
X04286Y02148*
X04285Y02148*
X04285Y02149*
X04284Y02149*
G37*
G36*
X04263Y02148D02*
X04255D01*
Y0214*
X04262*
X04263Y0214*
X04263Y0214*
X04264Y0214*
X04264Y0214*
X04265Y0214*
X04266Y0214*
X04266Y0214*
X04266Y02141*
X04266Y02141*
X04266Y02141*
X04267Y02141*
X04267Y02141*
X04267Y02142*
X04267Y02142*
X04268Y02142*
X04268Y02142*
X04268Y02142*
X04268Y02143*
X04268Y02143*
X04268Y02143*
X04268Y02144*
X04268Y02144*
Y02144*
Y02144*
Y02145*
X04268Y02145*
X04268Y02145*
X04268Y02146*
X04268Y02146*
X04267Y02147*
X04267Y02147*
X04267Y02147*
X04267Y02147*
X04266Y02148*
X04266Y02148*
X04265Y02148*
X04265Y02148*
X04264Y02148*
X04263Y02148*
G37*
G36*
X03355Y021D02*
X03348D01*
X03347Y021*
X03347Y021*
X03346Y021*
X03346Y021*
X03345Y021*
X03345Y021*
X03345Y02099*
X03344Y02099*
X03344Y02099*
X03344Y02099*
X03344Y02099*
X03343Y02099*
X03343Y02098*
X03343Y02098*
X03343Y02098*
X03343Y02098*
X03343Y02098*
X03342Y02097*
X03342Y02097*
X03342Y02097*
X03342Y02096*
X03342Y02096*
Y02096*
Y02096*
Y02095*
X03342Y02095*
X03342Y02095*
X03342Y02094*
X03343Y02094*
X03343Y02093*
X03343Y02093*
X03343Y02093*
X03344Y02093*
X03344Y02092*
X03344Y02092*
X03345Y02092*
X03346Y02092*
X03346Y02092*
X03347Y02092*
X03355*
Y021*
G37*
G36*
X03326Y02112D02*
X03326D01*
X03326Y02112*
X03326Y02112*
X03325Y02112*
X03324Y02112*
X03324Y02111*
X03323Y02111*
X03323Y02111*
X03323Y0211*
X03322Y0211*
X03322Y0211*
X03322Y0211*
X03322Y02109*
X03321Y02108*
X03321Y02108*
X03321Y02107*
Y02107*
Y02107*
Y02107*
X03321Y02107*
X03321Y02106*
X03321Y02106*
X03322Y02105*
X03322Y02104*
X03322Y02104*
X03323Y02103*
X03323Y02103*
X03323Y02103*
X03323Y02103*
X03324Y02102*
X03324Y02102*
X03325Y02102*
X03326Y02102*
X03326Y02102*
X03327*
X03327Y02102*
X03327Y02102*
X03328Y02102*
X03328Y02102*
X03329Y02102*
X03329Y02103*
X0333Y02103*
X0333Y02103*
X0333Y02103*
X03331Y02104*
X03331Y02104*
X03331Y02105*
X03331Y02105*
X03331Y02106*
X03331Y02107*
Y02107*
Y02107*
X03331Y02107*
X03331Y02108*
X03331Y02108*
X03331Y02108*
X03331Y02109*
X03331Y02109*
X03331Y02109*
X03331Y0211*
X03331Y0211*
X0333Y0211*
X0333Y0211*
X0333Y02111*
X03329Y02111*
X03329Y02111*
X03329Y02111*
X03329Y02111*
X03329Y02112*
X03328Y02112*
X03328Y02112*
X03327Y02112*
X03327Y02112*
X03326Y02112*
G37*
G36*
X03326Y02099D02*
X03326D01*
X03326Y02099*
X03325Y02099*
X03325Y02099*
X03324Y02099*
X03324Y02098*
X03323Y02098*
X03323Y02098*
X03323Y02098*
X03323Y02098*
X03323Y02097*
X03323Y02097*
X03322Y02096*
X03322Y02096*
X03322Y02095*
Y02095*
Y02095*
Y02095*
X03322Y02095*
X03322Y02094*
X03323Y02094*
X03323Y02093*
X03323Y02093*
X03323Y02092*
X03324Y02092*
X03324Y02092*
X03324Y02092*
X03324Y02092*
X03325Y02092*
X03325Y02091*
X03326Y02091*
X03326Y02091*
X03327*
X03327Y02091*
X03327Y02091*
X03328Y02092*
X03328Y02092*
X03329Y02092*
X03329Y02092*
X03329Y02092*
X0333Y02093*
X0333Y02093*
X0333Y02093*
X0333Y02094*
X0333Y02094*
X0333Y02095*
X0333Y02095*
Y02095*
Y02095*
X0333Y02096*
X0333Y02096*
X0333Y02097*
X0333Y02097*
X0333Y02098*
X03329Y02098*
X03329Y02098*
X03329Y02098*
X03329Y02098*
X03329Y02099*
X03328Y02099*
X03328Y02099*
X03327Y02099*
X03326Y02099*
G37*
G36*
X03355Y02218D02*
X03348D01*
X03347Y02218*
X03347Y02217*
X03346Y02217*
X03346Y02217*
X03345Y02217*
X03345Y02217*
X03345Y02217*
X03344Y02217*
X03344Y02217*
X03344Y02217*
X03344Y02217*
X03343Y02216*
X03343Y02216*
X03343Y02216*
X03343Y02216*
X03343Y02215*
X03343Y02215*
X03342Y02215*
X03342Y02215*
X03342Y02214*
X03342Y02214*
X03342Y02213*
Y02213*
Y02213*
Y02213*
X03342Y02213*
X03342Y02212*
X03342Y02212*
X03343Y02211*
X03343Y02211*
X03343Y0221*
X03343Y0221*
X03344Y0221*
X03344Y0221*
X03344Y0221*
X03345Y0221*
X03346Y02209*
X03346Y02209*
X03347Y02209*
X03355*
Y02218*
G37*
G36*
Y02334D02*
X03348D01*
X03347Y02334*
X03347Y02334*
X03346Y02334*
X03346Y02334*
X03345Y02334*
X03345Y02334*
X03345Y02334*
X03344Y02334*
X03344Y02334*
X03344Y02333*
X03344Y02333*
X03343Y02333*
X03343Y02333*
X03343Y02332*
X03343Y02332*
X03343Y02332*
X03343Y02332*
X03342Y02332*
X03342Y02331*
X03342Y02331*
X03342Y02331*
X03342Y0233*
Y0233*
Y0233*
Y0233*
X03342Y02329*
X03342Y02329*
X03342Y02329*
X03343Y02328*
X03343Y02328*
X03343Y02327*
X03343Y02327*
X03344Y02327*
X03344Y02327*
X03344Y02327*
X03345Y02326*
X03346Y02326*
X03346Y02326*
X03347Y02326*
X03355*
Y02334*
G37*
G36*
X03326Y02346D02*
X03326D01*
X03326Y02346*
X03325Y02346*
X03325Y02346*
X03324Y02346*
X03324Y02346*
X03323Y02345*
X03323Y02345*
X03323Y02345*
X03323Y02344*
X03322Y02344*
X03322Y02344*
X03322Y02343*
X03322Y02342*
X03321Y02341*
X03321Y0234*
Y0234*
Y0234*
Y0234*
X03321Y0234*
Y0234*
X03321Y02339*
X03321Y02339*
X03322Y02338*
X03322Y02338*
X03322Y02337*
X03323Y02336*
X03323Y02336*
X03323Y02336*
X03323Y02336*
X03324Y02335*
X03324Y02335*
X03325Y02335*
X03325Y02335*
X03326Y02335*
X03326*
X03327Y02335*
X03327Y02335*
X03327Y02335*
X03328Y02335*
X03329Y02335*
X03329Y02336*
X0333Y02336*
X0333Y02336*
X0333Y02337*
X0333Y02337*
X0333Y02337*
X03331Y02338*
X03331Y02339*
X03331Y02339*
X03331Y0234*
Y0234*
Y0234*
X03331Y02341*
X03331Y02341*
X03331Y02342*
X03331Y02342*
X03331Y02343*
X03331Y02343*
X03331Y02343*
X0333Y02344*
X0333Y02344*
X0333Y02344*
X0333Y02344*
X03329Y02345*
X03329Y02345*
X03329Y02346*
X03329Y02346*
X03328Y02346*
X03328Y02346*
X03328Y02346*
X03328Y02346*
X03327Y02346*
X03327Y02346*
X03326Y02346*
G37*
G36*
X03355Y02451D02*
X03348D01*
X03347Y02451*
X03347Y02451*
X03346Y02451*
X03346Y02451*
X03345Y02451*
X03345Y02451*
X03345Y02451*
X03344Y02451*
X03344Y02451*
X03344Y02451*
X03344Y0245*
X03343Y0245*
X03343Y0245*
X03343Y02449*
X03343Y02449*
X03343Y02449*
X03343Y02449*
X03342Y02449*
X03342Y02448*
X03342Y02448*
X03342Y02448*
X03342Y02447*
Y02447*
Y02447*
Y02447*
X03342Y02447*
X03342Y02446*
X03342Y02446*
X03343Y02445*
X03343Y02445*
X03343Y02444*
X03343Y02444*
X03344Y02444*
X03344Y02444*
X03344Y02444*
X03345Y02443*
X03346Y02443*
X03346Y02443*
X03347Y02443*
X03355*
Y02451*
G37*
G36*
Y02569D02*
X03348D01*
X03347Y02569*
X03347Y02569*
X03346Y02569*
X03346Y02569*
X03345Y02569*
X03345Y02569*
X03345Y02568*
X03344Y02568*
X03344Y02568*
X03344Y02568*
X03344Y02568*
X03343Y02568*
X03343Y02567*
X03343Y02567*
X03343Y02567*
X03343Y02567*
X03343Y02567*
X03342Y02566*
X03342Y02566*
X03342Y02566*
X03342Y02565*
X03342Y02565*
Y02565*
Y02565*
Y02564*
X03342Y02564*
X03342Y02564*
X03342Y02563*
X03343Y02563*
X03343Y02562*
X03343Y02562*
X03343Y02562*
X03344Y02562*
X03344Y02561*
X03344Y02561*
X03345Y02561*
X03346Y02561*
X03346Y02561*
X03347Y02561*
X03355*
Y02569*
G37*
G36*
X03333Y02574D02*
X03325D01*
Y02563*
X03333Y02574*
G37*
G36*
X03355Y02686D02*
X03348D01*
X03347Y02686*
X03347Y02686*
X03346Y02686*
X03346Y02686*
X03345Y02685*
X03345Y02685*
X03345Y02685*
X03344Y02685*
X03344Y02685*
X03344Y02685*
X03344Y02685*
X03343Y02684*
X03343Y02684*
X03343Y02684*
X03343Y02684*
X03343Y02684*
X03343Y02683*
X03342Y02683*
X03342Y02683*
X03342Y02682*
X03342Y02682*
X03342Y02681*
Y02681*
Y02681*
Y02681*
X03342Y02681*
X03342Y0268*
X03342Y0268*
X03343Y02679*
X03343Y02679*
X03343Y02679*
X03343Y02678*
X03344Y02678*
X03344Y02678*
X03344Y02678*
X03345Y02678*
X03346Y02678*
X03346Y02677*
X03347Y02677*
X03355*
Y02686*
G37*
G36*
Y02803D02*
X03348D01*
X03347Y02803*
X03347Y02803*
X03346Y02803*
X03346Y02803*
X03345Y02803*
X03345Y02803*
X03345Y02803*
X03344Y02803*
X03344Y02803*
X03344Y02802*
X03344Y02802*
X03343Y02802*
X03343Y02802*
X03343Y02801*
X03343Y02801*
X03343Y02801*
X03343Y02801*
X03342Y02801*
X03342Y028*
X03342Y028*
X03342Y028*
X03342Y02799*
Y02799*
Y02799*
Y02799*
X03342Y02798*
X03342Y02798*
X03342Y02798*
X03343Y02797*
X03343Y02797*
X03343Y02796*
X03343Y02796*
X03344Y02796*
X03344Y02796*
X03344Y02796*
X03345Y02795*
X03346Y02795*
X03346Y02795*
X03347Y02795*
X03355*
Y02803*
G37*
G36*
Y0292D02*
X03348D01*
X03347Y0292*
X03347Y0292*
X03346Y0292*
X03346Y0292*
X03345Y0292*
X03345Y0292*
X03345Y0292*
X03344Y0292*
X03344Y0292*
X03344Y0292*
X03344Y02919*
X03343Y02919*
X03343Y02919*
X03343Y02918*
X03343Y02918*
X03343Y02918*
X03343Y02918*
X03342Y02918*
X03342Y02917*
X03342Y02917*
X03342Y02917*
X03342Y02916*
Y02916*
Y02916*
Y02916*
X03342Y02916*
X03342Y02915*
X03342Y02915*
X03343Y02914*
X03343Y02914*
X03343Y02913*
X03343Y02913*
X03344Y02913*
X03344Y02913*
X03344Y02913*
X03345Y02912*
X03346Y02912*
X03346Y02912*
X03347Y02912*
X03355*
Y0292*
G37*
%LNpcb2_top_assembly-3*%
%LPD*%
G54D27*
X0289Y02304D02*
Y02379D01*
Y02304D02*
X03098D01*
Y02379*
X0289D02*
X03098D01*
X0289Y02162D02*
Y02237D01*
Y02162D02*
X03098D01*
Y02237*
X0289D02*
X03098D01*
X0289Y02447D02*
Y02521D01*
Y02447D02*
X03098D01*
Y02521*
X0289D02*
X03098D01*
X0289Y02589D02*
Y02664D01*
Y02589D02*
X03098D01*
Y02664*
X0289D02*
X03098D01*
X0289Y02731D02*
Y02806D01*
Y02731D02*
X03098D01*
Y02806*
X0289D02*
X03098D01*
X0289Y03015D02*
Y0309D01*
Y03015D02*
X03098D01*
Y0309*
X0289D02*
X03098D01*
X0289Y02873D02*
Y02948D01*
Y02873D02*
X03098D01*
Y02948*
X0289D02*
X03098D01*
X0289Y0202D02*
Y02095D01*
Y0202D02*
X03098D01*
Y02095*
X0289D02*
X03098D01*
X04555Y02032D02*
X04972D01*
Y03085*
X04555D02*
X04972D01*
X04555Y02032D02*
Y03085D01*
X04188Y02804D02*
Y02865D01*
Y02804D02*
X04314D01*
Y02865*
X04188D02*
X04314D01*
X04188Y02702D02*
Y02763D01*
Y02702D02*
X04314D01*
Y02763*
X04188D02*
X04314D01*
X04188Y02601D02*
Y02662D01*
Y02601D02*
X04314D01*
Y02662*
X04188D02*
X04314D01*
X04188Y025D02*
Y02561D01*
Y025D02*
X04314D01*
Y02561*
X04188D02*
X04314D01*
X04188Y02399D02*
Y0246D01*
Y02399D02*
X04314D01*
Y0246*
X04188D02*
X04314D01*
X04188Y02297D02*
Y02358D01*
Y02297D02*
X04314D01*
Y02358*
X04188D02*
X04314D01*
X04188Y02196D02*
Y02257D01*
Y02196D02*
X04314D01*
Y02257*
X04188D02*
X04314D01*
X04188Y02095D02*
Y02156D01*
Y02095D02*
X04314D01*
Y02156*
X04188D02*
X04314D01*
X03422Y02084D02*
Y02145D01*
X03296D02*
X03422D01*
X03296Y02084D02*
Y02145D01*
Y02084D02*
X03422D01*
Y02201D02*
Y02262D01*
X03296D02*
X03422D01*
X03296Y02201D02*
Y02262D01*
Y02201D02*
X03422D01*
Y02318D02*
Y02379D01*
X03296D02*
X03422D01*
X03296Y02318D02*
Y02379D01*
Y02318D02*
X03422D01*
Y02435D02*
Y02496D01*
X03296D02*
X03422D01*
X03296Y02435D02*
Y02496D01*
Y02435D02*
X03422D01*
Y02553D02*
Y02614D01*
X03296D02*
X03422D01*
X03296Y02553D02*
Y02614D01*
Y02553D02*
X03422D01*
Y0267D02*
Y02731D01*
X03296D02*
X03422D01*
X03296Y0267D02*
Y02731D01*
Y0267D02*
X03422D01*
Y02787D02*
Y02848D01*
X03296D02*
X03422D01*
X03296Y02787D02*
Y02848D01*
Y02787D02*
X03422D01*
Y02904D02*
Y02965D01*
X03296D02*
X03422D01*
X03296Y02904D02*
Y02965D01*
Y02904D02*
X03422D01*
M02*