%FSTAX23Y23*%
%MOIN*%
%SFA1B1*%

%IPPOS*%
%ADD29C,0.003937*%
%LNpcb2_top_component_center-1*%
%LPD*%
G54D29*
X02994Y02322D02*
Y02362D01*
X02974Y02342D02*
X03014D01*
X02994Y0218D02*
Y02219D01*
X02974Y022D02*
X03014D01*
X02994Y02464D02*
Y02504D01*
X02974Y02484D02*
X03014D01*
X02994Y02606D02*
Y02646D01*
X02974Y02626D02*
X03014D01*
X02994Y02749D02*
Y02788D01*
X02974Y02768D02*
X03014D01*
X02994Y03033D02*
Y03072D01*
X02974Y03053D02*
X03014D01*
X02994Y02891D02*
Y0293D01*
X02974Y0291D02*
X03014D01*
X02994Y02038D02*
Y02077D01*
X02974Y02058D02*
X03014D01*
X04744Y02559D02*
X04783D01*
X04763Y02539D02*
Y02578D01*
X04251Y02814D02*
Y02854D01*
X04232Y02834D02*
X04271D01*
X04251Y02713D02*
Y02753D01*
X04232Y02733D02*
X04271D01*
X04251Y02612D02*
Y02651D01*
X04232Y02632D02*
X04271D01*
X04251Y02511D02*
Y0255D01*
X04232Y0253D02*
X04271D01*
X04251Y0241D02*
Y02449D01*
X04232Y02429D02*
X04271D01*
X04251Y02308D02*
Y02348D01*
X04232Y02328D02*
X04271D01*
X04251Y02207D02*
Y02246D01*
X04232Y02227D02*
X04271D01*
X04251Y02106D02*
Y02145D01*
X04232Y02125D02*
X04271D01*
X03359Y02095D02*
Y02134D01*
X03339Y02115D02*
X03378D01*
X03359Y02212D02*
Y02251D01*
X03339Y02232D02*
X03378D01*
X03359Y02329D02*
Y02368D01*
X03339Y02349D02*
X03378D01*
X03359Y02446D02*
Y02486D01*
X03339Y02466D02*
X03378D01*
X03359Y02563D02*
Y02603D01*
X03339Y02583D02*
X03378D01*
X03359Y02681D02*
Y0272D01*
X03339Y027D02*
X03378D01*
X03359Y02798D02*
Y02837D01*
X03339Y02817D02*
X03378D01*
X03359Y02915D02*
Y02954D01*
X03339Y02935D02*
X03378D01*
M02*