%FSTAX23Y23*%
%MOIN*%
%SFA1B1*%

%IPPOS*%
%ADD27C,0.007874*%
%ADD29C,0.003937*%
%LNpcb2_top_3d_body-1*%
%LPD*%
G54D27*
X02929Y02308D02*
Y02375D01*
Y02308D02*
X03059D01*
Y02375*
X02929D02*
X03059D01*
X02929Y02166D02*
Y02233D01*
Y02166D02*
X03059D01*
Y02233*
X02929D02*
X03059D01*
X02929Y0245D02*
Y02517D01*
Y0245D02*
X03059D01*
Y02517*
X02929D02*
X03059D01*
X02929Y02593D02*
Y0266D01*
Y02593D02*
X03059D01*
Y0266*
X02929D02*
X03059D01*
X02929Y02735D02*
Y02802D01*
Y02735D02*
X03059D01*
Y02802*
X02929D02*
X03059D01*
X02929Y03019D02*
Y03086D01*
Y03019D02*
X03059D01*
Y03086*
X02929D02*
X03059D01*
X02929Y02877D02*
Y02944D01*
Y02877D02*
X03059D01*
Y02944*
X02929D02*
X03059D01*
X02929Y02024D02*
Y02091D01*
Y02024D02*
X03059D01*
Y02091*
X02929D02*
X03059D01*
X04637Y02036D02*
X04889D01*
Y03081*
X04637D02*
X04889D01*
X04637Y02036D02*
Y03081D01*
X0421Y02808D02*
Y02861D01*
Y02808D02*
X04293D01*
Y02861*
X0421D02*
X04293D01*
X0421Y02706D02*
Y02759D01*
Y02706D02*
X04293D01*
Y02759*
X0421D02*
X04293D01*
X0421Y02605D02*
Y02658D01*
Y02605D02*
X04293D01*
Y02658*
X0421D02*
X04293D01*
X0421Y02504D02*
Y02557D01*
Y02504D02*
X04293D01*
Y02557*
X0421D02*
X04293D01*
X0421Y02403D02*
Y02456D01*
Y02403D02*
X04293D01*
Y02456*
X0421D02*
X04293D01*
X0421Y02301D02*
Y02355D01*
Y02301D02*
X04293D01*
Y02355*
X0421D02*
X04293D01*
X0421Y022D02*
Y02253D01*
Y022D02*
X04293D01*
Y02253*
X0421D02*
X04293D01*
X0421Y02099D02*
Y02152D01*
Y02099D02*
X04293D01*
Y02152*
X0421D02*
X04293D01*
X034Y02088D02*
Y02141D01*
X03317D02*
X034D01*
X03317Y02088D02*
Y02141D01*
Y02088D02*
X034D01*
Y02205D02*
Y02258D01*
X03317D02*
X034D01*
X03317Y02205D02*
Y02258D01*
Y02205D02*
X034D01*
Y02322D02*
Y02375D01*
X03317D02*
X034D01*
X03317Y02322D02*
Y02375D01*
Y02322D02*
X034D01*
Y02439D02*
Y02493D01*
X03317D02*
X034D01*
X03317Y02439D02*
Y02493D01*
Y02439D02*
X034D01*
Y02556D02*
Y0261D01*
X03317D02*
X034D01*
X03317Y02556D02*
Y0261D01*
Y02556D02*
X034D01*
Y02674D02*
Y02727D01*
X03317D02*
X034D01*
X03317Y02674D02*
Y02727D01*
Y02674D02*
X034D01*
Y02791D02*
Y02844D01*
X03317D02*
X034D01*
X03317Y02791D02*
Y02844D01*
Y02791D02*
X034D01*
Y02908D02*
Y02961D01*
X03317D02*
X034D01*
X03317Y02908D02*
Y02961D01*
Y02908D02*
X034D01*
G54D29*
X03743Y03119D02*
D01*
X03743Y0312*
X03743Y03122*
X03742Y03123*
X03742Y03124*
X03742Y03126*
X03741Y03127*
X03741Y03128*
X0374Y03129*
X03739Y03131*
X03738Y03132*
X03737Y03133*
X03736Y03134*
X03735Y03134*
X03734Y03135*
X03733Y03136*
X03732Y03137*
X03731Y03137*
X03729Y03138*
X03728Y03138*
X03727Y03138*
X03725Y03139*
X03724Y03139*
X03723*
X03721Y03139*
X0372Y03138*
X03718Y03138*
X03717Y03138*
X03716Y03137*
X03715Y03137*
X03713Y03136*
X03712Y03135*
X03711Y03134*
X0371Y03134*
X03709Y03133*
X03708Y03132*
X03707Y03131*
X03707Y03129*
X03706Y03128*
X03705Y03127*
X03705Y03126*
X03704Y03124*
X03704Y03123*
X03704Y03122*
X03704Y0312*
X03704Y03119*
X03704Y03118*
X03704Y03116*
X03704Y03115*
X03704Y03114*
X03705Y03112*
X03705Y03111*
X03706Y0311*
X03707Y03109*
X03707Y03107*
X03708Y03106*
X03709Y03105*
X0371Y03104*
X03711Y03103*
X03712Y03103*
X03713Y03102*
X03715Y03101*
X03716Y03101*
X03717Y031*
X03718Y031*
X0372Y031*
X03721Y03099*
X03723Y03099*
X03724*
X03725Y03099*
X03727Y031*
X03728Y031*
X03729Y031*
X03731Y03101*
X03732Y03101*
X03733Y03102*
X03734Y03103*
X03735Y03103*
X03736Y03104*
X03737Y03105*
X03738Y03106*
X03739Y03107*
X0374Y03109*
X03741Y0311*
X03741Y03111*
X03742Y03112*
X03742Y03114*
X03742Y03115*
X03743Y03116*
X03743Y03118*
X03743Y03119*
X0374Y03282D02*
Y03488D01*
Y03508D02*
Y03531D01*
X03724Y03486D02*
Y03511D01*
X0374Y03508*
X03724Y03486D02*
X0374Y03488D01*
Y0324D02*
Y03262D01*
X03724Y03285D02*
X0374Y03282D01*
X03724Y0326D02*
X0374Y03262D01*
X03724Y0326D02*
Y03285D01*
X04015Y0324D02*
Y03531D01*
X0374Y0324D02*
X04015D01*
X0374Y03531D02*
X04015D01*
X03688Y01765D02*
X03971D01*
X03688Y03154D02*
X03971D01*
Y01765D02*
Y03154D01*
X03688Y01765D02*
Y03154D01*
M02*