%FSTAX23Y23*%
%MOIN*%
%SFA1B1*%

%IPPOS*%
%ADD10R,0.059055X0.062992*%
%ADD11R,0.059055X0.043307*%
%ADD12R,0.035433X0.047244*%
%ADD13C,0.031496*%
%ADD14C,0.076772*%
%ADD15R,0.076772X0.076772*%
%ADD16C,0.059055*%
%ADD17R,0.059055X0.059055*%
%ADD18C,0.050000*%
%LNpcb2_copper_signal_top-1*%
%LPD*%
G36*
X0561Y01D02*
X02657D01*
Y0369*
X0561*
Y01*
G37*
%LNpcb2_copper_signal_top-2*%
%LPC*%
G36*
X03857Y03422D02*
X03814D01*
Y03379*
X03857*
Y03422*
G37*
G36*
X03804D02*
X0376D01*
Y03379*
X03804*
Y03422*
G37*
G36*
X03857Y03369D02*
X03814D01*
Y03325*
X03857*
Y03369*
G37*
G36*
X03804D02*
X0376D01*
Y03325*
X03804*
Y03369*
G37*
G36*
X03719Y03149D02*
X0364D01*
Y0307*
X03719*
Y03149*
G37*
G36*
X0398Y03149D02*
X03969Y03148D01*
X0396Y03144*
X03951Y03138*
X03945Y03129*
X03941Y0312*
X0394Y0311*
X03941Y03099*
X03945Y0309*
X03951Y03081*
X0396Y03075*
X03969Y03071*
X0398Y0307*
X0399Y03071*
X03999Y03075*
X04008Y03081*
X04014Y0309*
X04018Y03099*
X04019Y0311*
X04018Y0312*
X04014Y03129*
X04008Y03138*
X03999Y03144*
X0399Y03148*
X0398Y03149*
G37*
G36*
X02962Y03094D02*
X02928D01*
Y03058*
X02962*
Y03094*
G37*
G36*
X02918D02*
X02883D01*
Y03058*
X02918*
Y03094*
G37*
G36*
X02962Y03048D02*
X02928D01*
Y03011*
X02962*
Y03048*
G37*
G36*
X02918D02*
X02883D01*
Y03011*
X02918*
Y03048*
G37*
G36*
X04978Y0304D02*
X04899D01*
Y02977*
X04978*
Y0304*
G37*
G36*
X04628D02*
X04549D01*
Y02977*
X04628*
Y0304*
G37*
G36*
X0398Y03049D02*
X03969Y03048D01*
X0396Y03044*
X03951Y03038*
X03945Y03029*
X03941Y0302*
X0394Y0301*
X03941Y02999*
X03945Y0299*
X03951Y02981*
X0396Y02975*
X03969Y02971*
X0398Y0297*
X0399Y02971*
X03999Y02975*
X04008Y02981*
X04014Y0299*
X04018Y02999*
X04019Y0301*
X04018Y0302*
X04014Y03029*
X04008Y03038*
X03999Y03044*
X0399Y03048*
X0398Y03049*
G37*
G36*
X0368D02*
X03669Y03048D01*
X0366Y03044*
X03651Y03038*
X0365Y03035*
X036*
X03593Y03035*
X03587Y03032*
X03582Y03028*
X03514Y0296*
X03428*
Y02968*
X03372*
Y02901*
X03428*
Y02909*
X03525*
X03532Y02909*
X03538Y02912*
X03543Y02916*
X03611Y02984*
X0365*
X03651Y02981*
X0366Y02975*
X03669Y02971*
X0368Y0297*
X0369Y02971*
X03699Y02975*
X03708Y02981*
X03714Y0299*
X03718Y02999*
X03719Y0301*
X03718Y0302*
X03714Y03029*
X03708Y03038*
X03699Y03044*
X0369Y03048*
X0368Y03049*
G37*
G36*
X02962Y02952D02*
X02928D01*
Y02915*
X02962*
Y02952*
G37*
G36*
X02918D02*
X02883D01*
Y02915*
X02918*
Y02952*
G37*
G36*
X03104Y03094D02*
X03025D01*
Y03011*
X03104*
Y03027*
X03117*
X03227Y02916*
X03233Y02912*
X03239Y02909*
X03246Y02909*
X0329*
Y02901*
X03345*
Y02968*
X0329*
Y0296*
X03256*
X03146Y03071*
X03141Y03075*
X03134Y03078*
X03128Y03079*
X03104*
Y03094*
G37*
G36*
X04978Y0294D02*
X04899D01*
Y02877*
X04978*
Y0294*
G37*
G36*
X04628D02*
X04549D01*
Y02877*
X04628*
Y0294*
G37*
G36*
X0398Y02949D02*
X03969Y02948D01*
X0396Y02944*
X03951Y02938*
X03945Y02929*
X03941Y0292*
X0394Y0291*
X03941Y02899*
X03945Y0289*
X03951Y02881*
X0396Y02875*
X03969Y02871*
X0398Y0287*
X0399Y02871*
X03999Y02875*
X04008Y02881*
X04014Y0289*
X04018Y02899*
X04019Y0291*
X04018Y0292*
X04014Y02929*
X04008Y02938*
X03999Y02944*
X0399Y02948*
X0398Y02949*
G37*
G36*
X0368D02*
X03669Y02948D01*
X0366Y02944*
X03651Y02938*
X03646Y0293*
X03613*
X03606Y02929*
X036Y02927*
X03595Y02923*
X03515Y02843*
X03428*
Y02851*
X03372*
Y02784*
X03428*
Y02791*
X03526*
X03533Y02792*
X03539Y02795*
X03541Y02791*
X03524Y02774*
X0352Y02768*
X03518Y02762*
X03517Y02755*
Y02729*
X03514Y02726*
X03428*
Y02734*
X03372*
Y02667*
X03428*
Y02674*
X03524*
X03531Y02675*
X03537Y02678*
X03543Y02682*
X03561Y027*
X03565Y02706*
X03568Y02712*
X03569Y02719*
Y02745*
X03608Y02784*
X0365*
X03651Y02781*
X0366Y02775*
X03669Y02771*
X0368Y0277*
X0369Y02771*
X03699Y02775*
X03708Y02781*
X03714Y0279*
X03718Y02799*
X03719Y0281*
X03718Y0282*
X03714Y02829*
X03708Y02838*
X03699Y02844*
X0369Y02848*
X0368Y02849*
X03669Y02848*
X0366Y02844*
X03651Y02838*
X0365Y02835*
X03597*
X0359Y02835*
X03584Y02832*
X03582Y02836*
X03624Y02878*
X03655*
X0366Y02875*
X03669Y02871*
X0368Y0287*
X0369Y02871*
X03699Y02875*
X03708Y02881*
X03714Y0289*
X03718Y02899*
X03719Y0291*
X03718Y0292*
X03714Y02929*
X03708Y02938*
X03699Y02944*
X0369Y02948*
X0368Y02949*
G37*
G36*
X02962Y02905D02*
X02928D01*
Y02869*
X02962*
Y02905*
G37*
G36*
X02918D02*
X02883D01*
Y02869*
X02918*
Y02905*
G37*
G36*
X04389Y02869D02*
X0438Y02868D01*
X04372Y02865*
X04366Y0286*
X04321*
Y02868*
X04265*
Y02801*
X04321*
Y02808*
X04366*
X04372Y02804*
X0438Y028*
X04389Y02799*
X04398Y028*
X04407Y02804*
X04413Y02808*
X04544*
X04549Y02803*
Y02777*
X04628*
Y0284*
X04585*
X04573Y02853*
X04568Y02857*
X04561Y02859*
X04555Y0286*
X04413*
X04407Y02865*
X04398Y02868*
X04389Y02869*
G37*
G36*
X04978Y0284D02*
X04943D01*
Y02814*
X04978*
Y0284*
G37*
G36*
X04933D02*
X04899D01*
Y02814*
X04933*
Y0284*
G37*
G36*
X03104Y02952D02*
X03025D01*
Y02869*
X03104*
Y02884*
X03141*
X03226Y02799*
X03232Y02795*
X03238Y02792*
X03245Y02791*
X0329*
Y02784*
X03345*
Y02851*
X0329*
Y02843*
X03255*
X0317Y02929*
X03165Y02933*
X03158Y02935*
X03152Y02936*
X03104*
Y02952*
G37*
G36*
X04978Y02804D02*
X04943D01*
Y02777*
X04978*
Y02804*
G37*
G36*
X04933D02*
X04899D01*
Y02777*
X04933*
Y02804*
G37*
G36*
X02962Y0281D02*
X02928D01*
Y02773*
X02962*
Y0281*
G37*
G36*
X02918D02*
X02883D01*
Y02773*
X02918*
Y0281*
G37*
G36*
X0398Y02849D02*
X03969Y02848D01*
X0396Y02844*
X03951Y02838*
X03945Y02829*
X03941Y0282*
X0394Y0281*
X03941Y02799*
X03945Y0279*
X03951Y02781*
X0396Y02775*
X03969Y02771*
X0398Y0277*
X0399Y02771*
X03999Y02775*
X04008Y02781*
X04014Y0279*
X04018Y02799*
X04019Y0281*
X04018Y0282*
X04014Y02829*
X04008Y02838*
X03999Y02844*
X0399Y02848*
X0398Y02849*
G37*
G36*
X04389Y02771D02*
X0438Y0277D01*
X04372Y02766*
X04364Y02761*
X04363Y02759*
X04321*
Y02767*
X04265*
Y02699*
X04321*
Y02707*
X04369*
X04372Y02705*
X0438Y02702*
X04389Y027*
X04398Y02702*
X04407Y02705*
X04409Y02707*
X04545*
X04549Y02703*
Y02677*
X04628*
Y0274*
X04585*
X04574Y02751*
X04569Y02755*
X04563Y02758*
X04556Y02759*
X04416*
X04414Y02761*
X04407Y02766*
X04398Y0277*
X04389Y02771*
G37*
G36*
X02962Y02763D02*
X02928D01*
Y02727*
X02962*
Y02763*
G37*
G36*
X02918D02*
X02883D01*
Y02727*
X02918*
Y02763*
G37*
G36*
X04978Y0274D02*
X04943D01*
Y02714*
X04978*
Y0274*
G37*
G36*
X04933D02*
X04899D01*
Y02714*
X04933*
Y0274*
G37*
G36*
X03946Y03422D02*
X03934Y03421D01*
X03922Y03416*
X03912Y03408*
X03904Y03398*
X03899Y03386*
X03898Y03374*
X03899Y03361*
X03904Y03349*
X03912Y03339*
X03922Y03331*
X03934Y03326*
X03946Y03325*
X03959Y03326*
X03971Y03331*
X03981Y03339*
X03987Y03348*
X04056*
X04107Y03296*
Y02795*
Y02755*
Y02598*
Y02559*
Y02451*
X04092Y02435*
X04009*
X04008Y02438*
X03999Y02444*
X0399Y02448*
X0398Y02449*
X03969Y02448*
X0396Y02444*
X03951Y02438*
X03945Y02429*
X03941Y0242*
X0394Y0241*
X03941Y02399*
X03944Y02393*
X0394Y02388*
X03838*
X03719Y02507*
X03719Y0251*
X03718Y0252*
X03714Y02529*
X03708Y02538*
X03699Y02544*
X0369Y02548*
X0368Y02549*
X03669Y02548*
X0366Y02544*
X03654Y0254*
X03652Y02538*
X03649Y02542*
X03677Y0257*
X0368Y0257*
X0369Y02571*
X03699Y02575*
X03708Y02581*
X03714Y0259*
X03718Y02599*
X03719Y0261*
X03718Y0262*
X03714Y02629*
X03708Y02638*
X03699Y02644*
X0369Y02648*
X0368Y02649*
X03669Y02648*
X0366Y02644*
X03651Y02638*
X03645Y02629*
X03641Y0262*
X0364Y0261*
X0364Y02607*
X03525Y02492*
X03428*
Y025*
X03372*
Y02432*
X03428*
Y0244*
X03536*
X03543Y02441*
X03549Y02443*
X03554Y02448*
X03647Y0254*
X03651Y02537*
X03649Y02535*
X03645Y02529*
X03641Y0252*
X0364Y0251*
X03641Y02499*
X03645Y0249*
X03651Y02481*
X0366Y02475*
X03669Y02471*
X0368Y0247*
X03682Y0247*
X0371Y02442*
X03707Y02438*
X03705Y0244*
X03699Y02444*
X0369Y02448*
X03685Y02449*
Y02415*
X03719*
X03718Y0242*
X03714Y02429*
X0371Y02435*
X03708Y02437*
X03712Y0244*
X03809Y02343*
X03814Y02339*
X03821Y02337*
X03827Y02336*
X03944*
X03946Y02331*
X03945Y02329*
X03941Y0232*
X0394Y0231*
X03941Y02299*
X03945Y0229*
X03951Y02281*
X0396Y02275*
X03969Y02271*
X0398Y0227*
X0399Y02271*
X03999Y02275*
X04008Y02281*
X04009Y02284*
X04096*
X04107Y02272*
Y02244*
Y02165*
X04108Y02158*
X04111Y02152*
X04115Y02146*
X04146Y02115*
X04152Y02111*
X04158Y02108*
X04165Y02107*
X04182*
Y02092*
X04238*
Y02159*
X0421*
X04208Y02159*
X04176*
X04159Y02176*
Y02201*
X04182*
Y02193*
X04238*
Y0226*
X04182*
Y02253*
X04161*
X04159Y02254*
Y02283*
Y0231*
X04182*
Y02294*
X04238*
Y02362*
X0421*
X04208Y02362*
X0417*
X04159Y02372*
Y0239*
X04172Y02403*
X04182*
Y02396*
X04238*
Y02463*
X04182*
Y02455*
X04161*
X04159Y02457*
Y02503*
X04161Y02504*
X04182*
Y02497*
X04238*
Y02564*
X04182*
Y02556*
X04172*
X04159Y02569*
Y02587*
X0417Y02598*
X04208*
X0421Y02598*
X04238*
Y02665*
X04182*
Y0265*
X04159*
Y02729*
X04177*
X04182Y02724*
Y02699*
X04238*
Y02767*
X04213*
X04206Y02774*
X04201Y02778*
X04194Y0278*
X04188Y02781*
X04164*
X04162Y02786*
X04176Y028*
X04208*
X0421Y02801*
X04238*
Y02834*
X04238Y02836*
X04238Y02838*
Y02868*
X04182*
Y02852*
X04165*
X04163Y02852*
X04159Y02855*
Y03307*
X04158Y03313*
X04156Y0332*
X04152Y03325*
X04085Y03392*
X04079Y03396*
X04073Y03399*
X04066Y03399*
X03987*
X03981Y03408*
X03971Y03416*
X03959Y03421*
X03946Y03422*
G37*
G36*
X04978Y02704D02*
X04943D01*
Y02677*
X04978*
Y02704*
G37*
G36*
X04933D02*
X04899D01*
Y02677*
X04933*
Y02704*
G37*
G36*
X0398Y02749D02*
X03969Y02748D01*
X0396Y02744*
X03951Y02738*
X03945Y02729*
X03941Y0272*
X0394Y0271*
X03941Y02699*
X03945Y0269*
X03951Y02681*
X0396Y02675*
X03969Y02671*
X0398Y0267*
X0399Y02671*
X03999Y02675*
X04008Y02681*
X04014Y0269*
X04018Y02699*
X04019Y0271*
X04018Y0272*
X04014Y02729*
X04008Y02738*
X03999Y02744*
X0399Y02748*
X0398Y02749*
G37*
G36*
X0368D02*
X03669Y02748D01*
X0366Y02744*
X03651Y02738*
X03646Y0273*
X03628*
X03621Y02729*
X03615Y02727*
X0361Y02723*
X03603Y02716*
X03599Y02711*
X03596Y02704*
X03596Y02698*
Y02687*
X03517Y02609*
X03428*
Y02617*
X03372*
Y02549*
X03428*
Y02557*
X03528*
X03535Y02558*
X03541Y02561*
X03546Y02565*
X0364Y02658*
X03644Y02664*
X03647Y0267*
X03648Y02677*
Y02678*
X03655*
X0366Y02675*
X03669Y02671*
X0368Y0267*
X0369Y02671*
X03699Y02675*
X03708Y02681*
X03714Y0269*
X03718Y02699*
X03719Y0271*
X03718Y0272*
X03714Y02729*
X03708Y02738*
X03699Y02744*
X0369Y02748*
X0368Y02749*
G37*
G36*
X03104Y0281D02*
X03025D01*
Y02727*
X03069*
X03114Y02682*
X0312Y02678*
X03126Y02675*
X03133Y02674*
X0329*
Y02667*
X03345*
Y02734*
X0329*
Y02726*
X03143*
X03104Y02765*
Y0281*
G37*
G36*
X04409Y02673D02*
X044Y02671D01*
X04391Y02668*
X04384Y02662*
X0438Y02658*
X04321*
Y02665*
X04265*
Y02598*
X04321*
Y02606*
X04394*
X044Y02603*
X04409Y02602*
X04418Y02603*
X04424Y02606*
X04546*
X04549Y02603*
Y02577*
X04628*
Y0264*
X04585*
X04575Y0265*
X0457Y02654*
X04564Y02657*
X04557Y02658*
X04437*
X04434Y02662*
X04427Y02668*
X04418Y02671*
X04409Y02673*
G37*
G36*
X02962Y02668D02*
X02928D01*
Y02631*
X02962*
Y02668*
G37*
G36*
X02918D02*
X02883D01*
Y02631*
X02918*
Y02668*
G37*
G36*
X04978Y0264D02*
X04943D01*
Y02614*
X04978*
Y0264*
G37*
G36*
X04933D02*
X04899D01*
Y02614*
X04933*
Y0264*
G37*
G36*
X02962Y02621D02*
X02928D01*
Y02585*
X02962*
Y02621*
G37*
G36*
X02918D02*
X02883D01*
Y02585*
X02918*
Y02621*
G37*
G36*
X04978Y02604D02*
X04943D01*
Y02577*
X04978*
Y02604*
G37*
G36*
X04933D02*
X04899D01*
Y02577*
X04933*
Y02604*
G37*
G36*
X0398Y02649D02*
X03969Y02648D01*
X0396Y02644*
X03951Y02638*
X03945Y02629*
X03941Y0262*
X0394Y0261*
X03941Y02599*
X03945Y0259*
X03951Y02581*
X0396Y02575*
X03969Y02571*
X0398Y0257*
X0399Y02571*
X03999Y02575*
X04008Y02581*
X04014Y0259*
X04018Y02599*
X04019Y0261*
X04018Y0262*
X04014Y02629*
X04008Y02638*
X03999Y02644*
X0399Y02648*
X0398Y02649*
G37*
G36*
X04429Y02574D02*
X04419Y02573D01*
X04411Y02569*
X04404Y02564*
X04398Y02557*
X04398Y02556*
X04321*
Y02564*
X04265*
Y02497*
X04321*
Y02504*
X04422*
X04429Y02504*
X04435Y02504*
X04548*
X04549Y02503*
Y02477*
X04628*
Y0254*
X04585*
X04577Y02549*
X04571Y02553*
X04565Y02556*
X04558Y02556*
X04459*
X04459Y02557*
X04454Y02564*
X04446Y02569*
X04438Y02573*
X04429Y02574*
G37*
G36*
X03104Y02668D02*
X03025D01*
Y02585*
X03104*
Y026*
X03189*
X03209Y0258*
X03215Y02575*
X03221Y02573*
X03228Y02572*
X0329*
Y02549*
X03345*
Y02617*
X0332*
X03316Y0262*
X03309Y02623*
X03303Y02624*
X03239*
X03218Y02644*
X03213Y02649*
X03206Y02651*
X032Y02652*
X03104*
Y02668*
G37*
G36*
X03985Y02549D02*
Y02515D01*
X04019*
X04018Y0252*
X04014Y02529*
X04008Y02538*
X03999Y02544*
X0399Y02548*
X03985Y02549*
G37*
G36*
X03975D02*
X03969Y02548D01*
X0396Y02544*
X03951Y02538*
X03945Y02529*
X03941Y0252*
X0394Y02515*
X03975*
Y02549*
G37*
G36*
X04978Y0254D02*
X04943D01*
Y02514*
X04978*
Y0254*
G37*
G36*
X04933D02*
X04899D01*
Y02514*
X04933*
Y0254*
G37*
G36*
X02962Y02525D02*
X02928D01*
Y02489*
X02962*
Y02525*
G37*
G36*
X02918D02*
X02883D01*
Y02489*
X02918*
Y02525*
G37*
G36*
X04978Y02504D02*
X04943D01*
Y02477*
X04978*
Y02504*
G37*
G36*
X04933D02*
X04899D01*
Y02477*
X04933*
Y02504*
G37*
G36*
X04019Y02505D02*
X03985D01*
Y0247*
X0399Y02471*
X03999Y02475*
X04008Y02481*
X04014Y0249*
X04018Y02499*
X04019Y02505*
G37*
G36*
X03975D02*
X0394D01*
X03941Y02499*
X03945Y0249*
X03951Y02481*
X0396Y02475*
X03969Y02471*
X03975Y0247*
Y02505*
G37*
G36*
X04389Y02476D02*
X0438Y02475D01*
X04372Y02471*
X04364Y02465*
X04359Y02458*
X04357Y02455*
X04321*
Y02463*
X04265*
Y02396*
X04321*
Y02403*
X04549*
Y02377*
X04628*
Y0244*
X04585*
X04578Y02448*
X04573Y02452*
X04566Y02454*
X0456Y02455*
X04421*
X0442Y02458*
X04414Y02465*
X04407Y02471*
X04398Y02475*
X04389Y02476*
G37*
G36*
X02962Y02479D02*
X02928D01*
Y02442*
X02962*
Y02479*
G37*
G36*
X02918D02*
X02883D01*
Y02442*
X02918*
Y02479*
G37*
G36*
X03104Y02525D02*
X03025D01*
Y02442*
X03104*
X03109Y02445*
X03111Y02443*
X03117Y02441*
X03124Y0244*
X0329*
Y02432*
X03345*
Y025*
X0329*
Y02492*
X03134*
X03128Y02498*
X03123Y02502*
X03116Y02505*
X0311Y02506*
X03104*
Y02525*
G37*
G36*
X03675Y02449D02*
X03669Y02448D01*
X0366Y02444*
X03651Y02438*
X03645Y02429*
X03641Y0242*
X0364Y02415*
X03675*
Y02449*
G37*
G36*
X04978Y0244D02*
X04943D01*
Y02414*
X04978*
Y0244*
G37*
G36*
X04933D02*
X04899D01*
Y02414*
X04933*
Y0244*
G37*
G36*
X04978Y02404D02*
X04943D01*
Y02377*
X04978*
Y02404*
G37*
G36*
X04933D02*
X04899D01*
Y02377*
X04933*
Y02404*
G37*
G36*
X03719Y02405D02*
X03685D01*
Y0237*
X0369Y02371*
X03699Y02375*
X03708Y02381*
X03714Y0239*
X03718Y02399*
X03719Y02405*
G37*
G36*
X03675D02*
X0364D01*
X03641Y02399*
X03645Y0239*
X03651Y02381*
X0366Y02375*
X03669Y02371*
X03675Y0237*
Y02405*
G37*
G36*
X02962Y02383D02*
X02928D01*
Y02347*
X02962*
Y02383*
G37*
G36*
X02918D02*
X02883D01*
Y02347*
X02918*
Y02383*
G37*
G36*
X03104D02*
X03025D01*
Y023*
X03104*
Y02319*
X0329*
Y02315*
X03345*
Y02382*
X0329*
Y02371*
X03104*
Y02383*
G37*
G36*
X04978Y0234D02*
X04943D01*
Y02314*
X04978*
Y0234*
G37*
G36*
X04933D02*
X04899D01*
Y02314*
X04933*
Y0234*
G37*
G36*
X02962Y02337D02*
X02928D01*
Y023*
X02962*
Y02337*
G37*
G36*
X02918D02*
X02883D01*
Y023*
X02918*
Y02337*
G37*
G36*
X04978Y02304D02*
X04943D01*
Y02277*
X04978*
Y02304*
G37*
G36*
X04933D02*
X04899D01*
Y02277*
X04933*
Y02304*
G37*
G36*
X04321Y02362D02*
X04265D01*
Y02294*
X04321*
Y02302*
X04361*
X04364Y02297*
X04372Y02292*
X0438Y02288*
X04389Y02287*
X04398Y02288*
X04407Y02292*
X04414Y02297*
X04418Y02302*
X04549*
Y02277*
X04628*
Y0234*
X04585*
X04579Y02346*
X04574Y0235*
X04568Y02353*
X04561Y02354*
X04404*
X04398Y02356*
X04389Y02358*
X0438Y02356*
X04374Y02354*
X04321*
Y02362*
G37*
G36*
X0368Y02349D02*
X03669Y02348D01*
X0366Y02344*
X03651Y02338*
X03645Y02329*
X03641Y0232*
X0364Y0231*
X03641Y02299*
X03645Y0229*
X03651Y02281*
X0366Y02275*
X03669Y02271*
X0368Y0227*
X0369Y02271*
X03699Y02275*
X03708Y02281*
X03714Y0229*
X03718Y02299*
X03719Y0231*
X03718Y0232*
X03714Y02329*
X03708Y02338*
X03699Y02344*
X0369Y02348*
X0368Y02349*
G37*
G36*
X03345Y02265D02*
X0329D01*
Y02258*
X03177*
X0317Y02257*
X03164Y02254*
X03158Y0225*
X03134Y02226*
X03104*
Y02241*
X03025*
Y02158*
X03104*
Y02174*
X03145*
X03151Y02175*
X03158Y02177*
X03163Y02181*
X03187Y02206*
X0329*
Y02198*
X03345*
Y02265*
G37*
G36*
X04978Y0224D02*
X04943D01*
Y02214*
X04978*
Y0224*
G37*
G36*
X04933D02*
X04899D01*
Y02214*
X04933*
Y0224*
G37*
G36*
X02962Y02241D02*
X02928D01*
Y02205*
X02962*
Y02241*
G37*
G36*
X02918D02*
X02883D01*
Y02205*
X02918*
Y02241*
G37*
G36*
X04978Y02204D02*
X04943D01*
Y02177*
X04978*
Y02204*
G37*
G36*
X04933D02*
X04899D01*
Y02177*
X04933*
Y02204*
G37*
G36*
X04321Y0226D02*
X04265D01*
Y02193*
X04321*
Y02201*
X04422*
X04423Y02199*
X04431Y02193*
X04439Y0219*
X04448Y02189*
X04457Y0219*
X04466Y02193*
X04473Y02199*
X04475Y02201*
X04549*
Y02177*
X04628*
Y0224*
X04585*
X0458Y02245*
X04575Y02249*
X04569Y02252*
X04562Y02253*
X04468*
X04466Y02254*
X04457Y02258*
X04448Y02259*
X04439Y02258*
X04431Y02254*
X04428Y02253*
X04321*
Y0226*
G37*
G36*
X0398Y02249D02*
X03969Y02248D01*
X0396Y02244*
X03951Y02238*
X03945Y02229*
X03941Y0222*
X0394Y0221*
X03941Y02199*
X03945Y0219*
X03951Y02181*
X0396Y02175*
X03969Y02171*
X0398Y0217*
X0399Y02171*
X03999Y02175*
X04008Y02181*
X04014Y0219*
X04018Y02199*
X04019Y0221*
X04018Y0222*
X04014Y02229*
X04008Y02238*
X03999Y02244*
X0399Y02248*
X0398Y02249*
G37*
G36*
X02962Y02195D02*
X02928D01*
Y02158*
X02962*
Y02195*
G37*
G36*
X02918D02*
X02883D01*
Y02158*
X02918*
Y02195*
G37*
G36*
X04978Y0214D02*
X04943D01*
Y02114*
X04978*
Y0214*
G37*
G36*
X04933D02*
X04899D01*
Y02114*
X04933*
Y0214*
G37*
G36*
X03345Y02148D02*
X0329D01*
Y0214*
X03217*
X0321Y0214*
X03204Y02137*
X03198Y02133*
X03149Y02084*
X03104*
Y02099*
X03025*
Y02016*
X03104*
Y02032*
X0316*
X03167Y02032*
X03173Y02035*
X03178Y02039*
X03228Y02089*
X0329*
Y02081*
X03345*
Y02148*
G37*
G36*
X03428Y02382D02*
X03372D01*
Y02315*
X034*
X03402Y02315*
X03437*
X0364Y02112*
X0364Y0211*
X03641Y02099*
X03645Y0209*
X03649Y02084*
X03651Y02082*
X03647Y02079*
X03483Y02242*
X03478Y02246*
X03472Y02249*
X03465Y0225*
X03428*
Y02265*
X03372*
Y02198*
X03402*
X03402Y02198*
X03454*
X0364Y02012*
X0364Y0201*
X03641Y01999*
X03645Y0199*
X03651Y01981*
X0366Y01975*
X03669Y01971*
X0368Y0197*
X0369Y01971*
X03699Y01975*
X03708Y01981*
X03714Y0199*
X03718Y01999*
X03719Y0201*
X03718Y0202*
X03714Y02029*
X03708Y02038*
X03699Y02044*
X0369Y02048*
X0368Y02049*
X03677Y02049*
X03649Y02077*
X03652Y02081*
X03654Y02079*
X0366Y02075*
X03669Y02071*
X0368Y0207*
X0369Y02071*
X03699Y02075*
X03708Y02081*
X03714Y0209*
X03718Y02099*
X03719Y0211*
X03718Y0212*
X03714Y02129*
X03708Y02138*
X03699Y02144*
X0369Y02148*
X0368Y02149*
X03677Y02149*
X03649Y02177*
X03652Y02181*
X03654Y02179*
X0366Y02175*
X03669Y02171*
X0368Y0217*
X0369Y02171*
X03699Y02175*
X03708Y02181*
X03714Y0219*
X03718Y02199*
X03719Y0221*
X03718Y0222*
X03714Y02229*
X03708Y02238*
X03699Y02244*
X0369Y02248*
X0368Y02249*
X03669Y02248*
X0366Y02244*
X03651Y02238*
X03645Y02229*
X03641Y0222*
X0364Y0221*
X03641Y02199*
X03645Y0219*
X03649Y02184*
X03651Y02182*
X03647Y02179*
X03466Y02359*
X03461Y02363*
X03455Y02366*
X03448Y02367*
X03428*
Y02382*
G37*
G36*
X04978Y02104D02*
X04943D01*
Y02077*
X04978*
Y02104*
G37*
G36*
X04933D02*
X04899D01*
Y02077*
X04933*
Y02104*
G37*
G36*
X04321Y02159D02*
X04265D01*
Y02092*
X04321*
Y021*
X04462*
Y01821*
X04319Y01679*
X03847*
X03719Y01807*
X03719Y0181*
X03718Y0182*
X03714Y01829*
X03708Y01838*
X03699Y01844*
X0369Y01848*
X0368Y01849*
X03669Y01848*
X0366Y01844*
X03651Y01838*
X03645Y01829*
X03641Y0182*
X0364Y0181*
X03641Y01799*
X03645Y0179*
X03651Y01781*
X0366Y01775*
X03669Y01771*
X0368Y0177*
X03682Y0177*
X03818Y01635*
X03823Y01631*
X03829Y01628*
X03836Y01627*
X0433*
X04337Y01628*
X04343Y01631*
X04349Y01635*
X04506Y01792*
X0451Y01798*
X04513Y01804*
X04514Y01811*
Y021*
X04549*
Y02077*
X04628*
Y0214*
X04585*
X04582Y02144*
X04576Y02148*
X0457Y02151*
X04563Y02151*
X04321*
Y02159*
G37*
G36*
X0398Y02149D02*
X03969Y02148D01*
X0396Y02144*
X03951Y02138*
X03945Y02129*
X03941Y0212*
X0394Y0211*
X03941Y02099*
X03945Y0209*
X03951Y02081*
X0396Y02075*
X03969Y02071*
X0398Y0207*
X0399Y02071*
X03999Y02075*
X04008Y02081*
X04014Y0209*
X04018Y02099*
X04019Y0211*
X04018Y0212*
X04014Y02129*
X04008Y02138*
X03999Y02144*
X0399Y02148*
X0398Y02149*
G37*
G36*
X02962Y02099D02*
X02928D01*
Y02063*
X02962*
Y02099*
G37*
G36*
X02918D02*
X02883D01*
Y02063*
X02918*
Y02099*
G37*
G36*
X02962Y02053D02*
X02928D01*
Y02016*
X02962*
Y02053*
G37*
G36*
X02918D02*
X02883D01*
Y02016*
X02918*
Y02053*
G37*
G36*
X0398Y02049D02*
X03969Y02048D01*
X0396Y02044*
X03951Y02038*
X03945Y02029*
X03941Y0202*
X0394Y0201*
X03941Y01999*
X03945Y0199*
X03951Y01981*
X0396Y01975*
X03969Y01971*
X0398Y0197*
X0399Y01971*
X03999Y01975*
X04008Y01981*
X04014Y0199*
X04018Y01999*
X04019Y0201*
X04018Y0202*
X04014Y02029*
X04008Y02038*
X03999Y02044*
X0399Y02048*
X0398Y02049*
G37*
G36*
X05127Y01923D02*
X05108D01*
X05108Y01923*
X05107Y01923*
X05089Y01921*
X05088Y01921*
X05087Y01921*
X05069Y01916*
X05069Y01915*
X05068Y01915*
X05051Y01908*
X0505Y01908*
X0505Y01908*
X05033Y01898*
X05033Y01898*
X05032Y01898*
X05018Y01886*
X05017Y01886*
X05017Y01885*
X05003Y01872*
X05003Y01872*
X05003Y01871*
X04991Y01856*
X04991Y01856*
X0499Y01855*
X04981Y01839*
X04981Y01839*
X04981Y01838*
X04973Y01821*
X04973Y0182*
X04973Y0182*
X04968Y01802*
X04968Y01801*
X04968Y018*
X04966Y01782*
X04966Y01781*
X04965Y0178*
Y01762*
X04966Y01761*
X04966Y01761*
X04968Y01742*
X04968Y01741*
X04968Y01741*
X04973Y01723*
X04973Y01722*
X04973Y01722*
X04981Y01704*
X04981Y01704*
X04981Y01703*
X0499Y01687*
X04991Y01687*
X04991Y01686*
X05003Y01671*
X05003Y01671*
X05003Y0167*
X05017Y01657*
X05017Y01657*
X05018Y01656*
X05032Y01645*
X05033Y01644*
X05033Y01644*
X0505Y01635*
X0505Y01635*
X05051Y01634*
X05068Y01627*
X05069Y01627*
X05069Y01627*
X05087Y01622*
X05088Y01622*
X05089Y01622*
X05107Y01619*
X05108Y01619*
X05108Y01619*
X05127*
X05128Y01619*
X05128Y01619*
X05147Y01622*
X05147Y01622*
X05148Y01622*
X05166Y01627*
X05167Y01627*
X05167Y01627*
X05184Y01634*
X05185Y01635*
X05186Y01635*
X05202Y01644*
X05202Y01644*
X05203Y01645*
X05218Y01656*
X05218Y01657*
X05219Y01657*
X05232Y0167*
X05232Y01671*
X05233Y01671*
X05244Y01686*
X05244Y01687*
X05245Y01687*
X05254Y01703*
X05254Y01704*
X05255Y01704*
X05262Y01722*
X05262Y01722*
X05262Y01723*
X05267Y01741*
X05267Y01741*
X05267Y01742*
X0527Y01761*
X0527Y01761*
X0527Y01762*
Y0178*
X0527Y01781*
X0527Y01782*
X05267Y018*
X05267Y01801*
X05267Y01802*
X05262Y0182*
X05262Y0182*
X05262Y01821*
X05255Y01838*
X05254Y01839*
X05254Y01839*
X05245Y01855*
X05244Y01856*
X05244Y01856*
X05233Y01871*
X05232Y01872*
X05232Y01872*
X05219Y01885*
X05218Y01886*
X05218Y01886*
X05203Y01898*
X05202Y01898*
X05202Y01898*
X05186Y01908*
X05185Y01908*
X05184Y01908*
X05167Y01915*
X05167Y01915*
X05166Y01916*
X05148Y01921*
X05147Y01921*
X05147Y01921*
X05128Y01923*
X05128Y01923*
X05127Y01923*
G37*
G36*
X0398Y01949D02*
X03969Y01948D01*
X0396Y01944*
X03951Y01938*
X03945Y01929*
X03941Y0192*
X0394Y0191*
X03941Y01899*
X03945Y0189*
X03951Y01881*
X0396Y01875*
X03969Y01871*
X0398Y0187*
X0399Y01871*
X03999Y01875*
X04008Y01881*
X04014Y0189*
X04018Y01899*
X04019Y0191*
X04018Y0192*
X04014Y01929*
X04008Y01938*
X03999Y01944*
X0399Y01948*
X0398Y01949*
G37*
G36*
X03428Y02148D02*
X03372D01*
Y02081*
X03428*
Y02089*
X03442*
X03517Y02014*
Y01929*
X03518Y01922*
X0352Y01916*
X03524Y0191*
X03544Y01891*
X03549Y01887*
X03555Y01884*
X03562Y01884*
X0365*
X03651Y01881*
X0366Y01875*
X03669Y01871*
X0368Y0187*
X0369Y01871*
X03699Y01875*
X03708Y01881*
X03714Y0189*
X03718Y01899*
X03719Y0191*
X03718Y0192*
X03714Y01929*
X03708Y01938*
X03699Y01944*
X0369Y01948*
X0368Y01949*
X03669Y01948*
X0366Y01944*
X03651Y01938*
X0365Y01935*
X03573*
X03569Y01939*
Y02025*
X03568Y02031*
X03565Y02038*
X03561Y02043*
X03471Y02133*
X03466Y02137*
X0346Y0214*
X03453Y0214*
X03428*
Y02148*
G37*
G36*
X0398Y01849D02*
X03969Y01848D01*
X0396Y01844*
X03951Y01838*
X03945Y01829*
X03941Y0182*
X0394Y0181*
X03941Y01799*
X03945Y0179*
X03951Y01781*
X0396Y01775*
X03969Y01771*
X0398Y0177*
X0399Y01771*
X03999Y01775*
X04008Y01781*
X04014Y0179*
X04018Y01799*
X04019Y0181*
X04018Y0182*
X04014Y01829*
X04008Y01838*
X03999Y01844*
X0399Y01848*
X0398Y01849*
G37*
G36*
X05246Y01468D02*
X05225D01*
X05225Y01467*
X05224Y01468*
X05203Y01465*
X05203Y01465*
X05202Y01465*
X05182Y01459*
X05181Y01459*
X05181Y01459*
X05161Y01451*
X05161Y0145*
X0516Y0145*
X05142Y0144*
X05142Y01439*
X05141Y01439*
X05125Y01426*
X05124Y01426*
X05124Y01425*
X05109Y01411*
X05109Y0141*
X05108Y0141*
X05095Y01393*
X05095Y01393*
X05095Y01392*
X05084Y01374*
X05084Y01374*
X05084Y01373*
X05076Y01354*
X05076Y01353*
X05075Y01352*
X0507Y01332*
X0507Y01332*
X0507Y01331*
X05067Y0131*
X05067Y0131*
X05067Y01309*
Y01288*
X05067Y01288*
X05067Y01287*
X0507Y01266*
X0507Y01266*
X0507Y01265*
X05075Y01245*
X05076Y01244*
X05076Y01244*
X05084Y01224*
X05084Y01224*
X05084Y01223*
X05095Y01205*
X05095Y01205*
X05095Y01204*
X05108Y01188*
X05109Y01187*
X05109Y01187*
X05124Y01172*
X05124Y01172*
X05125Y01171*
X05141Y01158*
X05142Y01158*
X05142Y01158*
X0516Y01147*
X05161Y01147*
X05161Y01147*
X05181Y01139*
X05181Y01139*
X05182Y01138*
X05202Y01133*
X05203Y01133*
X05203Y01133*
X05224Y0113*
X05225Y0113*
X05225Y0113*
X05246*
X05247Y0113*
X05247Y0113*
X05268Y01133*
X05269Y01133*
X05269Y01133*
X05289Y01138*
X0529Y01139*
X05291Y01139*
X0531Y01147*
X05311Y01147*
X05311Y01147*
X05329Y01158*
X0533Y01158*
X0533Y01158*
X05347Y01171*
X05347Y01172*
X05348Y01172*
X05363Y01187*
X05363Y01187*
X05363Y01188*
X05376Y01204*
X05376Y01205*
X05377Y01205*
X05387Y01223*
X05387Y01224*
X05388Y01224*
X05396Y01244*
X05396Y01244*
X05396Y01245*
X05402Y01265*
X05402Y01266*
X05402Y01266*
X05405Y01287*
X05404Y01288*
X05405Y01288*
Y01309*
X05404Y0131*
X05405Y0131*
X05402Y01331*
X05402Y01332*
X05402Y01332*
X05396Y01352*
X05396Y01353*
X05396Y01354*
X05388Y01373*
X05387Y01374*
X05387Y01374*
X05377Y01392*
X05376Y01393*
X05376Y01393*
X05363Y0141*
X05363Y0141*
X05363Y01411*
X05348Y01425*
X05347Y01426*
X05347Y01426*
X0533Y01439*
X0533Y01439*
X05329Y0144*
X05311Y0145*
X05311Y0145*
X0531Y01451*
X05291Y01459*
X0529Y01459*
X05289Y01459*
X05269Y01465*
X05269Y01465*
X05268Y01465*
X05247Y01468*
X05247Y01467*
X05246Y01468*
G37*
%LNpcb2_copper_signal_top-3*%
%LPD*%
G54D10*
X03065Y02342D03*
X02923D03*
X03065Y022D03*
X02923D03*
X03065Y02484D03*
X02923D03*
X03065Y02626D03*
X02923D03*
X03065Y02768D03*
X02923D03*
X03065Y03053D03*
X02923D03*
X03065Y0291D03*
X02923D03*
X03065Y02058D03*
X02923D03*
G54D11*
X04588Y02109D03*
Y02209D03*
Y02309D03*
Y02409D03*
Y02509D03*
Y02609D03*
Y02709D03*
Y02809D03*
Y02909D03*
Y03009D03*
X04938D03*
Y02909D03*
Y02809D03*
Y02709D03*
Y02609D03*
Y02509D03*
Y02409D03*
Y02309D03*
Y02209D03*
Y02109D03*
G54D12*
X04293Y02834D03*
X0421D03*
X04293Y02733D03*
X0421D03*
X04293Y02632D03*
X0421D03*
X04293Y0253D03*
X0421D03*
X04293Y02429D03*
X0421D03*
X04293Y02328D03*
X0421D03*
X04293Y02227D03*
X0421D03*
X04293Y02125D03*
X0421D03*
X03317Y02115D03*
X034D03*
X03317Y02232D03*
X034D03*
X03317Y02349D03*
X034D03*
X03317Y02466D03*
X034D03*
X03317Y02583D03*
X034D03*
X03317Y027D03*
X034D03*
X03317Y02817D03*
X034D03*
X03317Y02935D03*
X034D03*
G54D13*
X04293Y02227D02*
X04562D01*
X04293Y02834D02*
X04555D01*
X04293Y02733D02*
X04556D01*
X04293Y02632D02*
X04557D01*
X04107Y0231D02*
X04133Y02283D01*
X0398Y0231D02*
X04107D01*
X0421Y02834D02*
X04212Y02836D01*
X03827Y02362D02*
X04133D01*
X04293Y0253D02*
X04558D01*
X04293Y02429D02*
X0456D01*
X04293Y02328D02*
X04561D01*
X04488Y02125D02*
X04563D01*
X04293D02*
X04488D01*
X0433Y01653D02*
X04488Y01811D01*
Y02125*
X04561Y02328D02*
X0458Y02309D01*
X04588*
X04562Y02227D02*
X0458Y02209D01*
X04588*
X0368Y0181D02*
X03836Y01653D01*
X0433*
X0368Y0251D02*
X03827Y02362D01*
X04133Y02283D02*
Y02362D01*
Y02244D02*
Y02283D01*
Y0244D02*
Y02559D01*
Y02401D02*
Y0244D01*
Y02401D02*
X04161Y02429D01*
X04102Y0241D02*
X04133Y0244D01*
X0398Y0241D02*
X04102D01*
X04133Y02795D02*
Y03307D01*
Y02755D02*
Y02795D01*
X04165Y02826D02*
X04208D01*
X0421Y02828D02*
Y02834D01*
X04208Y02826D02*
X0421Y02828D01*
X04133Y02795D02*
X04165Y02826D01*
X04133Y02598D02*
Y02755D01*
X04208Y02741D02*
X0421Y02739D01*
Y02733D02*
Y02739D01*
X04202Y02741D02*
X04208D01*
X04188Y02755D02*
X04202Y02741D01*
X04133Y02755D02*
X04188D01*
X04133Y02559D02*
Y02598D01*
X04159Y02624D02*
X04208D01*
X04133Y02598D02*
X04159Y02624D01*
X0421Y02626D02*
Y02632D01*
X04208Y02624D02*
X0421Y02626D01*
X04133Y02559D02*
X04161Y0253D01*
X0421*
X04133Y02362D02*
Y02401D01*
X04161Y02429D02*
X0421D01*
X04208Y02336D02*
X0421Y02334D01*
X04159Y02336D02*
X04208D01*
X04133Y02362D02*
X04159Y02336D01*
X0421Y02328D02*
Y02334D01*
X04133Y02165D02*
Y02244D01*
X0415Y02227D02*
X0421D01*
X04133Y02244D02*
X0415Y02227D01*
X04133Y02165D02*
X04165Y02133D01*
X0421Y02125D02*
Y02131D01*
X04208Y02133D02*
X0421Y02131D01*
X04165Y02133D02*
X04208D01*
X03927Y03374D02*
X04066D01*
X04133Y03307*
X04563Y02125D02*
X0458Y02109D01*
X04588*
X0456Y02429D02*
X0458Y02409D01*
X04588*
X04558Y0253D02*
X0458Y02509D01*
X04588*
X04557Y02632D02*
X0458Y02609D01*
X04588*
X04556Y02733D02*
X0458Y02709D01*
X04588*
X04555Y02834D02*
X0458Y02809D01*
X04588*
X034Y02343D02*
X03402Y02341D01*
X03448D02*
X0368Y0211D01*
X03402Y02341D02*
X03448D01*
X034Y02343D02*
Y02349D01*
Y02226D02*
Y02232D01*
X03465Y02224D02*
X0368Y0201D01*
X03402Y02224D02*
X03465D01*
X034Y02226D02*
X03402Y02224D01*
X03562Y0191D02*
X0368D01*
X03543Y01929D02*
X03562Y0191D01*
X03543Y01929D02*
Y02025D01*
X03453Y02115D02*
X03543Y02025D01*
X034Y02115D02*
X03453D01*
X03536Y02466D02*
X0368Y0261D01*
X034Y02466D02*
X03536D01*
X03674Y02704D02*
X0368Y0271D01*
X03628Y02704D02*
X03674D01*
X03622Y02698D02*
X03628Y02704D01*
X03622Y02677D02*
Y02698D01*
X03528Y02583D02*
X03622Y02677D01*
X03524Y027D02*
X03543Y02719D01*
Y02755D02*
X03597Y0281D01*
X03543Y02719D02*
Y02755D01*
X034Y027D02*
X03524D01*
X034Y02583D02*
X03528D01*
X03597Y0281D02*
X0368D01*
X03526Y02817D02*
X03613Y02904D01*
X03674D02*
X0368Y0291D01*
X03613Y02904D02*
X03674D01*
X034Y02817D02*
X03526D01*
X034Y02935D02*
X03525D01*
X036Y0301*
X0368*
X0316Y02058D02*
X03217Y02115D01*
X03317*
X03065Y02058D02*
X0316D01*
X03177Y02232D02*
X03317D01*
X03145Y022D02*
X03177Y02232D01*
X03065Y022D02*
X03145D01*
X03315Y02345D02*
X03317Y02347D01*
Y02349*
X03068Y02345D02*
X03315D01*
X03065Y02342D02*
X03068Y02345D01*
X03069Y0248D02*
X0311D01*
X03065Y02484D02*
X03069Y0248D01*
X0311D02*
X03124Y02466D01*
X03317*
X03228Y02598D02*
X03303D01*
X03317Y02583D02*
Y02589D01*
X03315Y02591D02*
X03317Y02589D01*
X0331Y02591D02*
X03315D01*
X03303Y02598D02*
X0331Y02591D01*
X03065Y02626D02*
X032D01*
X03228Y02598*
X0308Y02752D02*
X03133Y027D01*
X03317*
X03065Y02766D02*
Y02768D01*
Y02766D02*
X03078Y02752D01*
X0308*
X03245Y02817D02*
X03317D01*
X03152Y0291D02*
X03245Y02817D01*
X03065Y0291D02*
X03152D01*
X03246Y02935D02*
X03317D01*
X03128Y03053D02*
X03246Y02935D01*
X03065Y03053D02*
X03128D01*
G54D14*
X03946Y03374D03*
G54D15*
X03809Y03374D03*
G54D16*
X0398Y0181D03*
Y0191D03*
Y0201D03*
Y0211D03*
Y0221D03*
Y0231D03*
Y0241D03*
Y0251D03*
Y0261D03*
Y0271D03*
Y0281D03*
Y0291D03*
Y0301D03*
Y0311D03*
X0368Y0181D03*
Y0191D03*
Y0201D03*
Y0211D03*
Y0221D03*
Y0231D03*
Y0241D03*
Y0251D03*
Y0261D03*
Y0271D03*
Y0281D03*
Y0291D03*
Y0301D03*
G54D17*
X0368Y0311D03*
G54D18*
X04389Y02834D03*
Y02736D03*
X04409Y02637D03*
X04429Y02539D03*
X04389Y0244D03*
Y02322D03*
X04448Y02224D03*
M02*