%FSTAX23Y23*%
%MOIN*%
%SFA1B1*%

%IPPOS*%
%ADD38C,0.005000*%
%LNpcb2_drillmap_1-1*%
%LPD*%
G54D38*
X03921Y03374D02*
X03972D01*
X03946Y03348D02*
Y03399D01*
X03783Y03374D02*
X03834D01*
X03809Y03348D02*
Y03399D01*
X03962Y0181D02*
X03997D01*
X0398Y01792D02*
Y01827D01*
X03962Y0191D02*
X03997D01*
X0398Y01892D02*
Y01927D01*
X03962Y0201D02*
X03997D01*
X0398Y01992D02*
Y02027D01*
X03962Y0211D02*
X03997D01*
X0398Y02092D02*
Y02127D01*
X03962Y0221D02*
X03997D01*
X0398Y02192D02*
Y02227D01*
X03962Y0231D02*
X03997D01*
X0398Y02292D02*
Y02327D01*
X03962Y0241D02*
X03997D01*
X0398Y02392D02*
Y02427D01*
X03962Y0251D02*
X03997D01*
X0398Y02492D02*
Y02527D01*
X03962Y0261D02*
X03997D01*
X0398Y02592D02*
Y02627D01*
X03962Y0271D02*
X03997D01*
X0398Y02692D02*
Y02727D01*
X03962Y0281D02*
X03997D01*
X0398Y02792D02*
Y02827D01*
X03962Y0291D02*
X03997D01*
X0398Y02892D02*
Y02927D01*
X03962Y0301D02*
X03997D01*
X0398Y02992D02*
Y03027D01*
X03962Y0311D02*
X03997D01*
X0398Y03092D02*
Y03127D01*
X03662Y0181D02*
X03697D01*
X0368Y01792D02*
Y01827D01*
X03662Y0191D02*
X03697D01*
X0368Y01892D02*
Y01927D01*
X03662Y0201D02*
X03697D01*
X0368Y01992D02*
Y02027D01*
X03662Y0211D02*
X03697D01*
X0368Y02092D02*
Y02127D01*
X03662Y0221D02*
X03697D01*
X0368Y02192D02*
Y02227D01*
X03662Y0231D02*
X03697D01*
X0368Y02292D02*
Y02327D01*
X03662Y0241D02*
X03697D01*
X0368Y02392D02*
Y02427D01*
X03662Y0251D02*
X03697D01*
X0368Y02492D02*
Y02527D01*
X03662Y0261D02*
X03697D01*
X0368Y02592D02*
Y02627D01*
X03662Y0271D02*
X03697D01*
X0368Y02692D02*
Y02727D01*
X03662Y0281D02*
X03697D01*
X0368Y02792D02*
Y02827D01*
X03662Y0291D02*
X03697D01*
X0368Y02892D02*
Y02927D01*
X03662Y0301D02*
X03697D01*
X0368Y02992D02*
Y03027D01*
X03662Y0311D02*
X03697D01*
X0368Y03092D02*
Y03127D01*
X04375Y02834D02*
X04403D01*
X04389Y0282D02*
Y02848D01*
X04375Y02736D02*
X04403D01*
X04389Y02722D02*
Y0275D01*
X04395Y02637D02*
X04423D01*
X04409Y02623D02*
Y02651D01*
X04415Y02539D02*
X04443D01*
X04429Y02525D02*
Y02553D01*
X04375Y0244D02*
X04403D01*
X04389Y02426D02*
Y02454D01*
X04375Y02322D02*
X04403D01*
X04389Y02308D02*
Y02336D01*
X04434Y02224D02*
X04462D01*
X04448Y0221D02*
Y02238D01*
M02*