%FSTAX23Y23*%
%MOIN*%
%SFA1B1*%

%IPPOS*%
%ADD25C,0.009842*%
%ADD26C,0.023622*%
%ADD27C,0.007874*%
%ADD28C,0.010000*%
%LNpcb2_legend_top-1*%
%LPD*%
G36*
X05452Y03376D02*
X05458D01*
Y03375*
X05461*
Y03374*
X05463*
Y03373*
X05465*
Y03372*
X05466*
Y03371*
X05468*
Y0337*
X05469*
Y03369*
X0547*
Y03368*
X05471*
Y03367*
X05472*
Y03365*
X05473*
Y03363*
X05474*
Y0336*
X05475*
Y03358*
X05476*
Y03354*
X05477*
Y03349*
X05478*
Y03335*
X05477*
Y03328*
X05476*
Y03325*
X05475*
Y03323*
X05474*
Y03321*
X05473*
Y03317*
X05474*
Y03316*
X05476*
Y03314*
X05477*
Y03311*
X05476*
Y0331*
X05472*
Y03309*
X05468*
Y03308*
X05464*
Y03307*
X0546*
Y03306*
X05456*
Y03305*
X05453*
Y03304*
X05449*
Y03305*
X05448*
Y03307*
X05449*
Y03308*
X0545*
Y03309*
X05452*
Y0331*
X05453*
Y03311*
X05455*
Y03313*
X05456*
Y03314*
X05457*
Y03316*
X05458*
Y03317*
X05459*
Y03319*
X0546*
Y0332*
X05461*
Y03322*
X05462*
Y03324*
X05463*
Y03326*
X05464*
Y03329*
X05465*
Y03334*
X05466*
Y03348*
X05465*
Y03351*
X05464*
Y03354*
X05463*
Y03355*
X05462*
Y03356*
X05461*
Y03357*
X0546*
Y03358*
X05457*
Y03359*
X05449*
Y03358*
X05447*
Y03357*
X05446*
Y03356*
X05445*
Y03355*
X05444*
Y03353*
X05443*
Y0335*
X05442*
Y03347*
X05441*
Y03341*
X0544*
Y03338*
Y03337*
X05439*
Y03332*
X05438*
Y03327*
X05437*
Y03324*
X05435*
Y03321*
X05434*
Y03319*
X05433*
Y03317*
X05432*
Y03316*
X05431*
Y03313*
X0543*
Y03312*
X05429*
Y03311*
X05427*
Y0331*
X05426*
Y03309*
X05424*
Y03308*
X05422*
Y03307*
X05418*
Y03306*
X05408*
Y03307*
X05405*
Y03308*
X05401*
Y03309*
X05399*
Y0331*
X05398*
Y03311*
X05397*
Y03312*
X05395*
Y03313*
X05394*
Y03316*
X05393*
Y03317*
X05392*
Y03319*
X05391*
Y03321*
X0539*
Y03323*
X05388*
Y03327*
X05387*
Y03334*
X05386*
Y03342*
X05387*
Y03348*
X05388*
Y03352*
X0539*
Y03354*
X05391*
Y03356*
X05392*
Y03359*
X05388*
Y03365*
X05391*
Y03366*
X05395*
Y03367*
X05398*
Y03368*
X05402*
Y03369*
X05406*
Y0337*
X05409*
Y03371*
X05411*
Y0337*
X05412*
Y03368*
X05411*
Y03367*
X0541*
Y03366*
X05409*
Y03364*
X05408*
Y03363*
X05407*
Y03362*
X05406*
Y0336*
X05405*
Y03358*
X05403*
Y03357*
X05402*
Y03355*
X05401*
Y03352*
X054*
Y0335*
X05399*
Y03344*
X05398*
Y03333*
X05399*
Y03328*
X054*
Y03327*
X05401*
Y03325*
X05402*
Y03324*
X05405*
Y03323*
X05407*
Y03322*
X05412*
Y03323*
X05414*
Y03324*
X05415*
Y03325*
X05416*
Y03327*
X05417*
Y03329*
X05418*
Y03334*
X05419*
Y03338*
X05421*
Y03343*
X05422*
Y03349*
X05423*
Y03353*
X05424*
Y03356*
X05425*
Y03359*
X05426*
Y03362*
X05427*
Y03365*
X05428*
Y03366*
X05429*
Y03368*
X0543*
Y03369*
X05431*
Y0337*
X05432*
Y03371*
X05433*
Y03372*
X05434*
Y03373*
X05435*
Y03374*
X05438*
Y03375*
X05441*
Y03376*
X05447*
Y03378*
X05452*
Y03376*
G37*
G36*
X05411Y03301D02*
X05412D01*
Y03298*
X05411*
Y03297*
X0541*
Y03296*
X05409*
Y03295*
X05407*
Y03294*
X05406*
Y03293*
X05405*
Y03292*
X05403*
Y03291*
X05402*
Y03289*
X05401*
Y03288*
X054*
Y03285*
X05399*
Y03276*
X05398*
Y03273*
X05399*
Y0327*
X054*
Y03269*
X05468*
Y0327*
X0547*
Y03271*
X05471*
Y03272*
X05472*
Y03274*
X05473*
Y03277*
X05474*
Y03278*
X05476*
Y03277*
X05477*
Y03241*
X05476*
Y0324*
X05474*
Y03241*
X05473*
Y03244*
X05472*
Y03246*
X05471*
Y03247*
X0547*
Y03248*
X05468*
Y03249*
X054*
Y03248*
X05399*
Y03245*
X05398*
Y03243*
X05399*
Y03233*
X054*
Y03231*
X05401*
Y03229*
X05402*
Y03228*
X05403*
Y03227*
X05405*
Y03226*
X05406*
Y03225*
X05407*
Y03224*
X05408*
Y03223*
X0541*
Y03222*
X05411*
Y0322*
X05412*
Y03217*
X05409*
Y03218*
X05406*
Y03219*
X05401*
Y0322*
X05398*
Y03222*
X05395*
Y03223*
X05391*
Y03224*
X05388*
Y0324*
Y03241*
Y03295*
X05392*
Y03296*
X05396*
Y03297*
X05399*
Y03298*
X05402*
Y033*
X05406*
Y03301*
X05409*
Y03302*
X05411*
Y03301*
G37*
G36*
X03359Y03655D02*
X03371D01*
Y03653*
X03382*
Y0365*
X0339*
Y03648*
X03397*
Y03646*
X03403*
Y03644*
X03409*
Y03642*
X03416*
Y0364*
X0342*
Y03638*
X03424*
Y03636*
X03428*
Y03634*
X03432*
Y03629*
X0343*
Y03627*
X03428*
Y03625*
X03426*
Y03623*
X03424*
Y03621*
X03422*
Y03619*
X0342*
Y03617*
X03418*
Y03615*
X03416*
Y03611*
X03413*
Y03608*
X03411*
Y03606*
X03409*
Y03604*
X03407*
Y03602*
X03405*
Y03598*
X03403*
Y03596*
X03401*
Y03594*
X03399*
Y0359*
X03397*
Y03587*
X03395*
Y03583*
X03392*
Y03581*
X0339*
Y03579*
X03388*
Y03575*
X03386*
Y03573*
X03384*
Y03569*
X03382*
Y03564*
X0338*
Y03562*
X03378*
Y03558*
X03376*
Y03556*
X03374*
Y03552*
X03371*
Y03548*
X03367*
Y03552*
X03365*
Y03554*
X03363*
Y03556*
X03361*
Y0356*
X03357*
Y03562*
X0335*
Y03558*
X03348*
Y03541*
X03344*
Y03543*
X03342*
Y03545*
X0334*
Y03548*
X03336*
Y0355*
X03332*
Y03552*
X03329*
Y03554*
X03325*
Y03556*
X03321*
Y03558*
X03317*
Y0356*
X03313*
Y03562*
X03306*
Y03564*
X03302*
Y03566*
X03298*
Y03569*
X03292*
Y03571*
X03285*
Y03573*
X03279*
Y03575*
X03273*
Y03577*
X03264*
Y03579*
X03254*
Y03581*
X03218*
Y03579*
X03212*
Y03577*
X0321*
Y03575*
X03206*
Y03573*
X03203*
Y03566*
X03201*
Y03558*
X03203*
Y03548*
X03206*
Y03541*
X03208*
Y03537*
X0321*
Y03531*
X03212*
Y03527*
X03214*
Y03522*
X03216*
Y03518*
X03218*
Y03516*
X0322*
Y03512*
X03222*
Y0351*
X03224*
Y03506*
X03227*
Y03503*
X03229*
Y03501*
X03231*
Y03499*
X03233*
Y03495*
X03235*
Y03493*
X03237*
Y03491*
X03239*
Y03489*
X03241*
Y03487*
X03245*
Y03485*
X03248*
Y03482*
X0325*
Y0348*
X03254*
Y03478*
X03258*
Y03476*
X03262*
Y03474*
X03275*
Y0347*
X03273*
Y03468*
X03271*
Y03464*
X03269*
Y03459*
X03266*
Y03455*
X03264*
Y03451*
X03262*
Y03443*
X0326*
Y03434*
X03258*
Y03411*
X0326*
Y03405*
X03262*
Y03398*
X03264*
Y03396*
X03266*
Y03392*
X03269*
Y0339*
X03271*
Y03388*
X03273*
Y03386*
X03275*
Y03384*
X03279*
Y03382*
X03283*
Y0338*
X0329*
Y03377*
X03298*
Y03375*
X03325*
Y03377*
X03334*
Y0338*
X03338*
Y03382*
X03342*
Y03384*
X03344*
Y03386*
X03348*
Y03388*
X0335*
Y0339*
X03353*
Y03394*
X03355*
Y03396*
X03357*
Y03401*
X03359*
Y03403*
X03361*
Y03407*
X03363*
Y03413*
X03365*
Y03417*
X03367*
Y03426*
X03369*
Y03432*
X03371*
Y03443*
X03374*
Y03451*
X03378*
Y03443*
X0338*
Y03436*
X03382*
Y0343*
X03384*
Y03424*
X03386*
Y03417*
X03388*
Y03413*
X0339*
Y03409*
X03392*
Y03407*
X03395*
Y03405*
X03397*
Y03424*
X03395*
Y03436*
X03392*
Y03445*
X0339*
Y03451*
X03388*
Y03455*
X0339*
Y03453*
X03392*
Y03451*
X03395*
Y03449*
X03397*
Y03447*
X03399*
Y03445*
X03401*
Y03443*
X03403*
Y0344*
X03405*
Y03438*
X03407*
Y03436*
X03409*
Y03434*
X03411*
Y03432*
X03413*
Y0343*
X03416*
Y03428*
X0342*
Y03426*
X03422*
Y03424*
X03424*
Y03422*
X03428*
Y03419*
X0343*
Y03417*
X03434*
Y03415*
X03441*
Y03413*
X03447*
Y03411*
X03468*
Y03413*
X03474*
Y03415*
X03479*
Y03417*
X03481*
Y03419*
X03485*
Y03422*
X03487*
Y03424*
X03489*
Y03426*
X03491*
Y03428*
X03493*
Y0343*
X03495*
Y03432*
X03497*
Y03434*
X035*
Y03438*
X03502*
Y0344*
X03504*
Y03445*
X03506*
Y03449*
X03508*
Y03453*
X0351*
Y03464*
X03512*
Y0347*
X0351*
Y0348*
X03508*
Y03485*
X03506*
Y03489*
X03504*
Y03491*
X03502*
Y03495*
X035*
Y03497*
X03497*
Y03499*
X03495*
Y03501*
X03493*
Y03503*
X03491*
Y03506*
X03487*
Y03508*
X03485*
Y0351*
X03483*
Y03512*
X03479*
Y03514*
X03476*
Y03516*
X03472*
Y03518*
X03468*
Y0352*
X03464*
Y03524*
X03466*
Y03527*
X03468*
Y03529*
X0347*
Y03531*
X03472*
Y03535*
X03474*
Y03537*
X03476*
Y03541*
X03479*
Y03543*
X03481*
Y03548*
X03483*
Y03554*
X03485*
Y03558*
X03487*
Y03564*
X03489*
Y03571*
X03491*
Y03579*
X03493*
Y03587*
X03495*
Y03585*
X03497*
Y03583*
X035*
Y03581*
X03502*
Y03579*
X03504*
Y03577*
X03506*
Y03575*
X03508*
Y03573*
X0351*
Y03569*
X03512*
Y03566*
X03514*
Y03564*
X03516*
Y0356*
X03518*
Y03558*
X0352*
Y03556*
X03523*
Y03552*
X03525*
Y0355*
X03527*
Y03545*
X03529*
Y03541*
X03531*
Y03539*
X03533*
Y03535*
X03535*
Y03531*
X03537*
Y03527*
X03539*
Y03522*
X03541*
Y03518*
X03544*
Y03512*
X03546*
Y03508*
X03548*
Y03501*
X0355*
Y03495*
X03552*
Y03489*
X03554*
Y0348*
X03556*
Y03472*
X03558*
Y03459*
X0356*
Y0344*
X03562*
Y03405*
X0356*
Y03386*
X03558*
Y03375*
X03556*
Y03365*
X03554*
Y03359*
X03552*
Y0335*
X0355*
Y03344*
X03548*
Y0334*
X03546*
Y03333*
X03544*
Y03329*
X03541*
Y03325*
X03539*
Y03319*
X03537*
Y03314*
X03535*
Y03312*
X03533*
Y03308*
X03531*
Y03304*
X03529*
Y033*
X03527*
Y03298*
X03525*
Y03293*
X03523*
Y03291*
X0352*
Y03287*
X03518*
Y03285*
X03516*
Y03283*
X03514*
Y03279*
X03512*
Y03277*
X0351*
Y03275*
X03508*
Y03272*
X03506*
Y03268*
X03504*
Y03266*
X03502*
Y03264*
X035*
Y03262*
X03497*
Y0326*
X03495*
Y03258*
X03493*
Y03256*
X03491*
Y03254*
X03489*
Y03251*
X03487*
Y03249*
X03485*
Y03247*
X03483*
Y03245*
X03481*
Y03243*
X03476*
Y03241*
X03474*
Y03239*
X03472*
Y03237*
X0347*
Y03235*
X03466*
Y03233*
X03464*
Y0323*
X0346*
Y03228*
X03458*
Y03226*
X03453*
Y03224*
X03451*
Y03222*
X03447*
Y0322*
X03443*
Y03218*
X03441*
Y03216*
X03437*
Y03214*
X03432*
Y03212*
X03428*
Y03209*
X03422*
Y03207*
X03418*
Y03205*
X03413*
Y03203*
X03407*
Y03201*
X03401*
Y03199*
X03395*
Y03197*
X03386*
Y03195*
X03378*
Y03193*
X03367*
Y03191*
X0335*
Y03188*
X03306*
Y03191*
X0329*
Y03193*
X03277*
Y03195*
X03269*
Y03197*
X0326*
Y03199*
X03254*
Y03201*
X03248*
Y03203*
X03243*
Y03205*
X03237*
Y03207*
X03233*
Y03209*
X03229*
Y03212*
X03224*
Y03214*
X0322*
Y03216*
X03216*
Y03218*
X03212*
Y0322*
X03208*
Y03222*
X03206*
Y03224*
X03201*
Y03226*
X03197*
Y03228*
X03195*
Y0323*
X03193*
Y03233*
X03189*
Y03235*
X03187*
Y03237*
X03185*
Y03239*
X0318*
Y03241*
X03178*
Y03243*
X03176*
Y03245*
X03174*
Y03247*
X03172*
Y03249*
X03168*
Y03251*
X03166*
Y03254*
X03164*
Y03256*
X03161*
Y03258*
X03159*
Y0326*
X03157*
Y03262*
X03155*
Y03264*
X03153*
Y03268*
X03151*
Y0327*
X03149*
Y03272*
X03147*
Y03275*
X03145*
Y03277*
X03143*
Y03281*
X0314*
Y03283*
X03138*
Y03285*
X03136*
Y03289*
X03134*
Y03291*
X03132*
Y03296*
X0313*
Y03298*
X03128*
Y03302*
X03126*
Y03306*
X03124*
Y03308*
X03122*
Y03312*
X03119*
Y03317*
X03117*
Y03321*
X03115*
Y03325*
X03113*
Y03329*
X03111*
Y03335*
X03109*
Y0334*
X03107*
Y03346*
X03105*
Y03352*
X03103*
Y03361*
X03101*
Y03367*
X03098*
Y03377*
X03096*
Y0339*
X03094*
Y03417*
X03092*
Y0343*
X03094*
Y03455*
X03096*
Y03468*
X03098*
Y03478*
X03101*
Y03487*
X03103*
Y03493*
X03105*
Y03499*
X03107*
Y03506*
X03109*
Y03512*
X03111*
Y03516*
X03113*
Y0352*
X03115*
Y03524*
X03117*
Y03529*
X03119*
Y03533*
X03122*
Y03537*
X03124*
Y03541*
X03126*
Y03545*
X03128*
Y03548*
X0313*
Y03552*
X03132*
Y03554*
X03134*
Y03558*
X03136*
Y0356*
X03138*
Y03562*
X0314*
Y03566*
X03143*
Y03569*
X03145*
Y03571*
X03147*
Y03573*
X03149*
Y03577*
X03151*
Y03579*
X03153*
Y03581*
X03155*
Y03583*
X03157*
Y03585*
X03159*
Y03587*
X03161*
Y0359*
X03164*
Y03592*
X03166*
Y03594*
X03168*
Y03596*
X0317*
Y03598*
X03172*
Y036*
X03174*
Y03602*
X03178*
Y03604*
X0318*
Y03606*
X03182*
Y03608*
X03185*
Y03611*
X03189*
Y03613*
X03191*
Y03615*
X03193*
Y03617*
X03197*
Y03619*
X03199*
Y03621*
X03203*
Y03623*
X03208*
Y03625*
X0321*
Y03627*
X03214*
Y03629*
X03218*
Y03632*
X03222*
Y03634*
X03227*
Y03636*
X03231*
Y03638*
X03235*
Y0364*
X03241*
Y03642*
X03245*
Y03644*
X03252*
Y03646*
X03258*
Y03648*
X03266*
Y0365*
X03275*
Y03653*
X03283*
Y03655*
X03298*
Y03657*
X03359*
Y03655*
G37*
G36*
X05392Y03214D02*
X05393D01*
Y03212*
X05394*
Y03211*
X05395*
Y0321*
X05397*
Y03209*
X05477*
Y03208*
X05478*
Y03205*
X05477*
Y03204*
X05476*
Y03203*
X05475*
Y03202*
X05474*
Y03201*
X05473*
Y032*
X05472*
Y03199*
X05471*
Y03198*
X05469*
Y03197*
X05468*
Y03196*
X05466*
Y03195*
X05465*
Y03194*
X05464*
Y03193*
X05463*
Y03192*
X05461*
Y03191*
X0546*
Y03189*
X05459*
Y03188*
X05458*
Y03187*
X05457*
Y03186*
X05456*
Y03185*
X05455*
Y03184*
X05453*
Y03183*
X05452*
Y03182*
X0545*
Y03181*
X05449*
Y0318*
X05448*
Y03179*
X05447*
Y03178*
X05445*
Y03176*
X05443*
Y03175*
X05442*
Y03173*
X05441*
Y03172*
X0544*
Y03171*
X05439*
Y0317*
X05438*
Y03169*
X05435*
Y03168*
X05434*
Y03167*
X05433*
Y03166*
X05432*
Y03165*
X05431*
Y03164*
X0543*
Y03163*
X05429*
Y03162*
X05427*
Y03161*
X05426*
Y0316*
X05425*
Y03158*
X05424*
Y03157*
X05423*
Y03156*
X05422*
Y03155*
X05421*
Y03154*
X05418*
Y03153*
X05417*
Y03152*
X05416*
Y03151*
X05415*
Y0315*
X05414*
Y03149*
X05413*
Y03148*
X05411*
Y03147*
X05412*
Y03146*
X05413*
Y03147*
X05414*
Y03146*
X05416*
Y03147*
X05417*
Y03146*
X05461*
Y03147*
X05462*
Y03146*
X05463*
Y03147*
X05468*
Y03148*
X0547*
Y03149*
X05471*
Y03151*
X05472*
Y03152*
X05473*
Y03155*
X05477*
Y03126*
X05476*
Y03125*
X05474*
Y03126*
X05473*
Y03129*
X05472*
Y03131*
X05471*
Y03132*
X0547*
Y03133*
X05469*
Y03134*
X05462*
Y03135*
X05461*
Y03134*
X0541*
Y03135*
X05409*
Y03134*
X05408*
Y03135*
X05406*
Y03134*
X05397*
Y03133*
X05395*
Y03132*
X05394*
Y0313*
X05393*
Y03129*
X05392*
Y03126*
X05391*
Y03125*
X05388*
Y03153*
X0539*
Y03154*
X05391*
Y03155*
X05393*
Y03156*
X05394*
Y03157*
X05395*
Y03158*
X05396*
Y0316*
X05397*
Y03161*
X05398*
Y03162*
X05399*
Y03163*
X05401*
Y03164*
X05402*
Y03165*
X05403*
Y03166*
X05405*
Y03167*
X05406*
Y03168*
X05407*
Y03169*
X05409*
Y03171*
X05411*
Y03172*
X05412*
Y03173*
X05413*
Y03175*
X05414*
Y03176*
X05415*
Y03177*
X05416*
Y03178*
X05417*
Y03179*
X05419*
Y0318*
X05421*
Y03181*
X05422*
Y03182*
X05423*
Y03183*
X05424*
Y03184*
X05425*
Y03185*
X05426*
Y03186*
X05428*
Y03187*
X05429*
Y03188*
X0543*
Y03189*
X05431*
Y03191*
X05432*
Y03192*
X05433*
Y03193*
X05434*
Y03194*
X05437*
Y03195*
X05438*
Y03196*
X05439*
Y03197*
X05399*
Y03196*
X05396*
Y03195*
X05394*
Y03194*
X05393*
Y03192*
X05392*
Y03188*
X05388*
Y03216*
X05392*
Y03214*
G37*
G36*
X05457Y03123D02*
X05459D01*
Y03122*
X05461*
Y03121*
X05464*
Y0312*
X05466*
Y03119*
X0547*
Y03118*
X05472*
Y03117*
X05475*
Y03116*
X05477*
Y03044*
X05476*
Y03043*
X05474*
Y03044*
X05473*
Y03047*
X05472*
Y03048*
X05471*
Y03049*
X0547*
Y03051*
X05468*
Y03052*
X05397*
Y03051*
X05395*
Y03049*
X05394*
Y03048*
X05393*
Y03046*
X05392*
Y03043*
X05388*
Y03113*
X0539*
Y03114*
X05393*
Y03115*
X05396*
Y03116*
X05399*
Y03117*
X05401*
Y03118*
X05405*
Y03119*
X05409*
Y03118*
X0541*
Y03117*
X05409*
Y03116*
X05408*
Y03115*
X05407*
Y03114*
X05406*
Y03113*
X05405*
Y03111*
X05403*
Y03109*
X05402*
Y03108*
X05401*
Y03106*
X054*
Y03103*
X05399*
Y03095*
X05398*
Y03077*
X05399*
Y03073*
X054*
Y03072*
X05401*
Y03071*
X05425*
Y031*
X05424*
Y03102*
X05423*
Y03103*
X05422*
Y03104*
X05419*
Y03105*
X05417*
Y03108*
X05443*
Y03105*
X05441*
Y03104*
X05439*
Y03103*
X05438*
Y03102*
X05437*
Y031*
X05435*
Y03071*
X05463*
Y03072*
X05465*
Y03105*
X05464*
Y03109*
X05463*
Y03111*
X05462*
Y03114*
X05461*
Y03115*
X0546*
Y03116*
X05459*
Y03117*
X05458*
Y03118*
X05457*
Y03119*
X05456*
Y0312*
X05455*
Y03123*
X05456*
Y03124*
X05457*
Y03123*
G37*
G36*
X05476Y03036D02*
X05477D01*
Y03*
X05473*
Y03004*
X05472*
Y03005*
X05471*
Y03006*
X0547*
Y03007*
X05469*
Y03008*
X05463*
Y03009*
X0541*
Y03007*
X05412*
Y03006*
X05415*
Y03005*
X05417*
Y03004*
X05419*
Y03002*
X05422*
Y03001*
X05425*
Y03*
X05427*
Y02999*
X05429*
Y02998*
X05432*
Y02997*
X05434*
Y02996*
X05437*
Y02995*
X0544*
Y02994*
X05442*
Y02993*
X05444*
Y02992*
X05447*
Y02991*
X05449*
Y0299*
X05452*
Y02989*
X05454*
Y02988*
X05457*
Y02986*
X05459*
Y02985*
X05461*
Y02984*
X05463*
Y02983*
X05466*
Y02982*
X05469*
Y02981*
X05471*
Y0298*
X05474*
Y02979*
X05476*
Y02978*
X05478*
Y02975*
X05476*
Y02974*
X05474*
Y02973*
X05471*
Y02971*
X05469*
Y0297*
X05466*
Y02969*
X05464*
Y02968*
X05462*
Y02967*
X05459*
Y02966*
X05457*
Y02965*
X05455*
Y02964*
X05453*
Y02963*
X05449*
Y02962*
X05447*
Y02961*
X05445*
Y0296*
X05443*
Y02959*
X0544*
Y02958*
X05438*
Y02957*
X05435*
Y02955*
X05433*
Y02954*
X0543*
Y02953*
X05428*
Y02952*
X05426*
Y02951*
X05424*
Y0295*
X05421*
Y02949*
X05418*
Y02948*
X05416*
Y02947*
X05414*
Y02946*
X05411*
Y02945*
X05409*
Y02943*
X0541*
Y02944*
X05468*
Y02945*
X0547*
Y02946*
X05471*
Y02947*
X05472*
Y02949*
X05473*
Y02951*
X05474*
Y02952*
X05476*
Y02951*
X05477*
Y02924*
X05476*
Y02923*
X05474*
Y02924*
X05473*
Y02927*
X05472*
Y02928*
X05471*
Y0293*
X0547*
Y02931*
X05468*
Y02932*
X05397*
Y02931*
X05395*
Y0293*
X05394*
Y02929*
X05393*
Y02927*
X05392*
Y02923*
X05388*
Y02957*
X05392*
Y02958*
X05394*
Y02959*
X05396*
Y0296*
X05399*
Y02961*
X05401*
Y02962*
X05403*
Y02963*
X05406*
Y02964*
X05409*
Y02965*
X05411*
Y02966*
X05413*
Y02967*
X05415*
Y02968*
X05418*
Y02969*
X05421*
Y0297*
X05423*
Y02971*
X05425*
Y02973*
X05427*
Y02974*
X0543*
Y02975*
X05432*
Y02976*
X05434*
Y02977*
X05437*
Y02978*
X0544*
Y02979*
X05442*
Y0298*
X05444*
Y02981*
X05443*
Y02982*
X05441*
Y02983*
X05438*
Y02984*
X05435*
Y02985*
X05433*
Y02986*
X0543*
Y02988*
X05428*
Y02989*
X05426*
Y0299*
X05424*
Y02991*
X05421*
Y02992*
X05418*
Y02993*
X05416*
Y02994*
X05413*
Y02995*
X05411*
Y02996*
X05409*
Y02997*
X05406*
Y02998*
X05403*
Y02999*
X05401*
Y03*
X05398*
Y03001*
X05396*
Y03002*
X05393*
Y03004*
X05391*
Y03005*
X05388*
Y03037*
X05392*
Y03033*
X05393*
Y03031*
X05394*
Y0303*
X05395*
Y03029*
X05397*
Y03028*
X05468*
Y03029*
X0547*
Y0303*
X05471*
Y03031*
X05472*
Y03033*
X05473*
Y03037*
X05476*
Y03036*
G37*
G36*
X05392Y02915D02*
X05393D01*
Y02914*
X05394*
Y02913*
X05395*
Y02912*
X05397*
Y02911*
X05454*
Y02909*
X05459*
Y02908*
X05461*
Y02907*
X05463*
Y02906*
X05465*
Y02905*
X05468*
Y02904*
X05469*
Y02903*
X0547*
Y02902*
X05471*
Y029*
X05472*
Y02899*
X05473*
Y02897*
X05474*
Y02896*
X05475*
Y02892*
X05476*
Y02889*
X05477*
Y02883*
X05478*
Y02866*
X05477*
Y02858*
X05476*
Y02855*
X05475*
Y02852*
X05474*
Y0285*
X05473*
Y02848*
X05472*
Y02845*
X05471*
Y02844*
X0547*
Y02843*
X05469*
Y02841*
X05466*
Y0284*
X05465*
Y02839*
X05464*
Y02838*
X05462*
Y02837*
X0546*
Y02836*
X05457*
Y02835*
X05453*
Y02834*
X05397*
Y02833*
X05395*
Y02831*
X05394*
Y0283*
X05393*
Y02828*
X05392*
Y02825*
X05388*
Y02861*
X05392*
Y02858*
X05393*
Y02856*
X05394*
Y02855*
X05395*
Y02854*
X05397*
Y02853*
X05454*
Y02854*
X05457*
Y02855*
X05459*
Y02856*
X0546*
Y02857*
X05461*
Y02858*
X05462*
Y02859*
X05463*
Y02861*
X05464*
Y02864*
X05465*
Y02868*
X05466*
Y02885*
X05465*
Y02888*
X05464*
Y0289*
X05463*
Y02892*
X05462*
Y02893*
X05461*
Y02895*
X05459*
Y02896*
X05457*
Y02897*
X05454*
Y02898*
X05398*
Y02897*
X05395*
Y02896*
X05394*
Y02895*
X05393*
Y02892*
X05392*
Y02889*
X05388*
Y02918*
X05392*
Y02915*
G37*
G36*
X05475Y02833D02*
X05476D01*
Y0283*
X05477*
Y02826*
X05478*
Y02814*
X05477*
Y0281*
X05476*
Y02807*
X05475*
Y02805*
X05474*
Y02804*
X05473*
Y02803*
X05472*
Y02802*
X05471*
Y02799*
X05469*
Y02798*
X05468*
Y02797*
X05466*
Y02796*
X05464*
Y02795*
X05463*
Y02794*
X05461*
Y02793*
X05459*
Y02792*
X05457*
Y02791*
X05455*
Y0279*
X05452*
Y02789*
X0545*
Y02788*
X05448*
Y02787*
X05446*
Y02786*
X05445*
Y02784*
X05444*
Y02783*
X05443*
Y02782*
X05442*
Y02781*
X05441*
Y02777*
X0544*
Y02765*
X05441*
Y02764*
X05465*
Y02765*
X05469*
Y02766*
X0547*
Y02767*
X05471*
Y02768*
X05472*
Y02771*
X05473*
Y02773*
X05474*
Y02774*
X05476*
Y02773*
X05477*
Y02736*
X05473*
Y0274*
X05472*
Y02742*
X05471*
Y02743*
X0547*
Y02744*
X05466*
Y02745*
X05398*
Y02744*
X05395*
Y02743*
X05394*
Y02742*
X05393*
Y0274*
X05392*
Y02736*
X05388*
Y02794*
X0539*
Y02799*
X05391*
Y02803*
X05392*
Y02805*
X05393*
Y02807*
X05394*
Y02809*
X05395*
Y0281*
X05396*
Y02811*
X05397*
Y02812*
X05398*
Y02813*
X05399*
Y02814*
X05401*
Y02815*
X05402*
Y02817*
X05407*
Y02818*
X05418*
Y02817*
X05422*
Y02815*
X05424*
Y02814*
X05426*
Y02813*
X05427*
Y02812*
X05428*
Y02811*
X05429*
Y0281*
X0543*
Y02809*
X05431*
Y02807*
X05432*
Y02805*
X05433*
Y02803*
X05434*
Y02798*
X05435*
Y02795*
X05437*
Y02797*
X05438*
Y02799*
X05439*
Y02802*
X0544*
Y02803*
X05441*
Y02804*
X05442*
Y02805*
X05443*
Y02806*
X05444*
Y02807*
X05445*
Y02808*
X05446*
Y02809*
X05448*
Y0281*
X05449*
Y02811*
X0545*
Y02812*
X05453*
Y02813*
X05455*
Y02814*
X05456*
Y02815*
X05458*
Y02817*
X0546*
Y02818*
X05461*
Y02819*
X05463*
Y0282*
X05464*
Y02821*
X05465*
Y02822*
X05466*
Y02823*
X05468*
Y02824*
X05469*
Y02825*
X0547*
Y02827*
X05471*
Y02829*
X05472*
Y02833*
X05473*
Y02834*
X05475*
Y02833*
G37*
G36*
X05317Y02823D02*
X05323D01*
Y02822*
X05326*
Y02821*
X05329*
Y0282*
X05331*
Y02819*
X05332*
Y02818*
X05333*
Y02817*
X05334*
Y02815*
X05335*
Y02814*
X05336*
Y02813*
X05337*
Y02811*
X05338*
Y0281*
X05339*
Y02808*
X0534*
Y02806*
X05341*
Y02803*
X05343*
Y02797*
X05344*
Y02778*
X05343*
Y02774*
X05341*
Y02771*
X0534*
Y02768*
X05339*
Y02766*
X05338*
Y02763*
X0534*
Y02762*
X05343*
Y02758*
X05341*
Y02757*
X05338*
Y02756*
X05334*
Y02755*
X0533*
Y02753*
X05325*
Y02752*
X05321*
Y02751*
X05318*
Y0275*
X05316*
Y02751*
X05315*
Y02753*
X05316*
Y02755*
X05317*
Y02756*
X05318*
Y02757*
X05319*
Y02758*
X0532*
Y02759*
X05321*
Y0276*
X05322*
Y02761*
X05323*
Y02763*
X05324*
Y02764*
X05325*
Y02766*
X05326*
Y02767*
X05328*
Y0277*
X05329*
Y02772*
X0533*
Y02775*
X05331*
Y02779*
X05332*
Y02795*
X05331*
Y02798*
X0533*
Y028*
X05329*
Y02802*
X05328*
Y02803*
X05326*
Y02804*
X05325*
Y02805*
X05323*
Y02806*
X05316*
Y02805*
X05313*
Y02804*
X05312*
Y02803*
X0531*
Y028*
X05309*
Y02798*
X05308*
Y02795*
X05307*
Y02791*
X05306*
Y02787*
X05305*
Y02781*
X05304*
Y02777*
X05303*
Y02773*
X05302*
Y0277*
X05301*
Y02767*
X053*
Y02765*
X05299*
Y02763*
X05298*
Y02762*
X05297*
Y0276*
X05296*
Y02759*
X05294*
Y02758*
X05293*
Y02757*
X05291*
Y02756*
X0529*
Y02755*
X05288*
Y02753*
X05284*
Y02752*
X05273*
Y02753*
X0527*
Y02755*
X05267*
Y02756*
X05266*
Y02757*
X05263*
Y02758*
X05262*
Y02759*
X05261*
Y0276*
X0526*
Y02761*
X05259*
Y02762*
X05258*
Y02764*
X05257*
Y02766*
X05256*
Y02768*
X05255*
Y02771*
X05254*
Y02775*
X05253*
Y02793*
X05254*
Y02797*
X05255*
Y02799*
X05256*
Y02802*
X05257*
Y02806*
X05255*
Y02807*
X05254*
Y02811*
X05256*
Y02812*
X0526*
Y02813*
X05263*
Y02814*
X05268*
Y02815*
X05271*
Y02817*
X05275*
Y02818*
X05277*
Y02815*
X05278*
Y02814*
X05277*
Y02813*
X05276*
Y02812*
X05275*
Y02811*
X05274*
Y0281*
X05273*
Y02809*
X05272*
Y02808*
X05271*
Y02806*
X0527*
Y02805*
X05269*
Y02803*
X05268*
Y028*
X05267*
Y02798*
X05266*
Y02794*
X05265*
Y02788*
X05263*
Y02782*
X05265*
Y02777*
X05266*
Y02774*
X05267*
Y02773*
X05268*
Y02772*
X05269*
Y02771*
X0527*
Y0277*
X05273*
Y02768*
X05276*
Y0277*
X05279*
Y02771*
X05281*
Y02772*
X05282*
Y02773*
X05283*
Y02776*
X05284*
Y02779*
X05285*
Y02783*
X05286*
Y02789*
X05287*
Y02793*
X05288*
Y02797*
X05289*
Y02802*
X0529*
Y02805*
X05291*
Y02808*
X05292*
Y0281*
X05293*
Y02812*
X05294*
Y02813*
X05296*
Y02815*
X05297*
Y02817*
X05298*
Y02818*
X05299*
Y02819*
X053*
Y0282*
X05302*
Y02821*
X05304*
Y02822*
X05307*
Y02823*
X05314*
Y02824*
X05317*
Y02823*
G37*
G36*
X05343Y02717D02*
X05341D01*
Y02716*
X05339*
Y02718*
X05338*
Y0272*
X05337*
Y02721*
X05336*
Y02722*
X05335*
Y02724*
X05332*
Y02722*
X05328*
Y02721*
X05325*
Y0272*
X05322*
Y02719*
X05319*
Y02718*
X05318*
Y02682*
X0532*
Y02681*
X05323*
Y0268*
X05325*
Y02679*
X05329*
Y02678*
X05336*
Y02679*
X05337*
Y0268*
X05338*
Y02682*
X05339*
Y02684*
X05343*
Y02623*
X05339*
Y02625*
X05338*
Y02628*
X05337*
Y0263*
X05336*
Y02631*
X05331*
Y0263*
X05329*
Y02628*
X05326*
Y02627*
X05325*
Y02626*
X05324*
Y02625*
X05322*
Y02624*
X05321*
Y02623*
X05319*
Y02622*
X05318*
Y02621*
X05316*
Y0262*
X05315*
Y02619*
X05313*
Y02618*
X05312*
Y02617*
X0531*
Y02616*
X05308*
Y02615*
X05307*
Y02612*
X05309*
Y02611*
X0531*
Y0261*
X05313*
Y02609*
X05314*
Y02608*
X05316*
Y02607*
X05317*
Y02606*
X05319*
Y02605*
X05321*
Y02604*
X05322*
Y02603*
X05324*
Y02602*
X05325*
Y02601*
X05328*
Y026*
X05329*
Y02599*
X05331*
Y02597*
X05336*
Y02599*
X05337*
Y026*
X05338*
Y02603*
X05339*
Y02604*
X05343*
Y02571*
X05339*
Y02572*
X05338*
Y02575*
X05337*
Y02577*
X05336*
Y02579*
X05335*
Y0258*
X05334*
Y02581*
X05333*
Y02583*
X05332*
Y02584*
X05331*
Y02585*
X05329*
Y02586*
X05328*
Y02587*
X05326*
Y02588*
X05324*
Y02589*
X05323*
Y0259*
X05321*
Y02591*
X0532*
Y02592*
X05319*
Y02593*
X05317*
Y02594*
X05316*
Y02595*
X05314*
Y02596*
X05313*
Y02597*
X0531*
Y02599*
X05309*
Y026*
X05308*
Y02601*
X05306*
Y02602*
X05305*
Y02603*
X05303*
Y02604*
X05302*
Y02605*
X053*
Y02606*
X05299*
Y02607*
X05298*
Y02606*
X05296*
Y02605*
X05294*
Y02604*
X05292*
Y02603*
X05291*
Y02602*
X0529*
Y02601*
X05288*
Y026*
X05287*
Y02599*
X05285*
Y02597*
X05284*
Y02596*
X05283*
Y02595*
X05281*
Y02594*
X05279*
Y02593*
X05277*
Y02592*
X05276*
Y02591*
X05275*
Y0259*
X05273*
Y02589*
X05272*
Y02588*
X0527*
Y02587*
X05269*
Y02586*
X05268*
Y02585*
X05266*
Y02584*
X05265*
Y02583*
X05263*
Y02581*
X05261*
Y02579*
X0526*
Y02578*
X05259*
Y02576*
X05258*
Y02574*
X05257*
Y02572*
X05254*
Y02613*
X05257*
Y02611*
X05258*
Y02609*
X05259*
Y02608*
X0526*
Y02607*
X05266*
Y02608*
X05267*
Y02609*
X05269*
Y0261*
X05271*
Y02611*
X05272*
Y02612*
X05273*
Y02613*
X05275*
Y02615*
X05276*
Y02616*
X05278*
Y02617*
X05281*
Y02618*
X05282*
Y02619*
X05284*
Y0262*
X05285*
Y02621*
X05286*
Y02622*
X05285*
Y02623*
X05283*
Y02624*
X05282*
Y02625*
X05279*
Y02626*
X05278*
Y02627*
X05277*
Y02628*
X05275*
Y0263*
X05274*
Y02631*
X05272*
Y02632*
X05271*
Y02633*
X05269*
Y02634*
X05268*
Y02635*
X05266*
Y02636*
X05263*
Y02637*
X05259*
Y02636*
X05258*
Y02634*
X05257*
Y02631*
X05254*
Y02662*
X05257*
Y02659*
X05258*
Y02657*
X05259*
Y02655*
X0526*
Y02654*
X05261*
Y02652*
X05262*
Y02651*
X05263*
Y0265*
X05265*
Y02649*
X05267*
Y02648*
X05268*
Y02647*
X0527*
Y02646*
X05271*
Y02644*
X05272*
Y02643*
X05274*
Y02642*
X05275*
Y02641*
X05277*
Y0264*
X05278*
Y02639*
X05281*
Y02638*
X05282*
Y02637*
X05283*
Y02636*
X05285*
Y02635*
X05286*
Y02634*
X05288*
Y02633*
X05289*
Y02632*
X0529*
Y02631*
X05292*
Y0263*
X05293*
Y02628*
X05297*
Y0263*
X05298*
Y02631*
X053*
Y02632*
X05301*
Y02633*
X05302*
Y02634*
X05304*
Y02635*
X05305*
Y02636*
X05307*
Y02637*
X05308*
Y02638*
X05309*
Y02639*
X05312*
Y0264*
X05313*
Y02641*
X05315*
Y02642*
X05316*
Y02643*
X05318*
Y02644*
X05319*
Y02646*
X0532*
Y02647*
X05322*
Y02648*
X05323*
Y02649*
X05325*
Y0265*
X05326*
Y02651*
X05329*
Y02652*
X0533*
Y02653*
X05331*
Y02654*
X05333*
Y02655*
X05334*
Y02656*
X05335*
Y02657*
X05336*
Y02661*
X05335*
Y02662*
X05334*
Y02663*
X05332*
Y02664*
X05331*
Y02665*
X05329*
Y02666*
X05326*
Y02667*
X05324*
Y02668*
X05321*
Y02669*
X05318*
Y0267*
X05316*
Y02671*
X05313*
Y02672*
X0531*
Y02673*
X05307*
Y02674*
X05305*
Y02675*
X05302*
Y02677*
X053*
Y02678*
X05297*
Y02679*
X05294*
Y0268*
X05291*
Y02681*
X05289*
Y02682*
X05286*
Y02683*
X05284*
Y02684*
X05281*
Y02685*
X05277*
Y02686*
X05275*
Y02687*
X05272*
Y02688*
X0527*
Y02689*
X05267*
Y0269*
X05263*
Y02692*
X05261*
Y02693*
X05258*
Y02694*
X05256*
Y02695*
X05254*
Y02715*
X05256*
Y02716*
X05258*
Y02717*
X05261*
Y02718*
X05263*
Y02719*
X05267*
Y0272*
X05269*
Y02721*
X05272*
Y02722*
X05274*
Y02724*
X05277*
Y02725*
X05281*
Y02726*
X05283*
Y02727*
X05286*
Y02728*
X05289*
Y02729*
X05291*
Y0273*
X05294*
Y02731*
X05298*
Y02732*
X053*
Y02733*
X05303*
Y02734*
X05306*
Y02735*
X05308*
Y02736*
X05312*
Y02737*
X05315*
Y02739*
X05317*
Y0274*
X0532*
Y02741*
X05322*
Y02742*
X05325*
Y02743*
X05329*
Y02744*
X05331*
Y02745*
X05333*
Y02746*
X05334*
Y02747*
X05335*
Y02748*
X05336*
Y02749*
X05337*
Y02751*
X05338*
Y02752*
X05339*
Y02753*
X05343*
Y02717*
G37*
G36*
X05411Y02734D02*
X05412D01*
Y02732*
X05411*
Y02731*
X0541*
Y0273*
X05409*
Y02729*
X05408*
Y02728*
X05406*
Y02727*
X05405*
Y02726*
X05403*
Y02724*
X05402*
Y02722*
X05401*
Y0272*
X054*
Y02718*
X05399*
Y0271*
X05398*
Y02706*
X05399*
Y02703*
X054*
Y02702*
X05468*
Y02703*
X0547*
Y02704*
X05471*
Y02705*
X05472*
Y02708*
X05473*
Y02711*
X05474*
Y02712*
X05476*
Y02711*
X05477*
Y02674*
X05476*
Y02673*
X05474*
Y02674*
X05473*
Y02678*
X05472*
Y0268*
X05471*
Y02681*
X0547*
Y02682*
X05468*
Y02683*
X054*
Y02682*
X05399*
Y02678*
X05398*
Y02675*
X05399*
Y02667*
X054*
Y02665*
X05401*
Y02663*
X05402*
Y02662*
X05403*
Y02661*
X05405*
Y02659*
X05406*
Y02658*
X05407*
Y02657*
X05408*
Y02656*
X05409*
Y02655*
X05411*
Y02654*
X05412*
Y02651*
X05408*
Y02652*
X05405*
Y02653*
X05401*
Y02654*
X05398*
Y02655*
X05394*
Y02656*
X05391*
Y02657*
X05388*
Y02729*
X05392*
Y0273*
X05396*
Y02731*
X05399*
Y02732*
X05402*
Y02733*
X05407*
Y02734*
X0541*
Y02735*
X05411*
Y02734*
G37*
G36*
X05453Y02652D02*
X05458D01*
Y02651*
X05461*
Y0265*
X05463*
Y02649*
X05465*
Y02648*
X05466*
Y02647*
X05468*
Y02646*
X05469*
Y02644*
X0547*
Y02643*
X05471*
Y02642*
X05472*
Y0264*
X05473*
Y02638*
X05474*
Y02636*
X05475*
Y02634*
X05476*
Y02631*
X05477*
Y02624*
X05478*
Y0261*
X05477*
Y02605*
X05476*
Y02602*
X05475*
Y02599*
X05474*
Y02596*
X05473*
Y02592*
X05475*
Y02591*
X05476*
Y0259*
X05477*
Y02587*
X05475*
Y02586*
X05472*
Y02585*
X05468*
Y02584*
X05464*
Y02583*
X0546*
Y02581*
X05456*
Y0258*
X05452*
Y02579*
X05449*
Y02581*
X05448*
Y02583*
X05449*
Y02584*
X0545*
Y02585*
X05452*
Y02586*
X05453*
Y02587*
X05454*
Y02588*
X05455*
Y02589*
X05456*
Y0259*
X05457*
Y02591*
X05458*
Y02592*
X05459*
Y02594*
X0546*
Y02595*
X05461*
Y02597*
X05462*
Y026*
X05463*
Y02602*
X05464*
Y02605*
X05465*
Y02609*
X05466*
Y02623*
X05465*
Y02627*
X05464*
Y0263*
X05463*
Y02631*
X05462*
Y02632*
X05461*
Y02633*
X0546*
Y02634*
X05458*
Y02635*
X05448*
Y02634*
X05447*
Y02633*
X05446*
Y02632*
X05445*
Y02631*
X05444*
Y02628*
X05443*
Y02626*
X05442*
Y02622*
X05441*
Y02618*
X0544*
Y02612*
X05439*
Y02608*
X05438*
Y02604*
X05437*
Y026*
X05435*
Y02597*
X05434*
Y02594*
X05433*
Y02593*
X05432*
Y02591*
X05431*
Y0259*
X0543*
Y02589*
X05429*
Y02588*
X05428*
Y02587*
X05427*
Y02586*
X05426*
Y02585*
X05424*
Y02584*
X05422*
Y02583*
X05417*
Y02581*
X05408*
Y02583*
X05405*
Y02584*
X05401*
Y02585*
X054*
Y02586*
X05398*
Y02587*
X05397*
Y02588*
X05396*
Y02589*
X05395*
Y0259*
X05394*
Y02591*
X05393*
Y02592*
X05392*
Y02594*
X05391*
Y02596*
X0539*
Y026*
X05388*
Y02603*
X05387*
Y02609*
X05386*
Y02618*
X05387*
Y02624*
X05388*
Y02627*
X0539*
Y0263*
X05391*
Y02632*
X05392*
Y02635*
X05391*
Y02636*
X05388*
Y0264*
X0539*
Y02641*
X05394*
Y02642*
X05398*
Y02643*
X05401*
Y02644*
X05406*
Y02646*
X05409*
Y02647*
X05411*
Y02646*
X05412*
Y02643*
X05411*
Y02642*
X0541*
Y02641*
X05409*
Y0264*
X05408*
Y02638*
X05407*
Y02637*
X05406*
Y02636*
X05405*
Y02634*
X05403*
Y02633*
X05402*
Y02631*
X05401*
Y02628*
X054*
Y02625*
X05399*
Y02621*
X05398*
Y02608*
X05399*
Y02605*
X054*
Y02603*
X05401*
Y02601*
X05402*
Y026*
X05405*
Y02599*
X05413*
Y026*
X05415*
Y02601*
X05416*
Y02603*
X05417*
Y02606*
X05418*
Y02609*
X05419*
Y02615*
X05421*
Y02619*
X05422*
Y02624*
X05423*
Y02628*
X05424*
Y02632*
X05425*
Y02635*
X05426*
Y02638*
X05427*
Y0264*
X05428*
Y02641*
X05429*
Y02643*
X0543*
Y02644*
X05431*
Y02647*
X05433*
Y02648*
X05434*
Y02649*
X05435*
Y0265*
X05438*
Y02651*
X05441*
Y02652*
X05446*
Y02653*
X05453*
Y02652*
G37*
G36*
X05323Y02572D02*
X05326D01*
Y02571*
X05329*
Y0257*
X05332*
Y02569*
X05334*
Y02568*
X05337*
Y02566*
X05339*
Y02565*
X05341*
Y02564*
X05343*
Y02493*
X05341*
Y02492*
X05339*
Y02494*
X05338*
Y02496*
X05337*
Y02498*
X05336*
Y02499*
X05335*
Y025*
X05332*
Y02501*
X05265*
Y025*
X05261*
Y02499*
X0526*
Y02498*
X05259*
Y02497*
X05258*
Y02495*
X05257*
Y02493*
X05256*
Y02492*
X05255*
Y02493*
X05254*
Y02561*
X05255*
Y02562*
X05257*
Y02563*
X0526*
Y02564*
X05263*
Y02565*
X05266*
Y02566*
X05269*
Y02568*
X05271*
Y02569*
X05274*
Y02568*
X05275*
Y02565*
X05274*
Y02564*
X05273*
Y02563*
X05272*
Y02562*
X05271*
Y02561*
X0527*
Y0256*
X05269*
Y02558*
X05268*
Y02557*
X05267*
Y02554*
X05266*
Y0255*
X05265*
Y02523*
X05266*
Y02522*
X05267*
Y02521*
X0529*
Y02549*
X05289*
Y02552*
X05288*
Y02553*
X05286*
Y02554*
X05284*
Y02558*
X05308*
Y02554*
X05306*
Y02553*
X05304*
Y02552*
X05303*
Y0255*
X05302*
Y02547*
X05301*
Y02521*
X0533*
Y02522*
X05331*
Y02524*
X05332*
Y02525*
Y02526*
Y02549*
X05331*
Y02556*
X0533*
Y02559*
X05329*
Y02561*
X05328*
Y02563*
X05326*
Y02564*
X05325*
Y02565*
X05324*
Y02566*
X05323*
Y02568*
X05322*
Y02569*
X05321*
Y0257*
X0532*
Y02572*
X05321*
Y02573*
X05323*
Y02572*
G37*
G36*
X05391Y02576D02*
X05392D01*
Y02574*
X05393*
Y02573*
X05394*
Y02572*
X05395*
Y02571*
X05396*
Y0257*
X054*
Y02569*
X05478*
Y02565*
X05477*
Y02564*
X05476*
Y02563*
X05475*
Y02562*
X05473*
Y02561*
X05472*
Y0256*
X05471*
Y02559*
X0547*
Y02558*
X05469*
Y02557*
X05468*
Y02556*
X05466*
Y02555*
X05464*
Y02554*
X05463*
Y02553*
X05462*
Y02552*
X05461*
Y0255*
X0546*
Y02549*
X05459*
Y02548*
X05458*
Y02547*
X05456*
Y02546*
X05455*
Y02545*
X05454*
Y02544*
X05453*
Y02543*
X05452*
Y02542*
X0545*
Y02541*
X05449*
Y0254*
X05447*
Y02539*
X05446*
Y02538*
X05445*
Y02537*
X05444*
Y02535*
X05443*
Y02534*
X05442*
Y02533*
X05441*
Y02532*
X05439*
Y02531*
X05438*
Y0253*
X05437*
Y02529*
X05435*
Y02528*
X05434*
Y02527*
X05433*
Y02526*
X05432*
Y02525*
X0543*
Y02524*
X05429*
Y02523*
X05428*
Y02522*
X05427*
Y02521*
X05426*
Y02519*
X05425*
Y02518*
X05424*
Y02517*
X05422*
Y02516*
X05421*
Y02515*
X05419*
Y02514*
X05418*
Y02513*
X05417*
Y02512*
X05416*
Y02511*
X05415*
Y0251*
X05414*
Y02509*
X05412*
Y02508*
X05411*
Y02507*
X05466*
Y02508*
X05469*
Y02509*
X0547*
Y0251*
X05471*
Y02511*
X05472*
Y02513*
X05473*
Y02515*
X05474*
Y02516*
X05476*
Y02515*
X05477*
Y02486*
X05473*
Y0249*
X05472*
Y02492*
X05471*
Y02493*
X05469*
Y02494*
X05465*
Y02495*
X05399*
Y02494*
X05397*
Y02493*
X05395*
Y02492*
X05394*
Y02491*
X05393*
Y02488*
X05392*
Y02486*
X05388*
Y02513*
X0539*
Y02514*
X05391*
Y02515*
X05392*
Y02516*
X05393*
Y02517*
X05394*
Y02518*
X05396*
Y02519*
X05397*
Y02521*
X05398*
Y02522*
X05399*
Y02523*
X054*
Y02524*
X05401*
Y02525*
X05402*
Y02526*
X05405*
Y02527*
X05406*
Y02528*
X05407*
Y02529*
X05408*
Y0253*
X05409*
Y02531*
X0541*
Y02532*
X05411*
Y02533*
X05413*
Y02534*
X05414*
Y02535*
X05415*
Y02537*
X05416*
Y02538*
X05417*
Y02539*
X05418*
Y0254*
X05419*
Y02541*
X05422*
Y02542*
X05423*
Y02543*
X05424*
Y02544*
X05425*
Y02545*
X05426*
Y02546*
X05427*
Y02547*
X05428*
Y02548*
X05429*
Y02549*
X05431*
Y0255*
X05432*
Y02552*
X05433*
Y02553*
X05434*
Y02554*
X05435*
Y02555*
X05437*
Y02556*
X05438*
Y02557*
X05397*
Y02556*
X05395*
Y02555*
X05394*
Y02554*
X05393*
Y02552*
X05392*
Y02549*
X05388*
Y02577*
X05391*
Y02576*
G37*
G36*
X05476Y02479D02*
X05477D01*
Y02439*
X05473*
Y02443*
X05472*
Y02445*
X05471*
Y02446*
X0547*
Y02447*
X05469*
Y02448*
X05465*
Y02449*
X05371*
Y02448*
X05368*
Y02447*
X05367*
Y02446*
X05366*
Y02444*
X05365*
Y02441*
X05364*
Y02439*
X05361*
Y02479*
X05362*
Y0248*
X05363*
Y02479*
X05364*
Y02478*
X05365*
Y02475*
X05366*
Y02474*
X05367*
Y02471*
X05369*
Y0247*
X05374*
Y02469*
X05375*
Y0247*
X05376*
Y02469*
X05464*
Y0247*
X05469*
Y02471*
X0547*
Y02472*
X05471*
Y02474*
X05472*
Y02476*
X05473*
Y02479*
X05474*
Y0248*
X05476*
Y02479*
G37*
G36*
X05248Y0251D02*
X05247D01*
Y02509*
X05246*
Y02508*
X05245*
Y02507*
X05244*
Y02506*
X05243*
Y02504*
X05242*
Y02502*
X05241*
Y02499*
X0524*
Y02494*
X05239*
Y02472*
X0524*
Y02471*
X05241*
Y0247*
X05244*
Y02469*
X05325*
Y0247*
X05328*
Y02469*
X0533*
Y0247*
X05334*
Y02471*
X05335*
Y02472*
X05336*
Y02474*
X05337*
Y02475*
X05338*
Y02478*
X05339*
Y02479*
X05341*
Y02478*
X05343*
Y0244*
X05339*
Y02441*
X05338*
Y02444*
X05337*
Y02446*
X05336*
Y02447*
X05334*
Y02448*
X05331*
Y02449*
X05242*
Y02448*
X0524*
Y02446*
X05239*
Y02424*
X0524*
Y02419*
X05241*
Y02417*
X05242*
Y02415*
X05243*
Y02413*
X05244*
Y02412*
X05245*
Y0241*
X05246*
Y02409*
X05247*
Y02408*
X05248*
Y02406*
X05247*
Y02405*
X05246*
Y02406*
X05243*
Y02407*
X0524*
Y02408*
X05238*
Y02409*
X05235*
Y0241*
X05231*
Y02412*
X05228*
Y02413*
X05226*
Y02506*
X05227*
Y02507*
X0523*
Y02508*
X05234*
Y02509*
X05237*
Y0251*
X0524*
Y02511*
X05243*
Y02512*
X05246*
Y02513*
X05248*
Y0251*
G37*
G36*
X05194Y0229D02*
X05199D01*
Y02289*
X05205*
Y02288*
X0521*
Y02287*
X05215*
Y0226*
X05213*
Y02261*
X05208*
Y02262*
X05203*
Y02263*
X05197*
Y02264*
X05192*
Y02265*
X0519*
Y02291*
X05194*
Y0229*
G37*
G36*
X05228Y02283D02*
X05232D01*
Y02282*
X05239*
Y02281*
X05244*
Y0228*
X0525*
Y02279*
X05255*
Y02278*
X0526*
Y02277*
X05265*
Y02276*
X0527*
Y02275*
X05275*
Y02274*
X05281*
Y02273*
X05286*
Y02272*
X05291*
Y0227*
X05297*
Y02269*
X05302*
Y02268*
X05308*
Y02267*
X05314*
Y02266*
X05319*
Y02265*
X05324*
Y02264*
X0533*
Y02263*
X05335*
Y02262*
X0534*
Y02261*
X05341*
Y02235*
X05338*
Y02236*
X05333*
Y02237*
X05328*
Y02238*
X05322*
Y02239*
X05317*
Y02241*
X05312*
Y02242*
X05306*
Y02243*
X053*
Y02244*
X05296*
Y02245*
X0529*
Y02246*
X05285*
Y02247*
X05279*
Y02248*
X05274*
Y02249*
X05269*
Y0225*
X05263*
Y02251*
X05258*
Y02252*
X05253*
Y02253*
X05247*
Y02254*
X05242*
Y02256*
X05237*
Y02257*
X0523*
Y02258*
X05227*
Y02284*
X05228*
Y02283*
G37*
G36*
X05346Y02362D02*
X05347D01*
Y02358*
X05348*
Y02355*
X05349*
Y02352*
X0535*
Y02348*
X05351*
Y02345*
X05352*
Y02342*
X05353*
Y0234*
X05354*
Y02338*
X05355*
Y02335*
X05356*
Y02332*
X05357*
Y0233*
X05359*
Y02328*
X0536*
Y02326*
X05361*
Y02325*
X05362*
Y02323*
X05363*
Y02321*
X05364*
Y0232*
X05365*
Y02317*
X05366*
Y02316*
X05367*
Y02314*
X05368*
Y02313*
X05369*
Y02312*
X0537*
Y0231*
X05371*
Y02309*
X05372*
Y02308*
X05374*
Y02307*
X05375*
Y02306*
X05376*
Y02305*
X05377*
Y02304*
X05378*
Y02303*
X05379*
Y02301*
X0538*
Y023*
X05381*
Y02299*
X05382*
Y02298*
X05383*
Y02297*
X05384*
Y02296*
X05386*
Y02295*
X05387*
Y02294*
X05388*
Y02293*
X05391*
Y02292*
X05392*
Y02291*
X05394*
Y0229*
X05396*
Y02289*
X05398*
Y02288*
X05401*
Y02287*
X05403*
Y02285*
X05408*
Y02284*
X05427*
Y02285*
X05431*
Y02287*
X05435*
Y02288*
X05439*
Y02289*
X05441*
Y0229*
X05443*
Y02288*
X05444*
Y02284*
X05445*
Y02279*
X05446*
Y02265*
X05445*
Y02261*
X05444*
Y02258*
X05443*
Y02254*
X05442*
Y02252*
X05441*
Y0225*
X0544*
Y02248*
X05439*
Y02247*
X05438*
Y02245*
X05437*
Y02244*
X05435*
Y02242*
X05434*
Y02241*
X05433*
Y02239*
X05432*
Y02238*
X05431*
Y02237*
X0543*
Y02236*
X05429*
Y02235*
X05428*
Y02234*
X05427*
Y02233*
X05426*
Y02232*
X05425*
Y02231*
X05424*
Y0223*
X05423*
Y02229*
X05421*
Y02228*
X05419*
Y02227*
X05418*
Y02226*
X05416*
Y02225*
X05415*
Y02223*
X05413*
Y02222*
X05412*
Y02221*
X0541*
Y0222*
X05408*
Y02219*
X05406*
Y02218*
X05403*
Y02217*
X05401*
Y02216*
X05399*
Y02215*
X05397*
Y02214*
X05395*
Y02213*
X05393*
Y02212*
X05391*
Y02211*
X05387*
Y0221*
X05385*
Y02208*
X05383*
Y02207*
X05381*
Y02206*
X05379*
Y02205*
X05377*
Y02204*
X05374*
Y02203*
X05372*
Y02202*
X0537*
Y02201*
X05368*
Y022*
X05366*
Y02199*
X05364*
Y02198*
X05363*
Y02197*
X05361*
Y02196*
X0536*
Y02195*
X05357*
Y02194*
X05356*
Y02192*
X05355*
Y02191*
X05354*
Y0219*
X05353*
Y02189*
X05352*
Y02188*
X05351*
Y02186*
X0535*
Y02182*
X05349*
Y02178*
X0535*
Y02173*
X05351*
Y02171*
X05352*
Y02169*
X05353*
Y02168*
X05354*
Y02167*
X05355*
Y02166*
X05356*
Y02165*
X05357*
Y02164*
X05359*
Y02163*
X0536*
Y02161*
X05361*
Y0216*
X05362*
Y02159*
X05363*
Y02158*
X05364*
Y02157*
X05365*
Y02155*
X05366*
Y02152*
X05367*
Y02147*
X05366*
Y02143*
X05365*
Y02141*
X05364*
Y02139*
X05363*
Y02138*
X05362*
Y02137*
X05361*
Y02136*
X0536*
Y02135*
X05359*
Y02134*
X05357*
Y02133*
X05355*
Y02132*
X05354*
Y0213*
X05352*
Y02129*
X0535*
Y02128*
X05348*
Y02127*
X05346*
Y02126*
X05343*
Y02125*
X0534*
Y02124*
X05337*
Y02123*
X05334*
Y02122*
X05332*
Y02121*
X0533*
Y0212*
X05328*
Y02119*
X05325*
Y02118*
X05324*
Y02117*
X05322*
Y02116*
X05321*
Y02114*
X0532*
Y02113*
X05319*
Y02112*
X05318*
Y02111*
X05317*
Y0211*
X05316*
Y02109*
X05315*
Y02108*
X05314*
Y02107*
X05313*
Y02106*
X05312*
Y02105*
X0531*
Y02103*
X05309*
Y02102*
X05308*
Y02101*
X05307*
Y021*
X05306*
Y02098*
X05305*
Y02097*
X05304*
Y02096*
X05303*
Y02095*
X05302*
Y02094*
X053*
Y02093*
X05299*
Y02092*
X05297*
Y02091*
X05296*
Y0209*
X05293*
Y02089*
X05291*
Y02088*
X05288*
Y02087*
X05283*
Y02086*
X05281*
Y02087*
X05279*
Y02164*
X05175*
Y02228*
X05226*
Y02229*
X05227*
Y02246*
X05228*
Y02245*
X05234*
Y02244*
X05239*
Y02243*
X05244*
Y02242*
X05251*
Y02241*
X05256*
Y02239*
X0526*
Y0222*
X05263*
Y02219*
X05269*
Y02218*
X05274*
Y02217*
X05279*
Y02216*
X05285*
Y02215*
X0529*
Y02214*
X05291*
Y02215*
X05292*
Y02233*
X05293*
Y02232*
X05299*
Y02231*
X05304*
Y0223*
X05309*
Y02229*
X05314*
Y02228*
X0532*
Y02227*
X05325*
Y02226*
X05331*
Y02225*
X05336*
Y02223*
X05341*
Y02222*
X05347*
Y02221*
X05352*
Y0222*
X05362*
Y02221*
X05365*
Y02222*
X05366*
Y02223*
X05368*
Y02225*
X05369*
Y02227*
X0537*
Y02228*
X05371*
Y02231*
X05372*
Y02233*
X05374*
Y02239*
X05375*
Y02285*
X05372*
Y02287*
X05367*
Y02288*
X05362*
Y02289*
X05356*
Y0229*
X05351*
Y02291*
X05346*
Y02292*
X05341*
Y0228*
X0534*
Y02277*
X05339*
Y02276*
X05338*
Y02275*
X05329*
Y02276*
X05323*
Y02277*
X05318*
Y02278*
X05313*
Y02279*
X05307*
Y0228*
X05302*
Y02281*
X05297*
Y02282*
X05292*
Y02301*
X05291*
Y02303*
X05287*
Y02304*
X05282*
Y02305*
X05276*
Y02306*
X05271*
Y02307*
X05266*
Y02308*
X0526*
Y02289*
X05258*
Y0229*
X05253*
Y02291*
X05248*
Y02292*
X05243*
Y02293*
X05238*
Y02294*
X05232*
Y02295*
X05227*
Y0235*
X05267*
Y02351*
X05271*
Y02352*
X05275*
Y02353*
X05277*
Y02354*
X05279*
Y02355*
X05282*
Y02356*
X05283*
Y02357*
X05285*
Y02358*
X05286*
Y02359*
X05287*
Y0236*
X05288*
Y02361*
X05289*
Y02362*
X0529*
Y02365*
X05346*
Y02362*
G37*
G36*
X04836Y01361D02*
X0482D01*
Y01359*
X04819*
Y01353*
X04817*
Y01349*
X04832*
Y01345*
X04817*
Y01343*
X04816*
Y01341*
X04814*
Y01333*
X04813*
Y01332*
X04814*
Y01331*
X04829*
Y01326*
X04806*
Y01329*
X04807*
Y01335*
X04809*
Y01341*
X0481*
Y01348*
X04812*
Y01355*
X04813*
Y01361*
X04814*
Y01365*
X04836*
Y01361*
G37*
G36*
X04807Y01363D02*
X04806D01*
Y01361*
X0479*
Y01359*
Y01358*
X04789*
Y01351*
X04787*
Y01349*
X04802*
Y01345*
X04787*
Y01343*
X04786*
Y01338*
X04784*
Y01331*
X048*
Y01328*
X04799*
Y01326*
X04777*
Y01332*
X04779*
Y01339*
X0478*
Y01345*
X04782*
Y01352*
X04783*
Y01358*
X04784*
Y01365*
X04807*
Y01363*
G37*
G36*
X04777Y01362D02*
X04776D01*
Y01361*
X0476*
Y01355*
X04759*
Y01349*
X04773*
Y01346*
X04772*
Y01345*
X04757*
Y01342*
X04756*
Y01335*
X04754*
Y01331*
X0477*
Y01328*
X04769*
Y01326*
X04747*
Y01331*
X04749*
Y01336*
X0475*
Y01343*
X04752*
Y01349*
X04753*
Y01356*
X04754*
Y01363*
X04756*
Y01365*
X04777*
Y01362*
G37*
G36*
X04746Y01361D02*
X04744D01*
Y01355*
X04743*
Y01349*
X04741*
Y01343*
X0474*
Y01336*
X04739*
Y01332*
Y01331*
Y01329*
X04737*
Y01326*
X04731*
Y01332*
X04733*
Y01338*
X04734*
Y01345*
X04736*
Y01351*
X04737*
Y01358*
X04739*
Y01363*
X0474*
Y01365*
X04746*
Y01361*
G37*
G36*
X03436Y01328D02*
X03435D01*
Y01326*
X03425*
Y01325*
X03422*
Y01336*
Y01338*
X03429*
Y01339*
X03436*
Y01328*
G37*
G36*
X03141Y01326D02*
X0313D01*
Y01325*
X03127*
Y01326*
Y01328*
Y01338*
X03134*
Y01339*
X03141*
Y01326*
G37*
G36*
X02975Y01328D02*
X02974D01*
Y01326*
X02964*
Y01325*
X02961*
Y01338*
X02968*
Y01339*
X02975*
Y01328*
G37*
G36*
X03989Y01335D02*
X03992D01*
Y01322*
X0399*
Y01323*
X03987*
Y01325*
X03983*
Y01326*
X0398*
Y01325*
X03977*
Y01323*
X03976*
Y01318*
X03977*
Y01316*
X03979*
Y01315*
X0398*
Y01313*
X03983*
Y01312*
X03984*
Y01311*
X03986*
Y01309*
X03989*
Y01308*
X0399*
Y01306*
X03992*
Y01303*
X03993*
Y01299*
X03994*
Y01298*
Y01296*
Y0129*
X03993*
Y01286*
X03992*
Y01283*
X0399*
Y01282*
X03989*
Y0128*
X03987*
Y01279*
X03984*
Y01278*
X03982*
Y01276*
X03964*
Y01278*
X03962*
Y01279*
X0396*
Y0129*
X03963*
Y01289*
X03966*
Y01288*
X03974*
Y01289*
X03976*
Y0129*
X03977*
Y01296*
X03976*
Y01298*
X03974*
Y01299*
X03973*
Y013*
X03972*
Y01302*
X03969*
Y01303*
X03967*
Y01305*
X03966*
Y01306*
X03964*
Y01308*
X03963*
Y01309*
X03962*
Y01312*
X0396*
Y01328*
X03962*
Y01329*
X03963*
Y01332*
X03964*
Y01333*
X03967*
Y01335*
X0397*
Y01336*
X03989*
Y01335*
G37*
G36*
X04342Y01321D02*
X04344D01*
Y01319*
X04342*
Y01311*
X04341*
Y01312*
X04339*
Y01313*
X04332*
Y01312*
X04331*
Y01308*
X04332*
Y01306*
X04335*
Y01305*
X04336*
Y01303*
X04339*
Y01302*
X04341*
Y013*
X04342*
Y01298*
X04344*
Y01295*
X04345*
Y01289*
X04344*
Y01285*
X04342*
Y01282*
X04341*
Y0128*
X04339*
Y01279*
X04336*
Y01278*
X04332*
Y01276*
X04322*
Y01278*
X04316*
Y0128*
X04315*
Y01283*
X04316*
Y01289*
X04318*
Y01288*
X04321*
Y01286*
X04328*
Y01288*
X04329*
Y01292*
X04328*
Y01293*
X04325*
Y01295*
X04324*
Y01296*
X04321*
Y01298*
X04319*
Y01299*
X04318*
Y01302*
X04316*
Y01305*
X04315*
Y01312*
X04316*
Y01316*
X04318*
Y01318*
X04319*
Y01319*
X04321*
Y01321*
X04324*
Y01322*
X04342*
Y01321*
G37*
G36*
X04269Y01311D02*
X04265D01*
Y01312*
X04262*
Y01311*
X04259*
Y01308*
X04258*
Y01305*
X04256*
Y01295*
X04258*
Y0129*
X04259*
Y01289*
X04262*
Y01288*
X04268*
Y01289*
X04269*
Y01282*
Y0128*
Y01278*
X04263*
Y01276*
X04256*
Y01278*
X04251*
Y01279*
X04248*
Y0128*
X04246*
Y01282*
X04245*
Y01283*
X04243*
Y01286*
X04242*
Y0129*
X04241*
Y01308*
X04242*
Y01312*
X04243*
Y01315*
X04245*
Y01316*
X04246*
Y01318*
X04248*
Y01319*
X04249*
Y01321*
X04252*
Y01322*
X04269*
Y01311*
G37*
G36*
X0312D02*
X03119D01*
Y01312*
X03117*
Y01313*
X0311*
Y01312*
X03109*
Y01308*
X0311*
Y01306*
X03113*
Y01305*
X03114*
Y01303*
X03117*
Y01302*
X03119*
Y013*
X0312*
Y01298*
X03121*
Y01293*
X03123*
Y01289*
X03121*
Y01285*
X0312*
Y01282*
X03119*
Y0128*
X03117*
Y01279*
X03114*
Y01278*
X0311*
Y01276*
X031*
Y01278*
X03094*
Y0128*
X03093*
Y01285*
X03094*
Y01289*
X03096*
Y01288*
X03099*
Y01286*
X03106*
Y01288*
X03107*
Y01292*
X03106*
Y01293*
X03103*
Y01295*
X03101*
Y01296*
X03099*
Y01298*
X03097*
Y01299*
X03096*
Y01302*
X03094*
Y01305*
X03093*
Y01312*
X03094*
Y01316*
X03096*
Y01318*
X03097*
Y01319*
X03099*
Y01321*
X03101*
Y01322*
X0312*
Y01311*
G37*
G36*
X04887Y01316D02*
Y01313D01*
X04886*
Y01311*
X04882*
Y01309*
X04877*
Y01316*
X04879*
Y01318*
X04887*
Y01316*
G37*
G36*
X03416Y01309D02*
X03415D01*
Y01311*
X03413*
Y01312*
X03409*
Y01311*
X03408*
Y01309*
X03406*
Y01308*
X03405*
Y01303*
X03403*
Y013*
Y01299*
Y01296*
X03405*
Y01292*
X03406*
Y01289*
X03409*
Y01288*
X03415*
Y01289*
X03416*
Y01278*
X03411*
Y01276*
X03403*
Y01278*
X03398*
Y01279*
X03396*
Y0128*
X03393*
Y01282*
X03392*
Y01285*
X0339*
Y01288*
X03389*
Y01292*
X03388*
Y01306*
X03389*
Y01312*
X0339*
Y01315*
X03392*
Y01316*
X03393*
Y01318*
X03395*
Y01319*
X03396*
Y01321*
X03399*
Y01322*
X03416*
Y01309*
G37*
G36*
X03343Y01278D02*
X03328D01*
Y0128*
X03326*
Y01283*
X03325*
Y01285*
X03323*
Y01288*
X03322*
Y0129*
X0332*
Y01292*
X03319*
Y01295*
X03317*
Y01298*
X03316*
Y01299*
X03315*
Y01302*
X03313*
Y01303*
X03312*
Y01306*
X0331*
Y01308*
X03309*
Y01298*
X0331*
Y01278*
X03296*
Y01335*
X03313*
Y01332*
X03315*
Y01329*
X03316*
Y01326*
X03317*
Y01325*
X03319*
Y01322*
X0332*
Y01319*
X03322*
Y01318*
X03323*
Y01315*
X03325*
Y01313*
X03326*
Y01311*
X03328*
Y01309*
X03329*
Y01308*
X0333*
Y01329*
X03329*
Y01335*
X03343*
Y01278*
G37*
G36*
X04225Y01315D02*
X04226D01*
Y01316*
X04228*
Y01319*
X04229*
Y01321*
X04231*
Y01322*
X04239*
Y01321*
X04238*
Y01308*
X04236*
Y01306*
X04233*
Y01308*
X04229*
Y01306*
X04228*
Y01305*
X04226*
Y01298*
X04225*
Y01293*
X04226*
Y01278*
X04209*
Y01293*
X04211*
Y01302*
X04209*
Y01321*
X04216*
Y01322*
X04223*
Y01323*
X04225*
Y01315*
G37*
G36*
X04162Y01313D02*
X04163D01*
Y01285*
X04165*
Y01278*
X04148*
Y01316*
X04146*
Y01315*
Y01312*
X04145*
Y01305*
X04143*
Y01298*
X04142*
Y01292*
X0414*
Y01285*
X04139*
Y01278*
X04126*
Y0128*
X04125*
Y01286*
X04123*
Y01292*
X04122*
Y01299*
X0412*
Y01305*
X04119*
Y01312*
X04118*
Y01315*
X04116*
Y01278*
X04102*
Y01282*
X04103*
Y01313*
X04105*
Y01315*
X04103*
Y01316*
X04105*
Y01335*
X04128*
Y01328*
X04129*
Y01322*
X0413*
Y01315*
X04132*
Y01309*
X04133*
Y01306*
X04135*
Y01312*
X04136*
Y01319*
X04138*
Y01326*
X04139*
Y01333*
X0414*
Y01335*
X04162*
Y01313*
G37*
G36*
X03818Y01315D02*
X0382D01*
Y01316*
X03821*
Y01319*
X03823*
Y01321*
X03824*
Y01322*
X03833*
Y01319*
X03831*
Y01308*
X0383*
Y01306*
X03827*
Y01308*
X03823*
Y01306*
X03821*
Y01305*
X0382*
Y01298*
X03818*
Y01293*
X0382*
Y01278*
X03803*
Y01321*
X0381*
Y01322*
X03817*
Y01323*
X03818*
Y01315*
G37*
G36*
X03671Y01332D02*
X03672D01*
Y01313*
Y01312*
Y01298*
X03674*
Y01278*
X03658*
Y013*
X03657*
Y01311*
X03658*
Y01312*
X03657*
Y01313*
X03655*
Y01308*
X03654*
Y013*
X03652*
Y01295*
X03651*
Y01288*
X0365*
Y01279*
X03648*
Y01278*
X03635*
Y01285*
X03634*
Y0129*
X03632*
Y01296*
X03631*
Y01303*
X03629*
Y01311*
X03628*
Y01315*
X03627*
Y01279*
X03625*
Y01278*
X03612*
Y01292*
X03614*
Y01329*
X03615*
Y01335*
X03637*
Y01332*
X03638*
Y01325*
X03639*
Y01319*
X03641*
Y01313*
X03642*
Y01306*
X03644*
Y01308*
X03645*
Y01315*
X03647*
Y01322*
X03648*
Y01329*
X0365*
Y01335*
X03671*
Y01332*
G37*
G36*
X03077Y01315D02*
X03078D01*
Y01316*
X0308*
Y01319*
X03081*
Y01321*
X03083*
Y01322*
X03091*
Y01319*
X0309*
Y01308*
X03088*
Y01306*
X03086*
Y01308*
X03081*
Y01306*
X0308*
Y01305*
X03078*
Y01288*
Y01286*
Y01278*
X03061*
Y01293*
X03063*
Y01303*
X03061*
Y01321*
X03068*
Y01322*
X03076*
Y01323*
X03077*
Y01315*
G37*
G36*
X04935Y01303D02*
X04936D01*
Y013*
X04935*
Y01298*
X04932*
Y01299*
X0493*
Y013*
X04926*
Y01299*
X04923*
Y01296*
X04925*
Y01295*
X04926*
Y01293*
X04929*
Y01292*
X04932*
Y0129*
X04933*
Y01286*
X04935*
Y01285*
X04933*
Y0128*
X04932*
Y01279*
X0493*
Y01278*
X04929*
Y01276*
X04925*
Y01275*
X04918*
Y01276*
X04912*
Y01278*
X0491*
Y0128*
X04912*
Y01283*
X04915*
Y01282*
X04918*
Y0128*
X04922*
Y01282*
X04925*
Y01286*
X04922*
Y01288*
X04919*
Y01289*
X04918*
Y0129*
X04916*
Y01292*
X04915*
Y013*
X04916*
Y01302*
X04918*
Y01303*
X04919*
Y01305*
X04935*
Y01303*
G37*
G36*
X0491D02*
X04912D01*
Y013*
X0491*
Y01298*
X04908*
Y01299*
X049*
Y01298*
X04899*
Y01296*
X04897*
Y01293*
X04896*
Y01285*
X04897*
Y01283*
X04899*
Y01282*
X04906*
Y01283*
X04908*
Y01278*
X04906*
Y01276*
X04902*
Y01275*
X04896*
Y01276*
X04892*
Y01278*
X0489*
Y01279*
X04889*
Y0128*
X04887*
Y01285*
X04886*
Y01292*
X04887*
Y01296*
X04889*
Y01299*
X0489*
Y013*
X04892*
Y01302*
X04893*
Y01303*
X04896*
Y01305*
X0491*
Y01303*
G37*
G36*
X03758Y01319D02*
X03757D01*
Y01315*
X03755*
Y01311*
X03754*
Y01306*
X03753*
Y01302*
X03751*
Y01298*
X0375*
Y01293*
X03748*
Y01288*
X03747*
Y01283*
X03745*
Y01279*
X03744*
Y01273*
X03743*
Y01268*
X03741*
Y01262*
X0374*
Y0126*
X03738*
Y01259*
X03727*
Y0126*
X03725*
Y01262*
X03727*
Y01265*
X03728*
Y01269*
X0373*
Y01273*
X03731*
Y01278*
X0373*
Y01282*
X03728*
Y01288*
X03727*
Y01292*
X03725*
Y01296*
X03724*
Y013*
X03723*
Y01305*
X03721*
Y01309*
X0372*
Y01313*
X03718*
Y01318*
X03717*
Y01321*
X03734*
Y01316*
X03735*
Y01309*
X03737*
Y01303*
X03738*
Y01298*
X0374*
Y01302*
X03741*
Y01308*
X03743*
Y01313*
X03744*
Y01321*
X03758*
Y01319*
G37*
G36*
X0302D02*
X03018D01*
Y01313*
X03017*
Y01309*
X03016*
Y01303*
X03014*
Y01299*
X03013*
Y01295*
X03011*
Y01289*
X0301*
Y01283*
X03008*
Y01279*
X03007*
Y01278*
X02993*
Y0128*
X02991*
Y01285*
X0299*
Y0129*
X02988*
Y01295*
X02987*
Y013*
X02985*
Y01305*
X02984*
Y01311*
X02983*
Y01315*
X02981*
Y01321*
X02997*
Y01315*
X02998*
Y01306*
X03*
Y01299*
X03001*
Y01296*
X03003*
Y01303*
X03004*
Y01311*
X03005*
Y01318*
X03007*
Y01321*
X0302*
Y01319*
G37*
G36*
X02911Y01289D02*
X0291D01*
Y01285*
X02908*
Y01283*
X02907*
Y01282*
X02905*
Y0128*
X02904*
Y01279*
X02902*
Y01278*
X02898*
Y01276*
X02881*
Y01278*
X02877*
Y01279*
X02875*
Y0128*
X02874*
Y01282*
X02872*
Y01283*
X02871*
Y01286*
X0287*
Y0129*
X02868*
Y01335*
X02885*
Y01292*
X02887*
Y01289*
X02888*
Y01288*
X02894*
Y01289*
X02895*
Y01292*
X02897*
Y01335*
X02911*
Y01289*
G37*
G36*
X04654Y01366D02*
X0466D01*
Y01365*
X04664*
Y01363*
X04668*
Y01362*
X04671*
Y01361*
X04673*
Y01359*
X04676*
Y01358*
X04677*
Y01356*
X04679*
Y01355*
X0468*
Y01353*
X04681*
Y01352*
X04683*
Y01351*
X04684*
Y01349*
X04686*
Y01346*
X04687*
Y01345*
X04689*
Y01341*
X0469*
Y01338*
X04691*
Y01331*
X04693*
Y01312*
X04691*
Y01305*
X0469*
Y01299*
X04689*
Y01295*
X04687*
Y0129*
X04686*
Y01288*
X04684*
Y01285*
X04683*
Y01282*
X04681*
Y01279*
X0468*
Y01276*
X04679*
Y01273*
X04677*
Y01272*
X04676*
Y01269*
X04674*
Y01266*
X04673*
Y01265*
X04671*
Y01262*
X0467*
Y0126*
X04668*
Y01259*
X04667*
Y01256*
X04666*
Y01255*
X04664*
Y01253*
X04663*
Y0125*
X04661*
Y01249*
X0466*
Y01248*
X04658*
Y01246*
X04657*
Y01245*
X04656*
Y01243*
X04654*
Y01242*
X04653*
Y0124*
X04651*
Y01239*
X0465*
Y01238*
X04648*
Y01236*
X04647*
Y01235*
X04646*
Y01233*
X04644*
Y01232*
X04643*
Y0123*
X04641*
Y01229*
X0464*
Y01227*
X04638*
Y01226*
X04637*
Y01225*
X04636*
Y01223*
X04634*
Y01222*
X04631*
Y0122*
X0463*
Y01219*
X04628*
Y01217*
X04627*
Y01216*
X04626*
Y01215*
X04623*
Y01213*
X04621*
Y01212*
X0462*
Y0121*
X04618*
Y01209*
X04616*
Y01207*
X04614*
Y01206*
X04613*
Y01205*
X0461*
Y01203*
X04608*
Y01202*
X04607*
Y012*
X04604*
Y01199*
X04603*
Y01197*
X046*
Y01196*
X04598*
Y01195*
X04597*
Y01193*
X04596*
Y01195*
X04594*
Y01196*
X04593*
Y01199*
X04591*
Y01202*
X0459*
Y01205*
X04588*
Y01207*
X04587*
Y01209*
X04585*
Y01213*
X04587*
Y01216*
X04588*
Y01219*
X0459*
Y01222*
X04591*
Y01225*
X04593*
Y01226*
X04594*
Y01229*
X04596*
Y01232*
X04597*
Y01235*
X04598*
Y01238*
X046*
Y0124*
X04601*
Y01242*
X04603*
Y01245*
X04604*
Y01248*
X04606*
Y0125*
X04607*
Y01253*
X04608*
Y01256*
X0461*
Y01258*
X04611*
Y0126*
X04613*
Y01263*
X04614*
Y01266*
X04616*
Y01269*
X04617*
Y01272*
X04618*
Y01275*
X0462*
Y01276*
X04621*
Y01279*
X04623*
Y01282*
X04624*
Y01285*
X04626*
Y01288*
X04627*
Y0129*
X04628*
Y01292*
X0463*
Y01293*
Y01295*
X04631*
Y01298*
X04633*
Y013*
X04634*
Y01303*
X04636*
Y01306*
X04637*
Y01308*
X04638*
Y01311*
X0464*
Y01313*
X04641*
Y01316*
X04643*
Y01318*
X04644*
Y01319*
X04657*
Y01316*
X04658*
Y01305*
X0466*
Y0129*
X04661*
Y01279*
X04666*
Y0128*
X04667*
Y01282*
X04668*
Y01283*
X0467*
Y01286*
X04671*
Y01288*
X04673*
Y01289*
X04674*
Y01292*
X04676*
Y01295*
X04677*
Y01298*
X04679*
Y013*
X0468*
Y01305*
X04681*
Y01311*
X04683*
Y01319*
X04684*
Y01326*
X04683*
Y01333*
X04681*
Y01338*
X0468*
Y01339*
X04679*
Y01342*
X04677*
Y01343*
X04676*
Y01345*
X04674*
Y01346*
X04673*
Y01348*
X04671*
Y01349*
X04668*
Y01351*
X04666*
Y01352*
X04661*
Y01353*
X04653*
Y01355*
X04644*
Y01353*
X04634*
Y01352*
X04628*
Y01351*
X04624*
Y01349*
X0462*
Y01348*
X04616*
Y01346*
X04611*
Y01345*
X04608*
Y01343*
X04606*
Y01342*
X04603*
Y01341*
X046*
Y01339*
X04597*
Y01338*
X04594*
Y01336*
X04593*
Y01335*
X0459*
Y01333*
X04587*
Y01332*
X04584*
Y01331*
X04583*
Y01329*
X0458*
Y01328*
X04578*
Y01326*
X04575*
Y01325*
X04574*
Y01323*
X04573*
Y01322*
X04568*
Y01323*
X04564*
Y01325*
X0456*
Y01326*
X04538*
Y01325*
X04533*
Y01323*
X0453*
Y01326*
X04533*
Y01328*
X04534*
Y01329*
X04537*
Y01331*
X04538*
Y01332*
X0454*
Y01333*
X04543*
Y01335*
X04544*
Y01336*
X04547*
Y01338*
X04548*
Y01339*
X04551*
Y01341*
X04554*
Y01342*
X04555*
Y01343*
X04558*
Y01345*
X04561*
Y01346*
X04564*
Y01348*
X04567*
Y01349*
X0457*
Y01351*
X04573*
Y01352*
X04575*
Y01353*
X04578*
Y01355*
X04583*
Y01356*
X04585*
Y01358*
X0459*
Y01359*
X04594*
Y01361*
X04598*
Y01362*
X04603*
Y01363*
X04608*
Y01365*
X04614*
Y01366*
X04623*
Y01368*
X04654*
Y01366*
G37*
G36*
X04196Y01321D02*
X04199D01*
Y01319*
X04201*
Y01318*
X04202*
Y01315*
X04203*
Y01278*
X04189*
Y0128*
X04186*
Y01279*
X04185*
Y01278*
X04182*
Y01276*
X04176*
Y01278*
X04173*
Y01279*
X04172*
Y0128*
X0417*
Y01282*
X04169*
Y01286*
X04168*
Y01295*
X04169*
Y01298*
X0417*
Y013*
X04172*
Y01302*
X04175*
Y01303*
X04178*
Y01305*
X04182*
Y01306*
X04188*
Y01308*
X04189*
Y01309*
X04188*
Y01312*
X04178*
Y01311*
X04173*
Y01309*
X04172*
Y01319*
X04173*
Y01321*
X04178*
Y01322*
X04196*
Y01321*
G37*
G36*
X04055Y01318D02*
X04056D01*
Y01319*
X04057*
Y01321*
X0406*
Y01322*
X04072*
Y01321*
X04073*
Y01319*
X04075*
Y01316*
X04076*
Y01278*
X0406*
Y01309*
X04059*
Y01311*
X04056*
Y01309*
X04055*
Y01292*
Y0129*
Y01282*
X04056*
Y01279*
X04055*
Y01278*
X04039*
Y01286*
X0404*
Y01303*
X04039*
Y01321*
X04045*
Y01322*
X04053*
Y01323*
X04055*
Y01318*
G37*
G36*
X04026Y01321D02*
X04029D01*
Y01319*
X0403*
Y01318*
X04032*
Y01313*
X04033*
Y01278*
X04019*
Y0128*
X04016*
Y01279*
X04014*
Y01278*
X04012*
Y01276*
X04006*
Y01278*
X04003*
Y01279*
X04*
Y01282*
X03999*
Y01285*
X03997*
Y01289*
Y0129*
Y01295*
X03999*
Y01298*
X04*
Y013*
X04002*
Y01302*
X04004*
Y01303*
X04007*
Y01305*
X0401*
Y01306*
X04017*
Y01312*
X04007*
Y01311*
X04003*
Y01309*
X04002*
Y01319*
X04003*
Y01321*
X04007*
Y01322*
X04026*
Y01321*
G37*
G36*
X03894Y01308D02*
X03893D01*
Y01298*
Y01296*
Y01289*
X03894*
Y01278*
X03878*
Y0128*
X03877*
Y01279*
X03874*
Y01278*
X03871*
Y01276*
X03866*
Y01278*
X03863*
Y01279*
X03861*
Y0128*
X0386*
Y01282*
X03858*
Y01285*
X03857*
Y01289*
X03856*
Y01305*
X03857*
Y01311*
X03858*
Y01313*
X0386*
Y01315*
X03861*
Y01316*
X03863*
Y01318*
X03864*
Y01319*
X03867*
Y01321*
X03877*
Y01322*
X03878*
Y01338*
X03884*
Y01339*
X03891*
Y01341*
X03894*
Y01308*
G37*
G36*
X03705Y01321D02*
X03708D01*
Y01319*
X0371*
Y01318*
X03711*
Y01316*
X03712*
Y01309*
X03714*
Y01278*
X03698*
Y0128*
X03697*
Y01279*
X03695*
Y01278*
X03691*
Y01276*
X03687*
Y01278*
X03682*
Y01279*
X03681*
Y0128*
X0368*
Y01283*
X03678*
Y01285*
Y01286*
Y01296*
X0368*
Y01299*
X03681*
Y013*
X03682*
Y01302*
X03684*
Y01303*
X03687*
Y01305*
X03691*
Y01306*
X03697*
Y01308*
X03698*
Y01311*
X03697*
Y01312*
X03687*
Y01311*
X03684*
Y01309*
X03681*
Y01318*
X03682*
Y01321*
X03687*
Y01322*
X03705*
Y01321*
G37*
G36*
X03585Y01339D02*
X03587D01*
Y01338*
X03585*
Y01335*
Y01333*
Y01296*
X03587*
Y01278*
X03569*
Y01338*
X03577*
Y01339*
X03584*
Y01341*
X03585*
Y01339*
G37*
G36*
X03556Y01321D02*
X03559D01*
Y01319*
X03561*
Y01318*
X03562*
Y01313*
X03564*
Y01278*
X03549*
Y0128*
X03546*
Y01279*
X03545*
Y01278*
X03542*
Y01276*
X03536*
Y01278*
X03534*
Y01279*
X03532*
Y0128*
X03531*
Y01282*
X03529*
Y01285*
X03528*
Y01295*
X03529*
Y01298*
X03531*
Y013*
X03532*
Y01302*
X03535*
Y01303*
X03538*
Y01305*
X03541*
Y01306*
X03548*
Y01312*
X03538*
Y01311*
X03534*
Y01309*
X03532*
Y01319*
X03534*
Y01321*
X03538*
Y01322*
X03556*
Y01321*
G37*
G36*
X03502Y01322D02*
X03504D01*
Y01318*
X03505*
Y01319*
X03506*
Y01321*
X03508*
Y01322*
X03519*
Y01321*
X03521*
Y01319*
X03522*
Y01316*
X03524*
Y01315*
Y01313*
Y0128*
X03525*
Y01279*
X03524*
Y01278*
X03509*
Y01305*
X03508*
Y01309*
X03506*
Y01311*
X03505*
Y01309*
X03504*
Y01278*
X03488*
Y01316*
X03486*
Y01319*
X03488*
Y01321*
X03494*
Y01322*
X03501*
Y01323*
X03502*
Y01322*
G37*
G36*
X03438Y0128D02*
Y01279D01*
Y01278*
X03422*
Y01318*
X03421*
Y01319*
X03422*
Y01321*
X03428*
Y01322*
X03435*
Y01323*
X03438*
Y0128*
G37*
G36*
X03375Y01321D02*
X03378D01*
Y01319*
X03379*
Y01318*
X0338*
Y01316*
X03382*
Y01309*
X03383*
Y01278*
X03369*
Y01279*
X03368*
Y0128*
X03366*
Y01279*
X03365*
Y01278*
X0336*
Y01276*
X03356*
Y01278*
X03352*
Y01279*
X0335*
Y0128*
X03349*
Y01283*
X03348*
Y01296*
X03349*
Y01299*
X0335*
Y013*
X03352*
Y01302*
X03353*
Y01303*
X03356*
Y01305*
X0336*
Y01306*
X03366*
Y01308*
X03368*
Y01311*
X03366*
Y01312*
X03356*
Y01311*
X03353*
Y01309*
X03352*
Y01319*
X03353*
Y01321*
X03356*
Y01322*
X03375*
Y01321*
G37*
G36*
X03269Y01278D02*
X03255D01*
Y0128*
X03252*
Y01279*
X0325*
Y01278*
X03247*
Y01276*
X03242*
Y01278*
X03237*
Y01279*
X03236*
Y0128*
X03234*
Y01283*
X03233*
Y01286*
X03232*
Y01308*
X03233*
Y01312*
X03234*
Y01313*
X03236*
Y01316*
X03237*
Y01318*
X0324*
Y01319*
X03242*
Y01321*
X03253*
Y01322*
X03255*
Y01335*
X03253*
Y01336*
X03255*
Y01338*
X0326*
Y01339*
X03267*
Y01341*
X03269*
Y01278*
G37*
G36*
X03219Y01321D02*
X03222D01*
Y01319*
X03223*
Y01318*
X03224*
Y01315*
X03226*
Y01278*
X03212*
Y0128*
X0321*
Y01279*
X03207*
Y01278*
X03204*
Y01276*
X03199*
Y01278*
X03196*
Y01279*
X03194*
Y0128*
X03193*
Y01282*
X03192*
Y01286*
X0319*
Y01293*
X03192*
Y01298*
X03193*
Y01299*
X03194*
Y013*
X03196*
Y01302*
X03197*
Y01303*
X032*
Y01305*
X03204*
Y01306*
X0321*
Y01308*
X03212*
Y01311*
X0321*
Y01312*
X032*
Y01311*
X03197*
Y01309*
X03194*
Y01319*
X03196*
Y01321*
X032*
Y01322*
X03219*
Y01321*
G37*
G36*
X03186Y01339D02*
X03187D01*
Y01308*
X03186*
Y01288*
X03187*
Y01278*
X03172*
Y0128*
X0317*
Y01279*
X03167*
Y01278*
X03164*
Y01276*
X03159*
Y01278*
X03156*
Y01279*
X03154*
Y0128*
X03153*
Y01282*
X03151*
Y01285*
X0315*
Y01288*
X03149*
Y01298*
Y01299*
Y01306*
X0315*
Y01311*
X03151*
Y01313*
X03153*
Y01315*
X03154*
Y01316*
X03156*
Y01318*
X03157*
Y01319*
X0316*
Y01321*
X0317*
Y01322*
X03172*
Y01338*
X03177*
Y01339*
X03184*
Y01341*
X03186*
Y01339*
G37*
G36*
X03143Y0128D02*
X03144D01*
Y01279*
X03143*
Y01278*
X03127*
Y01302*
Y01303*
Y01321*
X03133*
Y01322*
X0314*
Y01323*
X03143*
Y0128*
G37*
G36*
X02977Y01278D02*
X02961D01*
Y01318*
X0296*
Y01319*
X02961*
Y01321*
X02967*
Y01322*
X02974*
Y01323*
X02977*
Y01278*
G37*
G36*
X02933Y01322D02*
X02934D01*
Y01318*
X02935*
Y01319*
X02937*
Y01321*
X02938*
Y01322*
X0295*
Y01321*
X02951*
Y01319*
X02953*
Y01318*
X02954*
Y01303*
Y01302*
Y01283*
X02955*
Y01278*
X0294*
Y01308*
X02938*
Y01309*
X02937*
Y01311*
X02935*
Y01309*
X02934*
Y01278*
X02918*
Y01318*
X02917*
Y01319*
X02918*
Y01321*
X02924*
Y01322*
X02931*
Y01323*
X02933*
Y01322*
G37*
G36*
X04975Y01312D02*
X04976D01*
Y01311*
X04978*
Y01309*
X04979*
Y01302*
X04978*
Y013*
X04976*
Y01299*
X04975*
Y01298*
X04973*
Y01296*
X04972*
Y01292*
X04973*
Y0129*
X04975*
Y01289*
X04976*
Y0129*
X04978*
Y01293*
X04979*
Y01295*
X0498*
Y01296*
X04982*
Y01295*
X04983*
Y01292*
X04985*
Y01289*
X04983*
Y01288*
X04982*
Y01286*
X0498*
Y01285*
X04979*
Y0128*
X0498*
Y01279*
X04982*
Y01276*
X04972*
Y01278*
X04968*
Y01276*
X04963*
Y01275*
X04958*
Y01276*
X04955*
Y01278*
X04953*
Y01279*
X04952*
Y0128*
X0495*
Y01289*
X04952*
Y01292*
X04953*
Y01293*
X04956*
Y01295*
X04959*
Y01296*
X0496*
Y01299*
X04959*
Y01309*
X0496*
Y01311*
X04962*
Y01312*
X04965*
Y01313*
X04975*
Y01312*
G37*
G36*
X04885Y013D02*
X04883D01*
Y01293*
X04882*
Y01288*
X0488*
Y0128*
X04879*
Y01276*
X04869*
Y01278*
Y01279*
X0487*
Y01285*
X04872*
Y0129*
X04873*
Y01298*
X04875*
Y01303*
X04876*
Y01305*
X04885*
Y013*
G37*
G36*
X04803Y01316D02*
X04802D01*
Y01311*
X048*
Y01303*
X04802*
Y01305*
X04812*
Y01303*
X04813*
Y013*
X04814*
Y01296*
X04816*
Y01293*
X04814*
Y01288*
X04813*
Y01285*
X04812*
Y01282*
X0481*
Y0128*
X04809*
Y01279*
X04806*
Y01278*
X04803*
Y01276*
X04784*
Y01279*
Y0128*
X04786*
Y01288*
X04787*
Y01293*
X04789*
Y01299*
X0479*
Y01306*
X04792*
Y01313*
X04793*
Y01318*
X04797*
Y01319*
X04803*
Y01316*
G37*
G36*
X04746Y01313D02*
X0475D01*
Y01312*
X04752*
Y01309*
X04753*
Y013*
X04752*
Y01298*
X0475*
Y01296*
X04749*
Y01295*
X04747*
Y01293*
X04743*
Y0129*
X04744*
Y01288*
X04746*
Y01283*
X04747*
Y0128*
X04749*
Y01276*
X04739*
Y0128*
X04737*
Y01285*
X04736*
Y01289*
X04734*
Y0129*
X04731*
Y01289*
X0473*
Y01282*
X04729*
Y01276*
X04719*
Y01279*
X0472*
Y01285*
X04721*
Y01292*
X04723*
Y01298*
X04724*
Y01303*
X04726*
Y01306*
Y01308*
Y01312*
X04727*
Y01315*
X04746*
Y01313*
G37*
G36*
X04301Y01321D02*
X04304D01*
Y01319*
X04305*
Y01318*
X04306*
Y01316*
X04308*
Y01315*
X04309*
Y01311*
X04311*
Y01303*
X04312*
Y01295*
X04311*
Y01288*
X04309*
Y01285*
X04308*
Y01283*
X04306*
Y01282*
X04305*
Y0128*
X04304*
Y01279*
X04301*
Y01278*
X04296*
Y01276*
X04288*
Y01278*
X04282*
Y01279*
X04281*
Y0128*
X04278*
Y01282*
X04276*
Y01285*
X04275*
Y01288*
X04273*
Y01295*
X04272*
Y01305*
X04273*
Y01311*
X04275*
Y01315*
X04276*
Y01316*
X04278*
Y01318*
X04279*
Y01319*
X04281*
Y01321*
X04284*
Y01322*
X04301*
Y01321*
G37*
G36*
X03924D02*
X03927D01*
Y01319*
X03929*
Y01318*
X0393*
Y01316*
X03931*
Y01315*
X03933*
Y01311*
X03934*
Y013*
Y01299*
Y01296*
X03914*
Y01292*
X03916*
Y0129*
X03917*
Y01289*
X03919*
Y01288*
X03927*
Y01289*
X03931*
Y0129*
X03933*
Y0128*
X03931*
Y01279*
X0393*
Y01278*
X03924*
Y01276*
X03916*
Y01278*
X0391*
Y01279*
X03907*
Y0128*
X03906*
Y01282*
X03904*
Y01283*
X03903*
Y01285*
X03901*
Y01288*
X039*
Y01292*
X03899*
Y01306*
X039*
Y01312*
X03901*
Y01315*
X03903*
Y01316*
X03904*
Y01318*
X03906*
Y01319*
X03907*
Y01321*
X0391*
Y01322*
X03924*
Y01321*
G37*
G36*
X03787D02*
X0379D01*
Y01319*
X03791*
Y01318*
X03793*
Y01316*
X03794*
Y01315*
X03795*
Y01312*
X03797*
Y01306*
X03798*
Y01293*
X03797*
Y01288*
X03795*
Y01285*
X03794*
Y01282*
X03793*
Y0128*
X0379*
Y01279*
X03788*
Y01278*
X03783*
Y01276*
X03774*
Y01278*
X0377*
Y01279*
X03767*
Y0128*
X03765*
Y01282*
X03764*
Y01283*
X03763*
Y01286*
X03761*
Y01289*
X0376*
Y01309*
X03761*
Y01313*
X03763*
Y01316*
X03764*
Y01318*
X03765*
Y01319*
X03768*
Y01321*
X03771*
Y01322*
X03787*
Y01321*
G37*
G36*
X03471D02*
X03473D01*
Y01319*
X03476*
Y01318*
X03478*
Y01315*
X03479*
Y01312*
X03481*
Y01308*
X03482*
Y0129*
X03481*
Y01286*
X03479*
Y01283*
X03478*
Y01282*
X03476*
Y0128*
X03475*
Y01279*
X03472*
Y01278*
X03466*
Y01276*
X03458*
Y01278*
X03453*
Y01279*
X03451*
Y0128*
X03449*
Y01282*
X03448*
Y01283*
X03446*
Y01286*
X03445*
Y0129*
X03443*
Y01309*
X03445*
Y01313*
X03446*
Y01315*
X03448*
Y01318*
X03449*
Y01319*
X03452*
Y01321*
X03455*
Y01322*
X03471*
Y01321*
G37*
G36*
X03047D02*
X0305D01*
Y01319*
X03051*
Y01318*
X03053*
Y01316*
X03054*
Y01313*
X03056*
Y01309*
X03057*
Y01305*
Y01303*
Y01296*
X03037*
Y01295*
X03036*
Y01293*
X03037*
Y0129*
X03038*
Y01289*
X03041*
Y01288*
X0305*
Y01289*
X03053*
Y0129*
X03056*
Y0128*
X03054*
Y01279*
X03053*
Y01278*
X03047*
Y01276*
X03037*
Y01278*
X03031*
Y01279*
X0303*
Y0128*
X03027*
Y01282*
X03026*
Y01285*
X03024*
Y01286*
X03023*
Y0129*
X03021*
Y01309*
X03023*
Y01313*
X03024*
Y01315*
X03026*
Y01318*
X03027*
Y01319*
X0303*
Y01321*
X03033*
Y01322*
X03047*
Y01321*
G37*
G36*
X04867Y01312D02*
X04866D01*
Y01305*
X0487*
Y013*
X04869*
Y01299*
X04865*
Y01298*
X04863*
Y01293*
X04862*
Y01288*
X0486*
Y01282*
X04866*
Y01278*
X04865*
Y01276*
X04862*
Y01275*
X04857*
Y01276*
X04853*
Y01278*
X04852*
Y01289*
X04853*
Y01295*
X04855*
Y01299*
X04852*
Y01305*
X04856*
Y01306*
X04857*
Y01312*
X0486*
Y01313*
X04866*
Y01315*
X04867*
Y01312*
G37*
G36*
X04842Y01303D02*
X04843D01*
Y01302*
X04845*
Y013*
X04846*
Y01298*
X04847*
Y01288*
X04846*
Y01283*
X04845*
Y01282*
X04843*
Y01279*
X0484*
Y01278*
X04839*
Y01276*
X04835*
Y01275*
X04827*
Y01276*
X04823*
Y01278*
X04822*
Y01279*
X0482*
Y0128*
X04819*
Y01283*
X04817*
Y0129*
X04819*
Y01296*
X0482*
Y01299*
X04822*
Y013*
X04823*
Y01302*
X04824*
Y01303*
X04827*
Y01305*
X04842*
Y01303*
G37*
G36*
X04777D02*
X0478D01*
Y01302*
X04782*
Y013*
X04783*
Y01293*
Y01292*
Y01285*
X04782*
Y01282*
X0478*
Y0128*
X04779*
Y01279*
X04777*
Y01278*
X04774*
Y01276*
X0477*
Y01275*
X04764*
Y01276*
X04759*
Y01278*
X04757*
Y01279*
X04756*
Y01282*
X04754*
Y01293*
X04756*
Y01298*
X04757*
Y01299*
X04759*
Y013*
X0476*
Y01302*
X04762*
Y01303*
X04764*
Y01305*
X04777*
Y01303*
G37*
G36*
X04953Y01265D02*
X04952D01*
Y0126*
X04946*
Y01259*
X04943*
Y0126*
X04942*
Y01262*
X04943*
Y01266*
X04945*
Y01268*
X04953*
Y01265*
G37*
G36*
X05012Y01253D02*
X05013D01*
Y0125*
X05015*
Y01246*
X05013*
Y01238*
X05012*
Y01232*
X05011*
Y01226*
X05001*
Y01227*
X05002*
Y01235*
X05003*
Y0124*
X05005*
Y01248*
X05003*
Y01249*
X05001*
Y01248*
X04998*
Y01245*
X04996*
Y01238*
X04995*
Y01232*
X04993*
Y01226*
X04983*
Y01229*
X04985*
Y01235*
X04986*
Y0124*
X04988*
Y01248*
X04989*
Y01253*
X04991*
Y01255*
X04999*
Y01253*
X05002*
Y01255*
X05012*
Y01253*
G37*
G36*
X04877D02*
X04879D01*
Y0125*
X0488*
Y01246*
X04879*
Y01239*
X04877*
Y01233*
X04876*
Y01226*
X04866*
Y01229*
X04867*
Y01235*
X04869*
Y01242*
X0487*
Y01248*
X04869*
Y01249*
X04866*
Y01248*
X04863*
Y01243*
X04862*
Y01236*
X0486*
Y0123*
X04859*
Y01226*
X0485*
Y01233*
X04852*
Y01239*
X04853*
Y01248*
X04852*
Y01249*
X04849*
Y01248*
X04847*
Y01246*
X04846*
Y0124*
X04845*
Y01235*
X04843*
Y01227*
X04842*
Y01226*
X04833*
Y0123*
X04835*
Y01236*
X04836*
Y01243*
X04837*
Y0125*
X04839*
Y01253*
X0484*
Y01255*
X04849*
Y01253*
X04852*
Y01255*
X0486*
Y01253*
X04862*
Y01252*
X04865*
Y01253*
X04866*
Y01255*
X04877*
Y01253*
G37*
G36*
X0478Y01249D02*
X04779D01*
Y01248*
Y01243*
X04777*
Y01236*
X04776*
Y0123*
X04774*
Y01226*
X04766*
Y01227*
X04763*
Y01226*
X04759*
Y01225*
X04756*
Y01226*
X04753*
Y01227*
X04752*
Y01229*
X0475*
Y01239*
X04752*
Y01245*
X04753*
Y01252*
X04754*
Y01255*
X04763*
Y01249*
X04762*
Y01243*
X0476*
Y01238*
X04759*
Y01235*
X0476*
Y01232*
X04764*
Y01233*
X04767*
Y01238*
X04769*
Y01245*
X0477*
Y01252*
X04772*
Y01255*
X0478*
Y01249*
G37*
G36*
X0495Y01252D02*
X04949D01*
Y01245*
X04948*
Y01239*
X04946*
Y01232*
X04945*
Y01226*
X04935*
Y01229*
X04936*
Y01235*
X04938*
Y01242*
X04939*
Y01248*
X0494*
Y01253*
X04942*
Y01255*
X0495*
Y01252*
G37*
G36*
X04915D02*
X04913D01*
Y01245*
X04912*
Y01239*
X0491*
Y01232*
X04909*
Y01226*
X049*
Y01227*
X04897*
Y01226*
X04893*
Y01225*
X0489*
Y01226*
X04887*
Y01227*
X04886*
Y01229*
X04885*
Y01232*
X04883*
Y0124*
X04885*
Y01245*
X04886*
Y01248*
X04887*
Y01249*
X04889*
Y0125*
X0489*
Y01252*
X04893*
Y01253*
X04896*
Y01255*
X04915*
Y01252*
G37*
G36*
X04741Y01259D02*
X04743D01*
Y0124*
X04744*
Y01226*
X04734*
Y01236*
X04723*
Y01235*
X04721*
Y01232*
X0472*
Y01229*
X04719*
Y01226*
X0471*
Y01229*
X04711*
Y0123*
Y01232*
X04713*
Y01235*
X04714*
Y01238*
X04716*
Y0124*
X04717*
Y01242*
X04719*
Y01245*
X0472*
Y01248*
X04721*
Y0125*
X04723*
Y01253*
X04724*
Y01256*
X04726*
Y01259*
X04727*
Y01262*
X04729*
Y01263*
X0473*
Y01265*
X04741*
Y01259*
G37*
G36*
X0308Y01235D02*
X03084D01*
Y01233*
X03086*
Y01226*
X03083*
Y01227*
X03078*
Y01229*
X03066*
Y01227*
X03063*
Y01226*
X03061*
Y01223*
X0306*
Y01219*
X03061*
Y01216*
X03063*
Y01215*
X03066*
Y01213*
X03068*
Y01212*
X03071*
Y0121*
X03076*
Y01209*
X03078*
Y01207*
X03081*
Y01206*
X03083*
Y01205*
X03084*
Y01203*
X03086*
Y01202*
X03087*
Y01199*
X03088*
Y01187*
X03087*
Y01185*
X03086*
Y01182*
X03084*
Y0118*
X03083*
Y01179*
X0308*
Y01177*
X03077*
Y01176*
X03057*
Y01177*
X03053*
Y01179*
X03051*
Y0118*
Y01186*
X03056*
Y01185*
X03058*
Y01183*
X03064*
Y01182*
X0307*
Y01183*
X03074*
Y01185*
X03077*
Y01187*
X03078*
Y0119*
X0308*
Y01193*
X03078*
Y01196*
X03077*
Y01199*
X03074*
Y012*
X03071*
Y01202*
X03068*
Y01203*
X03066*
Y01205*
X03063*
Y01206*
X0306*
Y01207*
X03057*
Y01209*
X03056*
Y0121*
X03054*
Y01212*
X03053*
Y01216*
X03051*
Y01225*
X03053*
Y01229*
X03054*
Y0123*
X03056*
Y01232*
X03057*
Y01233*
X0306*
Y01235*
X03063*
Y01236*
X0308*
Y01235*
G37*
G36*
X04976Y01253D02*
X04978D01*
Y01252*
X04979*
Y0125*
X0498*
Y01248*
X04982*
Y01239*
X0498*
Y01235*
X04979*
Y01232*
X04978*
Y0123*
X04976*
Y01229*
X04975*
Y01227*
X04973*
Y01226*
X04968*
Y01225*
X04962*
Y01226*
X04958*
Y01227*
X04956*
Y01229*
X04955*
Y0123*
X04953*
Y01233*
X04952*
Y01242*
X04953*
Y01246*
X04955*
Y01249*
X04956*
Y0125*
X04958*
Y01252*
X04959*
Y01253*
X04962*
Y01255*
X04976*
Y01253*
G37*
G36*
X04932Y01263D02*
X04933D01*
Y01262*
X04932*
Y01255*
X04936*
Y0125*
X04935*
Y01249*
X0493*
Y01248*
X04929*
Y01243*
X04928*
Y01238*
X04926*
Y01232*
X04932*
Y01229*
X0493*
Y01226*
X04928*
Y01225*
X04923*
Y01226*
X04919*
Y01227*
X04918*
Y01239*
X04919*
Y01245*
X0492*
Y01249*
X04918*
Y01255*
X04922*
Y01256*
X04923*
Y01262*
X04926*
Y01263*
X0493*
Y01265*
X04932*
Y01263*
G37*
G36*
X04826Y01253D02*
X04827D01*
Y01252*
X04829*
Y0125*
X0483*
Y01248*
X04832*
Y01239*
X0483*
Y01235*
X04829*
Y01232*
X04827*
Y0123*
X04826*
Y01229*
X04824*
Y01227*
X04823*
Y01226*
X04817*
Y01225*
X04812*
Y01226*
X04807*
Y01227*
X04804*
Y0123*
X04803*
Y01233*
X04802*
Y01242*
X04803*
Y01243*
Y01246*
X04804*
Y01249*
X04806*
Y0125*
X04807*
Y01252*
X04809*
Y01253*
X04812*
Y01255*
X04826*
Y01253*
G37*
G36*
X04799Y0126D02*
X04797D01*
Y01255*
X04802*
Y01249*
X04796*
Y01248*
X04794*
Y01242*
X04793*
Y0124*
Y01239*
Y01236*
X04792*
Y01233*
X04793*
Y01232*
X04797*
Y01227*
X04796*
Y01226*
X04793*
Y01225*
X04789*
Y01226*
X04784*
Y01229*
X04783*
Y01236*
X04784*
Y01242*
X04786*
Y01249*
X04783*
Y01253*
X04784*
Y01255*
X04787*
Y01256*
X04789*
Y0126*
X0479*
Y01262*
X04792*
Y01263*
X04797*
Y01265*
X04799*
Y0126*
G37*
G36*
X03515Y01219D02*
X03518D01*
Y01217*
X03519*
Y01215*
X03521*
Y01212*
X03522*
Y01177*
X03514*
Y01207*
X03512*
Y0121*
X03511*
Y01212*
X03509*
Y01213*
X03499*
Y01212*
X03498*
Y0121*
X03495*
Y01177*
X03486*
Y01209*
X03485*
Y01219*
X03489*
Y0122*
X03495*
Y01216*
X03496*
Y01217*
X03499*
Y01219*
X03502*
Y0122*
X03515*
Y01219*
G37*
G36*
X03295D02*
X03297D01*
Y01217*
X03299*
Y01215*
X033*
Y01212*
X03302*
Y01177*
X03293*
Y01207*
X03292*
Y0121*
X0329*
Y01213*
X03279*
Y01212*
X03277*
Y0121*
X03275*
Y01177*
X03265*
Y0118*
X03266*
Y01187*
Y01189*
Y01206*
X03265*
Y01219*
X03269*
Y0122*
X03275*
Y01216*
X03276*
Y01217*
X03279*
Y01219*
X03282*
Y0122*
X03295*
Y01219*
G37*
G36*
X03436Y01216D02*
X03435D01*
Y01212*
X03428*
Y0121*
X03426*
Y01209*
X03425*
Y01202*
X03423*
Y01186*
X03425*
Y01177*
X03423*
Y01176*
X03422*
Y01177*
X03415*
Y01195*
Y01196*
Y01219*
X03419*
Y0122*
X03423*
Y01215*
X03425*
Y01216*
X03426*
Y01219*
X03429*
Y0122*
X03436*
Y01216*
G37*
G36*
X04806Y01215D02*
X04804D01*
Y01212*
X04799*
Y01213*
Y01216*
X048*
Y01217*
X04806*
Y01215*
G37*
G36*
X03559Y01219D02*
X03564D01*
Y01212*
X03559*
Y01213*
X03548*
Y01212*
X03545*
Y0121*
X03544*
Y01207*
X03542*
Y01205*
X03541*
Y01192*
X03542*
Y01189*
X03544*
Y01186*
X03546*
Y01185*
X03548*
Y01183*
X03559*
Y01185*
X03562*
Y01186*
X03565*
Y01185*
X03564*
Y01179*
X03562*
Y01177*
X03558*
Y01176*
X03546*
Y01177*
X03542*
Y01179*
X03541*
Y0118*
X03538*
Y01182*
X03536*
Y01185*
X03535*
Y01186*
X03534*
Y01189*
X03532*
Y01206*
X03534*
Y0121*
X03535*
Y01212*
X03536*
Y01215*
X03538*
Y01216*
X03539*
Y01217*
X03542*
Y01219*
X03545*
Y0122*
X03559*
Y01219*
G37*
G36*
X04727Y01215D02*
X04733D01*
Y01213*
X04734*
Y01209*
X0473*
Y0121*
X04727*
Y01212*
X04723*
Y0121*
X04719*
Y01209*
X04717*
Y01202*
X04719*
Y012*
X0472*
Y01199*
X04723*
Y01197*
X04726*
Y01196*
X04727*
Y01195*
X04729*
Y01193*
X0473*
Y01192*
X04731*
Y01183*
X0473*
Y0118*
X04729*
Y01179*
X04727*
Y01177*
X04724*
Y01176*
X0472*
Y01175*
X04714*
Y01176*
X04709*
Y01177*
X04706*
Y01183*
X04709*
Y01182*
X0471*
Y0118*
X04721*
Y01182*
X04724*
Y01185*
X04726*
Y01189*
X04724*
Y0119*
X04723*
Y01192*
X04721*
Y01193*
X04719*
Y01195*
X04716*
Y01196*
X04714*
Y01197*
X04713*
Y01199*
X04711*
Y01202*
X0471*
Y01207*
X04711*
Y0121*
X04713*
Y01212*
X04714*
Y01213*
X04717*
Y01215*
X04721*
Y01216*
X04727*
Y01215*
G37*
G36*
X04789Y01203D02*
X04792D01*
Y012*
X0479*
Y01199*
X04787*
Y012*
X04779*
Y01199*
X04777*
Y01197*
X04776*
Y01196*
X04774*
Y01193*
X04773*
Y01185*
X04774*
Y01182*
X04776*
Y0118*
X04784*
Y01182*
X04787*
Y01179*
X04786*
Y01176*
X04773*
Y01177*
X04772*
Y01179*
X0477*
Y0118*
X04769*
Y01183*
X04767*
Y01185*
Y01186*
Y01193*
X04769*
Y01197*
X0477*
Y01199*
X04772*
Y012*
X04773*
Y01202*
X04774*
Y01203*
X04777*
Y01205*
X04789*
Y01203*
G37*
G36*
X04827D02*
X04829D01*
Y01202*
X0483*
Y012*
X04832*
Y0119*
X0483*
Y01189*
X04829*
Y0119*
X04813*
Y01189*
X04812*
Y01183*
X04813*
Y01182*
X04814*
Y0118*
X04826*
Y01182*
X04829*
Y0118*
X04827*
Y01177*
X04826*
Y01176*
X04812*
Y01177*
X04809*
Y0118*
X04807*
Y01182*
X04806*
Y01193*
X04807*
Y01197*
X04809*
Y01199*
X0481*
Y012*
X04812*
Y01202*
X04813*
Y01203*
X04816*
Y01205*
X04827*
Y01203*
G37*
G36*
X0468Y01189D02*
X04679D01*
Y0119*
X0468*
Y01189*
G37*
G36*
X04679Y01187D02*
X04677D01*
Y01189*
X04679*
Y01187*
G37*
G36*
X04879Y01203D02*
X04877D01*
Y012*
X04876*
Y01197*
X04875*
Y01196*
X04873*
Y01193*
X04872*
Y0119*
X0487*
Y01189*
X04869*
Y01186*
X04867*
Y01183*
X04866*
Y01182*
X04865*
Y01179*
X04863*
Y01176*
X04862*
Y01175*
X0486*
Y01172*
X04859*
Y01169*
X04857*
Y01166*
X04856*
Y01163*
X04849*
Y01165*
X0485*
Y01166*
X04852*
Y01169*
X04853*
Y0117*
X04855*
Y01173*
X04856*
Y01176*
X04857*
Y01179*
X04856*
Y01187*
X04855*
Y01197*
X04853*
Y01205*
X04859*
Y01199*
X0486*
Y01192*
Y0119*
Y01187*
X04862*
Y01185*
X04863*
Y01187*
X04865*
Y0119*
X04866*
Y01193*
X04867*
Y01195*
X04869*
Y01197*
X0487*
Y012*
X04872*
Y01203*
X04873*
Y01205*
X04879*
Y01203*
G37*
G36*
X04686Y01186D02*
X04687D01*
Y01185*
X04686*
Y0118*
X04684*
Y01182*
X04681*
Y0118*
X0468*
Y01187*
X04683*
Y01186*
X04681*
Y01185*
X04683*
Y01183*
X04684*
Y01187*
X04686*
Y01186*
G37*
G36*
X0316Y01216D02*
Y01215D01*
Y01177*
X03151*
Y0118*
X0315*
Y01179*
X03147*
Y01177*
X03144*
Y01176*
X03134*
Y01177*
X0313*
Y01179*
X03129*
Y0118*
X03127*
Y01182*
X03126*
Y01186*
X03124*
Y01219*
X03129*
Y0122*
X03133*
Y01187*
X03134*
Y01186*
X03136*
Y01185*
X03137*
Y01183*
X03146*
Y01185*
X03149*
Y01186*
X03151*
Y01219*
X03154*
Y0122*
X0316*
Y01216*
G37*
G36*
X04686Y0119D02*
X04689D01*
Y01189*
X0469*
Y01187*
X04691*
Y0118*
X0469*
Y01186*
X04689*
Y01187*
Y01189*
X04686*
Y0119*
X04681*
Y01192*
X04686*
Y0119*
G37*
G36*
X03581Y01216D02*
X03582D01*
Y01217*
X03585*
Y01219*
X03588*
Y0122*
X03601*
Y01219*
X03604*
Y01217*
X03605*
Y01216*
X03607*
Y01213*
X03608*
Y01177*
X03599*
Y01209*
X03598*
Y01212*
X03597*
Y01213*
X03587*
Y01212*
X03584*
Y0121*
X03581*
Y01209*
Y01207*
Y01177*
X03571*
Y01183*
X03572*
Y01232*
X03571*
Y0124*
X03572*
Y01242*
X03581*
Y01216*
G37*
G36*
X03466Y01219D02*
X03469D01*
Y01217*
X03471*
Y01216*
X03472*
Y01215*
X03473*
Y01209*
Y01207*
Y01183*
X03475*
Y01177*
X03466*
Y01179*
X03462*
Y01177*
X03459*
Y01176*
X03449*
Y01177*
X03446*
Y01179*
X03443*
Y01182*
X03442*
Y01183*
X03441*
Y01196*
X03442*
Y01197*
X03443*
Y01199*
X03445*
Y012*
X03446*
Y01202*
X03449*
Y01203*
X03455*
Y01205*
X03463*
Y01206*
X03465*
Y01212*
X03463*
Y01213*
X03451*
Y01212*
X03446*
Y0121*
X03445*
Y01217*
X03446*
Y01219*
X03452*
Y0122*
X03466*
Y01219*
G37*
G36*
X03392Y01233D02*
X03396D01*
Y01232*
X03398*
Y0123*
X03399*
Y01229*
X034*
Y01226*
X03402*
Y01216*
X034*
Y01213*
X03399*
Y01212*
X03398*
Y0121*
X03395*
Y01209*
X03393*
Y01206*
X03399*
Y01205*
X034*
Y01203*
X03402*
Y01202*
X03403*
Y01199*
X03405*
Y01187*
X03403*
Y01185*
X03402*
Y01183*
X034*
Y01182*
X03399*
Y0118*
X03396*
Y01179*
X03393*
Y01177*
X03365*
Y0123*
X03363*
Y01233*
X03365*
Y01235*
X03392*
Y01233*
G37*
G36*
X03323Y0122D02*
X03332D01*
Y01213*
X03323*
Y01186*
X03325*
Y01185*
X03326*
Y01183*
X03329*
Y01185*
X03332*
Y01177*
X03319*
Y01179*
X03317*
Y0118*
X03316*
Y01182*
X03315*
Y01205*
Y01206*
Y01213*
X03309*
Y01215*
X03307*
Y01219*
X03309*
Y0122*
X03315*
Y0123*
X03317*
Y01232*
X03323*
Y0122*
G37*
G36*
X03209Y01177D02*
X032D01*
Y01179*
X03197*
Y01177*
X03193*
Y01176*
X03183*
Y01177*
X0318*
Y01179*
X03177*
Y0118*
X03176*
Y01182*
X03174*
Y01185*
X03173*
Y01186*
X03172*
Y0119*
X0317*
Y01205*
X03172*
Y01207*
X03173*
Y0121*
X03174*
Y01213*
X03176*
Y01215*
X03177*
Y01216*
X0318*
Y01217*
X03182*
Y01219*
X03186*
Y0122*
X032*
Y01242*
X03209*
Y01177*
G37*
G36*
X03109Y0123D02*
X03107D01*
Y0122*
X03117*
Y01213*
X03109*
Y01212*
X03107*
Y01187*
X03109*
Y01185*
X03111*
Y01183*
X03114*
Y01185*
X03116*
Y01183*
X03117*
Y01179*
X03116*
Y01177*
X03103*
Y01179*
X03101*
Y0118*
X031*
Y01183*
X03099*
Y01213*
X03093*
Y01219*
X03094*
Y0122*
X03099*
Y0123*
X03101*
Y01232*
X03109*
Y0123*
G37*
G36*
X0302Y01227D02*
X02994D01*
Y0121*
X03018*
Y01205*
X03017*
Y01203*
X02994*
Y01183*
X03008*
Y01185*
X0302*
Y01177*
X02985*
Y01232*
X02984*
Y01233*
X02985*
Y01235*
X0302*
Y01227*
G37*
G36*
X02931Y01232D02*
X0293D01*
Y01227*
X02905*
Y01217*
X02904*
Y01212*
X02905*
Y0121*
X02928*
Y01205*
X02927*
Y01203*
X02905*
Y01202*
X02904*
Y01185*
X02905*
Y01183*
X0292*
Y01185*
X0293*
Y01183*
X02931*
Y01177*
X02895*
Y01235*
X02931*
Y01232*
G37*
G36*
X02881Y0122D02*
Y01219D01*
Y01177*
X02871*
Y01235*
X02881*
Y0122*
G37*
G36*
X04847Y01207D02*
X04846D01*
Y01205*
X04852*
Y01202*
X0485*
Y012*
X04845*
Y01196*
X04843*
Y01189*
X04842*
Y0118*
X04847*
Y01179*
X04846*
Y01176*
X04837*
Y01177*
X04836*
Y01189*
X04837*
Y01195*
X04839*
Y012*
X04836*
Y01205*
X0484*
Y01207*
X04842*
Y01212*
X04846*
Y01213*
X04847*
Y01207*
G37*
G36*
X04803Y01202D02*
X04802D01*
Y01196*
X048*
Y0119*
X04799*
Y01183*
X04797*
Y01177*
X04796*
Y01176*
X04792*
Y01183*
X04793*
Y0119*
X04794*
Y01192*
Y01193*
Y01197*
X04796*
Y01203*
X04797*
Y01205*
X04803*
Y01202*
G37*
G36*
X04757Y01203D02*
X0476D01*
Y01202*
X04762*
Y012*
X04763*
Y01186*
X04762*
Y01183*
X0476*
Y0118*
X04759*
Y01179*
X04757*
Y01177*
X04754*
Y01176*
X04741*
Y01177*
X0474*
Y01179*
X04739*
Y0118*
X04737*
Y01193*
X04739*
Y01197*
X0474*
Y01199*
X04741*
Y01202*
X04744*
Y01203*
X04746*
Y01205*
X04757*
Y01203*
G37*
G36*
X0469Y01177D02*
X04689D01*
Y01176*
X04686*
Y01177*
X04687*
Y01179*
X04689*
Y0118*
X0469*
Y01177*
G37*
G36*
X04677Y01183D02*
Y01182D01*
Y0118*
X04679*
Y01179*
X0468*
Y01177*
X04681*
Y01176*
X04679*
Y01177*
X04677*
Y0118*
X04676*
Y01187*
X04677*
Y01183*
G37*
G36*
X04666Y01232D02*
X04667D01*
Y01217*
X04668*
Y01203*
X0467*
Y01187*
X04671*
Y01177*
X0467*
Y01176*
X04658*
Y01177*
X04657*
Y0118*
X04656*
Y01183*
X04654*
Y01186*
X04653*
Y01189*
X04651*
Y01192*
X0465*
Y01195*
X04648*
Y01197*
X04647*
Y012*
X04646*
Y01203*
X04644*
Y01205*
Y01206*
X04643*
Y01209*
X04641*
Y01212*
X0464*
Y01215*
X04638*
Y01217*
X0464*
Y01219*
X04641*
Y0122*
X04643*
Y01222*
X04644*
Y01223*
X04646*
Y01225*
X04647*
Y01226*
X04648*
Y01227*
X0465*
Y01229*
X04651*
Y0123*
X04653*
Y01232*
X04654*
Y01233*
X04656*
Y01235*
X04657*
Y01236*
X04658*
Y01238*
X0466*
Y01239*
X04661*
Y0124*
X04663*
Y01242*
X04666*
Y01232*
G37*
G36*
X04557Y01319D02*
X04563D01*
Y01318*
X04565*
Y01316*
X04568*
Y01315*
X0457*
Y01313*
X04573*
Y01312*
X04574*
Y01311*
X04575*
Y01309*
X04577*
Y01306*
X04578*
Y01305*
X0458*
Y01302*
X04581*
Y01299*
X04583*
Y01293*
X04584*
Y01283*
X04585*
Y01279*
X04584*
Y01269*
X04583*
Y01263*
X04581*
Y0126*
X0458*
Y01258*
X04578*
Y01256*
Y01255*
X04577*
Y01253*
X04575*
Y01252*
X04574*
Y01249*
X04573*
Y01248*
X04571*
Y01246*
X04568*
Y01245*
X04567*
Y01243*
X04565*
Y01242*
X04563*
Y0124*
X04561*
Y01238*
X04563*
Y01235*
X04564*
Y01233*
X04565*
Y0123*
X04567*
Y01227*
X04568*
Y01225*
X0457*
Y01223*
X04571*
Y0122*
X04573*
Y01217*
X04574*
Y01215*
X04575*
Y01213*
X04577*
Y0121*
X04578*
Y01207*
X0458*
Y01206*
X04581*
Y01203*
X04583*
Y012*
X04584*
Y01197*
X04585*
Y01196*
X04587*
Y01193*
X04588*
Y0119*
X0459*
Y01189*
X04591*
Y01186*
X04593*
Y01183*
X04594*
Y0118*
X04596*
Y01177*
X04594*
Y01176*
X04583*
Y01177*
X0458*
Y01179*
X04578*
Y0118*
X04575*
Y01182*
X04574*
Y01183*
X04573*
Y01185*
X04571*
Y01186*
X0457*
Y01187*
X04567*
Y01189*
X04565*
Y0119*
X04564*
Y01192*
X04563*
Y01193*
X0456*
Y01195*
X04558*
Y01196*
X04557*
Y01197*
X04555*
Y01199*
X04554*
Y012*
X04551*
Y01202*
X0455*
Y01203*
X04548*
Y01205*
X04547*
Y01206*
X04544*
Y01207*
X04543*
Y01209*
X04541*
Y0121*
X0454*
Y01212*
X04538*
Y01213*
X04535*
Y01215*
X04534*
Y01216*
X04533*
Y01217*
X04531*
Y01219*
X04528*
Y0122*
X04527*
Y01222*
X04525*
Y01223*
X04523*
Y01225*
X04521*
Y01226*
X0452*
Y01227*
X04518*
Y01229*
X04517*
Y0123*
X04514*
Y01232*
X04513*
Y01233*
X04511*
Y01243*
X04514*
Y01245*
X04518*
Y01246*
X04523*
Y01248*
X04525*
Y01249*
X04528*
Y0125*
X04531*
Y01252*
X04533*
Y01253*
X04535*
Y01255*
X04537*
Y01256*
X04538*
Y01258*
X04541*
Y01259*
X04543*
Y0126*
X04544*
Y01262*
X04545*
Y01263*
X04547*
Y01265*
X04548*
Y01268*
X0455*
Y01269*
X04551*
Y0127*
X04553*
Y01273*
X04554*
Y01276*
X04555*
Y01278*
X04557*
Y01282*
X04558*
Y01286*
X0456*
Y01298*
X04558*
Y01302*
X04557*
Y01303*
X04555*
Y01305*
X04554*
Y01306*
X04553*
Y01308*
X0455*
Y01309*
X04545*
Y01311*
X04528*
Y01309*
X04524*
Y01308*
X0452*
Y01306*
X04517*
Y01305*
X04514*
Y01303*
X04508*
Y01305*
X0451*
Y01306*
X04511*
Y01308*
X04514*
Y01309*
X04515*
Y01311*
X04518*
Y01312*
X0452*
Y01313*
X04523*
Y01315*
X04525*
Y01316*
X0453*
Y01318*
X04534*
Y01319*
X0454*
Y01321*
X04557*
Y01319*
G37*
G36*
X03244Y01219D02*
X03247D01*
Y01217*
X0325*
Y01216*
X03252*
Y01215*
X03253*
Y01212*
X03255*
Y01207*
X03256*
Y01197*
X03227*
Y0119*
X03229*
Y01189*
X0323*
Y01186*
X03233*
Y01185*
X03236*
Y01183*
X03247*
Y01185*
X0325*
Y01186*
X03252*
Y01187*
X03255*
Y0118*
X03253*
Y01179*
X0325*
Y01177*
X03247*
Y01176*
X03234*
Y01177*
X03229*
Y01179*
X03227*
Y0118*
X03224*
Y01182*
X03223*
Y01183*
X03222*
Y01186*
X0322*
Y0119*
X03219*
Y01207*
X0322*
Y0121*
X03222*
Y01213*
X03223*
Y01215*
X03224*
Y01216*
X03226*
Y01217*
X03229*
Y01219*
X03232*
Y0122*
X03244*
Y01219*
G37*
G36*
X02975Y01229D02*
X02974D01*
Y01227*
X0295*
Y0121*
X02973*
Y01203*
X0295*
Y01183*
X02964*
Y01185*
X02975*
Y01177*
X02974*
Y01176*
X02973*
Y01177*
X0294*
Y01187*
X02941*
Y01222*
X0294*
Y01235*
X02975*
Y01229*
G37*
G36*
X04538Y013D02*
X04543D01*
Y01299*
X04544*
Y01298*
X04545*
Y01296*
X04547*
Y01293*
X04545*
Y01292*
X04543*
Y0129*
X0454*
Y01289*
X04538*
Y01288*
X04537*
Y01286*
X04534*
Y01285*
X04533*
Y01283*
X0453*
Y01282*
X04528*
Y0128*
X04527*
Y01279*
X04525*
Y01278*
X04523*
Y01276*
X04521*
Y01275*
X0452*
Y01273*
X04518*
Y01272*
X04517*
Y0127*
X04514*
Y01269*
X04513*
Y01268*
X04511*
Y01266*
X0451*
Y01265*
X04508*
Y01263*
X04507*
Y01262*
X04505*
Y0126*
X04504*
Y01259*
X04502*
Y01258*
X04501*
Y01256*
X045*
Y01253*
X04498*
Y01252*
X04497*
Y0125*
X04495*
Y01249*
X04494*
Y01248*
X04492*
Y01245*
X04491*
Y01243*
X0449*
Y0124*
X04488*
Y01239*
X04487*
Y01236*
X04485*
Y01233*
X04484*
Y0123*
X04482*
Y01227*
X04481*
Y01223*
X0448*
Y01219*
X04478*
Y01202*
X0448*
Y01199*
X04481*
Y01196*
X04482*
Y01193*
X04484*
Y01192*
X04485*
Y0119*
X04487*
Y01189*
X0449*
Y01187*
X04491*
Y01186*
X04494*
Y01185*
X04497*
Y01183*
X04501*
Y01182*
X04507*
Y0118*
X04537*
Y01182*
X04545*
Y01183*
X04553*
Y01185*
X04557*
Y01186*
X04558*
Y01185*
X04561*
Y01183*
X04563*
Y01182*
X04564*
Y0118*
X04565*
Y01179*
X04564*
Y01177*
X0456*
Y01176*
X04557*
Y01175*
X04551*
Y01173*
X04547*
Y01172*
X0454*
Y0117*
X04533*
Y01169*
X04498*
Y0117*
X04491*
Y01172*
X04487*
Y01173*
X04484*
Y01175*
X04481*
Y01176*
X04478*
Y01177*
X04475*
Y01179*
X04474*
Y0118*
X04472*
Y01182*
X04471*
Y01183*
X0447*
Y01185*
X04468*
Y01186*
X04467*
Y01187*
X04465*
Y0119*
X04464*
Y01192*
X04462*
Y01195*
X04461*
Y01199*
X0446*
Y01205*
X04458*
Y01227*
X0446*
Y01235*
X04461*
Y01239*
X04462*
Y01243*
X04464*
Y01248*
X04465*
Y0125*
X04467*
Y01253*
X04468*
Y01256*
X0447*
Y01259*
X04471*
Y0126*
X04472*
Y01263*
X04474*
Y01265*
X04475*
Y01268*
X04477*
Y01269*
X04478*
Y01272*
X0448*
Y01273*
X04481*
Y01275*
X04482*
Y01276*
X04484*
Y01279*
X04485*
Y0128*
X04487*
Y01282*
X04488*
Y01283*
X0449*
Y01285*
X04491*
Y01286*
X04492*
Y01288*
X04494*
Y01289*
X04497*
Y0129*
X04498*
Y01292*
X045*
Y01293*
X04502*
Y01295*
X04505*
Y01296*
X04508*
Y01298*
X04511*
Y01299*
X04515*
Y013*
X04521*
Y01302*
X04538*
Y013*
G37*
G36*
X04409Y01227D02*
Y01226D01*
Y01165*
X04408*
Y01166*
X04407*
Y01369*
X04408*
Y01371*
X04409*
Y01227*
G37*
G36*
X04716Y01123D02*
X04714D01*
Y01122*
X0471*
Y01127*
X04716*
Y01123*
G37*
G36*
X04517Y01122D02*
X04513D01*
Y01123*
X04511*
Y01126*
X04513*
Y01127*
X04517*
Y01122*
G37*
G36*
X04085Y01123D02*
X04083D01*
Y01122*
X04079*
Y01124*
Y01126*
X0408*
Y01127*
X04085*
Y01123*
G37*
G36*
X04636D02*
X04638D01*
Y01119*
X04636*
Y0112*
X04631*
Y01122*
X04624*
Y0112*
X0462*
Y01119*
X04618*
Y01116*
X04617*
Y01112*
X04618*
Y01109*
X0462*
Y01107*
X04623*
Y01106*
X04627*
Y01104*
X0463*
Y01103*
X04633*
Y01102*
X04636*
Y011*
X04637*
Y01099*
X04638*
Y01096*
X0464*
Y01086*
X04638*
Y01083*
X04637*
Y01082*
X04634*
Y0108*
X04633*
Y01079*
X04617*
Y0108*
X04614*
Y01082*
X04613*
Y01086*
X04616*
Y01084*
X04618*
Y01083*
X04623*
Y01082*
X04627*
Y01083*
X04631*
Y01084*
X04633*
Y01086*
X04634*
Y01087*
X04636*
Y01094*
X04634*
Y01096*
X04633*
Y01097*
X04631*
Y01099*
X04628*
Y011*
X04624*
Y01102*
X04621*
Y01103*
X04618*
Y01104*
X04617*
Y01106*
X04616*
Y01107*
X04614*
Y0111*
X04613*
Y01117*
X04614*
Y0112*
X04616*
Y01122*
X04617*
Y01123*
X0462*
Y01124*
X04636*
Y01123*
G37*
G36*
X0318D02*
X03183D01*
Y01119*
X0318*
Y0112*
X03176*
Y01122*
X03169*
Y0112*
X03164*
Y01119*
X03163*
Y01116*
X03161*
Y01114*
Y01112*
X03163*
Y01109*
X03164*
Y01107*
X03167*
Y01106*
X03172*
Y01104*
X03174*
Y01103*
X03177*
Y01102*
X0318*
Y011*
X03182*
Y01099*
X03183*
Y01096*
X03184*
Y01086*
X03183*
Y01083*
X03182*
Y01082*
X03179*
Y0108*
X03177*
Y01079*
X03161*
Y0108*
X03159*
Y01082*
X03157*
Y01086*
X0316*
Y01084*
X03163*
Y01083*
X03167*
Y01082*
X03172*
Y01083*
X03176*
Y01084*
X03177*
Y01086*
X03179*
Y01087*
X0318*
Y01094*
X03179*
Y01096*
X03177*
Y01097*
X03176*
Y01099*
X03173*
Y011*
X03169*
Y01102*
X03166*
Y01103*
X03163*
Y01104*
X03161*
Y01106*
X0316*
Y01107*
X03159*
Y01109*
X03157*
Y01117*
X03159*
Y0112*
X0316*
Y01122*
X03161*
Y01123*
X03164*
Y01124*
X0318*
Y01123*
G37*
G36*
X03413D02*
X03416D01*
Y01117*
X03415*
Y01119*
X03412*
Y0112*
X03406*
Y01122*
X03402*
Y0112*
X03396*
Y01119*
X03393*
Y01117*
X03392*
Y01116*
X0339*
Y01114*
Y01113*
X03389*
Y0111*
X03388*
Y01106*
X03386*
Y01097*
X03388*
Y01093*
X03389*
Y0109*
X0339*
Y01089*
X03392*
Y01086*
X03395*
Y01084*
X03398*
Y01083*
X03402*
Y01082*
X03406*
Y01083*
X03412*
Y01084*
X03415*
Y01086*
X03418*
Y01083*
X03416*
Y01082*
X03415*
Y0108*
X03412*
Y01079*
X03396*
Y0108*
X03392*
Y01082*
X0339*
Y01083*
X03389*
Y01084*
X03388*
Y01086*
X03386*
Y01087*
X03385*
Y0109*
X03383*
Y01093*
X03382*
Y01109*
X03383*
Y01113*
X03385*
Y01116*
X03386*
Y01117*
X03388*
Y01119*
X03389*
Y0112*
X0339*
Y01122*
X03393*
Y01123*
X03396*
Y01124*
X03413*
Y01123*
G37*
G36*
X0458Y01112D02*
X04583D01*
Y0111*
X04584*
Y01109*
X04585*
Y01104*
X04587*
Y01079*
X04583*
Y0108*
X04581*
Y01083*
X04583*
Y01092*
X04581*
Y01106*
X0458*
Y01107*
X04578*
Y01109*
X04571*
Y01107*
X04568*
Y01106*
X04565*
Y01082*
Y0108*
Y01079*
X04561*
Y0108*
X0456*
Y01087*
X04561*
Y01089*
X0456*
Y01112*
X04565*
Y0111*
X04568*
Y01112*
X04573*
Y01113*
X0458*
Y01112*
G37*
G36*
X04216D02*
X04219D01*
Y0111*
X04222*
Y01107*
X04223*
Y01083*
X04225*
Y0108*
X04223*
Y01079*
X04219*
Y01096*
Y01097*
Y01104*
X04218*
Y01107*
X04215*
Y01109*
X04208*
Y01107*
X04205*
Y01106*
X04203*
Y01104*
X04202*
Y01082*
X04203*
Y0108*
X04202*
Y01079*
X04198*
Y01112*
X04202*
Y0111*
X04205*
Y01112*
X04209*
Y01113*
X04216*
Y01112*
G37*
G36*
X03505D02*
X03509D01*
Y0111*
X03511*
Y01109*
X03512*
Y01107*
X03514*
Y01104*
X03515*
Y011*
X03516*
Y01093*
X03515*
Y01089*
X03514*
Y01086*
X03512*
Y01084*
X03511*
Y01083*
X03509*
Y01082*
X03506*
Y0108*
X03502*
Y01079*
X03492*
Y01064*
X03488*
Y01109*
X03486*
Y0111*
X03488*
Y01112*
X03492*
Y0111*
X03495*
Y01112*
X03498*
Y01113*
X03505*
Y01112*
G37*
G36*
X03332D02*
X03335D01*
Y0111*
X03336*
Y01109*
X03338*
Y01104*
X03339*
Y01079*
X03335*
Y0108*
X03333*
Y01082*
X03335*
Y01094*
X03333*
Y01106*
X03332*
Y01107*
X0333*
Y01109*
X03323*
Y01107*
X0332*
Y01106*
X03317*
Y01083*
Y01082*
Y01079*
X03313*
Y0108*
X03312*
Y01087*
X03313*
Y0109*
X03312*
Y01112*
X03317*
Y0111*
X0332*
Y01112*
X03325*
Y01113*
X03332*
Y01112*
G37*
G36*
X04448D02*
X04451D01*
Y0111*
X04452*
Y01109*
X04454*
Y01107*
X04455*
Y01103*
Y01102*
Y01079*
X04451*
Y01104*
X0445*
Y01107*
X04447*
Y01109*
X04441*
Y01107*
X04437*
Y01106*
X04435*
Y01104*
X04434*
Y01102*
X04435*
Y0108*
X04434*
Y01079*
X04431*
Y0108*
X04429*
Y01106*
X04428*
Y01107*
X04425*
Y01109*
X04419*
Y01107*
X04417*
Y01106*
X04415*
Y01104*
X04414*
Y01079*
X04409*
Y01107*
X04408*
Y01112*
X04414*
Y01109*
X04415*
Y0111*
X04418*
Y01112*
X04421*
Y01113*
X04428*
Y01112*
X04431*
Y0111*
X04432*
Y01109*
X04435*
Y0111*
X04438*
Y01112*
X04442*
Y01113*
X04448*
Y01112*
G37*
G36*
X03587D02*
X03588D01*
Y01107*
X03581*
Y01106*
X03579*
Y01102*
X03578*
Y01083*
X03579*
Y01082*
Y0108*
X03578*
Y01079*
X03574*
Y01112*
X03578*
Y01109*
X03579*
Y0111*
X03581*
Y01112*
X03584*
Y01113*
X03587*
Y01112*
G37*
G36*
X0366Y01124D02*
X03654D01*
Y01123*
X03652*
Y01112*
X0366*
Y01109*
X03658*
Y01107*
X03657*
Y01109*
X03652*
Y0108*
X03651*
Y01079*
X03648*
Y0108*
X03647*
Y01106*
X03648*
Y01107*
X03647*
Y01109*
X03644*
Y01107*
X03642*
Y01109*
X03641*
Y01112*
X03647*
Y01122*
X03648*
Y01124*
X0365*
Y01126*
X03651*
Y01127*
X03654*
Y01129*
X0366*
Y01124*
G37*
G36*
X047Y01112D02*
X04704D01*
Y0111*
X04706*
Y01107*
X04704*
Y01106*
X04703*
Y01107*
X047*
Y01109*
X04693*
Y01107*
X0469*
Y01106*
X04689*
Y01104*
X04687*
Y01103*
X04686*
Y01097*
X04684*
Y01093*
X04686*
Y01087*
X04687*
Y01086*
X04689*
Y01084*
X0469*
Y01083*
X04696*
Y01082*
X04697*
Y01083*
X04701*
Y01084*
X04704*
Y01086*
X04706*
Y01082*
X04704*
Y0108*
X04703*
Y01079*
X0469*
Y0108*
X04687*
Y01082*
X04686*
Y01083*
X04684*
Y01084*
X04683*
Y01086*
X04681*
Y0109*
X0468*
Y011*
X04681*
Y01104*
X04683*
Y01106*
X04684*
Y01109*
X04687*
Y0111*
X04689*
Y01112*
X04693*
Y01113*
X047*
Y01112*
G37*
G36*
X04135D02*
X04139D01*
Y0111*
X0414*
Y01107*
X04139*
Y01106*
X04138*
Y01107*
X04135*
Y01109*
X04128*
Y01107*
X04125*
Y01106*
X04123*
Y01102*
X04125*
Y011*
X04126*
Y01099*
X04132*
Y01097*
X04136*
Y01096*
X04139*
Y01094*
X0414*
Y01092*
X04142*
Y01084*
X0414*
Y01083*
X04139*
Y01082*
X04138*
Y0108*
X04136*
Y01079*
X04122*
Y0108*
X04119*
Y01086*
X0412*
Y01084*
X04123*
Y01083*
X04128*
Y01082*
X04132*
Y01083*
X04135*
Y01084*
X04136*
Y01086*
X04138*
Y0109*
X04136*
Y01092*
X04135*
Y01093*
X0413*
Y01094*
X04126*
Y01096*
X04123*
Y01097*
X0412*
Y011*
X04119*
Y01107*
X0412*
Y01109*
X04122*
Y0111*
X04123*
Y01112*
X04128*
Y01113*
X04135*
Y01112*
G37*
G36*
X04112D02*
X04115D01*
Y0111*
X04116*
Y01106*
X04113*
Y01107*
X0411*
Y01109*
X04103*
Y01107*
X041*
Y01106*
X04099*
Y01104*
X04097*
Y01102*
X04096*
Y01089*
X04097*
Y01087*
X04099*
Y01084*
X04102*
Y01083*
X04106*
Y01082*
X04107*
Y01083*
X04113*
Y01084*
X04115*
Y01086*
X04116*
Y0108*
X04113*
Y01079*
X041*
Y0108*
X04097*
Y01082*
X04096*
Y01083*
X04095*
Y01084*
X04093*
Y01087*
X04092*
Y01093*
X0409*
Y01097*
X04092*
Y01103*
X04093*
Y01106*
X04095*
Y01107*
X04096*
Y01109*
X04097*
Y0111*
X04099*
Y01112*
X04103*
Y01113*
X04112*
Y01112*
G37*
G36*
X04348Y01083D02*
X04349D01*
Y0108*
X04348*
Y01079*
X04344*
Y01082*
X04342*
Y0108*
X04339*
Y01079*
X04328*
Y0108*
X04325*
Y01083*
X04324*
Y01084*
X04322*
Y01112*
X04326*
Y01087*
X04328*
Y01084*
X04329*
Y01083*
X04332*
Y01082*
X04336*
Y01083*
X04341*
Y01084*
X04342*
Y01086*
X04344*
Y01112*
X04348*
Y01083*
G37*
G36*
X03236Y0108D02*
X03234D01*
Y01079*
X03232*
Y0108*
X0323*
Y01082*
X03229*
Y0108*
X03227*
Y01079*
X03214*
Y0108*
X03213*
Y01082*
X03212*
Y01083*
X0321*
Y01089*
X03209*
Y0111*
Y01112*
X03214*
Y01086*
X03216*
Y01084*
X03217*
Y01083*
X0322*
Y01082*
X03223*
Y01083*
X03227*
Y01084*
X0323*
Y01112*
X03236*
Y0108*
G37*
G36*
X0474Y01112D02*
X04744D01*
Y0111*
X04746*
Y01109*
X04747*
Y01107*
X04749*
Y01106*
X0475*
Y01102*
X04752*
Y01096*
X04727*
Y01094*
X04726*
Y01093*
X04727*
Y01089*
X04729*
Y01087*
X0473*
Y01084*
X04733*
Y01083*
X04744*
Y01084*
X04747*
Y01086*
X0475*
Y01082*
X04749*
Y0108*
X04744*
Y01079*
X04731*
Y0108*
X04729*
Y01082*
X04727*
Y01083*
X04726*
Y01084*
X04724*
Y01087*
X04723*
Y0109*
X04721*
Y011*
X04723*
Y01104*
X04724*
Y01107*
X04726*
Y01109*
X04727*
Y0111*
X0473*
Y01112*
X04733*
Y01113*
X0474*
Y01112*
G37*
G36*
X04716Y01107D02*
X04714D01*
Y011*
X04716*
Y0108*
X04714*
Y01079*
X04711*
Y0108*
X0471*
Y01112*
X04716*
Y01107*
G37*
G36*
X04664Y01112D02*
X04668D01*
Y0111*
X0467*
Y01109*
X04671*
Y01107*
X04673*
Y01106*
X04674*
Y01102*
X04676*
Y01096*
Y01094*
Y0109*
X04674*
Y01086*
X04673*
Y01084*
X04671*
Y01082*
X0467*
Y0108*
X04667*
Y01079*
X04654*
Y0108*
X04651*
Y01082*
X0465*
Y01083*
X04648*
Y01086*
X04647*
Y01089*
X04646*
Y01102*
X04647*
Y01106*
X04648*
Y01107*
X0465*
Y01109*
X04651*
Y0111*
X04653*
Y01112*
X04657*
Y01113*
X04664*
Y01112*
G37*
G36*
X04543D02*
X04547D01*
Y0111*
X04548*
Y01109*
X0455*
Y01107*
X04551*
Y01104*
X04553*
Y011*
X04554*
Y0109*
X04553*
Y01086*
X04551*
Y01084*
X0455*
Y01083*
X04548*
Y01082*
X04547*
Y0108*
X04544*
Y01079*
X04533*
Y0108*
X0453*
Y01082*
X04528*
Y01083*
X04527*
Y01084*
X04525*
Y01087*
X04524*
Y01103*
X04525*
Y01106*
X04527*
Y01107*
X04528*
Y01109*
X0453*
Y0111*
X04531*
Y01112*
X04535*
Y01113*
X04543*
Y01112*
G37*
G36*
X04517Y0111D02*
Y01109D01*
Y01079*
X04513*
Y01109*
X04511*
Y0111*
X04513*
Y01112*
X04517*
Y0111*
G37*
G36*
X04501Y01112D02*
X04508D01*
Y01109*
X04501*
Y01083*
X04508*
Y0108*
X04507*
Y01079*
X045*
Y0108*
X04498*
Y01082*
X04497*
Y01084*
X04495*
Y01107*
Y01109*
X04491*
Y01112*
X04495*
Y0112*
X04501*
Y01112*
G37*
G36*
X0448D02*
X04482D01*
Y0111*
X04484*
Y01109*
X04485*
Y01106*
X04487*
Y01097*
Y01096*
Y0108*
X04485*
Y01079*
X04482*
Y0108*
X04478*
Y01079*
X04467*
Y0108*
X04465*
Y01082*
X04464*
Y01083*
X04462*
Y01087*
X04461*
Y0109*
X04462*
Y01094*
X04464*
Y01096*
X04465*
Y01097*
X04467*
Y01099*
X04471*
Y011*
X04478*
Y01102*
X04481*
Y01107*
X0448*
Y01109*
X0447*
Y01107*
X04467*
Y01106*
X04465*
Y0111*
X04467*
Y01112*
X04471*
Y01113*
X0448*
Y01112*
G37*
G36*
X04392D02*
X04395D01*
Y0111*
X04397*
Y01109*
X04398*
Y01107*
X04399*
Y01106*
X04401*
Y01103*
X04402*
Y01089*
X04401*
Y01086*
X04399*
Y01083*
X04398*
Y01082*
X04397*
Y0108*
X04394*
Y01079*
X04381*
Y0108*
X04378*
Y01082*
X04377*
Y01083*
X04375*
Y01086*
X04374*
Y0109*
X04372*
Y01102*
X04374*
Y01106*
X04375*
Y01107*
X04377*
Y01109*
X04378*
Y0111*
X04379*
Y01112*
X04384*
Y01113*
X04392*
Y01112*
G37*
G36*
X04362Y01113D02*
X04364D01*
Y01112*
X04371*
Y0111*
X04369*
Y01109*
X04364*
Y01107*
X04362*
Y01084*
X04364*
Y01083*
X04369*
Y01079*
X04362*
Y0108*
X04359*
Y01083*
X04358*
Y01102*
Y01103*
Y01107*
X04357*
Y01109*
X04352*
Y01112*
X04358*
Y0112*
X04362*
Y01113*
G37*
G36*
X04304Y0112D02*
X04305D01*
Y01116*
X04306*
Y01114*
Y01112*
X04308*
Y01107*
X04309*
Y01104*
X04311*
Y011*
X04312*
Y01096*
X04314*
Y01092*
X04315*
Y01087*
X04316*
Y01083*
X04318*
Y01079*
X04314*
Y0108*
X04312*
Y01083*
X04311*
Y01089*
X04309*
Y01093*
X04308*
Y01094*
X04291*
Y01092*
X04289*
Y01087*
X04288*
Y01082*
X04286*
Y01079*
X04282*
Y01084*
X04284*
Y01089*
X04285*
Y01093*
X04286*
Y01097*
X04288*
Y011*
X04289*
Y01104*
X04291*
Y01109*
X04292*
Y01113*
X04294*
Y01117*
X04295*
Y01122*
X04296*
Y01124*
X04304*
Y0112*
G37*
G36*
X04258Y01129D02*
X04259D01*
Y0108*
X04258*
Y01079*
X04255*
Y0108*
X04253*
Y01082*
X04252*
Y0108*
X04251*
Y01079*
X04241*
Y0108*
X04238*
Y01082*
X04236*
Y01083*
X04235*
Y01084*
X04233*
Y01086*
X04232*
Y01089*
X04231*
Y01099*
Y011*
Y01102*
X04232*
Y01104*
X04233*
Y01106*
X04235*
Y01107*
X04236*
Y01109*
X04238*
Y0111*
X04241*
Y01112*
X04253*
Y01129*
X04256*
Y0113*
X04258*
Y01129*
G37*
G36*
X04182Y01112D02*
X04185D01*
Y0111*
X04188*
Y01107*
X04189*
Y01079*
X04185*
Y0108*
X0418*
Y01079*
X0417*
Y0108*
X04168*
Y01082*
X04166*
Y01084*
X04165*
Y01093*
X04166*
Y01096*
X04168*
Y01097*
X04169*
Y01099*
X04173*
Y011*
X0418*
Y01102*
X04185*
Y01106*
X04183*
Y01107*
X04182*
Y01109*
X04172*
Y01107*
X04168*
Y0111*
X04169*
Y01112*
X04175*
Y01113*
X04182*
Y01112*
G37*
G36*
X04085Y01086D02*
Y01084D01*
Y01079*
X0408*
Y01107*
X04079*
Y0111*
X0408*
Y01112*
X04085*
Y01086*
G37*
G36*
X04069Y01114D02*
X04067D01*
Y01113*
X04069*
Y01112*
X04076*
Y01109*
X04069*
Y01107*
X04067*
Y01086*
X04069*
Y01083*
X04076*
Y0108*
X04075*
Y01079*
X04067*
Y0108*
X04065*
Y01083*
X04063*
Y01109*
X0406*
Y01107*
X04059*
Y01109*
X04057*
Y01112*
X04063*
Y0112*
X04069*
Y01114*
G37*
G36*
X04045Y01112D02*
X04049D01*
Y0111*
X0405*
Y01109*
X04052*
Y01107*
X04053*
Y01106*
X04055*
Y01102*
X04056*
Y0109*
X04055*
Y01086*
X04053*
Y01084*
X04052*
Y01082*
X04049*
Y0108*
X04046*
Y01079*
X04034*
Y0108*
X04032*
Y01082*
X0403*
Y01083*
X04029*
Y01084*
X04027*
Y01089*
X04026*
Y01103*
X04027*
Y01106*
X04029*
Y01107*
X0403*
Y0111*
X04033*
Y01112*
X04037*
Y01113*
X04045*
Y01112*
G37*
G36*
X03996Y01129D02*
X03997D01*
Y0111*
X03999*
Y01112*
X04004*
Y01113*
X04009*
Y01112*
X04013*
Y0111*
X04016*
Y01109*
X04017*
Y01107*
X04019*
Y01104*
X0402*
Y01099*
X04022*
Y01094*
X0402*
Y0109*
X04019*
Y01087*
X04017*
Y01086*
X04016*
Y01084*
X04014*
Y01083*
X04013*
Y01082*
X0401*
Y0108*
X04006*
Y01079*
X03993*
Y01109*
X03992*
Y01129*
X03994*
Y0113*
X03996*
Y01129*
G37*
G36*
X03976Y01112D02*
X03979D01*
Y0111*
X03982*
Y01107*
X03983*
Y01106*
X03984*
Y01103*
X03986*
Y01089*
X03984*
Y01086*
X03983*
Y01083*
X03982*
Y01082*
X0398*
Y0108*
X03977*
Y01079*
X03964*
Y0108*
X03962*
Y01082*
X0396*
Y01083*
X03959*
Y01086*
X03957*
Y01089*
X03956*
Y01102*
X03957*
Y01106*
X03959*
Y01107*
X0396*
Y01109*
X03962*
Y0111*
X03963*
Y01112*
X03967*
Y01113*
X03976*
Y01112*
G37*
G36*
X03943Y01123D02*
X03946D01*
Y01122*
X03947*
Y0112*
X03949*
Y01119*
X0395*
Y01107*
X03949*
Y01104*
X03947*
Y01103*
X03944*
Y01102*
X03943*
Y011*
X03939*
Y01099*
X0394*
Y01097*
X03941*
Y01094*
X03943*
Y01093*
X03944*
Y01092*
X03946*
Y01089*
X03947*
Y01087*
X03949*
Y01086*
X0395*
Y01084*
X03951*
Y01082*
X03953*
Y01079*
X03949*
Y0108*
X03947*
Y01082*
X03946*
Y01083*
X03944*
Y01086*
X03943*
Y01087*
X03941*
Y01089*
X0394*
Y01092*
X03939*
Y01093*
X03937*
Y01094*
X03936*
Y01097*
X03934*
Y01099*
X03927*
Y01079*
X03923*
Y01122*
X03921*
Y01123*
X03923*
Y01124*
X03943*
Y01123*
G37*
G36*
X03896Y0112D02*
X03876D01*
Y01119*
X03874*
Y01106*
X03876*
Y01104*
X03896*
Y01102*
X03894*
Y011*
X03876*
Y01083*
X03897*
Y0108*
X03896*
Y01079*
X0387*
Y01124*
X03896*
Y0112*
G37*
G36*
X03863D02*
X03841D01*
Y01104*
X03861*
Y011*
X03841*
Y01083*
X03863*
Y01079*
X03837*
Y01092*
Y01093*
Y01122*
X03836*
Y01123*
X03837*
Y01124*
X03863*
Y0112*
G37*
G36*
X03828D02*
X03808D01*
Y01104*
X03828*
Y01102*
X03827*
Y011*
X03808*
Y01097*
Y01096*
Y01083*
X0383*
Y0108*
X03828*
Y01079*
X03804*
Y0108*
X03803*
Y01124*
X03828*
Y0112*
G37*
G36*
X03791Y01123D02*
X03793D01*
Y0109*
Y01089*
Y0108*
X03791*
Y01079*
X03788*
Y0108*
X03787*
Y01124*
X03791*
Y01123*
G37*
G36*
X03751Y01112D02*
X03755D01*
Y0111*
X03757*
Y01109*
X03758*
Y01107*
X0376*
Y01104*
X03761*
Y01096*
X03737*
Y01092*
X03738*
Y01087*
X0374*
Y01086*
X03741*
Y01084*
X03744*
Y01083*
X03755*
Y01084*
X03758*
Y01086*
X03761*
Y01083*
X0376*
Y01082*
X03758*
Y0108*
X03755*
Y01079*
X03743*
Y0108*
X0374*
Y01082*
X03738*
Y01083*
X03737*
Y01084*
X03735*
Y01086*
X03734*
Y01089*
X03733*
Y01102*
X03734*
Y01106*
X03735*
Y01107*
X03737*
Y01109*
X03738*
Y0111*
X0374*
Y01112*
X03744*
Y01113*
X03751*
Y01112*
G37*
G36*
X03704Y0111D02*
X03707D01*
Y01112*
X03711*
Y01113*
X03718*
Y01112*
X03721*
Y0111*
X03723*
Y01109*
X03724*
Y01107*
X03725*
Y01079*
X03721*
Y01104*
X0372*
Y01107*
X03717*
Y01109*
X0371*
Y01107*
X03707*
Y01106*
X03705*
Y01104*
X03704*
Y01094*
Y01093*
Y01079*
X037*
Y01126*
X03698*
Y01129*
X03702*
Y0113*
X03704*
Y0111*
G37*
G36*
X03688Y01112D02*
X03695D01*
Y01109*
X03688*
Y01083*
X03695*
Y0108*
X03694*
Y01079*
X03687*
Y0108*
X03685*
Y01082*
X03684*
Y01084*
X03682*
Y01109*
X03677*
Y0111*
X03678*
Y01112*
X03682*
Y0112*
X03688*
Y01112*
G37*
G36*
X03628D02*
X03632D01*
Y0111*
X03634*
Y01109*
X03635*
Y01107*
X03637*
Y01106*
X03638*
Y01102*
X03639*
Y0109*
X03638*
Y01086*
X03637*
Y01084*
X03635*
Y01082*
X03632*
Y0108*
X03629*
Y01079*
X03618*
Y0108*
X03615*
Y01082*
X03614*
Y01083*
X03612*
Y01084*
X03611*
Y01089*
X03609*
Y01103*
X03611*
Y01106*
X03612*
Y01107*
X03614*
Y01109*
X03615*
Y0111*
X03617*
Y01112*
X03621*
Y01113*
X03628*
Y01112*
G37*
G36*
X03556D02*
X03561D01*
Y0111*
X03562*
Y01109*
X03564*
Y01107*
X03565*
Y01104*
X03567*
Y011*
X03568*
Y01097*
X03567*
Y01096*
X03542*
Y01092*
X03544*
Y01089*
X03545*
Y01086*
X03546*
Y01084*
X03549*
Y01083*
X03561*
Y01084*
X03564*
Y01086*
X03567*
Y01083*
X03565*
Y01082*
X03564*
Y0108*
X03561*
Y01079*
X03548*
Y0108*
X03545*
Y01082*
X03544*
Y01083*
X03542*
Y01084*
X03541*
Y01086*
X03539*
Y0109*
X03538*
Y01102*
X03539*
Y01104*
X03541*
Y01107*
X03542*
Y01109*
X03544*
Y0111*
X03546*
Y01112*
X03549*
Y01113*
X03556*
Y01112*
G37*
G36*
X03528Y01113D02*
X03529D01*
Y01112*
X03536*
Y0111*
X03535*
Y01109*
X03529*
Y01107*
X03528*
Y011*
Y01099*
Y01084*
X03529*
Y01083*
X03535*
Y01079*
X03528*
Y0108*
X03525*
Y01083*
X03524*
Y01107*
X03522*
Y01109*
X03518*
Y01112*
X03524*
Y0112*
X03528*
Y01113*
G37*
G36*
X03472Y01112D02*
X03476D01*
Y0111*
X03478*
Y01109*
X03479*
Y01099*
Y01097*
Y01079*
X03475*
Y0108*
X03471*
Y01079*
X03461*
Y0108*
X03458*
Y01082*
X03456*
Y01084*
X03455*
Y01093*
X03456*
Y01096*
X03458*
Y01097*
X03461*
Y01099*
X03463*
Y011*
X03471*
Y01102*
X03475*
Y01106*
X03473*
Y01107*
X03472*
Y01109*
X03462*
Y01107*
X03458*
Y0111*
X03459*
Y01112*
X03465*
Y01113*
X03472*
Y01112*
G37*
G36*
X03426Y01129D02*
X03428D01*
Y01127*
X03426*
Y0111*
X03431*
Y01112*
X03435*
Y01113*
X03442*
Y01112*
X03445*
Y0111*
X03446*
Y01109*
X03448*
Y01089*
X03449*
Y0108*
X03448*
Y01079*
X03443*
Y01106*
X03442*
Y01107*
X03441*
Y01109*
X03432*
Y01107*
X03429*
Y01106*
X03428*
Y01104*
X03426*
Y01089*
X03428*
Y0108*
X03426*
Y01079*
X03423*
Y0108*
X03422*
Y01082*
Y01083*
Y01129*
X03425*
Y0113*
X03426*
Y01129*
G37*
G36*
X03353Y01112D02*
X0336D01*
Y01109*
X03353*
Y01083*
X0336*
Y0108*
X03359*
Y01079*
X03352*
Y0108*
X0335*
Y01082*
X03349*
Y01087*
X03348*
Y01092*
X03349*
Y01107*
X03348*
Y01109*
X03343*
Y01112*
X03348*
Y01113*
X03349*
Y01114*
X03348*
Y01116*
Y01117*
Y01119*
X03349*
Y0112*
X03353*
Y01112*
G37*
G36*
X03296D02*
X033D01*
Y0111*
X03302*
Y01109*
X03303*
Y01107*
X03305*
Y01103*
X03306*
Y01096*
X03282*
Y0109*
X03283*
Y01087*
X03285*
Y01086*
X03286*
Y01084*
X03287*
Y01083*
X033*
Y01084*
X03303*
Y01086*
X03305*
Y01082*
X03303*
Y0108*
X033*
Y01079*
X03287*
Y0108*
X03285*
Y01082*
X03282*
Y01083*
X0328*
Y01086*
X03279*
Y01087*
X03277*
Y01103*
X03279*
Y01106*
X0328*
Y01107*
X03282*
Y01109*
X03283*
Y0111*
X03285*
Y01112*
X03289*
Y01113*
X03296*
Y01112*
G37*
G36*
X0327Y01079D02*
X03266D01*
Y01082*
X03265*
Y0108*
X03262*
Y01079*
X03252*
Y0108*
X03249*
Y01082*
X03247*
Y01083*
X03246*
Y01084*
X03244*
Y01087*
X03243*
Y0109*
X03242*
Y01099*
X03243*
Y01103*
X03244*
Y01106*
X03246*
Y01107*
X03247*
Y01109*
X0325*
Y0111*
X03253*
Y01112*
X03265*
Y01113*
X03266*
Y01127*
X03265*
Y01129*
X03269*
Y0113*
X0327*
Y01079*
G37*
G36*
X03197Y01113D02*
X03199D01*
Y01112*
X03206*
Y01109*
X03199*
Y01107*
X03197*
Y01084*
X03199*
Y01083*
X03204*
Y01079*
X03197*
Y0108*
X03194*
Y01083*
X03193*
Y01107*
X03192*
Y01109*
X03187*
Y0111*
Y01112*
X03193*
Y0112*
X03197*
Y01113*
G37*
G36*
X0312Y01123D02*
X03121D01*
Y01119*
X03123*
Y01114*
X03124*
Y0111*
X03126*
Y01107*
X03127*
Y01103*
X03129*
Y01099*
X0313*
Y01094*
X03131*
Y0109*
X03133*
Y01086*
X03134*
Y01082*
X03136*
Y0108*
X03134*
Y01079*
X0313*
Y01082*
X03129*
Y01087*
X03127*
Y01092*
X03126*
Y01094*
X03109*
Y01093*
X03107*
Y01089*
X03106*
Y01083*
X03104*
Y0108*
X03103*
Y01079*
X031*
Y0108*
X03099*
Y01082*
X031*
Y01084*
X03101*
Y01089*
X03103*
Y01093*
X03104*
Y01094*
Y01096*
Y01097*
X03106*
Y01102*
X03107*
Y01106*
X03109*
Y0111*
X0311*
Y01114*
X03111*
Y01119*
X03113*
Y01123*
X03114*
Y01124*
X0312*
Y01123*
G37*
G36*
X04763Y01112D02*
X04776D01*
Y01109*
X04777*
Y01104*
X04779*
Y011*
X0478*
Y01097*
X04782*
Y01093*
X04783*
Y01089*
X04784*
Y01087*
X04786*
Y0109*
X04787*
Y01094*
X04789*
Y01099*
X0479*
Y01103*
X04792*
Y01107*
X04793*
Y01112*
X04799*
Y01109*
X04797*
Y01106*
X04796*
Y01102*
X04794*
Y01099*
X04793*
Y01094*
X04792*
Y0109*
X0479*
Y01087*
X04789*
Y01083*
X04787*
Y01079*
X04786*
Y01074*
X04784*
Y01071*
X04783*
Y01066*
X04782*
Y01064*
X04777*
Y01069*
X04779*
Y01071*
X0478*
Y01076*
X04782*
Y01079*
X04783*
Y01082*
X04782*
Y01084*
X0478*
Y01089*
X04779*
Y01092*
X04777*
Y01096*
X04776*
Y01099*
X04774*
Y01103*
X04773*
Y01106*
X04772*
Y01109*
X04763*
Y01084*
X04764*
Y01083*
X0477*
Y01079*
X04762*
Y0108*
X0476*
Y01082*
X04759*
Y01107*
X04757*
Y01109*
X04753*
Y01112*
X04757*
Y01113*
X04759*
Y01117*
Y01119*
Y0112*
X04763*
Y01112*
G37*
G36*
X03413Y01574D02*
X02795D01*
Y01773*
X03413*
Y01574*
G37*
G36*
X04502Y01417D02*
X03602D01*
Y01614*
X04502*
Y01417*
G37*
%LNpcb2_legend_top-2*%
%LPC*%
G36*
X03254Y03344D02*
X03241D01*
Y03342*
X03237*
Y0334*
X03235*
Y03338*
X03233*
Y03335*
X03231*
Y03319*
X03233*
Y03317*
X03235*
Y03314*
X03237*
Y03312*
X03241*
Y0331*
X03248*
Y03308*
X03252*
Y03306*
X03254*
Y03296*
X03243*
Y03298*
X03241*
Y03304*
X03229*
Y033*
X03231*
Y03293*
X03233*
Y03289*
X03237*
Y03287*
X03243*
Y03285*
X03252*
Y03287*
X03258*
Y03289*
X03262*
Y03291*
X03264*
Y03296*
X03266*
Y0331*
X03264*
Y03312*
X03262*
Y03314*
X0326*
Y03317*
X03256*
Y03319*
X03252*
Y03321*
X03248*
Y03323*
X03243*
Y03325*
X03241*
Y03331*
X03243*
Y03333*
X03245*
Y03335*
X0325*
Y03333*
X03252*
Y03331*
X03254*
Y03327*
X03264*
Y03335*
X03262*
Y0334*
X0326*
Y03342*
X03254*
Y03344*
G37*
G36*
X03359Y03342D02*
X03342D01*
Y0334*
X0334*
Y03329*
X03338*
Y03321*
X03336*
Y0331*
X03334*
Y03308*
X03332*
Y03321*
X03329*
Y03329*
X03327*
Y0334*
X03325*
Y03342*
X03308*
Y03287*
X03319*
Y03327*
X03321*
Y03319*
X03323*
Y03308*
X03325*
Y033*
X03327*
Y03289*
X03329*
Y03287*
X03338*
Y03291*
X0334*
Y033*
X03342*
Y0331*
X03344*
Y03319*
X03346*
Y03325*
X03348*
Y03287*
X03359*
Y03342*
G37*
G36*
X03388D02*
X03374D01*
Y0334*
X03369*
Y03338*
X03367*
Y03331*
X03365*
Y03327*
X03371*
Y03333*
X03374*
Y03335*
X03376*
Y03338*
X03386*
Y03335*
X03388*
Y03321*
X03386*
Y03319*
X03378*
Y03317*
X03376*
Y03314*
X03382*
Y03312*
X03388*
Y03308*
X0339*
Y03296*
X03388*
Y03293*
X03386*
Y03291*
X03374*
Y03293*
X03371*
Y033*
X03369*
Y03302*
X03365*
Y03296*
X03367*
Y03291*
X03369*
Y03289*
X03371*
Y03287*
X0338*
Y03285*
X03382*
Y03287*
X03388*
Y03289*
X03392*
Y03293*
X03395*
Y03298*
X03397*
Y03308*
X03395*
Y03312*
X03392*
Y03314*
X03388*
Y03317*
X0339*
Y03319*
X03392*
Y03323*
X03395*
Y03333*
X03392*
Y03338*
X0339*
Y0334*
X03388*
Y03342*
G37*
G36*
X03424D02*
X03411D01*
Y0334*
X03407*
Y03338*
X03405*
Y03333*
X03403*
Y03325*
X03407*
Y03327*
X03409*
Y03333*
X03411*
Y03335*
X03413*
Y03338*
X03422*
Y03335*
X03424*
Y03333*
X03426*
Y03329*
X03428*
Y03325*
X03426*
Y03319*
X03424*
Y03317*
X03422*
Y03314*
X0342*
Y03312*
X03418*
Y0331*
X03416*
Y03308*
X03411*
Y03306*
X03409*
Y03304*
X03407*
Y033*
X03405*
Y03296*
X03403*
Y03287*
X03432*
Y03291*
X03409*
Y03298*
X03411*
Y033*
X03413*
Y03302*
X03416*
Y03304*
X03418*
Y03306*
X0342*
Y03308*
X03422*
Y0331*
X03424*
Y03312*
X03428*
Y03317*
X0343*
Y03321*
X03432*
Y03333*
X0343*
Y03338*
X03428*
Y0334*
X03424*
Y03342*
G37*
G36*
X03304D02*
X03269D01*
Y03333*
X03281*
Y03287*
X03292*
Y03333*
X03304*
Y03342*
G37*
G36*
X05419Y02796D02*
X05408D01*
Y02795*
X05406*
Y02794*
X05403*
Y02793*
X05402*
Y02791*
X05401*
Y0279*
X054*
Y02787*
X05399*
Y02766*
X054*
Y02765*
X05402*
Y02764*
X05429*
Y02787*
X05428*
Y02789*
X05427*
Y02791*
X05426*
Y02792*
X05425*
Y02793*
X05424*
Y02794*
X05422*
Y02795*
X05419*
Y02796*
G37*
G36*
X05307Y02714D02*
X05305D01*
Y02713*
X05302*
Y02712*
X05299*
Y02711*
X05297*
Y0271*
X05293*
Y02709*
X0529*
Y02708*
X05287*
Y02706*
X05285*
Y02705*
X05282*
Y02704*
X05278*
Y02703*
X05275*
Y02702*
X05272*
Y02701*
X05271*
Y027*
X05272*
Y02699*
X05275*
Y02698*
X05277*
Y02697*
X05281*
Y02696*
X05284*
Y02695*
X05286*
Y02694*
X05289*
Y02693*
X05292*
Y02692*
X05294*
Y0269*
X05298*
Y02689*
X053*
Y02688*
X05303*
Y02687*
X05306*
Y02686*
X05307*
Y02714*
G37*
G36*
X04189Y01299D02*
X04185D01*
Y01298*
X04183*
Y01296*
X04182*
Y01289*
X04183*
Y01288*
X04188*
Y01289*
X04189*
Y01299*
G37*
G36*
X04019D02*
X04014D01*
Y01298*
X04013*
Y01296*
X04012*
Y01292*
Y0129*
Y01289*
X04013*
Y01288*
X04017*
Y01289*
X04019*
Y01299*
G37*
G36*
X03878Y01311D02*
X03874D01*
Y01309*
X03873*
Y01305*
X03871*
Y01292*
X03873*
Y01289*
X03874*
Y01288*
X03877*
Y01289*
X03878*
Y01311*
G37*
G36*
X03698Y01299D02*
X03695D01*
Y01298*
X03692*
Y01293*
X03691*
Y01292*
X03692*
Y01289*
X03694*
Y01288*
X03697*
Y01289*
X03698*
Y01299*
G37*
G36*
X03549D02*
X03545D01*
Y01298*
X03544*
Y01296*
X03542*
Y01289*
X03544*
Y01288*
X03548*
Y0129*
X03549*
Y01298*
Y01299*
G37*
G36*
X03368D02*
X03365D01*
Y01298*
X03363*
Y01296*
X03362*
Y01289*
X03363*
Y01288*
X03366*
Y01289*
X03368*
Y01299*
G37*
G36*
X03253Y01311D02*
X0325D01*
Y01309*
X03249*
Y01308*
X03247*
Y01289*
X03249*
Y01288*
X03253*
Y01293*
X03255*
Y01296*
Y01298*
Y01309*
X03253*
Y01311*
G37*
G36*
X03212Y01299D02*
X03207D01*
Y01298*
X03206*
Y01296*
X03204*
Y0129*
X03206*
Y01288*
X0321*
Y01289*
X03212*
Y01299*
G37*
G36*
X03172Y01311D02*
X03167D01*
Y01309*
X03166*
Y01305*
X03164*
Y01292*
X03166*
Y01289*
X03167*
Y01288*
X0317*
Y01289*
X03172*
Y01299*
Y013*
Y01311*
G37*
G36*
X0497Y01309D02*
X04969D01*
Y01308*
X04968*
Y01306*
X04966*
Y01303*
X04968*
Y013*
X04969*
Y01302*
X0497*
Y01303*
X04972*
Y01305*
Y01308*
X0497*
Y01309*
G37*
G36*
X04965Y0129D02*
X04962D01*
Y01289*
X0496*
Y01288*
X04959*
Y01283*
X0496*
Y01282*
X04966*
Y01283*
X04968*
Y01286*
X04966*
Y01288*
X04965*
Y0129*
G37*
G36*
X04804Y01299D02*
X04799D01*
Y01298*
X04797*
Y01293*
X04796*
Y01292*
Y01286*
X04794*
Y01282*
X048*
Y01283*
X04802*
Y01285*
X04803*
Y01286*
X04804*
Y01289*
X04806*
Y01298*
X04804*
Y01299*
G37*
G36*
X04743Y01308D02*
X04736D01*
Y01306*
X04734*
Y013*
X04733*
Y01298*
X0474*
Y01299*
X04741*
Y013*
X04743*
Y01303*
X04744*
Y01305*
X04743*
Y01308*
G37*
G36*
X04294Y01313D02*
X04291D01*
Y01312*
X04289*
Y01303*
Y01302*
Y01288*
X04291*
Y01286*
X04294*
Y01288*
X04295*
Y01312*
X04294*
Y01313*
G37*
G36*
X03917D02*
X03916D01*
Y01312*
X03914*
Y01309*
X03913*
Y01306*
X03914*
Y01305*
X0392*
Y01311*
X03919*
Y01312*
X03917*
Y01313*
G37*
G36*
X0378D02*
X03778D01*
Y01312*
X03777*
Y01311*
X03775*
Y01289*
X03777*
Y01286*
X0378*
Y01288*
X03781*
Y0129*
X03783*
Y01295*
Y01296*
Y01308*
X03781*
Y01312*
X0378*
Y01313*
G37*
G36*
X03463D02*
X03462D01*
Y01312*
X03461*
Y01311*
X03459*
Y01289*
X03461*
Y01286*
X03465*
Y01289*
X03466*
Y01295*
Y01296*
Y01309*
X03465*
Y01312*
X03463*
Y01313*
G37*
G36*
X0304D02*
X03038D01*
Y01312*
X03037*
Y01309*
X03036*
Y01305*
X03043*
Y01306*
Y01311*
X03041*
Y01312*
X0304*
Y01313*
G37*
G36*
X04837Y01299D02*
X0483D01*
Y01296*
X04829*
Y01293*
X04827*
Y01282*
X04829*
Y0128*
X04833*
Y01282*
X04835*
Y01283*
X04836*
Y01286*
X04837*
Y01292*
X04839*
Y01296*
X04837*
Y01299*
G37*
G36*
X04773D02*
X04767D01*
Y01298*
X04766*
Y01295*
X04764*
Y0129*
X04763*
Y01283*
X04764*
Y01282*
X04766*
Y0128*
X04769*
Y01282*
X0477*
Y01283*
X04772*
Y01285*
X04773*
Y01288*
X04774*
Y01298*
X04773*
Y01299*
G37*
G36*
X04905Y01249D02*
X04899D01*
Y01248*
X04897*
Y01246*
X04896*
Y01245*
X04895*
Y01243*
X04893*
Y01233*
X04895*
Y01232*
X049*
Y01233*
X04902*
Y01239*
X04903*
Y01246*
X04905*
Y01249*
G37*
G36*
X04734Y01256D02*
X04733D01*
Y01255*
X04731*
Y01252*
X0473*
Y01249*
X04729*
Y01246*
X04727*
Y01242*
X04729*
Y01243*
X04734*
Y01256*
G37*
G36*
X04969Y0125D02*
X04968D01*
Y01249*
X04965*
Y01246*
X04963*
Y01243*
X04962*
Y01236*
X0496*
Y01235*
X04962*
Y01232*
X04963*
Y0123*
X04966*
Y01232*
X04969*
Y01233*
X0497*
Y01236*
X04972*
Y01242*
X04973*
Y01246*
X04972*
Y01249*
X04969*
Y0125*
G37*
G36*
X04819D02*
X04817D01*
Y01249*
X04814*
Y01248*
X04813*
Y01245*
X04812*
Y01238*
X0481*
Y01235*
X04812*
Y01232*
X04813*
Y0123*
X04816*
Y01232*
X04819*
Y01233*
X0482*
Y01236*
X04822*
Y01245*
X04823*
Y01246*
X04822*
Y01248*
Y01249*
X04819*
Y0125*
G37*
G36*
X04823Y01202D02*
X04819D01*
Y012*
X04816*
Y01199*
X04814*
Y01197*
X04813*
Y01193*
X04826*
Y01195*
X04827*
Y01197*
X04826*
Y012*
X04823*
Y01202*
G37*
G36*
X03465Y012D02*
X03462D01*
Y01199*
X03455*
Y01197*
X03452*
Y01196*
X03451*
Y01195*
X03449*
Y01186*
X03451*
Y01185*
X03452*
Y01183*
X03462*
Y01185*
X03465*
Y01187*
X03466*
Y01199*
X03465*
Y012*
G37*
G36*
X03386Y01229D02*
X03373D01*
Y0121*
X03386*
Y01212*
X03389*
Y01213*
X0339*
Y01215*
X03392*
Y01216*
X03393*
Y01223*
X03392*
Y01226*
X03389*
Y01227*
X03386*
Y01229*
G37*
G36*
X03388Y01203D02*
X03373D01*
Y01185*
X03375*
Y01183*
X03383*
Y01185*
X0339*
Y01186*
X03393*
Y01189*
X03395*
Y01192*
X03396*
Y01196*
X03395*
Y01199*
X03393*
Y012*
X03392*
Y01202*
X03388*
Y01203*
G37*
G36*
X032Y01213D02*
X03187D01*
Y01212*
X03184*
Y0121*
X03183*
Y01209*
X03182*
Y01206*
X0318*
Y01205*
Y01203*
Y01202*
X03179*
Y01193*
X0318*
Y01189*
X03182*
Y01187*
X03183*
Y01186*
X03184*
Y01185*
X03186*
Y01183*
X03196*
Y01185*
X03197*
Y01186*
X032*
Y01213*
G37*
G36*
X04753Y01202D02*
X0475D01*
Y012*
X04747*
Y01199*
X04746*
Y01196*
X04744*
Y01193*
X04743*
Y01182*
X04744*
Y0118*
X04746*
Y01179*
X0475*
Y0118*
X04753*
Y01182*
X04754*
Y01185*
X04756*
Y01186*
Y01187*
X04757*
Y01199*
X04756*
Y012*
X04753*
Y01202*
G37*
G36*
X03242Y01215D02*
X03234D01*
Y01213*
X03232*
Y01212*
X0323*
Y0121*
X03229*
Y01209*
Y01207*
X03227*
Y01203*
X03247*
Y01209*
X03246*
Y01212*
X03244*
Y01213*
X03242*
Y01215*
G37*
G36*
X03504Y01109D02*
X03498D01*
Y01107*
X03495*
Y01106*
X03492*
Y01083*
X03502*
Y01084*
X03505*
Y01086*
X03506*
Y01087*
X03508*
Y01089*
X03509*
Y0109*
X03511*
Y01103*
X03509*
Y01104*
X03508*
Y01106*
X03506*
Y01107*
X03504*
Y01109*
G37*
G36*
X04741D02*
X04733D01*
Y01107*
X0473*
Y01106*
X04729*
Y01103*
X04727*
Y01099*
X04746*
Y01104*
X04744*
Y01106*
X04743*
Y01107*
X04741*
Y01109*
G37*
G36*
X04664D02*
X04656D01*
Y01107*
X04654*
Y01106*
X04653*
Y01104*
X04651*
Y01099*
X0465*
Y01092*
X04651*
Y01087*
X04653*
Y01084*
X04656*
Y01083*
X0466*
Y01082*
X04661*
Y01083*
X04666*
Y01084*
X04667*
Y01086*
X04668*
Y01087*
X0467*
Y01094*
X04671*
Y01097*
X0467*
Y01103*
X04668*
Y01106*
X04667*
Y01107*
X04664*
Y01109*
G37*
G36*
X04543D02*
X04534D01*
Y01107*
X04533*
Y01106*
X04531*
Y01104*
X0453*
Y01102*
X04528*
Y0109*
X0453*
Y01086*
X04531*
Y01084*
X04533*
Y01083*
X04537*
Y01082*
X0454*
Y01083*
X04544*
Y01084*
X04545*
Y01086*
X04547*
Y01089*
X04548*
Y01103*
X04547*
Y01106*
X04545*
Y01107*
X04543*
Y01109*
G37*
G36*
X04481Y01097D02*
X04475D01*
Y01096*
X04471*
Y01094*
X04468*
Y01093*
X04467*
Y01086*
X04468*
Y01084*
X0447*
Y01083*
X04472*
Y01082*
X04475*
Y01083*
X0448*
Y01084*
X04481*
Y0109*
Y01092*
Y01094*
X04482*
Y01096*
X04481*
Y01097*
G37*
G36*
X04392Y01109D02*
X04384D01*
Y01107*
X04381*
Y01106*
X04379*
Y01104*
X04378*
Y01099*
X04377*
Y01093*
X04378*
Y01087*
X04379*
Y01086*
X04381*
Y01084*
X04382*
Y01083*
X04387*
Y01082*
X04388*
Y01083*
X04394*
Y01084*
X04395*
Y01087*
X04397*
Y01092*
X04398*
Y01099*
X04397*
Y01103*
Y01104*
X04395*
Y01106*
X04394*
Y01107*
X04392*
Y01109*
G37*
G36*
X04301Y01119D02*
X04298D01*
Y01114*
X04296*
Y01109*
X04295*
Y01104*
X04294*
Y011*
X04292*
Y01097*
X04306*
Y01102*
X04305*
Y01103*
Y01106*
X04304*
Y0111*
X04302*
Y01114*
X04301*
Y01119*
G37*
G36*
X04253Y01109D02*
X04245D01*
Y01107*
X04241*
Y01106*
X04239*
Y01104*
X04238*
Y01103*
X04236*
Y011*
X04235*
Y01092*
X04236*
Y01087*
X04238*
Y01086*
X04239*
Y01084*
X04241*
Y01083*
X04251*
Y01084*
X04253*
Y01087*
X04255*
Y01092*
X04253*
Y01109*
G37*
G36*
X04185Y01097D02*
X04178D01*
Y01096*
X04173*
Y01094*
X0417*
Y01092*
X04169*
Y01086*
X0417*
Y01084*
X04172*
Y01083*
X04175*
Y01082*
X04178*
Y01083*
X04182*
Y01084*
X04183*
Y01086*
X04185*
Y01097*
G37*
G36*
X04045Y01109D02*
X04036D01*
Y01107*
X04034*
Y01106*
X04033*
Y01104*
X04032*
Y011*
X0403*
Y0109*
X04032*
Y01087*
X04033*
Y01084*
X04034*
Y01083*
X04039*
Y01082*
X04042*
Y01083*
X04046*
Y01084*
X04047*
Y01086*
X04049*
Y01087*
X0405*
Y01099*
Y011*
Y01103*
X04049*
Y01106*
X04047*
Y01107*
X04045*
Y01109*
G37*
G36*
X04009D02*
X04002D01*
Y01107*
X03999*
Y01106*
X03997*
Y01083*
X04006*
Y01084*
X0401*
Y01086*
X04012*
Y01087*
X04013*
Y01089*
X04014*
Y01092*
X04016*
Y01102*
X04014*
Y01104*
X04013*
Y01106*
X04012*
Y01107*
X04009*
Y01109*
G37*
G36*
X03976D02*
X03967D01*
Y01107*
X03964*
Y01106*
X03963*
Y01104*
X03962*
Y011*
Y01099*
X0396*
Y01093*
X03962*
Y01087*
X03963*
Y01086*
X03964*
Y01084*
X03966*
Y01083*
X0397*
Y01082*
X03973*
Y01083*
X03976*
Y01084*
X03979*
Y01087*
X0398*
Y01092*
X03982*
Y01099*
X0398*
Y01104*
X03979*
Y01106*
X03977*
Y01107*
X03976*
Y01109*
G37*
G36*
X03941Y0112D02*
X03927D01*
Y01119*
Y01117*
Y01103*
X03937*
Y01104*
X03941*
Y01106*
X03943*
Y01107*
X03944*
Y01109*
X03946*
Y01116*
X03944*
Y01119*
X03941*
Y0112*
G37*
G36*
X03753Y01109D02*
X03743D01*
Y01107*
X03741*
Y01106*
X0374*
Y01104*
X03738*
Y01102*
X03737*
Y011*
X03738*
Y01099*
X03755*
Y011*
X03757*
Y01103*
X03755*
Y01106*
X03754*
Y01107*
X03753*
Y01109*
G37*
G36*
X03628D02*
X03619D01*
Y01107*
X03618*
Y01106*
X03617*
Y01104*
X03615*
Y011*
X03614*
Y01097*
Y01096*
Y0109*
X03615*
Y01087*
X03617*
Y01084*
X03618*
Y01083*
X03622*
Y01082*
X03625*
Y01083*
X03629*
Y01084*
X03631*
Y01086*
X03632*
Y01087*
X03634*
Y01094*
X03635*
Y01096*
X03634*
Y01103*
X03632*
Y01106*
X03631*
Y01107*
X03628*
Y01109*
G37*
G36*
X03558D02*
X03548D01*
Y01107*
X03546*
Y01106*
X03545*
Y01104*
X03544*
Y01099*
X03562*
Y01104*
X03561*
Y01106*
X03559*
Y01107*
X03558*
Y01109*
G37*
G36*
X03475Y01097D02*
X03468D01*
Y01096*
X03463*
Y01094*
X03462*
Y01093*
X03461*
Y01092*
X03459*
Y01087*
X03461*
Y01084*
X03462*
Y01083*
X03465*
Y01082*
X03468*
Y01083*
X03472*
Y01084*
X03473*
Y01086*
X03475*
Y01097*
G37*
G36*
X03296Y01109D02*
X03287D01*
Y01107*
X03286*
Y01106*
X03285*
Y01104*
X03283*
Y01103*
X03282*
Y011*
X03283*
Y01099*
X033*
Y011*
X03302*
Y01102*
X033*
Y01106*
X03299*
Y01107*
X03296*
Y01109*
G37*
G36*
X03265D02*
X03257D01*
Y01107*
X03253*
Y01106*
X0325*
Y01104*
X03249*
Y01102*
X03247*
Y01089*
X03249*
Y01087*
Y01086*
X0325*
Y01084*
X03253*
Y01083*
X03263*
Y01084*
X03265*
Y01086*
X03266*
Y01107*
X03265*
Y01109*
G37*
G36*
X03117Y01119D02*
X03116D01*
Y01114*
X03114*
Y0111*
X03113*
Y01106*
X03111*
Y01102*
X0311*
Y01097*
X03123*
Y01099*
X03124*
Y011*
X03123*
Y01104*
X03121*
Y01109*
X0312*
Y01113*
X03119*
Y01117*
X03117*
Y01119*
G37*
G36*
X03393Y01753D02*
X03379D01*
Y01594*
X03393*
Y01753*
G37*
G36*
X03371D02*
X03364D01*
Y01594*
X03371*
Y01753*
G37*
G36*
X03357D02*
X03335D01*
Y01594*
X03357*
Y01753*
G37*
G36*
X03313D02*
X03298D01*
Y01594*
X03313*
Y01753*
G37*
G36*
X03291D02*
X03262D01*
Y01594*
X03291*
Y01753*
G37*
G36*
X03254D02*
X0324D01*
Y01594*
X03254*
Y01753*
G37*
G36*
X03232D02*
X03218D01*
Y01594*
X03232*
Y01753*
G37*
G36*
X03196D02*
X03181D01*
Y01594*
X03196*
Y01753*
G37*
G36*
X03159D02*
X03152D01*
Y01594*
X03159*
Y01753*
G37*
G36*
X03144D02*
X03137D01*
Y01594*
X03144*
Y01753*
G37*
G36*
X0313D02*
X03108D01*
Y01594*
X0313*
Y01753*
G37*
G36*
X031D02*
X03086D01*
Y01594*
X031*
Y01753*
G37*
G36*
X03064D02*
X03056D01*
Y01594*
X03064*
Y01753*
G37*
G36*
X03049D02*
X03034D01*
Y01594*
X03049*
Y01753*
G37*
G36*
X03027D02*
X03005D01*
Y01594*
X03027*
Y01753*
G37*
G36*
X02983D02*
X02976D01*
Y01594*
X02983*
Y01753*
G37*
G36*
X02954D02*
X02947D01*
Y01594*
X02954*
Y01753*
G37*
G36*
X02939D02*
X02932D01*
Y01594*
X02939*
Y01753*
G37*
G36*
X0291D02*
X02895D01*
Y01594*
X0291*
Y01753*
G37*
G36*
X02881D02*
X02873D01*
Y01594*
X02881*
Y01753*
G37*
G36*
X02844D02*
X02837D01*
Y01594*
X02844*
Y01753*
G37*
G36*
X02829D02*
X02815D01*
Y01594*
X02829*
Y01753*
G37*
G36*
X04482Y01594D02*
X04476D01*
Y01437*
X04482*
Y01594*
G37*
G36*
X0447D02*
X04458D01*
Y01437*
X0447*
Y01594*
G37*
G36*
X04452D02*
X04439D01*
Y01437*
X04452*
Y01594*
G37*
G36*
X04433D02*
X04427D01*
Y01437*
X04433*
Y01594*
G37*
G36*
X04415D02*
X04409D01*
Y01437*
X04415*
Y01594*
G37*
G36*
X04403D02*
X04397D01*
Y01437*
X04403*
Y01594*
G37*
G36*
X04391D02*
X04379D01*
Y01437*
X04391*
Y01594*
G37*
G36*
X04373D02*
X04367D01*
Y01437*
X04373*
Y01594*
G37*
G36*
X04355D02*
X04343D01*
Y01437*
X04355*
Y01594*
G37*
G36*
X04336D02*
X0433D01*
Y01437*
X04336*
Y01594*
G37*
G36*
X04324D02*
X04318D01*
Y01437*
X04324*
Y01594*
G37*
G36*
X04312D02*
X04306D01*
Y01437*
X04312*
Y01594*
G37*
G36*
X043D02*
X04288D01*
Y01437*
X043*
Y01594*
G37*
G36*
X04276D02*
X0427D01*
Y01437*
X04276*
Y01594*
G37*
G36*
X04264D02*
X04252D01*
Y01437*
X04264*
Y01594*
G37*
G36*
X04246D02*
X0424D01*
Y01437*
X04246*
Y01594*
G37*
G36*
X04233D02*
X04227D01*
Y01437*
X04233*
Y01594*
G37*
G36*
X04221D02*
X04209D01*
Y01437*
X04221*
Y01594*
G37*
G36*
X04197D02*
X04185D01*
Y01437*
X04197*
Y01594*
G37*
G36*
X04179D02*
X04173D01*
Y01437*
X04179*
Y01594*
G37*
G36*
X04167D02*
X04155D01*
Y01437*
X04167*
Y01594*
G37*
G36*
X04149D02*
X04143D01*
Y01437*
X04149*
Y01594*
G37*
G36*
X04137D02*
X04124D01*
Y01437*
X04137*
Y01594*
G37*
G36*
X04112D02*
X04106D01*
Y01437*
X04112*
Y01594*
G37*
G36*
X041D02*
X04094D01*
Y01437*
X041*
Y01594*
G37*
G36*
X04088D02*
X04076D01*
Y01437*
X04088*
Y01594*
G37*
G36*
X0407D02*
X04058D01*
Y01437*
X0407*
Y01594*
G37*
G36*
X04052D02*
X04046D01*
Y01437*
X04052*
Y01594*
G37*
G36*
X04034D02*
X04027D01*
Y01437*
X04034*
Y01594*
G37*
G36*
X04021D02*
X04015D01*
Y01437*
X04021*
Y01594*
G37*
G36*
X04009D02*
X04003D01*
Y01437*
X04009*
Y01594*
G37*
G36*
X03997D02*
X03985D01*
Y01437*
X03997*
Y01594*
G37*
G36*
X03979D02*
X03973D01*
Y01437*
X03979*
Y01594*
G37*
G36*
X03961D02*
X03955D01*
Y01437*
X03961*
Y01594*
G37*
G36*
X03949D02*
X03937D01*
Y01437*
X03949*
Y01594*
G37*
G36*
X03931D02*
X03924D01*
Y01437*
X03931*
Y01594*
G37*
G36*
X03918D02*
X03912D01*
Y01437*
X03918*
Y01594*
G37*
G36*
X03906D02*
X039D01*
Y01437*
X03906*
Y01594*
G37*
G36*
X03888D02*
X03876D01*
Y01437*
X03888*
Y01594*
G37*
G36*
X0387D02*
X03858D01*
Y01437*
X0387*
Y01594*
G37*
G36*
X03852D02*
X0384D01*
Y01437*
X03852*
Y01594*
G37*
G36*
X03834D02*
X03828D01*
Y01437*
X03834*
Y01594*
G37*
G36*
X03821D02*
X03809D01*
Y01437*
X03821*
Y01594*
G37*
G36*
X03797D02*
X03791D01*
Y01437*
X03797*
Y01594*
G37*
G36*
X03785D02*
X03779D01*
Y01437*
X03785*
Y01594*
G37*
G36*
X03773D02*
X03767D01*
Y01437*
X03773*
Y01594*
G37*
G36*
X03761D02*
X03749D01*
Y01437*
X03761*
Y01594*
G37*
G36*
X03743D02*
X03737D01*
Y01437*
X03743*
Y01594*
G37*
G36*
X03725D02*
X03712D01*
Y01437*
X03725*
Y01594*
G37*
G36*
X03706D02*
X037D01*
Y01437*
X03706*
Y01594*
G37*
G36*
X03694D02*
X03688D01*
Y01437*
X03694*
Y01594*
G37*
G36*
X03682D02*
X0367D01*
Y01437*
X03682*
Y01594*
G37*
G36*
X03664D02*
X03652D01*
Y01437*
X03664*
Y01594*
G37*
G36*
X03646D02*
X0364D01*
Y01437*
X03646*
Y01594*
G37*
G36*
X03628D02*
X03622D01*
Y01437*
X03628*
Y01594*
G37*
%LNpcb2_legend_top-3*%
%LPD*%
G54D25*
X02877Y02342D02*
D01*
X02877Y02342*
X02877Y02343*
X02877Y02343*
X02877Y02343*
X02876Y02344*
X02876Y02344*
X02876Y02344*
X02876Y02344*
X02876Y02345*
X02876Y02345*
X02875Y02345*
X02875Y02345*
X02875Y02346*
X02875Y02346*
X02874Y02346*
X02874Y02346*
X02874Y02346*
X02873Y02346*
X02873Y02347*
X02873Y02347*
X02872Y02347*
X02872Y02347*
X02872*
X02871Y02347*
X02871Y02347*
X02871Y02347*
X0287Y02346*
X0287Y02346*
X0287Y02346*
X02869Y02346*
X02869Y02346*
X02869Y02346*
X02868Y02345*
X02868Y02345*
X02868Y02345*
X02868Y02345*
X02868Y02344*
X02867Y02344*
X02867Y02344*
X02867Y02344*
X02867Y02343*
X02867Y02343*
X02867Y02343*
X02867Y02342*
X02867Y02342*
X02867Y02341*
X02867Y02341*
X02867Y02341*
X02867Y0234*
X02867Y0234*
X02867Y0234*
X02867Y0234*
X02868Y02339*
X02868Y02339*
X02868Y02339*
X02868Y02338*
X02868Y02338*
X02869Y02338*
X02869Y02338*
X02869Y02338*
X0287Y02337*
X0287Y02337*
X0287Y02337*
X02871Y02337*
X02871Y02337*
X02871Y02337*
X02872Y02337*
X02872*
X02872Y02337*
X02873Y02337*
X02873Y02337*
X02873Y02337*
X02874Y02337*
X02874Y02337*
X02874Y02338*
X02875Y02338*
X02875Y02338*
X02875Y02338*
X02875Y02338*
X02876Y02339*
X02876Y02339*
X02876Y02339*
X02876Y0234*
X02876Y0234*
X02876Y0234*
X02877Y0234*
X02877Y02341*
X02877Y02341*
X02877Y02341*
X02877Y02342*
Y022D02*
D01*
X02877Y022*
X02877Y022*
X02877Y02201*
X02877Y02201*
X02876Y02201*
X02876Y02202*
X02876Y02202*
X02876Y02202*
X02876Y02203*
X02876Y02203*
X02875Y02203*
X02875Y02203*
X02875Y02204*
X02875Y02204*
X02874Y02204*
X02874Y02204*
X02874Y02204*
X02873Y02204*
X02873Y02204*
X02873Y02205*
X02872Y02205*
X02872Y02205*
X02872*
X02871Y02205*
X02871Y02205*
X02871Y02204*
X0287Y02204*
X0287Y02204*
X0287Y02204*
X02869Y02204*
X02869Y02204*
X02869Y02204*
X02868Y02203*
X02868Y02203*
X02868Y02203*
X02868Y02203*
X02868Y02202*
X02867Y02202*
X02867Y02202*
X02867Y02201*
X02867Y02201*
X02867Y02201*
X02867Y022*
X02867Y022*
X02867Y022*
X02867Y02199*
X02867Y02199*
X02867Y02199*
X02867Y02198*
X02867Y02198*
X02867Y02198*
X02867Y02197*
X02868Y02197*
X02868Y02197*
X02868Y02197*
X02868Y02196*
X02868Y02196*
X02869Y02196*
X02869Y02196*
X02869Y02195*
X0287Y02195*
X0287Y02195*
X0287Y02195*
X02871Y02195*
X02871Y02195*
X02871Y02195*
X02872Y02195*
X02872*
X02872Y02195*
X02873Y02195*
X02873Y02195*
X02873Y02195*
X02874Y02195*
X02874Y02195*
X02874Y02195*
X02875Y02196*
X02875Y02196*
X02875Y02196*
X02875Y02196*
X02876Y02197*
X02876Y02197*
X02876Y02197*
X02876Y02197*
X02876Y02198*
X02876Y02198*
X02877Y02198*
X02877Y02199*
X02877Y02199*
X02877Y02199*
X02877Y022*
Y02484D02*
D01*
X02877Y02484*
X02877Y02485*
X02877Y02485*
X02877Y02485*
X02876Y02486*
X02876Y02486*
X02876Y02486*
X02876Y02487*
X02876Y02487*
X02876Y02487*
X02875Y02487*
X02875Y02488*
X02875Y02488*
X02875Y02488*
X02874Y02488*
X02874Y02488*
X02874Y02489*
X02873Y02489*
X02873Y02489*
X02873Y02489*
X02872Y02489*
X02872Y02489*
X02872*
X02871Y02489*
X02871Y02489*
X02871Y02489*
X0287Y02489*
X0287Y02489*
X0287Y02488*
X02869Y02488*
X02869Y02488*
X02869Y02488*
X02868Y02488*
X02868Y02487*
X02868Y02487*
X02868Y02487*
X02868Y02487*
X02867Y02486*
X02867Y02486*
X02867Y02486*
X02867Y02485*
X02867Y02485*
X02867Y02485*
X02867Y02484*
X02867Y02484*
X02867Y02484*
X02867Y02483*
X02867Y02483*
X02867Y02483*
X02867Y02482*
X02867Y02482*
X02867Y02482*
X02868Y02481*
X02868Y02481*
X02868Y02481*
X02868Y02481*
X02868Y0248*
X02869Y0248*
X02869Y0248*
X02869Y0248*
X0287Y0248*
X0287Y02479*
X0287Y02479*
X02871Y02479*
X02871Y02479*
X02871Y02479*
X02872Y02479*
X02872*
X02872Y02479*
X02873Y02479*
X02873Y02479*
X02873Y02479*
X02874Y02479*
X02874Y0248*
X02874Y0248*
X02875Y0248*
X02875Y0248*
X02875Y0248*
X02875Y02481*
X02876Y02481*
X02876Y02481*
X02876Y02481*
X02876Y02482*
X02876Y02482*
X02876Y02482*
X02877Y02483*
X02877Y02483*
X02877Y02483*
X02877Y02484*
X02877Y02484*
Y02626D02*
D01*
X02877Y02626*
X02877Y02627*
X02877Y02627*
X02877Y02627*
X02876Y02628*
X02876Y02628*
X02876Y02628*
X02876Y02629*
X02876Y02629*
X02876Y02629*
X02875Y0263*
X02875Y0263*
X02875Y0263*
X02875Y0263*
X02874Y0263*
X02874Y02631*
X02874Y02631*
X02873Y02631*
X02873Y02631*
X02873Y02631*
X02872Y02631*
X02872Y02631*
X02872*
X02871Y02631*
X02871Y02631*
X02871Y02631*
X0287Y02631*
X0287Y02631*
X0287Y02631*
X02869Y0263*
X02869Y0263*
X02869Y0263*
X02868Y0263*
X02868Y0263*
X02868Y02629*
X02868Y02629*
X02868Y02629*
X02867Y02628*
X02867Y02628*
X02867Y02628*
X02867Y02627*
X02867Y02627*
X02867Y02627*
X02867Y02626*
X02867Y02626*
X02867Y02626*
X02867Y02625*
X02867Y02625*
X02867Y02625*
X02867Y02624*
X02867Y02624*
X02867Y02624*
X02868Y02623*
X02868Y02623*
X02868Y02623*
X02868Y02623*
X02868Y02622*
X02869Y02622*
X02869Y02622*
X02869Y02622*
X0287Y02622*
X0287Y02622*
X0287Y02621*
X02871Y02621*
X02871Y02621*
X02871Y02621*
X02872Y02621*
X02872*
X02872Y02621*
X02873Y02621*
X02873Y02621*
X02873Y02621*
X02874Y02622*
X02874Y02622*
X02874Y02622*
X02875Y02622*
X02875Y02622*
X02875Y02622*
X02875Y02623*
X02876Y02623*
X02876Y02623*
X02876Y02623*
X02876Y02624*
X02876Y02624*
X02876Y02624*
X02877Y02625*
X02877Y02625*
X02877Y02625*
X02877Y02626*
X02877Y02626*
Y02768D02*
D01*
X02877Y02769*
X02877Y02769*
X02877Y02769*
X02877Y0277*
X02876Y0277*
X02876Y0277*
X02876Y02771*
X02876Y02771*
X02876Y02771*
X02876Y02771*
X02875Y02772*
X02875Y02772*
X02875Y02772*
X02875Y02772*
X02874Y02773*
X02874Y02773*
X02874Y02773*
X02873Y02773*
X02873Y02773*
X02873Y02773*
X02872Y02773*
X02872Y02773*
X02872*
X02871Y02773*
X02871Y02773*
X02871Y02773*
X0287Y02773*
X0287Y02773*
X0287Y02773*
X02869Y02773*
X02869Y02772*
X02869Y02772*
X02868Y02772*
X02868Y02772*
X02868Y02771*
X02868Y02771*
X02868Y02771*
X02867Y02771*
X02867Y0277*
X02867Y0277*
X02867Y0277*
X02867Y02769*
X02867Y02769*
X02867Y02769*
X02867Y02768*
X02867Y02768*
X02867Y02768*
X02867Y02767*
X02867Y02767*
X02867Y02767*
X02867Y02766*
X02867Y02766*
X02868Y02766*
X02868Y02765*
X02868Y02765*
X02868Y02765*
X02868Y02765*
X02869Y02764*
X02869Y02764*
X02869Y02764*
X0287Y02764*
X0287Y02764*
X0287Y02764*
X02871Y02763*
X02871Y02763*
X02871Y02763*
X02872Y02763*
X02872*
X02872Y02763*
X02873Y02763*
X02873Y02763*
X02873Y02764*
X02874Y02764*
X02874Y02764*
X02874Y02764*
X02875Y02764*
X02875Y02764*
X02875Y02765*
X02875Y02765*
X02876Y02765*
X02876Y02765*
X02876Y02766*
X02876Y02766*
X02876Y02766*
X02876Y02767*
X02877Y02767*
X02877Y02767*
X02877Y02768*
X02877Y02768*
X02877Y02768*
Y03053D02*
D01*
X02877Y03053*
X02877Y03053*
X02877Y03054*
X02877Y03054*
X02876Y03054*
X02876Y03055*
X02876Y03055*
X02876Y03055*
X02876Y03055*
X02876Y03056*
X02875Y03056*
X02875Y03056*
X02875Y03056*
X02875Y03057*
X02874Y03057*
X02874Y03057*
X02874Y03057*
X02873Y03057*
X02873Y03057*
X02873Y03057*
X02872Y03057*
X02872Y03057*
X02872*
X02871Y03057*
X02871Y03057*
X02871Y03057*
X0287Y03057*
X0287Y03057*
X0287Y03057*
X02869Y03057*
X02869Y03057*
X02869Y03056*
X02868Y03056*
X02868Y03056*
X02868Y03056*
X02868Y03055*
X02868Y03055*
X02867Y03055*
X02867Y03055*
X02867Y03054*
X02867Y03054*
X02867Y03054*
X02867Y03053*
X02867Y03053*
X02867Y03053*
X02867Y03052*
X02867Y03052*
X02867Y03052*
X02867Y03051*
X02867Y03051*
X02867Y03051*
X02867Y0305*
X02868Y0305*
X02868Y0305*
X02868Y03049*
X02868Y03049*
X02868Y03049*
X02869Y03049*
X02869Y03048*
X02869Y03048*
X0287Y03048*
X0287Y03048*
X0287Y03048*
X02871Y03048*
X02871Y03048*
X02871Y03048*
X02872Y03048*
X02872*
X02872Y03048*
X02873Y03048*
X02873Y03048*
X02873Y03048*
X02874Y03048*
X02874Y03048*
X02874Y03048*
X02875Y03048*
X02875Y03049*
X02875Y03049*
X02875Y03049*
X02876Y03049*
X02876Y0305*
X02876Y0305*
X02876Y0305*
X02876Y03051*
X02876Y03051*
X02877Y03051*
X02877Y03052*
X02877Y03052*
X02877Y03052*
X02877Y03053*
Y0291D02*
D01*
X02877Y02911*
X02877Y02911*
X02877Y02911*
X02877Y02912*
X02876Y02912*
X02876Y02912*
X02876Y02913*
X02876Y02913*
X02876Y02913*
X02876Y02914*
X02875Y02914*
X02875Y02914*
X02875Y02914*
X02875Y02914*
X02874Y02915*
X02874Y02915*
X02874Y02915*
X02873Y02915*
X02873Y02915*
X02873Y02915*
X02872Y02915*
X02872Y02915*
X02872*
X02871Y02915*
X02871Y02915*
X02871Y02915*
X0287Y02915*
X0287Y02915*
X0287Y02915*
X02869Y02915*
X02869Y02914*
X02869Y02914*
X02868Y02914*
X02868Y02914*
X02868Y02914*
X02868Y02913*
X02868Y02913*
X02867Y02913*
X02867Y02912*
X02867Y02912*
X02867Y02912*
X02867Y02911*
X02867Y02911*
X02867Y02911*
X02867Y0291*
X02867Y0291*
X02867Y0291*
X02867Y02909*
X02867Y02909*
X02867Y02909*
X02867Y02908*
X02867Y02908*
X02868Y02908*
X02868Y02907*
X02868Y02907*
X02868Y02907*
X02868Y02907*
X02869Y02907*
X02869Y02906*
X02869Y02906*
X0287Y02906*
X0287Y02906*
X0287Y02906*
X02871Y02906*
X02871Y02906*
X02871Y02905*
X02872Y02905*
X02872*
X02872Y02905*
X02873Y02906*
X02873Y02906*
X02873Y02906*
X02874Y02906*
X02874Y02906*
X02874Y02906*
X02875Y02906*
X02875Y02907*
X02875Y02907*
X02875Y02907*
X02876Y02907*
X02876Y02907*
X02876Y02908*
X02876Y02908*
X02876Y02908*
X02876Y02909*
X02877Y02909*
X02877Y02909*
X02877Y0291*
X02877Y0291*
X02877Y0291*
Y02058D02*
D01*
X02877Y02058*
X02877Y02058*
X02877Y02059*
X02877Y02059*
X02876Y02059*
X02876Y0206*
X02876Y0206*
X02876Y0206*
X02876Y0206*
X02876Y02061*
X02875Y02061*
X02875Y02061*
X02875Y02061*
X02875Y02062*
X02874Y02062*
X02874Y02062*
X02874Y02062*
X02873Y02062*
X02873Y02062*
X02873Y02062*
X02872Y02062*
X02872Y02062*
X02872*
X02871Y02062*
X02871Y02062*
X02871Y02062*
X0287Y02062*
X0287Y02062*
X0287Y02062*
X02869Y02062*
X02869Y02062*
X02869Y02061*
X02868Y02061*
X02868Y02061*
X02868Y02061*
X02868Y0206*
X02868Y0206*
X02867Y0206*
X02867Y0206*
X02867Y02059*
X02867Y02059*
X02867Y02059*
X02867Y02058*
X02867Y02058*
X02867Y02058*
X02867Y02057*
X02867Y02057*
X02867Y02057*
X02867Y02056*
X02867Y02056*
X02867Y02056*
X02867Y02055*
X02868Y02055*
X02868Y02055*
X02868Y02054*
X02868Y02054*
X02868Y02054*
X02869Y02054*
X02869Y02053*
X02869Y02053*
X0287Y02053*
X0287Y02053*
X0287Y02053*
X02871Y02053*
X02871Y02053*
X02871Y02053*
X02872Y02053*
X02872*
X02872Y02053*
X02873Y02053*
X02873Y02053*
X02873Y02053*
X02874Y02053*
X02874Y02053*
X02874Y02053*
X02875Y02053*
X02875Y02054*
X02875Y02054*
X02875Y02054*
X02876Y02054*
X02876Y02055*
X02876Y02055*
X02876Y02055*
X02876Y02056*
X02876Y02056*
X02877Y02056*
X02877Y02057*
X02877Y02057*
X02877Y02057*
X02877Y02058*
X04995Y02108D02*
D01*
X04995Y02108*
X04995Y02109*
X04994Y02109*
X04994Y02109*
X04994Y0211*
X04994Y0211*
X04994Y0211*
X04994Y02111*
X04994Y02111*
X04993Y02111*
X04993Y02111*
X04993Y02112*
X04993Y02112*
X04992Y02112*
X04992Y02112*
X04992Y02112*
X04992Y02113*
X04991Y02113*
X04991Y02113*
X04991Y02113*
X0499Y02113*
X0499Y02113*
X04989*
X04989Y02113*
X04989Y02113*
X04988Y02113*
X04988Y02113*
X04988Y02113*
X04988Y02112*
X04987Y02112*
X04987Y02112*
X04987Y02112*
X04986Y02112*
X04986Y02111*
X04986Y02111*
X04986Y02111*
X04985Y02111*
X04985Y0211*
X04985Y0211*
X04985Y0211*
X04985Y02109*
X04985Y02109*
X04985Y02109*
X04985Y02108*
X04985Y02108*
X04985Y02108*
X04985Y02107*
X04985Y02107*
X04985Y02107*
X04985Y02106*
X04985Y02106*
X04985Y02106*
X04985Y02105*
X04986Y02105*
X04986Y02105*
X04986Y02105*
X04986Y02104*
X04987Y02104*
X04987Y02104*
X04987Y02104*
X04988Y02104*
X04988Y02103*
X04988Y02103*
X04988Y02103*
X04989Y02103*
X04989Y02103*
X04989Y02103*
X0499*
X0499Y02103*
X04991Y02103*
X04991Y02103*
X04991Y02103*
X04992Y02103*
X04992Y02104*
X04992Y02104*
X04992Y02104*
X04993Y02104*
X04993Y02104*
X04993Y02105*
X04993Y02105*
X04994Y02105*
X04994Y02105*
X04994Y02106*
X04994Y02106*
X04994Y02106*
X04994Y02107*
X04994Y02107*
X04995Y02107*
X04995Y02108*
X04995Y02108*
X03684Y03161D02*
D01*
X03684Y03161*
X03684Y03161*
X03684Y03162*
X03684Y03162*
X03684Y03162*
X03684Y03163*
X03684Y03163*
X03684Y03163*
X03683Y03164*
X03683Y03164*
X03683Y03164*
X03683Y03164*
X03683Y03165*
X03682Y03165*
X03682Y03165*
X03682Y03165*
X03681Y03165*
X03681Y03165*
X03681Y03165*
X0368Y03166*
X0368Y03166*
X0368Y03166*
X03679*
X03679Y03166*
X03679Y03166*
X03678Y03165*
X03678Y03165*
X03678Y03165*
X03677Y03165*
X03677Y03165*
X03677Y03165*
X03676Y03165*
X03676Y03164*
X03676Y03164*
X03676Y03164*
X03676Y03164*
X03675Y03163*
X03675Y03163*
X03675Y03163*
X03675Y03162*
X03675Y03162*
X03675Y03162*
X03675Y03161*
X03675Y03161*
X03675Y03161*
X03675Y0316*
X03675Y0316*
X03675Y0316*
X03675Y03159*
X03675Y03159*
X03675Y03159*
X03675Y03158*
X03675Y03158*
X03676Y03158*
X03676Y03158*
X03676Y03157*
X03676Y03157*
X03676Y03157*
X03677Y03157*
X03677Y03156*
X03677Y03156*
X03678Y03156*
X03678Y03156*
X03678Y03156*
X03679Y03156*
X03679Y03156*
X03679Y03156*
X0368*
X0368Y03156*
X0368Y03156*
X03681Y03156*
X03681Y03156*
X03681Y03156*
X03682Y03156*
X03682Y03156*
X03682Y03157*
X03683Y03157*
X03683Y03157*
X03683Y03157*
X03683Y03158*
X03683Y03158*
X03684Y03158*
X03684Y03158*
X03684Y03159*
X03684Y03159*
X03684Y03159*
X03684Y0316*
X03684Y0316*
X03684Y0316*
X03684Y03161*
G54D26*
X03776Y03117D02*
D01*
X03776Y03118*
X03776Y03119*
X03776Y03119*
X03776Y0312*
X03776Y03121*
X03775Y03122*
X03775Y03123*
X03775Y03123*
X03774Y03124*
X03774Y03125*
X03773Y03125*
X03772Y03126*
X03772Y03126*
X03771Y03127*
X0377Y03127*
X0377Y03128*
X03769Y03128*
X03768Y03128*
X03767Y03128*
X03767Y03129*
X03766Y03129*
X03765Y03129*
X03764*
X03763Y03129*
X03762Y03129*
X03762Y03128*
X03761Y03128*
X0376Y03128*
X03759Y03128*
X03759Y03127*
X03758Y03127*
X03757Y03126*
X03757Y03126*
X03756Y03125*
X03755Y03125*
X03755Y03124*
X03755Y03123*
X03754Y03123*
X03754Y03122*
X03753Y03121*
X03753Y0312*
X03753Y03119*
X03753Y03119*
X03753Y03118*
X03753Y03117*
X03753Y03116*
X03753Y03115*
X03753Y03115*
X03753Y03114*
X03753Y03113*
X03754Y03112*
X03754Y03111*
X03755Y03111*
X03755Y0311*
X03755Y03109*
X03756Y03109*
X03757Y03108*
X03757Y03108*
X03758Y03107*
X03759Y03107*
X03759Y03106*
X0376Y03106*
X03761Y03106*
X03762Y03106*
X03762Y03105*
X03763Y03105*
X03764Y03105*
X03765*
X03766Y03105*
X03767Y03105*
X03767Y03106*
X03768Y03106*
X03769Y03106*
X0377Y03106*
X0377Y03107*
X03771Y03107*
X03772Y03108*
X03772Y03108*
X03773Y03109*
X03774Y03109*
X03774Y0311*
X03775Y03111*
X03775Y03111*
X03775Y03112*
X03776Y03113*
X03776Y03114*
X03776Y03115*
X03776Y03115*
X03776Y03116*
X03776Y03117*
G54D27*
X03805Y03156D02*
D01*
X03805Y03155*
X03805Y03153*
X03805Y03151*
X03805Y03149*
X03806Y03148*
X03807Y03146*
X03807Y03145*
X03808Y03143*
X03809Y03142*
X0381Y0314*
X03812Y03139*
X03813Y03138*
X03814Y03137*
X03816Y03136*
X03817Y03135*
X03819Y03134*
X0382Y03133*
X03822Y03133*
X03823Y03132*
X03825Y03132*
X03827Y03131*
X03829Y03131*
X0383*
X03832Y03131*
X03834Y03132*
X03836Y03132*
X03837Y03133*
X03839Y03133*
X0384Y03134*
X03842Y03135*
X03843Y03136*
X03845Y03137*
X03846Y03138*
X03847Y03139*
X03849Y0314*
X0385Y03142*
X03851Y03143*
X03852Y03145*
X03852Y03146*
X03853Y03148*
X03854Y03149*
X03854Y03151*
X03854Y03153*
X03854Y03155*
X03855Y03156*
X02916Y02388D02*
Y02389D01*
Y02295D02*
Y02296D01*
X0305Y02295D02*
X03072D01*
X02916D02*
X02938D01*
X03072Y02388D02*
Y02389D01*
Y02295D02*
Y02296D01*
X0305Y02389D02*
X03072D01*
X02916D02*
X02938D01*
X02916Y02246D02*
Y02246D01*
Y02153D02*
Y02153D01*
X0305Y02153D02*
X03072D01*
X02916D02*
X02938D01*
X03072Y02246D02*
Y02246D01*
Y02153D02*
Y02153D01*
X0305Y02246D02*
X03072D01*
X02916D02*
X02938D01*
X02916Y0253D02*
Y02531D01*
Y02437D02*
Y02438D01*
X0305Y02437D02*
X03072D01*
X02916D02*
X02938D01*
X03072Y0253D02*
Y02531D01*
Y02437D02*
Y02438D01*
X0305Y02531D02*
X03072D01*
X02916D02*
X02938D01*
X02916Y02672D02*
Y02673D01*
Y02579D02*
Y0258D01*
X0305Y02579D02*
X03072D01*
X02916D02*
X02938D01*
X03072Y02672D02*
Y02673D01*
Y02579D02*
Y0258D01*
X0305Y02673D02*
X03072D01*
X02916D02*
X02938D01*
X02916Y02815D02*
Y02815D01*
Y02721D02*
Y02722D01*
X0305Y02721D02*
X03072D01*
X02916D02*
X02938D01*
X03072Y02815D02*
Y02815D01*
Y02721D02*
Y02722D01*
X0305Y02815D02*
X03072D01*
X02916D02*
X02938D01*
X02916Y03099D02*
Y03099D01*
Y03006D02*
Y03006D01*
X0305Y03006D02*
X03072D01*
X02916D02*
X02938D01*
X03072Y03099D02*
Y03099D01*
Y03006D02*
Y03006D01*
X0305Y03099D02*
X03072D01*
X02916D02*
X02938D01*
X02916Y02957D02*
Y02957D01*
Y02864D02*
Y02864D01*
X0305Y02864D02*
X03072D01*
X02916D02*
X02938D01*
X03072Y02957D02*
Y02957D01*
Y02864D02*
Y02864D01*
X0305Y02957D02*
X03072D01*
X02916D02*
X02938D01*
X02916Y02104D02*
Y02104D01*
Y02011D02*
Y02011D01*
X0305Y02011D02*
X03072D01*
X02916D02*
X02938D01*
X03072Y02104D02*
Y02104D01*
Y02011D02*
Y02011D01*
X0305Y02104D02*
X03072D01*
X02916D02*
X02938D01*
X0374Y03531D02*
X04015D01*
X0374Y0324D02*
X04015D01*
Y03531*
X03724Y0326D02*
Y03285D01*
Y0326D02*
X0374Y03262D01*
X03724Y03285D02*
X0374Y03282D01*
Y0324D02*
Y03262D01*
X03724Y03486D02*
X0374Y03488D01*
X03724Y03511D02*
X0374Y03508D01*
X03724Y03486D02*
Y03511D01*
X0374Y03508D02*
Y03531D01*
Y03282D02*
Y03488D01*
X04637Y02036D02*
X04889D01*
Y03081*
X04637D02*
X04889D01*
X04637Y02036D02*
Y03081D01*
X03725Y01763D02*
X03934D01*
X03855Y03156D02*
X03934D01*
X03725D02*
X03805D01*
X03934Y01763D02*
Y03156D01*
X03725Y01763D02*
Y03156D01*
X04243Y02808D02*
X0426D01*
X04243Y02861D02*
X0426D01*
X04243Y02706D02*
X0426D01*
X04243Y02759D02*
X0426D01*
X04243Y02605D02*
X0426D01*
X04243Y02658D02*
X0426D01*
X04243Y02504D02*
X0426D01*
X04243Y02557D02*
X0426D01*
X04243Y02403D02*
X0426D01*
X04243Y02456D02*
X0426D01*
X04243Y02301D02*
X0426D01*
X04243Y02355D02*
X0426D01*
X04243Y022D02*
X0426D01*
X04243Y02253D02*
X0426D01*
X04243Y02099D02*
X0426D01*
X04243Y02152D02*
X0426D01*
X0335Y02141D02*
X03368D01*
X0335Y02088D02*
X03368D01*
X0335Y02258D02*
X03368D01*
X0335Y02205D02*
X03368D01*
X0335Y02375D02*
X03368D01*
X0335Y02322D02*
X03368D01*
X0335Y02493D02*
X03368D01*
X0335Y02439D02*
X03368D01*
X0335Y0261D02*
X03368D01*
X0335Y02556D02*
X03368D01*
X0335Y02727D02*
X03368D01*
X0335Y02674D02*
X03368D01*
X0335Y02844D02*
X03368D01*
X0335Y02791D02*
X03368D01*
X0335Y02961D02*
X03368D01*
X0335Y02908D02*
X03368D01*
G54D28*
X044Y03499D02*
X0439Y03509D01*
X0437*
X0436Y03499*
Y03459*
X0437Y03449*
X0439*
X044Y03459*
Y03479*
X0438*
X0443Y03449D02*
X0445D01*
X0446Y03459*
Y03479*
X0445Y03489*
X0443*
X0442Y03479*
Y03459*
X0443Y03449*
X0452Y03509D02*
Y03449D01*
X0449*
X0448Y03459*
Y03479*
X0449Y03489*
X0452*
X0455Y03449D02*
X0457D01*
X0458Y03459*
Y03479*
X0457Y03489*
X0455*
X0454Y03479*
Y03459*
X0455Y03449*
X047Y03499D02*
X0469Y03509D01*
X0467*
X0466Y03499*
Y03489*
X0467Y03479*
X0469*
X047Y03469*
Y03459*
X0469Y03449*
X0467*
X0466Y03459*
X0473Y03489D02*
X0475D01*
X0476Y03479*
Y03449*
X0473*
X0472Y03459*
X0473Y03469*
X0476*
X0478Y03449D02*
Y03489D01*
X0481*
X0482Y03479*
Y03449*
X0488Y03489D02*
X0485D01*
X0484Y03479*
Y03459*
X0485Y03449*
X0488*
X049Y03509D02*
Y03449D01*
Y03479*
X0491Y03489*
X0493*
X0494Y03479*
Y03449*
X0499D02*
X0497D01*
X0496Y03459*
Y03479*
X0497Y03489*
X0499*
X05Y03479*
Y03469*
X0496*
X0502Y03489D02*
X0506D01*
X0502Y03449*
X0506*
X044Y03403D02*
X0439Y03413D01*
X0437*
X0436Y03403*
Y03364*
X0437Y03354*
X0439*
X044Y03364*
X0442Y03393D02*
Y03364D01*
X0443Y03354*
X0446*
Y03393*
X0448D02*
Y03354D01*
Y03374*
X0449Y03383*
X045Y03393*
X0451*
X0454Y03354D02*
X0457D01*
X0458Y03364*
X0457Y03374*
X0455*
X0454Y03383*
X0455Y03393*
X0458*
X0461Y03354D02*
X0463D01*
X0464Y03364*
Y03383*
X0463Y03393*
X0461*
X046Y03383*
Y03364*
X0461Y03354*
X0472D02*
Y03413D01*
X0475*
X0476Y03403*
Y03383*
X0475Y03374*
X0472*
X0474D02*
X0476Y03354D01*
X0479Y03393D02*
X0481D01*
X0482Y03383*
Y03354*
X0479*
X0478Y03364*
X0479Y03374*
X0482*
X0484Y03354D02*
X0487D01*
X0488Y03364*
X0487Y03374*
X0485*
X0484Y03383*
X0485Y03393*
X0488*
X0436Y03318D02*
Y03268D01*
X0437Y03258*
X0439*
X044Y03268*
Y03318*
X0442Y03258D02*
Y03318D01*
X0446Y03258*
Y03318*
X0448Y03258D02*
Y03318D01*
X045Y03298*
X0452Y03318*
Y03258*
X0458Y03308D02*
X0457Y03318D01*
X0455*
X0454Y03308*
Y03298*
X0455Y03288*
X0457*
X0458Y03278*
Y03268*
X0457Y03258*
X0455*
X0454Y03268*
X046Y03258D02*
Y03318D01*
X0462Y03298*
X0464Y03318*
Y03258*
X03656Y0326D02*
Y0321D01*
X03665Y03201*
X03685*
X03695Y0321*
Y0326*
X03715Y03201D02*
X03735D01*
X03725*
Y0326*
X03715Y0325*
X046Y03168D02*
X0459Y03178D01*
X0457*
X04561Y03168*
Y03158*
X0457Y03148*
X0459*
X046Y03138*
Y03128*
X0459Y03119*
X0457*
X04561Y03128*
X0462Y03178D02*
Y03119D01*
X0464Y03138*
X0466Y03119*
Y03178*
X0468Y03119D02*
X047D01*
X0469*
Y03178*
X0468Y03168*
X04195Y02899D02*
Y02958D01*
X04224*
X04234Y02948*
Y02928*
X04224Y02918*
X04195*
X04214D02*
X04234Y02899D01*
X04254D02*
X04274D01*
X04264*
Y02958*
X04254Y02948*
X04344Y02958D02*
X04324Y02948D01*
X04304Y02928*
Y02908*
X04314Y02899*
X04334*
X04344Y02908*
Y02918*
X04334Y02928*
X04304*
X04195Y02798D02*
Y02857D01*
X04224*
X04234Y02847*
Y02827*
X04224Y02817*
X04195*
X04214D02*
X04234Y02798D01*
X04254D02*
X04274D01*
X04264*
Y02857*
X04254Y02847*
X04344Y02857D02*
X04304D01*
Y02827*
X04324Y02837*
X04334*
X04344Y02827*
Y02807*
X04334Y02798*
X04314*
X04304Y02807*
X04195Y02697D02*
Y02756D01*
X04224*
X04234Y02746*
Y02726*
X04224Y02716*
X04195*
X04214D02*
X04234Y02697D01*
X04254D02*
X04274D01*
X04264*
Y02756*
X04254Y02746*
X04334Y02697D02*
Y02756D01*
X04304Y02726*
X04344*
X04195Y02595D02*
Y02654D01*
X04224*
X04234Y02644*
Y02624*
X04224Y02614*
X04195*
X04214D02*
X04234Y02595D01*
X04254D02*
X04274D01*
X04264*
Y02654*
X04254Y02644*
X04304D02*
X04314Y02654D01*
X04334*
X04344Y02644*
Y02634*
X04334Y02624*
X04324*
X04334*
X04344Y02614*
Y02604*
X04334Y02595*
X04314*
X04304Y02604*
X04195Y02494D02*
Y02553D01*
X04224*
X04234Y02543*
Y02523*
X04224Y02513*
X04195*
X04214D02*
X04234Y02494D01*
X04254D02*
X04274D01*
X04264*
Y02553*
X04254Y02543*
X04344Y02494D02*
X04304D01*
X04344Y02533*
Y02543*
X04334Y02553*
X04314*
X04304Y02543*
X04195Y02393D02*
Y02452D01*
X04224*
X04234Y02442*
Y02422*
X04224Y02412*
X04195*
X04214D02*
X04234Y02393D01*
X04254D02*
X04274D01*
X04264*
Y02452*
X04254Y02442*
X04304Y02393D02*
X04324D01*
X04314*
Y02452*
X04304Y02442*
X04195Y02292D02*
Y02351D01*
X04224*
X04234Y02341*
Y02321*
X04224Y02311*
X04195*
X04214D02*
X04234Y02292D01*
X04254D02*
X04274D01*
X04264*
Y02351*
X04254Y02341*
X04304D02*
X04314Y02351D01*
X04334*
X04344Y02341*
Y02301*
X04334Y02292*
X04314*
X04304Y02301*
Y02341*
X04195Y0219D02*
Y02249D01*
X04224*
X04234Y02239*
Y02219*
X04224Y02209*
X04195*
X04214D02*
X04234Y0219D01*
X04254Y02199D02*
X04264Y0219D01*
X04284*
X04294Y02199*
Y02239*
X04284Y02249*
X04264*
X04254Y02239*
Y02229*
X04264Y02219*
X04294*
X03302Y02179D02*
Y02238D01*
X03331*
X03341Y02228*
Y02208*
X03331Y02198*
X03302*
X03321D02*
X03341Y02179D01*
X03361Y02228D02*
X03371Y02238D01*
X03391*
X03401Y02228*
Y02218*
X03391Y02208*
X03401Y02198*
Y02188*
X03391Y02179*
X03371*
X03361Y02188*
Y02198*
X03371Y02208*
X03361Y02218*
Y02228*
X03371Y02208D02*
X03391D01*
X03302Y02297D02*
Y02356D01*
X03331*
X03341Y02346*
Y02326*
X03331Y02316*
X03302*
X03321D02*
X03341Y02297D01*
X03361Y02356D02*
X03401D01*
Y02346*
X03361Y02306*
Y02297*
X03302Y02414D02*
Y02473D01*
X03331*
X03341Y02463*
Y02443*
X03331Y02433*
X03302*
X03321D02*
X03341Y02414D01*
X03401Y02473D02*
X03381Y02463D01*
X03361Y02443*
Y02423*
X03371Y02414*
X03391*
X03401Y02423*
Y02433*
X03391Y02443*
X03361*
X03302Y02531D02*
Y0259D01*
X03331*
X03341Y0258*
Y0256*
X03331Y0255*
X03302*
X03321D02*
X03341Y02531D01*
X03401Y0259D02*
X03361D01*
Y0256*
X03381Y0257*
X03391*
X03401Y0256*
Y0254*
X03391Y02531*
X03371*
X03361Y0254*
X03302Y02648D02*
Y02707D01*
X03331*
X03341Y02697*
Y02677*
X03331Y02667*
X03302*
X03321D02*
X03341Y02648D01*
X03391D02*
Y02707D01*
X03361Y02677*
X03401*
X03302Y02765D02*
Y02824D01*
X03331*
X03341Y02814*
Y02794*
X03331Y02784*
X03302*
X03321D02*
X03341Y02765D01*
X03361Y02814D02*
X03371Y02824D01*
X03391*
X03401Y02814*
Y02804*
X03391Y02794*
X03381*
X03391*
X03401Y02784*
Y02774*
X03391Y02765*
X03371*
X03361Y02774*
X03302Y02882D02*
Y02941D01*
X03331*
X03341Y02931*
Y02911*
X03331Y02901*
X03302*
X03321D02*
X03341Y02882D01*
X03401D02*
X03361D01*
X03401Y02921*
Y02931*
X03391Y02941*
X03371*
X03361Y02931*
X03302Y02999D02*
Y03058D01*
X03331*
X03341Y03048*
Y03028*
X03331Y03018*
X03302*
X03321D02*
X03341Y02999D01*
X03361D02*
X03381D01*
X03371*
Y03058*
X03361Y03048*
X03765Y03629D02*
X03745D01*
X03755*
Y03579*
X03745Y0357*
X03735*
X03726Y03579*
X03785Y0357D02*
X03805D01*
X03795*
Y03629*
X03785Y03619*
X02872Y02198D02*
Y02139D01*
X02901*
X02911Y02148*
Y02188*
X02901Y02198*
X02872*
X02931Y02188D02*
X02941Y02198D01*
X02961*
X02971Y02188*
Y02178*
X02961Y02168*
X02971Y02158*
Y02148*
X02961Y02139*
X02941*
X02931Y02148*
Y02158*
X02941Y02168*
X02931Y02178*
Y02188*
X02941Y02168D02*
X02961D01*
X02872Y0234D02*
Y02281D01*
X02901*
X02911Y0229*
Y0233*
X02901Y0234*
X02872*
X02931D02*
X02971D01*
Y0233*
X02931Y0229*
Y02281*
X02872Y02482D02*
Y02423D01*
X02901*
X02911Y02432*
Y02472*
X02901Y02482*
X02872*
X02971D02*
X02951Y02472D01*
X02931Y02452*
Y02432*
X02941Y02423*
X02961*
X02971Y02432*
Y02442*
X02961Y02452*
X02931*
X02872Y02624D02*
Y02565D01*
X02901*
X02911Y02574*
Y02614*
X02901Y02624*
X02872*
X02971D02*
X02931D01*
Y02594*
X02951Y02604*
X02961*
X02971Y02594*
Y02574*
X02961Y02565*
X02941*
X02931Y02574*
X02872Y02766D02*
Y02707D01*
X02901*
X02911Y02716*
Y02756*
X02901Y02766*
X02872*
X02961Y02707D02*
Y02766D01*
X02931Y02736*
X02971*
X02872Y02908D02*
Y02849D01*
X02901*
X02911Y02858*
Y02898*
X02901Y02908*
X02872*
X02931Y02898D02*
X02941Y02908D01*
X02961*
X02971Y02898*
Y02888*
X02961Y02878*
X02951*
X02961*
X02971Y02868*
Y02858*
X02961Y02849*
X02941*
X02931Y02858*
X02872Y03051D02*
Y02992D01*
X02901*
X02911Y03001*
Y03041*
X02901Y03051*
X02872*
X02971Y02992D02*
X02931D01*
X02971Y03031*
Y03041*
X02961Y03051*
X02941*
X02931Y03041*
X02872Y03193D02*
Y03134D01*
X02901*
X02911Y03143*
Y03183*
X02901Y03193*
X02872*
X02931Y03134D02*
X02951D01*
X02941*
Y03193*
X02931Y03183*
M02*