%TF.GenerationSoftware,Altium Limited,Altium Designer,22.1.2 (22)*%
G04 Layer_Color=0*
%FSLAX26Y26*%
%MOIN*%
%TF.SameCoordinates,26ABD0B8-493F-4C78-88A6-316F46C79C97*%
%TF.FilePolarity,Positive*%
%TF.FileFunction,Other,Top_Component_Center*%
%TF.Part,Single*%
G01*
G75*
%TA.AperFunction,NonConductor*%
%ADD29C,0.003937*%
D29*
X2994331Y2322632D02*
Y2362002D01*
X2974646Y2342317D02*
X3014016D01*
X2994331Y2180489D02*
Y2219859D01*
X2974646Y2200174D02*
X3014016D01*
X2994331Y2464775D02*
Y2504145D01*
X2974646Y2484460D02*
X3014016D01*
X2994331Y2606918D02*
Y2646288D01*
X2974646Y2626603D02*
X3014016D01*
X2994331Y2749061D02*
Y2788430D01*
X2974646Y2768745D02*
X3014016D01*
X2994331Y3033346D02*
Y3072716D01*
X2974646Y3053031D02*
X3014016D01*
X2994331Y2891203D02*
Y2930573D01*
X2974646Y2910888D02*
X3014016D01*
X2994331Y2038347D02*
Y2077716D01*
X2974646Y2058032D02*
X3014016D01*
X4744095Y2559055D02*
X4783465D01*
X4763779Y2539370D02*
Y2578740D01*
X4251968Y2814960D02*
Y2854330D01*
X4232283Y2834645D02*
X4271654D01*
X4251968Y2713723D02*
Y2753093D01*
X4232283Y2733408D02*
X4271654D01*
X4251968Y2612486D02*
Y2651856D01*
X4232283Y2632171D02*
X4271654D01*
X4251968Y2511248D02*
Y2550618D01*
X4232283Y2530933D02*
X4271654D01*
X4251968Y2410011D02*
Y2449381D01*
X4232283Y2429696D02*
X4271654D01*
X4251968Y2308774D02*
Y2348144D01*
X4232283Y2328459D02*
X4271654D01*
X4251968Y2207537D02*
Y2246907D01*
X4232283Y2227222D02*
X4271654D01*
X4251968Y2106299D02*
Y2145669D01*
X4232283Y2125984D02*
X4271654D01*
X3359252Y2095315D02*
Y2134685D01*
X3339567Y2115000D02*
X3378937D01*
X3359252Y2212458D02*
Y2251828D01*
X3339567Y2232143D02*
X3378937D01*
X3359252Y2329601D02*
Y2368971D01*
X3339567Y2349286D02*
X3378937D01*
X3359252Y2446743D02*
Y2486113D01*
X3339567Y2466428D02*
X3378937D01*
X3359252Y2563886D02*
Y2603256D01*
X3339567Y2583571D02*
X3378937D01*
X3359252Y2681029D02*
Y2720399D01*
X3339567Y2700714D02*
X3378937D01*
X3359252Y2798172D02*
Y2837542D01*
X3339567Y2817857D02*
X3378937D01*
X3359252Y2915315D02*
Y2954685D01*
X3339567Y2935000D02*
X3378937D01*
%TF.MD5,aac52c3ed63cefe9f1c83f9b4fc3bcb3*%
M02*
