%TF.GenerationSoftware,Altium Limited,Altium Designer,22.1.2 (22)*%
G04 Layer_Color=8421504*
%FSLAX26Y26*%
%MOIN*%
%TF.SameCoordinates,26ABD0B8-493F-4C78-88A6-316F46C79C97*%
%TF.FilePolarity,Positive*%
%TF.FileFunction,Paste,Top*%
%TF.Part,Single*%
G01*
G75*
%TA.AperFunction,SMDPad,CuDef*%
%ADD10R,0.059055X0.062992*%
%ADD11R,0.059055X0.043307*%
%ADD12R,0.035433X0.047244*%
D10*
X3065197Y2342317D02*
D03*
X2923465D02*
D03*
X3065197Y2200174D02*
D03*
X2923465D02*
D03*
X3065197Y2484460D02*
D03*
X2923465D02*
D03*
X3065197Y2626603D02*
D03*
X2923465D02*
D03*
X3065197Y2768745D02*
D03*
X2923465D02*
D03*
X3065197Y3053031D02*
D03*
X2923465D02*
D03*
X3065197Y2910888D02*
D03*
X2923465D02*
D03*
X3065197Y2058032D02*
D03*
X2923465D02*
D03*
D11*
X4588583Y2109055D02*
D03*
Y2209055D02*
D03*
Y2309055D02*
D03*
Y2409055D02*
D03*
Y2509055D02*
D03*
Y2609055D02*
D03*
Y2709055D02*
D03*
Y2809055D02*
D03*
Y2909055D02*
D03*
Y3009055D02*
D03*
X4938976D02*
D03*
Y2909055D02*
D03*
Y2809055D02*
D03*
Y2709055D02*
D03*
Y2609055D02*
D03*
Y2509055D02*
D03*
Y2409055D02*
D03*
Y2309055D02*
D03*
Y2209055D02*
D03*
Y2109055D02*
D03*
D12*
X4293307Y2834645D02*
D03*
X4210630D02*
D03*
X4293307Y2733408D02*
D03*
X4210630D02*
D03*
X4293307Y2632171D02*
D03*
X4210630D02*
D03*
X4293307Y2530933D02*
D03*
X4210630D02*
D03*
X4293307Y2429696D02*
D03*
X4210630D02*
D03*
X4293307Y2328459D02*
D03*
X4210630D02*
D03*
X4293307Y2227222D02*
D03*
X4210630D02*
D03*
X4293307Y2125984D02*
D03*
X4210630D02*
D03*
X3317913Y2115000D02*
D03*
X3400591D02*
D03*
X3317913Y2232143D02*
D03*
X3400591D02*
D03*
X3317913Y2349286D02*
D03*
X3400591D02*
D03*
X3317913Y2466428D02*
D03*
X3400591D02*
D03*
X3317913Y2583571D02*
D03*
X3400591D02*
D03*
X3317913Y2700714D02*
D03*
X3400591D02*
D03*
X3317913Y2817857D02*
D03*
X3400591D02*
D03*
X3317913Y2935000D02*
D03*
X3400591D02*
D03*
%TF.MD5,3f1ef64fa877d2a36ae29a319d4809bd*%
M02*
