%TF.GenerationSoftware,Altium Limited,Altium Designer,22.1.2 (22)*%
G04 Layer_Color=16711935*
%FSLAX26Y26*%
%MOIN*%
%TF.SameCoordinates,26ABD0B8-493F-4C78-88A6-316F46C79C97*%
%TF.FilePolarity,Negative*%
%TF.FileFunction,Soldermask,Bot*%
%TF.Part,Single*%
G01*
G75*
%TA.AperFunction,ComponentPad*%
%ADD20C,0.084772*%
%ADD21R,0.084772X0.084772*%
%ADD22C,0.067055*%
%ADD23R,0.067055X0.067055*%
%TA.AperFunction,ViaPad*%
%ADD24C,0.058000*%
D20*
X3946850Y3374016D02*
D03*
D21*
X3809055D02*
D03*
D22*
X3980000Y1810000D02*
D03*
Y1910000D02*
D03*
Y2010000D02*
D03*
Y2110000D02*
D03*
Y2210000D02*
D03*
Y2310000D02*
D03*
Y2410000D02*
D03*
Y2510000D02*
D03*
Y2610000D02*
D03*
Y2710000D02*
D03*
Y2810000D02*
D03*
Y2910000D02*
D03*
Y3010000D02*
D03*
Y3110000D02*
D03*
X3680000Y1810000D02*
D03*
Y1910000D02*
D03*
Y2010000D02*
D03*
Y2110000D02*
D03*
Y2210000D02*
D03*
Y2310000D02*
D03*
Y2410000D02*
D03*
Y2510000D02*
D03*
Y2610000D02*
D03*
Y2710000D02*
D03*
Y2810000D02*
D03*
Y2910000D02*
D03*
Y3010000D02*
D03*
D23*
Y3110000D02*
D03*
D24*
X4389764Y2834646D02*
D03*
Y2736220D02*
D03*
X4409449Y2637795D02*
D03*
X4429134Y2539370D02*
D03*
X4389764Y2440945D02*
D03*
Y2322835D02*
D03*
X4448819Y2224409D02*
D03*
%TF.MD5,dd907ab4c24538925fcd513432f647be*%
M02*
