M48
;Layer_Color=9474304
;FILE_FORMAT=2:5
INCH,LZ
;TYPE=PLATED
T1F00S00C0.02800
T2F00S00C0.03543
T3F00S00C0.05118
%
T01
X0444882Y0222441
X0438976Y0232283
Y0244094
X0442913Y0253937
X0440945Y0263779
X0438976Y0273622
Y0283465
T02
X0368Y0181
Y0191
Y0201
Y0211
Y0221
Y0231
Y0241
Y0251
Y0261
Y0271
Y0281
Y0291
Y0301
Y0311
X0398
Y0301
Y0291
Y0281
Y0271
Y0261
Y0251
Y0241
Y0231
Y0221
Y0211
Y0201
Y0191
Y0181
T03
X0380906Y0337402
X0394685
M30
