%TF.GenerationSoftware,Altium Limited,Altium Designer,22.1.2 (22)*%
G04 Layer_Color=0*
%FSLAX26Y26*%
%MOIN*%
%TF.SameCoordinates,2995F0C5-4C3E-44F3-91CA-E5D3315D7569*%
%TF.FilePolarity,Positive*%
%TF.FileFunction,Plated,1,2,PTH,Drill*%
%TF.Part,Single*%
G01*
G75*
%TA.AperFunction,ComponentDrill*%
%ADD34C,0.051181*%
%ADD35C,0.035433*%
%TA.AperFunction,ViaDrill,NotFilled*%
%ADD36C,0.028000*%
D34*
X3946850Y3374016D02*
D03*
X3809055D02*
D03*
D35*
X3980000Y1810000D02*
D03*
Y1910000D02*
D03*
Y2010000D02*
D03*
Y2110000D02*
D03*
Y2210000D02*
D03*
Y2310000D02*
D03*
Y2410000D02*
D03*
Y2510000D02*
D03*
Y2610000D02*
D03*
Y2710000D02*
D03*
Y2810000D02*
D03*
Y2910000D02*
D03*
Y3010000D02*
D03*
Y3110000D02*
D03*
X3680000Y1810000D02*
D03*
Y1910000D02*
D03*
Y2010000D02*
D03*
Y2110000D02*
D03*
Y2210000D02*
D03*
Y2310000D02*
D03*
Y2410000D02*
D03*
Y2510000D02*
D03*
Y2610000D02*
D03*
Y2710000D02*
D03*
Y2810000D02*
D03*
Y2910000D02*
D03*
Y3010000D02*
D03*
Y3110000D02*
D03*
D36*
X4389764Y2834646D02*
D03*
Y2736220D02*
D03*
X4409449Y2637795D02*
D03*
X4429134Y2539370D02*
D03*
X4389764Y2440945D02*
D03*
Y2322835D02*
D03*
X4448819Y2224409D02*
D03*
%TF.MD5,93ae91a44d35ee6ebd5964ef4fe76f4a*%
M02*
