%TF.GenerationSoftware,Altium Limited,Altium Designer,22.1.2 (22)*%
G04 Layer_Color=16711935*
%FSLAX26Y26*%
%MOIN*%
%TF.SameCoordinates,26ABD0B8-493F-4C78-88A6-316F46C79C97*%
%TF.FilePolarity,Positive*%
%TF.FileFunction,Other,Top_Assembly*%
%TF.Part,Single*%
G01*
G75*
%TA.AperFunction,NonConductor*%
%ADD27C,0.007874*%
G36*
X3027892Y2360634D02*
X3028123D01*
X3028430Y2360595D01*
X3029121Y2360480D01*
X3029889Y2360250D01*
X3030695Y2359943D01*
X3031502Y2359559D01*
X3031886Y2359290D01*
X3032270Y2358983D01*
X3032308D01*
X3032347Y2358906D01*
X3032577Y2358675D01*
X3032884Y2358291D01*
X3033268Y2357792D01*
X3033691Y2357140D01*
X3034036Y2356372D01*
X3034382Y2355450D01*
X3034574Y2354413D01*
X3031502Y2354183D01*
Y2354221D01*
Y2354260D01*
X3031425Y2354490D01*
X3031310Y2354797D01*
X3031195Y2355181D01*
X3030811Y2356064D01*
X3030580Y2356448D01*
X3030311Y2356794D01*
X3030273Y2356871D01*
X3030081Y2357024D01*
X3029812Y2357216D01*
X3029467Y2357485D01*
X3029006Y2357715D01*
X3028468Y2357946D01*
X3027854Y2358099D01*
X3027201Y2358138D01*
X3026932D01*
X3026664Y2358099D01*
X3026318Y2358023D01*
X3025896Y2357946D01*
X3025435Y2357792D01*
X3025012Y2357562D01*
X3024552Y2357293D01*
X3024475Y2357255D01*
X3024321Y2357101D01*
X3024052Y2356832D01*
X3023745Y2356487D01*
X3023361Y2356064D01*
X3022977Y2355527D01*
X3022593Y2354874D01*
X3022247Y2354144D01*
Y2354106D01*
X3022209Y2354068D01*
X3022171Y2353914D01*
X3022132Y2353760D01*
X3022055Y2353568D01*
X3021979Y2353300D01*
X3021902Y2352992D01*
X3021825Y2352647D01*
X3021748Y2352263D01*
X3021671Y2351840D01*
X3021595Y2351341D01*
X3021518Y2350842D01*
X3021479Y2350266D01*
X3021441Y2349651D01*
X3021403Y2348999D01*
Y2348346D01*
X3021441Y2348384D01*
X3021595Y2348576D01*
X3021825Y2348883D01*
X3022171Y2349267D01*
X3022555Y2349690D01*
X3023015Y2350112D01*
X3023553Y2350496D01*
X3024129Y2350842D01*
X3024206Y2350880D01*
X3024398Y2350957D01*
X3024744Y2351111D01*
X3025166Y2351264D01*
X3025665Y2351418D01*
X3026241Y2351572D01*
X3026856Y2351648D01*
X3027508Y2351687D01*
X3027816D01*
X3028046Y2351648D01*
X3028315Y2351610D01*
X3028622Y2351572D01*
X3029352Y2351418D01*
X3030158Y2351111D01*
X3030619Y2350957D01*
X3031041Y2350727D01*
X3031502Y2350458D01*
X3031963Y2350151D01*
X3032385Y2349805D01*
X3032807Y2349383D01*
X3032846Y2349344D01*
X3032884Y2349267D01*
X3032999Y2349152D01*
X3033153Y2348960D01*
X3033307Y2348730D01*
X3033499Y2348461D01*
X3033691Y2348154D01*
X3033921Y2347808D01*
X3034113Y2347386D01*
X3034305Y2346963D01*
X3034497Y2346464D01*
X3034651Y2345965D01*
X3034804Y2345389D01*
X3034919Y2344813D01*
X3034958Y2344160D01*
X3034996Y2343508D01*
Y2343469D01*
Y2343392D01*
Y2343277D01*
Y2343124D01*
X3034958Y2342893D01*
Y2342663D01*
X3034881Y2342048D01*
X3034727Y2341396D01*
X3034574Y2340628D01*
X3034305Y2339860D01*
X3033959Y2339091D01*
Y2339053D01*
X3033921Y2339015D01*
X3033844Y2338899D01*
X3033767Y2338746D01*
X3033537Y2338400D01*
X3033230Y2337939D01*
X3032807Y2337440D01*
X3032308Y2336941D01*
X3031771Y2336442D01*
X3031118Y2335981D01*
X3031041Y2335943D01*
X3030811Y2335827D01*
X3030427Y2335635D01*
X3029966Y2335443D01*
X3029352Y2335251D01*
X3028660Y2335059D01*
X3027892Y2334944D01*
X3027086Y2334906D01*
X3026932D01*
X3026702Y2334944D01*
X3026433D01*
X3026126Y2334983D01*
X3025742Y2335059D01*
X3025320Y2335136D01*
X3024859Y2335251D01*
X3024360Y2335405D01*
X3023822Y2335597D01*
X3023323Y2335827D01*
X3022785Y2336096D01*
X3022247Y2336442D01*
X3021710Y2336826D01*
X3021211Y2337248D01*
X3020750Y2337747D01*
X3020711Y2337786D01*
X3020635Y2337901D01*
X3020519Y2338055D01*
X3020366Y2338285D01*
X3020174Y2338592D01*
X3019982Y2338976D01*
X3019751Y2339437D01*
X3019559Y2339975D01*
X3019329Y2340589D01*
X3019099Y2341280D01*
X3018907Y2342048D01*
X3018715Y2342893D01*
X3018561Y2343815D01*
X3018446Y2344852D01*
X3018369Y2345927D01*
X3018331Y2347117D01*
Y2347155D01*
Y2347194D01*
Y2347309D01*
Y2347424D01*
Y2347808D01*
X3018369Y2348307D01*
X3018407Y2348922D01*
X3018484Y2349613D01*
X3018561Y2350381D01*
X3018676Y2351188D01*
X3018791Y2352071D01*
X3018983Y2352954D01*
X3019214Y2353837D01*
X3019483Y2354682D01*
X3019790Y2355565D01*
X3020135Y2356333D01*
X3020558Y2357101D01*
X3021019Y2357754D01*
X3021057Y2357792D01*
X3021134Y2357869D01*
X3021249Y2358023D01*
X3021441Y2358215D01*
X3021710Y2358445D01*
X3021979Y2358675D01*
X3022324Y2358944D01*
X3022708Y2359213D01*
X3023131Y2359482D01*
X3023630Y2359751D01*
X3024129Y2359981D01*
X3024705Y2360211D01*
X3025320Y2360403D01*
X3025972Y2360557D01*
X3026664Y2360634D01*
X3027393Y2360672D01*
X3027662D01*
X3027892Y2360634D01*
D02*
G37*
G36*
X3004660Y2360519D02*
X3005352Y2360480D01*
X3006119Y2360403D01*
X3006849Y2360288D01*
X3007463Y2360173D01*
X3007502D01*
X3007579Y2360135D01*
X3007655D01*
X3007809Y2360058D01*
X3008231Y2359943D01*
X3008731Y2359751D01*
X3009307Y2359520D01*
X3009921Y2359213D01*
X3010535Y2358829D01*
X3011150Y2358368D01*
X3011188D01*
X3011227Y2358291D01*
X3011495Y2358061D01*
X3011841Y2357677D01*
X3012264Y2357178D01*
X3012763Y2356564D01*
X3013262Y2355834D01*
X3013723Y2354989D01*
X3014145Y2354029D01*
Y2353991D01*
X3014184Y2353914D01*
X3014222Y2353760D01*
X3014299Y2353568D01*
X3014376Y2353338D01*
X3014452Y2353031D01*
X3014568Y2352685D01*
X3014644Y2352301D01*
X3014721Y2351879D01*
X3014836Y2351418D01*
X3014990Y2350419D01*
X3015105Y2349306D01*
X3015144Y2348077D01*
Y2348039D01*
Y2347962D01*
Y2347808D01*
Y2347578D01*
X3015105Y2347347D01*
Y2347040D01*
X3015067Y2346349D01*
X3014990Y2345581D01*
X3014836Y2344698D01*
X3014683Y2343815D01*
X3014452Y2342970D01*
Y2342932D01*
X3014414Y2342855D01*
X3014376Y2342740D01*
X3014337Y2342586D01*
X3014184Y2342202D01*
X3013992Y2341664D01*
X3013761Y2341088D01*
X3013454Y2340474D01*
X3013108Y2339860D01*
X3012724Y2339284D01*
X3012686Y2339207D01*
X3012532Y2339053D01*
X3012340Y2338784D01*
X3012033Y2338439D01*
X3011726Y2338093D01*
X3011303Y2337709D01*
X3010881Y2337325D01*
X3010420Y2336979D01*
X3010382Y2336941D01*
X3010190Y2336864D01*
X3009921Y2336711D01*
X3009575Y2336519D01*
X3009153Y2336327D01*
X3008654Y2336135D01*
X3008078Y2335943D01*
X3007425Y2335751D01*
X3007348D01*
X3007118Y2335674D01*
X3006772Y2335635D01*
X3006273Y2335559D01*
X3005697Y2335482D01*
X3005006Y2335405D01*
X3004238Y2335367D01*
X3003393Y2335328D01*
X2994331D01*
Y2360557D01*
X3004008D01*
X3004660Y2360519D01*
D02*
G37*
G36*
X3034996Y2215265D02*
X3034958Y2215227D01*
X3034881Y2215150D01*
X3034766Y2214997D01*
X3034574Y2214805D01*
X3034382Y2214536D01*
X3034113Y2214229D01*
X3033806Y2213845D01*
X3033499Y2213461D01*
X3033153Y2213000D01*
X3032769Y2212462D01*
X3032347Y2211925D01*
X3031963Y2211310D01*
X3031540Y2210657D01*
X3031079Y2209966D01*
X3030657Y2209198D01*
X3030196Y2208430D01*
X3030158Y2208392D01*
X3030081Y2208238D01*
X3029966Y2208008D01*
X3029812Y2207701D01*
X3029620Y2207317D01*
X3029390Y2206856D01*
X3029121Y2206318D01*
X3028852Y2205742D01*
X3028584Y2205128D01*
X3028276Y2204437D01*
X3027969Y2203707D01*
X3027662Y2202939D01*
X3027086Y2201365D01*
X3026548Y2199675D01*
Y2199637D01*
X3026510Y2199521D01*
X3026472Y2199368D01*
X3026395Y2199137D01*
X3026318Y2198830D01*
X3026241Y2198485D01*
X3026164Y2198062D01*
X3026049Y2197640D01*
X3025972Y2197141D01*
X3025857Y2196603D01*
X3025665Y2195451D01*
X3025512Y2194146D01*
X3025396Y2192763D01*
X3022209D01*
Y2192802D01*
Y2192917D01*
Y2193070D01*
X3022247Y2193301D01*
Y2193570D01*
X3022286Y2193915D01*
X3022324Y2194338D01*
X3022363Y2194760D01*
X3022439Y2195259D01*
X3022516Y2195835D01*
X3022593Y2196411D01*
X3022708Y2197026D01*
X3022823Y2197717D01*
X3022977Y2198408D01*
X3023361Y2199944D01*
Y2199982D01*
X3023399Y2200136D01*
X3023476Y2200366D01*
X3023553Y2200673D01*
X3023668Y2201057D01*
X3023822Y2201480D01*
X3023976Y2201979D01*
X3024168Y2202555D01*
X3024398Y2203131D01*
X3024628Y2203784D01*
X3025166Y2205166D01*
X3025819Y2206626D01*
X3026548Y2208085D01*
X3026587Y2208123D01*
X3026664Y2208277D01*
X3026779Y2208469D01*
X3026932Y2208738D01*
X3027124Y2209083D01*
X3027355Y2209467D01*
X3027624Y2209890D01*
X3027892Y2210389D01*
X3028584Y2211425D01*
X3029352Y2212539D01*
X3030158Y2213653D01*
X3031041Y2214728D01*
X3018676D01*
Y2217685D01*
X3034996D01*
Y2215265D01*
D02*
G37*
G36*
X3004660Y2217954D02*
X3005352Y2217915D01*
X3006119Y2217838D01*
X3006849Y2217723D01*
X3007463Y2217608D01*
X3007502D01*
X3007579Y2217570D01*
X3007655D01*
X3007809Y2217493D01*
X3008231Y2217378D01*
X3008731Y2217186D01*
X3009307Y2216955D01*
X3009921Y2216648D01*
X3010535Y2216264D01*
X3011150Y2215803D01*
X3011188D01*
X3011227Y2215726D01*
X3011495Y2215496D01*
X3011841Y2215112D01*
X3012264Y2214613D01*
X3012763Y2213998D01*
X3013262Y2213269D01*
X3013723Y2212424D01*
X3014145Y2211464D01*
Y2211425D01*
X3014184Y2211349D01*
X3014222Y2211195D01*
X3014299Y2211003D01*
X3014376Y2210773D01*
X3014452Y2210465D01*
X3014568Y2210120D01*
X3014644Y2209736D01*
X3014721Y2209314D01*
X3014836Y2208853D01*
X3014990Y2207854D01*
X3015105Y2206741D01*
X3015144Y2205512D01*
Y2205474D01*
Y2205397D01*
Y2205243D01*
Y2205013D01*
X3015105Y2204782D01*
Y2204475D01*
X3015067Y2203784D01*
X3014990Y2203016D01*
X3014836Y2202133D01*
X3014683Y2201249D01*
X3014452Y2200405D01*
Y2200366D01*
X3014414Y2200289D01*
X3014376Y2200174D01*
X3014337Y2200021D01*
X3014184Y2199637D01*
X3013992Y2199099D01*
X3013761Y2198523D01*
X3013454Y2197909D01*
X3013108Y2197294D01*
X3012724Y2196718D01*
X3012686Y2196642D01*
X3012532Y2196488D01*
X3012340Y2196219D01*
X3012033Y2195874D01*
X3011726Y2195528D01*
X3011303Y2195144D01*
X3010881Y2194760D01*
X3010420Y2194414D01*
X3010382Y2194376D01*
X3010190Y2194299D01*
X3009921Y2194146D01*
X3009575Y2193954D01*
X3009153Y2193762D01*
X3008654Y2193570D01*
X3008078Y2193378D01*
X3007425Y2193186D01*
X3007348D01*
X3007118Y2193109D01*
X3006772Y2193070D01*
X3006273Y2192994D01*
X3005697Y2192917D01*
X3005006Y2192840D01*
X3004238Y2192802D01*
X3003393Y2192763D01*
X2994331D01*
Y2217992D01*
X3004008D01*
X3004660Y2217954D01*
D02*
G37*
G36*
X3033998Y2499359D02*
X3023937D01*
X3022555Y2492562D01*
X3022593Y2492601D01*
X3022670Y2492639D01*
X3022785Y2492716D01*
X3022939Y2492831D01*
X3023169Y2492946D01*
X3023399Y2493061D01*
X3024014Y2493369D01*
X3024705Y2493676D01*
X3025512Y2493906D01*
X3026395Y2494098D01*
X3027316Y2494175D01*
X3027624D01*
X3027854Y2494137D01*
X3028161Y2494098D01*
X3028468Y2494060D01*
X3028852Y2493983D01*
X3029236Y2493906D01*
X3030119Y2493599D01*
X3030580Y2493445D01*
X3031041Y2493215D01*
X3031540Y2492946D01*
X3032001Y2492639D01*
X3032462Y2492294D01*
X3032884Y2491871D01*
X3032923Y2491833D01*
X3032999Y2491756D01*
X3033115Y2491641D01*
X3033230Y2491449D01*
X3033422Y2491218D01*
X3033614Y2490950D01*
X3033806Y2490642D01*
X3034036Y2490297D01*
X3034267Y2489874D01*
X3034459Y2489452D01*
X3034651Y2488953D01*
X3034843Y2488454D01*
X3034958Y2487878D01*
X3035073Y2487302D01*
X3035150Y2486649D01*
X3035188Y2485996D01*
Y2485957D01*
Y2485842D01*
Y2485650D01*
X3035150Y2485420D01*
X3035111Y2485113D01*
X3035073Y2484767D01*
X3035035Y2484383D01*
X3034958Y2483961D01*
X3034689Y2483039D01*
X3034343Y2482079D01*
X3034113Y2481541D01*
X3033844Y2481042D01*
X3033537Y2480543D01*
X3033191Y2480082D01*
X3033153Y2480044D01*
X3033076Y2479967D01*
X3032923Y2479814D01*
X3032731Y2479622D01*
X3032500Y2479391D01*
X3032193Y2479122D01*
X3031847Y2478854D01*
X3031425Y2478585D01*
X3031003Y2478278D01*
X3030503Y2478009D01*
X3029927Y2477740D01*
X3029352Y2477510D01*
X3028699Y2477318D01*
X3028046Y2477164D01*
X3027316Y2477087D01*
X3026548Y2477049D01*
X3026203D01*
X3025972Y2477087D01*
X3025704Y2477126D01*
X3025358Y2477164D01*
X3024974Y2477202D01*
X3024552Y2477279D01*
X3023668Y2477510D01*
X3022747Y2477855D01*
X3022286Y2478086D01*
X3021825Y2478354D01*
X3021364Y2478623D01*
X3020942Y2478969D01*
X3020903Y2479007D01*
X3020865Y2479046D01*
X3020750Y2479161D01*
X3020596Y2479314D01*
X3020443Y2479506D01*
X3020251Y2479737D01*
X3020059Y2480006D01*
X3019828Y2480313D01*
X3019406Y2481042D01*
X3018983Y2481925D01*
X3018676Y2482924D01*
X3018561Y2483500D01*
X3018484Y2484076D01*
X3021748Y2484306D01*
Y2484268D01*
Y2484191D01*
X3021787Y2484076D01*
X3021825Y2483922D01*
X3021940Y2483500D01*
X3022094Y2482962D01*
X3022286Y2482386D01*
X3022593Y2481810D01*
X3022939Y2481234D01*
X3023399Y2480735D01*
X3023476Y2480697D01*
X3023630Y2480543D01*
X3023899Y2480390D01*
X3024283Y2480159D01*
X3024744Y2479967D01*
X3025281Y2479775D01*
X3025896Y2479622D01*
X3026548Y2479583D01*
X3026779D01*
X3026932Y2479622D01*
X3027355Y2479660D01*
X3027892Y2479775D01*
X3028468Y2480006D01*
X3029121Y2480274D01*
X3029735Y2480697D01*
X3030043Y2480927D01*
X3030350Y2481234D01*
Y2481273D01*
X3030427Y2481311D01*
X3030580Y2481541D01*
X3030849Y2481925D01*
X3031118Y2482425D01*
X3031387Y2483077D01*
X3031655Y2483845D01*
X3031809Y2484729D01*
X3031886Y2485727D01*
Y2485765D01*
Y2485842D01*
Y2485996D01*
X3031847Y2486149D01*
Y2486380D01*
X3031809Y2486649D01*
X3031694Y2487263D01*
X3031540Y2487916D01*
X3031271Y2488607D01*
X3030887Y2489298D01*
X3030388Y2489913D01*
X3030311Y2489990D01*
X3030119Y2490143D01*
X3029812Y2490412D01*
X3029352Y2490681D01*
X3028814Y2490950D01*
X3028123Y2491218D01*
X3027355Y2491372D01*
X3026510Y2491449D01*
X3026241D01*
X3025972Y2491410D01*
X3025588Y2491372D01*
X3025166Y2491257D01*
X3024705Y2491142D01*
X3024244Y2490950D01*
X3023784Y2490719D01*
X3023745Y2490681D01*
X3023591Y2490604D01*
X3023361Y2490450D01*
X3023092Y2490258D01*
X3022823Y2489990D01*
X3022516Y2489682D01*
X3022209Y2489337D01*
X3021940Y2488953D01*
X3019022Y2489375D01*
X3021479Y2502316D01*
X3033998D01*
Y2499359D01*
D02*
G37*
G36*
X3004660Y2502662D02*
X3005352Y2502623D01*
X3006119Y2502546D01*
X3006849Y2502431D01*
X3007463Y2502316D01*
X3007502D01*
X3007579Y2502278D01*
X3007655D01*
X3007809Y2502201D01*
X3008231Y2502086D01*
X3008731Y2501894D01*
X3009307Y2501663D01*
X3009921Y2501356D01*
X3010535Y2500972D01*
X3011150Y2500511D01*
X3011188D01*
X3011227Y2500434D01*
X3011495Y2500204D01*
X3011841Y2499820D01*
X3012264Y2499321D01*
X3012763Y2498706D01*
X3013262Y2497977D01*
X3013723Y2497132D01*
X3014145Y2496172D01*
Y2496133D01*
X3014184Y2496057D01*
X3014222Y2495903D01*
X3014299Y2495711D01*
X3014376Y2495481D01*
X3014452Y2495173D01*
X3014568Y2494828D01*
X3014644Y2494444D01*
X3014721Y2494021D01*
X3014836Y2493561D01*
X3014990Y2492562D01*
X3015105Y2491449D01*
X3015144Y2490220D01*
Y2490182D01*
Y2490105D01*
Y2489951D01*
Y2489721D01*
X3015105Y2489490D01*
Y2489183D01*
X3015067Y2488492D01*
X3014990Y2487724D01*
X3014836Y2486841D01*
X3014683Y2485957D01*
X3014452Y2485113D01*
Y2485074D01*
X3014414Y2484997D01*
X3014376Y2484882D01*
X3014337Y2484729D01*
X3014184Y2484345D01*
X3013992Y2483807D01*
X3013761Y2483231D01*
X3013454Y2482617D01*
X3013108Y2482002D01*
X3012724Y2481426D01*
X3012686Y2481349D01*
X3012532Y2481196D01*
X3012340Y2480927D01*
X3012033Y2480581D01*
X3011726Y2480236D01*
X3011303Y2479852D01*
X3010881Y2479468D01*
X3010420Y2479122D01*
X3010382Y2479084D01*
X3010190Y2479007D01*
X3009921Y2478854D01*
X3009575Y2478662D01*
X3009153Y2478470D01*
X3008654Y2478278D01*
X3008078Y2478086D01*
X3007425Y2477894D01*
X3007348D01*
X3007118Y2477817D01*
X3006772Y2477778D01*
X3006273Y2477702D01*
X3005697Y2477625D01*
X3005006Y2477548D01*
X3004238Y2477510D01*
X3003393Y2477471D01*
X2994331D01*
Y2502700D01*
X3004008D01*
X3004660Y2502662D01*
D02*
G37*
G36*
X3031502Y2628062D02*
X3034919D01*
Y2625220D01*
X3031502D01*
Y2619191D01*
X3028392D01*
Y2625220D01*
X3017448D01*
Y2628062D01*
X3028968Y2644382D01*
X3031502D01*
Y2628062D01*
D02*
G37*
G36*
X3004660Y2644382D02*
X3005352Y2644343D01*
X3006119Y2644267D01*
X3006849Y2644151D01*
X3007463Y2644036D01*
X3007502D01*
X3007579Y2643998D01*
X3007655D01*
X3007809Y2643921D01*
X3008231Y2643806D01*
X3008731Y2643614D01*
X3009307Y2643383D01*
X3009921Y2643076D01*
X3010535Y2642692D01*
X3011150Y2642231D01*
X3011188D01*
X3011227Y2642155D01*
X3011495Y2641924D01*
X3011841Y2641540D01*
X3012264Y2641041D01*
X3012763Y2640427D01*
X3013262Y2639697D01*
X3013723Y2638852D01*
X3014145Y2637892D01*
Y2637854D01*
X3014184Y2637777D01*
X3014222Y2637624D01*
X3014299Y2637432D01*
X3014376Y2637201D01*
X3014452Y2636894D01*
X3014568Y2636548D01*
X3014644Y2636164D01*
X3014721Y2635742D01*
X3014836Y2635281D01*
X3014990Y2634283D01*
X3015105Y2633169D01*
X3015144Y2631940D01*
Y2631902D01*
Y2631825D01*
Y2631671D01*
Y2631441D01*
X3015105Y2631211D01*
Y2630903D01*
X3015067Y2630212D01*
X3014990Y2629444D01*
X3014836Y2628561D01*
X3014683Y2627678D01*
X3014452Y2626833D01*
Y2626795D01*
X3014414Y2626718D01*
X3014376Y2626603D01*
X3014337Y2626449D01*
X3014184Y2626065D01*
X3013992Y2625528D01*
X3013761Y2624952D01*
X3013454Y2624337D01*
X3013108Y2623723D01*
X3012724Y2623147D01*
X3012686Y2623070D01*
X3012532Y2622916D01*
X3012340Y2622648D01*
X3012033Y2622302D01*
X3011726Y2621956D01*
X3011303Y2621572D01*
X3010881Y2621188D01*
X3010420Y2620843D01*
X3010382Y2620804D01*
X3010190Y2620727D01*
X3009921Y2620574D01*
X3009575Y2620382D01*
X3009153Y2620190D01*
X3008654Y2619998D01*
X3008078Y2619806D01*
X3007425Y2619614D01*
X3007348D01*
X3007118Y2619537D01*
X3006772Y2619499D01*
X3006273Y2619422D01*
X3005697Y2619345D01*
X3005006Y2619268D01*
X3004238Y2619230D01*
X3003393Y2619191D01*
X2994331D01*
Y2644420D01*
X3004008D01*
X3004660Y2644382D01*
D02*
G37*
G36*
X3027124Y2787062D02*
X3027624Y2786985D01*
X3028200Y2786870D01*
X3028852Y2786717D01*
X3029505Y2786486D01*
X3030158Y2786179D01*
X3030196D01*
X3030235Y2786141D01*
X3030465Y2786026D01*
X3030772Y2785834D01*
X3031156Y2785565D01*
X3031579Y2785219D01*
X3032039Y2784797D01*
X3032462Y2784298D01*
X3032846Y2783760D01*
X3032884Y2783683D01*
X3032999Y2783491D01*
X3033153Y2783184D01*
X3033307Y2782800D01*
X3033460Y2782301D01*
X3033614Y2781763D01*
X3033729Y2781187D01*
X3033767Y2780534D01*
Y2780457D01*
Y2780265D01*
X3033729Y2779958D01*
X3033652Y2779574D01*
X3033537Y2779113D01*
X3033383Y2778614D01*
X3033191Y2778077D01*
X3032884Y2777577D01*
X3032846Y2777501D01*
X3032731Y2777347D01*
X3032500Y2777117D01*
X3032231Y2776809D01*
X3031847Y2776464D01*
X3031425Y2776118D01*
X3030887Y2775734D01*
X3030273Y2775427D01*
X3030311D01*
X3030388Y2775389D01*
X3030503D01*
X3030657Y2775312D01*
X3031041Y2775197D01*
X3031540Y2774966D01*
X3032078Y2774698D01*
X3032654Y2774314D01*
X3033230Y2773853D01*
X3033729Y2773277D01*
X3033767Y2773200D01*
X3033921Y2772970D01*
X3034113Y2772624D01*
X3034382Y2772163D01*
X3034612Y2771587D01*
X3034804Y2770896D01*
X3034958Y2770090D01*
X3034996Y2769206D01*
Y2769168D01*
Y2769053D01*
Y2768899D01*
X3034958Y2768669D01*
X3034919Y2768361D01*
X3034881Y2768054D01*
X3034804Y2767670D01*
X3034689Y2767286D01*
X3034420Y2766403D01*
X3034228Y2765904D01*
X3033959Y2765443D01*
X3033691Y2764982D01*
X3033383Y2764521D01*
X3032999Y2764061D01*
X3032577Y2763600D01*
X3032539Y2763561D01*
X3032462Y2763485D01*
X3032347Y2763408D01*
X3032155Y2763254D01*
X3031924Y2763062D01*
X3031617Y2762870D01*
X3031271Y2762678D01*
X3030926Y2762486D01*
X3030503Y2762256D01*
X3030043Y2762064D01*
X3029544Y2761872D01*
X3029006Y2761680D01*
X3028430Y2761526D01*
X3027816Y2761450D01*
X3027163Y2761373D01*
X3026510Y2761334D01*
X3026203D01*
X3025972Y2761373D01*
X3025665Y2761411D01*
X3025358Y2761450D01*
X3024974Y2761488D01*
X3024590Y2761565D01*
X3023707Y2761795D01*
X3022785Y2762179D01*
X3022324Y2762371D01*
X3021902Y2762640D01*
X3021441Y2762947D01*
X3021019Y2763293D01*
X3020980Y2763331D01*
X3020942Y2763369D01*
X3020827Y2763485D01*
X3020673Y2763638D01*
X3020519Y2763869D01*
X3020327Y2764099D01*
X3020097Y2764368D01*
X3019905Y2764675D01*
X3019444Y2765443D01*
X3019060Y2766326D01*
X3018715Y2767325D01*
X3018599Y2767862D01*
X3018523Y2768438D01*
X3021633Y2768861D01*
Y2768822D01*
X3021671Y2768745D01*
Y2768592D01*
X3021748Y2768438D01*
X3021863Y2767977D01*
X3022055Y2767401D01*
X3022286Y2766787D01*
X3022593Y2766134D01*
X3022977Y2765558D01*
X3023399Y2765059D01*
X3023476Y2765021D01*
X3023630Y2764867D01*
X3023899Y2764713D01*
X3024283Y2764483D01*
X3024705Y2764291D01*
X3025243Y2764099D01*
X3025857Y2763945D01*
X3026510Y2763907D01*
X3026740D01*
X3026894Y2763945D01*
X3027278Y2763984D01*
X3027777Y2764099D01*
X3028392Y2764291D01*
X3029006Y2764521D01*
X3029620Y2764905D01*
X3030196Y2765405D01*
X3030273Y2765481D01*
X3030427Y2765673D01*
X3030657Y2765981D01*
X3030964Y2766441D01*
X3031233Y2766979D01*
X3031463Y2767632D01*
X3031617Y2768361D01*
X3031694Y2769168D01*
Y2769206D01*
Y2769245D01*
Y2769360D01*
X3031655Y2769514D01*
X3031617Y2769898D01*
X3031502Y2770397D01*
X3031348Y2770934D01*
X3031079Y2771549D01*
X3030734Y2772125D01*
X3030273Y2772662D01*
X3030196Y2772739D01*
X3030043Y2772893D01*
X3029735Y2773085D01*
X3029313Y2773354D01*
X3028814Y2773622D01*
X3028200Y2773814D01*
X3027547Y2773968D01*
X3026779Y2774045D01*
X3026433D01*
X3026164Y2774006D01*
X3025857Y2773968D01*
X3025473Y2773930D01*
X3025051Y2773853D01*
X3024590Y2773738D01*
X3024936Y2776464D01*
X3025128D01*
X3025281Y2776425D01*
X3025780D01*
X3026126Y2776464D01*
X3026625Y2776541D01*
X3027163Y2776656D01*
X3027739Y2776848D01*
X3028353Y2777078D01*
X3028968Y2777424D01*
X3029044Y2777462D01*
X3029236Y2777616D01*
X3029467Y2777885D01*
X3029774Y2778230D01*
X3030081Y2778653D01*
X3030311Y2779190D01*
X3030503Y2779843D01*
X3030580Y2780611D01*
Y2780649D01*
Y2780688D01*
Y2780880D01*
X3030503Y2781187D01*
X3030427Y2781610D01*
X3030311Y2782032D01*
X3030081Y2782493D01*
X3029812Y2782992D01*
X3029428Y2783414D01*
X3029390Y2783453D01*
X3029236Y2783606D01*
X3028968Y2783798D01*
X3028622Y2783990D01*
X3028200Y2784221D01*
X3027700Y2784374D01*
X3027124Y2784528D01*
X3026472Y2784566D01*
X3026164D01*
X3025819Y2784490D01*
X3025435Y2784413D01*
X3024936Y2784298D01*
X3024436Y2784067D01*
X3023937Y2783798D01*
X3023438Y2783414D01*
X3023399Y2783376D01*
X3023246Y2783222D01*
X3023054Y2782954D01*
X3022823Y2782570D01*
X3022555Y2782109D01*
X3022324Y2781533D01*
X3022094Y2780841D01*
X3021940Y2780035D01*
X3018830Y2780573D01*
Y2780611D01*
X3018868Y2780726D01*
X3018907Y2780880D01*
X3018945Y2781072D01*
X3019022Y2781341D01*
X3019099Y2781648D01*
X3019367Y2782339D01*
X3019675Y2783107D01*
X3020135Y2783914D01*
X3020673Y2784682D01*
X3021364Y2785373D01*
X3021403Y2785411D01*
X3021441Y2785450D01*
X3021556Y2785526D01*
X3021748Y2785642D01*
X3021940Y2785757D01*
X3022171Y2785910D01*
X3022747Y2786256D01*
X3023476Y2786563D01*
X3024360Y2786832D01*
X3025320Y2787024D01*
X3025857Y2787101D01*
X3026740D01*
X3027124Y2787062D01*
D02*
G37*
G36*
X3004660Y2786947D02*
X3005352Y2786909D01*
X3006119Y2786832D01*
X3006849Y2786717D01*
X3007463Y2786602D01*
X3007502D01*
X3007579Y2786563D01*
X3007655D01*
X3007809Y2786486D01*
X3008231Y2786371D01*
X3008731Y2786179D01*
X3009307Y2785949D01*
X3009921Y2785642D01*
X3010535Y2785258D01*
X3011150Y2784797D01*
X3011188D01*
X3011227Y2784720D01*
X3011495Y2784490D01*
X3011841Y2784106D01*
X3012264Y2783606D01*
X3012763Y2782992D01*
X3013262Y2782262D01*
X3013723Y2781418D01*
X3014145Y2780457D01*
Y2780419D01*
X3014184Y2780342D01*
X3014222Y2780189D01*
X3014299Y2779997D01*
X3014376Y2779766D01*
X3014452Y2779459D01*
X3014568Y2779113D01*
X3014644Y2778729D01*
X3014721Y2778307D01*
X3014836Y2777846D01*
X3014990Y2776848D01*
X3015105Y2775734D01*
X3015144Y2774506D01*
Y2774467D01*
Y2774390D01*
Y2774237D01*
Y2774006D01*
X3015105Y2773776D01*
Y2773469D01*
X3015067Y2772778D01*
X3014990Y2772010D01*
X3014836Y2771126D01*
X3014683Y2770243D01*
X3014452Y2769398D01*
Y2769360D01*
X3014414Y2769283D01*
X3014376Y2769168D01*
X3014337Y2769014D01*
X3014184Y2768630D01*
X3013992Y2768093D01*
X3013761Y2767517D01*
X3013454Y2766902D01*
X3013108Y2766288D01*
X3012724Y2765712D01*
X3012686Y2765635D01*
X3012532Y2765481D01*
X3012340Y2765213D01*
X3012033Y2764867D01*
X3011726Y2764521D01*
X3011303Y2764137D01*
X3010881Y2763753D01*
X3010420Y2763408D01*
X3010382Y2763369D01*
X3010190Y2763293D01*
X3009921Y2763139D01*
X3009575Y2762947D01*
X3009153Y2762755D01*
X3008654Y2762563D01*
X3008078Y2762371D01*
X3007425Y2762179D01*
X3007348D01*
X3007118Y2762102D01*
X3006772Y2762064D01*
X3006273Y2761987D01*
X3005697Y2761910D01*
X3005006Y2761834D01*
X3004238Y2761795D01*
X3003393Y2761757D01*
X2994331D01*
Y2786985D01*
X3004008D01*
X3004660Y2786947D01*
D02*
G37*
G36*
X3030158Y3045620D02*
X3027048D01*
Y3065358D01*
X3027009Y3065319D01*
X3026856Y3065166D01*
X3026587Y3064974D01*
X3026241Y3064705D01*
X3025819Y3064359D01*
X3025320Y3064014D01*
X3024744Y3063591D01*
X3024091Y3063207D01*
X3024052D01*
X3024014Y3063169D01*
X3023784Y3063015D01*
X3023438Y3062823D01*
X3023015Y3062593D01*
X3022516Y3062324D01*
X3021979Y3062093D01*
X3021403Y3061825D01*
X3020865Y3061594D01*
Y3064628D01*
X3020903D01*
X3020980Y3064666D01*
X3021134Y3064743D01*
X3021287Y3064858D01*
X3021518Y3064974D01*
X3021787Y3065089D01*
X3022401Y3065434D01*
X3023092Y3065857D01*
X3023860Y3066356D01*
X3024628Y3066932D01*
X3025358Y3067546D01*
X3025396Y3067585D01*
X3025435Y3067623D01*
X3025665Y3067854D01*
X3026011Y3068199D01*
X3026433Y3068622D01*
X3026894Y3069159D01*
X3027355Y3069735D01*
X3027777Y3070349D01*
X3028123Y3070964D01*
X3030158D01*
Y3045620D01*
D02*
G37*
G36*
X3004660Y3070810D02*
X3005352Y3070772D01*
X3006119Y3070695D01*
X3006849Y3070580D01*
X3007463Y3070465D01*
X3007502D01*
X3007579Y3070426D01*
X3007655D01*
X3007809Y3070349D01*
X3008231Y3070234D01*
X3008731Y3070042D01*
X3009307Y3069812D01*
X3009921Y3069505D01*
X3010535Y3069121D01*
X3011150Y3068660D01*
X3011188D01*
X3011227Y3068583D01*
X3011495Y3068353D01*
X3011841Y3067969D01*
X3012264Y3067470D01*
X3012763Y3066855D01*
X3013262Y3066126D01*
X3013723Y3065281D01*
X3014145Y3064321D01*
Y3064282D01*
X3014184Y3064206D01*
X3014222Y3064052D01*
X3014299Y3063860D01*
X3014376Y3063630D01*
X3014452Y3063322D01*
X3014568Y3062977D01*
X3014644Y3062593D01*
X3014721Y3062170D01*
X3014836Y3061709D01*
X3014990Y3060711D01*
X3015105Y3059597D01*
X3015144Y3058369D01*
Y3058330D01*
Y3058253D01*
Y3058100D01*
Y3057869D01*
X3015105Y3057639D01*
Y3057332D01*
X3015067Y3056641D01*
X3014990Y3055873D01*
X3014836Y3054990D01*
X3014683Y3054106D01*
X3014452Y3053262D01*
Y3053223D01*
X3014414Y3053146D01*
X3014376Y3053031D01*
X3014337Y3052878D01*
X3014184Y3052494D01*
X3013992Y3051956D01*
X3013761Y3051380D01*
X3013454Y3050765D01*
X3013108Y3050151D01*
X3012724Y3049575D01*
X3012686Y3049498D01*
X3012532Y3049345D01*
X3012340Y3049076D01*
X3012033Y3048730D01*
X3011726Y3048385D01*
X3011303Y3048001D01*
X3010881Y3047617D01*
X3010420Y3047271D01*
X3010382Y3047233D01*
X3010190Y3047156D01*
X3009921Y3047002D01*
X3009575Y3046810D01*
X3009153Y3046618D01*
X3008654Y3046426D01*
X3008078Y3046234D01*
X3007425Y3046042D01*
X3007348D01*
X3007118Y3045965D01*
X3006772Y3045927D01*
X3006273Y3045850D01*
X3005697Y3045773D01*
X3005006Y3045697D01*
X3004238Y3045658D01*
X3003393Y3045620D01*
X2994331D01*
Y3070849D01*
X3004008D01*
X3004660Y3070810D01*
D02*
G37*
G36*
X3027432Y2928783D02*
X3027739Y2928744D01*
X3028084Y2928706D01*
X3028468Y2928668D01*
X3028891Y2928552D01*
X3029812Y2928322D01*
X3030772Y2927976D01*
X3031271Y2927746D01*
X3031732Y2927477D01*
X3032155Y2927131D01*
X3032577Y2926786D01*
X3032615Y2926747D01*
X3032654Y2926709D01*
X3032769Y2926594D01*
X3032923Y2926440D01*
X3033076Y2926210D01*
X3033268Y2925979D01*
X3033652Y2925403D01*
X3034036Y2924674D01*
X3034382Y2923829D01*
X3034651Y2922869D01*
X3034689Y2922331D01*
X3034727Y2921794D01*
Y2921717D01*
Y2921525D01*
X3034689Y2921218D01*
X3034651Y2920834D01*
X3034574Y2920373D01*
X3034459Y2919874D01*
X3034305Y2919336D01*
X3034075Y2918799D01*
X3034036Y2918722D01*
X3033959Y2918530D01*
X3033806Y2918261D01*
X3033575Y2917877D01*
X3033307Y2917416D01*
X3032961Y2916879D01*
X3032500Y2916341D01*
X3032001Y2915727D01*
X3031924Y2915650D01*
X3031732Y2915419D01*
X3031387Y2915074D01*
X3031156Y2914843D01*
X3030887Y2914575D01*
X3030580Y2914267D01*
X3030196Y2913922D01*
X3029812Y2913576D01*
X3029390Y2913154D01*
X3028929Y2912731D01*
X3028392Y2912271D01*
X3027854Y2911810D01*
X3027240Y2911272D01*
X3027201Y2911234D01*
X3027124Y2911157D01*
X3026971Y2911042D01*
X3026779Y2910888D01*
X3026318Y2910504D01*
X3025742Y2910005D01*
X3025166Y2909468D01*
X3024552Y2908930D01*
X3024052Y2908469D01*
X3023860Y2908277D01*
X3023668Y2908085D01*
X3023630Y2908047D01*
X3023553Y2907932D01*
X3023399Y2907778D01*
X3023207Y2907548D01*
X3022785Y2907048D01*
X3022363Y2906434D01*
X3034766D01*
Y2903477D01*
X3018062D01*
Y2903515D01*
Y2903669D01*
Y2903899D01*
X3018100Y2904168D01*
X3018139Y2904476D01*
X3018177Y2904821D01*
X3018292Y2905205D01*
X3018407Y2905589D01*
Y2905628D01*
X3018446Y2905666D01*
X3018523Y2905896D01*
X3018676Y2906204D01*
X3018907Y2906664D01*
X3019175Y2907164D01*
X3019559Y2907740D01*
X3019943Y2908316D01*
X3020443Y2908930D01*
Y2908968D01*
X3020519Y2909007D01*
X3020711Y2909237D01*
X3021019Y2909583D01*
X3021479Y2910044D01*
X3022055Y2910581D01*
X3022747Y2911234D01*
X3023591Y2911963D01*
X3024513Y2912770D01*
X3024552Y2912808D01*
X3024705Y2912923D01*
X3024897Y2913077D01*
X3025166Y2913346D01*
X3025512Y2913615D01*
X3025896Y2913960D01*
X3026740Y2914690D01*
X3027662Y2915573D01*
X3028584Y2916456D01*
X3029044Y2916879D01*
X3029428Y2917301D01*
X3029774Y2917724D01*
X3030081Y2918108D01*
Y2918146D01*
X3030158Y2918184D01*
X3030235Y2918300D01*
X3030311Y2918453D01*
X3030542Y2918837D01*
X3030811Y2919336D01*
X3031079Y2919912D01*
X3031310Y2920527D01*
X3031463Y2921218D01*
X3031540Y2921871D01*
Y2921909D01*
Y2921948D01*
X3031502Y2922178D01*
X3031463Y2922523D01*
X3031387Y2922946D01*
X3031195Y2923445D01*
X3030964Y2923944D01*
X3030657Y2924482D01*
X3030196Y2924981D01*
X3030119Y2925019D01*
X3029966Y2925173D01*
X3029659Y2925365D01*
X3029275Y2925634D01*
X3028776Y2925864D01*
X3028200Y2926056D01*
X3027508Y2926210D01*
X3026740Y2926248D01*
X3026510D01*
X3026356Y2926210D01*
X3025972Y2926171D01*
X3025473Y2926095D01*
X3024897Y2925903D01*
X3024283Y2925672D01*
X3023707Y2925327D01*
X3023169Y2924866D01*
X3023131Y2924789D01*
X3022977Y2924635D01*
X3022747Y2924328D01*
X3022516Y2923906D01*
X3022247Y2923368D01*
X3022055Y2922754D01*
X3021902Y2922024D01*
X3021825Y2921180D01*
X3018638Y2921525D01*
Y2921564D01*
Y2921679D01*
X3018676Y2921871D01*
X3018715Y2922101D01*
X3018791Y2922408D01*
X3018830Y2922754D01*
X3019060Y2923522D01*
X3019367Y2924405D01*
X3019790Y2925288D01*
X3020366Y2926171D01*
X3020673Y2926555D01*
X3021057Y2926939D01*
X3021095Y2926978D01*
X3021172Y2927016D01*
X3021287Y2927131D01*
X3021441Y2927247D01*
X3021671Y2927362D01*
X3021940Y2927554D01*
X3022247Y2927707D01*
X3022593Y2927899D01*
X3022977Y2928053D01*
X3023399Y2928245D01*
X3023899Y2928399D01*
X3024398Y2928514D01*
X3025550Y2928744D01*
X3026164Y2928783D01*
X3026817Y2928821D01*
X3027163D01*
X3027432Y2928783D01*
D02*
G37*
G36*
X3004660Y2928668D02*
X3005352Y2928629D01*
X3006119Y2928552D01*
X3006849Y2928437D01*
X3007463Y2928322D01*
X3007502D01*
X3007579Y2928284D01*
X3007655D01*
X3007809Y2928207D01*
X3008231Y2928091D01*
X3008731Y2927899D01*
X3009307Y2927669D01*
X3009921Y2927362D01*
X3010535Y2926978D01*
X3011150Y2926517D01*
X3011188D01*
X3011227Y2926440D01*
X3011495Y2926210D01*
X3011841Y2925826D01*
X3012264Y2925327D01*
X3012763Y2924712D01*
X3013262Y2923983D01*
X3013723Y2923138D01*
X3014145Y2922178D01*
Y2922140D01*
X3014184Y2922063D01*
X3014222Y2921909D01*
X3014299Y2921717D01*
X3014376Y2921487D01*
X3014452Y2921180D01*
X3014568Y2920834D01*
X3014644Y2920450D01*
X3014721Y2920028D01*
X3014836Y2919567D01*
X3014990Y2918568D01*
X3015105Y2917455D01*
X3015144Y2916226D01*
Y2916188D01*
Y2916111D01*
Y2915957D01*
Y2915727D01*
X3015105Y2915496D01*
Y2915189D01*
X3015067Y2914498D01*
X3014990Y2913730D01*
X3014836Y2912847D01*
X3014683Y2911963D01*
X3014452Y2911119D01*
Y2911080D01*
X3014414Y2911003D01*
X3014376Y2910888D01*
X3014337Y2910735D01*
X3014184Y2910351D01*
X3013992Y2909813D01*
X3013761Y2909237D01*
X3013454Y2908623D01*
X3013108Y2908008D01*
X3012724Y2907432D01*
X3012686Y2907356D01*
X3012532Y2907202D01*
X3012340Y2906933D01*
X3012033Y2906588D01*
X3011726Y2906242D01*
X3011303Y2905858D01*
X3010881Y2905474D01*
X3010420Y2905128D01*
X3010382Y2905090D01*
X3010190Y2905013D01*
X3009921Y2904860D01*
X3009575Y2904668D01*
X3009153Y2904476D01*
X3008654Y2904284D01*
X3008078Y2904091D01*
X3007425Y2903899D01*
X3007348D01*
X3007118Y2903823D01*
X3006772Y2903784D01*
X3006273Y2903707D01*
X3005697Y2903631D01*
X3005006Y2903554D01*
X3004238Y2903515D01*
X3003393Y2903477D01*
X2994331D01*
Y2928706D01*
X3004008D01*
X3004660Y2928668D01*
D02*
G37*
G36*
Y2076233D02*
X3005352Y2076195D01*
X3006119Y2076118D01*
X3006849Y2076003D01*
X3007463Y2075887D01*
X3007502D01*
X3007579Y2075849D01*
X3007655D01*
X3007809Y2075772D01*
X3008231Y2075657D01*
X3008731Y2075465D01*
X3009307Y2075235D01*
X3009921Y2074927D01*
X3010535Y2074544D01*
X3011150Y2074083D01*
X3011188D01*
X3011227Y2074006D01*
X3011495Y2073776D01*
X3011841Y2073392D01*
X3012264Y2072892D01*
X3012763Y2072278D01*
X3013262Y2071548D01*
X3013723Y2070704D01*
X3014145Y2069744D01*
Y2069705D01*
X3014184Y2069628D01*
X3014222Y2069475D01*
X3014299Y2069283D01*
X3014376Y2069052D01*
X3014452Y2068745D01*
X3014568Y2068399D01*
X3014644Y2068015D01*
X3014721Y2067593D01*
X3014836Y2067132D01*
X3014990Y2066134D01*
X3015105Y2065020D01*
X3015144Y2063791D01*
Y2063753D01*
Y2063676D01*
Y2063523D01*
Y2063292D01*
X3015105Y2063062D01*
Y2062755D01*
X3015067Y2062064D01*
X3014990Y2061296D01*
X3014836Y2060412D01*
X3014683Y2059529D01*
X3014452Y2058684D01*
Y2058646D01*
X3014414Y2058569D01*
X3014376Y2058454D01*
X3014337Y2058300D01*
X3014184Y2057916D01*
X3013992Y2057379D01*
X3013761Y2056803D01*
X3013454Y2056188D01*
X3013108Y2055574D01*
X3012724Y2054998D01*
X3012686Y2054921D01*
X3012532Y2054767D01*
X3012340Y2054499D01*
X3012033Y2054153D01*
X3011726Y2053807D01*
X3011303Y2053423D01*
X3010881Y2053039D01*
X3010420Y2052694D01*
X3010382Y2052655D01*
X3010190Y2052579D01*
X3009921Y2052425D01*
X3009575Y2052233D01*
X3009153Y2052041D01*
X3008654Y2051849D01*
X3008078Y2051657D01*
X3007425Y2051465D01*
X3007348D01*
X3007118Y2051388D01*
X3006772Y2051350D01*
X3006273Y2051273D01*
X3005697Y2051196D01*
X3005006Y2051119D01*
X3004238Y2051081D01*
X3003393Y2051043D01*
X2994331D01*
Y2076271D01*
X3004008D01*
X3004660Y2076233D01*
D02*
G37*
G36*
X3027201Y2076348D02*
X3027508D01*
X3027816Y2076271D01*
X3028584Y2076156D01*
X3029428Y2075926D01*
X3030311Y2075580D01*
X3030772Y2075350D01*
X3031195Y2075119D01*
X3031617Y2074812D01*
X3032001Y2074467D01*
X3032039Y2074428D01*
X3032078Y2074390D01*
X3032193Y2074275D01*
X3032308Y2074121D01*
X3032462Y2073929D01*
X3032654Y2073699D01*
X3033038Y2073161D01*
X3033383Y2072470D01*
X3033729Y2071664D01*
X3033959Y2070780D01*
X3033998Y2070281D01*
X3034036Y2069782D01*
Y2069705D01*
Y2069475D01*
X3033998Y2069168D01*
X3033921Y2068745D01*
X3033806Y2068246D01*
X3033652Y2067747D01*
X3033422Y2067209D01*
X3033115Y2066710D01*
X3033076Y2066671D01*
X3032961Y2066518D01*
X3032731Y2066287D01*
X3032423Y2065980D01*
X3032039Y2065673D01*
X3031540Y2065366D01*
X3030964Y2065020D01*
X3030311Y2064751D01*
X3030350D01*
X3030427Y2064713D01*
X3030542Y2064675D01*
X3030695Y2064598D01*
X3031118Y2064406D01*
X3031617Y2064175D01*
X3032193Y2063830D01*
X3032769Y2063407D01*
X3033345Y2062870D01*
X3033844Y2062294D01*
X3033883Y2062217D01*
X3034036Y2061987D01*
X3034228Y2061641D01*
X3034459Y2061142D01*
X3034689Y2060566D01*
X3034881Y2059875D01*
X3035035Y2059107D01*
X3035073Y2058262D01*
Y2058224D01*
Y2058108D01*
Y2057955D01*
X3035035Y2057724D01*
X3034996Y2057456D01*
X3034958Y2057110D01*
X3034804Y2056342D01*
X3034497Y2055497D01*
X3034343Y2055036D01*
X3034113Y2054575D01*
X3033844Y2054115D01*
X3033537Y2053654D01*
X3033191Y2053231D01*
X3032769Y2052809D01*
X3032731Y2052771D01*
X3032654Y2052732D01*
X3032539Y2052617D01*
X3032347Y2052463D01*
X3032116Y2052310D01*
X3031847Y2052118D01*
X3031540Y2051926D01*
X3031156Y2051734D01*
X3030734Y2051503D01*
X3030273Y2051311D01*
X3029774Y2051119D01*
X3029236Y2050966D01*
X3028699Y2050812D01*
X3028084Y2050697D01*
X3027432Y2050659D01*
X3026740Y2050620D01*
X3026395D01*
X3026126Y2050659D01*
X3025819Y2050697D01*
X3025435Y2050735D01*
X3025051Y2050812D01*
X3024590Y2050889D01*
X3023630Y2051158D01*
X3023131Y2051350D01*
X3022631Y2051542D01*
X3022132Y2051811D01*
X3021633Y2052079D01*
X3021172Y2052425D01*
X3020711Y2052809D01*
X3020673Y2052847D01*
X3020596Y2052924D01*
X3020519Y2053039D01*
X3020366Y2053193D01*
X3020174Y2053423D01*
X3019982Y2053692D01*
X3019790Y2053999D01*
X3019598Y2054345D01*
X3019367Y2054729D01*
X3019175Y2055151D01*
X3018791Y2056073D01*
X3018638Y2056611D01*
X3018561Y2057148D01*
X3018484Y2057724D01*
X3018446Y2058339D01*
Y2058377D01*
Y2058454D01*
Y2058569D01*
X3018484Y2058761D01*
Y2058953D01*
X3018523Y2059222D01*
X3018599Y2059760D01*
X3018753Y2060412D01*
X3018983Y2061104D01*
X3019252Y2061795D01*
X3019675Y2062448D01*
Y2062486D01*
X3019751Y2062524D01*
X3019905Y2062716D01*
X3020212Y2063023D01*
X3020596Y2063369D01*
X3021095Y2063753D01*
X3021710Y2064137D01*
X3022439Y2064483D01*
X3023246Y2064751D01*
X3023207D01*
X3023169Y2064790D01*
X3022939Y2064867D01*
X3022593Y2065059D01*
X3022171Y2065251D01*
X3021671Y2065558D01*
X3021211Y2065903D01*
X3020750Y2066287D01*
X3020366Y2066748D01*
X3020327Y2066825D01*
X3020212Y2066979D01*
X3020059Y2067247D01*
X3019905Y2067631D01*
X3019751Y2068092D01*
X3019598Y2068630D01*
X3019483Y2069206D01*
X3019444Y2069859D01*
Y2069897D01*
Y2069974D01*
Y2070128D01*
X3019483Y2070320D01*
X3019521Y2070550D01*
X3019559Y2070819D01*
X3019675Y2071472D01*
X3019905Y2072201D01*
X3020289Y2072969D01*
X3020481Y2073392D01*
X3020750Y2073776D01*
X3021057Y2074160D01*
X3021403Y2074505D01*
X3021441Y2074544D01*
X3021479Y2074582D01*
X3021595Y2074697D01*
X3021748Y2074812D01*
X3021979Y2074927D01*
X3022209Y2075119D01*
X3022478Y2075273D01*
X3022823Y2075465D01*
X3023553Y2075811D01*
X3024475Y2076079D01*
X3025512Y2076310D01*
X3026049Y2076348D01*
X3026664Y2076387D01*
X3026971D01*
X3027201Y2076348D01*
D02*
G37*
G36*
X4763358Y2624219D02*
X4743620D01*
X4743658Y2624181D01*
X4743812Y2624027D01*
X4744004Y2623759D01*
X4744273Y2623413D01*
X4744618Y2622991D01*
X4744964Y2622491D01*
X4745386Y2621915D01*
X4745770Y2621263D01*
Y2621224D01*
X4745809Y2621186D01*
X4745962Y2620955D01*
X4746154Y2620610D01*
X4746385Y2620187D01*
X4746654Y2619688D01*
X4746884Y2619151D01*
X4747153Y2618575D01*
X4747383Y2618037D01*
X4744350D01*
Y2618075D01*
X4744311Y2618152D01*
X4744234Y2618306D01*
X4744119Y2618459D01*
X4744004Y2618690D01*
X4743889Y2618959D01*
X4743543Y2619573D01*
X4743121Y2620264D01*
X4742622Y2621032D01*
X4742046Y2621800D01*
X4741431Y2622530D01*
X4741393Y2622568D01*
X4741354Y2622607D01*
X4741124Y2622837D01*
X4740778Y2623183D01*
X4740356Y2623605D01*
X4739818Y2624066D01*
X4739242Y2624527D01*
X4738628Y2624949D01*
X4738014Y2625295D01*
Y2627330D01*
X4763358D01*
Y2624219D01*
D02*
G37*
G36*
Y2606901D02*
Y2603637D01*
X4744158Y2598338D01*
X4744119D01*
X4744042Y2598299D01*
X4743927Y2598261D01*
X4743774Y2598223D01*
X4743351Y2598107D01*
X4742890Y2597992D01*
X4742353Y2597839D01*
X4741892Y2597723D01*
X4741470Y2597608D01*
X4741316Y2597570D01*
X4741201Y2597531D01*
X4741278D01*
X4741470Y2597455D01*
X4741815Y2597378D01*
X4742199Y2597263D01*
X4742698Y2597147D01*
X4743159Y2597032D01*
X4743658Y2596879D01*
X4744158Y2596763D01*
X4763358Y2591464D01*
Y2587970D01*
X4738129Y2581365D01*
Y2584783D01*
X4754718Y2588584D01*
X4754756D01*
X4754833Y2588623D01*
X4754986Y2588661D01*
X4755140Y2588699D01*
X4755409Y2588738D01*
X4755678Y2588815D01*
X4756330Y2588968D01*
X4757098Y2589122D01*
X4757982Y2589314D01*
X4758903Y2589467D01*
X4759863Y2589659D01*
X4759825D01*
X4759671Y2589698D01*
X4759479Y2589736D01*
X4759210Y2589813D01*
X4758903Y2589890D01*
X4758558Y2589967D01*
X4757751Y2590197D01*
X4756945Y2590389D01*
X4756177Y2590581D01*
X4755870Y2590658D01*
X4755562Y2590735D01*
X4755332Y2590773D01*
X4755178Y2590811D01*
X4738129Y2595611D01*
Y2599643D01*
X4750916Y2603253D01*
X4750954D01*
X4751146Y2603330D01*
X4751377Y2603368D01*
X4751722Y2603483D01*
X4752145Y2603560D01*
X4752644Y2603714D01*
X4753220Y2603829D01*
X4753834Y2603983D01*
X4754487Y2604136D01*
X4755178Y2604290D01*
X4756714Y2604635D01*
X4758289Y2604943D01*
X4759863Y2605211D01*
X4759825D01*
X4759748Y2605250D01*
X4759633D01*
X4759441Y2605288D01*
X4759210Y2605365D01*
X4758942Y2605403D01*
X4758634Y2605480D01*
X4758289Y2605557D01*
X4757482Y2605749D01*
X4756522Y2605941D01*
X4755486Y2606210D01*
X4754372Y2606479D01*
X4738129Y2610395D01*
Y2613775D01*
X4763358Y2606901D01*
D02*
G37*
G36*
X4756983Y2579023D02*
X4757482Y2578946D01*
X4758058Y2578831D01*
X4758711Y2578600D01*
X4759402Y2578331D01*
X4760055Y2577947D01*
X4760132Y2577909D01*
X4760362Y2577717D01*
X4760670Y2577487D01*
X4761054Y2577103D01*
X4761514Y2576642D01*
X4761975Y2576066D01*
X4762398Y2575375D01*
X4762820Y2574607D01*
Y2574568D01*
X4762858Y2574491D01*
X4762897Y2574376D01*
X4762974Y2574223D01*
X4763050Y2574031D01*
X4763127Y2573800D01*
X4763281Y2573186D01*
X4763473Y2572495D01*
X4763626Y2571650D01*
X4763742Y2570767D01*
X4763780Y2569768D01*
Y2569192D01*
X4763742Y2568923D01*
Y2568578D01*
X4763703Y2568194D01*
X4763665Y2567771D01*
X4763550Y2566888D01*
X4763358Y2565928D01*
X4763127Y2564968D01*
X4762820Y2564047D01*
Y2564008D01*
X4762782Y2563931D01*
X4762705Y2563816D01*
X4762628Y2563663D01*
X4762398Y2563240D01*
X4762052Y2562741D01*
X4761630Y2562127D01*
X4761130Y2561551D01*
X4760516Y2560936D01*
X4759825Y2560399D01*
X4759786D01*
X4759748Y2560360D01*
X4759633Y2560283D01*
X4759479Y2560207D01*
X4759287Y2560091D01*
X4759057Y2559976D01*
X4758481Y2559746D01*
X4757828Y2559515D01*
X4757022Y2559285D01*
X4756177Y2559131D01*
X4755255Y2559055D01*
X4754986Y2562203D01*
X4755025D01*
X4755063D01*
X4755294Y2562242D01*
X4755639Y2562319D01*
X4756100Y2562395D01*
X4756599Y2562549D01*
X4757137Y2562703D01*
X4757636Y2562933D01*
X4758135Y2563202D01*
X4758174Y2563240D01*
X4758327Y2563355D01*
X4758558Y2563547D01*
X4758826Y2563855D01*
X4759134Y2564200D01*
X4759479Y2564623D01*
X4759786Y2565160D01*
X4760094Y2565736D01*
Y2565775D01*
X4760132Y2565813D01*
X4760209Y2566043D01*
X4760324Y2566389D01*
X4760439Y2566888D01*
X4760593Y2567426D01*
X4760708Y2568117D01*
X4760785Y2568847D01*
X4760823Y2569615D01*
Y2569922D01*
X4760785Y2570306D01*
X4760746Y2570728D01*
X4760708Y2571266D01*
X4760593Y2571803D01*
X4760478Y2572379D01*
X4760286Y2572955D01*
X4760247Y2573032D01*
X4760170Y2573186D01*
X4760055Y2573455D01*
X4759863Y2573762D01*
X4759633Y2574146D01*
X4759364Y2574491D01*
X4759057Y2574837D01*
X4758711Y2575144D01*
X4758673Y2575183D01*
X4758519Y2575259D01*
X4758327Y2575375D01*
X4758058Y2575528D01*
X4757751Y2575643D01*
X4757367Y2575759D01*
X4756983Y2575835D01*
X4756561Y2575874D01*
X4756522D01*
X4756369D01*
X4756138Y2575835D01*
X4755870Y2575797D01*
X4755524Y2575720D01*
X4755178Y2575567D01*
X4754833Y2575413D01*
X4754487Y2575183D01*
X4754449Y2575144D01*
X4754334Y2575067D01*
X4754180Y2574875D01*
X4753950Y2574645D01*
X4753719Y2574338D01*
X4753489Y2573954D01*
X4753220Y2573455D01*
X4752990Y2572917D01*
X4752951Y2572879D01*
X4752913Y2572725D01*
X4752836Y2572418D01*
X4752759Y2572226D01*
X4752682Y2571995D01*
X4752606Y2571688D01*
X4752529Y2571381D01*
X4752414Y2570997D01*
X4752298Y2570613D01*
X4752183Y2570152D01*
X4752068Y2569615D01*
X4751914Y2569039D01*
X4751761Y2568424D01*
Y2568386D01*
X4751722Y2568271D01*
X4751684Y2568079D01*
X4751607Y2567848D01*
X4751530Y2567579D01*
X4751454Y2567272D01*
X4751262Y2566543D01*
X4750993Y2565736D01*
X4750724Y2564930D01*
X4750455Y2564200D01*
X4750340Y2563855D01*
X4750186Y2563586D01*
Y2563547D01*
X4750148Y2563509D01*
X4749994Y2563279D01*
X4749802Y2562971D01*
X4749534Y2562587D01*
X4749188Y2562127D01*
X4748804Y2561704D01*
X4748343Y2561282D01*
X4747844Y2560898D01*
X4747767Y2560859D01*
X4747575Y2560744D01*
X4747306Y2560629D01*
X4746922Y2560475D01*
X4746462Y2560283D01*
X4745924Y2560168D01*
X4745310Y2560053D01*
X4744695Y2560015D01*
X4744657D01*
X4744618D01*
X4744503D01*
X4744350D01*
X4744004Y2560091D01*
X4743543Y2560168D01*
X4742967Y2560283D01*
X4742391Y2560475D01*
X4741738Y2560744D01*
X4741124Y2561090D01*
X4741086D01*
X4741047Y2561128D01*
X4740855Y2561282D01*
X4740548Y2561551D01*
X4740164Y2561896D01*
X4739780Y2562319D01*
X4739358Y2562856D01*
X4738935Y2563509D01*
X4738590Y2564239D01*
Y2564277D01*
X4738551Y2564315D01*
X4738513Y2564431D01*
X4738436Y2564623D01*
X4738398Y2564815D01*
X4738321Y2565045D01*
X4738129Y2565583D01*
X4737975Y2566274D01*
X4737860Y2567042D01*
X4737745Y2567925D01*
X4737706Y2568847D01*
Y2569307D01*
X4737745Y2569576D01*
Y2569845D01*
X4737822Y2570498D01*
X4737937Y2571266D01*
X4738090Y2572111D01*
X4738321Y2572955D01*
X4738628Y2573762D01*
Y2573800D01*
X4738666Y2573839D01*
X4738705Y2573954D01*
X4738782Y2574107D01*
X4739012Y2574491D01*
X4739281Y2574991D01*
X4739665Y2575528D01*
X4740126Y2576066D01*
X4740663Y2576603D01*
X4741278Y2577064D01*
X4741354Y2577103D01*
X4741585Y2577256D01*
X4741969Y2577448D01*
X4742430Y2577640D01*
X4743006Y2577871D01*
X4743697Y2578101D01*
X4744426Y2578255D01*
X4745233Y2578331D01*
X4745463Y2575144D01*
X4745425D01*
X4745348D01*
X4745233Y2575106D01*
X4745079Y2575067D01*
X4744657Y2574991D01*
X4744119Y2574837D01*
X4743543Y2574607D01*
X4742967Y2574299D01*
X4742391Y2573877D01*
X4741892Y2573378D01*
X4741854Y2573301D01*
X4741700Y2573109D01*
X4741508Y2572763D01*
X4741278Y2572303D01*
X4741047Y2571688D01*
X4740855Y2570920D01*
X4740702Y2570037D01*
X4740663Y2569000D01*
Y2568501D01*
X4740702Y2568271D01*
Y2567963D01*
X4740817Y2567311D01*
X4740932Y2566581D01*
X4741124Y2565851D01*
X4741393Y2565160D01*
X4741585Y2564853D01*
X4741777Y2564584D01*
X4741815Y2564546D01*
X4741969Y2564392D01*
X4742199Y2564162D01*
X4742545Y2563931D01*
X4742929Y2563663D01*
X4743390Y2563471D01*
X4743889Y2563317D01*
X4744465Y2563240D01*
X4744542D01*
X4744695D01*
X4744964Y2563279D01*
X4745271Y2563355D01*
X4745617Y2563471D01*
X4746001Y2563663D01*
X4746346Y2563893D01*
X4746692Y2564200D01*
X4746730Y2564239D01*
X4746846Y2564431D01*
X4746922Y2564546D01*
X4747038Y2564699D01*
X4747114Y2564930D01*
X4747230Y2565199D01*
X4747383Y2565506D01*
X4747537Y2565851D01*
X4747652Y2566235D01*
X4747806Y2566696D01*
X4747998Y2567234D01*
X4748151Y2567810D01*
X4748305Y2568463D01*
X4748497Y2569192D01*
Y2569231D01*
X4748535Y2569384D01*
X4748574Y2569576D01*
X4748650Y2569845D01*
X4748727Y2570191D01*
X4748842Y2570575D01*
X4749034Y2571419D01*
X4749303Y2572341D01*
X4749572Y2573263D01*
X4749687Y2573723D01*
X4749841Y2574107D01*
X4749994Y2574491D01*
X4750110Y2574799D01*
Y2574837D01*
X4750148Y2574914D01*
X4750225Y2574991D01*
X4750302Y2575144D01*
X4750532Y2575528D01*
X4750801Y2576027D01*
X4751185Y2576565D01*
X4751646Y2577103D01*
X4752145Y2577602D01*
X4752682Y2578024D01*
X4752759Y2578063D01*
X4752951Y2578178D01*
X4753258Y2578370D01*
X4753719Y2578562D01*
X4754218Y2578754D01*
X4754833Y2578946D01*
X4755524Y2579061D01*
X4756254Y2579099D01*
X4756292D01*
X4756330D01*
X4756446D01*
X4756599D01*
X4756983Y2579023D01*
D02*
G37*
G36*
X4305075Y2860373D02*
X4305306D01*
X4305613Y2860334D01*
X4306304Y2860219D01*
X4307072Y2859989D01*
X4307878Y2859682D01*
X4308685Y2859298D01*
X4309069Y2859029D01*
X4309453Y2858722D01*
X4309491D01*
X4309530Y2858645D01*
X4309760Y2858414D01*
X4310067Y2858030D01*
X4310451Y2857531D01*
X4310874Y2856878D01*
X4311219Y2856110D01*
X4311565Y2855189D01*
X4311757Y2854152D01*
X4308685Y2853922D01*
Y2853960D01*
Y2853998D01*
X4308608Y2854229D01*
X4308493Y2854536D01*
X4308378Y2854920D01*
X4307994Y2855803D01*
X4307763Y2856187D01*
X4307494Y2856533D01*
X4307456Y2856610D01*
X4307264Y2856763D01*
X4306995Y2856955D01*
X4306650Y2857224D01*
X4306189Y2857454D01*
X4305651Y2857685D01*
X4305037Y2857838D01*
X4304384Y2857877D01*
X4304115D01*
X4303846Y2857838D01*
X4303501Y2857762D01*
X4303078Y2857685D01*
X4302618Y2857531D01*
X4302195Y2857301D01*
X4301734Y2857032D01*
X4301658Y2856994D01*
X4301504Y2856840D01*
X4301235Y2856571D01*
X4300928Y2856226D01*
X4300544Y2855803D01*
X4300160Y2855266D01*
X4299776Y2854613D01*
X4299430Y2853883D01*
Y2853845D01*
X4299392Y2853806D01*
X4299354Y2853653D01*
X4299315Y2853499D01*
X4299238Y2853307D01*
X4299162Y2853038D01*
X4299085Y2852731D01*
X4299008Y2852386D01*
X4298931Y2852002D01*
X4298854Y2851579D01*
X4298778Y2851080D01*
X4298701Y2850581D01*
X4298662Y2850005D01*
X4298624Y2849390D01*
X4298586Y2848738D01*
Y2848085D01*
X4298624Y2848123D01*
X4298778Y2848315D01*
X4299008Y2848622D01*
X4299354Y2849006D01*
X4299738Y2849429D01*
X4300198Y2849851D01*
X4300736Y2850235D01*
X4301312Y2850581D01*
X4301389Y2850619D01*
X4301581Y2850696D01*
X4301926Y2850850D01*
X4302349Y2851003D01*
X4302848Y2851157D01*
X4303424Y2851310D01*
X4304038Y2851387D01*
X4304691Y2851426D01*
X4304998D01*
X4305229Y2851387D01*
X4305498Y2851349D01*
X4305805Y2851310D01*
X4306534Y2851157D01*
X4307341Y2850850D01*
X4307802Y2850696D01*
X4308224Y2850466D01*
X4308685Y2850197D01*
X4309146Y2849890D01*
X4309568Y2849544D01*
X4309990Y2849122D01*
X4310029Y2849083D01*
X4310067Y2849006D01*
X4310182Y2848891D01*
X4310336Y2848699D01*
X4310490Y2848469D01*
X4310682Y2848200D01*
X4310874Y2847893D01*
X4311104Y2847547D01*
X4311296Y2847125D01*
X4311488Y2846702D01*
X4311680Y2846203D01*
X4311834Y2845704D01*
X4311987Y2845128D01*
X4312102Y2844552D01*
X4312141Y2843899D01*
X4312179Y2843246D01*
Y2843208D01*
Y2843131D01*
Y2843016D01*
Y2842862D01*
X4312141Y2842632D01*
Y2842402D01*
X4312064Y2841787D01*
X4311910Y2841134D01*
X4311757Y2840366D01*
X4311488Y2839598D01*
X4311142Y2838830D01*
Y2838792D01*
X4311104Y2838754D01*
X4311027Y2838638D01*
X4310950Y2838485D01*
X4310720Y2838139D01*
X4310413Y2837678D01*
X4309990Y2837179D01*
X4309491Y2836680D01*
X4308954Y2836181D01*
X4308301Y2835720D01*
X4308224Y2835682D01*
X4307994Y2835566D01*
X4307610Y2835374D01*
X4307149Y2835182D01*
X4306534Y2834990D01*
X4305843Y2834798D01*
X4305075Y2834683D01*
X4304269Y2834645D01*
X4304115D01*
X4303885Y2834683D01*
X4303616D01*
X4303309Y2834722D01*
X4302925Y2834798D01*
X4302502Y2834875D01*
X4302042Y2834990D01*
X4301542Y2835144D01*
X4301005Y2835336D01*
X4300506Y2835566D01*
X4299968Y2835835D01*
X4299430Y2836181D01*
X4298893Y2836565D01*
X4298394Y2836987D01*
X4297933Y2837486D01*
X4297894Y2837525D01*
X4297818Y2837640D01*
X4297702Y2837794D01*
X4297549Y2838024D01*
X4297357Y2838331D01*
X4297165Y2838715D01*
X4296934Y2839176D01*
X4296742Y2839714D01*
X4296512Y2840328D01*
X4296282Y2841019D01*
X4296090Y2841787D01*
X4295898Y2842632D01*
X4295744Y2843554D01*
X4295629Y2844590D01*
X4295552Y2845666D01*
X4295514Y2846856D01*
Y2846894D01*
Y2846933D01*
Y2847048D01*
Y2847163D01*
Y2847547D01*
X4295552Y2848046D01*
X4295590Y2848661D01*
X4295667Y2849352D01*
X4295744Y2850120D01*
X4295859Y2850926D01*
X4295974Y2851810D01*
X4296166Y2852693D01*
X4296397Y2853576D01*
X4296666Y2854421D01*
X4296973Y2855304D01*
X4297318Y2856072D01*
X4297741Y2856840D01*
X4298202Y2857493D01*
X4298240Y2857531D01*
X4298317Y2857608D01*
X4298432Y2857762D01*
X4298624Y2857954D01*
X4298893Y2858184D01*
X4299162Y2858414D01*
X4299507Y2858683D01*
X4299891Y2858952D01*
X4300314Y2859221D01*
X4300813Y2859490D01*
X4301312Y2859720D01*
X4301888Y2859950D01*
X4302502Y2860142D01*
X4303155Y2860296D01*
X4303846Y2860373D01*
X4304576Y2860411D01*
X4304845D01*
X4305075Y2860373D01*
D02*
G37*
G36*
X4287757Y2835067D02*
X4284646D01*
Y2854805D01*
X4284608Y2854766D01*
X4284454Y2854613D01*
X4284186Y2854421D01*
X4283840Y2854152D01*
X4283418Y2853806D01*
X4282918Y2853461D01*
X4282342Y2853038D01*
X4281690Y2852654D01*
X4281651D01*
X4281613Y2852616D01*
X4281382Y2852462D01*
X4281037Y2852270D01*
X4280614Y2852040D01*
X4280115Y2851771D01*
X4279578Y2851541D01*
X4279002Y2851272D01*
X4278464Y2851042D01*
Y2854075D01*
X4278502D01*
X4278579Y2854114D01*
X4278733Y2854190D01*
X4278886Y2854306D01*
X4279117Y2854421D01*
X4279386Y2854536D01*
X4280000Y2854882D01*
X4280691Y2855304D01*
X4281459Y2855803D01*
X4282227Y2856379D01*
X4282957Y2856994D01*
X4282995Y2857032D01*
X4283034Y2857070D01*
X4283264Y2857301D01*
X4283610Y2857646D01*
X4284032Y2858069D01*
X4284493Y2858606D01*
X4284954Y2859182D01*
X4285376Y2859797D01*
X4285722Y2860411D01*
X4287757D01*
Y2835067D01*
D02*
G37*
G36*
X4263987Y2860258D02*
X4264294D01*
X4265062Y2860219D01*
X4265869Y2860142D01*
X4266714Y2859989D01*
X4267520Y2859835D01*
X4267904Y2859720D01*
X4268250Y2859605D01*
X4268288D01*
X4268326Y2859566D01*
X4268557Y2859490D01*
X4268864Y2859298D01*
X4269248Y2859029D01*
X4269709Y2858722D01*
X4270170Y2858299D01*
X4270630Y2857800D01*
X4271053Y2857186D01*
X4271091Y2857109D01*
X4271206Y2856878D01*
X4271398Y2856533D01*
X4271590Y2856072D01*
X4271782Y2855496D01*
X4271974Y2854843D01*
X4272090Y2854152D01*
X4272128Y2853384D01*
Y2853346D01*
Y2853269D01*
Y2853115D01*
X4272090Y2852923D01*
Y2852693D01*
X4272051Y2852424D01*
X4271898Y2851810D01*
X4271706Y2851080D01*
X4271398Y2850350D01*
X4270938Y2849582D01*
X4270669Y2849198D01*
X4270362Y2848853D01*
X4270285Y2848776D01*
X4270170Y2848699D01*
X4270054Y2848546D01*
X4269862Y2848430D01*
X4269632Y2848238D01*
X4269363Y2848085D01*
X4269056Y2847893D01*
X4268710Y2847701D01*
X4268288Y2847509D01*
X4267866Y2847317D01*
X4267366Y2847125D01*
X4266867Y2846933D01*
X4266291Y2846779D01*
X4265677Y2846664D01*
X4265024Y2846549D01*
X4265101Y2846510D01*
X4265254Y2846434D01*
X4265485Y2846318D01*
X4265754Y2846165D01*
X4266406Y2845742D01*
X4266752Y2845512D01*
X4267021Y2845282D01*
X4267098Y2845205D01*
X4267290Y2845051D01*
X4267558Y2844744D01*
X4267904Y2844360D01*
X4268326Y2843861D01*
X4268787Y2843285D01*
X4269286Y2842632D01*
X4269786Y2841902D01*
X4274163Y2835067D01*
X4269978D01*
X4266637Y2840290D01*
Y2840328D01*
X4266560Y2840405D01*
X4266483Y2840520D01*
X4266406Y2840674D01*
X4266138Y2841058D01*
X4265792Y2841557D01*
X4265408Y2842133D01*
X4264986Y2842709D01*
X4264602Y2843246D01*
X4264218Y2843746D01*
X4264179Y2843784D01*
X4264064Y2843938D01*
X4263872Y2844168D01*
X4263680Y2844437D01*
X4263104Y2844974D01*
X4262835Y2845243D01*
X4262528Y2845435D01*
X4262490Y2845474D01*
X4262413Y2845512D01*
X4262259Y2845589D01*
X4262067Y2845704D01*
X4261606Y2845934D01*
X4261030Y2846126D01*
X4260992D01*
X4260915Y2846165D01*
X4260762D01*
X4260570Y2846203D01*
X4260301Y2846242D01*
X4259994D01*
X4259610Y2846280D01*
X4255309D01*
Y2835067D01*
X4251968D01*
Y2860296D01*
X4263680D01*
X4263987Y2860258D01*
D02*
G37*
G36*
X4311181Y2755718D02*
X4301120D01*
X4299738Y2748921D01*
X4299776Y2748959D01*
X4299853Y2748998D01*
X4299968Y2749075D01*
X4300122Y2749190D01*
X4300352Y2749305D01*
X4300582Y2749420D01*
X4301197Y2749727D01*
X4301888Y2750035D01*
X4302694Y2750265D01*
X4303578Y2750457D01*
X4304499Y2750534D01*
X4304806D01*
X4305037Y2750495D01*
X4305344Y2750457D01*
X4305651Y2750419D01*
X4306035Y2750342D01*
X4306419Y2750265D01*
X4307302Y2749958D01*
X4307763Y2749804D01*
X4308224Y2749574D01*
X4308723Y2749305D01*
X4309184Y2748998D01*
X4309645Y2748652D01*
X4310067Y2748230D01*
X4310106Y2748191D01*
X4310182Y2748115D01*
X4310298Y2747999D01*
X4310413Y2747807D01*
X4310605Y2747577D01*
X4310797Y2747308D01*
X4310989Y2747001D01*
X4311219Y2746655D01*
X4311450Y2746233D01*
X4311642Y2745811D01*
X4311834Y2745311D01*
X4312026Y2744812D01*
X4312141Y2744236D01*
X4312256Y2743660D01*
X4312333Y2743008D01*
X4312371Y2742355D01*
Y2742316D01*
Y2742201D01*
Y2742009D01*
X4312333Y2741779D01*
X4312294Y2741472D01*
X4312256Y2741126D01*
X4312218Y2740742D01*
X4312141Y2740320D01*
X4311872Y2739398D01*
X4311526Y2738438D01*
X4311296Y2737900D01*
X4311027Y2737401D01*
X4310720Y2736902D01*
X4310374Y2736441D01*
X4310336Y2736403D01*
X4310259Y2736326D01*
X4310106Y2736172D01*
X4309914Y2735980D01*
X4309683Y2735750D01*
X4309376Y2735481D01*
X4309030Y2735212D01*
X4308608Y2734943D01*
X4308186Y2734636D01*
X4307686Y2734367D01*
X4307110Y2734099D01*
X4306534Y2733868D01*
X4305882Y2733676D01*
X4305229Y2733523D01*
X4304499Y2733446D01*
X4303731Y2733407D01*
X4303386D01*
X4303155Y2733446D01*
X4302886Y2733484D01*
X4302541Y2733523D01*
X4302157Y2733561D01*
X4301734Y2733638D01*
X4300851Y2733868D01*
X4299930Y2734214D01*
X4299469Y2734444D01*
X4299008Y2734713D01*
X4298547Y2734982D01*
X4298125Y2735327D01*
X4298086Y2735366D01*
X4298048Y2735404D01*
X4297933Y2735519D01*
X4297779Y2735673D01*
X4297626Y2735865D01*
X4297434Y2736095D01*
X4297242Y2736364D01*
X4297011Y2736671D01*
X4296589Y2737401D01*
X4296166Y2738284D01*
X4295859Y2739283D01*
X4295744Y2739859D01*
X4295667Y2740435D01*
X4298931Y2740665D01*
Y2740627D01*
Y2740550D01*
X4298970Y2740435D01*
X4299008Y2740281D01*
X4299123Y2739859D01*
X4299277Y2739321D01*
X4299469Y2738745D01*
X4299776Y2738169D01*
X4300122Y2737593D01*
X4300582Y2737094D01*
X4300659Y2737055D01*
X4300813Y2736902D01*
X4301082Y2736748D01*
X4301466Y2736518D01*
X4301926Y2736326D01*
X4302464Y2736134D01*
X4303078Y2735980D01*
X4303731Y2735942D01*
X4303962D01*
X4304115Y2735980D01*
X4304538Y2736019D01*
X4305075Y2736134D01*
X4305651Y2736364D01*
X4306304Y2736633D01*
X4306918Y2737055D01*
X4307226Y2737286D01*
X4307533Y2737593D01*
Y2737631D01*
X4307610Y2737670D01*
X4307763Y2737900D01*
X4308032Y2738284D01*
X4308301Y2738784D01*
X4308570Y2739436D01*
X4308838Y2740204D01*
X4308992Y2741088D01*
X4309069Y2742086D01*
Y2742124D01*
Y2742201D01*
Y2742355D01*
X4309030Y2742508D01*
Y2742739D01*
X4308992Y2743008D01*
X4308877Y2743622D01*
X4308723Y2744275D01*
X4308454Y2744966D01*
X4308070Y2745657D01*
X4307571Y2746271D01*
X4307494Y2746348D01*
X4307302Y2746502D01*
X4306995Y2746771D01*
X4306534Y2747039D01*
X4305997Y2747308D01*
X4305306Y2747577D01*
X4304538Y2747731D01*
X4303693Y2747807D01*
X4303424D01*
X4303155Y2747769D01*
X4302771Y2747731D01*
X4302349Y2747615D01*
X4301888Y2747500D01*
X4301427Y2747308D01*
X4300966Y2747078D01*
X4300928Y2747039D01*
X4300774Y2746963D01*
X4300544Y2746809D01*
X4300275Y2746617D01*
X4300006Y2746348D01*
X4299699Y2746041D01*
X4299392Y2745695D01*
X4299123Y2745311D01*
X4296205Y2745734D01*
X4298662Y2758675D01*
X4311181D01*
Y2755718D01*
D02*
G37*
G36*
X4287757Y2733830D02*
X4284646D01*
Y2753568D01*
X4284608Y2753529D01*
X4284454Y2753376D01*
X4284186Y2753184D01*
X4283840Y2752915D01*
X4283418Y2752569D01*
X4282918Y2752224D01*
X4282342Y2751801D01*
X4281690Y2751417D01*
X4281651D01*
X4281613Y2751379D01*
X4281382Y2751225D01*
X4281037Y2751033D01*
X4280614Y2750803D01*
X4280115Y2750534D01*
X4279578Y2750303D01*
X4279002Y2750035D01*
X4278464Y2749804D01*
Y2752838D01*
X4278502D01*
X4278579Y2752876D01*
X4278733Y2752953D01*
X4278886Y2753068D01*
X4279117Y2753184D01*
X4279386Y2753299D01*
X4280000Y2753644D01*
X4280691Y2754067D01*
X4281459Y2754566D01*
X4282227Y2755142D01*
X4282957Y2755756D01*
X4282995Y2755795D01*
X4283034Y2755833D01*
X4283264Y2756064D01*
X4283610Y2756409D01*
X4284032Y2756831D01*
X4284493Y2757369D01*
X4284954Y2757945D01*
X4285376Y2758559D01*
X4285722Y2759174D01*
X4287757D01*
Y2733830D01*
D02*
G37*
G36*
X4263987Y2759020D02*
X4264294D01*
X4265062Y2758982D01*
X4265869Y2758905D01*
X4266714Y2758751D01*
X4267520Y2758598D01*
X4267904Y2758483D01*
X4268250Y2758367D01*
X4268288D01*
X4268326Y2758329D01*
X4268557Y2758252D01*
X4268864Y2758060D01*
X4269248Y2757791D01*
X4269709Y2757484D01*
X4270170Y2757062D01*
X4270630Y2756563D01*
X4271053Y2755948D01*
X4271091Y2755872D01*
X4271206Y2755641D01*
X4271398Y2755296D01*
X4271590Y2754835D01*
X4271782Y2754259D01*
X4271974Y2753606D01*
X4272090Y2752915D01*
X4272128Y2752147D01*
Y2752108D01*
Y2752032D01*
Y2751878D01*
X4272090Y2751686D01*
Y2751456D01*
X4272051Y2751187D01*
X4271898Y2750572D01*
X4271706Y2749843D01*
X4271398Y2749113D01*
X4270938Y2748345D01*
X4270669Y2747961D01*
X4270362Y2747615D01*
X4270285Y2747539D01*
X4270170Y2747462D01*
X4270054Y2747308D01*
X4269862Y2747193D01*
X4269632Y2747001D01*
X4269363Y2746847D01*
X4269056Y2746655D01*
X4268710Y2746463D01*
X4268288Y2746271D01*
X4267866Y2746079D01*
X4267366Y2745887D01*
X4266867Y2745695D01*
X4266291Y2745542D01*
X4265677Y2745427D01*
X4265024Y2745311D01*
X4265101Y2745273D01*
X4265254Y2745196D01*
X4265485Y2745081D01*
X4265754Y2744927D01*
X4266406Y2744505D01*
X4266752Y2744275D01*
X4267021Y2744044D01*
X4267098Y2743968D01*
X4267290Y2743814D01*
X4267558Y2743507D01*
X4267904Y2743123D01*
X4268326Y2742624D01*
X4268787Y2742048D01*
X4269286Y2741395D01*
X4269786Y2740665D01*
X4274163Y2733830D01*
X4269978D01*
X4266637Y2739052D01*
Y2739091D01*
X4266560Y2739168D01*
X4266483Y2739283D01*
X4266406Y2739436D01*
X4266138Y2739820D01*
X4265792Y2740320D01*
X4265408Y2740896D01*
X4264986Y2741472D01*
X4264602Y2742009D01*
X4264218Y2742508D01*
X4264179Y2742547D01*
X4264064Y2742700D01*
X4263872Y2742931D01*
X4263680Y2743200D01*
X4263104Y2743737D01*
X4262835Y2744006D01*
X4262528Y2744198D01*
X4262490Y2744236D01*
X4262413Y2744275D01*
X4262259Y2744352D01*
X4262067Y2744467D01*
X4261606Y2744697D01*
X4261030Y2744889D01*
X4260992D01*
X4260915Y2744927D01*
X4260762D01*
X4260570Y2744966D01*
X4260301Y2745004D01*
X4259994D01*
X4259610Y2745043D01*
X4255309D01*
Y2733830D01*
X4251968D01*
Y2759059D01*
X4263680D01*
X4263987Y2759020D01*
D02*
G37*
G36*
X4308685Y2641041D02*
X4312102D01*
Y2638199D01*
X4308685D01*
Y2632170D01*
X4305574D01*
Y2638199D01*
X4294630D01*
Y2641041D01*
X4306150Y2657361D01*
X4308685D01*
Y2641041D01*
D02*
G37*
G36*
X4287757Y2632170D02*
X4284646D01*
Y2651908D01*
X4284608Y2651869D01*
X4284454Y2651716D01*
X4284186Y2651524D01*
X4283840Y2651255D01*
X4283418Y2650909D01*
X4282918Y2650564D01*
X4282342Y2650141D01*
X4281690Y2649757D01*
X4281651D01*
X4281613Y2649719D01*
X4281382Y2649565D01*
X4281037Y2649373D01*
X4280614Y2649143D01*
X4280115Y2648874D01*
X4279578Y2648644D01*
X4279002Y2648375D01*
X4278464Y2648145D01*
Y2651178D01*
X4278502D01*
X4278579Y2651217D01*
X4278733Y2651293D01*
X4278886Y2651409D01*
X4279117Y2651524D01*
X4279386Y2651639D01*
X4280000Y2651985D01*
X4280691Y2652407D01*
X4281459Y2652906D01*
X4282227Y2653482D01*
X4282957Y2654097D01*
X4282995Y2654135D01*
X4283034Y2654173D01*
X4283264Y2654404D01*
X4283610Y2654749D01*
X4284032Y2655172D01*
X4284493Y2655709D01*
X4284954Y2656285D01*
X4285376Y2656900D01*
X4285722Y2657514D01*
X4287757D01*
Y2632170D01*
D02*
G37*
G36*
X4263987Y2657361D02*
X4264294D01*
X4265062Y2657322D01*
X4265869Y2657245D01*
X4266714Y2657092D01*
X4267520Y2656938D01*
X4267904Y2656823D01*
X4268250Y2656708D01*
X4268288D01*
X4268326Y2656669D01*
X4268557Y2656593D01*
X4268864Y2656401D01*
X4269248Y2656132D01*
X4269709Y2655825D01*
X4270170Y2655402D01*
X4270630Y2654903D01*
X4271053Y2654289D01*
X4271091Y2654212D01*
X4271206Y2653981D01*
X4271398Y2653636D01*
X4271590Y2653175D01*
X4271782Y2652599D01*
X4271974Y2651946D01*
X4272090Y2651255D01*
X4272128Y2650487D01*
Y2650449D01*
Y2650372D01*
Y2650218D01*
X4272090Y2650026D01*
Y2649796D01*
X4272051Y2649527D01*
X4271898Y2648913D01*
X4271706Y2648183D01*
X4271398Y2647453D01*
X4270938Y2646685D01*
X4270669Y2646301D01*
X4270362Y2645956D01*
X4270285Y2645879D01*
X4270170Y2645802D01*
X4270054Y2645649D01*
X4269862Y2645533D01*
X4269632Y2645341D01*
X4269363Y2645188D01*
X4269056Y2644996D01*
X4268710Y2644804D01*
X4268288Y2644612D01*
X4267866Y2644420D01*
X4267366Y2644228D01*
X4266867Y2644036D01*
X4266291Y2643882D01*
X4265677Y2643767D01*
X4265024Y2643652D01*
X4265101Y2643613D01*
X4265254Y2643537D01*
X4265485Y2643421D01*
X4265754Y2643268D01*
X4266406Y2642845D01*
X4266752Y2642615D01*
X4267021Y2642385D01*
X4267098Y2642308D01*
X4267290Y2642154D01*
X4267558Y2641847D01*
X4267904Y2641463D01*
X4268326Y2640964D01*
X4268787Y2640388D01*
X4269286Y2639735D01*
X4269786Y2639005D01*
X4274163Y2632170D01*
X4269978D01*
X4266637Y2637393D01*
Y2637431D01*
X4266560Y2637508D01*
X4266483Y2637623D01*
X4266406Y2637777D01*
X4266138Y2638161D01*
X4265792Y2638660D01*
X4265408Y2639236D01*
X4264986Y2639812D01*
X4264602Y2640349D01*
X4264218Y2640849D01*
X4264179Y2640887D01*
X4264064Y2641041D01*
X4263872Y2641271D01*
X4263680Y2641540D01*
X4263104Y2642077D01*
X4262835Y2642346D01*
X4262528Y2642538D01*
X4262490Y2642577D01*
X4262413Y2642615D01*
X4262259Y2642692D01*
X4262067Y2642807D01*
X4261606Y2643037D01*
X4261030Y2643229D01*
X4260992D01*
X4260915Y2643268D01*
X4260762D01*
X4260570Y2643306D01*
X4260301Y2643345D01*
X4259994D01*
X4259610Y2643383D01*
X4255309D01*
Y2632170D01*
X4251968D01*
Y2657399D01*
X4263680D01*
X4263987Y2657361D01*
D02*
G37*
G36*
X4304307Y2556661D02*
X4304806Y2556584D01*
X4305382Y2556469D01*
X4306035Y2556315D01*
X4306688Y2556085D01*
X4307341Y2555778D01*
X4307379D01*
X4307418Y2555739D01*
X4307648Y2555624D01*
X4307955Y2555432D01*
X4308339Y2555163D01*
X4308762Y2554818D01*
X4309222Y2554395D01*
X4309645Y2553896D01*
X4310029Y2553358D01*
X4310067Y2553282D01*
X4310182Y2553090D01*
X4310336Y2552782D01*
X4310490Y2552398D01*
X4310643Y2551899D01*
X4310797Y2551362D01*
X4310912Y2550786D01*
X4310950Y2550133D01*
Y2550056D01*
Y2549864D01*
X4310912Y2549557D01*
X4310835Y2549173D01*
X4310720Y2548712D01*
X4310566Y2548213D01*
X4310374Y2547675D01*
X4310067Y2547176D01*
X4310029Y2547099D01*
X4309914Y2546946D01*
X4309683Y2546715D01*
X4309414Y2546408D01*
X4309030Y2546062D01*
X4308608Y2545717D01*
X4308070Y2545333D01*
X4307456Y2545026D01*
X4307494D01*
X4307571Y2544987D01*
X4307686D01*
X4307840Y2544910D01*
X4308224Y2544795D01*
X4308723Y2544565D01*
X4309261Y2544296D01*
X4309837Y2543912D01*
X4310413Y2543451D01*
X4310912Y2542875D01*
X4310950Y2542798D01*
X4311104Y2542568D01*
X4311296Y2542222D01*
X4311565Y2541762D01*
X4311795Y2541186D01*
X4311987Y2540494D01*
X4312141Y2539688D01*
X4312179Y2538805D01*
Y2538767D01*
Y2538651D01*
Y2538498D01*
X4312141Y2538267D01*
X4312102Y2537960D01*
X4312064Y2537653D01*
X4311987Y2537269D01*
X4311872Y2536885D01*
X4311603Y2536002D01*
X4311411Y2535503D01*
X4311142Y2535042D01*
X4310874Y2534581D01*
X4310566Y2534120D01*
X4310182Y2533659D01*
X4309760Y2533198D01*
X4309722Y2533160D01*
X4309645Y2533083D01*
X4309530Y2533006D01*
X4309338Y2532853D01*
X4309107Y2532661D01*
X4308800Y2532469D01*
X4308454Y2532277D01*
X4308109Y2532085D01*
X4307686Y2531854D01*
X4307226Y2531662D01*
X4306726Y2531470D01*
X4306189Y2531278D01*
X4305613Y2531125D01*
X4304998Y2531048D01*
X4304346Y2530971D01*
X4303693Y2530933D01*
X4303386D01*
X4303155Y2530971D01*
X4302848Y2531010D01*
X4302541Y2531048D01*
X4302157Y2531086D01*
X4301773Y2531163D01*
X4300890Y2531394D01*
X4299968Y2531778D01*
X4299507Y2531970D01*
X4299085Y2532238D01*
X4298624Y2532546D01*
X4298202Y2532891D01*
X4298163Y2532930D01*
X4298125Y2532968D01*
X4298010Y2533083D01*
X4297856Y2533237D01*
X4297702Y2533467D01*
X4297510Y2533698D01*
X4297280Y2533966D01*
X4297088Y2534274D01*
X4296627Y2535042D01*
X4296243Y2535925D01*
X4295898Y2536923D01*
X4295782Y2537461D01*
X4295706Y2538037D01*
X4298816Y2538459D01*
Y2538421D01*
X4298854Y2538344D01*
Y2538191D01*
X4298931Y2538037D01*
X4299046Y2537576D01*
X4299238Y2537000D01*
X4299469Y2536386D01*
X4299776Y2535733D01*
X4300160Y2535157D01*
X4300582Y2534658D01*
X4300659Y2534619D01*
X4300813Y2534466D01*
X4301082Y2534312D01*
X4301466Y2534082D01*
X4301888Y2533890D01*
X4302426Y2533698D01*
X4303040Y2533544D01*
X4303693Y2533506D01*
X4303923D01*
X4304077Y2533544D01*
X4304461Y2533582D01*
X4304960Y2533698D01*
X4305574Y2533890D01*
X4306189Y2534120D01*
X4306803Y2534504D01*
X4307379Y2535003D01*
X4307456Y2535080D01*
X4307610Y2535272D01*
X4307840Y2535579D01*
X4308147Y2536040D01*
X4308416Y2536578D01*
X4308646Y2537231D01*
X4308800Y2537960D01*
X4308877Y2538767D01*
Y2538805D01*
Y2538843D01*
Y2538959D01*
X4308838Y2539112D01*
X4308800Y2539496D01*
X4308685Y2539995D01*
X4308531Y2540533D01*
X4308262Y2541147D01*
X4307917Y2541723D01*
X4307456Y2542261D01*
X4307379Y2542338D01*
X4307226Y2542491D01*
X4306918Y2542683D01*
X4306496Y2542952D01*
X4305997Y2543221D01*
X4305382Y2543413D01*
X4304730Y2543566D01*
X4303962Y2543643D01*
X4303616D01*
X4303347Y2543605D01*
X4303040Y2543566D01*
X4302656Y2543528D01*
X4302234Y2543451D01*
X4301773Y2543336D01*
X4302118Y2546062D01*
X4302310D01*
X4302464Y2546024D01*
X4302963D01*
X4303309Y2546062D01*
X4303808Y2546139D01*
X4304346Y2546255D01*
X4304922Y2546447D01*
X4305536Y2546677D01*
X4306150Y2547023D01*
X4306227Y2547061D01*
X4306419Y2547215D01*
X4306650Y2547483D01*
X4306957Y2547829D01*
X4307264Y2548251D01*
X4307494Y2548789D01*
X4307686Y2549442D01*
X4307763Y2550210D01*
Y2550248D01*
Y2550287D01*
Y2550479D01*
X4307686Y2550786D01*
X4307610Y2551208D01*
X4307494Y2551631D01*
X4307264Y2552091D01*
X4306995Y2552590D01*
X4306611Y2553013D01*
X4306573Y2553051D01*
X4306419Y2553205D01*
X4306150Y2553397D01*
X4305805Y2553589D01*
X4305382Y2553819D01*
X4304883Y2553973D01*
X4304307Y2554126D01*
X4303654Y2554165D01*
X4303347D01*
X4303002Y2554088D01*
X4302618Y2554011D01*
X4302118Y2553896D01*
X4301619Y2553666D01*
X4301120Y2553397D01*
X4300621Y2553013D01*
X4300582Y2552974D01*
X4300429Y2552821D01*
X4300237Y2552552D01*
X4300006Y2552168D01*
X4299738Y2551707D01*
X4299507Y2551131D01*
X4299277Y2550440D01*
X4299123Y2549634D01*
X4296013Y2550171D01*
Y2550210D01*
X4296051Y2550325D01*
X4296090Y2550479D01*
X4296128Y2550671D01*
X4296205Y2550939D01*
X4296282Y2551247D01*
X4296550Y2551938D01*
X4296858Y2552706D01*
X4297318Y2553512D01*
X4297856Y2554280D01*
X4298547Y2554971D01*
X4298586Y2555010D01*
X4298624Y2555048D01*
X4298739Y2555125D01*
X4298931Y2555240D01*
X4299123Y2555355D01*
X4299354Y2555509D01*
X4299930Y2555854D01*
X4300659Y2556162D01*
X4301542Y2556430D01*
X4302502Y2556622D01*
X4303040Y2556699D01*
X4303923D01*
X4304307Y2556661D01*
D02*
G37*
G36*
X4287757Y2531355D02*
X4284646D01*
Y2551093D01*
X4284608Y2551055D01*
X4284454Y2550901D01*
X4284186Y2550709D01*
X4283840Y2550440D01*
X4283418Y2550095D01*
X4282918Y2549749D01*
X4282342Y2549327D01*
X4281690Y2548943D01*
X4281651D01*
X4281613Y2548904D01*
X4281382Y2548751D01*
X4281037Y2548559D01*
X4280614Y2548328D01*
X4280115Y2548059D01*
X4279578Y2547829D01*
X4279002Y2547560D01*
X4278464Y2547330D01*
Y2550363D01*
X4278502D01*
X4278579Y2550402D01*
X4278733Y2550479D01*
X4278886Y2550594D01*
X4279117Y2550709D01*
X4279386Y2550824D01*
X4280000Y2551170D01*
X4280691Y2551592D01*
X4281459Y2552091D01*
X4282227Y2552667D01*
X4282957Y2553282D01*
X4282995Y2553320D01*
X4283034Y2553358D01*
X4283264Y2553589D01*
X4283610Y2553934D01*
X4284032Y2554357D01*
X4284493Y2554894D01*
X4284954Y2555470D01*
X4285376Y2556085D01*
X4285722Y2556699D01*
X4287757D01*
Y2531355D01*
D02*
G37*
G36*
X4263987Y2556546D02*
X4264294D01*
X4265062Y2556507D01*
X4265869Y2556430D01*
X4266714Y2556277D01*
X4267520Y2556123D01*
X4267904Y2556008D01*
X4268250Y2555893D01*
X4268288D01*
X4268326Y2555854D01*
X4268557Y2555778D01*
X4268864Y2555586D01*
X4269248Y2555317D01*
X4269709Y2555010D01*
X4270170Y2554587D01*
X4270630Y2554088D01*
X4271053Y2553474D01*
X4271091Y2553397D01*
X4271206Y2553166D01*
X4271398Y2552821D01*
X4271590Y2552360D01*
X4271782Y2551784D01*
X4271974Y2551131D01*
X4272090Y2550440D01*
X4272128Y2549672D01*
Y2549634D01*
Y2549557D01*
Y2549403D01*
X4272090Y2549211D01*
Y2548981D01*
X4272051Y2548712D01*
X4271898Y2548098D01*
X4271706Y2547368D01*
X4271398Y2546639D01*
X4270938Y2545870D01*
X4270669Y2545486D01*
X4270362Y2545141D01*
X4270285Y2545064D01*
X4270170Y2544987D01*
X4270054Y2544834D01*
X4269862Y2544718D01*
X4269632Y2544526D01*
X4269363Y2544373D01*
X4269056Y2544181D01*
X4268710Y2543989D01*
X4268288Y2543797D01*
X4267866Y2543605D01*
X4267366Y2543413D01*
X4266867Y2543221D01*
X4266291Y2543067D01*
X4265677Y2542952D01*
X4265024Y2542837D01*
X4265101Y2542798D01*
X4265254Y2542722D01*
X4265485Y2542606D01*
X4265754Y2542453D01*
X4266406Y2542030D01*
X4266752Y2541800D01*
X4267021Y2541570D01*
X4267098Y2541493D01*
X4267290Y2541339D01*
X4267558Y2541032D01*
X4267904Y2540648D01*
X4268326Y2540149D01*
X4268787Y2539573D01*
X4269286Y2538920D01*
X4269786Y2538191D01*
X4274163Y2531355D01*
X4269978D01*
X4266637Y2536578D01*
Y2536616D01*
X4266560Y2536693D01*
X4266483Y2536808D01*
X4266406Y2536962D01*
X4266138Y2537346D01*
X4265792Y2537845D01*
X4265408Y2538421D01*
X4264986Y2538997D01*
X4264602Y2539535D01*
X4264218Y2540034D01*
X4264179Y2540072D01*
X4264064Y2540226D01*
X4263872Y2540456D01*
X4263680Y2540725D01*
X4263104Y2541262D01*
X4262835Y2541531D01*
X4262528Y2541723D01*
X4262490Y2541762D01*
X4262413Y2541800D01*
X4262259Y2541877D01*
X4262067Y2541992D01*
X4261606Y2542222D01*
X4261030Y2542414D01*
X4260992D01*
X4260915Y2542453D01*
X4260762D01*
X4260570Y2542491D01*
X4260301Y2542530D01*
X4259994D01*
X4259610Y2542568D01*
X4255309D01*
Y2531355D01*
X4251968D01*
Y2556584D01*
X4263680D01*
X4263987Y2556546D01*
D02*
G37*
G36*
X4304614Y2455001D02*
X4304922Y2454963D01*
X4305267Y2454924D01*
X4305651Y2454886D01*
X4306074Y2454771D01*
X4306995Y2454540D01*
X4307955Y2454195D01*
X4308454Y2453964D01*
X4308915Y2453696D01*
X4309338Y2453350D01*
X4309760Y2453004D01*
X4309798Y2452966D01*
X4309837Y2452928D01*
X4309952Y2452812D01*
X4310106Y2452659D01*
X4310259Y2452428D01*
X4310451Y2452198D01*
X4310835Y2451622D01*
X4311219Y2450892D01*
X4311565Y2450048D01*
X4311834Y2449088D01*
X4311872Y2448550D01*
X4311910Y2448012D01*
Y2447936D01*
Y2447744D01*
X4311872Y2447436D01*
X4311834Y2447052D01*
X4311757Y2446592D01*
X4311642Y2446092D01*
X4311488Y2445555D01*
X4311258Y2445017D01*
X4311219Y2444940D01*
X4311142Y2444748D01*
X4310989Y2444480D01*
X4310758Y2444096D01*
X4310490Y2443635D01*
X4310144Y2443097D01*
X4309683Y2442560D01*
X4309184Y2441945D01*
X4309107Y2441868D01*
X4308915Y2441638D01*
X4308570Y2441292D01*
X4308339Y2441062D01*
X4308070Y2440793D01*
X4307763Y2440486D01*
X4307379Y2440140D01*
X4306995Y2439795D01*
X4306573Y2439372D01*
X4306112Y2438950D01*
X4305574Y2438489D01*
X4305037Y2438028D01*
X4304422Y2437491D01*
X4304384Y2437452D01*
X4304307Y2437376D01*
X4304154Y2437260D01*
X4303962Y2437107D01*
X4303501Y2436723D01*
X4302925Y2436224D01*
X4302349Y2435686D01*
X4301734Y2435148D01*
X4301235Y2434688D01*
X4301043Y2434496D01*
X4300851Y2434304D01*
X4300813Y2434265D01*
X4300736Y2434150D01*
X4300582Y2433996D01*
X4300390Y2433766D01*
X4299968Y2433267D01*
X4299546Y2432652D01*
X4311949D01*
Y2429696D01*
X4295245D01*
Y2429734D01*
Y2429888D01*
Y2430118D01*
X4295283Y2430387D01*
X4295322Y2430694D01*
X4295360Y2431040D01*
X4295475Y2431424D01*
X4295590Y2431808D01*
Y2431846D01*
X4295629Y2431884D01*
X4295706Y2432115D01*
X4295859Y2432422D01*
X4296090Y2432883D01*
X4296358Y2433382D01*
X4296742Y2433958D01*
X4297126Y2434534D01*
X4297626Y2435148D01*
Y2435187D01*
X4297702Y2435225D01*
X4297894Y2435456D01*
X4298202Y2435801D01*
X4298662Y2436262D01*
X4299238Y2436800D01*
X4299930Y2437452D01*
X4300774Y2438182D01*
X4301696Y2438988D01*
X4301734Y2439027D01*
X4301888Y2439142D01*
X4302080Y2439296D01*
X4302349Y2439564D01*
X4302694Y2439833D01*
X4303078Y2440179D01*
X4303923Y2440908D01*
X4304845Y2441792D01*
X4305766Y2442675D01*
X4306227Y2443097D01*
X4306611Y2443520D01*
X4306957Y2443942D01*
X4307264Y2444326D01*
Y2444364D01*
X4307341Y2444403D01*
X4307418Y2444518D01*
X4307494Y2444672D01*
X4307725Y2445056D01*
X4307994Y2445555D01*
X4308262Y2446131D01*
X4308493Y2446745D01*
X4308646Y2447436D01*
X4308723Y2448089D01*
Y2448128D01*
Y2448166D01*
X4308685Y2448396D01*
X4308646Y2448742D01*
X4308570Y2449164D01*
X4308378Y2449664D01*
X4308147Y2450163D01*
X4307840Y2450700D01*
X4307379Y2451200D01*
X4307302Y2451238D01*
X4307149Y2451392D01*
X4306842Y2451584D01*
X4306458Y2451852D01*
X4305958Y2452083D01*
X4305382Y2452275D01*
X4304691Y2452428D01*
X4303923Y2452467D01*
X4303693D01*
X4303539Y2452428D01*
X4303155Y2452390D01*
X4302656Y2452313D01*
X4302080Y2452121D01*
X4301466Y2451891D01*
X4300890Y2451545D01*
X4300352Y2451084D01*
X4300314Y2451008D01*
X4300160Y2450854D01*
X4299930Y2450547D01*
X4299699Y2450124D01*
X4299430Y2449587D01*
X4299238Y2448972D01*
X4299085Y2448243D01*
X4299008Y2447398D01*
X4295821Y2447744D01*
Y2447782D01*
Y2447897D01*
X4295859Y2448089D01*
X4295898Y2448320D01*
X4295974Y2448627D01*
X4296013Y2448972D01*
X4296243Y2449740D01*
X4296550Y2450624D01*
X4296973Y2451507D01*
X4297549Y2452390D01*
X4297856Y2452774D01*
X4298240Y2453158D01*
X4298278Y2453196D01*
X4298355Y2453235D01*
X4298470Y2453350D01*
X4298624Y2453465D01*
X4298854Y2453580D01*
X4299123Y2453772D01*
X4299430Y2453926D01*
X4299776Y2454118D01*
X4300160Y2454272D01*
X4300582Y2454464D01*
X4301082Y2454617D01*
X4301581Y2454732D01*
X4302733Y2454963D01*
X4303347Y2455001D01*
X4304000Y2455040D01*
X4304346D01*
X4304614Y2455001D01*
D02*
G37*
G36*
X4287757Y2429696D02*
X4284646D01*
Y2449433D01*
X4284608Y2449395D01*
X4284454Y2449241D01*
X4284186Y2449049D01*
X4283840Y2448780D01*
X4283418Y2448435D01*
X4282918Y2448089D01*
X4282342Y2447667D01*
X4281690Y2447283D01*
X4281651D01*
X4281613Y2447244D01*
X4281382Y2447091D01*
X4281037Y2446899D01*
X4280614Y2446668D01*
X4280115Y2446400D01*
X4279578Y2446169D01*
X4279002Y2445900D01*
X4278464Y2445670D01*
Y2448704D01*
X4278502D01*
X4278579Y2448742D01*
X4278733Y2448819D01*
X4278886Y2448934D01*
X4279117Y2449049D01*
X4279386Y2449164D01*
X4280000Y2449510D01*
X4280691Y2449932D01*
X4281459Y2450432D01*
X4282227Y2451008D01*
X4282957Y2451622D01*
X4282995Y2451660D01*
X4283034Y2451699D01*
X4283264Y2451929D01*
X4283610Y2452275D01*
X4284032Y2452697D01*
X4284493Y2453235D01*
X4284954Y2453811D01*
X4285376Y2454425D01*
X4285722Y2455040D01*
X4287757D01*
Y2429696D01*
D02*
G37*
G36*
X4263987Y2454886D02*
X4264294D01*
X4265062Y2454848D01*
X4265869Y2454771D01*
X4266714Y2454617D01*
X4267520Y2454464D01*
X4267904Y2454348D01*
X4268250Y2454233D01*
X4268288D01*
X4268326Y2454195D01*
X4268557Y2454118D01*
X4268864Y2453926D01*
X4269248Y2453657D01*
X4269709Y2453350D01*
X4270170Y2452928D01*
X4270630Y2452428D01*
X4271053Y2451814D01*
X4271091Y2451737D01*
X4271206Y2451507D01*
X4271398Y2451161D01*
X4271590Y2450700D01*
X4271782Y2450124D01*
X4271974Y2449472D01*
X4272090Y2448780D01*
X4272128Y2448012D01*
Y2447974D01*
Y2447897D01*
Y2447744D01*
X4272090Y2447552D01*
Y2447321D01*
X4272051Y2447052D01*
X4271898Y2446438D01*
X4271706Y2445708D01*
X4271398Y2444979D01*
X4270938Y2444211D01*
X4270669Y2443827D01*
X4270362Y2443481D01*
X4270285Y2443404D01*
X4270170Y2443328D01*
X4270054Y2443174D01*
X4269862Y2443059D01*
X4269632Y2442867D01*
X4269363Y2442713D01*
X4269056Y2442521D01*
X4268710Y2442329D01*
X4268288Y2442137D01*
X4267866Y2441945D01*
X4267366Y2441753D01*
X4266867Y2441561D01*
X4266291Y2441408D01*
X4265677Y2441292D01*
X4265024Y2441177D01*
X4265101Y2441139D01*
X4265254Y2441062D01*
X4265485Y2440947D01*
X4265754Y2440793D01*
X4266406Y2440371D01*
X4266752Y2440140D01*
X4267021Y2439910D01*
X4267098Y2439833D01*
X4267290Y2439680D01*
X4267558Y2439372D01*
X4267904Y2438988D01*
X4268326Y2438489D01*
X4268787Y2437913D01*
X4269286Y2437260D01*
X4269786Y2436531D01*
X4274163Y2429696D01*
X4269978D01*
X4266637Y2434918D01*
Y2434956D01*
X4266560Y2435033D01*
X4266483Y2435148D01*
X4266406Y2435302D01*
X4266138Y2435686D01*
X4265792Y2436185D01*
X4265408Y2436761D01*
X4264986Y2437337D01*
X4264602Y2437875D01*
X4264218Y2438374D01*
X4264179Y2438412D01*
X4264064Y2438566D01*
X4263872Y2438796D01*
X4263680Y2439065D01*
X4263104Y2439603D01*
X4262835Y2439872D01*
X4262528Y2440064D01*
X4262490Y2440102D01*
X4262413Y2440140D01*
X4262259Y2440217D01*
X4262067Y2440332D01*
X4261606Y2440563D01*
X4261030Y2440755D01*
X4260992D01*
X4260915Y2440793D01*
X4260762D01*
X4260570Y2440832D01*
X4260301Y2440870D01*
X4259994D01*
X4259610Y2440908D01*
X4255309D01*
Y2429696D01*
X4251968D01*
Y2454924D01*
X4263680D01*
X4263987Y2454886D01*
D02*
G37*
G36*
X4307341Y2328458D02*
X4304230D01*
Y2348196D01*
X4304192Y2348157D01*
X4304038Y2348004D01*
X4303770Y2347812D01*
X4303424Y2347543D01*
X4303002Y2347198D01*
X4302502Y2346852D01*
X4301926Y2346430D01*
X4301274Y2346046D01*
X4301235D01*
X4301197Y2346007D01*
X4300966Y2345854D01*
X4300621Y2345662D01*
X4300198Y2345431D01*
X4299699Y2345162D01*
X4299162Y2344932D01*
X4298586Y2344663D01*
X4298048Y2344433D01*
Y2347466D01*
X4298086D01*
X4298163Y2347505D01*
X4298317Y2347581D01*
X4298470Y2347697D01*
X4298701Y2347812D01*
X4298970Y2347927D01*
X4299584Y2348273D01*
X4300275Y2348695D01*
X4301043Y2349194D01*
X4301811Y2349770D01*
X4302541Y2350385D01*
X4302579Y2350423D01*
X4302618Y2350461D01*
X4302848Y2350692D01*
X4303194Y2351037D01*
X4303616Y2351460D01*
X4304077Y2351997D01*
X4304538Y2352573D01*
X4304960Y2353188D01*
X4305306Y2353802D01*
X4307341D01*
Y2328458D01*
D02*
G37*
G36*
X4287757D02*
X4284646D01*
Y2348196D01*
X4284608Y2348157D01*
X4284454Y2348004D01*
X4284186Y2347812D01*
X4283840Y2347543D01*
X4283418Y2347198D01*
X4282918Y2346852D01*
X4282342Y2346430D01*
X4281690Y2346046D01*
X4281651D01*
X4281613Y2346007D01*
X4281382Y2345854D01*
X4281037Y2345662D01*
X4280614Y2345431D01*
X4280115Y2345162D01*
X4279578Y2344932D01*
X4279002Y2344663D01*
X4278464Y2344433D01*
Y2347466D01*
X4278502D01*
X4278579Y2347505D01*
X4278733Y2347581D01*
X4278886Y2347697D01*
X4279117Y2347812D01*
X4279386Y2347927D01*
X4280000Y2348273D01*
X4280691Y2348695D01*
X4281459Y2349194D01*
X4282227Y2349770D01*
X4282957Y2350385D01*
X4282995Y2350423D01*
X4283034Y2350461D01*
X4283264Y2350692D01*
X4283610Y2351037D01*
X4284032Y2351460D01*
X4284493Y2351997D01*
X4284954Y2352573D01*
X4285376Y2353188D01*
X4285722Y2353802D01*
X4287757D01*
Y2328458D01*
D02*
G37*
G36*
X4263987Y2353649D02*
X4264294D01*
X4265062Y2353610D01*
X4265869Y2353534D01*
X4266714Y2353380D01*
X4267520Y2353226D01*
X4267904Y2353111D01*
X4268250Y2352996D01*
X4268288D01*
X4268326Y2352957D01*
X4268557Y2352881D01*
X4268864Y2352689D01*
X4269248Y2352420D01*
X4269709Y2352113D01*
X4270170Y2351690D01*
X4270630Y2351191D01*
X4271053Y2350577D01*
X4271091Y2350500D01*
X4271206Y2350269D01*
X4271398Y2349924D01*
X4271590Y2349463D01*
X4271782Y2348887D01*
X4271974Y2348234D01*
X4272090Y2347543D01*
X4272128Y2346775D01*
Y2346737D01*
Y2346660D01*
Y2346506D01*
X4272090Y2346314D01*
Y2346084D01*
X4272051Y2345815D01*
X4271898Y2345201D01*
X4271706Y2344471D01*
X4271398Y2343742D01*
X4270938Y2342974D01*
X4270669Y2342590D01*
X4270362Y2342244D01*
X4270285Y2342167D01*
X4270170Y2342090D01*
X4270054Y2341937D01*
X4269862Y2341822D01*
X4269632Y2341630D01*
X4269363Y2341476D01*
X4269056Y2341284D01*
X4268710Y2341092D01*
X4268288Y2340900D01*
X4267866Y2340708D01*
X4267366Y2340516D01*
X4266867Y2340324D01*
X4266291Y2340170D01*
X4265677Y2340055D01*
X4265024Y2339940D01*
X4265101Y2339901D01*
X4265254Y2339825D01*
X4265485Y2339709D01*
X4265754Y2339556D01*
X4266406Y2339133D01*
X4266752Y2338903D01*
X4267021Y2338673D01*
X4267098Y2338596D01*
X4267290Y2338442D01*
X4267558Y2338135D01*
X4267904Y2337751D01*
X4268326Y2337252D01*
X4268787Y2336676D01*
X4269286Y2336023D01*
X4269786Y2335294D01*
X4274163Y2328458D01*
X4269978D01*
X4266637Y2333681D01*
Y2333719D01*
X4266560Y2333796D01*
X4266483Y2333911D01*
X4266406Y2334065D01*
X4266138Y2334449D01*
X4265792Y2334948D01*
X4265408Y2335524D01*
X4264986Y2336100D01*
X4264602Y2336637D01*
X4264218Y2337137D01*
X4264179Y2337175D01*
X4264064Y2337329D01*
X4263872Y2337559D01*
X4263680Y2337828D01*
X4263104Y2338365D01*
X4262835Y2338634D01*
X4262528Y2338826D01*
X4262490Y2338865D01*
X4262413Y2338903D01*
X4262259Y2338980D01*
X4262067Y2339095D01*
X4261606Y2339325D01*
X4261030Y2339517D01*
X4260992D01*
X4260915Y2339556D01*
X4260762D01*
X4260570Y2339594D01*
X4260301Y2339633D01*
X4259994D01*
X4259610Y2339671D01*
X4255309D01*
Y2328458D01*
X4251968D01*
Y2353687D01*
X4263680D01*
X4263987Y2353649D01*
D02*
G37*
G36*
X4287757Y2227643D02*
X4284646D01*
Y2247381D01*
X4284608Y2247343D01*
X4284454Y2247189D01*
X4284186Y2246997D01*
X4283840Y2246728D01*
X4283418Y2246383D01*
X4282918Y2246037D01*
X4282342Y2245615D01*
X4281690Y2245231D01*
X4281651D01*
X4281613Y2245192D01*
X4281382Y2245039D01*
X4281037Y2244847D01*
X4280614Y2244616D01*
X4280115Y2244347D01*
X4279578Y2244117D01*
X4279002Y2243848D01*
X4278464Y2243618D01*
Y2246651D01*
X4278502D01*
X4278579Y2246690D01*
X4278733Y2246767D01*
X4278886Y2246882D01*
X4279117Y2246997D01*
X4279386Y2247112D01*
X4280000Y2247458D01*
X4280691Y2247880D01*
X4281459Y2248379D01*
X4282227Y2248955D01*
X4282957Y2249570D01*
X4282995Y2249608D01*
X4283034Y2249647D01*
X4283264Y2249877D01*
X4283610Y2250223D01*
X4284032Y2250645D01*
X4284493Y2251183D01*
X4284954Y2251759D01*
X4285376Y2252373D01*
X4285722Y2252987D01*
X4287757D01*
Y2227643D01*
D02*
G37*
G36*
X4263987Y2252834D02*
X4264294D01*
X4265062Y2252795D01*
X4265869Y2252719D01*
X4266714Y2252565D01*
X4267520Y2252411D01*
X4267904Y2252296D01*
X4268250Y2252181D01*
X4268288D01*
X4268326Y2252143D01*
X4268557Y2252066D01*
X4268864Y2251874D01*
X4269248Y2251605D01*
X4269709Y2251298D01*
X4270170Y2250875D01*
X4270630Y2250376D01*
X4271053Y2249762D01*
X4271091Y2249685D01*
X4271206Y2249455D01*
X4271398Y2249109D01*
X4271590Y2248648D01*
X4271782Y2248072D01*
X4271974Y2247419D01*
X4272090Y2246728D01*
X4272128Y2245960D01*
Y2245922D01*
Y2245845D01*
Y2245691D01*
X4272090Y2245499D01*
Y2245269D01*
X4272051Y2245000D01*
X4271898Y2244386D01*
X4271706Y2243656D01*
X4271398Y2242927D01*
X4270938Y2242159D01*
X4270669Y2241775D01*
X4270362Y2241429D01*
X4270285Y2241352D01*
X4270170Y2241275D01*
X4270054Y2241122D01*
X4269862Y2241007D01*
X4269632Y2240815D01*
X4269363Y2240661D01*
X4269056Y2240469D01*
X4268710Y2240277D01*
X4268288Y2240085D01*
X4267866Y2239893D01*
X4267366Y2239701D01*
X4266867Y2239509D01*
X4266291Y2239355D01*
X4265677Y2239240D01*
X4265024Y2239125D01*
X4265101Y2239087D01*
X4265254Y2239010D01*
X4265485Y2238895D01*
X4265754Y2238741D01*
X4266406Y2238319D01*
X4266752Y2238088D01*
X4267021Y2237858D01*
X4267098Y2237781D01*
X4267290Y2237627D01*
X4267558Y2237320D01*
X4267904Y2236936D01*
X4268326Y2236437D01*
X4268787Y2235861D01*
X4269286Y2235208D01*
X4269786Y2234479D01*
X4274163Y2227643D01*
X4269978D01*
X4266637Y2232866D01*
Y2232904D01*
X4266560Y2232981D01*
X4266483Y2233096D01*
X4266406Y2233250D01*
X4266138Y2233634D01*
X4265792Y2234133D01*
X4265408Y2234709D01*
X4264986Y2235285D01*
X4264602Y2235823D01*
X4264218Y2236322D01*
X4264179Y2236360D01*
X4264064Y2236514D01*
X4263872Y2236744D01*
X4263680Y2237013D01*
X4263104Y2237551D01*
X4262835Y2237819D01*
X4262528Y2238011D01*
X4262490Y2238050D01*
X4262413Y2238088D01*
X4262259Y2238165D01*
X4262067Y2238280D01*
X4261606Y2238511D01*
X4261030Y2238703D01*
X4260992D01*
X4260915Y2238741D01*
X4260762D01*
X4260570Y2238779D01*
X4260301Y2238818D01*
X4259994D01*
X4259610Y2238856D01*
X4255309D01*
Y2227643D01*
X4251968D01*
Y2252872D01*
X4263680D01*
X4263987Y2252834D01*
D02*
G37*
G36*
X4304614Y2252949D02*
X4305075Y2252872D01*
X4305613Y2252795D01*
X4306227Y2252642D01*
X4306842Y2252411D01*
X4307418Y2252143D01*
X4307494Y2252104D01*
X4307686Y2251989D01*
X4307955Y2251797D01*
X4308339Y2251567D01*
X4308723Y2251221D01*
X4309146Y2250799D01*
X4309568Y2250338D01*
X4309952Y2249800D01*
X4309990Y2249723D01*
X4310106Y2249531D01*
X4310298Y2249186D01*
X4310528Y2248763D01*
X4310758Y2248226D01*
X4311027Y2247573D01*
X4311296Y2246843D01*
X4311526Y2246037D01*
Y2245999D01*
X4311565Y2245922D01*
Y2245807D01*
X4311603Y2245615D01*
X4311680Y2245423D01*
X4311718Y2245154D01*
X4311757Y2244808D01*
X4311834Y2244463D01*
X4311872Y2244040D01*
X4311910Y2243618D01*
X4311987Y2243119D01*
X4312026Y2242581D01*
X4312064Y2242005D01*
Y2241429D01*
X4312102Y2240085D01*
Y2240047D01*
Y2239893D01*
Y2239663D01*
Y2239355D01*
X4312064Y2238971D01*
Y2238549D01*
X4312026Y2238050D01*
X4311987Y2237512D01*
X4311872Y2236360D01*
X4311718Y2235170D01*
X4311488Y2233979D01*
X4311334Y2233442D01*
X4311181Y2232904D01*
Y2232866D01*
X4311142Y2232789D01*
X4311104Y2232635D01*
X4311027Y2232443D01*
X4310912Y2232213D01*
X4310797Y2231983D01*
X4310490Y2231368D01*
X4310106Y2230677D01*
X4309645Y2229986D01*
X4309107Y2229295D01*
X4308454Y2228680D01*
X4308416D01*
X4308378Y2228603D01*
X4308262Y2228565D01*
X4308147Y2228450D01*
X4307725Y2228219D01*
X4307226Y2227951D01*
X4306534Y2227682D01*
X4305766Y2227451D01*
X4304883Y2227298D01*
X4303885Y2227221D01*
X4303539D01*
X4303270Y2227259D01*
X4302963Y2227298D01*
X4302618Y2227375D01*
X4302234Y2227451D01*
X4301811Y2227528D01*
X4300890Y2227835D01*
X4300390Y2228066D01*
X4299930Y2228296D01*
X4299430Y2228603D01*
X4298970Y2228949D01*
X4298547Y2229333D01*
X4298125Y2229794D01*
X4298086Y2229832D01*
X4298010Y2229947D01*
X4297894Y2230139D01*
X4297741Y2230408D01*
X4297549Y2230754D01*
X4297357Y2231176D01*
X4297126Y2231675D01*
X4296896Y2232290D01*
X4296666Y2232943D01*
X4296435Y2233711D01*
X4296243Y2234555D01*
X4296051Y2235477D01*
X4295898Y2236514D01*
X4295782Y2237589D01*
X4295706Y2238818D01*
X4295667Y2240085D01*
Y2240123D01*
Y2240277D01*
Y2240507D01*
Y2240815D01*
X4295706Y2241199D01*
Y2241621D01*
X4295744Y2242120D01*
X4295782Y2242658D01*
X4295898Y2243810D01*
X4296051Y2245000D01*
X4296243Y2246191D01*
X4296397Y2246728D01*
X4296550Y2247266D01*
Y2247304D01*
X4296589Y2247381D01*
X4296666Y2247535D01*
X4296742Y2247727D01*
X4296819Y2247957D01*
X4296934Y2248226D01*
X4297242Y2248840D01*
X4297626Y2249531D01*
X4298086Y2250223D01*
X4298624Y2250875D01*
X4299277Y2251490D01*
X4299315D01*
X4299354Y2251567D01*
X4299469Y2251643D01*
X4299622Y2251720D01*
X4300006Y2251951D01*
X4300544Y2252258D01*
X4301197Y2252527D01*
X4302003Y2252757D01*
X4302886Y2252911D01*
X4303885Y2252987D01*
X4304230D01*
X4304614Y2252949D01*
D02*
G37*
G36*
X4284416Y2151712D02*
X4284608D01*
X4284877Y2151673D01*
X4285491Y2151597D01*
X4286182Y2151405D01*
X4286912Y2151174D01*
X4287718Y2150867D01*
X4288486Y2150406D01*
X4288525D01*
X4288563Y2150329D01*
X4288678Y2150253D01*
X4288832Y2150176D01*
X4289178Y2149869D01*
X4289638Y2149446D01*
X4290138Y2148870D01*
X4290675Y2148256D01*
X4291174Y2147488D01*
X4291597Y2146604D01*
Y2146566D01*
X4291635Y2146489D01*
X4291712Y2146336D01*
X4291750Y2146144D01*
X4291866Y2145913D01*
X4291942Y2145606D01*
X4292019Y2145222D01*
X4292134Y2144800D01*
X4292250Y2144339D01*
X4292326Y2143801D01*
X4292442Y2143225D01*
X4292518Y2142611D01*
X4292557Y2141920D01*
X4292634Y2141190D01*
X4292672Y2140384D01*
Y2139539D01*
Y2139501D01*
Y2139309D01*
Y2139078D01*
Y2138733D01*
X4292634Y2138349D01*
Y2137849D01*
X4292595Y2137350D01*
X4292557Y2136774D01*
X4292403Y2135545D01*
X4292211Y2134240D01*
X4291942Y2132972D01*
X4291789Y2132396D01*
X4291597Y2131820D01*
Y2131782D01*
X4291558Y2131705D01*
X4291482Y2131552D01*
X4291405Y2131360D01*
X4291290Y2131091D01*
X4291174Y2130822D01*
X4290829Y2130208D01*
X4290368Y2129478D01*
X4289830Y2128749D01*
X4289216Y2128057D01*
X4288486Y2127443D01*
X4288448D01*
X4288410Y2127366D01*
X4288294Y2127328D01*
X4288102Y2127213D01*
X4287910Y2127097D01*
X4287680Y2126982D01*
X4287104Y2126713D01*
X4286374Y2126445D01*
X4285568Y2126214D01*
X4284608Y2126061D01*
X4283610Y2125984D01*
X4283341D01*
X4283110Y2126022D01*
X4282880D01*
X4282573Y2126061D01*
X4281882Y2126176D01*
X4281114Y2126368D01*
X4280307Y2126675D01*
X4279539Y2127059D01*
X4278771Y2127597D01*
X4278733Y2127635D01*
X4278694Y2127673D01*
X4278464Y2127904D01*
X4278157Y2128288D01*
X4277773Y2128787D01*
X4277389Y2129440D01*
X4277043Y2130246D01*
X4276736Y2131168D01*
X4276544Y2132243D01*
X4279501Y2132473D01*
Y2132435D01*
Y2132396D01*
X4279539Y2132281D01*
X4279578Y2132128D01*
X4279654Y2131744D01*
X4279808Y2131321D01*
X4280000Y2130822D01*
X4280230Y2130323D01*
X4280538Y2129824D01*
X4280922Y2129440D01*
X4280960Y2129401D01*
X4281114Y2129286D01*
X4281344Y2129133D01*
X4281690Y2128979D01*
X4282074Y2128825D01*
X4282534Y2128672D01*
X4283072Y2128557D01*
X4283686Y2128518D01*
X4283917D01*
X4284186Y2128557D01*
X4284531Y2128595D01*
X4284915Y2128672D01*
X4285338Y2128787D01*
X4285760Y2128941D01*
X4286182Y2129171D01*
X4286221Y2129209D01*
X4286374Y2129286D01*
X4286566Y2129440D01*
X4286797Y2129632D01*
X4287104Y2129862D01*
X4287373Y2130169D01*
X4287680Y2130515D01*
X4287949Y2130899D01*
X4287987Y2130937D01*
X4288064Y2131091D01*
X4288179Y2131360D01*
X4288371Y2131705D01*
X4288525Y2132128D01*
X4288717Y2132627D01*
X4288909Y2133203D01*
X4289101Y2133856D01*
Y2133894D01*
X4289139Y2133932D01*
Y2134048D01*
X4289178Y2134163D01*
X4289254Y2134547D01*
X4289331Y2135046D01*
X4289408Y2135622D01*
X4289485Y2136236D01*
X4289562Y2136928D01*
Y2137657D01*
Y2137696D01*
Y2137811D01*
Y2138003D01*
Y2138272D01*
X4289523Y2138195D01*
X4289370Y2138041D01*
X4289178Y2137734D01*
X4288870Y2137427D01*
X4288525Y2137043D01*
X4288064Y2136620D01*
X4287565Y2136236D01*
X4286989Y2135852D01*
X4286912Y2135814D01*
X4286720Y2135699D01*
X4286374Y2135584D01*
X4285952Y2135430D01*
X4285453Y2135238D01*
X4284877Y2135123D01*
X4284224Y2135008D01*
X4283533Y2134969D01*
X4283226D01*
X4282995Y2135008D01*
X4282726Y2135046D01*
X4282419Y2135084D01*
X4281690Y2135238D01*
X4280845Y2135507D01*
X4280422Y2135699D01*
X4279962Y2135929D01*
X4279539Y2136198D01*
X4279078Y2136505D01*
X4278656Y2136851D01*
X4278234Y2137235D01*
X4278195Y2137273D01*
X4278157Y2137350D01*
X4278042Y2137465D01*
X4277888Y2137657D01*
X4277734Y2137888D01*
X4277542Y2138157D01*
X4277350Y2138464D01*
X4277158Y2138848D01*
X4276966Y2139232D01*
X4276774Y2139693D01*
X4276582Y2140192D01*
X4276429Y2140729D01*
X4276275Y2141305D01*
X4276160Y2141881D01*
X4276122Y2142534D01*
X4276083Y2143225D01*
Y2143264D01*
Y2143379D01*
Y2143609D01*
X4276122Y2143878D01*
X4276160Y2144185D01*
X4276198Y2144569D01*
X4276275Y2144992D01*
X4276352Y2145452D01*
X4276621Y2146412D01*
X4276813Y2146950D01*
X4277043Y2147449D01*
X4277274Y2147987D01*
X4277581Y2148486D01*
X4277926Y2148947D01*
X4278310Y2149408D01*
X4278349Y2149446D01*
X4278426Y2149523D01*
X4278541Y2149638D01*
X4278733Y2149792D01*
X4278925Y2149945D01*
X4279194Y2150137D01*
X4279501Y2150368D01*
X4279885Y2150598D01*
X4280269Y2150790D01*
X4280691Y2151021D01*
X4281651Y2151405D01*
X4282189Y2151520D01*
X4282765Y2151635D01*
X4283379Y2151712D01*
X4283994Y2151750D01*
X4284224D01*
X4284416Y2151712D01*
D02*
G37*
G36*
X4263987Y2151597D02*
X4264294D01*
X4265062Y2151558D01*
X4265869Y2151481D01*
X4266714Y2151328D01*
X4267520Y2151174D01*
X4267904Y2151059D01*
X4268250Y2150944D01*
X4268288D01*
X4268326Y2150905D01*
X4268557Y2150829D01*
X4268864Y2150637D01*
X4269248Y2150368D01*
X4269709Y2150061D01*
X4270170Y2149638D01*
X4270630Y2149139D01*
X4271053Y2148524D01*
X4271091Y2148448D01*
X4271206Y2148217D01*
X4271398Y2147872D01*
X4271590Y2147411D01*
X4271782Y2146835D01*
X4271974Y2146182D01*
X4272090Y2145491D01*
X4272128Y2144723D01*
Y2144684D01*
Y2144608D01*
Y2144454D01*
X4272090Y2144262D01*
Y2144032D01*
X4272051Y2143763D01*
X4271898Y2143148D01*
X4271706Y2142419D01*
X4271398Y2141689D01*
X4270938Y2140921D01*
X4270669Y2140537D01*
X4270362Y2140192D01*
X4270285Y2140115D01*
X4270170Y2140038D01*
X4270054Y2139885D01*
X4269862Y2139769D01*
X4269632Y2139577D01*
X4269363Y2139424D01*
X4269056Y2139232D01*
X4268710Y2139040D01*
X4268288Y2138848D01*
X4267866Y2138656D01*
X4267366Y2138464D01*
X4266867Y2138272D01*
X4266291Y2138118D01*
X4265677Y2138003D01*
X4265024Y2137888D01*
X4265101Y2137849D01*
X4265254Y2137773D01*
X4265485Y2137657D01*
X4265754Y2137504D01*
X4266406Y2137081D01*
X4266752Y2136851D01*
X4267021Y2136620D01*
X4267098Y2136544D01*
X4267290Y2136390D01*
X4267558Y2136083D01*
X4267904Y2135699D01*
X4268326Y2135200D01*
X4268787Y2134624D01*
X4269286Y2133971D01*
X4269786Y2133241D01*
X4274163Y2126406D01*
X4269978D01*
X4266637Y2131628D01*
Y2131667D01*
X4266560Y2131744D01*
X4266483Y2131859D01*
X4266406Y2132012D01*
X4266138Y2132396D01*
X4265792Y2132896D01*
X4265408Y2133472D01*
X4264986Y2134048D01*
X4264602Y2134585D01*
X4264218Y2135084D01*
X4264179Y2135123D01*
X4264064Y2135276D01*
X4263872Y2135507D01*
X4263680Y2135776D01*
X4263104Y2136313D01*
X4262835Y2136582D01*
X4262528Y2136774D01*
X4262490Y2136812D01*
X4262413Y2136851D01*
X4262259Y2136928D01*
X4262067Y2137043D01*
X4261606Y2137273D01*
X4261030Y2137465D01*
X4260992D01*
X4260915Y2137504D01*
X4260762D01*
X4260570Y2137542D01*
X4260301Y2137581D01*
X4259994D01*
X4259610Y2137619D01*
X4255309D01*
Y2126406D01*
X4251968D01*
Y2151635D01*
X4263680D01*
X4263987Y2151597D01*
D02*
G37*
G36*
X3359252Y2089349D02*
X3347540D01*
X3347233Y2089387D01*
X3346926D01*
X3346158Y2089426D01*
X3345352Y2089503D01*
X3344507Y2089656D01*
X3343700Y2089810D01*
X3343316Y2089925D01*
X3342971Y2090040D01*
X3342932D01*
X3342894Y2090079D01*
X3342664Y2090155D01*
X3342356Y2090347D01*
X3341972Y2090616D01*
X3341512Y2090923D01*
X3341051Y2091346D01*
X3340590Y2091845D01*
X3340168Y2092459D01*
X3340129Y2092536D01*
X3340014Y2092767D01*
X3339822Y2093112D01*
X3339630Y2093573D01*
X3339438Y2094149D01*
X3339246Y2094802D01*
X3339131Y2095493D01*
X3339092Y2096261D01*
Y2096300D01*
Y2096376D01*
Y2096530D01*
X3339131Y2096722D01*
Y2096952D01*
X3339169Y2097221D01*
X3339323Y2097836D01*
X3339515Y2098565D01*
X3339822Y2099295D01*
X3340283Y2100063D01*
X3340552Y2100447D01*
X3340859Y2100792D01*
X3340936Y2100869D01*
X3341051Y2100946D01*
X3341166Y2101099D01*
X3341358Y2101215D01*
X3341588Y2101407D01*
X3341857Y2101560D01*
X3342164Y2101752D01*
X3342510Y2101944D01*
X3342932Y2102136D01*
X3343355Y2102328D01*
X3343854Y2102520D01*
X3344353Y2102712D01*
X3344929Y2102866D01*
X3345544Y2102981D01*
X3346196Y2103096D01*
X3346119Y2103135D01*
X3345966Y2103211D01*
X3345735Y2103327D01*
X3345467Y2103480D01*
X3344814Y2103903D01*
X3344468Y2104133D01*
X3344200Y2104363D01*
X3344123Y2104440D01*
X3343931Y2104594D01*
X3343662Y2104901D01*
X3343316Y2105285D01*
X3342894Y2105784D01*
X3342433Y2106360D01*
X3341934Y2107013D01*
X3341435Y2107743D01*
X3337057Y2114578D01*
X3341243D01*
X3344584Y2109356D01*
Y2109317D01*
X3344660Y2109240D01*
X3344737Y2109125D01*
X3344814Y2108972D01*
X3345083Y2108588D01*
X3345428Y2108088D01*
X3345812Y2107512D01*
X3346235Y2106936D01*
X3346619Y2106399D01*
X3347003Y2105899D01*
X3347041Y2105861D01*
X3347156Y2105707D01*
X3347348Y2105477D01*
X3347540Y2105208D01*
X3348116Y2104671D01*
X3348385Y2104402D01*
X3348692Y2104210D01*
X3348731Y2104171D01*
X3348807Y2104133D01*
X3348961Y2104056D01*
X3349153Y2103941D01*
X3349614Y2103711D01*
X3350190Y2103519D01*
X3350228D01*
X3350305Y2103480D01*
X3350459D01*
X3350651Y2103442D01*
X3350919Y2103403D01*
X3351227D01*
X3351611Y2103365D01*
X3355912D01*
Y2114578D01*
X3359252D01*
Y2089349D01*
D02*
G37*
G36*
X3327495Y2114962D02*
X3327803Y2114923D01*
X3328187Y2114885D01*
X3328571Y2114808D01*
X3329032Y2114731D01*
X3329992Y2114463D01*
X3330491Y2114271D01*
X3330990Y2114079D01*
X3331489Y2113810D01*
X3331988Y2113541D01*
X3332449Y2113195D01*
X3332910Y2112811D01*
X3332948Y2112773D01*
X3333025Y2112696D01*
X3333102Y2112581D01*
X3333256Y2112427D01*
X3333448Y2112197D01*
X3333640Y2111928D01*
X3333831Y2111621D01*
X3334023Y2111276D01*
X3334254Y2110892D01*
X3334446Y2110469D01*
X3334830Y2109548D01*
X3334983Y2109010D01*
X3335060Y2108472D01*
X3335137Y2107896D01*
X3335175Y2107282D01*
Y2107244D01*
Y2107167D01*
Y2107052D01*
X3335137Y2106860D01*
Y2106668D01*
X3335099Y2106399D01*
X3335022Y2105861D01*
X3334868Y2105208D01*
X3334638Y2104517D01*
X3334369Y2103826D01*
X3333947Y2103173D01*
Y2103135D01*
X3333870Y2103096D01*
X3333716Y2102904D01*
X3333409Y2102597D01*
X3333025Y2102251D01*
X3332526Y2101867D01*
X3331912Y2101483D01*
X3331182Y2101138D01*
X3330376Y2100869D01*
X3330414D01*
X3330452Y2100831D01*
X3330683Y2100754D01*
X3331028Y2100562D01*
X3331451Y2100370D01*
X3331950Y2100063D01*
X3332411Y2099717D01*
X3332872Y2099333D01*
X3333256Y2098872D01*
X3333294Y2098796D01*
X3333409Y2098642D01*
X3333563Y2098373D01*
X3333716Y2097989D01*
X3333870Y2097528D01*
X3334023Y2096991D01*
X3334139Y2096415D01*
X3334177Y2095762D01*
Y2095724D01*
Y2095647D01*
Y2095493D01*
X3334139Y2095301D01*
X3334100Y2095071D01*
X3334062Y2094802D01*
X3333947Y2094149D01*
X3333716Y2093419D01*
X3333332Y2092651D01*
X3333140Y2092229D01*
X3332872Y2091845D01*
X3332564Y2091461D01*
X3332219Y2091115D01*
X3332180Y2091077D01*
X3332142Y2091039D01*
X3332027Y2090923D01*
X3331873Y2090808D01*
X3331643Y2090693D01*
X3331412Y2090501D01*
X3331144Y2090347D01*
X3330798Y2090155D01*
X3330068Y2089810D01*
X3329147Y2089541D01*
X3328110Y2089311D01*
X3327572Y2089272D01*
X3326958Y2089234D01*
X3326651D01*
X3326420Y2089272D01*
X3326113D01*
X3325806Y2089349D01*
X3325038Y2089464D01*
X3324193Y2089695D01*
X3323310Y2090040D01*
X3322849Y2090271D01*
X3322427Y2090501D01*
X3322004Y2090808D01*
X3321620Y2091154D01*
X3321582Y2091192D01*
X3321544Y2091231D01*
X3321428Y2091346D01*
X3321313Y2091499D01*
X3321160Y2091691D01*
X3320968Y2091922D01*
X3320584Y2092459D01*
X3320238Y2093151D01*
X3319892Y2093957D01*
X3319662Y2094840D01*
X3319624Y2095340D01*
X3319585Y2095839D01*
Y2095916D01*
Y2096146D01*
X3319624Y2096453D01*
X3319700Y2096876D01*
X3319816Y2097375D01*
X3319969Y2097874D01*
X3320200Y2098412D01*
X3320507Y2098911D01*
X3320545Y2098949D01*
X3320660Y2099103D01*
X3320891Y2099333D01*
X3321198Y2099640D01*
X3321582Y2099948D01*
X3322081Y2100255D01*
X3322657Y2100600D01*
X3323310Y2100869D01*
X3323271D01*
X3323195Y2100907D01*
X3323079Y2100946D01*
X3322926Y2101023D01*
X3322503Y2101215D01*
X3322004Y2101445D01*
X3321428Y2101791D01*
X3320852Y2102213D01*
X3320276Y2102751D01*
X3319777Y2103327D01*
X3319739Y2103403D01*
X3319585Y2103634D01*
X3319393Y2103979D01*
X3319163Y2104479D01*
X3318932Y2105055D01*
X3318740Y2105746D01*
X3318587Y2106514D01*
X3318548Y2107359D01*
Y2107397D01*
Y2107512D01*
Y2107666D01*
X3318587Y2107896D01*
X3318625Y2108165D01*
X3318664Y2108511D01*
X3318817Y2109279D01*
X3319124Y2110124D01*
X3319278Y2110584D01*
X3319508Y2111045D01*
X3319777Y2111506D01*
X3320084Y2111967D01*
X3320430Y2112389D01*
X3320852Y2112811D01*
X3320891Y2112850D01*
X3320968Y2112888D01*
X3321083Y2113003D01*
X3321275Y2113157D01*
X3321505Y2113311D01*
X3321774Y2113503D01*
X3322081Y2113695D01*
X3322465Y2113887D01*
X3322887Y2114117D01*
X3323348Y2114309D01*
X3323847Y2114501D01*
X3324385Y2114655D01*
X3324923Y2114808D01*
X3325537Y2114923D01*
X3326190Y2114962D01*
X3326881Y2115000D01*
X3327227D01*
X3327495Y2114962D01*
D02*
G37*
G36*
X3359252Y2206914D02*
X3347540D01*
X3347233Y2206953D01*
X3346926D01*
X3346158Y2206991D01*
X3345352Y2207068D01*
X3344507Y2207222D01*
X3343700Y2207375D01*
X3343316Y2207490D01*
X3342971Y2207606D01*
X3342932D01*
X3342894Y2207644D01*
X3342664Y2207721D01*
X3342356Y2207913D01*
X3341972Y2208182D01*
X3341512Y2208489D01*
X3341051Y2208911D01*
X3340590Y2209410D01*
X3340168Y2210025D01*
X3340129Y2210102D01*
X3340014Y2210332D01*
X3339822Y2210677D01*
X3339630Y2211138D01*
X3339438Y2211714D01*
X3339246Y2212367D01*
X3339131Y2213058D01*
X3339092Y2213826D01*
Y2213865D01*
Y2213941D01*
Y2214095D01*
X3339131Y2214287D01*
Y2214517D01*
X3339169Y2214786D01*
X3339323Y2215401D01*
X3339515Y2216130D01*
X3339822Y2216860D01*
X3340283Y2217628D01*
X3340552Y2218012D01*
X3340859Y2218358D01*
X3340936Y2218434D01*
X3341051Y2218511D01*
X3341166Y2218665D01*
X3341358Y2218780D01*
X3341588Y2218972D01*
X3341857Y2219126D01*
X3342164Y2219318D01*
X3342510Y2219510D01*
X3342932Y2219702D01*
X3343355Y2219894D01*
X3343854Y2220086D01*
X3344353Y2220278D01*
X3344929Y2220431D01*
X3345544Y2220546D01*
X3346196Y2220662D01*
X3346119Y2220700D01*
X3345966Y2220777D01*
X3345735Y2220892D01*
X3345467Y2221046D01*
X3344814Y2221468D01*
X3344468Y2221698D01*
X3344200Y2221929D01*
X3344123Y2222006D01*
X3343931Y2222159D01*
X3343662Y2222466D01*
X3343316Y2222850D01*
X3342894Y2223349D01*
X3342433Y2223925D01*
X3341934Y2224578D01*
X3341435Y2225308D01*
X3337057Y2232143D01*
X3341243D01*
X3344584Y2226921D01*
Y2226882D01*
X3344660Y2226805D01*
X3344737Y2226690D01*
X3344814Y2226537D01*
X3345083Y2226153D01*
X3345428Y2225653D01*
X3345812Y2225077D01*
X3346235Y2224501D01*
X3346619Y2223964D01*
X3347003Y2223465D01*
X3347041Y2223426D01*
X3347156Y2223273D01*
X3347348Y2223042D01*
X3347540Y2222773D01*
X3348116Y2222236D01*
X3348385Y2221967D01*
X3348692Y2221775D01*
X3348731Y2221737D01*
X3348807Y2221698D01*
X3348961Y2221622D01*
X3349153Y2221506D01*
X3349614Y2221276D01*
X3350190Y2221084D01*
X3350228D01*
X3350305Y2221046D01*
X3350459D01*
X3350651Y2221007D01*
X3350919Y2220969D01*
X3351227D01*
X3351611Y2220930D01*
X3355912D01*
Y2232143D01*
X3359252D01*
Y2206914D01*
D02*
G37*
G36*
X3331412Y2232105D02*
Y2231990D01*
Y2231836D01*
X3331374Y2231606D01*
Y2231337D01*
X3331336Y2230991D01*
X3331297Y2230569D01*
X3331259Y2230146D01*
X3331182Y2229647D01*
X3331105Y2229071D01*
X3331028Y2228495D01*
X3330913Y2227881D01*
X3330798Y2227189D01*
X3330644Y2226498D01*
X3330260Y2224962D01*
Y2224924D01*
X3330222Y2224770D01*
X3330145Y2224540D01*
X3330068Y2224233D01*
X3329953Y2223849D01*
X3329800Y2223426D01*
X3329646Y2222927D01*
X3329454Y2222351D01*
X3329224Y2221775D01*
X3328993Y2221122D01*
X3328456Y2219740D01*
X3327803Y2218281D01*
X3327073Y2216822D01*
X3327035Y2216783D01*
X3326958Y2216630D01*
X3326843Y2216438D01*
X3326689Y2216169D01*
X3326497Y2215823D01*
X3326267Y2215439D01*
X3325998Y2215017D01*
X3325729Y2214517D01*
X3325038Y2213481D01*
X3324270Y2212367D01*
X3323463Y2211253D01*
X3322580Y2210178D01*
X3334945D01*
Y2207222D01*
X3318625D01*
Y2209641D01*
X3318664Y2209679D01*
X3318740Y2209756D01*
X3318856Y2209910D01*
X3319048Y2210102D01*
X3319240Y2210370D01*
X3319508Y2210677D01*
X3319816Y2211061D01*
X3320123Y2211445D01*
X3320468Y2211906D01*
X3320852Y2212444D01*
X3321275Y2212981D01*
X3321659Y2213596D01*
X3322081Y2214249D01*
X3322542Y2214940D01*
X3322964Y2215708D01*
X3323425Y2216476D01*
X3323463Y2216514D01*
X3323540Y2216668D01*
X3323655Y2216898D01*
X3323809Y2217206D01*
X3324001Y2217590D01*
X3324231Y2218050D01*
X3324500Y2218588D01*
X3324769Y2219164D01*
X3325038Y2219778D01*
X3325345Y2220470D01*
X3325652Y2221199D01*
X3325959Y2221967D01*
X3326535Y2223541D01*
X3327073Y2225231D01*
Y2225269D01*
X3327111Y2225385D01*
X3327150Y2225538D01*
X3327227Y2225769D01*
X3327303Y2226076D01*
X3327380Y2226421D01*
X3327457Y2226844D01*
X3327572Y2227266D01*
X3327649Y2227765D01*
X3327764Y2228303D01*
X3327956Y2229455D01*
X3328110Y2230761D01*
X3328225Y2232143D01*
X3331412D01*
Y2232105D01*
D02*
G37*
G36*
X3359252Y2323635D02*
X3347540D01*
X3347233Y2323673D01*
X3346926D01*
X3346158Y2323711D01*
X3345352Y2323788D01*
X3344507Y2323942D01*
X3343700Y2324095D01*
X3343316Y2324211D01*
X3342971Y2324326D01*
X3342932D01*
X3342894Y2324364D01*
X3342664Y2324441D01*
X3342356Y2324633D01*
X3341972Y2324902D01*
X3341512Y2325209D01*
X3341051Y2325631D01*
X3340590Y2326131D01*
X3340168Y2326745D01*
X3340129Y2326822D01*
X3340014Y2327052D01*
X3339822Y2327398D01*
X3339630Y2327859D01*
X3339438Y2328435D01*
X3339246Y2329088D01*
X3339131Y2329779D01*
X3339092Y2330547D01*
Y2330585D01*
Y2330662D01*
Y2330816D01*
X3339131Y2331008D01*
Y2331238D01*
X3339169Y2331507D01*
X3339323Y2332121D01*
X3339515Y2332851D01*
X3339822Y2333580D01*
X3340283Y2334348D01*
X3340552Y2334732D01*
X3340859Y2335078D01*
X3340936Y2335155D01*
X3341051Y2335231D01*
X3341166Y2335385D01*
X3341358Y2335500D01*
X3341588Y2335692D01*
X3341857Y2335846D01*
X3342164Y2336038D01*
X3342510Y2336230D01*
X3342932Y2336422D01*
X3343355Y2336614D01*
X3343854Y2336806D01*
X3344353Y2336998D01*
X3344929Y2337151D01*
X3345544Y2337267D01*
X3346196Y2337382D01*
X3346119Y2337420D01*
X3345966Y2337497D01*
X3345735Y2337612D01*
X3345467Y2337766D01*
X3344814Y2338188D01*
X3344468Y2338419D01*
X3344200Y2338649D01*
X3344123Y2338726D01*
X3343931Y2338880D01*
X3343662Y2339187D01*
X3343316Y2339571D01*
X3342894Y2340070D01*
X3342433Y2340646D01*
X3341934Y2341299D01*
X3341435Y2342028D01*
X3337057Y2348863D01*
X3341243D01*
X3344584Y2343641D01*
Y2343603D01*
X3344660Y2343526D01*
X3344737Y2343411D01*
X3344814Y2343257D01*
X3345083Y2342873D01*
X3345428Y2342374D01*
X3345812Y2341798D01*
X3346235Y2341222D01*
X3346619Y2340684D01*
X3347003Y2340185D01*
X3347041Y2340147D01*
X3347156Y2339993D01*
X3347348Y2339763D01*
X3347540Y2339494D01*
X3348116Y2338956D01*
X3348385Y2338688D01*
X3348692Y2338495D01*
X3348731Y2338457D01*
X3348807Y2338419D01*
X3348961Y2338342D01*
X3349153Y2338227D01*
X3349614Y2337996D01*
X3350190Y2337804D01*
X3350228D01*
X3350305Y2337766D01*
X3350459D01*
X3350651Y2337727D01*
X3350919Y2337689D01*
X3351227D01*
X3351611Y2337651D01*
X3355912D01*
Y2348863D01*
X3359252D01*
Y2323635D01*
D02*
G37*
G36*
X3326919Y2349247D02*
X3327188D01*
X3327495Y2349209D01*
X3327880Y2349132D01*
X3328302Y2349055D01*
X3328763Y2348940D01*
X3329262Y2348787D01*
X3329800Y2348595D01*
X3330299Y2348364D01*
X3330836Y2348095D01*
X3331374Y2347750D01*
X3331912Y2347366D01*
X3332411Y2346943D01*
X3332872Y2346444D01*
X3332910Y2346406D01*
X3332987Y2346291D01*
X3333102Y2346137D01*
X3333256Y2345907D01*
X3333448Y2345599D01*
X3333640Y2345215D01*
X3333870Y2344755D01*
X3334062Y2344217D01*
X3334292Y2343603D01*
X3334523Y2342912D01*
X3334715Y2342144D01*
X3334907Y2341299D01*
X3335060Y2340377D01*
X3335175Y2339340D01*
X3335252Y2338265D01*
X3335291Y2337075D01*
Y2337036D01*
Y2336998D01*
Y2336883D01*
Y2336767D01*
Y2336383D01*
X3335252Y2335884D01*
X3335214Y2335270D01*
X3335137Y2334579D01*
X3335060Y2333811D01*
X3334945Y2333004D01*
X3334830Y2332121D01*
X3334638Y2331238D01*
X3334407Y2330355D01*
X3334139Y2329510D01*
X3333831Y2328627D01*
X3333486Y2327859D01*
X3333064Y2327091D01*
X3332603Y2326438D01*
X3332564Y2326399D01*
X3332488Y2326323D01*
X3332372Y2326169D01*
X3332180Y2325977D01*
X3331912Y2325747D01*
X3331643Y2325516D01*
X3331297Y2325247D01*
X3330913Y2324979D01*
X3330491Y2324710D01*
X3329992Y2324441D01*
X3329492Y2324211D01*
X3328916Y2323980D01*
X3328302Y2323788D01*
X3327649Y2323635D01*
X3326958Y2323558D01*
X3326228Y2323519D01*
X3325959D01*
X3325729Y2323558D01*
X3325499D01*
X3325191Y2323596D01*
X3324500Y2323711D01*
X3323732Y2323942D01*
X3322926Y2324249D01*
X3322119Y2324633D01*
X3321735Y2324902D01*
X3321352Y2325209D01*
X3321313D01*
X3321275Y2325286D01*
X3321044Y2325516D01*
X3320737Y2325900D01*
X3320353Y2326399D01*
X3319931Y2327052D01*
X3319585Y2327820D01*
X3319240Y2328742D01*
X3319048Y2329779D01*
X3322119Y2330009D01*
Y2329971D01*
Y2329932D01*
X3322196Y2329702D01*
X3322311Y2329395D01*
X3322427Y2329011D01*
X3322811Y2328128D01*
X3323041Y2327744D01*
X3323310Y2327398D01*
X3323348Y2327321D01*
X3323540Y2327168D01*
X3323809Y2326976D01*
X3324155Y2326707D01*
X3324615Y2326476D01*
X3325153Y2326246D01*
X3325767Y2326092D01*
X3326420Y2326054D01*
X3326689D01*
X3326958Y2326092D01*
X3327303Y2326169D01*
X3327726Y2326246D01*
X3328187Y2326399D01*
X3328609Y2326630D01*
X3329070Y2326899D01*
X3329147Y2326937D01*
X3329300Y2327091D01*
X3329569Y2327360D01*
X3329876Y2327705D01*
X3330260Y2328128D01*
X3330644Y2328665D01*
X3331028Y2329318D01*
X3331374Y2330048D01*
Y2330086D01*
X3331412Y2330124D01*
X3331451Y2330278D01*
X3331489Y2330432D01*
X3331566Y2330624D01*
X3331643Y2330892D01*
X3331720Y2331200D01*
X3331796Y2331545D01*
X3331873Y2331929D01*
X3331950Y2332352D01*
X3332027Y2332851D01*
X3332104Y2333350D01*
X3332142Y2333926D01*
X3332180Y2334540D01*
X3332219Y2335193D01*
Y2335846D01*
X3332180Y2335807D01*
X3332027Y2335615D01*
X3331796Y2335308D01*
X3331451Y2334924D01*
X3331067Y2334502D01*
X3330606Y2334079D01*
X3330068Y2333695D01*
X3329492Y2333350D01*
X3329416Y2333311D01*
X3329224Y2333235D01*
X3328878Y2333081D01*
X3328456Y2332927D01*
X3327956Y2332774D01*
X3327380Y2332620D01*
X3326766Y2332544D01*
X3326113Y2332505D01*
X3325806D01*
X3325575Y2332544D01*
X3325307Y2332582D01*
X3324999Y2332620D01*
X3324270Y2332774D01*
X3323463Y2333081D01*
X3323003Y2333235D01*
X3322580Y2333465D01*
X3322119Y2333734D01*
X3321659Y2334041D01*
X3321236Y2334387D01*
X3320814Y2334809D01*
X3320776Y2334847D01*
X3320737Y2334924D01*
X3320622Y2335039D01*
X3320468Y2335231D01*
X3320315Y2335462D01*
X3320123Y2335731D01*
X3319931Y2336038D01*
X3319700Y2336383D01*
X3319508Y2336806D01*
X3319316Y2337228D01*
X3319124Y2337727D01*
X3318971Y2338227D01*
X3318817Y2338803D01*
X3318702Y2339379D01*
X3318664Y2340032D01*
X3318625Y2340684D01*
Y2340723D01*
Y2340800D01*
Y2340915D01*
Y2341068D01*
X3318664Y2341299D01*
Y2341529D01*
X3318740Y2342144D01*
X3318894Y2342796D01*
X3319048Y2343564D01*
X3319316Y2344332D01*
X3319662Y2345100D01*
Y2345139D01*
X3319700Y2345177D01*
X3319777Y2345292D01*
X3319854Y2345446D01*
X3320084Y2345791D01*
X3320392Y2346252D01*
X3320814Y2346751D01*
X3321313Y2347251D01*
X3321851Y2347750D01*
X3322503Y2348211D01*
X3322580Y2348249D01*
X3322811Y2348364D01*
X3323195Y2348556D01*
X3323655Y2348748D01*
X3324270Y2348940D01*
X3324961Y2349132D01*
X3325729Y2349247D01*
X3326535Y2349286D01*
X3326689D01*
X3326919Y2349247D01*
D02*
G37*
G36*
X3327649Y2466390D02*
X3327918Y2466352D01*
X3328264Y2466314D01*
X3328648Y2466275D01*
X3329070Y2466198D01*
X3329953Y2465968D01*
X3330875Y2465622D01*
X3331336Y2465392D01*
X3331796Y2465123D01*
X3332257Y2464854D01*
X3332680Y2464509D01*
X3332718Y2464470D01*
X3332756Y2464432D01*
X3332872Y2464317D01*
X3333025Y2464163D01*
X3333179Y2463971D01*
X3333371Y2463741D01*
X3333563Y2463472D01*
X3333793Y2463165D01*
X3334215Y2462435D01*
X3334638Y2461552D01*
X3334945Y2460553D01*
X3335060Y2459977D01*
X3335137Y2459401D01*
X3331873Y2459171D01*
Y2459209D01*
Y2459286D01*
X3331835Y2459401D01*
X3331796Y2459555D01*
X3331681Y2459977D01*
X3331528Y2460515D01*
X3331336Y2461091D01*
X3331028Y2461667D01*
X3330683Y2462243D01*
X3330222Y2462742D01*
X3330145Y2462781D01*
X3329992Y2462934D01*
X3329723Y2463088D01*
X3329339Y2463318D01*
X3328878Y2463510D01*
X3328340Y2463702D01*
X3327726Y2463856D01*
X3327073Y2463894D01*
X3326843D01*
X3326689Y2463856D01*
X3326267Y2463818D01*
X3325729Y2463702D01*
X3325153Y2463472D01*
X3324500Y2463203D01*
X3323886Y2462781D01*
X3323579Y2462550D01*
X3323271Y2462243D01*
Y2462205D01*
X3323195Y2462166D01*
X3323041Y2461936D01*
X3322772Y2461552D01*
X3322503Y2461053D01*
X3322235Y2460400D01*
X3321966Y2459632D01*
X3321812Y2458749D01*
X3321735Y2457750D01*
Y2457712D01*
Y2457635D01*
Y2457481D01*
X3321774Y2457328D01*
Y2457097D01*
X3321812Y2456829D01*
X3321927Y2456214D01*
X3322081Y2455561D01*
X3322350Y2454870D01*
X3322734Y2454179D01*
X3323233Y2453565D01*
X3323310Y2453488D01*
X3323502Y2453334D01*
X3323809Y2453066D01*
X3324270Y2452797D01*
X3324807Y2452528D01*
X3325499Y2452259D01*
X3326267Y2452106D01*
X3327111Y2452029D01*
X3327380D01*
X3327649Y2452067D01*
X3328033Y2452106D01*
X3328456Y2452221D01*
X3328916Y2452336D01*
X3329377Y2452528D01*
X3329838Y2452758D01*
X3329876Y2452797D01*
X3330030Y2452874D01*
X3330260Y2453027D01*
X3330529Y2453219D01*
X3330798Y2453488D01*
X3331105Y2453795D01*
X3331412Y2454141D01*
X3331681Y2454525D01*
X3334599Y2454102D01*
X3332142Y2441162D01*
X3319624D01*
Y2444118D01*
X3329684D01*
X3331067Y2450915D01*
X3331028Y2450877D01*
X3330952Y2450838D01*
X3330836Y2450762D01*
X3330683Y2450646D01*
X3330452Y2450531D01*
X3330222Y2450416D01*
X3329608Y2450109D01*
X3328916Y2449802D01*
X3328110Y2449571D01*
X3327227Y2449379D01*
X3326305Y2449302D01*
X3325998D01*
X3325767Y2449341D01*
X3325460Y2449379D01*
X3325153Y2449418D01*
X3324769Y2449494D01*
X3324385Y2449571D01*
X3323502Y2449878D01*
X3323041Y2450032D01*
X3322580Y2450262D01*
X3322081Y2450531D01*
X3321620Y2450838D01*
X3321160Y2451184D01*
X3320737Y2451606D01*
X3320699Y2451645D01*
X3320622Y2451722D01*
X3320507Y2451837D01*
X3320392Y2452029D01*
X3320200Y2452259D01*
X3320008Y2452528D01*
X3319816Y2452835D01*
X3319585Y2453181D01*
X3319355Y2453603D01*
X3319163Y2454026D01*
X3318971Y2454525D01*
X3318779Y2455024D01*
X3318664Y2455600D01*
X3318548Y2456176D01*
X3318472Y2456829D01*
X3318433Y2457481D01*
Y2457520D01*
Y2457635D01*
Y2457827D01*
X3318472Y2458057D01*
X3318510Y2458365D01*
X3318548Y2458710D01*
X3318587Y2459094D01*
X3318664Y2459517D01*
X3318932Y2460438D01*
X3319278Y2461398D01*
X3319508Y2461936D01*
X3319777Y2462435D01*
X3320084Y2462934D01*
X3320430Y2463395D01*
X3320468Y2463434D01*
X3320545Y2463510D01*
X3320699Y2463664D01*
X3320891Y2463856D01*
X3321121Y2464086D01*
X3321428Y2464355D01*
X3321774Y2464624D01*
X3322196Y2464893D01*
X3322619Y2465200D01*
X3323118Y2465469D01*
X3323694Y2465738D01*
X3324270Y2465968D01*
X3324923Y2466160D01*
X3325575Y2466314D01*
X3326305Y2466390D01*
X3327073Y2466429D01*
X3327419D01*
X3327649Y2466390D01*
D02*
G37*
G36*
X3359252Y2440778D02*
X3347540D01*
X3347233Y2440816D01*
X3346926D01*
X3346158Y2440854D01*
X3345352Y2440931D01*
X3344507Y2441085D01*
X3343700Y2441238D01*
X3343316Y2441354D01*
X3342971Y2441469D01*
X3342932D01*
X3342894Y2441507D01*
X3342664Y2441584D01*
X3342356Y2441776D01*
X3341972Y2442045D01*
X3341512Y2442352D01*
X3341051Y2442774D01*
X3340590Y2443273D01*
X3340168Y2443888D01*
X3340129Y2443965D01*
X3340014Y2444195D01*
X3339822Y2444541D01*
X3339630Y2445001D01*
X3339438Y2445577D01*
X3339246Y2446230D01*
X3339131Y2446921D01*
X3339092Y2447689D01*
Y2447728D01*
Y2447805D01*
Y2447958D01*
X3339131Y2448150D01*
Y2448381D01*
X3339169Y2448649D01*
X3339323Y2449264D01*
X3339515Y2449994D01*
X3339822Y2450723D01*
X3340283Y2451491D01*
X3340552Y2451875D01*
X3340859Y2452221D01*
X3340936Y2452298D01*
X3341051Y2452374D01*
X3341166Y2452528D01*
X3341358Y2452643D01*
X3341588Y2452835D01*
X3341857Y2452989D01*
X3342164Y2453181D01*
X3342510Y2453373D01*
X3342932Y2453565D01*
X3343355Y2453757D01*
X3343854Y2453949D01*
X3344353Y2454141D01*
X3344929Y2454294D01*
X3345544Y2454410D01*
X3346196Y2454525D01*
X3346119Y2454563D01*
X3345966Y2454640D01*
X3345735Y2454755D01*
X3345467Y2454909D01*
X3344814Y2455331D01*
X3344468Y2455561D01*
X3344200Y2455792D01*
X3344123Y2455869D01*
X3343931Y2456022D01*
X3343662Y2456329D01*
X3343316Y2456713D01*
X3342894Y2457213D01*
X3342433Y2457789D01*
X3341934Y2458441D01*
X3341435Y2459171D01*
X3337057Y2466006D01*
X3341243D01*
X3344584Y2460784D01*
Y2460745D01*
X3344660Y2460669D01*
X3344737Y2460553D01*
X3344814Y2460400D01*
X3345083Y2460016D01*
X3345428Y2459517D01*
X3345812Y2458941D01*
X3346235Y2458365D01*
X3346619Y2457827D01*
X3347003Y2457328D01*
X3347041Y2457289D01*
X3347156Y2457136D01*
X3347348Y2456905D01*
X3347540Y2456637D01*
X3348116Y2456099D01*
X3348385Y2455830D01*
X3348692Y2455638D01*
X3348731Y2455600D01*
X3348807Y2455561D01*
X3348961Y2455485D01*
X3349153Y2455369D01*
X3349614Y2455139D01*
X3350190Y2454947D01*
X3350228D01*
X3350305Y2454909D01*
X3350459D01*
X3350651Y2454870D01*
X3350919Y2454832D01*
X3351227D01*
X3351611Y2454794D01*
X3355912D01*
Y2466006D01*
X3359252D01*
Y2440778D01*
D02*
G37*
G36*
Y2558343D02*
X3347540D01*
X3347233Y2558381D01*
X3346926D01*
X3346158Y2558419D01*
X3345352Y2558496D01*
X3344507Y2558650D01*
X3343700Y2558803D01*
X3343316Y2558919D01*
X3342971Y2559034D01*
X3342932D01*
X3342894Y2559072D01*
X3342664Y2559149D01*
X3342356Y2559341D01*
X3341972Y2559610D01*
X3341512Y2559917D01*
X3341051Y2560340D01*
X3340590Y2560839D01*
X3340168Y2561453D01*
X3340129Y2561530D01*
X3340014Y2561760D01*
X3339822Y2562106D01*
X3339630Y2562567D01*
X3339438Y2563143D01*
X3339246Y2563796D01*
X3339131Y2564487D01*
X3339092Y2565255D01*
Y2565293D01*
Y2565370D01*
Y2565523D01*
X3339131Y2565715D01*
Y2565946D01*
X3339169Y2566215D01*
X3339323Y2566829D01*
X3339515Y2567559D01*
X3339822Y2568288D01*
X3340283Y2569056D01*
X3340552Y2569440D01*
X3340859Y2569786D01*
X3340936Y2569863D01*
X3341051Y2569939D01*
X3341166Y2570093D01*
X3341358Y2570208D01*
X3341588Y2570400D01*
X3341857Y2570554D01*
X3342164Y2570746D01*
X3342510Y2570938D01*
X3342932Y2571130D01*
X3343355Y2571322D01*
X3343854Y2571514D01*
X3344353Y2571706D01*
X3344929Y2571860D01*
X3345544Y2571975D01*
X3346196Y2572090D01*
X3346119Y2572128D01*
X3345966Y2572205D01*
X3345735Y2572320D01*
X3345467Y2572474D01*
X3344814Y2572896D01*
X3344468Y2573127D01*
X3344200Y2573357D01*
X3344123Y2573434D01*
X3343931Y2573588D01*
X3343662Y2573895D01*
X3343316Y2574279D01*
X3342894Y2574778D01*
X3342433Y2575354D01*
X3341934Y2576007D01*
X3341435Y2576736D01*
X3337057Y2583572D01*
X3341243D01*
X3344584Y2578349D01*
Y2578311D01*
X3344660Y2578234D01*
X3344737Y2578119D01*
X3344814Y2577965D01*
X3345083Y2577581D01*
X3345428Y2577082D01*
X3345812Y2576506D01*
X3346235Y2575930D01*
X3346619Y2575392D01*
X3347003Y2574893D01*
X3347041Y2574855D01*
X3347156Y2574701D01*
X3347348Y2574471D01*
X3347540Y2574202D01*
X3348116Y2573664D01*
X3348385Y2573396D01*
X3348692Y2573204D01*
X3348731Y2573165D01*
X3348807Y2573127D01*
X3348961Y2573050D01*
X3349153Y2572935D01*
X3349614Y2572704D01*
X3350190Y2572512D01*
X3350228D01*
X3350305Y2572474D01*
X3350459D01*
X3350651Y2572436D01*
X3350919Y2572397D01*
X3351227D01*
X3351611Y2572359D01*
X3355912D01*
Y2583572D01*
X3359252D01*
Y2558343D01*
D02*
G37*
G36*
X3325230Y2577543D02*
X3336174D01*
Y2574701D01*
X3324654Y2558381D01*
X3322119D01*
Y2574701D01*
X3318702D01*
Y2577543D01*
X3322119D01*
Y2583572D01*
X3325230D01*
Y2577543D01*
D02*
G37*
G36*
X3327649Y2700676D02*
X3327956Y2700637D01*
X3328264Y2700599D01*
X3328648Y2700561D01*
X3329032Y2700484D01*
X3329915Y2700253D01*
X3330836Y2699869D01*
X3331297Y2699677D01*
X3331720Y2699409D01*
X3332180Y2699102D01*
X3332603Y2698756D01*
X3332641Y2698718D01*
X3332680Y2698679D01*
X3332795Y2698564D01*
X3332948Y2698410D01*
X3333102Y2698180D01*
X3333294Y2697950D01*
X3333524Y2697681D01*
X3333716Y2697374D01*
X3334177Y2696606D01*
X3334561Y2695722D01*
X3334907Y2694724D01*
X3335022Y2694186D01*
X3335099Y2693610D01*
X3331988Y2693188D01*
Y2693226D01*
X3331950Y2693303D01*
Y2693457D01*
X3331873Y2693610D01*
X3331758Y2694071D01*
X3331566Y2694647D01*
X3331336Y2695262D01*
X3331028Y2695914D01*
X3330644Y2696490D01*
X3330222Y2696990D01*
X3330145Y2697028D01*
X3329992Y2697182D01*
X3329723Y2697335D01*
X3329339Y2697566D01*
X3328916Y2697758D01*
X3328379Y2697950D01*
X3327764Y2698103D01*
X3327111Y2698142D01*
X3326881D01*
X3326727Y2698103D01*
X3326343Y2698065D01*
X3325844Y2697950D01*
X3325230Y2697758D01*
X3324615Y2697527D01*
X3324001Y2697143D01*
X3323425Y2696644D01*
X3323348Y2696567D01*
X3323195Y2696375D01*
X3322964Y2696068D01*
X3322657Y2695607D01*
X3322388Y2695070D01*
X3322158Y2694417D01*
X3322004Y2693687D01*
X3321927Y2692881D01*
Y2692842D01*
Y2692804D01*
Y2692689D01*
X3321966Y2692535D01*
X3322004Y2692151D01*
X3322119Y2691652D01*
X3322273Y2691114D01*
X3322542Y2690500D01*
X3322887Y2689924D01*
X3323348Y2689386D01*
X3323425Y2689309D01*
X3323579Y2689156D01*
X3323886Y2688964D01*
X3324308Y2688695D01*
X3324807Y2688426D01*
X3325422Y2688234D01*
X3326075Y2688081D01*
X3326843Y2688004D01*
X3327188D01*
X3327457Y2688042D01*
X3327764Y2688081D01*
X3328148Y2688119D01*
X3328571Y2688196D01*
X3329032Y2688311D01*
X3328686Y2685585D01*
X3328494D01*
X3328340Y2685623D01*
X3327841D01*
X3327495Y2685585D01*
X3326996Y2685508D01*
X3326459Y2685393D01*
X3325883Y2685201D01*
X3325268Y2684970D01*
X3324654Y2684625D01*
X3324577Y2684586D01*
X3324385Y2684433D01*
X3324155Y2684164D01*
X3323847Y2683818D01*
X3323540Y2683396D01*
X3323310Y2682858D01*
X3323118Y2682206D01*
X3323041Y2681438D01*
Y2681399D01*
Y2681361D01*
Y2681169D01*
X3323118Y2680861D01*
X3323195Y2680439D01*
X3323310Y2680017D01*
X3323540Y2679556D01*
X3323809Y2679057D01*
X3324193Y2678634D01*
X3324231Y2678596D01*
X3324385Y2678442D01*
X3324654Y2678250D01*
X3324999Y2678058D01*
X3325422Y2677828D01*
X3325921Y2677674D01*
X3326497Y2677521D01*
X3327150Y2677482D01*
X3327457D01*
X3327803Y2677559D01*
X3328187Y2677636D01*
X3328686Y2677751D01*
X3329185Y2677981D01*
X3329684Y2678250D01*
X3330184Y2678634D01*
X3330222Y2678673D01*
X3330376Y2678826D01*
X3330568Y2679095D01*
X3330798Y2679479D01*
X3331067Y2679940D01*
X3331297Y2680516D01*
X3331528Y2681207D01*
X3331681Y2682014D01*
X3334791Y2681476D01*
Y2681438D01*
X3334753Y2681322D01*
X3334715Y2681169D01*
X3334676Y2680977D01*
X3334599Y2680708D01*
X3334523Y2680401D01*
X3334254Y2679709D01*
X3333947Y2678941D01*
X3333486Y2678135D01*
X3332948Y2677367D01*
X3332257Y2676676D01*
X3332219Y2676637D01*
X3332180Y2676599D01*
X3332065Y2676522D01*
X3331873Y2676407D01*
X3331681Y2676292D01*
X3331451Y2676138D01*
X3330875Y2675793D01*
X3330145Y2675485D01*
X3329262Y2675217D01*
X3328302Y2675025D01*
X3327764Y2674948D01*
X3326881D01*
X3326497Y2674986D01*
X3325998Y2675063D01*
X3325422Y2675178D01*
X3324769Y2675332D01*
X3324116Y2675562D01*
X3323463Y2675869D01*
X3323425D01*
X3323387Y2675908D01*
X3323156Y2676023D01*
X3322849Y2676215D01*
X3322465Y2676484D01*
X3322043Y2676829D01*
X3321582Y2677252D01*
X3321160Y2677751D01*
X3320776Y2678289D01*
X3320737Y2678365D01*
X3320622Y2678557D01*
X3320468Y2678865D01*
X3320315Y2679249D01*
X3320161Y2679748D01*
X3320008Y2680285D01*
X3319892Y2680861D01*
X3319854Y2681514D01*
Y2681591D01*
Y2681783D01*
X3319892Y2682090D01*
X3319969Y2682474D01*
X3320084Y2682935D01*
X3320238Y2683434D01*
X3320430Y2683972D01*
X3320737Y2684471D01*
X3320776Y2684548D01*
X3320891Y2684702D01*
X3321121Y2684932D01*
X3321390Y2685239D01*
X3321774Y2685585D01*
X3322196Y2685930D01*
X3322734Y2686314D01*
X3323348Y2686622D01*
X3323310D01*
X3323233Y2686660D01*
X3323118D01*
X3322964Y2686737D01*
X3322580Y2686852D01*
X3322081Y2687082D01*
X3321544Y2687351D01*
X3320968Y2687735D01*
X3320392Y2688196D01*
X3319892Y2688772D01*
X3319854Y2688849D01*
X3319700Y2689079D01*
X3319508Y2689425D01*
X3319240Y2689885D01*
X3319009Y2690461D01*
X3318817Y2691153D01*
X3318664Y2691959D01*
X3318625Y2692842D01*
Y2692881D01*
Y2692996D01*
Y2693149D01*
X3318664Y2693380D01*
X3318702Y2693687D01*
X3318740Y2693994D01*
X3318817Y2694378D01*
X3318932Y2694762D01*
X3319201Y2695646D01*
X3319393Y2696145D01*
X3319662Y2696606D01*
X3319931Y2697066D01*
X3320238Y2697527D01*
X3320622Y2697988D01*
X3321044Y2698449D01*
X3321083Y2698487D01*
X3321160Y2698564D01*
X3321275Y2698641D01*
X3321467Y2698794D01*
X3321697Y2698986D01*
X3322004Y2699178D01*
X3322350Y2699370D01*
X3322695Y2699562D01*
X3323118Y2699793D01*
X3323579Y2699985D01*
X3324078Y2700177D01*
X3324615Y2700369D01*
X3325191Y2700522D01*
X3325806Y2700599D01*
X3326459Y2700676D01*
X3327111Y2700714D01*
X3327419D01*
X3327649Y2700676D01*
D02*
G37*
G36*
X3359252Y2675063D02*
X3347540D01*
X3347233Y2675102D01*
X3346926D01*
X3346158Y2675140D01*
X3345352Y2675217D01*
X3344507Y2675370D01*
X3343700Y2675524D01*
X3343316Y2675639D01*
X3342971Y2675754D01*
X3342932D01*
X3342894Y2675793D01*
X3342664Y2675869D01*
X3342356Y2676061D01*
X3341972Y2676330D01*
X3341512Y2676637D01*
X3341051Y2677060D01*
X3340590Y2677559D01*
X3340168Y2678173D01*
X3340129Y2678250D01*
X3340014Y2678481D01*
X3339822Y2678826D01*
X3339630Y2679287D01*
X3339438Y2679863D01*
X3339246Y2680516D01*
X3339131Y2681207D01*
X3339092Y2681975D01*
Y2682014D01*
Y2682090D01*
Y2682244D01*
X3339131Y2682436D01*
Y2682666D01*
X3339169Y2682935D01*
X3339323Y2683550D01*
X3339515Y2684279D01*
X3339822Y2685009D01*
X3340283Y2685777D01*
X3340552Y2686161D01*
X3340859Y2686506D01*
X3340936Y2686583D01*
X3341051Y2686660D01*
X3341166Y2686814D01*
X3341358Y2686929D01*
X3341588Y2687121D01*
X3341857Y2687274D01*
X3342164Y2687466D01*
X3342510Y2687658D01*
X3342932Y2687850D01*
X3343355Y2688042D01*
X3343854Y2688234D01*
X3344353Y2688426D01*
X3344929Y2688580D01*
X3345544Y2688695D01*
X3346196Y2688810D01*
X3346119Y2688849D01*
X3345966Y2688925D01*
X3345735Y2689041D01*
X3345467Y2689194D01*
X3344814Y2689617D01*
X3344468Y2689847D01*
X3344200Y2690077D01*
X3344123Y2690154D01*
X3343931Y2690308D01*
X3343662Y2690615D01*
X3343316Y2690999D01*
X3342894Y2691498D01*
X3342433Y2692074D01*
X3341934Y2692727D01*
X3341435Y2693457D01*
X3337057Y2700292D01*
X3341243D01*
X3344584Y2695070D01*
Y2695031D01*
X3344660Y2694954D01*
X3344737Y2694839D01*
X3344814Y2694686D01*
X3345083Y2694302D01*
X3345428Y2693802D01*
X3345812Y2693226D01*
X3346235Y2692650D01*
X3346619Y2692113D01*
X3347003Y2691613D01*
X3347041Y2691575D01*
X3347156Y2691421D01*
X3347348Y2691191D01*
X3347540Y2690922D01*
X3348116Y2690385D01*
X3348385Y2690116D01*
X3348692Y2689924D01*
X3348731Y2689885D01*
X3348807Y2689847D01*
X3348961Y2689770D01*
X3349153Y2689655D01*
X3349614Y2689425D01*
X3350190Y2689233D01*
X3350228D01*
X3350305Y2689194D01*
X3350459D01*
X3350651Y2689156D01*
X3350919Y2689117D01*
X3351227D01*
X3351611Y2689079D01*
X3355912D01*
Y2700292D01*
X3359252D01*
Y2675063D01*
D02*
G37*
G36*
Y2792628D02*
X3347540D01*
X3347233Y2792667D01*
X3346926D01*
X3346158Y2792705D01*
X3345352Y2792782D01*
X3344507Y2792936D01*
X3343700Y2793089D01*
X3343316Y2793204D01*
X3342971Y2793320D01*
X3342932D01*
X3342894Y2793358D01*
X3342664Y2793435D01*
X3342356Y2793627D01*
X3341972Y2793896D01*
X3341512Y2794203D01*
X3341051Y2794625D01*
X3340590Y2795124D01*
X3340168Y2795739D01*
X3340129Y2795816D01*
X3340014Y2796046D01*
X3339822Y2796392D01*
X3339630Y2796852D01*
X3339438Y2797428D01*
X3339246Y2798081D01*
X3339131Y2798772D01*
X3339092Y2799540D01*
Y2799579D01*
Y2799655D01*
Y2799809D01*
X3339131Y2800001D01*
Y2800231D01*
X3339169Y2800500D01*
X3339323Y2801115D01*
X3339515Y2801844D01*
X3339822Y2802574D01*
X3340283Y2803342D01*
X3340552Y2803726D01*
X3340859Y2804072D01*
X3340936Y2804148D01*
X3341051Y2804225D01*
X3341166Y2804379D01*
X3341358Y2804494D01*
X3341588Y2804686D01*
X3341857Y2804840D01*
X3342164Y2805032D01*
X3342510Y2805224D01*
X3342932Y2805416D01*
X3343355Y2805608D01*
X3343854Y2805800D01*
X3344353Y2805992D01*
X3344929Y2806145D01*
X3345544Y2806260D01*
X3346196Y2806376D01*
X3346119Y2806414D01*
X3345966Y2806491D01*
X3345735Y2806606D01*
X3345467Y2806760D01*
X3344814Y2807182D01*
X3344468Y2807412D01*
X3344200Y2807643D01*
X3344123Y2807720D01*
X3343931Y2807873D01*
X3343662Y2808180D01*
X3343316Y2808564D01*
X3342894Y2809064D01*
X3342433Y2809640D01*
X3341934Y2810292D01*
X3341435Y2811022D01*
X3337057Y2817857D01*
X3341243D01*
X3344584Y2812635D01*
Y2812596D01*
X3344660Y2812519D01*
X3344737Y2812404D01*
X3344814Y2812251D01*
X3345083Y2811867D01*
X3345428Y2811367D01*
X3345812Y2810791D01*
X3346235Y2810215D01*
X3346619Y2809678D01*
X3347003Y2809179D01*
X3347041Y2809140D01*
X3347156Y2808987D01*
X3347348Y2808756D01*
X3347540Y2808488D01*
X3348116Y2807950D01*
X3348385Y2807681D01*
X3348692Y2807489D01*
X3348731Y2807451D01*
X3348807Y2807412D01*
X3348961Y2807336D01*
X3349153Y2807220D01*
X3349614Y2806990D01*
X3350190Y2806798D01*
X3350228D01*
X3350305Y2806760D01*
X3350459D01*
X3350651Y2806721D01*
X3350919Y2806683D01*
X3351227D01*
X3351611Y2806644D01*
X3355912D01*
Y2817857D01*
X3359252D01*
Y2792628D01*
D02*
G37*
G36*
X3335559Y2817819D02*
Y2817665D01*
Y2817435D01*
X3335521Y2817166D01*
X3335483Y2816859D01*
X3335444Y2816513D01*
X3335329Y2816129D01*
X3335214Y2815745D01*
Y2815707D01*
X3335175Y2815668D01*
X3335099Y2815438D01*
X3334945Y2815131D01*
X3334715Y2814670D01*
X3334446Y2814171D01*
X3334062Y2813595D01*
X3333678Y2813019D01*
X3333179Y2812404D01*
Y2812366D01*
X3333102Y2812327D01*
X3332910Y2812097D01*
X3332603Y2811751D01*
X3332142Y2811291D01*
X3331566Y2810753D01*
X3330875Y2810100D01*
X3330030Y2809371D01*
X3329108Y2808564D01*
X3329070Y2808526D01*
X3328916Y2808411D01*
X3328724Y2808257D01*
X3328456Y2807988D01*
X3328110Y2807720D01*
X3327726Y2807374D01*
X3326881Y2806644D01*
X3325959Y2805761D01*
X3325038Y2804878D01*
X3324577Y2804456D01*
X3324193Y2804033D01*
X3323847Y2803611D01*
X3323540Y2803227D01*
Y2803188D01*
X3323463Y2803150D01*
X3323387Y2803035D01*
X3323310Y2802881D01*
X3323079Y2802497D01*
X3322811Y2801998D01*
X3322542Y2801422D01*
X3322311Y2800807D01*
X3322158Y2800116D01*
X3322081Y2799463D01*
Y2799425D01*
Y2799387D01*
X3322119Y2799156D01*
X3322158Y2798811D01*
X3322235Y2798388D01*
X3322427Y2797889D01*
X3322657Y2797390D01*
X3322964Y2796852D01*
X3323425Y2796353D01*
X3323502Y2796315D01*
X3323655Y2796161D01*
X3323963Y2795969D01*
X3324347Y2795700D01*
X3324846Y2795470D01*
X3325422Y2795278D01*
X3326113Y2795124D01*
X3326881Y2795086D01*
X3327111D01*
X3327265Y2795124D01*
X3327649Y2795163D01*
X3328148Y2795240D01*
X3328724Y2795432D01*
X3329339Y2795662D01*
X3329915Y2796008D01*
X3330452Y2796468D01*
X3330491Y2796545D01*
X3330644Y2796699D01*
X3330875Y2797006D01*
X3331105Y2797428D01*
X3331374Y2797966D01*
X3331566Y2798580D01*
X3331720Y2799310D01*
X3331796Y2800155D01*
X3334983Y2799809D01*
Y2799771D01*
Y2799655D01*
X3334945Y2799463D01*
X3334907Y2799233D01*
X3334830Y2798926D01*
X3334791Y2798580D01*
X3334561Y2797812D01*
X3334254Y2796929D01*
X3333831Y2796046D01*
X3333256Y2795163D01*
X3332948Y2794779D01*
X3332564Y2794395D01*
X3332526Y2794356D01*
X3332449Y2794318D01*
X3332334Y2794203D01*
X3332180Y2794088D01*
X3331950Y2793972D01*
X3331681Y2793780D01*
X3331374Y2793627D01*
X3331028Y2793435D01*
X3330644Y2793281D01*
X3330222Y2793089D01*
X3329723Y2792936D01*
X3329224Y2792820D01*
X3328072Y2792590D01*
X3327457Y2792552D01*
X3326804Y2792513D01*
X3326459D01*
X3326190Y2792552D01*
X3325883Y2792590D01*
X3325537Y2792628D01*
X3325153Y2792667D01*
X3324731Y2792782D01*
X3323809Y2793012D01*
X3322849Y2793358D01*
X3322350Y2793588D01*
X3321889Y2793857D01*
X3321467Y2794203D01*
X3321044Y2794548D01*
X3321006Y2794587D01*
X3320968Y2794625D01*
X3320852Y2794740D01*
X3320699Y2794894D01*
X3320545Y2795124D01*
X3320353Y2795355D01*
X3319969Y2795931D01*
X3319585Y2796660D01*
X3319240Y2797505D01*
X3318971Y2798465D01*
X3318932Y2799003D01*
X3318894Y2799540D01*
Y2799617D01*
Y2799809D01*
X3318932Y2800116D01*
X3318971Y2800500D01*
X3319048Y2800961D01*
X3319163Y2801460D01*
X3319316Y2801998D01*
X3319547Y2802535D01*
X3319585Y2802612D01*
X3319662Y2802804D01*
X3319816Y2803073D01*
X3320046Y2803457D01*
X3320315Y2803918D01*
X3320660Y2804456D01*
X3321121Y2804993D01*
X3321620Y2805608D01*
X3321697Y2805684D01*
X3321889Y2805915D01*
X3322235Y2806260D01*
X3322465Y2806491D01*
X3322734Y2806760D01*
X3323041Y2807067D01*
X3323425Y2807412D01*
X3323809Y2807758D01*
X3324231Y2808180D01*
X3324692Y2808603D01*
X3325230Y2809064D01*
X3325767Y2809524D01*
X3326382Y2810062D01*
X3326420Y2810100D01*
X3326497Y2810177D01*
X3326651Y2810292D01*
X3326843Y2810446D01*
X3327303Y2810830D01*
X3327880Y2811329D01*
X3328456Y2811867D01*
X3329070Y2812404D01*
X3329569Y2812865D01*
X3329761Y2813057D01*
X3329953Y2813249D01*
X3329992Y2813287D01*
X3330068Y2813403D01*
X3330222Y2813556D01*
X3330414Y2813787D01*
X3330836Y2814286D01*
X3331259Y2814900D01*
X3318856D01*
Y2817857D01*
X3335559D01*
Y2817819D01*
D02*
G37*
G36*
X3359252Y2909771D02*
X3347540D01*
X3347233Y2909809D01*
X3346926D01*
X3346158Y2909848D01*
X3345352Y2909925D01*
X3344507Y2910078D01*
X3343700Y2910232D01*
X3343316Y2910347D01*
X3342971Y2910462D01*
X3342932D01*
X3342894Y2910501D01*
X3342664Y2910577D01*
X3342356Y2910769D01*
X3341972Y2911038D01*
X3341512Y2911345D01*
X3341051Y2911768D01*
X3340590Y2912267D01*
X3340168Y2912881D01*
X3340129Y2912958D01*
X3340014Y2913189D01*
X3339822Y2913534D01*
X3339630Y2913995D01*
X3339438Y2914571D01*
X3339246Y2915224D01*
X3339131Y2915915D01*
X3339092Y2916683D01*
Y2916722D01*
Y2916798D01*
Y2916952D01*
X3339131Y2917144D01*
Y2917374D01*
X3339169Y2917643D01*
X3339323Y2918258D01*
X3339515Y2918987D01*
X3339822Y2919717D01*
X3340283Y2920485D01*
X3340552Y2920869D01*
X3340859Y2921214D01*
X3340936Y2921291D01*
X3341051Y2921368D01*
X3341166Y2921521D01*
X3341358Y2921637D01*
X3341588Y2921829D01*
X3341857Y2921982D01*
X3342164Y2922174D01*
X3342510Y2922366D01*
X3342932Y2922558D01*
X3343355Y2922750D01*
X3343854Y2922942D01*
X3344353Y2923134D01*
X3344929Y2923288D01*
X3345544Y2923403D01*
X3346196Y2923518D01*
X3346119Y2923557D01*
X3345966Y2923633D01*
X3345735Y2923749D01*
X3345467Y2923902D01*
X3344814Y2924325D01*
X3344468Y2924555D01*
X3344200Y2924785D01*
X3344123Y2924862D01*
X3343931Y2925016D01*
X3343662Y2925323D01*
X3343316Y2925707D01*
X3342894Y2926206D01*
X3342433Y2926782D01*
X3341934Y2927435D01*
X3341435Y2928165D01*
X3337057Y2935000D01*
X3341243D01*
X3344584Y2929778D01*
Y2929739D01*
X3344660Y2929662D01*
X3344737Y2929547D01*
X3344814Y2929394D01*
X3345083Y2929010D01*
X3345428Y2928510D01*
X3345812Y2927934D01*
X3346235Y2927358D01*
X3346619Y2926821D01*
X3347003Y2926322D01*
X3347041Y2926283D01*
X3347156Y2926130D01*
X3347348Y2925899D01*
X3347540Y2925630D01*
X3348116Y2925093D01*
X3348385Y2924824D01*
X3348692Y2924632D01*
X3348731Y2924593D01*
X3348807Y2924555D01*
X3348961Y2924478D01*
X3349153Y2924363D01*
X3349614Y2924133D01*
X3350190Y2923941D01*
X3350228D01*
X3350305Y2923902D01*
X3350459D01*
X3350651Y2923864D01*
X3350919Y2923825D01*
X3351227D01*
X3351611Y2923787D01*
X3355912D01*
Y2935000D01*
X3359252D01*
Y2909771D01*
D02*
G37*
G36*
X3326574Y2915262D02*
X3326612Y2915301D01*
X3326766Y2915454D01*
X3327035Y2915646D01*
X3327380Y2915915D01*
X3327803Y2916261D01*
X3328302Y2916606D01*
X3328878Y2917029D01*
X3329531Y2917413D01*
X3329569D01*
X3329608Y2917451D01*
X3329838Y2917605D01*
X3330184Y2917797D01*
X3330606Y2918027D01*
X3331105Y2918296D01*
X3331643Y2918526D01*
X3332219Y2918795D01*
X3332756Y2919026D01*
Y2915992D01*
X3332718D01*
X3332641Y2915954D01*
X3332488Y2915877D01*
X3332334Y2915762D01*
X3332104Y2915646D01*
X3331835Y2915531D01*
X3331220Y2915186D01*
X3330529Y2914763D01*
X3329761Y2914264D01*
X3328993Y2913688D01*
X3328264Y2913073D01*
X3328225Y2913035D01*
X3328187Y2912997D01*
X3327956Y2912766D01*
X3327611Y2912421D01*
X3327188Y2911998D01*
X3326727Y2911461D01*
X3326267Y2910885D01*
X3325844Y2910270D01*
X3325499Y2909656D01*
X3323463D01*
Y2935000D01*
X3326574D01*
Y2915262D01*
D02*
G37*
%LPC*%
G36*
X3026894Y2348960D02*
X3026702D01*
X3026548Y2348922D01*
X3026164Y2348883D01*
X3025665Y2348768D01*
X3025128Y2348576D01*
X3024513Y2348307D01*
X3023937Y2347923D01*
X3023361Y2347424D01*
X3023284Y2347347D01*
X3023131Y2347155D01*
X3022900Y2346810D01*
X3022631Y2346387D01*
X3022363Y2345811D01*
X3022132Y2345120D01*
X3021979Y2344352D01*
X3021902Y2343469D01*
Y2343392D01*
Y2343200D01*
X3021940Y2342893D01*
X3021979Y2342509D01*
X3022055Y2342010D01*
X3022171Y2341511D01*
X3022324Y2340973D01*
X3022555Y2340397D01*
X3022593Y2340320D01*
X3022670Y2340167D01*
X3022823Y2339898D01*
X3023054Y2339591D01*
X3023323Y2339207D01*
X3023630Y2338861D01*
X3024014Y2338477D01*
X3024436Y2338170D01*
X3024475Y2338131D01*
X3024667Y2338055D01*
X3024897Y2337939D01*
X3025204Y2337824D01*
X3025588Y2337671D01*
X3026049Y2337555D01*
X3026510Y2337479D01*
X3027009Y2337440D01*
X3027201D01*
X3027355Y2337479D01*
X3027700Y2337517D01*
X3028200Y2337632D01*
X3028699Y2337824D01*
X3029275Y2338093D01*
X3029851Y2338477D01*
X3030388Y2339015D01*
X3030465Y2339091D01*
X3030619Y2339322D01*
X3030849Y2339668D01*
X3031118Y2340128D01*
X3031348Y2340743D01*
X3031579Y2341511D01*
X3031732Y2342356D01*
X3031809Y2343316D01*
Y2343354D01*
Y2343431D01*
Y2343584D01*
X3031771Y2343738D01*
Y2343968D01*
X3031732Y2344237D01*
X3031655Y2344813D01*
X3031463Y2345466D01*
X3031233Y2346157D01*
X3030887Y2346810D01*
X3030427Y2347424D01*
X3030350Y2347501D01*
X3030196Y2347655D01*
X3029889Y2347923D01*
X3029467Y2348192D01*
X3028968Y2348461D01*
X3028353Y2348730D01*
X3027662Y2348883D01*
X3026894Y2348960D01*
D02*
G37*
G36*
X3002932Y2357600D02*
X2997671D01*
Y2338285D01*
X3003432D01*
X3003854Y2338323D01*
X3004430Y2338362D01*
X3005044Y2338400D01*
X3005697Y2338477D01*
X3006311Y2338592D01*
X3006887Y2338746D01*
X3006964Y2338784D01*
X3007118Y2338823D01*
X3007387Y2338938D01*
X3007694Y2339091D01*
X3008078Y2339284D01*
X3008462Y2339476D01*
X3008807Y2339744D01*
X3009153Y2340052D01*
X3009191Y2340090D01*
X3009345Y2340282D01*
X3009575Y2340551D01*
X3009844Y2340896D01*
X3010113Y2341357D01*
X3010420Y2341895D01*
X3010727Y2342548D01*
X3010996Y2343239D01*
Y2343277D01*
X3011035Y2343316D01*
X3011073Y2343431D01*
X3011111Y2343584D01*
X3011150Y2343776D01*
X3011227Y2344007D01*
X3011342Y2344583D01*
X3011457Y2345312D01*
X3011572Y2346157D01*
X3011649Y2347079D01*
X3011688Y2348115D01*
Y2348154D01*
Y2348307D01*
Y2348499D01*
Y2348768D01*
X3011649Y2349114D01*
X3011611Y2349498D01*
X3011572Y2349920D01*
X3011534Y2350343D01*
X3011380Y2351341D01*
X3011150Y2352340D01*
X3010804Y2353300D01*
X3010612Y2353760D01*
X3010382Y2354183D01*
Y2354221D01*
X3010305Y2354260D01*
X3010267Y2354375D01*
X3010151Y2354528D01*
X3009883Y2354912D01*
X3009499Y2355335D01*
X3009038Y2355834D01*
X3008500Y2356295D01*
X3007886Y2356717D01*
X3007233Y2357063D01*
X3007156Y2357101D01*
X3006964Y2357140D01*
X3006657Y2357216D01*
X3006196Y2357331D01*
X3005582Y2357447D01*
X3004852Y2357523D01*
X3003969Y2357562D01*
X3002932Y2357600D01*
D02*
G37*
G36*
Y2215035D02*
X2997671D01*
Y2195720D01*
X3003432D01*
X3003854Y2195758D01*
X3004430Y2195797D01*
X3005044Y2195835D01*
X3005697Y2195912D01*
X3006311Y2196027D01*
X3006887Y2196181D01*
X3006964Y2196219D01*
X3007118Y2196258D01*
X3007387Y2196373D01*
X3007694Y2196526D01*
X3008078Y2196718D01*
X3008462Y2196910D01*
X3008807Y2197179D01*
X3009153Y2197486D01*
X3009191Y2197525D01*
X3009345Y2197717D01*
X3009575Y2197985D01*
X3009844Y2198331D01*
X3010113Y2198792D01*
X3010420Y2199329D01*
X3010727Y2199982D01*
X3010996Y2200673D01*
Y2200712D01*
X3011035Y2200750D01*
X3011073Y2200865D01*
X3011111Y2201019D01*
X3011150Y2201211D01*
X3011227Y2201441D01*
X3011342Y2202017D01*
X3011457Y2202747D01*
X3011572Y2203592D01*
X3011649Y2204514D01*
X3011688Y2205550D01*
Y2205589D01*
Y2205742D01*
Y2205934D01*
Y2206203D01*
X3011649Y2206549D01*
X3011611Y2206933D01*
X3011572Y2207355D01*
X3011534Y2207778D01*
X3011380Y2208776D01*
X3011150Y2209774D01*
X3010804Y2210734D01*
X3010612Y2211195D01*
X3010382Y2211617D01*
Y2211656D01*
X3010305Y2211694D01*
X3010267Y2211809D01*
X3010151Y2211963D01*
X3009883Y2212347D01*
X3009499Y2212769D01*
X3009038Y2213269D01*
X3008500Y2213729D01*
X3007886Y2214152D01*
X3007233Y2214497D01*
X3007156Y2214536D01*
X3006964Y2214574D01*
X3006657Y2214651D01*
X3006196Y2214766D01*
X3005582Y2214881D01*
X3004852Y2214958D01*
X3003969Y2214997D01*
X3002932Y2215035D01*
D02*
G37*
G36*
Y2499743D02*
X2997671D01*
Y2480428D01*
X3003432D01*
X3003854Y2480466D01*
X3004430Y2480505D01*
X3005044Y2480543D01*
X3005697Y2480620D01*
X3006311Y2480735D01*
X3006887Y2480889D01*
X3006964Y2480927D01*
X3007118Y2480965D01*
X3007387Y2481081D01*
X3007694Y2481234D01*
X3008078Y2481426D01*
X3008462Y2481618D01*
X3008807Y2481887D01*
X3009153Y2482194D01*
X3009191Y2482233D01*
X3009345Y2482425D01*
X3009575Y2482693D01*
X3009844Y2483039D01*
X3010113Y2483500D01*
X3010420Y2484037D01*
X3010727Y2484690D01*
X3010996Y2485381D01*
Y2485420D01*
X3011035Y2485458D01*
X3011073Y2485573D01*
X3011111Y2485727D01*
X3011150Y2485919D01*
X3011227Y2486149D01*
X3011342Y2486726D01*
X3011457Y2487455D01*
X3011572Y2488300D01*
X3011649Y2489222D01*
X3011688Y2490258D01*
Y2490297D01*
Y2490450D01*
Y2490642D01*
Y2490911D01*
X3011649Y2491257D01*
X3011611Y2491641D01*
X3011572Y2492063D01*
X3011534Y2492485D01*
X3011380Y2493484D01*
X3011150Y2494482D01*
X3010804Y2495442D01*
X3010612Y2495903D01*
X3010382Y2496325D01*
Y2496364D01*
X3010305Y2496402D01*
X3010267Y2496517D01*
X3010151Y2496671D01*
X3009883Y2497055D01*
X3009499Y2497477D01*
X3009038Y2497977D01*
X3008500Y2498438D01*
X3007886Y2498860D01*
X3007233Y2499206D01*
X3007156Y2499244D01*
X3006964Y2499282D01*
X3006657Y2499359D01*
X3006196Y2499474D01*
X3005582Y2499590D01*
X3004852Y2499666D01*
X3003969Y2499705D01*
X3002932Y2499743D01*
D02*
G37*
G36*
X3028392Y2639352D02*
X3020481Y2628062D01*
X3028392D01*
Y2639352D01*
D02*
G37*
G36*
X3002932Y2641463D02*
X2997671D01*
Y2622148D01*
X3003432D01*
X3003854Y2622187D01*
X3004430Y2622225D01*
X3005044Y2622264D01*
X3005697Y2622340D01*
X3006311Y2622456D01*
X3006887Y2622609D01*
X3006964Y2622648D01*
X3007118Y2622686D01*
X3007387Y2622801D01*
X3007694Y2622955D01*
X3008078Y2623147D01*
X3008462Y2623339D01*
X3008807Y2623608D01*
X3009153Y2623915D01*
X3009191Y2623953D01*
X3009345Y2624145D01*
X3009575Y2624414D01*
X3009844Y2624760D01*
X3010113Y2625220D01*
X3010420Y2625758D01*
X3010727Y2626411D01*
X3010996Y2627102D01*
Y2627140D01*
X3011035Y2627179D01*
X3011073Y2627294D01*
X3011111Y2627448D01*
X3011150Y2627640D01*
X3011227Y2627870D01*
X3011342Y2628446D01*
X3011457Y2629175D01*
X3011572Y2630020D01*
X3011649Y2630942D01*
X3011688Y2631979D01*
Y2632017D01*
Y2632171D01*
Y2632363D01*
Y2632631D01*
X3011649Y2632977D01*
X3011611Y2633361D01*
X3011572Y2633784D01*
X3011534Y2634206D01*
X3011380Y2635204D01*
X3011150Y2636203D01*
X3010804Y2637163D01*
X3010612Y2637624D01*
X3010382Y2638046D01*
Y2638084D01*
X3010305Y2638123D01*
X3010267Y2638238D01*
X3010151Y2638392D01*
X3009883Y2638776D01*
X3009499Y2639198D01*
X3009038Y2639697D01*
X3008500Y2640158D01*
X3007886Y2640580D01*
X3007233Y2640926D01*
X3007156Y2640964D01*
X3006964Y2641003D01*
X3006657Y2641079D01*
X3006196Y2641195D01*
X3005582Y2641310D01*
X3004852Y2641387D01*
X3003969Y2641425D01*
X3002932Y2641463D01*
D02*
G37*
G36*
Y2784029D02*
X2997671D01*
Y2764713D01*
X3003432D01*
X3003854Y2764752D01*
X3004430Y2764790D01*
X3005044Y2764829D01*
X3005697Y2764905D01*
X3006311Y2765021D01*
X3006887Y2765174D01*
X3006964Y2765213D01*
X3007118Y2765251D01*
X3007387Y2765366D01*
X3007694Y2765520D01*
X3008078Y2765712D01*
X3008462Y2765904D01*
X3008807Y2766173D01*
X3009153Y2766480D01*
X3009191Y2766518D01*
X3009345Y2766710D01*
X3009575Y2766979D01*
X3009844Y2767325D01*
X3010113Y2767785D01*
X3010420Y2768323D01*
X3010727Y2768976D01*
X3010996Y2769667D01*
Y2769706D01*
X3011035Y2769744D01*
X3011073Y2769859D01*
X3011111Y2770013D01*
X3011150Y2770205D01*
X3011227Y2770435D01*
X3011342Y2771011D01*
X3011457Y2771741D01*
X3011572Y2772586D01*
X3011649Y2773507D01*
X3011688Y2774544D01*
Y2774582D01*
Y2774736D01*
Y2774928D01*
Y2775197D01*
X3011649Y2775542D01*
X3011611Y2775926D01*
X3011572Y2776349D01*
X3011534Y2776771D01*
X3011380Y2777769D01*
X3011150Y2778768D01*
X3010804Y2779728D01*
X3010612Y2780189D01*
X3010382Y2780611D01*
Y2780649D01*
X3010305Y2780688D01*
X3010267Y2780803D01*
X3010151Y2780957D01*
X3009883Y2781341D01*
X3009499Y2781763D01*
X3009038Y2782262D01*
X3008500Y2782723D01*
X3007886Y2783146D01*
X3007233Y2783491D01*
X3007156Y2783530D01*
X3006964Y2783568D01*
X3006657Y2783645D01*
X3006196Y2783760D01*
X3005582Y2783875D01*
X3004852Y2783952D01*
X3003969Y2783990D01*
X3002932Y2784029D01*
D02*
G37*
G36*
Y3067892D02*
X2997671D01*
Y3048577D01*
X3003432D01*
X3003854Y3048615D01*
X3004430Y3048653D01*
X3005044Y3048692D01*
X3005697Y3048769D01*
X3006311Y3048884D01*
X3006887Y3049037D01*
X3006964Y3049076D01*
X3007118Y3049114D01*
X3007387Y3049229D01*
X3007694Y3049383D01*
X3008078Y3049575D01*
X3008462Y3049767D01*
X3008807Y3050036D01*
X3009153Y3050343D01*
X3009191Y3050381D01*
X3009345Y3050573D01*
X3009575Y3050842D01*
X3009844Y3051188D01*
X3010113Y3051649D01*
X3010420Y3052186D01*
X3010727Y3052839D01*
X3010996Y3053530D01*
Y3053569D01*
X3011035Y3053607D01*
X3011073Y3053722D01*
X3011111Y3053876D01*
X3011150Y3054068D01*
X3011227Y3054298D01*
X3011342Y3054874D01*
X3011457Y3055604D01*
X3011572Y3056449D01*
X3011649Y3057370D01*
X3011688Y3058407D01*
Y3058445D01*
Y3058599D01*
Y3058791D01*
Y3059060D01*
X3011649Y3059405D01*
X3011611Y3059789D01*
X3011572Y3060212D01*
X3011534Y3060634D01*
X3011380Y3061633D01*
X3011150Y3062631D01*
X3010804Y3063591D01*
X3010612Y3064052D01*
X3010382Y3064474D01*
Y3064513D01*
X3010305Y3064551D01*
X3010267Y3064666D01*
X3010151Y3064820D01*
X3009883Y3065204D01*
X3009499Y3065626D01*
X3009038Y3066126D01*
X3008500Y3066586D01*
X3007886Y3067009D01*
X3007233Y3067354D01*
X3007156Y3067393D01*
X3006964Y3067431D01*
X3006657Y3067508D01*
X3006196Y3067623D01*
X3005582Y3067738D01*
X3004852Y3067815D01*
X3003969Y3067854D01*
X3002932Y3067892D01*
D02*
G37*
G36*
Y2925749D02*
X2997671D01*
Y2906434D01*
X3003432D01*
X3003854Y2906472D01*
X3004430Y2906511D01*
X3005044Y2906549D01*
X3005697Y2906626D01*
X3006311Y2906741D01*
X3006887Y2906895D01*
X3006964Y2906933D01*
X3007118Y2906972D01*
X3007387Y2907087D01*
X3007694Y2907240D01*
X3008078Y2907432D01*
X3008462Y2907624D01*
X3008807Y2907893D01*
X3009153Y2908200D01*
X3009191Y2908239D01*
X3009345Y2908431D01*
X3009575Y2908700D01*
X3009844Y2909045D01*
X3010113Y2909506D01*
X3010420Y2910044D01*
X3010727Y2910696D01*
X3010996Y2911387D01*
Y2911426D01*
X3011035Y2911464D01*
X3011073Y2911579D01*
X3011111Y2911733D01*
X3011150Y2911925D01*
X3011227Y2912155D01*
X3011342Y2912731D01*
X3011457Y2913461D01*
X3011572Y2914306D01*
X3011649Y2915227D01*
X3011688Y2916264D01*
Y2916303D01*
Y2916456D01*
Y2916648D01*
Y2916917D01*
X3011649Y2917263D01*
X3011611Y2917647D01*
X3011572Y2918069D01*
X3011534Y2918492D01*
X3011380Y2919490D01*
X3011150Y2920488D01*
X3010804Y2921448D01*
X3010612Y2921909D01*
X3010382Y2922331D01*
Y2922370D01*
X3010305Y2922408D01*
X3010267Y2922523D01*
X3010151Y2922677D01*
X3009883Y2923061D01*
X3009499Y2923483D01*
X3009038Y2923983D01*
X3008500Y2924443D01*
X3007886Y2924866D01*
X3007233Y2925211D01*
X3007156Y2925250D01*
X3006964Y2925288D01*
X3006657Y2925365D01*
X3006196Y2925480D01*
X3005582Y2925595D01*
X3004852Y2925672D01*
X3003969Y2925711D01*
X3002932Y2925749D01*
D02*
G37*
G36*
Y2073315D02*
X2997671D01*
Y2053999D01*
X3003432D01*
X3003854Y2054038D01*
X3004430Y2054076D01*
X3005044Y2054115D01*
X3005697Y2054191D01*
X3006311Y2054307D01*
X3006887Y2054460D01*
X3006964Y2054499D01*
X3007118Y2054537D01*
X3007387Y2054652D01*
X3007694Y2054806D01*
X3008078Y2054998D01*
X3008462Y2055190D01*
X3008807Y2055459D01*
X3009153Y2055766D01*
X3009191Y2055804D01*
X3009345Y2055996D01*
X3009575Y2056265D01*
X3009844Y2056611D01*
X3010113Y2057072D01*
X3010420Y2057609D01*
X3010727Y2058262D01*
X3010996Y2058953D01*
Y2058992D01*
X3011035Y2059030D01*
X3011073Y2059145D01*
X3011111Y2059299D01*
X3011150Y2059491D01*
X3011227Y2059721D01*
X3011342Y2060297D01*
X3011457Y2061027D01*
X3011572Y2061872D01*
X3011649Y2062793D01*
X3011688Y2063830D01*
Y2063868D01*
Y2064022D01*
Y2064214D01*
Y2064483D01*
X3011649Y2064828D01*
X3011611Y2065212D01*
X3011572Y2065635D01*
X3011534Y2066057D01*
X3011380Y2067055D01*
X3011150Y2068054D01*
X3010804Y2069014D01*
X3010612Y2069475D01*
X3010382Y2069897D01*
Y2069936D01*
X3010305Y2069974D01*
X3010267Y2070089D01*
X3010151Y2070243D01*
X3009883Y2070627D01*
X3009499Y2071049D01*
X3009038Y2071548D01*
X3008500Y2072009D01*
X3007886Y2072432D01*
X3007233Y2072777D01*
X3007156Y2072816D01*
X3006964Y2072854D01*
X3006657Y2072931D01*
X3006196Y2073046D01*
X3005582Y2073161D01*
X3004852Y2073238D01*
X3003969Y2073276D01*
X3002932Y2073315D01*
D02*
G37*
G36*
X3026740Y2073852D02*
X3026433D01*
X3026126Y2073776D01*
X3025704Y2073699D01*
X3025243Y2073584D01*
X3024744Y2073353D01*
X3024244Y2073084D01*
X3023784Y2072700D01*
X3023745Y2072662D01*
X3023591Y2072508D01*
X3023438Y2072240D01*
X3023207Y2071932D01*
X3023015Y2071548D01*
X3022823Y2071049D01*
X3022670Y2070550D01*
X3022631Y2069974D01*
Y2069897D01*
Y2069667D01*
X3022708Y2069360D01*
X3022785Y2068937D01*
X3022900Y2068476D01*
X3023092Y2068015D01*
X3023361Y2067516D01*
X3023745Y2067055D01*
X3023784Y2067017D01*
X3023937Y2066902D01*
X3024206Y2066710D01*
X3024552Y2066518D01*
X3024974Y2066287D01*
X3025512Y2066134D01*
X3026088Y2065980D01*
X3026740Y2065942D01*
X3027048D01*
X3027355Y2066019D01*
X3027777Y2066095D01*
X3028238Y2066211D01*
X3028737Y2066403D01*
X3029236Y2066671D01*
X3029697Y2067055D01*
X3029735Y2067094D01*
X3029889Y2067247D01*
X3030081Y2067478D01*
X3030273Y2067823D01*
X3030503Y2068207D01*
X3030657Y2068707D01*
X3030811Y2069244D01*
X3030849Y2069820D01*
Y2069859D01*
Y2069897D01*
Y2070089D01*
X3030772Y2070435D01*
X3030695Y2070819D01*
X3030542Y2071241D01*
X3030350Y2071740D01*
X3030043Y2072201D01*
X3029659Y2072662D01*
X3029620Y2072700D01*
X3029467Y2072854D01*
X3029198Y2073046D01*
X3028852Y2073276D01*
X3028430Y2073468D01*
X3027931Y2073660D01*
X3027393Y2073814D01*
X3026740Y2073852D01*
D02*
G37*
G36*
X3026664Y2063407D02*
X3026472D01*
X3026318Y2063369D01*
X3025896Y2063331D01*
X3025396Y2063215D01*
X3024820Y2063062D01*
X3024206Y2062793D01*
X3023630Y2062448D01*
X3023054Y2061948D01*
X3022977Y2061872D01*
X3022823Y2061680D01*
X3022593Y2061372D01*
X3022363Y2060950D01*
X3022094Y2060412D01*
X3021863Y2059798D01*
X3021710Y2059068D01*
X3021633Y2058300D01*
Y2058262D01*
Y2058070D01*
X3021671Y2057840D01*
X3021710Y2057494D01*
X3021787Y2057110D01*
X3021902Y2056649D01*
X3022055Y2056188D01*
X3022247Y2055727D01*
X3022286Y2055689D01*
X3022363Y2055535D01*
X3022516Y2055305D01*
X3022708Y2055036D01*
X3022977Y2054729D01*
X3023284Y2054383D01*
X3023668Y2054076D01*
X3024091Y2053807D01*
X3024168Y2053769D01*
X3024321Y2053692D01*
X3024552Y2053615D01*
X3024897Y2053500D01*
X3025320Y2053347D01*
X3025742Y2053270D01*
X3026241Y2053193D01*
X3026779Y2053155D01*
X3027009D01*
X3027163Y2053193D01*
X3027547Y2053231D01*
X3028084Y2053347D01*
X3028660Y2053500D01*
X3029275Y2053769D01*
X3029851Y2054115D01*
X3030427Y2054575D01*
X3030503Y2054652D01*
X3030657Y2054844D01*
X3030887Y2055151D01*
X3031156Y2055574D01*
X3031425Y2056073D01*
X3031655Y2056726D01*
X3031809Y2057417D01*
X3031886Y2058224D01*
Y2058262D01*
Y2058339D01*
Y2058454D01*
X3031847Y2058608D01*
X3031809Y2058992D01*
X3031694Y2059529D01*
X3031540Y2060105D01*
X3031271Y2060720D01*
X3030887Y2061334D01*
X3030388Y2061910D01*
X3030311Y2061987D01*
X3030119Y2062140D01*
X3029812Y2062371D01*
X3029390Y2062678D01*
X3028852Y2062947D01*
X3028200Y2063177D01*
X3027470Y2063331D01*
X3026664Y2063407D01*
D02*
G37*
G36*
X4304077Y2848699D02*
X4303885D01*
X4303731Y2848661D01*
X4303347Y2848622D01*
X4302848Y2848507D01*
X4302310Y2848315D01*
X4301696Y2848046D01*
X4301120Y2847662D01*
X4300544Y2847163D01*
X4300467Y2847086D01*
X4300314Y2846894D01*
X4300083Y2846549D01*
X4299814Y2846126D01*
X4299546Y2845550D01*
X4299315Y2844859D01*
X4299162Y2844091D01*
X4299085Y2843208D01*
Y2843131D01*
Y2842939D01*
X4299123Y2842632D01*
X4299162Y2842248D01*
X4299238Y2841749D01*
X4299354Y2841250D01*
X4299507Y2840712D01*
X4299738Y2840136D01*
X4299776Y2840059D01*
X4299853Y2839906D01*
X4300006Y2839637D01*
X4300237Y2839330D01*
X4300506Y2838946D01*
X4300813Y2838600D01*
X4301197Y2838216D01*
X4301619Y2837909D01*
X4301658Y2837870D01*
X4301850Y2837794D01*
X4302080Y2837678D01*
X4302387Y2837563D01*
X4302771Y2837410D01*
X4303232Y2837294D01*
X4303693Y2837218D01*
X4304192Y2837179D01*
X4304384D01*
X4304538Y2837218D01*
X4304883Y2837256D01*
X4305382Y2837371D01*
X4305882Y2837563D01*
X4306458Y2837832D01*
X4307034Y2838216D01*
X4307571Y2838754D01*
X4307648Y2838830D01*
X4307802Y2839061D01*
X4308032Y2839406D01*
X4308301Y2839867D01*
X4308531Y2840482D01*
X4308762Y2841250D01*
X4308915Y2842094D01*
X4308992Y2843054D01*
Y2843093D01*
Y2843170D01*
Y2843323D01*
X4308954Y2843477D01*
Y2843707D01*
X4308915Y2843976D01*
X4308838Y2844552D01*
X4308646Y2845205D01*
X4308416Y2845896D01*
X4308070Y2846549D01*
X4307610Y2847163D01*
X4307533Y2847240D01*
X4307379Y2847394D01*
X4307072Y2847662D01*
X4306650Y2847931D01*
X4306150Y2848200D01*
X4305536Y2848469D01*
X4304845Y2848622D01*
X4304077Y2848699D01*
D02*
G37*
G36*
X4263258Y2857493D02*
X4255309D01*
Y2849160D01*
X4262835D01*
X4263258Y2849198D01*
X4263757Y2849237D01*
X4264333Y2849275D01*
X4264947Y2849352D01*
X4265523Y2849467D01*
X4266022Y2849621D01*
X4266099Y2849659D01*
X4266253Y2849698D01*
X4266483Y2849813D01*
X4266752Y2849966D01*
X4267059Y2850197D01*
X4267405Y2850466D01*
X4267712Y2850773D01*
X4267981Y2851118D01*
X4268019Y2851157D01*
X4268096Y2851310D01*
X4268211Y2851502D01*
X4268326Y2851810D01*
X4268442Y2852117D01*
X4268557Y2852501D01*
X4268634Y2852923D01*
X4268672Y2853384D01*
Y2853422D01*
Y2853461D01*
Y2853691D01*
X4268595Y2853998D01*
X4268518Y2854421D01*
X4268365Y2854882D01*
X4268134Y2855381D01*
X4267789Y2855880D01*
X4267366Y2856341D01*
X4267290Y2856379D01*
X4267136Y2856533D01*
X4266790Y2856725D01*
X4266368Y2856917D01*
X4265792Y2857147D01*
X4265101Y2857301D01*
X4264256Y2857454D01*
X4263258Y2857493D01*
D02*
G37*
G36*
Y2756256D02*
X4255309D01*
Y2747923D01*
X4262835D01*
X4263258Y2747961D01*
X4263757Y2747999D01*
X4264333Y2748038D01*
X4264947Y2748115D01*
X4265523Y2748230D01*
X4266022Y2748383D01*
X4266099Y2748422D01*
X4266253Y2748460D01*
X4266483Y2748575D01*
X4266752Y2748729D01*
X4267059Y2748959D01*
X4267405Y2749228D01*
X4267712Y2749535D01*
X4267981Y2749881D01*
X4268019Y2749919D01*
X4268096Y2750073D01*
X4268211Y2750265D01*
X4268326Y2750572D01*
X4268442Y2750880D01*
X4268557Y2751264D01*
X4268634Y2751686D01*
X4268672Y2752147D01*
Y2752185D01*
Y2752224D01*
Y2752454D01*
X4268595Y2752761D01*
X4268518Y2753184D01*
X4268365Y2753644D01*
X4268134Y2754144D01*
X4267789Y2754643D01*
X4267366Y2755104D01*
X4267290Y2755142D01*
X4267136Y2755296D01*
X4266790Y2755488D01*
X4266368Y2755680D01*
X4265792Y2755910D01*
X4265101Y2756064D01*
X4264256Y2756217D01*
X4263258Y2756256D01*
D02*
G37*
G36*
X4305574Y2652330D02*
X4297664Y2641041D01*
X4305574D01*
Y2652330D01*
D02*
G37*
G36*
X4263258Y2654596D02*
X4255309D01*
Y2646263D01*
X4262835D01*
X4263258Y2646301D01*
X4263757Y2646340D01*
X4264333Y2646378D01*
X4264947Y2646455D01*
X4265523Y2646570D01*
X4266022Y2646724D01*
X4266099Y2646762D01*
X4266253Y2646801D01*
X4266483Y2646916D01*
X4266752Y2647069D01*
X4267059Y2647300D01*
X4267405Y2647569D01*
X4267712Y2647876D01*
X4267981Y2648221D01*
X4268019Y2648260D01*
X4268096Y2648413D01*
X4268211Y2648605D01*
X4268326Y2648913D01*
X4268442Y2649220D01*
X4268557Y2649604D01*
X4268634Y2650026D01*
X4268672Y2650487D01*
Y2650525D01*
Y2650564D01*
Y2650794D01*
X4268595Y2651101D01*
X4268518Y2651524D01*
X4268365Y2651985D01*
X4268134Y2652484D01*
X4267789Y2652983D01*
X4267366Y2653444D01*
X4267290Y2653482D01*
X4267136Y2653636D01*
X4266790Y2653828D01*
X4266368Y2654020D01*
X4265792Y2654250D01*
X4265101Y2654404D01*
X4264256Y2654557D01*
X4263258Y2654596D01*
D02*
G37*
G36*
Y2553781D02*
X4255309D01*
Y2545448D01*
X4262835D01*
X4263258Y2545486D01*
X4263757Y2545525D01*
X4264333Y2545563D01*
X4264947Y2545640D01*
X4265523Y2545755D01*
X4266022Y2545909D01*
X4266099Y2545947D01*
X4266253Y2545986D01*
X4266483Y2546101D01*
X4266752Y2546255D01*
X4267059Y2546485D01*
X4267405Y2546754D01*
X4267712Y2547061D01*
X4267981Y2547407D01*
X4268019Y2547445D01*
X4268096Y2547599D01*
X4268211Y2547791D01*
X4268326Y2548098D01*
X4268442Y2548405D01*
X4268557Y2548789D01*
X4268634Y2549211D01*
X4268672Y2549672D01*
Y2549711D01*
Y2549749D01*
Y2549979D01*
X4268595Y2550287D01*
X4268518Y2550709D01*
X4268365Y2551170D01*
X4268134Y2551669D01*
X4267789Y2552168D01*
X4267366Y2552629D01*
X4267290Y2552667D01*
X4267136Y2552821D01*
X4266790Y2553013D01*
X4266368Y2553205D01*
X4265792Y2553435D01*
X4265101Y2553589D01*
X4264256Y2553742D01*
X4263258Y2553781D01*
D02*
G37*
G36*
Y2452121D02*
X4255309D01*
Y2443788D01*
X4262835D01*
X4263258Y2443827D01*
X4263757Y2443865D01*
X4264333Y2443904D01*
X4264947Y2443980D01*
X4265523Y2444096D01*
X4266022Y2444249D01*
X4266099Y2444288D01*
X4266253Y2444326D01*
X4266483Y2444441D01*
X4266752Y2444595D01*
X4267059Y2444825D01*
X4267405Y2445094D01*
X4267712Y2445401D01*
X4267981Y2445747D01*
X4268019Y2445785D01*
X4268096Y2445939D01*
X4268211Y2446131D01*
X4268326Y2446438D01*
X4268442Y2446745D01*
X4268557Y2447129D01*
X4268634Y2447552D01*
X4268672Y2448012D01*
Y2448051D01*
Y2448089D01*
Y2448320D01*
X4268595Y2448627D01*
X4268518Y2449049D01*
X4268365Y2449510D01*
X4268134Y2450009D01*
X4267789Y2450508D01*
X4267366Y2450969D01*
X4267290Y2451008D01*
X4267136Y2451161D01*
X4266790Y2451353D01*
X4266368Y2451545D01*
X4265792Y2451776D01*
X4265101Y2451929D01*
X4264256Y2452083D01*
X4263258Y2452121D01*
D02*
G37*
G36*
Y2350884D02*
X4255309D01*
Y2342551D01*
X4262835D01*
X4263258Y2342590D01*
X4263757Y2342628D01*
X4264333Y2342666D01*
X4264947Y2342743D01*
X4265523Y2342858D01*
X4266022Y2343012D01*
X4266099Y2343050D01*
X4266253Y2343089D01*
X4266483Y2343204D01*
X4266752Y2343358D01*
X4267059Y2343588D01*
X4267405Y2343857D01*
X4267712Y2344164D01*
X4267981Y2344510D01*
X4268019Y2344548D01*
X4268096Y2344702D01*
X4268211Y2344894D01*
X4268326Y2345201D01*
X4268442Y2345508D01*
X4268557Y2345892D01*
X4268634Y2346314D01*
X4268672Y2346775D01*
Y2346814D01*
Y2346852D01*
Y2347082D01*
X4268595Y2347390D01*
X4268518Y2347812D01*
X4268365Y2348273D01*
X4268134Y2348772D01*
X4267789Y2349271D01*
X4267366Y2349732D01*
X4267290Y2349770D01*
X4267136Y2349924D01*
X4266790Y2350116D01*
X4266368Y2350308D01*
X4265792Y2350538D01*
X4265101Y2350692D01*
X4264256Y2350845D01*
X4263258Y2350884D01*
D02*
G37*
G36*
Y2250069D02*
X4255309D01*
Y2241736D01*
X4262835D01*
X4263258Y2241775D01*
X4263757Y2241813D01*
X4264333Y2241851D01*
X4264947Y2241928D01*
X4265523Y2242043D01*
X4266022Y2242197D01*
X4266099Y2242235D01*
X4266253Y2242274D01*
X4266483Y2242389D01*
X4266752Y2242543D01*
X4267059Y2242773D01*
X4267405Y2243042D01*
X4267712Y2243349D01*
X4267981Y2243695D01*
X4268019Y2243733D01*
X4268096Y2243887D01*
X4268211Y2244079D01*
X4268326Y2244386D01*
X4268442Y2244693D01*
X4268557Y2245077D01*
X4268634Y2245499D01*
X4268672Y2245960D01*
Y2245999D01*
Y2246037D01*
Y2246267D01*
X4268595Y2246575D01*
X4268518Y2246997D01*
X4268365Y2247458D01*
X4268134Y2247957D01*
X4267789Y2248456D01*
X4267366Y2248917D01*
X4267290Y2248955D01*
X4267136Y2249109D01*
X4266790Y2249301D01*
X4266368Y2249493D01*
X4265792Y2249723D01*
X4265101Y2249877D01*
X4264256Y2250031D01*
X4263258Y2250069D01*
D02*
G37*
G36*
X4303846Y2250415D02*
X4303654D01*
X4303501Y2250376D01*
X4303117Y2250338D01*
X4302618Y2250184D01*
X4302080Y2249954D01*
X4301504Y2249647D01*
X4300928Y2249186D01*
X4300659Y2248879D01*
X4300429Y2248571D01*
Y2248533D01*
X4300352Y2248456D01*
X4300275Y2248303D01*
X4300198Y2248111D01*
X4300083Y2247842D01*
X4299930Y2247535D01*
X4299776Y2247112D01*
X4299661Y2246651D01*
X4299507Y2246114D01*
X4299354Y2245499D01*
X4299238Y2244808D01*
X4299085Y2244002D01*
X4299008Y2243157D01*
X4298931Y2242235D01*
X4298854Y2241199D01*
Y2240085D01*
Y2240008D01*
Y2239816D01*
Y2239509D01*
X4298893Y2239087D01*
Y2238587D01*
X4298931Y2238011D01*
X4298970Y2237359D01*
X4299046Y2236706D01*
X4299200Y2235323D01*
X4299469Y2233941D01*
X4299622Y2233327D01*
X4299814Y2232751D01*
X4300045Y2232213D01*
X4300275Y2231791D01*
Y2231752D01*
X4300352Y2231714D01*
X4300544Y2231483D01*
X4300851Y2231138D01*
X4301274Y2230792D01*
X4301811Y2230408D01*
X4302426Y2230063D01*
X4303117Y2229832D01*
X4303501Y2229794D01*
X4303885Y2229755D01*
X4304077D01*
X4304230Y2229794D01*
X4304614Y2229871D01*
X4305114Y2230024D01*
X4305690Y2230255D01*
X4306266Y2230600D01*
X4306573Y2230831D01*
X4306880Y2231138D01*
X4307187Y2231445D01*
X4307456Y2231791D01*
Y2231829D01*
X4307533Y2231906D01*
X4307610Y2232021D01*
X4307686Y2232213D01*
X4307802Y2232443D01*
X4307917Y2232789D01*
X4308032Y2233173D01*
X4308186Y2233595D01*
X4308339Y2234133D01*
X4308454Y2234709D01*
X4308570Y2235400D01*
X4308685Y2236168D01*
X4308800Y2237013D01*
X4308838Y2237935D01*
X4308915Y2238971D01*
Y2240085D01*
Y2240162D01*
Y2240354D01*
Y2240661D01*
X4308877Y2241083D01*
Y2241583D01*
X4308838Y2242159D01*
X4308800Y2242773D01*
X4308723Y2243464D01*
X4308570Y2244847D01*
X4308301Y2246191D01*
X4308147Y2246843D01*
X4307955Y2247419D01*
X4307725Y2247919D01*
X4307456Y2248341D01*
Y2248379D01*
X4307379Y2248418D01*
X4307187Y2248648D01*
X4306880Y2248994D01*
X4306458Y2249378D01*
X4305920Y2249762D01*
X4305306Y2250107D01*
X4304614Y2250338D01*
X4304230Y2250376D01*
X4303846Y2250415D01*
D02*
G37*
G36*
X4284378Y2149177D02*
X4284186D01*
X4284032Y2149139D01*
X4283648Y2149101D01*
X4283149Y2148985D01*
X4282573Y2148755D01*
X4281997Y2148448D01*
X4281382Y2148064D01*
X4281075Y2147795D01*
X4280768Y2147488D01*
X4280691Y2147411D01*
X4280538Y2147180D01*
X4280307Y2146796D01*
X4280038Y2146297D01*
X4279731Y2145683D01*
X4279501Y2144915D01*
X4279347Y2144070D01*
X4279270Y2143110D01*
Y2143072D01*
Y2142995D01*
Y2142880D01*
X4279309Y2142726D01*
X4279347Y2142265D01*
X4279462Y2141728D01*
X4279616Y2141075D01*
X4279885Y2140422D01*
X4280230Y2139808D01*
X4280691Y2139193D01*
X4280768Y2139117D01*
X4280960Y2138963D01*
X4281267Y2138733D01*
X4281690Y2138464D01*
X4282227Y2138157D01*
X4282842Y2137926D01*
X4283533Y2137773D01*
X4284301Y2137696D01*
X4284493D01*
X4284646Y2137734D01*
X4285030Y2137773D01*
X4285530Y2137888D01*
X4286067Y2138080D01*
X4286682Y2138310D01*
X4287258Y2138694D01*
X4287795Y2139193D01*
X4287872Y2139270D01*
X4288026Y2139462D01*
X4288256Y2139808D01*
X4288525Y2140269D01*
X4288755Y2140883D01*
X4288986Y2141574D01*
X4289139Y2142419D01*
X4289216Y2143340D01*
Y2143379D01*
Y2143456D01*
Y2143609D01*
X4289178Y2143801D01*
Y2144032D01*
X4289139Y2144262D01*
X4289024Y2144876D01*
X4288870Y2145568D01*
X4288602Y2146259D01*
X4288256Y2146950D01*
X4287795Y2147603D01*
X4287718Y2147680D01*
X4287526Y2147833D01*
X4287258Y2148102D01*
X4286835Y2148409D01*
X4286336Y2148678D01*
X4285760Y2148947D01*
X4285107Y2149101D01*
X4284378Y2149177D01*
D02*
G37*
G36*
X4263258Y2148832D02*
X4255309D01*
Y2140499D01*
X4262835D01*
X4263258Y2140537D01*
X4263757Y2140576D01*
X4264333Y2140614D01*
X4264947Y2140691D01*
X4265523Y2140806D01*
X4266022Y2140960D01*
X4266099Y2140998D01*
X4266253Y2141037D01*
X4266483Y2141152D01*
X4266752Y2141305D01*
X4267059Y2141536D01*
X4267405Y2141805D01*
X4267712Y2142112D01*
X4267981Y2142457D01*
X4268019Y2142496D01*
X4268096Y2142649D01*
X4268211Y2142841D01*
X4268326Y2143148D01*
X4268442Y2143456D01*
X4268557Y2143840D01*
X4268634Y2144262D01*
X4268672Y2144723D01*
Y2144761D01*
Y2144800D01*
Y2145030D01*
X4268595Y2145337D01*
X4268518Y2145760D01*
X4268365Y2146220D01*
X4268134Y2146720D01*
X4267789Y2147219D01*
X4267366Y2147680D01*
X4267290Y2147718D01*
X4267136Y2147872D01*
X4266790Y2148064D01*
X4266368Y2148256D01*
X4265792Y2148486D01*
X4265101Y2148640D01*
X4264256Y2148793D01*
X4263258Y2148832D01*
D02*
G37*
G36*
X3355912Y2100485D02*
X3348385D01*
X3347963Y2100447D01*
X3347463Y2100408D01*
X3346887Y2100370D01*
X3346273Y2100293D01*
X3345697Y2100178D01*
X3345198Y2100024D01*
X3345121Y2099986D01*
X3344968Y2099948D01*
X3344737Y2099832D01*
X3344468Y2099679D01*
X3344161Y2099448D01*
X3343816Y2099180D01*
X3343508Y2098872D01*
X3343240Y2098527D01*
X3343201Y2098488D01*
X3343124Y2098335D01*
X3343009Y2098143D01*
X3342894Y2097836D01*
X3342779Y2097528D01*
X3342664Y2097144D01*
X3342587Y2096722D01*
X3342548Y2096261D01*
Y2096223D01*
Y2096184D01*
Y2095954D01*
X3342625Y2095647D01*
X3342702Y2095224D01*
X3342856Y2094764D01*
X3343086Y2094264D01*
X3343432Y2093765D01*
X3343854Y2093304D01*
X3343931Y2093266D01*
X3344084Y2093112D01*
X3344430Y2092920D01*
X3344852Y2092728D01*
X3345428Y2092498D01*
X3346119Y2092344D01*
X3346964Y2092191D01*
X3347963Y2092152D01*
X3355912D01*
Y2100485D01*
D02*
G37*
G36*
X3326843Y2112466D02*
X3326612D01*
X3326459Y2112427D01*
X3326075Y2112389D01*
X3325537Y2112274D01*
X3324961Y2112120D01*
X3324347Y2111852D01*
X3323771Y2111506D01*
X3323195Y2111045D01*
X3323118Y2110968D01*
X3322964Y2110776D01*
X3322734Y2110469D01*
X3322465Y2110047D01*
X3322196Y2109548D01*
X3321966Y2108895D01*
X3321812Y2108204D01*
X3321735Y2107397D01*
Y2107359D01*
Y2107282D01*
Y2107167D01*
X3321774Y2107013D01*
X3321812Y2106629D01*
X3321927Y2106091D01*
X3322081Y2105515D01*
X3322350Y2104901D01*
X3322734Y2104287D01*
X3323233Y2103711D01*
X3323310Y2103634D01*
X3323502Y2103480D01*
X3323809Y2103250D01*
X3324231Y2102943D01*
X3324769Y2102674D01*
X3325422Y2102443D01*
X3326151Y2102290D01*
X3326958Y2102213D01*
X3327150D01*
X3327303Y2102251D01*
X3327726Y2102290D01*
X3328225Y2102405D01*
X3328801Y2102559D01*
X3329416Y2102827D01*
X3329992Y2103173D01*
X3330568Y2103672D01*
X3330644Y2103749D01*
X3330798Y2103941D01*
X3331028Y2104248D01*
X3331259Y2104671D01*
X3331528Y2105208D01*
X3331758Y2105823D01*
X3331912Y2106552D01*
X3331988Y2107320D01*
Y2107359D01*
Y2107551D01*
X3331950Y2107781D01*
X3331912Y2108127D01*
X3331835Y2108511D01*
X3331720Y2108972D01*
X3331566Y2109432D01*
X3331374Y2109893D01*
X3331336Y2109932D01*
X3331259Y2110085D01*
X3331105Y2110316D01*
X3330913Y2110584D01*
X3330644Y2110892D01*
X3330337Y2111237D01*
X3329953Y2111544D01*
X3329531Y2111813D01*
X3329454Y2111852D01*
X3329300Y2111928D01*
X3329070Y2112005D01*
X3328724Y2112120D01*
X3328302Y2112274D01*
X3327880Y2112351D01*
X3327380Y2112427D01*
X3326843Y2112466D01*
D02*
G37*
G36*
X3326881Y2099679D02*
X3326574D01*
X3326267Y2099602D01*
X3325844Y2099525D01*
X3325383Y2099410D01*
X3324884Y2099218D01*
X3324385Y2098949D01*
X3323924Y2098565D01*
X3323886Y2098527D01*
X3323732Y2098373D01*
X3323540Y2098143D01*
X3323348Y2097797D01*
X3323118Y2097413D01*
X3322964Y2096914D01*
X3322811Y2096376D01*
X3322772Y2095800D01*
Y2095762D01*
Y2095724D01*
Y2095532D01*
X3322849Y2095186D01*
X3322926Y2094802D01*
X3323079Y2094380D01*
X3323271Y2093880D01*
X3323579Y2093419D01*
X3323963Y2092959D01*
X3324001Y2092920D01*
X3324155Y2092767D01*
X3324423Y2092575D01*
X3324769Y2092344D01*
X3325191Y2092152D01*
X3325691Y2091960D01*
X3326228Y2091807D01*
X3326881Y2091768D01*
X3327188D01*
X3327495Y2091845D01*
X3327918Y2091922D01*
X3328379Y2092037D01*
X3328878Y2092267D01*
X3329377Y2092536D01*
X3329838Y2092920D01*
X3329876Y2092959D01*
X3330030Y2093112D01*
X3330184Y2093381D01*
X3330414Y2093688D01*
X3330606Y2094072D01*
X3330798Y2094572D01*
X3330952Y2095071D01*
X3330990Y2095647D01*
Y2095724D01*
Y2095954D01*
X3330913Y2096261D01*
X3330836Y2096684D01*
X3330721Y2097144D01*
X3330529Y2097605D01*
X3330260Y2098104D01*
X3329876Y2098565D01*
X3329838Y2098604D01*
X3329684Y2098719D01*
X3329416Y2098911D01*
X3329070Y2099103D01*
X3328648Y2099333D01*
X3328110Y2099487D01*
X3327534Y2099640D01*
X3326881Y2099679D01*
D02*
G37*
G36*
X3355912Y2218050D02*
X3348385D01*
X3347963Y2218012D01*
X3347463Y2217974D01*
X3346887Y2217935D01*
X3346273Y2217858D01*
X3345697Y2217743D01*
X3345198Y2217590D01*
X3345121Y2217551D01*
X3344968Y2217513D01*
X3344737Y2217398D01*
X3344468Y2217244D01*
X3344161Y2217014D01*
X3343816Y2216745D01*
X3343508Y2216438D01*
X3343240Y2216092D01*
X3343201Y2216053D01*
X3343124Y2215900D01*
X3343009Y2215708D01*
X3342894Y2215401D01*
X3342779Y2215093D01*
X3342664Y2214709D01*
X3342587Y2214287D01*
X3342548Y2213826D01*
Y2213788D01*
Y2213749D01*
Y2213519D01*
X3342625Y2213212D01*
X3342702Y2212789D01*
X3342856Y2212329D01*
X3343086Y2211829D01*
X3343432Y2211330D01*
X3343854Y2210869D01*
X3343931Y2210831D01*
X3344084Y2210677D01*
X3344430Y2210485D01*
X3344852Y2210294D01*
X3345428Y2210063D01*
X3346119Y2209910D01*
X3346964Y2209756D01*
X3347963Y2209718D01*
X3355912D01*
Y2218050D01*
D02*
G37*
G36*
Y2334771D02*
X3348385D01*
X3347963Y2334732D01*
X3347463Y2334694D01*
X3346887Y2334655D01*
X3346273Y2334579D01*
X3345697Y2334463D01*
X3345198Y2334310D01*
X3345121Y2334271D01*
X3344968Y2334233D01*
X3344737Y2334118D01*
X3344468Y2333964D01*
X3344161Y2333734D01*
X3343816Y2333465D01*
X3343508Y2333158D01*
X3343240Y2332812D01*
X3343201Y2332774D01*
X3343124Y2332620D01*
X3343009Y2332428D01*
X3342894Y2332121D01*
X3342779Y2331814D01*
X3342664Y2331430D01*
X3342587Y2331008D01*
X3342548Y2330547D01*
Y2330508D01*
Y2330470D01*
Y2330240D01*
X3342625Y2329932D01*
X3342702Y2329510D01*
X3342856Y2329049D01*
X3343086Y2328550D01*
X3343432Y2328051D01*
X3343854Y2327590D01*
X3343931Y2327552D01*
X3344084Y2327398D01*
X3344430Y2327206D01*
X3344852Y2327014D01*
X3345428Y2326784D01*
X3346119Y2326630D01*
X3346964Y2326476D01*
X3347963Y2326438D01*
X3355912D01*
Y2334771D01*
D02*
G37*
G36*
X3326612Y2346751D02*
X3326420D01*
X3326267Y2346713D01*
X3325921Y2346675D01*
X3325422Y2346559D01*
X3324923Y2346367D01*
X3324347Y2346099D01*
X3323771Y2345715D01*
X3323233Y2345177D01*
X3323156Y2345100D01*
X3323003Y2344870D01*
X3322772Y2344524D01*
X3322503Y2344064D01*
X3322273Y2343449D01*
X3322043Y2342681D01*
X3321889Y2341836D01*
X3321812Y2340876D01*
Y2340838D01*
Y2340761D01*
Y2340608D01*
X3321851Y2340454D01*
Y2340224D01*
X3321889Y2339955D01*
X3321966Y2339379D01*
X3322158Y2338726D01*
X3322388Y2338035D01*
X3322734Y2337382D01*
X3323195Y2336767D01*
X3323271Y2336691D01*
X3323425Y2336537D01*
X3323732Y2336268D01*
X3324155Y2335999D01*
X3324654Y2335731D01*
X3325268Y2335462D01*
X3325959Y2335308D01*
X3326727Y2335231D01*
X3326919D01*
X3327073Y2335270D01*
X3327457Y2335308D01*
X3327956Y2335423D01*
X3328494Y2335615D01*
X3329108Y2335884D01*
X3329684Y2336268D01*
X3330260Y2336767D01*
X3330337Y2336844D01*
X3330491Y2337036D01*
X3330721Y2337382D01*
X3330990Y2337804D01*
X3331259Y2338380D01*
X3331489Y2339072D01*
X3331643Y2339840D01*
X3331720Y2340723D01*
Y2340800D01*
Y2340992D01*
X3331681Y2341299D01*
X3331643Y2341683D01*
X3331566Y2342182D01*
X3331451Y2342681D01*
X3331297Y2343219D01*
X3331067Y2343795D01*
X3331028Y2343872D01*
X3330952Y2344025D01*
X3330798Y2344294D01*
X3330568Y2344601D01*
X3330299Y2344985D01*
X3329992Y2345331D01*
X3329608Y2345715D01*
X3329185Y2346022D01*
X3329147Y2346060D01*
X3328955Y2346137D01*
X3328724Y2346252D01*
X3328417Y2346367D01*
X3328033Y2346521D01*
X3327572Y2346636D01*
X3327111Y2346713D01*
X3326612Y2346751D01*
D02*
G37*
G36*
X3355912Y2451914D02*
X3348385D01*
X3347963Y2451875D01*
X3347463Y2451837D01*
X3346887Y2451798D01*
X3346273Y2451722D01*
X3345697Y2451606D01*
X3345198Y2451453D01*
X3345121Y2451414D01*
X3344968Y2451376D01*
X3344737Y2451261D01*
X3344468Y2451107D01*
X3344161Y2450877D01*
X3343816Y2450608D01*
X3343508Y2450301D01*
X3343240Y2449955D01*
X3343201Y2449917D01*
X3343124Y2449763D01*
X3343009Y2449571D01*
X3342894Y2449264D01*
X3342779Y2448957D01*
X3342664Y2448573D01*
X3342587Y2448150D01*
X3342548Y2447689D01*
Y2447651D01*
Y2447613D01*
Y2447382D01*
X3342625Y2447075D01*
X3342702Y2446653D01*
X3342856Y2446192D01*
X3343086Y2445693D01*
X3343432Y2445193D01*
X3343854Y2444733D01*
X3343931Y2444694D01*
X3344084Y2444541D01*
X3344430Y2444349D01*
X3344852Y2444157D01*
X3345428Y2443926D01*
X3346119Y2443773D01*
X3346964Y2443619D01*
X3347963Y2443581D01*
X3355912D01*
Y2451914D01*
D02*
G37*
G36*
Y2569479D02*
X3348385D01*
X3347963Y2569440D01*
X3347463Y2569402D01*
X3346887Y2569363D01*
X3346273Y2569287D01*
X3345697Y2569171D01*
X3345198Y2569018D01*
X3345121Y2568979D01*
X3344968Y2568941D01*
X3344737Y2568826D01*
X3344468Y2568672D01*
X3344161Y2568442D01*
X3343816Y2568173D01*
X3343508Y2567866D01*
X3343240Y2567520D01*
X3343201Y2567482D01*
X3343124Y2567328D01*
X3343009Y2567136D01*
X3342894Y2566829D01*
X3342779Y2566522D01*
X3342664Y2566138D01*
X3342587Y2565715D01*
X3342548Y2565255D01*
Y2565216D01*
Y2565178D01*
Y2564948D01*
X3342625Y2564640D01*
X3342702Y2564218D01*
X3342856Y2563757D01*
X3343086Y2563258D01*
X3343432Y2562759D01*
X3343854Y2562298D01*
X3343931Y2562260D01*
X3344084Y2562106D01*
X3344430Y2561914D01*
X3344852Y2561722D01*
X3345428Y2561492D01*
X3346119Y2561338D01*
X3346964Y2561184D01*
X3347963Y2561146D01*
X3355912D01*
Y2569479D01*
D02*
G37*
G36*
X3333140Y2574701D02*
X3325230D01*
Y2563412D01*
X3333140Y2574701D01*
D02*
G37*
G36*
X3355912Y2686199D02*
X3348385D01*
X3347963Y2686161D01*
X3347463Y2686122D01*
X3346887Y2686084D01*
X3346273Y2686007D01*
X3345697Y2685892D01*
X3345198Y2685738D01*
X3345121Y2685700D01*
X3344968Y2685662D01*
X3344737Y2685546D01*
X3344468Y2685393D01*
X3344161Y2685162D01*
X3343816Y2684894D01*
X3343508Y2684586D01*
X3343240Y2684241D01*
X3343201Y2684202D01*
X3343124Y2684049D01*
X3343009Y2683857D01*
X3342894Y2683550D01*
X3342779Y2683242D01*
X3342664Y2682858D01*
X3342587Y2682436D01*
X3342548Y2681975D01*
Y2681937D01*
Y2681898D01*
Y2681668D01*
X3342625Y2681361D01*
X3342702Y2680938D01*
X3342856Y2680477D01*
X3343086Y2679978D01*
X3343432Y2679479D01*
X3343854Y2679018D01*
X3343931Y2678980D01*
X3344084Y2678826D01*
X3344430Y2678634D01*
X3344852Y2678442D01*
X3345428Y2678212D01*
X3346119Y2678058D01*
X3346964Y2677905D01*
X3347963Y2677866D01*
X3355912D01*
Y2686199D01*
D02*
G37*
G36*
Y2803764D02*
X3348385D01*
X3347963Y2803726D01*
X3347463Y2803688D01*
X3346887Y2803649D01*
X3346273Y2803572D01*
X3345697Y2803457D01*
X3345198Y2803303D01*
X3345121Y2803265D01*
X3344968Y2803227D01*
X3344737Y2803111D01*
X3344468Y2802958D01*
X3344161Y2802727D01*
X3343816Y2802459D01*
X3343508Y2802151D01*
X3343240Y2801806D01*
X3343201Y2801767D01*
X3343124Y2801614D01*
X3343009Y2801422D01*
X3342894Y2801115D01*
X3342779Y2800807D01*
X3342664Y2800423D01*
X3342587Y2800001D01*
X3342548Y2799540D01*
Y2799502D01*
Y2799463D01*
Y2799233D01*
X3342625Y2798926D01*
X3342702Y2798503D01*
X3342856Y2798043D01*
X3343086Y2797544D01*
X3343432Y2797044D01*
X3343854Y2796584D01*
X3343931Y2796545D01*
X3344084Y2796392D01*
X3344430Y2796200D01*
X3344852Y2796008D01*
X3345428Y2795777D01*
X3346119Y2795624D01*
X3346964Y2795470D01*
X3347963Y2795432D01*
X3355912D01*
Y2803764D01*
D02*
G37*
G36*
Y2920907D02*
X3348385D01*
X3347963Y2920869D01*
X3347463Y2920830D01*
X3346887Y2920792D01*
X3346273Y2920715D01*
X3345697Y2920600D01*
X3345198Y2920446D01*
X3345121Y2920408D01*
X3344968Y2920369D01*
X3344737Y2920254D01*
X3344468Y2920101D01*
X3344161Y2919870D01*
X3343816Y2919602D01*
X3343508Y2919294D01*
X3343240Y2918949D01*
X3343201Y2918910D01*
X3343124Y2918757D01*
X3343009Y2918565D01*
X3342894Y2918258D01*
X3342779Y2917950D01*
X3342664Y2917566D01*
X3342587Y2917144D01*
X3342548Y2916683D01*
Y2916645D01*
Y2916606D01*
Y2916376D01*
X3342625Y2916069D01*
X3342702Y2915646D01*
X3342856Y2915186D01*
X3343086Y2914686D01*
X3343432Y2914187D01*
X3343854Y2913726D01*
X3343931Y2913688D01*
X3344084Y2913534D01*
X3344430Y2913342D01*
X3344852Y2913150D01*
X3345428Y2912920D01*
X3346119Y2912766D01*
X3346964Y2912613D01*
X3347963Y2912574D01*
X3355912D01*
Y2920907D01*
D02*
G37*
%LPD*%
D27*
X2890000Y2304916D02*
Y2379719D01*
Y2304916D02*
X3098661D01*
Y2379719D01*
X2890000D02*
X3098661D01*
X2890000Y2162773D02*
Y2237576D01*
Y2162773D02*
X3098661D01*
Y2237576D01*
X2890000D02*
X3098661D01*
X2890000Y2447058D02*
Y2521861D01*
Y2447058D02*
X3098661D01*
Y2521861D01*
X2890000D02*
X3098661D01*
X2890000Y2589201D02*
Y2664004D01*
Y2589201D02*
X3098661D01*
Y2664004D01*
X2890000D02*
X3098661D01*
X2890000Y2731344D02*
Y2806147D01*
Y2731344D02*
X3098661D01*
Y2806147D01*
X2890000D02*
X3098661D01*
X2890000Y3015630D02*
Y3090433D01*
Y3015630D02*
X3098661D01*
Y3090433D01*
X2890000D02*
X3098661D01*
X2890000Y2873487D02*
Y2948290D01*
Y2873487D02*
X3098661D01*
Y2948290D01*
X2890000D02*
X3098661D01*
X2890000Y2020630D02*
Y2095433D01*
Y2020630D02*
X3098661D01*
Y2095433D01*
X2890000D02*
X3098661D01*
X4555118Y2032677D02*
X4972441D01*
Y3085433D01*
X4555118D02*
X4972441D01*
X4555118Y2032677D02*
Y3085433D01*
X4188976Y2804133D02*
Y2865157D01*
Y2804133D02*
X4314961D01*
Y2865157D01*
X4188976D02*
X4314961D01*
X4188976Y2702896D02*
Y2763920D01*
Y2702896D02*
X4314961D01*
Y2763920D01*
X4188976D02*
X4314961D01*
X4188976Y2601659D02*
Y2662682D01*
Y2601659D02*
X4314961D01*
Y2662682D01*
X4188976D02*
X4314961D01*
X4188976Y2500422D02*
Y2561445D01*
Y2500422D02*
X4314961D01*
Y2561445D01*
X4188976D02*
X4314961D01*
X4188976Y2399184D02*
Y2460208D01*
Y2399184D02*
X4314961D01*
Y2460208D01*
X4188976D02*
X4314961D01*
X4188976Y2297947D02*
Y2358971D01*
Y2297947D02*
X4314961D01*
Y2358971D01*
X4188976D02*
X4314961D01*
X4188976Y2196710D02*
Y2257733D01*
Y2196710D02*
X4314961D01*
Y2257733D01*
X4188976D02*
X4314961D01*
X4188976Y2095472D02*
Y2156496D01*
Y2095472D02*
X4314961D01*
Y2156496D01*
X4188976D02*
X4314961D01*
X3422244Y2084488D02*
Y2145512D01*
X3296260D02*
X3422244D01*
X3296260Y2084488D02*
Y2145512D01*
Y2084488D02*
X3422244D01*
Y2201631D02*
Y2262655D01*
X3296260D02*
X3422244D01*
X3296260Y2201631D02*
Y2262655D01*
Y2201631D02*
X3422244D01*
Y2318774D02*
Y2379797D01*
X3296260D02*
X3422244D01*
X3296260Y2318774D02*
Y2379797D01*
Y2318774D02*
X3422244D01*
Y2435917D02*
Y2496940D01*
X3296260D02*
X3422244D01*
X3296260Y2435917D02*
Y2496940D01*
Y2435917D02*
X3422244D01*
Y2553059D02*
Y2614083D01*
X3296260D02*
X3422244D01*
X3296260Y2553059D02*
Y2614083D01*
Y2553059D02*
X3422244D01*
Y2670202D02*
Y2731226D01*
X3296260D02*
X3422244D01*
X3296260Y2670202D02*
Y2731226D01*
Y2670202D02*
X3422244D01*
Y2787345D02*
Y2848369D01*
X3296260D02*
X3422244D01*
X3296260Y2787345D02*
Y2848369D01*
Y2787345D02*
X3422244D01*
Y2904488D02*
Y2965511D01*
X3296260D02*
X3422244D01*
X3296260Y2904488D02*
Y2965511D01*
Y2904488D02*
X3422244D01*
%TF.MD5,645db784c9219efd6a340fcc51b5eea5*%
M02*
